<svg width="133" height="45" viewBox="0 0 133 45" fill="none" xmlns="http://www.w3.org/2000/svg">
<g clip-path="url(#clip0)">
<path d="M0.721617 2.88647C0.721617 1.69086 1.69086 0.721617 2.88648 0.721617H129.729C130.925 0.721617 131.894 1.69085 131.894 2.88647V42.1082C131.894 43.3038 130.925 44.273 129.729 44.273H2.88647C1.69085 44.273 0.721617 43.3038 0.721617 42.1082V2.88647Z" stroke="#494949" stroke-width="1.44323" stroke-linecap="square"/>
<path fill-rule="evenodd" clip-rule="evenodd" d="M84.3735 31.9361C85.1578 31.2289 85.5485 30.3128 85.5485 29.1869C85.5485 28.2719 85.2811 27.505 84.7453 26.8923C84.2075 26.2777 83.3715 25.7416 82.2334 25.283C81.3029 24.916 80.6618 24.5759 80.3089 24.2616C79.9033 23.9214 79.7015 23.4888 79.7015 22.9656C79.7015 22.4931 79.8785 22.0943 80.2314 21.7671C80.6489 21.4011 81.2314 21.217 81.9769 21.217C82.9202 21.217 83.7632 21.4199 84.5087 21.8258L85.0385 20.0971C84.2403 19.6784 83.2403 19.4685 82.0365 19.4685C80.6866 19.4685 79.6071 19.8156 78.798 20.5109C77.9858 21.2051 77.5803 22.0973 77.5803 23.1854C77.5803 24.8504 78.7373 26.1165 81.0534 26.9809C81.9043 27.2962 82.5137 27.6373 82.8785 28.0043C83.2453 28.3713 83.4282 28.8239 83.4282 29.361C83.4282 29.9637 83.2065 30.4471 82.7622 30.8072C82.3159 31.1672 81.6946 31.3482 80.8964 31.3482C79.7841 31.3482 78.7632 31.0658 77.8328 30.5028L77.3417 32.2702C78.2055 32.8203 79.3467 33.0948 80.7701 33.0948C82.3119 33.0948 83.5117 32.7089 84.3735 31.9361ZM49.1019 32.8979H51.3594L47.0801 19.6615H44.4498L40.1914 32.8979H42.3892L43.5671 29.0099H47.8653L49.1019 32.8979ZM46.375 23.9234L47.4933 27.3797H43.9416L45.04 23.9234C45.3282 22.8244 45.538 21.9929 45.6682 21.4299H45.708C46.035 22.7388 46.2567 23.5703 46.375 23.9234ZM60.996 31.8558C61.8728 30.9139 62.3111 29.6309 62.3111 28.0077C62.3111 26.5545 61.9354 25.3829 61.1819 24.4917C60.4304 23.6015 59.4911 23.1569 58.3658 23.1569C56.9265 23.1569 55.8539 23.7258 55.1471 24.8657H55.1074L54.9891 23.3528H53.1253C53.177 24.427 53.2038 25.4744 53.2038 26.4948V36.7862H55.3231V31.7584H55.3628C55.9125 32.6615 56.8151 33.113 58.0716 33.113C59.2356 33.113 60.2107 32.6943 60.996 31.8558ZM60.152 28.0849C60.152 27.1559 59.9432 26.3901 59.5237 25.7873C59.0655 25.1587 58.4502 24.8444 57.6788 24.8444C57.156 24.8444 56.6808 25.0195 56.2564 25.3646C55.8309 25.7127 55.5526 26.1673 55.4224 26.7302C55.3568 26.9928 55.3239 27.2076 55.3239 27.3767V28.9681C55.3239 29.6624 55.5367 30.2482 55.9621 30.7266C56.3876 31.205 56.9402 31.4437 57.6202 31.4437C58.4184 31.4437 59.0396 31.1354 59.484 30.5207C59.9293 29.9051 60.152 29.0934 60.152 28.0849ZM71.9668 31.8558C72.8445 30.9139 73.2829 29.6309 73.2829 28.0077C73.2829 26.5545 72.9061 25.3829 72.1556 24.4917C71.4021 23.6015 70.4628 23.1569 69.3385 23.1569C67.8982 23.1569 66.8256 23.7258 66.1198 24.8657H66.0801L65.9618 23.3528H64.098C64.1497 24.427 64.1765 25.4744 64.1765 26.4948V36.7862H66.2958V31.7584H66.3356C66.8843 32.6615 67.7868 33.113 69.0433 33.113C70.2073 33.113 71.1825 32.6943 71.9668 31.8558ZM71.1228 28.0849C71.1228 27.1559 70.9131 26.3901 70.4936 25.7873C70.0353 25.1587 69.422 24.8444 68.6496 24.8444C68.1258 24.8444 67.6516 25.0195 67.2262 25.3646C66.8007 25.7127 66.5234 26.1673 66.3932 26.7302C66.3286 26.9928 66.2948 27.2076 66.2948 27.3767V28.9681C66.2948 29.6624 66.5075 30.2482 66.931 30.7266C67.3564 31.204 67.9091 31.4437 68.591 31.4437C69.3892 31.4437 70.0105 31.1354 70.4548 30.5207C70.9001 29.9051 71.1228 29.0934 71.1228 28.0849ZM92.5563 24.947H90.2203V29.581C90.2203 30.7596 90.6318 31.3484 91.4569 31.3484C91.8356 31.3484 92.1497 31.3156 92.3982 31.2499L92.4569 32.8602C92.0394 33.0164 91.4897 33.095 90.8088 33.095C89.9718 33.095 89.3177 32.8393 88.8456 32.3291C88.3754 31.8179 88.1388 30.9605 88.1388 29.756V24.945H86.7472V23.3537H88.1388V21.6061L90.2203 20.9775V23.3537H92.5563V24.947ZM101.839 31.6613C102.676 30.7194 103.096 29.5149 103.096 28.0478C103.096 26.6205 102.69 25.4558 101.877 24.5537C101.027 23.6238 99.901 23.1593 98.5014 23.1593C97.0491 23.1593 95.894 23.6307 95.0381 24.5736C94.1803 25.5155 93.7529 26.727 93.7529 28.206C93.7529 29.6193 94.1684 30.792 94.9994 31.721C95.8304 32.6499 96.9447 33.1144 98.3443 33.1144C99.7966 33.1144 100.962 32.631 101.839 31.6613ZM100.896 28.1162C100.896 27.236 100.708 26.481 100.328 25.8514C99.8832 25.0896 99.248 24.7096 98.4249 24.7096C97.573 24.7096 96.9259 25.0906 96.4816 25.8514C96.1009 26.482 95.913 27.2489 95.913 28.156C95.913 29.0362 96.1009 29.7911 96.4816 30.4197C96.9398 31.1816 97.58 31.5616 98.406 31.5616C99.2152 31.5616 99.8504 31.1737 100.309 30.3998C100.699 29.7583 100.896 28.9954 100.896 28.1162ZM109.316 25.1614C109.551 25.1614 109.774 25.1813 109.984 25.2201V23.1981C109.827 23.1732 109.65 23.1593 109.454 23.1593C108.904 23.1593 108.395 23.3294 107.922 23.6705C107.439 24.0495 107.086 24.5547 106.863 25.1823H106.804L106.727 23.3562H104.881C104.933 24.2593 104.96 25.2609 104.96 26.361L104.94 32.8996H107.059V27.8917C107.059 27.1328 107.235 26.5042 107.588 26.0069C107.994 25.4429 108.57 25.1614 109.316 25.1614ZM119.462 27.6749C119.462 28.0549 119.437 28.3752 119.385 28.6367H113.027C113.052 29.5796 113.359 30.3007 113.949 30.7981C114.485 31.2426 115.178 31.4654 116.029 31.4654C116.97 31.4654 117.829 31.3153 118.602 31.0139L118.934 32.4859C118.031 32.8798 116.965 33.0757 115.736 33.0757C114.257 33.0757 113.096 32.6401 112.251 31.7698C111.408 30.8995 110.985 29.7308 110.985 28.2648C110.985 26.8255 111.378 25.627 112.164 24.6712C112.987 23.6507 114.1 23.1405 115.499 23.1405C116.874 23.1405 117.915 23.6507 118.621 24.6712C119.181 25.4818 119.462 26.4844 119.462 27.6749ZM117.03 25.4942C117.317 25.9528 117.455 26.4958 117.441 27.1244V27.1234H113.027C113.092 26.4829 113.301 25.9329 113.654 25.4743C114.085 24.8975 114.648 24.61 115.341 24.61C116.1 24.61 116.663 24.9044 117.03 25.4942Z" fill="white"/>
<path fill-rule="evenodd" clip-rule="evenodd" d="M67.6596 8.08655H68.7003V14.9265H67.6596V8.08655ZM45.7414 14.1637C46.4422 13.5719 46.7931 12.6907 46.7931 11.52C46.7931 10.4777 46.4681 9.67702 45.82 9.11705C45.2414 8.62173 44.3836 8.37407 43.2454 8.37407C42.6013 8.37407 42.0048 8.41982 41.4512 8.50934V14.9057C41.8756 14.9574 42.3826 14.9833 42.975 14.9833C44.1699 14.9833 45.0923 14.7098 45.7414 14.1637ZM45.0931 9.80371C45.4947 10.2095 45.6955 10.7914 45.6955 11.5503C45.6955 12.3997 45.4768 13.0462 45.0434 13.4898C44.61 13.9334 43.9947 14.1552 43.1975 14.1552C42.8565 14.1552 42.6219 14.1462 42.4937 14.1263V9.26363C42.7253 9.21788 43.0046 9.196 43.3326 9.196C44.105 9.196 44.6915 9.3989 45.0931 9.80371ZM52.6183 12.5441C52.6183 13.2652 52.4126 13.856 52.0011 14.3195C51.5696 14.7959 50.9981 15.0337 50.2844 15.0337C49.5965 15.0337 49.0488 14.8059 48.6402 14.3484C48.2327 13.8918 48.0289 13.316 48.0289 12.6217C48.0289 11.8956 48.2386 11.2999 48.6601 10.8374C49.0816 10.3749 49.6482 10.1431 50.3619 10.1431C51.0498 10.1431 51.6024 10.3709 52.0209 10.8274C52.4185 11.271 52.6183 11.8439 52.6183 12.5441ZM51.2577 11.4633C51.4436 11.7726 51.5371 12.1436 51.5371 12.5763C51.5371 13.0089 51.4406 13.3829 51.2478 13.6982C51.0232 14.0791 50.711 14.2691 50.3134 14.2691C49.9078 14.2691 49.5937 14.0821 49.3681 13.7081C49.1822 13.3988 49.0888 13.0278 49.0888 12.5952C49.0888 12.1496 49.1812 11.7726 49.3681 11.4633C49.5868 11.0893 49.9049 10.9023 50.3234 10.9023C50.7279 10.9023 51.0391 11.0893 51.2577 11.4633ZM60.4271 10.2382L60.4268 10.2392H59.4042L58.8357 12.4294C58.6945 12.9764 58.5881 13.4906 58.5176 13.973H58.4887C58.3923 13.4777 58.2671 12.9635 58.113 12.4294L57.4758 10.2392H56.6269L55.9619 12.4771C55.781 13.0809 55.6528 13.5802 55.5752 13.972H55.5563C55.4718 13.4966 55.3665 12.9943 55.2382 12.4672L54.7084 10.2382H53.6378L55.0166 14.9269H55.9818L56.6269 12.8909C56.7879 12.3956 56.9132 11.8913 57.0036 11.3761H57.0225C57.12 11.8774 57.2452 12.3826 57.3993 12.8909L58.0066 14.9269H58.9609L60.4268 10.2392H60.4271V10.2382ZM64.7859 14.9257H65.8277V12.1169C65.8277 11.4287 65.6478 10.9105 65.2879 10.5633C64.9987 10.2799 64.6348 10.1386 64.1975 10.1386C63.8515 10.1386 63.5354 10.2272 63.2531 10.4022C63.0156 10.5524 62.8346 10.7404 62.7134 10.9682H62.6845L62.6358 10.2351H61.7203C61.7452 10.7185 61.7581 11.1651 61.7581 11.5769V14.9248H62.7999V12.1438C62.7999 11.8365 62.8973 11.5679 63.0891 11.3401C63.283 11.1124 63.5325 10.999 63.8416 10.999C64.4718 10.999 64.7859 11.4128 64.7859 12.2403V14.9257ZM74.2156 14.3188C74.6272 13.8553 74.8329 13.2645 74.8329 12.5434C74.8329 11.8432 74.6331 11.2703 74.2355 10.8267C73.816 10.3702 73.2644 10.1424 72.5755 10.1424C71.8628 10.1424 71.2962 10.3742 70.8747 10.8366C70.4532 11.2991 70.2435 11.8949 70.2435 12.621C70.2435 13.3152 70.4473 13.8911 70.8548 14.3477C71.2624 14.8052 71.8101 15.0329 72.499 15.0329C73.2117 15.0329 73.7842 14.7952 74.2156 14.3188ZM73.7516 12.5774C73.7516 12.1448 73.6582 11.7738 73.4723 11.4644C73.2546 11.0905 72.9425 10.9035 72.5389 10.9035C72.1194 10.9035 71.8013 11.0905 71.5836 11.4644C71.3967 11.7738 71.3043 12.1507 71.3043 12.5963C71.3043 13.029 71.3977 13.4 71.5836 13.7093C71.8093 14.0833 72.1234 14.2703 72.529 14.2703C72.9266 14.2703 73.2377 14.0803 73.4624 13.6994C73.6562 13.3841 73.7516 13.0101 73.7516 12.5774ZM78.9402 14.9265H79.8755C79.8308 14.65 79.808 14.277 79.808 13.8086V12.0819C79.808 10.7889 79.1936 10.1424 77.969 10.1424C77.3348 10.1424 76.797 10.2777 76.3616 10.5472L76.5734 11.2315C76.9253 11.0008 77.3328 10.8844 77.795 10.8844C78.4441 10.8844 78.7682 11.1927 78.7682 11.8104V11.8979C77.9004 11.8909 77.2264 12.0391 76.7473 12.3415C76.2672 12.6439 76.0286 13.0805 76.0286 13.6534C76.0286 14.0324 76.1509 14.3516 76.3954 14.6082C76.6648 14.8907 77.0227 15.0329 77.465 15.0329C78.0575 15.0329 78.5137 14.8171 78.8338 14.3864H78.8626L78.9402 14.9265ZM78.7934 13.315V12.5919C77.6443 12.572 77.0697 12.8873 77.0697 13.5368C77.0697 13.7815 77.1353 13.9645 77.2695 14.0868C77.4037 14.2091 77.5747 14.2698 77.7785 14.2698C78.0071 14.2698 78.2208 14.1972 78.4156 14.053C78.6115 13.9078 78.7317 13.7238 78.7765 13.498C78.7874 13.4473 78.7934 13.3856 78.7934 13.315ZM84.8701 14.9265H85.7946C85.7697 14.5406 85.7578 14.1199 85.7578 13.6634V8.08655H84.7151V10.778H84.6952C84.4447 10.3533 84.0043 10.1414 83.3751 10.1414C82.8025 10.1414 82.3214 10.3602 81.9288 10.7979C81.5232 11.2673 81.3214 11.882 81.3214 12.6409C81.3214 13.3481 81.5073 13.924 81.8801 14.3676C82.2528 14.8112 82.723 15.033 83.2876 15.033C83.9944 15.033 84.4974 14.7465 84.7926 14.1736H84.8214L84.8701 14.9265ZM84.7154 12.9495V12.1678C84.7154 12.0325 84.7055 11.9231 84.6866 11.8395C84.6279 11.5889 84.5017 11.378 84.3098 11.208C84.116 11.0379 83.8824 10.9523 83.613 10.9523C83.2243 10.9523 82.9202 11.1065 82.6965 11.4158C82.4748 11.7252 82.3625 12.12 82.3625 12.6024C82.3625 13.0659 82.4689 13.4419 82.6826 13.7313C82.9082 14.0396 83.2124 14.1938 83.5931 14.1938C83.9351 14.1938 84.2084 14.0655 84.4162 13.8079C84.617 13.5702 84.7154 13.2837 84.7154 12.9495ZM94.0874 14.3188C94.4989 13.8553 94.7047 13.2645 94.7047 12.5434C94.7047 11.8432 94.5049 11.2703 94.1072 10.8267C93.6897 10.3702 93.1361 10.1424 92.4492 10.1424C91.7345 10.1424 91.1679 10.3742 90.7464 10.8366C90.3249 11.2991 90.1152 11.8949 90.1152 12.621C90.1152 13.3152 90.319 13.8911 90.7265 14.3477C91.1361 14.8052 91.6838 15.0329 92.3707 15.0329C93.0854 15.0329 93.6559 14.7952 94.0874 14.3188ZM93.6253 12.5774C93.6253 12.1448 93.5319 11.7738 93.346 11.4644C93.1263 11.0905 92.8162 10.9035 92.4106 10.9035C91.9931 10.9035 91.675 11.0905 91.4553 11.4644C91.2685 11.7738 91.176 12.1507 91.176 12.5963C91.176 13.029 91.2695 13.4 91.4553 13.7093C91.681 14.0833 91.9951 14.2703 92.4007 14.2703C92.7983 14.2703 93.1114 14.0803 93.3361 13.6994C93.5279 13.3841 93.6253 13.0101 93.6253 12.5774ZM99.2647 14.9257H100.305V12.1169C100.305 11.4287 100.127 10.9105 99.7657 10.5633C99.4765 10.2799 99.1127 10.1386 98.6763 10.1386C98.3294 10.1386 98.0142 10.2272 97.7309 10.4022C97.4944 10.5524 97.3135 10.7404 97.1912 10.9682H97.1624L97.1137 10.2351H96.1991C96.224 10.7185 96.2359 11.1651 96.2359 11.5769V14.9248H97.2787V12.1438C97.2787 11.8365 97.3751 11.5679 97.5679 11.3401C97.7608 11.1124 98.0103 10.999 98.3194 10.999C98.9506 10.999 99.2647 11.4128 99.2647 12.2403V14.9257ZM107.315 11.0178H106.169V13.2955C106.169 13.8744 106.373 14.1638 106.776 14.1638C106.963 14.1638 107.118 14.1479 107.24 14.1151L107.267 14.9058C107.061 14.9834 106.791 15.0222 106.458 15.0222C106.047 15.0222 105.726 14.8968 105.495 14.6462C105.262 14.3956 105.147 13.9738 105.147 13.382V11.0178H104.462V10.2371H105.147V9.37771L106.168 9.06937V10.2361H107.315V11.0178ZM111.788 14.9265H112.831V12.1386C112.831 11.4444 112.654 10.9192 112.301 10.5661C112.018 10.2827 111.661 10.1414 111.23 10.1414C110.621 10.1414 110.15 10.398 109.822 10.9123H109.802V8.08655H108.762V14.9255H109.802V12.1058C109.802 11.9586 109.82 11.8333 109.851 11.7308C110.032 11.2435 110.362 10.9998 110.845 10.9998C111.474 10.9998 111.788 11.4205 111.788 12.261V14.9265ZM118.52 12.36C118.52 12.5469 118.506 12.7041 118.481 12.8324H115.357C115.371 13.2959 115.52 13.649 115.809 13.8937C116.074 14.1125 116.415 14.2219 116.832 14.2219C117.295 14.2219 117.716 14.1483 118.096 14.0001L118.259 14.7242C117.814 14.9171 117.292 15.0136 116.686 15.0136C115.961 15.0136 115.389 14.7998 114.975 14.3721C114.56 13.9444 114.354 13.3705 114.354 12.6504C114.354 11.9432 114.546 11.3544 114.933 10.8849C115.336 10.3837 115.882 10.133 116.571 10.133C117.245 10.133 117.757 10.3837 118.103 10.8849C118.382 11.2828 118.52 11.7751 118.52 12.36ZM117.324 11.2912C117.465 11.5159 117.534 11.7825 117.526 12.0918H115.357C115.391 11.7765 115.493 11.507 115.666 11.2812C115.878 10.9977 116.155 10.8565 116.495 10.8565C116.868 10.8565 117.143 11.0017 117.324 11.2912Z" fill="white"/>
<path fill-rule="evenodd" clip-rule="evenodd" d="M25.8036 8.05212C25.97 9.56493 25.3705 11.0557 24.4943 12.1514C23.58 13.2302 22.1173 14.0552 20.6927 13.949C20.5063 12.4933 21.2281 10.9454 22.0361 10.001C22.9494 8.92933 24.5354 8.10827 25.8036 8.05212ZM30.4664 16.779C30.3074 16.8739 27.6727 18.4464 27.7016 21.6534C27.7347 25.5261 31.0891 26.8063 31.1302 26.8204C31.1102 26.9106 30.6049 28.668 29.3467 30.4525C28.2961 32.0235 27.1953 33.5593 25.4469 33.5874C24.6157 33.6065 24.0545 33.3675 23.4696 33.1184C22.8596 32.8586 22.2238 32.5879 21.2293 32.5879C20.1749 32.5879 19.511 32.8673 18.8707 33.1368C18.3171 33.3698 17.7811 33.5954 17.0257 33.6265C15.3606 33.6877 14.0883 31.9493 12.9996 30.3924C10.8231 27.2134 9.12887 21.4338 11.4006 17.5009C12.5014 15.5721 14.5084 14.3299 16.6538 14.2969C17.5985 14.2775 18.5046 14.6416 19.299 14.9608C19.9064 15.2049 20.4485 15.4227 20.8925 15.4227C21.2824 15.4227 21.8093 15.2136 22.4233 14.9699C23.391 14.5858 24.5753 14.1158 25.7818 14.2427C26.6068 14.2668 28.9548 14.5685 30.4696 16.7771L30.4664 16.779Z" fill="white"/>
</g>
<defs>
<clipPath id="clip0">
<rect width="132.616" height="44.9947" fill="white"/>
</clipPath>
</defs>
</svg>
