<svg width="133" height="45" viewBox="0 0 133 45" fill="none" xmlns="http://www.w3.org/2000/svg">
<g clip-path="url(#clip0)">
<path d="M0.769468 2.88647C0.769468 1.69086 1.73871 0.721617 2.93433 0.721617H129.777C130.973 0.721617 131.942 1.69085 131.942 2.88647V42.1082C131.942 43.3038 130.973 44.273 129.777 44.273H2.93432C1.73871 44.273 0.769468 43.3038 0.769468 42.1082V2.88647Z" stroke="#494949" stroke-width="1.44323" stroke-linecap="square"/>
<g clip-path="url(#clip1)">
<path fill-rule="evenodd" clip-rule="evenodd" d="M10.7878 18.3554C10.4141 18.4733 10.1724 18.8547 10.1724 19.4317L10.1747 37.5931C10.1747 38.1637 10.409 38.5393 10.7722 38.6647L20.8495 28.5019L10.7878 18.3554Z" fill="url(#paint0_linear)"/>
<path fill-rule="evenodd" clip-rule="evenodd" d="M10.772 38.6641C11.0333 38.7535 11.3609 38.7117 11.7178 38.5143L24.0154 31.6942L20.8492 28.5013L10.772 38.6641Z" fill="url(#paint1_linear)"/>
<path fill-rule="evenodd" clip-rule="evenodd" d="M24.0181 31.6934L28.2113 29.3684C29.0616 28.8953 29.0616 28.1255 28.2113 27.6535L24.0025 25.3198L20.8501 28.4988L24.0181 31.6934Z" fill="url(#paint2_linear)"/>
<path fill-rule="evenodd" clip-rule="evenodd" d="M24.001 25.3226L11.7178 18.5118C11.3695 18.3197 11.0483 18.275 10.7881 18.3568L20.8492 28.5016L24.001 25.3226Z" fill="url(#paint3_linear)"/>
</g>
<path fill-rule="evenodd" clip-rule="evenodd" d="M80.4501 32.8452C79.8116 32.7855 79.6769 32.667 79.6769 31.9059L79.6815 20.7951C79.7587 20.1095 79.9389 19.8953 80.541 19.5435H77.7628L76.3075 20.2506H77.8192L77.8267 31.8984V32.3355C77.8267 32.6893 77.7637 32.7711 77.4198 33.2177L77.377 33.2732L77.3005 33.3729H80.7241L81.4425 32.9416C81.277 32.9217 81.1107 32.9074 80.9437 32.8931L80.9437 32.8931L80.9436 32.893C80.7796 32.879 80.615 32.8648 80.4501 32.8452ZM46.0114 32.9465L43.4071 33.548C42.3518 33.7157 41.4043 33.8632 40.4009 33.8632C35.3775 33.8632 33.4634 30.1344 33.4634 27.2161C33.4634 23.6522 36.1754 20.3478 40.82 20.3478C41.8026 20.3478 42.7479 20.4935 43.6091 20.7304C44.9113 21.0992 45.5522 21.55 45.9548 21.8331L46.0114 21.8729L44.4985 23.3219L43.8607 23.4659L44.3155 22.735L44.3115 22.731C43.6946 22.1235 42.5625 21.0085 40.4181 21.0085C37.5449 21.0085 35.3775 23.211 35.3775 26.4266C35.3775 29.8802 37.8523 33.1288 41.8216 33.1288C42.988 33.1288 43.5884 32.8925 44.1336 32.6719V29.7112L41.3835 29.8604L42.8412 29.0709H46.7005L46.2285 29.5289C46.1012 29.6381 46.084 29.6752 46.0483 29.8215C46.0293 29.9887 46.0114 30.5205 46.0114 30.7074V32.9465ZM51.9857 33.6247C48.8972 33.6247 47.2479 31.1998 47.2479 29.0042C47.2479 26.4389 49.3255 24.2439 52.2787 24.2439C55.1329 24.2439 56.9198 26.4986 56.9198 28.8661C56.9198 31.1783 55.1542 33.6247 51.9857 33.6247ZM54.9976 29.8685C54.9976 30.6313 54.8813 31.4139 54.415 32.0409C53.9665 32.6667 53.1922 33.0376 52.4341 33.0376C50.0836 33.0376 49.1308 29.8453 49.1308 27.9098C49.1308 27.0646 49.2655 26.203 50.0254 25.5174C50.4917 25.1053 51.1302 24.8527 51.7732 24.8527C54.1801 24.8527 54.9976 28.1432 54.9976 29.8685ZM62.3237 33.6247C59.2357 33.6247 57.5835 31.1998 57.5835 29.0042C57.5835 26.4389 59.6606 24.2439 62.6149 24.2439C65.4709 24.2439 67.2595 26.4986 67.2595 28.8661C67.2595 31.1783 65.4916 33.6247 62.3237 33.6247ZM65.337 29.8685C65.337 30.6313 65.2231 31.4139 64.7533 32.0409C64.306 32.6667 63.5306 33.0376 62.7707 33.0376C60.4162 33.0376 59.4674 29.8453 59.4674 27.9098C59.4674 27.0646 59.6027 26.203 60.3615 25.5174C60.8266 25.1053 61.4719 24.8527 62.1127 24.8527C64.5219 24.8527 65.337 28.1432 65.337 29.8685ZM74.3679 25.2058C74.814 25.5756 75.7449 26.3605 75.7449 27.849C75.7449 29.2997 74.9338 29.9836 74.1157 30.6309L74.0808 30.6662C73.8383 30.9115 73.5711 31.1817 73.5711 31.5893C73.5711 32.0149 73.8538 32.2492 74.064 32.4235L74.076 32.4334L74.7778 32.9797C75.6309 33.706 76.4086 34.3718 76.4086 35.7245C76.4086 37.5671 74.6402 39.4254 71.2984 39.4254C68.4833 39.4254 67.1224 38.0733 67.1224 36.6237C67.1224 35.9184 67.4707 34.9193 68.6197 34.2348C69.8081 33.5021 71.4124 33.3958 72.2943 33.3373L72.3294 33.335L72.2888 33.2822C72.0265 32.9424 71.7451 32.5776 71.7451 32.0004C71.7451 31.7033 71.8243 31.5135 71.9095 31.3097C71.9195 31.2857 71.9296 31.2615 71.9397 31.237L71.926 31.2383L71.926 31.2383C71.718 31.2582 71.5089 31.2782 71.3185 31.2782C69.2582 31.2782 68.0936 29.7282 68.0936 28.2008C68.0936 27.2998 68.5011 26.3001 69.3382 25.5756C70.4458 24.656 71.7664 24.4976 72.8158 24.4976H76.8191L75.5745 25.2058H74.3679ZM72.5439 33.8823C72.7361 33.8823 72.8317 33.8823 72.9912 33.9032C74.4649 34.9627 75.1056 35.4898 75.1056 36.4889C75.1056 37.7028 74.1155 38.6044 72.2503 38.6044C70.1744 38.6044 68.8325 37.603 68.8325 36.2143C68.8325 34.8228 70.0754 34.3543 70.5054 34.1958C71.3183 33.9206 72.3677 33.8823 72.5439 33.8823ZM73.55 30.1808C73.999 29.7286 74.0381 29.104 74.0381 28.7492C74.0381 27.3403 73.2051 25.1459 71.5904 25.1459C71.0866 25.1459 70.5409 25.4007 70.2312 25.7949C69.9025 26.203 69.804 26.7325 69.804 27.2416C69.804 28.5536 70.5628 30.7294 72.2317 30.7294C72.7187 30.7294 73.2425 30.4908 73.55 30.1808ZM89.2245 32.0575L88.2954 32.9417C88.224 32.9813 88.1527 33.023 88.0815 33.0646L88.0814 33.0647L88.0814 33.0647L88.0813 33.0647L88.0813 33.0647L88.0812 33.0648C87.9385 33.1483 87.7962 33.2315 87.6541 33.297C87.0088 33.5924 86.3525 33.6668 85.7693 33.6668C85.1487 33.6668 84.1758 33.6261 83.1834 32.9022C81.8046 31.9228 81.2019 30.2393 81.2019 28.7723C81.2019 25.7349 83.6537 24.2453 85.6536 24.2453C86.3525 24.2453 87.0704 24.4218 87.6541 24.7939C88.6135 25.4338 88.8698 26.2631 89.0101 26.7172L89.015 26.7329L84.4481 28.5935L82.9525 28.7108C83.4367 31.2012 85.1073 32.6497 86.9535 32.6497C87.8757 32.6497 88.5602 32.346 89.1883 32.0331C89.1883 32.0331 89.3143 31.967 89.2245 32.0575ZM87.0331 26.5782C87.0331 26.851 86.8402 26.9683 86.4695 27.1042L82.9331 28.6519C82.9264 28.5314 82.9174 28.4109 82.9085 28.2913V28.2913V28.2912V28.2912V28.2911V28.2911V28.291V28.291V28.291V28.2909V28.2909V28.2908V28.2908C82.8913 28.0613 82.8744 27.835 82.8744 27.6179C82.8744 25.5013 84.3314 24.8918 85.1074 24.8918C86.1552 24.8918 87.0331 25.7956 87.0331 26.5782ZM94.8241 32.1404V37.1301H93.8415V24.4333H94.8241V25.8794C95.4643 24.9447 96.6341 24.204 97.9927 24.204C100.43 24.204 102.071 26.068 102.071 29.0189C102.071 31.95 100.43 33.853 97.9927 33.853C96.7101 33.853 95.561 33.1859 94.8241 32.1404ZM97.828 25.1003C99.8664 25.1003 101.016 26.7967 101.016 29.0207C101.016 31.2482 99.8664 32.959 97.828 32.959C96.562 32.959 95.3514 31.9193 94.8252 31.0427V26.9784C95.3514 26.1035 96.562 25.1003 97.828 25.1003ZM103.413 20.9285H104.395V33.6253H103.413V20.9285ZM112.4 32.763C112.436 32.9976 112.486 33.2786 112.552 33.5973H113.684C113.596 33.3006 113.53 32.9941 113.488 32.687C113.448 32.3805 113.432 32.0658 113.432 31.7401V27.2062C113.432 26.2355 113.105 25.493 112.452 24.9793C111.799 24.4603 110.932 24.2002 109.86 24.2002C108.785 24.2002 107.912 24.4643 107.246 24.9897C106.576 25.5157 106.261 26.1247 106.297 26.819L106.318 26.8683H107.324C107.324 26.3534 107.552 25.9261 108.006 25.5813C108.464 25.2434 109.065 25.0698 109.806 25.0698C110.616 25.0698 111.241 25.2597 111.687 25.6353C112.131 26.0103 112.353 26.5276 112.353 27.1853V28.3272H110.061C108.833 28.3272 107.84 28.5826 107.072 29.0964C106.304 29.6079 105.919 30.2766 105.919 31.1004C105.919 31.9253 106.185 32.5773 106.714 33.0585C107.244 33.5404 107.987 33.7778 108.944 33.7778C109.739 33.7778 110.319 33.6164 110.929 33.2873C111.539 32.9604 112.016 32.5453 112.353 32.0467C112.353 32.2899 112.37 32.5291 112.4 32.763ZM109.065 32.8756C109.9 32.8756 110.5 32.6875 111.113 32.3154C111.722 31.9456 112.136 31.4632 112.353 30.8792V29.1143H110.051C109.171 29.1143 108.443 29.3106 107.87 29.7065C107.296 30.1012 107.005 30.579 107.005 31.1346C107.005 31.6588 107.19 32.078 107.556 32.3955C107.923 32.7165 108.425 32.8756 109.065 32.8756ZM116.218 36.4637C115.991 36.4637 115.632 36.4057 115.422 36.311L115.253 37.2254C115.498 37.3014 115.917 37.3583 116.235 37.3583C117.294 37.3583 118.065 36.8028 118.555 35.6475L123.276 24.4351H122.164L118.876 32.4662L115.555 24.4351H114.459L118.33 33.7027L117.613 35.3404C117.237 36.2158 116.819 36.4637 116.218 36.4637Z" fill="white"/>
<path fill-rule="evenodd" clip-rule="evenodd" d="M36.6776 7.21765C34.8555 7.21765 33.3906 8.48597 33.3906 10.4577C33.3906 12.4206 34.8555 13.7065 36.6776 13.7065C37.7576 13.7065 38.6405 13.2466 39.2506 12.5608V10.2224H36.2834V11.1898H38.1612V12.1572C37.8796 12.4294 37.3164 12.7204 36.6776 12.7204C35.4386 12.7204 34.5176 11.7624 34.5176 10.4577C34.5176 9.13363 35.4386 8.195 36.6776 8.195C37.3722 8.195 37.9641 8.56048 38.302 9.03038L39.1943 8.51355C38.6962 7.80019 37.8984 7.21765 36.6776 7.21765ZM40.6086 7.32358V13.5872H44.8999V12.6198H41.7068V10.8734H44.8342V9.90598H41.7068V8.29154H44.8999V7.32358H40.6086ZM47.9399 13.5872V8.29154H46.0433V7.32358H50.9353V8.29154H49.0387V13.5872H47.9399ZM55.8516 7.32358H54.7535V13.5872H55.8516V7.32358ZM58.9117 13.5872V8.29154H57.0151V7.32358H61.9071V8.29154H60.0105V13.5872H58.9117ZM68.6562 7.21835C66.7771 7.21835 65.4537 8.58933 65.4537 10.4584C65.4537 12.3268 66.7771 13.6978 68.6562 13.6978C70.524 13.6978 71.8581 12.3268 71.8581 10.4584C71.8581 8.58933 70.524 7.21835 68.6562 7.21835ZM70.7308 10.4601C70.7308 9.1642 69.9136 8.19741 68.6558 8.19741C67.3875 8.19741 66.5803 9.1642 66.5803 10.4601C66.5803 11.746 67.3875 12.7228 68.6558 12.7228C69.9136 12.7228 70.7308 11.746 70.7308 10.4601ZM74.2393 9.10815L77.5075 13.5872H78.5687V7.32358H77.47V11.6624L74.2681 7.32358H73.1411V13.5872H74.2393V9.10815Z" fill="white"/>
</g>
<defs>
<linearGradient id="paint0_linear" x1="10.1724" y1="18.3554" x2="10.1724" y2="38.6647" gradientUnits="userSpaceOnUse">
<stop stop-color="#1E79AF"/>
<stop offset="1" stop-color="#63FFD3"/>
</linearGradient>
<linearGradient id="paint1_linear" x1="16.5541" y1="25.9197" x2="8.77394" y2="36.3493" gradientUnits="userSpaceOnUse">
<stop stop-color="#DC4057"/>
<stop offset="1" stop-color="#9E36BB"/>
</linearGradient>
<linearGradient id="paint2_linear" x1="20.9371" y1="25.3198" x2="20.9371" y2="31.5548" gradientUnits="userSpaceOnUse">
<stop stop-color="#FF9676"/>
<stop offset="1" stop-color="#FFD074"/>
</linearGradient>
<linearGradient id="paint3_linear" x1="6.48642" y1="22.5215" x2="14.2426" y2="34.711" gradientUnits="userSpaceOnUse">
<stop stop-color="#51C6AD"/>
<stop offset="1" stop-color="#D5FFA1"/>
</linearGradient>
<clipPath id="clip0">
<rect width="132.616" height="44.9947" fill="white" transform="translate(0.0478516)"/>
</clipPath>
<clipPath id="clip1">
<rect width="18.9451" height="20.366" fill="white" transform="translate(9.95801 18.4915)"/>
</clipPath>
</defs>
</svg>
