<svg width="60" height="60" viewBox="0 0 60 60" fill="none" xmlns="http://www.w3.org/2000/svg">
<path d="M7.00512 58.7502C5.75989 58.7502 4.70968 57.7777 4.61058 56.5376L0.369771 2.95285C0.31702 2.28795 0.545605 1.62465 0.997979 1.13438C1.45195 0.642517 2.09455 0.360535 2.76432 0.360535H56.2148C56.8829 0.360535 57.5271 0.642517 57.9795 1.13438C58.4319 1.62465 58.6605 2.28795 58.6077 2.95285L54.3669 56.536C54.2678 57.7777 53.2176 58.7486 51.9724 58.7486H7.00512V58.7502Z" fill="white"/>
<path d="M56.2133 0H2.76119C1.99232 0 1.25221 0.323639 0.731105 0.889207C0.211594 1.45317 -0.0521577 2.21581 0.00858514 2.98165L4.24939 56.5648C4.36288 57.9923 5.57135 59.1106 7.002 59.1106H51.9709C53.4015 59.1106 54.61 57.9923 54.7235 56.5648L58.9643 2.98165C59.025 2.21581 58.7613 1.45317 58.2417 0.889207C57.7206 0.323639 56.9821 0 56.2133 0ZM56.2133 0.720978C57.4041 0.720978 58.3425 1.73676 58.2497 2.92397L54.0089 56.5071C53.9242 57.5693 53.0386 58.388 51.9725 58.388H7.0036C5.939 58.388 5.05184 57.5693 4.96712 56.5071L0.726309 2.92397C0.631998 1.73676 1.57031 0.720978 2.76119 0.720978H56.2133Z" fill="#0F1822"/>
<path d="M22.6591 26.7691C22.6767 27.5078 23.1035 29.4608 25.578 31.3129C26.609 32.0852 27.0821 32.4328 27.218 32.5274V32.5338C27.2867 32.5818 26.852 32.5706 26.7337 32.5818C26.5403 32.6011 25.8801 32.5402 25.3526 32.6379C24.8762 32.726 24.9402 32.8414 24.8938 33.1859C24.857 33.4598 24.8922 33.894 24.8778 34.2641C24.8634 34.6342 24.8427 34.897 24.9993 35.0748C25.1528 35.2511 25.2503 35.2783 25.9041 35.2382C26.5259 35.1998 28.2474 35.1982 28.4552 35.1565C28.7222 35.1021 28.679 35.1982 28.5256 35.5282C28.2618 36.0938 27.405 38.6877 26.0719 41.1519C25.8849 41.4979 26.4108 41.3345 26.8584 41.5508C27.6688 41.9433 27.6416 42.0523 27.8558 41.6437C28.086 41.1999 29.2561 38.441 29.4367 37.5902C29.4607 37.4797 29.5071 37.3836 29.5262 37.5502C29.539 37.6703 29.5566 41.1567 29.4591 42.2558C29.4543 42.3134 29.4687 42.3743 29.5087 42.416C29.5678 42.4769 29.6557 42.5009 29.7308 42.5185C29.7324 42.5185 29.7324 42.5185 29.7324 42.5185C30.1353 42.3839 30.6228 42.2846 31.0368 42.3535C31.0736 42.3487 31.1088 42.3407 31.1423 42.3311C31.1647 42.3118 31.1839 42.291 31.1983 42.2638C31.2302 42.2061 31.2478 42.1388 31.2622 42.0747C31.2638 42.0699 31.2638 42.0651 31.2654 42.0603C31.2862 41.9674 31.3022 41.8744 31.3118 41.7799C31.3182 41.7238 31.3214 41.6678 31.3245 41.6117C31.3293 41.5396 31.3325 41.4659 31.3341 41.3938C31.3373 41.3057 31.3389 41.2192 31.3405 41.131C31.3421 41.0301 31.3421 40.9292 31.3421 40.8266C31.3421 40.7145 31.3405 40.6007 31.3389 40.487C31.3373 40.3636 31.3341 40.4053 31.3309 40.2819C31.3277 40.1505 31.3229 40.0175 31.3166 39.8862C31.3102 39.7468 31.3038 39.6074 31.2958 39.468C31.2878 39.3238 31.2782 39.178 31.2686 39.0338C31.2574 38.8848 31.2462 38.7358 31.2334 38.5884C31.2206 38.4378 31.2063 38.2872 31.1903 38.135C31.1743 37.9828 31.1567 37.8322 31.1375 37.68C31.1183 37.5294 31.0976 37.3787 31.0768 37.2281C31.0544 37.0791 31.032 36.9317 31.0048 36.7827C30.9793 36.6385 30.9521 36.5761 30.9233 36.4319C30.8946 36.2925 30.8642 36.1547 30.8306 36.0169C30.7986 35.8855 30.7635 35.7541 30.7267 35.6228C30.6963 35.5186 30.6644 35.4161 30.6308 35.3135C30.6244 35.2975 30.5972 35.1565 30.6004 35.1373C30.6116 35.086 30.6756 35.1229 30.7443 35.1101C30.7443 35.1101 30.7779 35.1037 30.7954 35.1005C31.2382 35.0412 32.0087 35.0812 32.1829 35.0876C32.354 35.0924 33.23 35.1758 33.4777 35.1998C33.7223 35.2238 34.0196 35.2799 34.0068 34.5349C34.0036 34.3362 34.002 34.2177 34.0036 34.0318C34.0036 34.0062 34.0036 33.9805 34.0036 33.9565C34.0036 33.91 34.0052 33.8636 34.0052 33.8187C34.0052 33.7915 34.0052 33.7658 34.0068 33.7402C34.0068 33.7146 34.0068 33.6889 34.0084 33.6649C34.0084 33.6425 34.01 33.6184 34.01 33.5976C34.0116 33.5576 34.0116 33.5191 34.0132 33.4839C34.0132 33.4726 34.0132 33.463 34.0148 33.4518C34.0148 33.4246 34.0164 33.4005 34.018 33.3781C34.018 33.3669 34.0196 33.3557 34.0196 33.3445C34.0212 33.3236 34.0212 33.306 34.0228 33.29C34.0228 33.2852 34.0228 33.2772 34.0244 33.274C34.026 33.2515 34.0276 33.2275 34.0292 33.2003C34.0356 33.0192 34.0116 32.686 33.6679 32.5963C33.2715 32.4969 32.5762 32.4729 31.9512 32.5274C31.8632 32.5354 31.8441 32.5274 31.8712 32.5033V32.4969C32.0055 32.4008 32.9103 31.8993 33.9429 30.9733C35.0794 29.9511 35.6229 29.4079 35.9698 28.6677C35.9698 28.6677 37.215 26.2484 37.1511 24.1993C37.1383 23.7859 37.2054 23.8195 37.4612 23.8276C37.5379 23.8292 37.832 23.8083 37.9903 23.7042C38.5178 23.584 38.9845 21.7768 38.9845 21.7768C38.9845 21.7768 39.7774 19.0339 39.9692 17.9123C40.1402 16.9142 40.1003 16.331 39.4929 16.0346L39.3906 15.9769C39.3442 15.9513 39.3218 15.8968 39.3362 15.8471C39.3474 15.8055 39.3602 15.7542 39.3666 15.7174C39.6639 14.6839 40.1946 13.375 40.0731 12.8447C40.0523 12.6924 39.9229 12.6428 39.8781 12.6123C39.8158 12.5707 39.5808 12.3079 39.5152 12.1221C39.5056 12.0948 39.5024 12.0676 39.4993 12.0388C39.3314 10.0873 38.6393 7.63759 36.5788 5.50509C36.5756 5.50349 36.4365 5.37532 36.3518 5.29841C36.176 5.1398 35.949 4.94113 35.69 4.74566C35.1418 4.3339 34.7038 4.01828 33.8006 3.56646C33.7303 3.53282 33.0525 3.2236 32.0519 2.97686C31.9576 2.95123 31.8632 2.92719 31.7689 2.90476C31.6219 2.86952 31.3917 2.82786 31.1295 2.79101C30.5125 2.69328 29.8268 2.64201 29.1138 2.68687C29.0291 2.69168 28.93 2.69648 28.9028 2.69648C28.8597 2.69648 28.8149 2.69969 28.7718 2.70129C28.7238 2.70289 28.6758 2.70449 28.6263 2.70609C28.476 2.71411 28.2762 2.73654 28.0684 2.76538C27.7311 2.81504 27.3699 2.88233 27.1477 2.9336C26.8983 2.99449 26.5626 3.06498 26.1422 3.18514C25.9696 3.23641 25.7954 3.28929 25.6227 3.34536C25.5748 3.36138 25.5252 3.3758 25.4773 3.39183C25.2902 3.45271 25.1032 3.51679 24.913 3.58569C24.7755 3.63375 24.1921 3.8869 24.0642 3.94618C24.0034 3.97502 23.9187 4.01026 23.8292 4.04711C23.4168 4.17849 23.3305 4.41722 23.3161 4.54699C23.3065 4.63191 23.2873 4.71522 23.2521 4.79213C22.6591 6.05624 21.2636 6.17801 20.7089 6.20685C20.5635 6.21325 20.4356 6.23568 20.482 6.37668C20.6002 6.73877 21.2524 7.41649 21.6521 7.53986C21.6457 7.59753 21.31 7.67123 21.2396 7.68886C21.0782 7.73051 20.418 7.67283 20.3844 7.67924C20.3813 7.67924 20.3797 7.67924 20.3765 7.68085C19.6268 7.74333 19.3966 8.25603 19.3294 8.49795C19.3087 8.57326 19.3199 8.65497 19.363 8.71905C19.5277 8.9722 19.7035 9.17728 19.8346 9.51213C19.8362 9.51534 19.8378 9.52014 19.8394 9.52335C19.8729 9.61147 19.9049 9.7076 19.9321 9.81654C19.9481 9.95914 20.0616 10.1081 19.9177 10.3885C19.6619 10.8852 19.0225 11.0406 18.9266 11.5341C18.7908 12.2358 19.0321 12.6957 19.2975 13.8556C19.4797 14.6503 19.6747 15.4722 19.8154 15.8455C19.8234 15.8648 19.8106 15.8856 19.7914 15.8888C19.7355 15.9 19.638 15.9192 19.6044 15.9304C19.2335 16.0778 19.1168 16.371 19.0753 16.9414C18.9826 18.2055 19.9129 20.1554 20.2022 21.8248C20.2997 22.3888 20.5587 23.2924 20.9903 23.6609C21.0894 23.7458 21.2972 23.8003 21.4267 23.8228C21.764 23.882 21.9094 23.6673 21.9286 24.007C21.9334 24.0775 21.9574 24.2682 21.959 24.3755C22.0181 25.5787 22.6591 26.7691 22.6591 26.7691ZM23.2394 6.6923C23.3129 6.57855 23.4903 6.41192 23.6694 6.28375C23.8564 6.15077 24.7723 5.46183 25.6243 5.20068C25.7826 5.15422 25.8225 5.13018 25.9232 5.10615C26.0511 5.07251 26.1598 4.79693 25.8929 4.75688C25.6131 4.71682 25.4996 4.73445 25.351 4.73925C25.2023 4.74246 25.1304 4.66235 25.2391 4.54539C25.3494 4.42683 25.546 4.30667 25.8929 4.16728C26.6505 3.86447 27.9949 3.70265 28.6215 3.64657C29.4399 3.57608 29.539 3.57928 30.0697 3.61933C30.5685 3.65779 30.9585 3.75071 31.1439 3.78276C32.0822 3.95259 33.1644 4.38838 34.1251 4.9171C34.6318 5.2183 35.1194 5.55316 35.5733 5.90884C36.9513 6.9855 38.5322 9.03148 38.302 13.3429C38.2748 13.8524 38.2141 14.1344 38.1805 14.2578C38.1453 14.3827 37.9807 14.5958 37.8944 14.3138C37.6098 13.391 37.2438 11.7648 36.411 10.4814C36.2959 10.302 36.1168 10.3196 36.1344 10.5071C36.1408 10.5856 36.1792 11.4075 36.16 11.5677C36.0257 12.6268 36.3486 12.215 36.825 13.3509C36.972 13.7018 37.1623 14.3972 37.2102 14.8458C37.223 14.9579 37.2374 15.0893 37.2406 15.2143C37.2438 15.3729 37.1654 15.3825 37.1654 15.3825C36.8394 15.3809 36.2703 15.2255 35.9634 15.2159C35.6149 15.2047 33.1916 15.1806 32.282 15.2527C31.3709 15.3232 30.8754 15.6517 30.3591 16.0746C30.2727 16.1451 30.1513 16.2108 30.0825 16.2445C30.0473 16.2621 30.009 16.2669 29.9722 16.2605C29.9307 16.2525 29.8619 16.2397 29.7548 16.2172C29.5326 16.1708 29.2641 16.1531 29.0467 16.2204C28.8293 16.2861 28.727 16.3422 28.492 16.206C28.1579 16.0106 27.6448 15.2287 25.8577 15.2143C24.8443 15.2063 23.5159 15.1918 22.7326 15.2271C22.4801 15.2383 22.3474 15.2671 22.2835 15.2655C22.2787 15.2351 22.2771 15.195 22.2771 15.187C22.2643 13.7563 23.1962 14.0735 23.3017 13.7018C23.5687 12.7742 23.631 10.5455 25.2455 9.17567C26.0175 8.52199 26.4188 8.49475 27.1365 8.49475C27.9086 8.49475 28.6615 8.69662 29.0467 8.88728C29.352 9.03949 29.5039 9.14043 29.6238 9.05071C29.7436 8.95938 30.0649 8.66779 30.1976 8.56685C30.3303 8.46431 30.2807 8.30569 30.1545 8.20155C30.033 8.10382 28.8884 6.65866 27.1317 6.36706C26.7289 6.29977 26.4316 6.23889 26.0671 6.23729C25.8689 6.22928 25.6947 6.22928 25.2343 6.28535C24.5613 6.36706 23.6837 6.74197 23.1179 6.96788C23.0859 6.93423 23.2042 6.74357 23.2394 6.6923ZM37.0759 15.9913C37.004 16.0698 36.9385 16.0234 36.7898 16.0602C36.6731 16.0891 36.5948 16.1547 36.4877 16.1451C36.3182 16.1291 36.2335 15.9256 36.3246 15.7927C36.4653 15.5876 36.6635 15.7654 36.8234 15.7943C36.9017 15.8087 36.9576 15.7846 37.036 15.8135C37.1143 15.8407 37.1255 15.9144 37.0759 15.9913ZM34.6702 16.7123C34.6702 16.7123 34.3505 16.4928 34.2482 16.315C34.197 16.2268 34.2098 16.1531 34.3441 16.1515C34.8237 16.1467 35.2632 16.1355 35.4774 16.315C35.6325 16.4463 35.6373 16.7203 35.5606 16.8982C35.4726 17.1 35.2968 17.0424 35.1961 17.0279C35.097 17.0135 34.6702 16.7123 34.6702 16.7123ZM34.8812 17.5711C34.7901 17.6175 34.448 17.5022 34.3537 17.4493C34.1651 17.3436 34.0292 17.2683 33.775 17.0504C33.6056 16.9078 33.2987 16.8405 33.0062 16.8533C32.7824 16.8645 32.5602 16.9126 32.3891 16.9526C32.2197 16.9943 32.2069 16.8389 32.2581 16.7812C32.3092 16.7235 32.5458 16.5056 33.0637 16.3694C33.1388 16.3502 33.2843 16.3566 33.3578 16.3646C33.5736 16.3887 33.8326 16.5329 34.018 16.7139C34.2034 16.8966 34.5791 17.217 34.7837 17.342C34.8812 17.398 35.097 17.4605 34.8812 17.5711ZM27.485 21.176C27.5393 21.2753 27.5569 21.4419 27.5409 21.5108C27.5249 21.5957 27.2292 21.7063 26.9814 21.3362C26.7353 20.9693 26.8504 20.5175 26.9974 20.3396C27.2292 20.0544 27.5841 20.2611 27.5329 20.3669C27.3555 20.7338 27.4354 21.0766 27.485 21.176ZM24.069 17.0696C24.1281 17.0215 24.1537 17.0215 24.3519 16.9126C24.4926 16.8341 24.654 16.7379 24.8171 16.6322C25.1112 16.4399 25.6691 16.2413 25.9072 16.2445C26.0783 16.2461 26.3772 16.3214 26.5371 16.4944C26.7033 16.6755 26.7481 16.8869 26.5323 16.8501C26.3181 16.8132 26.0895 16.7556 25.6755 16.8501C25.2135 16.9558 24.8986 17.1337 24.6748 17.233C24.4462 17.3388 24.216 17.3644 24.1393 17.3612C24.0658 17.3548 23.8548 17.2426 24.069 17.0696ZM23.7653 16.6546C23.5447 16.794 23.3305 16.9558 23.1658 17.0632C22.966 17.1962 22.6847 17.0696 22.7662 16.7876C22.8062 16.6514 22.9996 16.3005 23.3257 16.2381C23.3688 16.23 23.5303 16.198 23.6646 16.182C23.8228 16.1644 23.9907 16.1515 24.0754 16.1467C24.3056 16.1371 24.3311 16.3214 24.1745 16.4175C24.0722 16.4832 23.9107 16.5617 23.7653 16.6546ZM20.0855 12.0436C20.2774 11.5213 20.6274 11.0775 20.8672 10.7618C21.0862 10.475 20.9823 10.0953 20.8704 9.75566C20.7985 9.44324 20.597 9.1196 20.5667 9.03308C20.5443 8.9738 20.5443 8.92413 20.5635 8.88248C20.5779 8.87286 20.5891 8.86485 20.605 8.85524L21.0286 8.81839C22.2387 8.66298 23.3065 8.2368 23.6278 8.05575C23.786 7.96603 23.9555 7.89714 24.1265 7.83786C24.3279 7.76897 24.5373 7.70007 24.7467 7.67283C24.905 7.6472 25.092 7.62157 25.2535 7.60394C25.4932 7.5767 25.8705 7.74493 25.7874 7.7946C25.5844 7.91637 24.6444 8.13426 23.818 9.1244C23.3113 9.73003 23.193 10.1049 23.022 10.3837C22.8493 10.6641 22.7103 10.7298 22.4673 10.9413C22.349 11.0438 22.106 11.2553 21.9877 11.595C21.8679 11.9378 21.4059 13.1314 21.3451 15.0268C21.3388 15.2463 21.3004 15.4786 21.0926 15.5587H21.091C20.9199 15.6276 20.7825 15.7414 20.7521 15.618C20.6418 15.2015 20.3876 14.3042 20.2821 13.7355C20.2486 13.556 20.2086 13.3782 20.1671 13.2019C20.0472 12.7197 19.9944 12.2887 20.0855 12.0436ZM21.1022 21.0189C20.7569 20.7882 20.7761 20.487 20.6882 20.1906C20.5011 19.561 20.3013 18.8031 20.1287 18.1575C20.0232 17.7681 19.9976 16.8533 20.5251 16.8533C20.7905 16.8533 20.9903 16.9366 21.075 17.1881C21.2636 17.7473 20.9072 17.6496 20.9999 18.3097C21.0654 18.7775 21.1533 19.2373 21.3004 20.0304C21.3675 20.3957 21.4874 21.2753 21.1661 21.0622L21.1022 21.0189ZM22.4289 16.1355C22.3218 16.1467 22.2307 16.081 22.1124 16.0554C21.9766 16.025 21.8934 16.0666 21.8375 15.9929C21.7879 15.916 21.7975 15.8423 21.8742 15.8135C21.9526 15.7846 22.0085 15.8055 22.0868 15.7911C22.2467 15.7606 22.4417 15.578 22.5856 15.7814C22.6783 15.9112 22.5984 16.1163 22.4289 16.1355ZM22.6783 19.9839C22.6303 19.7773 22.7214 19.468 23.209 19.7805C23.2873 19.8301 23.5159 19.9343 23.7685 20.008C23.9219 20.0528 24.0226 19.9871 24.0658 19.875C24.1105 19.7644 24.2368 19.5417 24.021 19.436C23.8052 19.3287 23.2729 19.2357 22.9692 18.4843C22.9149 18.3497 23.0076 18.1959 23.0923 18.1559C23.1786 18.1174 23.2857 18.1366 23.3848 18.2312C23.4839 18.3241 23.6965 18.5292 23.8868 18.5372C24.0626 18.5452 24.0914 18.4747 24.1265 18.433C24.2736 18.268 24.6956 17.648 25.5716 17.7553C25.9328 17.8002 26.2653 17.8803 26.3868 17.8899C26.4731 17.8963 26.7145 17.9059 26.9431 17.8627C27.2052 17.813 27.5969 17.7313 27.405 17.954C27.25 18.1334 27.1189 18.2087 27.2564 18.4042C27.2628 18.4138 27.2708 18.4234 27.2772 18.433C27.4002 18.6061 27.4034 18.8384 27.2788 19.0098L27.2644 19.0323C27.071 19.2838 26.6713 19.5738 25.8433 19.6267C25.4661 19.6507 25.4421 19.6363 25.4341 19.8526C25.4309 19.9359 25.4325 19.9791 25.4437 20.0384C25.4661 20.1474 25.5364 20.1922 25.797 20.2082C25.9872 20.2195 26.334 20.1826 26.334 20.1826C26.4188 20.157 26.5195 20.2115 26.4651 20.2819C26.4571 20.2932 26.422 20.3444 26.4156 20.3524C26.2285 20.596 26.1694 20.8171 26.1518 20.9501C26.1374 21.0622 26.0719 21.1631 25.9728 21.2144C25.9712 21.2144 25.9696 21.216 25.9696 21.216C25.8481 21.2785 25.3606 21.3842 24.9769 21.7015C24.5949 22.0187 23.7956 22.2815 23.452 21.8905C23.1067 21.5044 22.827 20.6328 22.6783 19.9839ZM26.2749 29.1548C25.5907 29.1756 23.8004 28.0925 23.0204 25.0212C22.8174 24.2313 23.3145 23.5888 23.623 23.4799C23.8052 23.4126 23.9011 23.3918 23.9619 23.3838C24.0258 23.3757 24.3375 23.3773 24.3263 23.7298C24.3151 24.015 24.5517 26.399 25.1735 27.261C25.327 27.4741 25.4693 27.4821 25.5412 27.2947C25.6067 27.1184 25.7138 26.8925 25.749 26.806C25.7746 26.7435 26 26.3974 26.0671 26.6602C26.2094 27.2178 26.5435 28.3665 26.6825 28.6629C26.9143 29.1548 26.5323 29.1468 26.2749 29.1548ZM26.7049 24.1752C25.8113 24.164 25.3973 23.8308 25.3334 23.7298C25.2726 23.6337 25.375 23.5584 25.4677 23.528C25.6787 23.4607 26.0543 23.2716 26.2062 23.1546C26.3596 23.0409 26.78 22.7781 26.9926 22.6403C27.0933 22.5747 27.6672 22.3247 28.0029 22.5586C28.5064 22.9111 28.978 23.1466 29.8411 23.0938C30.3958 23.0601 30.383 22.6115 30.8354 22.4689C31.243 22.3407 31.3214 22.2398 31.4492 22.1645C31.6139 22.1309 31.7354 22.0892 31.9144 22.2574C32.1414 22.4689 32.2229 22.6355 32.4851 22.9319C32.8447 23.3373 33.2395 23.528 33.3626 23.552C33.4841 23.5776 33.572 23.677 33.5736 23.717C33.5752 23.7571 33.5241 23.8836 33.1628 23.9878C31.9544 24.3354 30.6468 24.1127 29.9738 23.842C29.6317 23.7058 29.2993 23.6673 28.9252 23.8516C28.5464 24.039 27.5393 24.1848 26.7049 24.1752ZM31.2206 24.9218C31.0144 24.9971 30.4198 25.1365 30.1321 25.1542C29.8411 25.1702 28.9204 25.2327 28.767 25.2263C28.5767 25.215 28.321 25.1221 28.1132 24.9315C28.0716 24.893 28.0253 24.76 28.1963 24.7568C28.5128 24.7504 29.0451 24.5822 30.8818 24.7376C31.0784 24.7536 31.1711 24.7616 31.2174 24.7664C31.2638 24.7712 31.4253 24.8497 31.2206 24.9218ZM39.0677 17.805C38.8263 19.0947 38.5561 19.7404 38.3819 20.5367C38.2013 21.3634 37.8464 22.5731 37.5027 22.6035C37.1543 22.7076 37.0152 22.3055 36.7914 22.6035C36.6587 22.7813 36.5548 23.0153 36.4365 23.1675C36.3614 23.2668 36.2863 23.4879 36.2847 23.6081C36.2847 23.8404 36.2719 24.5918 36.0641 25.5787C35.7508 27.0656 35.1817 28.1502 34.5903 28.8344C33.4569 30.1433 32.3955 30.3548 32.2693 30.4221C32.1062 30.5086 31.8616 30.4574 31.7801 30.4189C31.6986 30.3821 31.6363 30.2843 31.4956 30.1465C31.3517 30.012 31.3006 30.217 31.2958 30.2699C31.2894 30.3196 31.3693 30.938 31.2111 31.2184C30.8722 31.8208 30.5445 31.8737 30.3623 32.6251C30.3015 32.8782 30.3431 33.2612 30.041 33.0881C29.3025 32.6652 28.2442 31.5196 28.0237 30.4093C27.9565 30.0712 28.0189 29.6947 28.2251 29.0506C28.3434 28.6725 28.4281 28.2528 28.4281 28.0108C28.4281 27.5815 28.2602 27.2178 28.4281 27.1809C28.7382 27.112 28.8789 27.9163 29.0243 27.833C29.2753 27.6888 29.0883 26.838 29.0883 26.838C29.0883 26.838 28.986 26.5961 28.5464 26.4936C28.2938 26.4343 28.2139 26.2452 28.484 26.1123C28.6854 26.0129 28.9188 25.8831 29.1922 25.9232C31.0144 26.1828 31.5387 25.8143 32.2741 25.6156C32.4195 25.5771 32.5042 25.5595 32.6177 25.614C32.7296 25.6669 33.0333 25.8319 33.0941 25.9873C33.1564 26.1411 33.0925 26.7483 33.1884 27.2033C33.2875 27.6616 33.6072 27.245 33.6871 27.0639C33.7686 26.8845 33.8502 26.4407 33.8678 26.3286C33.8853 26.2164 33.9796 25.7454 34.1475 25.6044C34.4816 25.3272 34.5983 24.9619 34.6526 24.8193C34.7086 24.6767 34.7949 24.2361 34.7789 23.592C34.7629 22.9496 34.6478 22.8807 34.4928 22.7413C34.3393 22.6035 34.1555 22.6307 33.7654 22.2718C33.417 21.9514 33.1308 21.4339 32.8799 21.1087C32.6273 20.7834 32.2085 20.4358 31.7306 20.3188C31.2542 20.2034 31.4524 20.644 31.478 20.7674C31.4972 20.8539 31.6107 21.2449 31.4508 21.373C31.2958 21.5012 30.3319 22.1501 29.4735 21.9258C28.4505 21.6582 28.0972 21.0862 28.0748 20.5351C28.0604 20.1442 28.2474 19.7676 28.4792 19.319C28.6151 19.0579 28.671 18.6205 28.7254 18.2007C28.7686 17.8659 28.8581 17.3804 28.9316 17.2074C28.9844 17.0824 29.1074 16.9478 29.3856 16.9638C29.6605 16.9799 29.8395 17.116 29.8907 17.3532C30.0681 18.1783 30.3591 18.3866 30.4566 18.4539C30.5557 18.5212 30.7411 18.3866 30.8146 18.3385C30.8882 18.2904 31.0736 18.1014 31.016 18.0005C30.9265 17.8434 30.8786 17.7489 30.8578 17.6576C30.8242 17.5006 31.0192 17.5198 31.0592 17.5518C31.3805 17.805 31.6826 17.8274 32.2373 17.9203C33.2076 18.0822 33.3466 17.7249 34.0116 17.8402C34.0979 17.8547 34.2626 17.9284 34.3153 18.0277C34.3601 18.1142 34.44 18.3113 34.5215 18.3449C34.6031 18.377 34.7997 18.3882 34.902 18.4074C35.0426 18.4314 35.2952 18.4154 35.2536 18.6766C35.145 19.3767 34.3393 19.569 33.9621 19.6347C33.807 19.6619 33.7351 19.6747 33.7095 19.6972C33.628 19.7693 33.6248 19.9887 33.7191 20.1297C33.7862 20.2291 34.0899 20.2355 34.5072 20.1554C34.9419 20.0721 35.3591 19.8622 35.69 19.3463C36.0401 18.7999 36.2319 17.5983 36.2719 17.374C36.3119 17.1497 36.4014 16.7748 36.5245 16.6979C36.6459 16.621 37.2134 16.4479 37.2933 16.4624C37.3892 16.4784 37.458 16.5248 37.5027 16.7443C37.5475 16.967 37.4644 18.2904 37.4628 18.4907C37.4596 18.7038 37.5699 18.7022 37.6306 18.6734C37.7633 18.6125 38.1166 18.377 38.1965 18.103C38.2556 17.9011 38.0862 17.6063 38.1709 17.3259C38.3036 16.8901 38.4347 16.7732 38.5258 16.7828C39.0788 16.8357 39.1923 17.0792 39.0613 17.7842L39.0677 17.805ZM46.7804 44.8481C46.9418 44.8929 47.0394 45.0564 47.0026 45.2198L46.4319 47.7961C46.4047 47.9195 46.296 48.006 46.1714 48.006H45.3593C45.2059 48.006 45.0844 47.8762 45.0924 47.724C45.094 47.6903 45.094 47.6775 45.094 47.6759C45.1323 46.8364 44.6032 46.2083 43.406 46.2083C41.4142 46.2083 39.966 47.8458 39.7774 49.9975C39.5808 52.2197 41.1297 53.5094 43.2749 53.5094C44.3747 53.5094 45.2442 53.2964 45.7334 53.1425C45.9268 53.0817 46.1154 53.2499 46.0787 53.4502L45.8261 54.7816C45.8053 54.8953 45.7222 54.9882 45.6135 55.0235C45.1739 55.1645 43.9399 55.4929 42.0504 55.4929C37.5635 55.4929 35.7428 52.907 36.0241 50.2682C36.2751 47.9195 37.8256 44.4604 43.9383 44.4588C45.1068 44.4572 46.0435 44.6446 46.7804 44.8481ZM21.4874 44.8529C21.5162 44.7199 21.6345 44.6254 21.7703 44.6254H26.179C26.35 44.6254 26.4779 44.784 26.4411 44.9522L26.2909 45.6315C26.2653 45.7469 26.1694 45.8286 26.0527 45.8414C26.0319 45.843 26.0191 45.8446 26.0191 45.8446C25.6867 45.8895 25.0872 45.9968 24.5949 46.383L20.9295 49.4367V49.4383L23.7493 53.2643C24.296 53.9693 24.5661 54.0958 25.1144 54.1054C25.295 54.1087 25.4245 54.2785 25.3845 54.4547L25.2311 55.1421C25.2039 55.2638 25.0968 55.3503 24.9721 55.3503H22.7806C20.3493 55.3503 19.6763 54.2817 17.651 50.5695C17.651 50.5678 17.6494 50.5695 17.6494 50.5695L17.058 53.2771C16.9685 53.6985 17.3201 53.9212 17.5775 54.0253C17.5887 54.0301 17.5999 54.035 17.6111 54.0382C17.7341 54.0862 17.8045 54.2176 17.7757 54.3474L17.5999 55.1405C17.5727 55.2622 17.4656 55.3487 17.3409 55.3487H12.2497C12.0707 55.3487 11.938 55.1821 11.9764 55.0075L12.1266 54.3282C12.1538 54.2048 12.2561 54.1135 12.3808 54.099C12.3856 54.099 12.3904 54.0974 12.3952 54.0974C12.8619 54.043 13.3511 53.7482 13.6532 52.3014L14.8073 47.0062C14.956 46.3013 14.6043 46.0321 14.3006 45.9135C14.2974 45.9119 14.2798 45.9055 14.2526 45.8975C14.1136 45.8494 14.032 45.7052 14.064 45.5611L14.2207 44.8529C14.2494 44.7199 14.3693 44.6238 14.5052 44.6238H19.3454C19.5149 44.6238 19.6411 44.7808 19.6044 44.9474L19.4509 45.646C19.4285 45.7485 19.3534 45.8302 19.2527 45.8607C19.2399 45.8639 19.2287 45.8687 19.2159 45.8719C18.989 45.9456 18.6309 46.1314 18.5206 46.5848L17.8764 49.5312C17.8764 49.5328 17.878 49.5328 17.878 49.5328L21.6329 46.4054C21.8583 46.2195 21.8007 45.9712 21.5418 45.8703C21.5418 45.8703 21.5418 45.8703 21.5402 45.8703C21.3931 45.8254 21.3052 45.6748 21.3388 45.5258L21.4874 44.8529ZM35.0474 47.7945C34.8876 47.7945 34.7629 47.6551 34.7805 47.4949C34.7837 47.4676 34.7837 47.4596 34.7837 47.4596C34.8269 46.7883 34.5983 46.3958 33.847 46.3958L31.5212 46.399L30.8993 49.2396H34.229C34.4001 49.2396 34.5279 49.3983 34.4912 49.5665L34.1667 51.0309C34.1395 51.1542 34.0308 51.2408 33.9061 51.2408H30.4582C30.4582 51.2408 30.0745 52.9807 30.0617 53.056C29.9339 53.6184 30.3159 53.91 30.5733 54.035C30.586 54.0414 30.5988 54.0478 30.6132 54.0526C30.7235 54.1022 30.7843 54.2224 30.7571 54.3394L30.5796 55.1405C30.5525 55.2622 30.4438 55.3503 30.3191 55.3503H26.2637C26.0943 55.3503 25.9664 55.1917 26.0032 55.0267L27.7695 47.0062C27.9501 46.2981 27.5361 46.0113 27.2388 45.8975C27.2292 45.8943 27.218 45.8895 27.2084 45.8863C27.0757 45.8398 26.999 45.7004 27.0294 45.5627L27.186 44.8561C27.2164 44.7215 27.3347 44.627 27.4706 44.627H36.4861C36.6571 44.627 36.785 44.7856 36.7466 44.9538L36.1632 47.5878C36.136 47.7096 36.0273 47.7977 35.9026 47.7977H35.0474" fill="#0F1822"/>
<path d="M15.1025 2.2464H3.26728C2.68863 2.2464 2.23466 2.73987 2.27941 3.31825L5.30856 41.5622H15.1025V2.2464Z" fill="#EA0029"/>
<path d="M55.7054 2.24597H43.8701V41.5617H53.6641L56.6933 3.31783C56.738 2.74104 56.2824 2.24597 55.7054 2.24597Z" fill="#EA0029"/>
<path d="M57.004 57.1945V55.2927H56.4014V55.054H57.8656V55.2927H57.2725V57.1945H57.004ZM59.1476 56.536L58.66 55.5138V57.1961H58.4107V55.0556H58.6792L59.2051 56.1643L59.731 55.0556H59.9996V57.1961H59.7598V55.5138L59.2531 56.536H59.1476Z" fill="white"/>
</svg>
