<svg width="30" height="30" viewBox="0 0 30 30" fill="none" xmlns="http://www.w3.org/2000/svg">
<circle cx="15" cy="15" r="14.25" fill="#202124" stroke="#494949" stroke-width="1.5"/>
<path d="M12.9086 9.60001C11.0863 9.60001 9.59961 11.0867 9.59961 12.909V17.691C9.59961 19.5133 11.0863 21 12.9086 21H17.6906C19.513 21 20.9996 19.5133 20.9996 17.691V12.909C20.9996 11.0867 19.513 9.60001 17.6906 9.60001H12.9086ZM12.9086 10.4769H17.6906C19.0385 10.4769 20.1227 11.5594 20.1227 12.909V17.691C20.1227 19.0389 19.0402 20.1231 17.6906 20.1231H12.9086C11.5607 20.1231 10.4765 19.0406 10.4765 17.691V12.909C10.4765 11.5611 11.559 10.4769 12.9086 10.4769ZM18.5881 11.3539C18.225 11.3539 17.9304 11.6484 17.9304 12.0115C17.9304 12.3746 18.225 12.6692 18.5881 12.6692C18.9512 12.6692 19.2458 12.3746 19.2458 12.0115C19.2458 11.6484 18.9512 11.3539 18.5881 11.3539ZM15.2996 12.2308C13.6091 12.2308 12.2304 13.6095 12.2304 15.3C12.2304 16.9905 13.6091 18.3692 15.2996 18.3692C16.9901 18.3692 18.3688 16.9905 18.3688 15.3C18.3688 13.6095 16.9901 12.2308 15.2996 12.2308ZM15.2996 13.1077C16.5157 13.1077 17.4919 14.084 17.4919 15.3C17.4919 16.5161 16.5157 17.4923 15.2996 17.4923C14.0836 17.4923 13.1073 16.5161 13.1073 15.3C13.1073 14.084 14.0836 13.1077 15.2996 13.1077Z" fill="white"/>
</svg>
