<svg xmlns="http://www.w3.org/2000/svg" viewBox="0 0 99.77609 100.83444"><defs><style>.a{fill:#231f20;}.b{fill:#6db2d2;}.c{fill:#f3d3e4;}.d{fill:#c1a7b5;}.e{fill:#5e99ad;}</style></defs><path class="a" d="M68.855.05858A108.12409,108.12409,0,0,1,98.475,5.9428c1.19663.39645,1.52726.96734,1.15779,2.1704-3.66125,11.92137-7.16669,23.893-11.03709,35.74567-.77027,2.35887-2.69422,4.466-4.442,6.36111Q61.23225,75.07359,38.13909,99.76843a3.32689,3.32689,0,0,1-2.461,1.04871c-9.34281-1.5347-18.64188-3.35293-27.32839-7.279A40.24576,40.24576,0,0,1,.98905,88.802,3.31219,3.31219,0,0,1,.0345,86.05642C1.69924,77.663,3.37965,69.26766,5.34444,60.941a22.84167,22.84167,0,0,1,6.29619-11.41668C25.92592,35.63463,40.04074,21.56894,54.38636,7.74241,58.9457,3.34805,64.01816-.52562,68.855.05858ZM58.789,47.033A83.52884,83.52884,0,0,0,28.88435,36.53233a4.16932,4.16932,0,0,0-2.90061,1.30021c-3.7009,3.64112-7.39066,7.30685-10.86022,11.16548-2.63793,2.93373-5.982,5.39262-6.91588,9.61647C6.43,66.655,4.45626,74.65336,2.76673,82.71175c-1.01762,4.85365-.88149,5.49066,3.52146,7.39175a159.7878,159.7878,0,0,0,17.01052,6.05368c4.01552,1.21714,8.2237,1.79868,12.4572,2.68751.22288-.82968.36042-1.28766.46868-1.75247,2.68422-11.52443,5.32905-23.0583,8.09587-34.56284a8.18038,8.18038,0,0,1,2.04247-3.73375C50.2847,54.907,54.37153,51.18474,58.789,47.033ZM29.40253,33.73787l.27512.69116a91.04984,91.04984,0,0,1,29.225,10.0487c.543.28879,1.94009-.352,2.5437-.95606,7.73186-7.73689,15.3546-15.5828,23.08431-23.32186C88.6123,16.11327,92.8484,12.181,97.22443,7.97769a9.69395,9.69395,0,0,0-1.61974-.92008c-5.53416-1.35594-11.053-2.78513-16.61858-3.99944-8.29029-1.8088-16.0766-1.23985-22.42191,5.324-.84753.87673-1.8701,1.58136-2.76206,2.41849Q41.593,22.25928,29.40253,33.73787ZM96.70234,11.32861a4.73176,4.73176,0,0,0-.89965.40549Q79.17916,28.5482,62.602,45.40783a4.36793,4.36793,0,0,0-.9666,2.59124q-.56948,8.172-.93484,16.35775c-.11927,2.76081-.02085,5.531-.02085,9.0071,7.45432-8.26494,14.434-15.91973,21.30135-23.674,1.82474-2.06042,3.98059-4.1975,4.8248-6.69185C90.30163,32.66939,93.35286,22.19026,96.70234,11.32861ZM59.37568,49.18869a2.08618,2.08618,0,0,0-.67988.27824c-3.68051,3.687-7.381,7.35522-10.98633,11.11473a5.69672,5.69672,0,0,0-1.22235,2.57551c-1.97838,8.40431-3.89525,16.82312-5.82986,25.23774-.51223,2.22794-1.02395,4.456-1.69741,7.38682.9824-.91683,1.41127-1.27593,1.793-1.67959,5.3244-5.62959,10.68762-11.2239,15.91558-16.94183a6.30027,6.30027,0,0,0,1.49527-3.60116C58.66,65.52522,58.98365,57.48062,59.37568,49.18869Z"/><path class="b" d="M58.789,47.033c-4.41751,4.15175-8.50434,7.874-12.42611,11.76264a8.18038,8.18038,0,0,0-2.04247,3.73375c-2.76682,11.50454-5.41165,23.03841-8.09587,34.56284-.10826.46481-.2458.92279-.46868,1.75247-4.2335-.88883-8.44168-1.47037-12.4572-2.68751A159.7878,159.7878,0,0,1,6.28819,90.1035c-4.403-1.90109-4.53908-2.5381-3.52146-7.39175C4.45626,74.65336,6.43,66.655,8.20764,58.61449c.93385-4.22385,4.278-6.68274,6.91588-9.61647,3.46956-3.85863,7.15932-7.52436,10.86022-11.16548a4.16932,4.16932,0,0,1,2.90061-1.30021A83.52884,83.52884,0,0,1,58.789,47.033Z"/><path class="c" d="M29.40253,33.73787q12.19752-11.471,24.39961-22.93721c.892-.83713,1.91453-1.54176,2.76206-2.41849,6.34531-6.56385,14.13162-7.1328,22.42191-5.324,5.56558,1.21431,11.08442,2.6435,16.61858,3.99944a9.69395,9.69395,0,0,1,1.61974.92008c-4.376,4.20333-8.61213,8.13558-12.69374,12.22212-7.72971,7.73906-15.35245,15.585-23.08431,23.32186-.60361.604-2.00072,1.24485-2.5437.95606a91.04984,91.04984,0,0,0-29.225-10.0487Z"/><path class="d" d="M96.70234,11.32861c-3.34948,10.86165-6.40071,21.34078-9.89646,31.66946-.84421,2.49435-3.00006,4.63143-4.8248,6.69185-6.86736,7.75427-13.847,15.40906-21.30135,23.674,0-3.47607-.09842-6.24629.02085-9.0071q.35355-8.18427.93484-16.35775a4.36793,4.36793,0,0,1,.9666-2.59124Q79.14543,28.51521,95.80269,11.7341A4.73176,4.73176,0,0,1,96.70234,11.32861Z"/><path class="e" d="M59.37568,49.18869c-.392,8.29193-.71564,16.33653-1.21193,24.37046a6.30027,6.30027,0,0,1-1.49527,3.60116c-5.228,5.71793-10.59118,11.31224-15.91558,16.94183-.38178.40366-.81065.76276-1.793,1.67959.67346-2.93082,1.18518-5.15888,1.69741-7.38682,1.93461-8.41462,3.85148-16.83343,5.82986-25.23774a5.69672,5.69672,0,0,1,1.22235-2.57551c3.60529-3.75951,7.30582-7.42778,10.98633-11.11473A2.08618,2.08618,0,0,1,59.37568,49.18869Z"/><path class="a" d="M23.6992,58.67318c-1.62973-.1429-3.27069-.21443-4.87973-.489a1.00262,1.00262,0,0,1,.22535-1.989c3.86812.21759,23.97318,5.97838,24.0022,6.5654a6.56713,6.56713,0,0,1-1.51823-.11507C38.00084,61.53251,23.71017,58.56854,23.6992,58.67318Z"/><path class="a" d="M70.84189,10.375,61.37342,7.70934c.0997-.36208,6.58822.711,9.73279,1.60957Z"/><path class="a" d="M74.58163,8.499,67.43117,6.486c.07529-.27344,4.97534.53692,7.35008,1.21553Z"/><path class="a" d="M49.03873,23.45977l-4.62228-1.3013a20.01442,20.01442,0,0,1,4.75132.78576Z"/></svg>