<?xml version="1.0"?>
<svg xmlns="http://www.w3.org/2000/svg" xmlns:xlink="http://www.w3.org/1999/xlink" version="1.1" id="Capa_1" x="0px" y="0px" width="512" height="512" viewBox="0 0 106.059 106.059" style="enable-background:new 0 0 106.059 106.059;" xml:space="preserve" class=""><g><g>
	<path d="M90.546,15.518C69.858-5.172,36.199-5.172,15.515,15.513C-5.173,36.198-5.171,69.858,15.517,90.547   c20.682,20.684,54.341,20.684,75.027-0.004C111.23,69.858,111.229,36.2,90.546,15.518z M84.757,84.758   c-17.494,17.494-45.96,17.496-63.455,0.002c-17.498-17.497-17.496-45.966,0-63.46C38.796,3.807,67.261,3.805,84.759,21.302   C102.253,38.796,102.251,67.265,84.757,84.758z M78.546,61.065c0.266,0.403,0.31,0.913,0.118,1.356   c-4.284,9.903-14.318,16.304-25.563,16.304c-11.486,0-21.58-6.431-25.714-16.382c-0.184-0.443-0.135-0.949,0.132-1.348   c0.266-0.397,0.713-0.637,1.192-0.637c0,0,0.001,0,0.002,0l48.637,0.061C77.832,60.42,78.281,60.662,78.546,61.065z M33.24,38.671   c0-3.424,2.777-6.201,6.201-6.201c3.423,0,6.2,2.776,6.2,6.201c0,3.426-2.777,6.202-6.2,6.202   C36.017,44.873,33.24,42.097,33.24,38.671z M61.357,38.671c0-3.424,2.779-6.201,6.203-6.201c3.423,0,6.2,2.776,6.2,6.201   c0,3.426-2.776,6.202-6.2,6.202S61.357,42.097,61.357,38.671z" data-original="#000000" class="active-path" style="fill:#F8C03E" data-old_color="#000000"/>
</g></g> </svg>
