<svg xmlns="http://www.w3.org/2000/svg" viewBox="0 0 167.07 35"><defs><style>.cls-1{fill:#5f6368;}.cls-2{fill:none;}.cls-3{fill:#1a73e8;}.cls-4,.cls-8{fill:#fff;}.cls-4{opacity:0.2;isolation:isolate;}.cls-5{fill:#1a237e;fill-opacity:0.2;}.cls-6{fill:#185abc;}.cls-7{fill:#f1f3f4;}.cls-9{fill:#bdc1c6;}</style></defs><g><g><path class="cls-1" d="M128,26.45V10h5a8.22,8.22,0,0,1,6.06,2.28,8,8,0,0,1,2.29,6,8,8,0,0,1-2.29,6A8.24,8.24,0,0,1,133,26.45ZM130.12,12V24.43H133a6.15,6.15,0,0,0,4.53-1.64,6.14,6.14,0,0,0,1.66-4.57,6.16,6.16,0,0,0-1.66-4.55A6.13,6.13,0,0,0,133,12Z"/><path class="cls-1" d="M153.46,26.45h-2V24.89h-.09a3.76,3.76,0,0,1-1.48,1.38,4.26,4.26,0,0,1-2.08.55,4.16,4.16,0,0,1-3.19-1.18,4.73,4.73,0,0,1-1.12-3.37V15.18h2.12v6.95a2.49,2.49,0,0,0,2.78,2.76,2.65,2.65,0,0,0,2.12-1,3.7,3.7,0,0,0,.85-2.45V15.18h2.12Z"/><path class="cls-1" d="M155.27,20.82a6,6,0,0,1,1.63-4.3,5.56,5.56,0,0,1,4.16-1.7,5.49,5.49,0,0,1,4.14,1.7,5.91,5.91,0,0,1,1.66,4.3,5.86,5.86,0,0,1-1.66,4.3,5.49,5.49,0,0,1-4.14,1.7,5.56,5.56,0,0,1-4.16-1.7A6,6,0,0,1,155.27,20.82Zm2.12,0a4.12,4.12,0,0,0,1.06,2.94,3.61,3.61,0,0,0,5.24,0,4.13,4.13,0,0,0,1.06-2.94,4.09,4.09,0,0,0-1.06-2.92,3.56,3.56,0,0,0-5.24,0A4.09,4.09,0,0,0,157.39,20.82Z"/><rect class="cls-2" x="-0.05" width="35" height="35"/><g><path class="cls-3" d="M33.5,18.41a16.05,16.05,0,1,1-16-17H30.94A2.57,2.57,0,0,1,33.5,4Z"/><path class="cls-4" d="M30.94,1.46H17.45a16,16,0,0,0-16,16s0,0,0,0a16,16,0,0,1,16-15.85H30.94A2.57,2.57,0,0,1,33.5,4.19V4A2.57,2.57,0,0,0,30.94,1.46Z"/><g><path class="cls-5" d="M33.5,18.41V18a16,16,0,0,1-32.08-.73s0,.15,0,.18a16.05,16.05,0,0,0,32.08.73"/></g><path class="cls-6" d="M24,20.6a2.55,2.55,0,0,1-2.73,2.55H12.17a2.55,2.55,0,0,1-2.73-2.54v.9a2.7,2.7,0,0,0,2.73,2.73h9.11A2.7,2.7,0,0,0,24,21.51V20.6Z"/><path class="cls-6" d="M28.39,21.33a.54.54,0,0,1-.91.36L24,18.23v.91l3.46,3.46a.52.52,0,0,0,.91-.36Z"/><g><path class="cls-7" d="M27.48,12.58,24,16v2.19l3.46,3.46a.53.53,0,0,0,.91-.36V12.94A.54.54,0,0,0,27.48,12.58Z"/><path class="cls-8" d="M21.28,10.94H12.17a2.73,2.73,0,0,0-2.73,2.73V20.6a2.72,2.72,0,0,0,2.73,2.73h9.11A2.73,2.73,0,0,0,24,20.6V13.67A2.72,2.72,0,0,0,21.28,10.94Z"/><g><polygon class="cls-9" points="24.02 18.45 24.02 18.23 24.75 18.96 24.75 15.31 24.02 16.04 24.02 18.45"/></g></g></g></g></g><g><g><path class="cls-1" d="M55.49,26.82A9.46,9.46,0,0,1,46,17.51,9.46,9.46,0,0,1,55.49,8.2a8.93,8.93,0,0,1,6.41,2.57l-1.8,1.79a6.53,6.53,0,0,0-4.61-1.82,6.77,6.77,0,0,0,0,13.53,6.27,6.27,0,0,0,4.72-1.86,5.29,5.29,0,0,0,1.39-3.2H55.49V16.67h8.6a8.21,8.21,0,0,1,.14,1.59A8.38,8.38,0,0,1,62,24.21,8.57,8.57,0,0,1,55.49,26.82Z"/><path class="cls-1" d="M77.52,20.82a5.93,5.93,0,1,1-11.87,0,5.93,5.93,0,1,1,11.87,0Zm-2.6,0a3.35,3.35,0,1,0-6.67,0,3.35,3.35,0,1,0,6.67,0Z"/><path class="cls-1" d="M90.83,20.82a5.93,5.93,0,1,1-11.87,0,5.93,5.93,0,1,1,11.87,0Zm-2.6,0a3.35,3.35,0,1,0-6.67,0,3.35,3.35,0,1,0,6.67,0Z"/><path class="cls-1" d="M103.8,15.19V26c0,4.43-2.62,6.24-5.72,6.24a5.74,5.74,0,0,1-5.34-3.54l2.3-1a3.33,3.33,0,0,0,3,2.13c2,0,3.22-1.23,3.22-3.52v-.86h-.09A4.11,4.11,0,0,1,98,26.82a6,6,0,0,1,0-12,4.18,4.18,0,0,1,3.17,1.34h.09v-1Zm-2.33,5.65a3.38,3.38,0,0,0-3.22-3.66,3.47,3.47,0,0,0-3.35,3.66,3.45,3.45,0,0,0,3.35,3.61A3.36,3.36,0,0,0,101.47,20.85Z"/><path class="cls-1" d="M108.43,8.84V26.45h-2.65V8.84Z"/><path class="cls-1" d="M118.83,22.8l2.05,1.36a6,6,0,0,1-5,2.66,5.81,5.81,0,0,1-5.89-6,5.52,5.52,0,0,1,10.75-2.18l.27.68-8.05,3.32a3.06,3.06,0,0,0,2.92,1.82A3.44,3.44,0,0,0,118.83,22.8Zm-6.32-2.16,5.38-2.22a2.33,2.33,0,0,0-2.24-1.27A3.29,3.29,0,0,0,112.52,20.64Z"/></g></g></svg>
