<svg xmlns="http://www.w3.org/2000/svg" version="1.1" xmlns:xlink="http://www.w3.org/1999/xlink" xmlns:svgjs="http://svgjs.dev/svgjs" width="100%" height="100%" viewBox="0 0 1000 600"><rect width="1000" height="600" x="0" y="0" fill="#f4a950"/><g><rect width="333.3333333333333" height="333.3333333333333" y="77.77777587042934" fill="#161b21" transform="matrix(2.2499999313354513,0,0,2.2499999313354517,0,-249.99999084472722)" x="55.55555725097656"/><path d="M107.67499599622039 207.50675304477275L107.67499599622039 207.50675304477275L106.88885539233755 227.94640874572625Q106.88885539233755 250.56978834635427 114.75026143116582 250.56978834635427L114.75026143116582 250.56978834635427Q118.83382512355718 250.56978834635427 121.03938626222845 246.8137832389141L121.03938626222845 246.8137832389141Q123.72536665882811 242.09693961561717 124.27129763374674 237.9260269672388Q124.81722860866536 233.7551143188605 125.1229499546198 231.09097116125756Q125.45050853957098 228.40499076465792 125.60336921254819 224.23407811627956Q125.75622988552541 220.085002706898 125.75622988552541 217.3990223102983L125.75622988552541 217.3990223102983L125.75622988552541 210.4766175483301Q125.75622988552541 196.5007845904132 124.18394867775976 189.2508212434938L124.18394867775976 189.2508212434938Q123.55066874685414 187.85323794770207 123.55066874685414 185.6476768090308L123.55066874685414 185.6476768090308Q123.55066874685414 179.3585519779682 131.41207478568242 174.55435939868426Q139.2734808245107 169.77200405839704 145.25688430961887 169.77200405839704Q151.24028779472707 169.77200405839704 151.24028779472707 174.79456902764844L151.24028779472707 174.79456902764844Q151.24028779472707 176.06112888945967 150.12658860589306 181.56411311663948Q149.0347266560558 187.06709734381926 148.09572537919576 196.80650593636764Q147.13488686333898 206.54591452891597 146.98202619036175 213.5556682468712Q146.82916551738452 220.54358472582962 146.74181656139754 230.69790085931615Q146.67630484440733 240.83037975380594 146.43609521544312 249.56527535250402Q146.19588558647894 258.2783337122054 143.44439347288903 266.46729833598476Q140.69290135929913 274.63442572076747 136.9150590128622 278.95819904212306Q133.15905390542204 283.28197236347864 128.11465169717388 285.7932548481043L128.11465169717388 285.7932548481043Q120.5808042432968 289.7239578675185 111.54018729864428 289.7239578675185Q102.49957035399177 289.7239578675185 95.81737522098774 284.1554619233484Q89.13518008798371 278.56512874018165 86.68940932034823 270.79107165734035Q84.24363855271278 262.99517733550226 84.24363855271278 253.4086294159312L84.24363855271278 253.4086294159312L85.02977915659561 216.46002103343827L85.02977915659561 208.4457543216328L84.8769184836184 199.79820767892173Q84.8769184836184 193.5090828478591 82.05991465303826 189.73124050142215L82.05991465303826 189.73124050142215Q80.16007486032143 187.85323794770207 80.16007486032143 185.32011822407966L80.16007486032143 185.32011822407966Q80.16007486032143 179.20569130499098 89.28804076096093 174.48884768169404Q98.39416942260367 169.77200405839704 104.53043358068908 169.77200405839704Q110.66669773877447 169.77200405839704 110.66669773877447 174.16128909674285L110.66669773877447 174.16128909674285Q110.66669773877447 174.48884768169404 110.03341780786886 180.14469258185102L110.03341780786886 180.14469258185102Q107.8278566691976 199.3177884209933 107.67499599622039 207.50675304477275ZM222.6043848360904 268.34530088970484L222.6043848360904 268.34530088970484Q227.0155071134329 268.34530088970484 230.007208855987 263.47559659343074Q232.9989105985411 258.6058922971565 232.9989105985411 254.98091062369681L232.9989105985411 254.98091062369681Q232.9989105985411 247.75278451577415 227.80164771731577 247.75278451577415L227.80164771731577 247.75278451577415Q223.237664766996 247.75278451577415 220.42066093641589 252.22941851010697Q217.581819866839 256.70605250443964 217.581819866839 261.7504547126879L217.581819866839 261.7504547126879Q217.581819866839 268.34530088970484 222.6043848360904 268.34530088970484ZM251.38586583380058 236.7468160614146L251.38586583380058 236.7468160614146L250.75258590289494 259.850614919971Q250.75258590289494 284.2209736403387 262.23897361518294 284.2209736403387L262.23897361518294 284.2209736403387Q267.26153858443433 284.2209736403387 270.79917130190705 280.44313129390173Q274.33680401937977 276.68712618646157 275.9090852271454 270.7037227013534L275.9090852271454 270.7037227013534Q278.7479262967223 259.6977542469938 278.7479262967223 250.96285864829574Q278.7479262967223 242.24980028859434 277.8089250198623 235.96067545753178Q276.84808650400544 229.67155062646916 273.6380123714839 222.1158659335953Q270.40610099996564 214.5820184797182 265.2961870747273 209.2318949255156Q260.1862731494889 203.88177137131308 250.83993485888195 200.19127798086313Q241.47175932927826 196.5007845904132 229.06820757912698 196.5007845904132L229.06820757912698 196.5007845904132Q205.00357020471375 196.5007845904132 190.30710835990422 213.70852891984842Q175.61064651509471 230.9162732492836 175.61064651509471 254.98091062369681Q175.61064651509471 279.04554799811 187.46826729032736 292.5627989370953Q199.34772530455675 306.0800498760806 223.87094469790162 306.0800498760806L223.87094469790162 306.0800498760806Q231.8852114097071 306.0800498760806 231.8852114097071 311.102614845332L231.8852114097071 311.102614845332Q231.8852114097071 319.44444014208864 210.3536937589163 319.44444014208864L210.3536937589163 319.44444014208864Q184.56391450376026 319.44444014208864 169.08131205506788 301.6034158817479Q153.59870960637556 283.762391621407 153.59870960637556 256.70605250443964L153.59870960637556 256.70605250443964Q153.59870960637556 224.62714841822097 175.21757621315328 203.88177137131308Q196.83644281993105 183.1363943244051 229.3739289250814 183.1363943244051L229.3739289250814 183.1363943244051Q264.4445347538542 183.1363943244051 281.56493012730243 203.0956307674302L281.56493012730243 203.0956307674302Q296.82916018602737 221.02400398375804 296.82916018602737 248.84464646561142L296.82916018602737 248.84464646561142Q296.82916018602737 266.13973975103363 287.06791435448224 281.709691155713L287.06791435448224 281.709691155713Q282.5257686431592 289.2653758485868 274.97008395028536 293.89487051589674Q267.41439925741156 298.5243651832068 259.88055180353444 298.5243651832068Q252.32486711066062 298.5243651832068 247.76088416034085 296.8865722584509Q243.21873844901785 295.2269420946982 240.86031663736938 293.021380956027L240.86031663736938 293.021380956027Q236.1434730140724 288.15167665975275 235.1826344982156 284.5485322252898L235.1826344982156 284.5485322252898L234.87691315226118 282.8015531055503Q234.72405247928396 281.0764112248073 233.78505120242394 281.0764112248073L233.78505120242394 281.0764112248073L231.8852114097071 282.3429710866186Q225.92364516359564 288.78495659065845 215.76932903010913 288.78495659065845Q205.63685013561937 288.78495659065845 200.83265755633542 282.49583175959583Q196.05030221604824 276.2067069285332 196.05030221604824 265.50645982012804L196.05030221604824 265.50645982012804Q196.05030221604824 253.10290806997673 202.79800906604248 245.85294472305733L202.79800906604248 245.85294472305733Q209.41469248205627 238.62481861513467 216.48995791700173 236.4192574764634L216.48995791700173 236.4192574764634Q223.87094469790162 233.90797499183773 227.95450839029297 233.60225364588328L227.95450839029297 233.60225364588328L229.85434818300982 233.44939297290605L231.42662939077545 231.396692507212Q231.2519314788015 226.04656895300943 223.08480409401878 226.04656895300943L223.08480409401878 226.04656895300943Q217.42895919386177 226.04656895300943 213.34539550147042 228.01192046271652Q209.23999457008233 229.97727197242355 207.36199201636225 229.97727197242355L207.36199201636225 229.97727197242355Q203.5841496699253 229.97727197242355 203.5841496699253 223.68814714136093L203.5841496699253 223.68814714136093Q203.5841496699253 210.17089620237564 227.80164771731577 210.17089620237564L227.80164771731577 210.17089620237564Q244.94388032976073 210.17089620237564 249.33316536810653 221.81014458764085L249.33316536810653 221.81014458764085Q251.38586583380058 227.31312881482066 251.38586583380058 236.7468160614146ZM364.28439144697325 259.0644743160882L364.28439144697325 259.0644743160882Q364.28439144697325 272.7564231670474 355.7897054772394 281.22927189778454Q347.2950195075056 289.7239578675185 333.624907895543 289.7239578675185L333.624907895543 289.7239578675185Q318.9939577677237 289.7239578675185 311.6129709868238 279.8316886019928L311.6129709868238 279.8316886019928Q304.3630076399044 269.61186075151613 302.63786575916157 259.0644743160882L302.63786575916157 259.0644743160882Q300.91272387841866 247.90564518875138 300.91272387841866 240.98324042678317Q300.91272387841866 234.0608356648149 301.4586548533373 227.16026814184343Q302.0045858282559 220.23786337987522 303.4240063630444 211.83052636612834Q304.84342689783284 203.40135211338466 307.5949190114227 196.41343563442618Q310.34641112501265 189.42551915546775 314.2771141444267 183.35476671437254Q318.2078171638409 177.30585151227416 324.40959303891657 173.8555677507884Q330.6332061529889 170.3834467503059 336.68212135508736 170.3834467503059Q342.7310365571858 170.3834467503059 345.48252867077565 171.16958735418876Q348.2340207843655 171.95572795807158 349.4132316901897 171.95572795807158Q350.59244259601405 171.95572795807158 353.3439347096039 170.71100533525708Q356.09542682319386 169.44444547344585 360.1134787985949 169.44444547344585Q364.1096935349992 169.44444547344585 364.1096935349992 172.7418685619544L364.1096935349992 172.7418685619544Q364.1096935349992 172.91656647392836 362.86497091218484 179.59876160693238Q361.59841105037356 186.28095673993644 361.59841105037356 193.26887321889492Q361.59841105037356 200.25678969785335 362.86497091218484 202.54969979251157Q364.1096935349992 204.82077264817312 364.1096935349992 206.87347311386716L364.1096935349992 206.87347311386716Q364.1096935349992 210.8041761332813 360.5065491005363 213.00973727195256Q356.8815674270767 215.1934611716271 352.64514306170804 215.1934611716271L352.64514306170804 215.1934611716271Q341.63917460734854 215.1934611716271 341.63917460734854 203.88177137131308L341.63917460734854 203.88177137131308Q341.63917460734854 201.37048888668735 342.5781758842086 197.11222728232204Q343.5171771610686 192.87580291695346 343.5171771610686 191.60924305514223L343.5171771610686 191.60924305514223Q343.5171771610686 188.31181996663375 339.91403272660557 188.31181996663375L339.91403272660557 188.31181996663375Q334.86963051835744 188.31181996663375 329.8470655491061 197.43978586727323L329.8470655491061 197.43978586727323Q324.0165227369751 207.96533506370443 324.0165227369751 228.2521300916807L324.0165227369751 228.2521300916807Q324.0165227369751 237.052537407369 325.9163625296919 243.97494216933725L325.9163625296919 243.97494216933725Q329.5195069641549 257.0336110893909 337.8613322609116 257.0336110893909L337.8613322609116 257.0336110893909Q345.08945836883424 257.0336110893909 349.0201613882483 249.1722050505626L349.0201613882483 249.1722050505626Q350.7453032689913 245.3943627041257 354.85070420037937 245.3943627041257Q358.93426789277066 245.3943627041257 361.59841105037356 249.95834565444542Q364.28439144697325 254.50049136576845 364.28439144697325 259.0644743160882Z " fill="#f4a950" transform="matrix(2.2499999313354513,0,0,2.2499999313354517,0,-249.99999084472722)"/><path d="MNaN 244.4444461398655 " fill="#161b21" transform="matrix(2.2499999313354513,0,0,2.2499999313354517,0,-249.99999084472722)"/></g></svg>