<?xml version="1.0" encoding="UTF-8"?><svg viewBox="0 0 24 24" xmlns="http://www.w3.org/2000/svg"><defs><clipPath id="a"><path transform="translate(20923 6060)" d="M0 0h24v24H0z" fill="#ffa000" data-name="Rectangle 8130"/></clipPath><style>.cls-3{fill:#ffb52b}.cls-6{fill:#985200;stroke:#985201;stroke-width:.1px}.cls-7{fill:#ee8100}</style></defs><g transform="translate(-20923 -6060)" clip-path="url(#a)" data-name="Mask Group 662"><g transform="translate(20925 5780.1)" data-name="Group 21729"><circle class="cls-3" transform="translate(0 281.87)" cx="10" cy="10" r="10" data-name="Ellipse 690"/><circle transform="translate(2.505 284.38)" cx="7.495" cy="7.495" r="7.495" fill="#d97500" data-name="Ellipse 691"/><g transform="translate(0 281.87)" data-name="Group 21726"><path transform="translate(0 -281.87)" d="m10.522 282.62a9.981 9.981 0 0 1 7.936 3.918 10 10 0 1 0-16.394 11.414 10 10 0 0 1 8.458-15.332z" fill="#ffeed3" data-name="Path 17825"/></g><g transform="translate(-17966 -4838.5)" data-name="Group 21727"><path class="cls-3" transform="translate(17753 4657.3)" d="m223.566 470.794-.982.984-.984-.984.984-.984z" data-name="Path 17826"/><path class="cls-6" transform="translate(17755 4659.3)" d="m220.563 469.882-1.073-1.071 1.073-1.071 1.071 1.071zm-.9-1.071.9.9.9-.9-.9-.9z" data-name="Path 17827"/><path class="cls-7" transform="translate(17776 4634.9)" d="m200.12 494.184-.986.984-.984-.984.984-.984z" data-name="Path 17828"/><path class="cls-6" transform="translate(17778 4636.8)" d="m197.161 493.282-1.071-1.071 1.071-1.071 1.07 1.071zm-.9-1.071.9.9.9-.9-.9-.9z" data-name="Path 17829"/><path class="cls-3" transform="rotate(-45 15179 -19130)" d="M0 0h1.392v1.392H0z" data-name="Rectangle 8118"/><path class="cls-6" transform="translate(17800 4614.4)" d="m173.761 516.682-1.071-1.071 1.071-1.071 1.071 1.071zm-.9-1.071.9.9.9-.9-.9-.9z" data-name="Path 17830"/><path class="cls-7" transform="rotate(-45 15180 -19129)" d="M0 0h1.392v1.392H0z" data-name="Rectangle 8119"/><path class="cls-6" transform="translate(17823 4592)" d="m150.361 540.082-1.071-1.071 1.071-1.071 1.071 1.071zm-.9-1.071.9.9.9-.9-.9-.9z" data-name="Path 17831"/><path class="cls-7" transform="rotate(-45 15179 -19134)" d="M0 0h1.392v1.392H0z" data-name="Rectangle 8120"/><path class="cls-6" transform="translate(17733 4636.8)" d="m243.961 493.282-1.071-1.071 1.071-1.071 1.071 1.071zm-.9-1.071.9.9.9-.9-.9-.9z" data-name="Path 17832"/><path class="cls-3" transform="rotate(-45 15180 -19133)" d="M0 0h1.392v1.392H0z" data-name="Rectangle 8121"/><path class="cls-6" transform="translate(17755 4614.4)" d="m220.563 516.682-1.073-1.071 1.073-1.071 1.069 1.071zm-.9-1.071.9.9.9-.9-.9-.9z" data-name="Path 17833"/><path class="cls-7" transform="rotate(-45 15181 -19131)" d="M0 0h1.392v1.392H0z" data-name="Rectangle 8122"/><path class="cls-6" transform="translate(17778 4592)" d="m197.161 540.082-1.071-1.071 1.071-1.071 1.07 1.071zm-.9-1.071.9.9.9-.9-.9-.9z" data-name="Path 17834"/><path transform="rotate(-45 15181 -19135)" d="M0 0h1.392v1.392H0z" fill="#ffb94d" data-name="Rectangle 8123"/><path class="cls-6" transform="translate(17711 4614.4)" d="m267.351 516.682-1.071-1.071 1.071-1.071 1.071 1.071zm-.9-1.071.9.9.9-.9-.9-.9z" data-name="Path 17835"/><path class="cls-7" transform="rotate(-45 15182 -19133)" d="M0 0h1.392v1.392H0z" data-name="Rectangle 8124"/><path class="cls-6" transform="translate(17733 4592)" d="m243.961 540.082-1.071-1.071 1.071-1.071 1.071 1.071zm-.9-1.071.9.9.9-.9-.9-.9z" data-name="Path 17836"/><path class="cls-7" transform="rotate(-45 15183 -19136)" d="M0 0h1.392v1.392H0z" data-name="Rectangle 8125"/><path class="cls-6" transform="translate(17688 4592)" d="m290.751 540.082-1.071-1.071 1.071-1.071 1.071 1.071zm-.9-1.071.9.9.9-.9-.9-.9z" data-name="Path 17837"/><path class="cls-3" transform="translate(17664 4567.6)" d="m317.108 564.384-.984.984-.984-.984.984-.984z" data-name="Path 17838"/><path class="cls-6" transform="translate(17666 4569.6)" d="m314.151 563.472-1.071-1.072 1.071-1.071 1.071 1.071zm-.9-1.071.9.9.9-.9-.9-.9z" data-name="Path 17839"/><path class="cls-3" transform="rotate(-45 15183 -19134)" d="M0 0h1.392v1.392H0z" data-name="Rectangle 8126"/><path class="cls-6" transform="translate(17711 4569.6)" d="m267.351 563.472-1.071-1.072 1.071-1.071 1.071 1.071zm-.9-1.071.9.9.9-.9-.9-.9z" data-name="Path 17840"/><path class="cls-3" transform="rotate(-45 15182 -19132)" d="M0 0h1.392v1.392H0z" data-name="Rectangle 8127"/><path class="cls-6" transform="translate(17755 4569.6)" d="m220.563 563.472-1.073-1.072 1.073-1.071 1.071 1.071zm-.9-1.071.9.9.9-.9-.9-.9z" data-name="Path 17841"/><path class="cls-3" transform="rotate(-45 15181 -19129)" d="M0 0h1.392v1.392H0z" data-name="Rectangle 8128"/><path class="cls-6" transform="translate(17800 4569.6)" d="m173.761 563.472-1.071-1.072 1.071-1.071 1.071 1.071zm-.9-1.071.9.9.9-.9-.9-.9z" data-name="Path 17842"/><path class="cls-3" transform="rotate(-45 15180 -19127)" d="M0 0h1.392v1.392H0z" data-name="Rectangle 8129"/><path class="cls-6" transform="translate(17845 4569.6)" d="m126.961 563.472-1.071-1.072 1.071-1.071 1.071 1.071zm-.9-1.071.9.9.9-.9-.9-.9z" data-name="Path 17843"/></g><path transform="translate(18725 5416.2)" d="m-18715-5116.8a7.455 7.455 0 0 1-5.969-2.955 7.475 7.475 0 0 0 5.865 2.753 7.5 7.5 0 0 0 7.494-7.494 7.444 7.444 0 0 0-0.768-3.309 7.524 7.524 0 0 1 0.871 3.51 7.5 7.5 0 0 1-7.493 7.495z" fill="#ffd490" stroke="transparent" stroke-miterlimit="10" data-name="Subtraction 4"/><path transform="translate(18726 5416.5)" d="M-18720-5118.634a7.571 7.571 0 0 1-2.182-2.588 7.394 7.394 0 0 1-.818-3.408 7.507 7.507 0 0 1 7.5-7.5 7.41 7.41 0 0 1 3.4.813 7.587 7.587 0 0 1 2.588 2.174 7.432 7.432 0 0 0-4.49-1.493 7.5 7.5 0 0 0-7.494 7.495 7.43 7.43 0 0 0 1.5 4.5z" fill="#ae5e00" opacity=".467" stroke="transparent" stroke-miterlimit="10" data-name="Subtraction 5"/><g transform="translate(2.505 284.38)" data-name="Group 21728"><path transform="translate(-11.021 -292.89)" d="m19.039 293.64a7.48 7.48 0 0 1 5.89 2.863 7.495 7.495 0 1 0-12.3 8.515 7.5 7.5 0 0 1 6.412-11.378z" fill="#985200" data-name="Path 17845"/></g></g></g></svg>