<svg id="Layer_1" data-name="Layer 1" xmlns="http://www.w3.org/2000/svg" xmlns:xlink="http://www.w3.org/1999/xlink" viewBox="0 0 56 40"><defs><style>.cls-1{fill:none;}.cls-2{clip-path:url(#clip-path);}.cls-3{fill:#5566fb;}</style><clipPath id="clip-path"><rect class="cls-1" width="56" height="40"/></clipPath></defs><g class="cls-2"><g id="Mask_Group_599" data-name="Mask Group 599"><g id="Group_21561" data-name="Group 21561"><path id="Path_17733" data-name="Path 17733" class="cls-3" d="M45,8a18.82,18.82,0,0,0-10.7-4l-.53.61c6.47,2,9.48,4.84,9.48,4.84A31,31,0,0,0,31.79,5.79a32,32,0,0,0-7.7.08,3.48,3.48,0,0,0-.64.07,28.64,28.64,0,0,0-8.65,2.4c-1.41.65-2.25,1.1-2.25,1.1s3.16-3,10-5L22.19,4a18.82,18.82,0,0,0-10.7,4A50.87,50.87,0,0,0,6,30.2S9.2,35.73,17.62,36c0,0,1.41-1.71,2.56-3.16a11.83,11.83,0,0,1-6.67-4.5,12.15,12.15,0,0,0,1.07.65.33.33,0,0,0,.15.11c.11.08.23.12.34.2a24.2,24.2,0,0,0,2.78,1.3,32.06,32.06,0,0,0,5.6,1.63,26.63,26.63,0,0,0,9.87,0,24.69,24.69,0,0,0,5.52-1.64,21.8,21.8,0,0,0,4.38-2.24s-1.9,3.12-6.9,4.53C37.47,34.36,38.84,36,38.84,36c8.42-.27,11.65-5.79,11.65-5.79A51,51,0,0,0,45,8ZM21.12,26.67a4.25,4.25,0,0,1,0-8.46,4.25,4.25,0,0,1,0,8.46Zm13.9,0a4.24,4.24,0,1,1,3.87-4.59c0,.12,0,.24,0,.36A4.09,4.09,0,0,1,35,26.67Z"/></g></g></g></svg>