<svg xmlns="http://www.w3.org/2000/svg" width="48" height="48" xmlns:v="https://vecta.io/nano"><defs><clipPath id="A"><path transform="translate(21545 10279)" fill="#fff" stroke="#707070" stroke-width="1" d="M0 0h48v48H0z"/></clipPath></defs><g transform="translate(-21545 -10279)" clip-path="url(#A)"><circle cx="21569" cy="10303" r="16" fill="#ebfcfc"/><path fill="#61e8ea" d="M21561.5 10296.75h15v12.5h-15z"/><g fill="#007779"><path d="M21561.5 10296.25h15a.5.5 0 0 1 .5.5v12.5a.5.5 0 0 1-.5.5h-15a.5.5 0 0 1-.5-.5v-12.5a.5.5 0 0 1 .5-.5zm14.5 1h-14v11.5h14zm-10.75 8.75a.5.5 0 0 1-.313-.89l2.637-2.11-2.637-2.11a.5.5 0 0 1 .625-.781l3.125 2.5a.5.5 0 0 1 0 .781l-3.125 2.5a.5.5 0 0 1-.312.11zm7.5 0h-3.125a.5.5 0 1 1 0-1h3.125a.5.5 0 1 1 0 1z"/></g></g></svg>