<svg xmlns="http://www.w3.org/2000/svg" xmlns:xlink="http://www.w3.org/1999/xlink" width="48" height="48" xmlns:v="https://vecta.io/nano"><defs><clipPath id="A"><path transform="translate(21545 10279)" fill="#fff" stroke="#707070" stroke-width="1" d="M0 0h48v48H0z"/></clipPath><path id="B" d="M21566.642 10299.643h-2.357a.5.5 0 1 1 0-1h2.357a.5.5 0 1 1 0 1z"/></defs><g transform="translate(-21545 -10279)" clip-path="url(#A)"><circle cx="21569" cy="10303" r="16" fill="#ffeed3"/><path d="M21577.25 10310.25h-16.5a.5.5 0 1 1 0-1h16.5a.5.5 0 1 1 0 1z" fill="#c46900"/><path d="M21570.178 10309.75v-12.965a.59.59 0 0 0-.589-.589h-7.072a.59.59 0 0 0-.589.589v12.965z" fill="#ffa000"/><path d="M21570.178 10310.25h-8.25a.5.5 0 0 1-.5-.5v-12.965a1.09 1.09 0 0 1 1.089-1.089h7.071a1.09 1.09 0 0 1 1.089 1.089v12.965a.5.5 0 0 1-.499.5zm-7.75-1h7.25v-12.465c0-.049-.04-.089-.089-.089h-7.072c-.049 0-.089.04-.089.089z" fill="#c46900"/><path d="M21570.178 10300.91h5.3a.59.59 0 0 1 .589.589v8.25h-5.893z" fill="#ffa000"/><g fill="#c46900"><path d="M21570.178 10300.41h5.3a1.09 1.09 0 0 1 1.089 1.089v8.25a.5.5 0 0 1-.5.5h-5.893a.5.5 0 0 1-.5-.5v-8.839a.5.5 0 0 1 .504-.5zm5.393 8.839v-7.75c0-.049-.04-.089-.089-.089h-4.8v7.839z"/><use xlink:href="#B"/><path d="M21567.821 10304.357h-2.357a.5.5 0 1 1 0-1h2.357a.5.5 0 1 1 0 1zm-1.179 2.947h-2.357a.5.5 0 1 1 0-1h2.357a.5.5 0 1 1 0 1zm7.072 0h-1.179a.5.5 0 1 1 0-1h1.179a.5.5 0 1 1 0 1zm0-2.947h-1.179a.5.5 0 1 1 0-1h1.179a.5.5 0 1 1 0 1z"/></g></g></svg>