<svg xmlns="http://www.w3.org/2000/svg" id="Logo" width="200.001" height="34.898" viewBox="0 0 200.001 34.898">
    <defs>
        <style>
            .cls-1{fill:#61dde1}.cls-2{fill:#606060}.cls-3{fill:#fff}.cls-4{fill:#ffb94d}
        </style>
    </defs>
    <path id="Path_15262" d="M232.889 475.458l-5.638 5.651-5.651-5.651 5.651-5.648z" class="cls-1" transform="translate(-198.488 -469.31)"/>
    <path id="Path_15263" d="M225.65 480.038l-6.16-6.15 6.16-6.148 6.148 6.148zm-5.163-6.15l5.163 5.153 5.151-5.153-5.151-5.151z" class="cls-2" transform="translate(-196.888 -467.74)"/>
    <path id="Path_15264" d="M209.463 498.851L203.8 504.5l-5.651-5.651 5.651-5.649z" class="cls-3" transform="translate(-180.701 -487.052)"/>
    <path id="Path_15265" d="M202.238 503.436l-6.148-6.148 6.148-6.148 6.146 6.148zm-5.151-6.148l5.151 5.153 5.153-5.153-5.153-5.151z" class="cls-2" transform="translate(-179.138 -485.49)"/>
    <path id="Rectangle_3321" d="M0 0H7.99V7.99H0z" class="cls-4" transform="rotate(-45 26.963 -5.52)"/>
    <path id="Path_15266" d="M178.838 526.836l-6.148-6.148 6.148-6.148 6.15 6.148zm-5.151-6.148l5.151 5.151 5.153-5.151-5.153-5.151z" class="cls-2" transform="translate(-161.388 -503.238)"/>
    <path id="Rectangle_3322" d="M0 0H7.99V7.99H0z" class="cls-3" transform="rotate(-45 30.959 4.128)"/>
    <path id="Path_15267" d="M155.44 550.236l-6.15-6.148 6.15-6.148 6.148 6.148zm-5.153-6.148l5.153 5.151 5.151-5.151-5.151-5.153z" class="cls-2" transform="translate(-143.638 -520.988)"/>
    <path id="Rectangle_3323" d="M0 0H7.99V7.99H0z" class="cls-3" transform="rotate(-45 28.62 -28.803)"/>
    <path id="Path_15268" d="M249.038 503.436l-6.148-6.148 6.148-6.148 6.148 6.148zm-5.156-6.148l5.153 5.153 5.151-5.153-5.151-5.151z" class="cls-2" transform="translate(-214.636 -485.49)"/>
    <path id="Rectangle_3324" d="M0 0H7.99V7.99H0z" class="cls-4" transform="rotate(-45 32.616 -19.161)"/>
    <path id="Path_15269" d="M225.65 526.836l-6.16-6.148 6.16-6.148 6.136 6.148zm-5.163-6.148l5.163 5.151 5.139-5.151-5.139-5.151z" class="cls-2" transform="translate(-196.888 -503.238)"/>
    <path id="Rectangle_3325" d="M0 0H7.99V7.99H0z" class="cls-3" transform="rotate(-45 36.61 -9.516)"/>
    <path id="Path_15270" d="M202.238 550.236l-6.148-6.148 6.148-6.148 6.146 6.148zm-5.151-6.148l5.151 5.151 5.153-5.151-5.153-5.153z" class="cls-2" transform="translate(-179.138 -520.988)"/>
    <path id="Rectangle_3326" d="M0 0H7.99V7.99H0z" class="cls-4" transform="rotate(-45 38.266 -32.8)"/>
    <path id="Path_15271" d="M272.43 526.836l-6.15-6.148 6.15-6.148 6.148 6.148zm-5.153-6.148l5.153 5.151 5.151-5.151-5.151-5.151z" class="cls-2" transform="translate(-232.378 -503.238)"/>
    <path id="Rectangle_3327" d="M0 0H7.99V7.99H0z" class="cls-3" transform="rotate(-45 42.259 -23.153)"/>
    <path id="Path_15272" d="M249.038 550.236l-6.148-6.148 6.148-6.148 6.148 6.148zm-5.156-6.148l5.153 5.151 5.151-5.151-5.151-5.153z" class="cls-2" transform="translate(-214.636 -520.988)"/>
    <path id="Rectangle_3328" d="M0 0H7.99V7.99H0z" class="cls-3" transform="rotate(-45 47.909 -36.793)"/>
    <path id="Path_15273" d="M295.828 550.236l-6.148-6.148 6.148-6.148 6.15 6.148zm-5.151-6.148l5.151 5.151 5.153-5.151-5.153-5.153z" class="cls-2" transform="translate(-250.128 -520.988)"/>
    <path id="Path_15274" d="M326.441 569.051l-5.65 5.648-5.651-5.648 5.651-5.651z" class="cls-1" transform="translate(-269.441 -540.301)"/>
    <path id="Path_15275" d="M319.228 573.628l-6.148-6.148 6.148-6.15 6.148 6.15zm-5.151-6.148l5.151 5.151 5.153-5.151-5.153-5.153z" class="cls-2" transform="translate(-267.878 -538.73)"/>
    <path id="Rectangle_3329" d="M0 0H7.99V7.99H0z" class="cls-1" transform="rotate(-45 51.901 -27.15)"/>
    <path id="Path_15276" d="M272.43 573.628l-6.15-6.148 6.15-6.15 6.148 6.15zm-5.153-6.148l5.153 5.151 5.151-5.151-5.151-5.153z" class="cls-2" transform="translate(-232.378 -538.73)"/>
    <path id="Rectangle_3330" d="M0 0H7.99V7.99H0z" class="cls-1" transform="rotate(-45 46.252 -13.51)"/>
    <path id="Path_15277" d="M225.65 573.628l-6.16-6.148 6.16-6.15 6.148 6.15zm-5.163-6.148l5.163 5.151 5.151-5.151-5.151-5.153z" class="cls-2" transform="translate(-196.888 -538.73)"/>
    <path id="Rectangle_3331" d="M0 0H7.99V7.99H0z" class="cls-1" transform="rotate(-45 40.602 .129)"/>
    <path id="Path_15278" d="M178.838 573.628l-6.148-6.148 6.148-6.15 6.15 6.15zm-5.151-6.148l5.151 5.151 5.153-5.151-5.153-5.153z" class="cls-2" transform="translate(-161.388 -538.73)"/>
    <path id="Rectangle_3332" d="M0 0H7.99V7.99H0z" class="cls-1" transform="rotate(-45 34.951 13.772)"/>
    <path id="Path_15279" d="M132.04 573.628l-6.15-6.148 6.15-6.15 6.148 6.15zm-5.158-6.148l5.153 5.151 5.151-5.151-5.151-5.153z" class="cls-2" transform="translate(-125.89 -538.73)"/>
    <path id="Path_15280" d="M391.059 541.274V522.46a.928.928 0 0 1 .548-.867 3.2 3.2 0 0 1 2.656 0 .93.93 0 0 1 .551.867v18.813a.966.966 0 0 1-.565.869 2.9 2.9 0 0 1-2.656 0 .965.965 0 0 1-.534-.868z" class="cls-2" transform="translate(-327.027 -508.369)"/>
    <path id="Path_15281" d="M418.61 564.015v-11.4a.966.966 0 0 1 .507-.838 2.493 2.493 0 0 1 1.345-.319 2.068 2.068 0 0 1 1.171.321.981.981 0 0 1 .483.848v.877a3.906 3.906 0 0 1 1.487-1.577 4.417 4.417 0 0 1 2.388-.642 4.475 4.475 0 0 1 3.484 1.736 6.133 6.133 0 0 1 1.49 4.137v6.855a.965.965 0 0 1-.563.869 2.637 2.637 0 0 1-1.316.319 2.562 2.562 0 0 1-1.287-.319.965.965 0 0 1-.565-.864v-6.848a2.543 2.543 0 0 0-.753-1.8 2.345 2.345 0 0 0-1.763-.795 2.257 2.257 0 0 0-1.664.724 2.558 2.558 0 0 0-.71 1.874v6.841a1.024 1.024 0 0 1-.563.806 2.32 2.32 0 0 1-1.316.377 2.288 2.288 0 0 1-1.316-.362 1.014 1.014 0 0 1-.539-.82z" class="cls-2" transform="translate(-347.925 -531.111)"/>
    <path id="Path_15282" d="M480 542.54v-13.868a.944.944 0 0 1 .577-.814 2.532 2.532 0 0 1 1.273-.331 2.6 2.6 0 0 1 1.316.321.929.929 0 0 1 .565.792v4.8h3.414a.785.785 0 0 1 .693.44 2.188 2.188 0 0 1 0 2.072.785.785 0 0 1-.693.44h-3.427v6.037a1.473 1.473 0 0 0 .362 1.13 1.867 1.867 0 0 0 1.258.331h1.128a1.47 1.47 0 0 1 1.171.483 1.69 1.69 0 0 1 .42 1.152 1.73 1.73 0 0 1-.42 1.178 1.463 1.463 0 0 1-1.171.483h-1.128q-5.353-.014-5.338-4.646z" class="cls-2" transform="translate(-394.49 -513.09)"/>
    <path id="Path_15283" d="M517.674 559.492v-2.461a5.36 5.36 0 0 1 1.852-4.079 6.38 6.38 0 0 1 4.484-1.707 6.122 6.122 0 0 1 4.209 1.555 5.008 5.008 0 0 1 1.751 3.91 3.946 3.946 0 0 1-.217 1.417 1.41 1.41 0 0 1-.667.787 2.716 2.716 0 0 1-.823.287 6.731 6.731 0 0 1-.983.058h-5.873v.432a2.478 2.478 0 0 0 .925 2.012 3.731 3.731 0 0 0 2.458.768 4.7 4.7 0 0 0 2.173-.551 4.35 4.35 0 0 1 1.389-.551 1.208 1.208 0 0 1 1.012.565 1.871 1.871 0 0 1 .406 1.084q0 .811-1.449 1.606a7.463 7.463 0 0 1-3.622.794 7.606 7.606 0 0 1-5.047-1.632 5.337 5.337 0 0 1-1.978-4.294zm3.733-2.432h4.223a1.076 1.076 0 0 0 .65-.147.724.724 0 0 0 .188-.582 1.893 1.893 0 0 0-.736-1.541 3.009 3.009 0 0 0-3.574 0 1.833 1.833 0 0 0-.751 1.526z" class="cls-2" transform="translate(-423.066 -531.08)"/>
    <path id="Path_15284" d="M576.62 564.049v-11.4a.966.966 0 0 1 .507-.838 2.436 2.436 0 0 1 1.316-.319 2.115 2.115 0 0 1 1.207.321.98.98 0 0 1 .483.848v1.208a4.67 4.67 0 0 1 1.449-1.78 3.382 3.382 0 0 1 2.111-.761h.9a1.208 1.208 0 0 1 .939.5 1.71 1.71 0 0 1 .406 1.113 1.756 1.756 0 0 1-.42 1.169 1.207 1.207 0 0 1-.939.483h-.9a2.973 2.973 0 0 0-2.328 1.183 4.616 4.616 0 0 0-1 3.086v5.187a1.023 1.023 0 0 1-.58.807 2.384 2.384 0 0 1-1.331.377 2.223 2.223 0 0 1-1.3-.362 1.017 1.017 0 0 1-.52-.822z" class="cls-2" transform="translate(-467.779 -531.144)"/>
    <path id="Path_15285" d="M615.318 552.858c0-.406.285-.77.852-1.1a3.278 3.278 0 0 1 1.635-.483 1.059 1.059 0 0 1 1.1.638l3.212 8.389 3.212-8.331a1.031 1.031 0 0 1 1.07-.7 3.327 3.327 0 0 1 1.591.507c.6.338.9.708.9 1.113a1.087 1.087 0 0 1-.116.483l-4.945 11.456c-.212.444-.782.664-1.707.664s-1.485-.22-1.69-.664l-4.962-11.456a.877.877 0 0 1-.152-.516z" class="cls-2" transform="translate(-497.13 -531.101)"/>
    <path id="Path_15286" d="M676.18 527.263a1.448 1.448 0 0 1 .613-1.164 2.369 2.369 0 0 1 1.514-.483 2.054 2.054 0 0 1 1.379.483 1.449 1.449 0 0 1 0 2.316 2.016 2.016 0 0 1-1.379.5 2.322 2.322 0 0 1-1.514-.5 1.449 1.449 0 0 1-.613-1.152zm.345 17.28v-11.4a.967.967 0 0 1 .5-.838 2.351 2.351 0 0 1 1.285-.321 2.415 2.415 0 0 1 1.294.319.966.966 0 0 1 .514.838v11.4a1.031 1.031 0 0 1-.543.811 2.352 2.352 0 0 1-2.531.014 1.019 1.019 0 0 1-.519-.823z" class="cls-2" transform="translate(-543.298 -511.638)"/>
    <path id="Path_15287" d="M701.084 559.492v-2.461a5.36 5.36 0 0 1 1.852-4.079 6.379 6.379 0 0 1 4.484-1.707 6.122 6.122 0 0 1 4.209 1.555 5.009 5.009 0 0 1 1.748 3.91 3.946 3.946 0 0 1-.217 1.417 1.41 1.41 0 0 1-.666.787 2.717 2.717 0 0 1-.823.287 6.732 6.732 0 0 1-.983.058h-5.87v.432a2.478 2.478 0 0 0 .925 2.012 3.731 3.731 0 0 0 2.458.768 4.7 4.7 0 0 0 2.173-.551 4.349 4.349 0 0 1 1.389-.551 1.208 1.208 0 0 1 1.012.565 1.871 1.871 0 0 1 .406 1.084q0 .811-1.449 1.606a7.463 7.463 0 0 1-3.622.794 7.605 7.605 0 0 1-5.047-1.632 5.336 5.336 0 0 1-1.979-4.294zm3.733-2.432h4.214a1.076 1.076 0 0 0 .65-.147.724.724 0 0 0 .188-.582 1.893 1.893 0 0 0-.724-1.541 3.009 3.009 0 0 0-3.574 0 1.832 1.832 0 0 0-.751 1.526z" class="cls-2" transform="translate(-562.187 -531.08)"/>
    <path id="Path_15288" d="M754.88 552.881a1.288 1.288 0 0 1 .811-1.084 3.31 3.31 0 0 1 1.618-.449 1.013 1.013 0 0 1 1.072.609l2.9 8.21 2.173-7.145q.242-.751 1.272-.751c.7 0 1.118.241 1.273.751l2.132 7.172 2.922-8.244a1.01 1.01 0 0 1 1.07-.609 3.189 3.189 0 0 1 1.591.464 1.311 1.311 0 0 1 .809 1.1 1.07 1.07 0 0 1-.114.522l-4.455 11.463c-.174.444-.667.664-1.475.664-.85 0-1.36-.22-1.533-.664l-2.229-6.307-2.2 6.278c-.174.464-.705.693-1.591.693-.792 0-1.273-.241-1.449-.693l-4.453-11.427a1.237 1.237 0 0 1-.144-.553z" class="cls-2" transform="translate(-602.994 -531.152)"/>
    <path id="Path_15289" d="M845 541.721v-19.7a.621.621 0 0 1 .261-.536 1.009 1.009 0 0 1 .606-.188h4.745a11.569 11.569 0 0 1 2.313.2 5.687 5.687 0 0 1 1.838.724 3.294 3.294 0 0 1 1.3 1.519 6.019 6.019 0 0 1 .449 2.473 6.4 6.4 0 0 1-.664 3.038 3.73 3.73 0 0 1-1.794 1.736 4.623 4.623 0 0 1 2.212 1.734 5.831 5.831 0 0 1 .768 3.241v.522q0 3.122-1.562 4.542a5.946 5.946 0 0 1-4.165 1.417h-5.448a.89.89 0 0 1-.635-.217.673.673 0 0 1-.224-.505zm1.874-11.562h3.789a4.38 4.38 0 0 0 2.994-.853 3.73 3.73 0 0 0 .939-2.878 3 3 0 0 0-1.041-2.618 5.2 5.2 0 0 0-3-.749h-3.68zm0 10.531h4.194q4.05 0 4.049-4.281v-.483q0-4.1-4.049-4.105h-4.194z" class="cls-2" transform="translate(-671.349 -508.363)"/>
    <path id="Path_15290" d="M905.487 527.536a1.142 1.142 0 0 1-.377-.852 1.1 1.1 0 0 1 .377-.84 1.3 1.3 0 0 1 .925-.345 1.222 1.222 0 0 1 .881.345 1.123 1.123 0 0 1 .362.84 1.164 1.164 0 0 1-.362.852 1.208 1.208 0 0 1-.881.362 1.278 1.278 0 0 1-.925-.362zm0 17.343v-12.236a.611.611 0 0 1 .258-.483 1.053 1.053 0 0 1 .667-.2 1.109 1.109 0 0 1 .679.2.6.6 0 0 1 .275.483v12.236a.664.664 0 0 1-.29.522 1.026 1.026 0 0 1-.664.242.98.98 0 0 1-.652-.242.671.671 0 0 1-.273-.522z" class="cls-2" transform="translate(-716.947 -511.551)"/>
    <path id="Path_15291" d="M928.11 541.356v-15.213a.592.592 0 0 1 .29-.483 1.087 1.087 0 0 1 .635-.2 1.132 1.132 0 0 1 .666.2.587.587 0 0 1 .29.483v5.8h3.731a.586.586 0 0 1 .483.241.925.925 0 0 1 0 1.118.582.582 0 0 1-.483.241h-3.731v7.8a2.631 2.631 0 0 0 .591 1.966 3.06 3.06 0 0 0 2.1.56h.809a.831.831 0 0 1 .623.242.85.85 0 0 1 .242.613.9.9 0 0 1-.242.628.8.8 0 0 1-.623.27h-.819q-4.562-.022-4.562-4.266z" class="cls-2" transform="translate(-734.392 -511.521)"/>
</svg>
