<?xml version="1.0" encoding="UTF-8"?><svg viewBox="0 0 320 108.01" xmlns="http://www.w3.org/2000/svg"><defs><clipPath id="b"><path class="cls-1" transform="translate(-.451 .287)" d="M8 0h130v107H8a8 8 0 0 1-8-8V8a8 8 0 0 1 8-8z" data-name="Rectangle 5050"/></clipPath><clipPath id="a"><path transform="translate(0 .034)" d="M0 0h130a8 8 0 0 1 8 8v83a8 8 0 0 1-8 8H0V0z" fill="#91f2e8" data-name="Rectangle 5041"/></clipPath><style>.cls-1{fill:#fff}.cls-13{fill:none;stroke-linecap:round}.cls-5{fill:#332938}.cls-6{fill:#d1ecff}.cls-7{fill:#e9f5ff}.cls-8{fill:#55baff}.cls-9{fill:#003e7e}.cls-11{fill:#00a6ff}.cls-12{fill:#8aceff}.cls-13{stroke:#d1ecff}.cls-15{fill:#03213f}.cls-16{fill:#ffd490}.cls-17{fill:#002726}.cls-18{fill:#c97400}.cls-19{fill:#fc9100}.cls-20{fill:#b7dbff}.cls-21{fill:#0b65bf}.cls-23{fill:#a35a5f}.cls-24{fill:#f7a274}.cls-25{fill:#b0b7c7}.cls-26{fill:#deb1a6}.cls-27{fill:#f37453}.cls-28{fill:#619ed7}.cls-29{fill:#fae2d7}.cls-30{fill:#824600}.cls-31{fill:#57abff}.cls-32{fill:#edbdb2}.cls-33{fill:#322e4f}.cls-34{fill:#c46900}</style></defs><g transform="translate(-37.548 -4418.8)" data-name="Group 21623"><path transform="rotate(-8 32018 1360)" d="M0 33.111s13 11.648 25.557 3.026S21.275-3.674 38.094.358" fill="none" stroke="#57abff" stroke-dasharray="6" stroke-linecap="round" data-name="Path 16773"/><path transform="rotate(188 263.96 2246.7)" d="m0 6.2s13-11.643 25.558-3.021-4.282 39.81 12.537 35.778" fill="none" stroke="#fff" stroke-dasharray="6" stroke-linecap="round" data-name="Path 16774"/><g transform="translate(130.35 4419.3)" data-name="Group 19553"><g data-name="Group 19548"><g transform="translate(.514 .514)" data-name="Group 18705"><g transform="translate(.718 .718)" data-name="Group 18699"><path class="cls-5" d="M10.706 0h102.52a10.706 10.706 0 0 1 10.706 10.706H0A10.706 10.706 0 0 1 10.706 0z" data-name="Rectangle 4181"/></g><g data-name="Group 18701"><g data-name="Group 18700"><path class="cls-6" transform="translate(-811.54 -1185.6)" d="m932.74 1276.1h-117.03a4.172 4.172 0 0 1-4.167-4.167v-82.151a4.172 4.172 0 0 1 4.167-4.167h117.03a4.172 4.172 0 0 1 4.167 4.167v82.151a4.172 4.172 0 0 1-4.167 4.167z" data-name="Path 15923"/><path class="cls-7" transform="translate(27.626 13.009)" d="M0 0h97.966v71.421a6 6 0 0 1-6 6H0V0z" data-name="Rectangle 4182"/><path class="cls-8" transform="translate(.359)" d="M4 0h116.649a4 4 0 0 1 4 4v9.009H0V4a4 4 0 0 1 4-4z" data-name="Rectangle 4183"/></g></g><g transform="translate(110.23 4.986)" data-name="Group 18702"><path class="cls-6" transform="translate(-1270.8 -1206.4)" d="m1274.1 1208.1a1.634 1.634 0 1 1-1.634-1.634 1.634 1.634 0 0 1 1.634 1.634z" data-name="Path 15924"/></g><g transform="translate(103.59 4.986)" data-name="Group 18703"><path class="cls-6" transform="translate(-1243.2 -1206.4)" d="m1246.5 1208.1a1.634 1.634 0 1 1-1.634-1.634 1.634 1.634 0 0 1 1.634 1.634z" data-name="Path 15925"/></g><g transform="translate(116.58 4.986)" data-name="Group 18704"><path class="cls-9" transform="translate(-1297.3 -1206.4)" d="m1300.6 1208.1a1.634 1.634 0 1 1-1.634-1.634 1.634 1.634 0 0 1 1.634 1.634z" data-name="Path 15926"/></g></g><path class="cls-1" transform="translate(28.14 13.523)" d="M0 0h97.404v52.984H0z" data-name="Rectangle 4184"/><path class="cls-8" transform="translate(-821.3 -1336.3)" d="m849.37 1388.9h-22.151a2.156 2.156 0 0 1-2.156-2.156 2.156 2.156 0 0 1 2.156-2.155h22.151z" data-name="Path 15927"/><g data-name="Group 18706"><path transform="translate(-809.4 -1183.5)" d="m931.12 1275h-117.03a4.686 4.686 0 0 1-4.681-4.681v-82.152a4.686 4.686 0 0 1 4.681-4.681h117.03a4.686 4.686 0 0 1 4.681 4.681v82.152a4.686 4.686 0 0 1-4.681 4.681zm-117.03-90.486a3.657 3.657 0 0 0-3.653 3.653v82.152a3.657 3.657 0 0 0 3.653 3.653h117.03a3.657 3.657 0 0 0 3.653-3.653v-82.152a3.657 3.657 0 0 0-3.653-3.653z" fill="#fff" stroke="#fff" data-name="Path 15928"/></g><g transform="translate(35.897 71.416)" data-name="Group 18708"><path class="cls-11" transform="translate(-958.98 -1504.3)" d="m987.43 1517.2h-25.641a2.812 2.812 0 0 1-2.812-2.812 2.811 2.811 0 0 1 2.812-2.811h25.641a2.812 2.812 0 0 1 2.812 2.811 2.812 2.812 0 0 1-2.812 2.812z" data-name="Path 15929"/><g data-name="Group 18707"><path class="cls-12" transform="translate(-958.98 -1481.1)" d="M1011.285 1482.341h-51.679a.628.628 0 0 1-.628-.628.628.628 0 0 1 .628-.628h51.679a.628.628 0 0 1 .628.628.628.628 0 0 1-.628.628z" data-name="Path 15930"/><path class="cls-12" transform="translate(-958.98 -1490.7)" d="M992.1 1494.951h-32.494a.628.628 0 0 1-.628-.628.628.628 0 0 1 .628-.628H992.1a.628.628 0 0 1 .628.628.628.628 0 0 1-.628.628z" data-name="Path 15931"/></g></g><g transform="translate(6.401 37.312)" data-name="Group 18709"><path class="cls-1" transform="translate(-836.08 -1339)" d="M845.932 1340.235H836.7a.628.628 0 0 1-.628-.628.628.628 0 0 1 .628-.628h9.229a.628.628 0 0 1 .628.628.628.628 0 0 1-.625.628z" data-name="Path 15932"/><path class="cls-1" transform="translate(-836.08 -1352.1)" d="M852.1 1357.544h-15.4a.628.628 0 0 1-.628-.628.628.628 0 0 1 .628-.628h15.4a.628.628 0 0 1 .628.628.629.629 0 0 1-.628.628z" data-name="Path 15933"/><path class="cls-1" transform="translate(-836.08 -1365.3)" d="M847.85 1374.852H836.7a.628.628 0 0 1-.628-.628.628.628 0 0 1 .628-.628h11.15a.628.628 0 0 1 .628.628.628.628 0 0 1-.628.628z" data-name="Path 15934"/><path class="cls-1" transform="translate(-836.08 -1378.4)" d="M845.432 1392.161H836.7a.628.628 0 0 1-.628-.628.628.628 0 0 1 .628-.628h8.728a.628.628 0 0 1 .628.628.628.628 0 0 1-.624.628z" data-name="Path 15935"/><path class="cls-1" transform="translate(-836.08 -1391.6)" d="M848.85 1409.47H836.7a.628.628 0 0 1-.628-.628.628.628 0 0 1 .628-.628h12.15a.628.628 0 0 1 .628.628.628.628 0 0 1-.628.628z" data-name="Path 15936"/><path class="cls-1" transform="translate(-836.08 -1404.8)" d="M845.763 1426.779H836.7a.628.628 0 0 1-.628-.628.628.628 0 0 1 .628-.628h9.059a.628.628 0 0 1 .628.628.628.628 0 0 1-.624.628z" data-name="Path 15937"/><path class="cls-1" transform="translate(-836.08 -1417.9)" d="M848.6 1444.088h-11.9a.628.628 0 0 1-.628-.628.628.628 0 0 1 .628-.628h11.9a.628.628 0 0 1 .628.628.628.628 0 0 1-.628.628z" data-name="Path 15938"/><path class="cls-1" transform="translate(-836.08 -1431.1)" d="M843.855 1461.4H836.7a.628.628 0 0 1-.628-.628.628.628 0 0 1 .628-.628h7.151a.628.628 0 0 1 .628.628.628.628 0 0 1-.624.628z" data-name="Path 15939"/><path class="cls-1" transform="translate(-836.08 -1444.2)" d="M852.1 1478.706h-15.4a.628.628 0 0 1-.628-.628.628.628 0 0 1 .628-.628h15.4a.628.628 0 0 1 .628.628.628.628 0 0 1-.628.628z" data-name="Path 15940"/></g><g transform="translate(32.378 22.014)" data-name="Group 18712"><g data-name="Group 18710"><path class="cls-12" d="M0 0h1.674v1.674H0z" data-name="Rectangle 4185"/><path class="cls-12" transform="translate(0 3.593)" d="M0 0h1.674v1.674H0z" data-name="Rectangle 4186"/><path class="cls-12" transform="translate(0 7.186)" d="M0 0h1.674v1.674H0z" data-name="Rectangle 4187"/><path class="cls-12" transform="translate(0 10.779)" d="M0 0h1.674v1.674H0z" data-name="Rectangle 4188"/><path class="cls-12" transform="translate(0 14.372)" d="M0 0h1.674v1.674H0z" data-name="Rectangle 4189"/><path class="cls-12" transform="translate(0 17.964)" d="M0 0h1.674v1.674H0z" data-name="Rectangle 4190"/><path class="cls-12" transform="translate(0 21.557)" d="M0 0h1.674v1.674H0z" data-name="Rectangle 4191"/><path class="cls-12" transform="translate(0 25.15)" d="M0 0h1.674v1.674H0z" data-name="Rectangle 4192"/><path class="cls-12" transform="translate(0 28.743)" d="M0 0h1.674v1.674H0z" data-name="Rectangle 4193"/><path class="cls-12" transform="translate(0 32.336)" d="M0 0h1.674v1.674H0z" data-name="Rectangle 4194"/><path class="cls-11" transform="translate(10.973)" d="M0 0h24.724v1.674H0z" data-name="Rectangle 4195"/><path class="cls-8" transform="translate(10.973 3.208)" d="M0 0h41.813v1.674H0z" data-name="Rectangle 4196"/><path class="cls-6" transform="translate(34.431 7.186)" d="M0 0h5.427v1.674H0z" data-name="Rectangle 4197"/><path class="cls-6" transform="translate(38.307 10.779)" d="M0 0h8.14v1.674H0z" data-name="Rectangle 4198"/><path class="cls-6" transform="translate(38.307 14.372)" d="M0 0h8.14v1.674H0z" data-name="Rectangle 4199"/><path class="cls-6" transform="translate(33.849 17.964)" d="M0 0h8.14v1.674H0z" data-name="Rectangle 4200"/><path class="cls-8" transform="translate(11.062 17.964)" d="M0 0h21.331v1.674H0z" data-name="Rectangle 4201"/><path class="cls-6" transform="translate(38.307 21.557)" d="M0 0h3.166v1.674H0z" data-name="Rectangle 4202"/><path class="cls-12" transform="translate(79.915 14.372)" d="M0 0h8.14v1.674H0z" data-name="Rectangle 4203"/><path class="cls-1" transform="translate(48.127 14.372)" d="M0 0h3.502v1.674H0z" data-name="Rectangle 4204"/><path class="cls-11" transform="translate(52.863 14.372)" d="M0 0h25.588v1.674H0z" data-name="Rectangle 4205"/><path class="cls-12" transform="translate(47.739 10.779)" d="M0 0h4.651v1.674H0z" data-name="Rectangle 4206"/><path class="cls-12" transform="translate(69.32 10.779)" d="M0 0h4.651v1.674H0z" data-name="Rectangle 4207"/><path class="cls-11" transform="translate(53.554 10.779)" d="M0 0h14.41v1.674H0z" data-name="Rectangle 4208"/><path class="cls-8" transform="translate(43.088 21.557)" d="M0 0h9.823v1.674H0z" data-name="Rectangle 4209"/><path class="cls-12" transform="translate(69.84 21.557)" d="M0 0h7.237v1.674H0z" data-name="Rectangle 4210"/><path class="cls-11" transform="translate(54.074 21.557)" d="M0 0h14.41v1.674H0z" data-name="Rectangle 4211"/><path class="cls-6" transform="translate(69.068 3.208)" d="M0 0h3.424v1.674H0z" data-name="Rectangle 4212"/><path class="cls-12" transform="translate(54.401 3.208)" d="M0 0h12.922v1.674H0z" data-name="Rectangle 4213"/><path class="cls-6" transform="translate(38.307 25.15)" d="M0 0h5.427v1.674H0z" data-name="Rectangle 4214"/><path class="cls-11" transform="translate(57.43 25.15)" d="M0 0h8.595v1.674H0z" data-name="Rectangle 4215"/><path class="cls-8" transform="translate(45.349 25.15)" d="M0 0h10.337v1.674H0z" data-name="Rectangle 4216"/><path class="cls-1" transform="translate(63.15)" d="M0 0h8.012v1.674H0z" data-name="Rectangle 4217"/><path class="cls-8" transform="translate(38.307 29.128)" d="M0 0h10.853v1.674H0z" data-name="Rectangle 4218"/><path class="cls-6" transform="translate(38.307 32.336)" d="M0 0h15.77v1.674H0z" data-name="Rectangle 4219"/><path class="cls-11" transform="translate(67.773 32.336)" d="M0 0h16.353v1.674H0z" data-name="Rectangle 4220"/><path class="cls-8" transform="translate(55.692 32.336)" d="M0 0h10.337v1.674H0z" data-name="Rectangle 4221"/><path class="cls-12" transform="translate(51.486 29.128)" d="M0 0h5.427v1.674H0z" data-name="Rectangle 4222"/></g></g></g><circle class="cls-9" transform="translate(5.577 17.012)" cx="8.364" cy="8.364" r="8.364" data-name="Ellipse 200"/><g transform="translate(9.534 22.414)" data-name="Group 19549"><path class="cls-8" transform="translate(9837 1225)" d="m-9837-1220.6v-2.962h1.48l2.963-1.481v5.924l-2.963-1.481z" data-name="Path 16175"/><path class="cls-13" transform="translate(6.266 2.788)" d="m0 0h2.788" data-name="Line 58"/><path class="cls-13" transform="translate(6.266 .465)" d="M0 1.394 2.323 0" data-name="Line 59"/><path class="cls-13" transform="translate(6.266 3.717)" d="M2.323 1.394 0 0" data-name="Line 60"/></g></g><g transform="translate(37.999 4419.5)" clip-path="url(#b)" data-name="Mask Group 549"><g transform="translate(-19.395 22.461)" data-name="Group 19521"><g transform="translate(0 49.945)" data-name="Group 19482"><g data-name="Group 19481"><path class="cls-15" transform="translate(-340.6 -533.54)" d="m394.08 579.99h4.86l7.483 46.519h-2.241z" data-name="Path 16713"/><g transform="translate(17.629 48.021)" data-name="Group 19473"><path class="cls-15" transform="rotate(-54.288 15.556 7.976)" d="M0 0h19.646v.748H0z" data-name="Rectangle 5044"/></g><g transform="translate(17.076 49.26)" data-name="Group 19474"><path class="cls-15" transform="translate(-271.26 -589.49)" d="m271.851 610.65 13.655-20.705-.6-.451-13.654 20.7z" data-name="Path 16714"/></g><g transform="translate(29.039 46.344)" data-name="Group 19475"><path class="cls-15" transform="translate(-311.62 -579.66)" d="m317.978 605.839.722-.2-6.357-25.988-.722.2z" data-name="Path 16715"/></g><g transform="translate(26.177 47.128)" data-name="Group 19476"><path class="cls-15" transform="translate(-301.96 -582.3)" d="m310.2 610.957.712-.227-8.235-28.43-.712.227z" data-name="Path 16716"/></g><path class="cls-16" transform="translate(-236.95 -533.54)" d="M261.61 579.986h-4.86l-9.987 46.519H249z" data-name="Path 16717"/><g transform="translate(36.509 50.076)" data-name="Group 19477"><path class="cls-15" transform="rotate(-41.057 20.44 7.654)" d="M0 0h23.307v.748H0z" data-name="Rectangle 5045"/></g><g transform="translate(36.514 50.072)" data-name="Group 19478"><path class="cls-15" transform="translate(-336.84 -592.23)" d="m337.32 614.17 22.3-21.368-0.481-0.572-22.3 21.368z" data-name="Path 16718"/></g><path class="cls-16" transform="translate(-287.3 -533.54)" d="m332.17 579.99h-6.357l-7.483 46.519h2.615z" data-name="Path 16719"/><g transform="translate(55.38 46.924)" data-name="Group 19479"><path class="cls-5" transform="rotate(-58.426 .57 .319)" d="M0 0h.748v27.619H0z" data-name="Rectangle 5046"/></g><g transform="translate(52.279 50.029)" data-name="Group 19480"><path class="cls-5" transform="rotate(-60.817 .556 .327)" d="M0 0h.748v31.405H0z" data-name="Rectangle 5047"/></g><path class="cls-16" transform="translate(-385.01 -533.54)" d="m457.2 579.99h6.357l7.483 46.519h-2.615z" data-name="Path 16720"/><path class="cls-9" transform="translate(-213.64 -423.29)" d="M266.9 423.29h-53.258v14.217a37.193 37.193 0 0 0 34.331 37.083c.942.071 1.9.108 2.861.108H304.1v-14.213a37.2 37.2 0 0 0-37.2-37.195zm2.909 41.365H245a2.272 2.272 0 0 1 0-4.543h24.81a2.272 2.272 0 0 1 0 4.543z" data-name="Path 16721"/></g><path class="cls-8" transform="translate(-213.64 -423.29)" d="M248.044 460.111a37.294 37.294 0 0 0-34.4-36.821v14.15a37.291 37.291 0 0 0 34.406 37.192v-14.146c-.002-.124-.002-.251-.006-.375z" data-name="Path 16722"/></g><g transform="translate(39.147)" data-name="Group 19487"><g transform="translate(5.19)" data-name="Group 19485"><path class="cls-17" transform="translate(-363.26 -278.14)" d="m384.47 287.98-2.118 13.675h-15.65l-1.216-8.323v8.323h-2.219v-13.675z" data-name="Path 16723"/><ellipse class="cls-17" cx="10.606" cy="10.123" rx="10.606" ry="10.123" data-name="Ellipse 188"/><ellipse class="cls-1" transform="translate(13.485 10.305)" cx="3.435" cy="3.607" rx="3.435" ry="3.607" data-name="Ellipse 189"/><path class="cls-18" transform="translate(6.265 15.193)" d="M0 0h8.683v10.106H0z" data-name="Rectangle 5048"/><path class="cls-5" transform="translate(-386.03 -303.98)" d="m400.98 325.37-5.345-0.662 5.345 3.261z" data-name="Path 16724"/><path class="cls-18" transform="translate(-378.86 -265.17)" d="m393.97 287.3-8.521-1.48v-10.255a6.162 6.162 0 0 1 6.3-6.013 6.162 6.162 0 0 1 6.3 6.013v8.335a3.22 3.22 0 0 1-4.079 3.4z" data-name="Path 16725"/><path class="cls-19" transform="translate(-404.33 -285.94)" d="M423.517 299.124v3.284a1.29 1.29 0 0 1-.373.057 1.712 1.712 0 0 1 0-3.4 1.285 1.285 0 0 1 .373.059z" data-name="Path 16726"/><path class="cls-17" transform="translate(-378.11 -261.82)" d="m386.28 273.68h-1.907v-8.893h10.8a8.893 8.893 0 0 1-8.893 8.893z" data-name="Path 16727"/><circle class="cls-18" transform="rotate(-45 17.82 4.267)" cx="2.873" cy="2.873" r="2.873" data-name="Ellipse 190"/><path class="cls-19" transform="translate(-385.88 -285.82)" d="m399.02 300.7a1.8 1.8 0 1 1-1.8-1.8 1.8 1.8 0 0 1 1.8 1.8z" data-name="Path 16728"/><g transform="translate(11.487 12.725)" data-name="Group 19484"><path class="cls-1" transform="translate(-401.99 -303.76)" d="m402.13 306.32 2.657 3.016s-3.509 0.431-2.657-3.016z" data-name="Path 16729"/><path class="cls-17" transform="translate(-403.22 -297.71)" d="M404.866 298.278a.569.569 0 1 1-.568-.568.569.569 0 0 1 .568.568z" data-name="Path 16730"/><path class="cls-17" transform="translate(-415.03 -297.71)" d="M421.652 298.278a.569.569 0 1 1-.569-.568.569.569 0 0 1 .569.568z" data-name="Path 16731"/><g transform="translate(2.905 .175)" data-name="Group 19483"><path class="cls-17" transform="translate(-411.8 -298.3)" d="M413.138 301.356a.5.5 0 0 1-.084-.007l-1.259-.205.073-.449 1.259.205.289-.087-.2.154-.319-2.613.451-.054.3 2.486a.51.51 0 0 1-.5.57z" data-name="Path 16732"/></g></g><path class="cls-17" transform="translate(-410.1 -275.52)" d="m431.21 284.27 2.086 14.776h-3.459l0.494-11.655z" data-name="Path 16733"/><path class="cls-1" transform="translate(-5.497 -2.757)" d="M8.528 14.7S6.561 4.318 16.654 4.2s8.024 10.594 8.024 10.594v-.641s.809-9.016-7.4-9.016S12 19.246 12 19.246z" data-name="Path 16734"/></g><g transform="translate(23.09 44.897)" data-name="Group 19486"><path class="cls-18" transform="translate(-423.63 -406.26)" d="m454.161 419.93-28.6-13.673s-4.718 9.09.586 14.142c6.224 5.928 26.661 4.77 26.661 4.77z" data-name="Path 16735"/></g><path class="cls-6" transform="translate(-345.72 -314.83)" d="m365.77 340.13h-8.316a6.427 6.427 0 0 0-5.227 2.944l-6.5 9.344v34.464h36.087l-2.964-24.341c2e-3 -2.48-11.404-22.411-13.08-22.411z" data-name="Path 16736"/></g><g transform="translate(39.049 36.867)" data-name="Group 19517"><g transform="translate(0 32.863)" data-name="Group 19488"><path class="cls-8" transform="translate(-345.39 -490.05)" d="M397.905 490.046V519.2h-39.536a12.985 12.985 0 0 1-11.625-7.2q-.124-.241-.233-.5a12.909 12.909 0 0 1-1.118-5.275 16.181 16.181 0 0 1 16.181-16.181z" data-name="Path 16737"/></g><path class="cls-5" transform="translate(-395.8 -457.19)" d="m429.6 490.05-12.57 29.154 8.542-29.154z" data-name="Path 16738"/><g transform="translate(40.061 32.865)" data-name="Group 19502"><g data-name="Group 19494"><g transform="translate(3.445 49.332)" data-name="Group 19489"><path class="cls-20" transform="translate(-492.18 -656.5)" d="M528.647 680.341h-34.1l-1.035-10.451v-.006l-1.328-13.38 18.135-.006.581 5.829a6.659 6.659 0 0 0 1.478 3.925 4.005 4.005 0 0 0 .7.664 7.338 7.338 0 0 0 1.938 1.074c.271.105.548.205.841.3.658.21 1.378.4 2.142.587.282.072.57.138.869.21.742.183 1.528.365 2.336.587a9.163 9.163 0 0 1 2.319.963c.005 0 .005.006.011.006a7.51 7.51 0 0 1 .78.5 10.813 10.813 0 0 1 3.853 6.089c.066.243.116.47.161.7a16.914 16.914 0 0 1 .319 2.409z" data-name="Path 16739"/></g><g transform="translate(2.748 42.313)" data-name="Group 19490"><path class="cls-18" transform="translate(-489.83 -632.82)" d="m509.24 645.66h-18.14l-1.272-12.844h18.14z" data-name="Path 16740"/></g><g transform="translate(5.498 70.068)" data-name="Group 19491"><path class="cls-21" transform="translate(-499.11 -726.46)" d="M533.208 727.161h-34.03l-.069-.7h33.936c.062.239.117.477.163.7z" data-name="Path 16741"/></g><g data-name="Group 19492"><path class="cls-8" transform="translate(-480.56 -490.05)" d="M513.83 536.62h-11.964l-12.322.006h-5.815l-.423-4.259-.942-9.473v-.006l-.364-3.682-1.37-13.872c-.045-.461-.07-.929-.07-1.39a13.951 13.951 0 0 1 11.169-13.622q.279-.057.557-.1c.237-.045.48-.07.724-.1a13.89 13.89 0 0 1 14.256 8.364l.019.051a13.656 13.656 0 0 1 .922 3.2l.531 3.279.084.544 1.543 9.562.128.781z" data-name="Path 16742"/></g><path class="cls-5" transform="translate(-509.61 -495.56)" d="m536.34 504.05-14.487 23.94 9.376-30.114a13.93 13.93 0 0 1 5.091 6.125z" data-name="Path 16743"/><path class="cls-5" transform="translate(-483.39 -555.86)" d="m494.83 588.96-9.369 1.855-0.878-7.241z" data-name="Path 16744"/><g transform="translate(3.17 46.574)" data-name="Group 19493"><path class="cls-5" transform="translate(-491.26 -647.19)" d="m509.4 647.19-17.8 3.479-0.343-3.477z" data-name="Path 16745"/></g></g><g transform="translate(22.905 58.08)" data-name="Group 19501"><g data-name="Group 19496"><g data-name="Group 19495"><path class="cls-21" transform="translate(-557.84 -686.01)" d="m558.652 689.039-.811-.375 1.118-2.65.811.374z" data-name="Path 16746"/></g></g><g transform="translate(2.97 1.483)" data-name="Group 19498"><g data-name="Group 19497"><path class="cls-21" transform="translate(-567.86 -691.02)" d="m568.671 694.118-.811-.375.9-2.726.811.375z" data-name="Path 16747"/></g></g><g transform="translate(5.696 2.783)" data-name="Group 19500"><g data-name="Group 19499"><path class="cls-21" transform="translate(-577.06 -695.4)" d="m577.869 698.548-.811-.374.987-2.769.811.374z" data-name="Path 16748"/></g></g></g></g><g transform="translate(12.33)" data-name="Group 19516"><g data-name="Group 19508"><g transform="translate(0 60.584)" data-name="Group 19503"><path class="cls-20" transform="translate(-386.99 -583.58)" d="M420.924 611.889c-.064.237-.122.455-.186.673a16.6 16.6 0 0 1-.9 2.254l-32.849-9.146 3.567-8.281.737-1.71 5.219-12.1 17.472 4.861-2.325 5.4a5.646 5.646 0 0 0-.519 3.932 2.9 2.9 0 0 0 .346.788 5.583 5.583 0 0 0 1.339 1.486c.211.167.429.333.666.493.525.365 1.121.73 1.768 1.1.237.141.487.282.737.423.621.365 1.287.743 1.96 1.159a6.96 6.96 0 0 1 1.761 1.492q.144.164.269.327c.083.109.167.224.237.339l.006.013a8.252 8.252 0 0 1 .695 6.497z" data-name="Path 16749"/></g><g transform="translate(7.195 54.076)" data-name="Group 19504"><path class="cls-18" transform="translate(-411.27 -561.62)" d="m428.74 578.38-17.476-4.862 5.132-11.9 17.476 4.862z" data-name="Path 16750"/></g><g transform="translate(.958 79.802)" data-name="Group 19505"><path class="cls-21" transform="translate(-390.22 -648.42)" d="m423.009 658.184-32.786-9.121.279-.647 32.695 9.1c-.059.23-.122.455-.188.668z" data-name="Path 16751"/></g><path class="cls-9" transform="translate(-435.86 -379.17)" d="M506.8 379.166h-34.984a3.945 3.945 0 0 0-3.244 2.27l-11.918 26.981c-.554 1.254 0 2.27 1.239 2.27h34.987a3.944 3.944 0 0 0 3.244-2.27l11.919-26.981c.557-1.254-.002-2.27-1.243-2.27z" data-name="Path 16752"/><path class="cls-9" transform="translate(-402.51 -454)" d="M409.829 487.074h47.578a.779.779 0 0 0 .779-.779.779.779 0 0 0-.779-.779h-47.578a.78.78 0 0 0-.78.779.78.78 0 0 0 .78.779z" data-name="Path 16753"/><g transform="translate(10.62 17.8)" data-name="Group 19506"><path class="cls-8" transform="translate(-422.83 -439.22)" d="M463.772 459.814c-.028.078-.06.155-.093.232l-.126.287-3.175 7.362-.315.74-1.272 2.939-1.474 3.416-5.485 12.729-29.006-8.074 6.964-16.145 6.5-15.068c.078-.179.157-.358.252-.533a4.891 4.891 0 0 1 .292-.574 14.878 14.878 0 0 1 15.253-7.752q.283.036.562.087c.442.083.891.185 1.334.308a14.917 14.917 0 0 1 9.791 20.044z" data-name="Path 16754"/></g><g transform="translate(9.234 58.025)" data-name="Group 19507"><path class="cls-5" transform="translate(-418.15 -574.94)" d="m437.01 579.8-18.866-1.64 1.39-3.222z" data-name="Path 16755"/></g></g><g transform="translate(22.63 73.973)" data-name="Group 19515"><g data-name="Group 19510"><g data-name="Group 19509"><path class="cls-21" transform="translate(-463.35 -628.75)" d="m463.943 631.391-.6-.555 2.389-2.086.6.555z" data-name="Path 16756"/></g></g><g transform="translate(2.089 2.072)" data-name="Group 19512"><g data-name="Group 19511"><path class="cls-21" transform="translate(-470.4 -635.74)" d="m470.992 638.51-.6-.555 2.213-2.214.6.555z" data-name="Path 16757"/></g></g><g transform="translate(4.051 3.998)" data-name="Group 19514"><g data-name="Group 19513"><path class="cls-21" transform="translate(-477.01 -642.24)" d="m477.61 645.021-.6-.554 2.321-2.228.6.554z" data-name="Path 16758"/></g></g></g></g></g><g transform="translate(29.704 47.75)" data-name="Group 19518"><path class="cls-18" transform="translate(-313.86 -415.88)" d="m344.39 429.56-28.6-13.673s-4.718 9.09 0.586 14.142c6.224 5.928 26.661 4.77 26.661 4.77z" data-name="Path 16759"/></g><g transform="translate(55.401 56.491)" data-name="Group 19520"><g data-name="Group 19519"><path class="cls-18" transform="rotate(111.83 6.05 7.403)" d="M0 0a10.324 10.324 0 0 1 10.324 10.324v1.884A10.324 10.324 0 0 1 0 1.884V0z" data-name="Rectangle 5049"/></g></g><path class="cls-6" transform="translate(-282.58 -321.82)" d="m328.23 350.07-16.605 18.81 16.5 7.346z" data-name="Path 16760"/><ellipse class="cls-1" transform="translate(46.143 10.305)" cx="3.435" cy="3.607" rx="3.435" ry="3.607" data-name="Ellipse 191"/></g></g><g transform="translate(219.55 4427.8)" clip-path="url(#a)" data-name="Mask Group 548"><g transform="translate(18.587 15.138)" data-name="Group 19471"><g transform="translate(54.642 89.834)" data-name="Group 19424"><g transform="translate(.25 .249)" data-name="Group 19418"><g transform="translate(.348 .348)" data-name="Group 19412"><path class="cls-23" d="M5.2 0h57.755a5.2 5.2 0 0 1 5.2 5.2H0A5.2 5.2 0 0 1 5.2 0z" data-name="Rectangle 4998"/></g><g data-name="Group 19414"><g data-name="Group 19413"><path class="cls-5" transform="translate(-2041 -1372.2)" d="m2107.9 1416.1h-64.8a2.025 2.025 0 0 1-2.022-2.022v-39.875a2.025 2.025 0 0 1 2.022-2.023h64.8a2.025 2.025 0 0 1 2.023 2.023v39.875a2.025 2.025 0 0 1-2.023 2.022z" data-name="Path 16656"/><path class="cls-24" transform="translate(.174)" d="M6.314 0h55.872A6.314 6.314 0 0 1 68.5 6.314H0A6.314 6.314 0 0 1 6.314 0z" data-name="Rectangle 4999"/></g></g><g transform="translate(61.5 2.42)" data-name="Group 19415"><path class="cls-1" transform="translate(-2271.7 -1381.3)" d="M2273.3 1382.057a.793.793 0 1 1-.793-.793.793.793 0 0 1 .793.793z" data-name="Path 16657"/></g><g transform="translate(58.28 2.42)" data-name="Group 19416"><path class="cls-1" transform="translate(-2259.6 -1381.3)" d="M2261.224 1382.057a.793.793 0 1 1-.794-.793.794.794 0 0 1 .794.793z" data-name="Path 16658"/></g><g transform="translate(64.585 2.42)" data-name="Group 19417"><path class="cls-23" transform="translate(-2283.3 -1381.3)" d="M2284.871 1382.057a.793.793 0 1 1-.793-.793.793.793 0 0 1 .793.793z" data-name="Path 16659"/></g></g><g data-name="Group 19419"><path class="cls-24" transform="translate(-2040.1 -1371.2)" d="m2107.2 1415.7h-64.8a2.274 2.274 0 0 1-2.272-2.272v-39.875a2.275 2.275 0 0 1 2.272-2.272h64.8a2.275 2.275 0 0 1 2.272 2.272v39.879a2.275 2.275 0 0 1-2.272 2.268zm-64.8-43.92a1.775 1.775 0 0 0-1.773 1.773v39.879a1.775 1.775 0 0 0 1.773 1.773h64.8a1.775 1.775 0 0 0 1.773-1.773v-39.875a1.775 1.775 0 0 0-1.773-1.773z" data-name="Path 16660"/></g><g transform="translate(7.502 9.745)" data-name="Group 19423"><g data-name="Group 19422"><g transform="translate(0 26.066)" data-name="Group 19420"><path class="cls-25" d="M0 0h1.501v1.501H0z" data-name="Rectangle 5000"/><path class="cls-25" transform="translate(0 3.222)" d="M0 0h1.501v1.501H0z" data-name="Rectangle 5001"/><path class="cls-26" transform="translate(15.257)" d="M0 0h10.014v1.501H0z" data-name="Rectangle 5002"/><path class="cls-26" transform="translate(18.756 2.877)" d="M0 0h16.936v1.501H0z" data-name="Rectangle 5003"/><path class="cls-27" transform="translate(42.287 2.877)" d="M0 0h1.387v1.501H0z" data-name="Rectangle 5004"/><path class="cls-28" transform="translate(36.346 2.877)" d="M0 0h5.234v1.501H0z" data-name="Rectangle 5005"/><path class="cls-29" transform="translate(30.097)" d="M0 0h3.245v1.501H0z" data-name="Rectangle 5006"/></g><g data-name="Group 19421"><path class="cls-25" d="M0 0h1.501v1.501H0z" data-name="Rectangle 5007"/><path class="cls-25" transform="translate(0 3.222)" d="M0 0h1.501v1.501H0z" data-name="Rectangle 5008"/><path class="cls-25" transform="translate(0 6.444)" d="M0 0h1.501v1.501H0z" data-name="Rectangle 5009"/><path class="cls-25" transform="translate(0 9.666)" d="M0 0h1.501v1.501H0z" data-name="Rectangle 5010"/><path class="cls-25" transform="translate(0 12.888)" d="M0 0h1.501v1.501H0z" data-name="Rectangle 5011"/><path class="cls-25" transform="translate(0 16.11)" d="M0 0h1.501v1.501H0z" data-name="Rectangle 5012"/><path class="cls-25" transform="translate(0 19.332)" d="M0 0h1.501v1.501H0z" data-name="Rectangle 5013"/><path class="cls-23" transform="translate(10.747)" d="M0 0h3.523v1.501H0z" data-name="Rectangle 5014"/><path class="cls-23" transform="translate(12.059 3.222)" d="M0 0h3.523v1.501H0z" data-name="Rectangle 5015"/><path class="cls-23" transform="translate(14.504 6.444)" d="M0 0h3.523v1.501H0z" data-name="Rectangle 5016"/><path class="cls-23" transform="translate(16.433 9.666)" d="M0 0h1.37v1.501H0z" data-name="Rectangle 5017"/><path class="cls-23" transform="translate(41.416 3.222)" d="M0 0h7.028v1.501H0z" data-name="Rectangle 5018"/><path class="cls-29" transform="translate(16.309 3.222)" d="M0 0h3.523v1.501H0z" data-name="Rectangle 5019"/><path class="cls-26" transform="translate(22.115 3.222)" d="M0 0h18.037v1.501H0z" data-name="Rectangle 5020"/><path class="cls-28" transform="translate(14.829)" d="M0 0h2.013v1.501H0z" data-name="Rectangle 5021"/><path class="cls-27" transform="translate(30.957)" d="M0 0h4.016v1.501H0z" data-name="Rectangle 5022"/><path class="cls-26" transform="translate(17.345)" d="M0 0h12.44v1.501H0z" data-name="Rectangle 5023"/><path class="cls-29" transform="translate(18.502 9.666)" d="M0 0h4.251v1.501H0z" data-name="Rectangle 5024"/><path class="cls-27" transform="translate(30.079 9.666)" d="M0 0h3.132v1.501H0z" data-name="Rectangle 5025"/><path class="cls-27" transform="translate(23.565 12.888)" d="M0 0h11.77v1.501H0z" data-name="Rectangle 5026"/><path class="cls-29" transform="translate(23.256 9.666)" d="M0 0h6.236v1.501H0z" data-name="Rectangle 5027"/><path class="cls-23" transform="translate(10.747 12.888)" d="M0 0h2.348v1.501H0z" data-name="Rectangle 5028"/><path class="cls-27" transform="translate(19.022 12.888)" d="M0 0h3.72v1.501H0z" data-name="Rectangle 5029"/><path class="cls-29" transform="translate(13.794 12.888)" d="M0 0h4.473v1.501H0z" data-name="Rectangle 5030"/><path class="cls-26" transform="translate(14.465 16.456)" d="M0 0h4.697v1.501H0z" data-name="Rectangle 5031"/><path class="cls-23" transform="translate(17.308 19.332)" d="M0 0h6.824v1.501H0z" data-name="Rectangle 5032"/><path class="cls-27" transform="translate(30.059 19.332)" d="M0 0h7.077v1.501H0z" data-name="Rectangle 5033"/><path class="cls-29" transform="translate(24.831 19.332)" d="M0 0h4.473v1.501H0z" data-name="Rectangle 5034"/><path class="cls-29" transform="translate(20.168 16.456)" d="M0 0h2.348v1.501H0z" data-name="Rectangle 5035"/></g></g></g></g><g transform="translate(10.113)" data-name="Group 19470"><path class="cls-30" transform="translate(-1939.1 -1166.6)" d="m1992.4 1214.7h-29.262s5.058 13.849 18.721 13.849c11.102 0 10.541-13.849 10.541-13.849z" data-name="Path 16661"/><path class="cls-23" transform="rotate(180 15.271 24.959)" d="M0 0h3.6a9.468 9.468 0 0 1 9.468 9.468h-3.6A9.468 9.468 0 0 1 0 0z" data-name="Rectangle 5036"/><path class="cls-9" transform="translate(-1988.2 -1166.6)" d="m2033.9 1214.7h-3.793l1.911 13.806z" data-name="Path 16662"/><g transform="translate(24.698 68.431)" data-name="Group 19425"><path class="cls-31" transform="translate(-1965.7 -1291)" d="m1965.7 1291v26.226h47.089a11.681 11.681 0 0 0 10.457-6.479q0.112-0.216 0.209-0.448a11.61 11.61 0 0 0 1.006-4.745v-14.555z" data-name="Path 16663"/></g><path class="cls-30" transform="translate(-2086 -1126.3)" d="m2193.2 1180.1c-0.378-0.607-15.448-23.182-27.183-19.966-11.357 3.112 17.86 30.723 17.86 30.723z" data-name="Path 16664"/><path class="cls-7" transform="translate(-2107.6 -1126.3)" d="m2212.8 1170.6-15.66-10.858-4.274 16.838 5.666 7.731z" data-name="Path 16665"/><path class="cls-7" transform="translate(-1971.4 -1093.4)" d="m2007.1 1174.9h54.19l0.057-6.4-0.46-41.692-19.19-11.95h-7.912l-14.724 15.839-11.089 37.8z" data-name="Path 16666"/><path class="cls-30" transform="translate(-2059.4 -1168)" d="m2127.1 1224.6 30.416 11.526a9.787 9.787 0 0 0 10.575-9.841 9.787 9.787 0 0 0-9.873-9.7l-30.186 0.818z" data-name="Path 16667"/><path class="cls-30" transform="translate(-2044.3 -1093.4)" d="m2114.7 1114.9h-8.063s-0.391 2.742 2.832 2.769c2.244 0.017 5.231-2.769 5.231-2.769z" data-name="Path 16668"/><g transform="translate(66.387 60.433)" data-name="Group 19426"><path class="cls-17" transform="rotate(-45 .354 .146)" d="M0 0h.415v7.162H0z" data-name="Rectangle 5037"/></g><g transform="translate(66.236 63.971)" data-name="Group 19427"><path class="cls-17" transform="rotate(-45 .354 .146)" d="M0 0h.415v7.162H0z" data-name="Rectangle 5038"/></g><path class="cls-5" transform="translate(-2034.2 -1272.8)" d="m2095.1 1367.4h6.236l-8.55-7.957z" data-name="Path 16669"/><g transform="translate(0 68.431)" data-name="Group 19441"><g data-name="Group 19433"><g transform="translate(0 44.376)" data-name="Group 19428"><path class="cls-29" transform="translate(-1873.1 -1457.4)" d="M1873.068 1478.866h30.673l.931-9.4v-.005l1.195-12.035-16.312-.005-.523 5.243a5.99 5.99 0 0 1-1.33 3.531 3.631 3.631 0 0 1-.632.6 6.61 6.61 0 0 1-1.743.966c-.244.094-.493.184-.757.269-.592.189-1.24.359-1.927.528-.254.065-.513.125-.782.189-.667.164-1.374.329-2.1.527a8.236 8.236 0 0 0-2.086.866c-.005 0-.005.005-.01.005a6.829 6.829 0 0 0-.7.453 9.728 9.728 0 0 0-3.466 5.478c-.06.219-.1.423-.144.627a15.192 15.192 0 0 0-.287 2.163z" data-name="Path 16670"/></g><g transform="translate(15.965 38.062)" data-name="Group 19429"><path class="cls-23" transform="translate(-1933 -1433.7)" d="m1933 1445.3h16.317l1.144-11.553h-16.317z" data-name="Path 16671"/></g><g transform="translate(.281 63.028)" data-name="Group 19430"><path class="cls-32" transform="translate(-1874.1 -1527.4)" d="M1874.121 1528.011h30.61l.062-.627h-30.525c-.057.216-.105.426-.147.627z" data-name="Path 16672"/></g><g transform="translate(5.971)" data-name="Group 19431"><path class="cls-31" transform="translate(-1895.5 -1291)" d="M1895.464 1332.858h10.761l11.084.005h5.228l.384-3.834.846-8.52.329-3.311 1.235-12.478c.04-.418.06-.837.06-1.25a12.543 12.543 0 0 0-10.048-12.254 5.062 5.062 0 0 0-.5-.084c-.214-.04-.434-.065-.652-.09a12.741 12.741 0 0 0-1.315-.07 12.5 12.5 0 0 0-12.354 10.521l-.478 2.948-.074.493-1.39 8.6-.114.7z" data-name="Path 16673"/></g><g transform="translate(16.73 41.895)" data-name="Group 19432"><path class="cls-5" transform="translate(-1935.8 -1448.1)" d="m1935.8 1448.1 16.007 3.129 0.309-3.128z" data-name="Path 16674"/></g></g><g transform="translate(8.555 52.245)" data-name="Group 19440"><g transform="translate(5.005)" data-name="Group 19435"><g data-name="Group 19434"><path class="cls-32" transform="translate(-1923.9 -1486.9)" d="m1924.936 1489.656.729-.337-1.005-2.384-.73.337z" data-name="Path 16675"/></g></g><g transform="translate(2.533 1.334)" data-name="Group 19437"><g data-name="Group 19436"><path class="cls-32" transform="translate(-1914.7 -1491.9)" d="m1915.465 1494.727.729-.337-.806-2.452-.73.337z" data-name="Path 16676"/></g></g><g transform="translate(0 2.504)" data-name="Group 19439"><g data-name="Group 19438"><path class="cls-32" transform="translate(-1905.2 -1496.3)" d="m1906.043 1499.153.729-.337-.887-2.491-.73.336z" data-name="Path 16677"/></g></g></g></g><g transform="translate(4.292 68.43)" data-name="Group 19460"><g transform="translate(24.644)" data-name="Group 19448"><g transform="translate(6.453 44.377)" data-name="Group 19442"><path class="cls-29" transform="translate(-2005.8 -1457.4)" d="M2005.816 1476.073c-.005.219-.005.423 0 .627a15.435 15.435 0 0 0 .229 2.166h30.673l-1.32-9.695-1.6-11.746-16.312-.005.712 5.243a5.079 5.079 0 0 1-.5 3.531 2.6 2.6 0 0 1-.493.6 4.942 4.942 0 0 1-1.514.966c-.224.094-.453.184-.7.269-.548.189-1.15.359-1.8.528-.239.065-.488.125-.742.189-.627.164-1.295.329-1.977.527a6.353 6.353 0 0 0-1.887.872 4.975 4.975 0 0 0-.598.453 7.437 7.437 0 0 0-2.171 5.475z" data-name="Path 16678"/></g><g transform="translate(17.259 38.063)" data-name="Group 19443"><path class="cls-23" transform="translate(-2046.3 -1433.7)" d="m2047.9 1445.3h16.317l-1.575-11.553h-16.317z" data-name="Path 16679"/></g><g transform="translate(6.452 63.029)" data-name="Group 19444"><path class="cls-32" transform="translate(-2005.8 -1527.4)" d="M2005.813 1528.011h30.61l-.086-.627h-30.526c-.005.216-.004.426.002.627z" data-name="Path 16680"/></g><g data-name="Group 19445"><path class="cls-9" transform="translate(-1981.6 -1291)" d="m1986.9 1320.5-5.333-29.543 17.072 7e-3z" data-name="Path 16681"/></g><g transform="translate(3.257 .001)" data-name="Group 19446"><path class="cls-31" transform="translate(-1993.8 -1291)" d="M1993.924 1305.975c0 .075.015.15.025.224l.04.279.976 7.145.095.717.393 2.853.453 3.316 1.683 12.354h27.083l-2.141-15.67-2-14.624c-.025-.174-.05-.349-.09-.523a4.288 4.288 0 0 0-.115-.568 13.383 13.383 0 0 0-11.348-10.4 8.682 8.682 0 0 0-.508-.06c-.4-.035-.817-.055-1.23-.055a13.418 13.418 0 0 0-13.32 15.008z" data-name="Path 16682"/></g><g transform="translate(17.782 41.896)" data-name="Group 19447"><path class="cls-5" transform="translate(-2048.3 -1448.1)" d="m2048.3 1448.1 16.744 3.129-0.428-3.128z" data-name="Path 16683"/></g></g><g transform="translate(33.279 57.099)" data-name="Group 19450"><g data-name="Group 19449"><path class="cls-32" transform="translate(-2014 -1505.1)" d="m2013.995 1505.6 7.207 5.474.8.607.417-.586-.031-.021-7.8-5.929a4.554 4.554 0 0 0-.593.455z" data-name="Path 16684"/></g></g><g transform="translate(0 56.895)" data-name="Group 19452"><g data-name="Group 19451"><path class="cls-32" transform="translate(-1889.2 -1504.4)" d="m1889.168 1504.763.951.966.264.274 4.208 4.292.8.608.622.215.289-.408-.527-.414-4.746-4.735-1.185-1.185a3.455 3.455 0 0 0-.364.2.02.02 0 0 0-.01.005 6.53 6.53 0 0 0-.302.182z" data-name="Path 16685"/></g></g><g transform="translate(37.356 52.246)" data-name="Group 19459"><g transform="translate(4.416)" data-name="Group 19454"><g data-name="Group 19453"><path class="cls-32" transform="translate(-2045.9 -1486.9)" d="m2047.421 1489.656.65-.337-1.567-2.384-.65.337z" data-name="Path 16686"/></g></g><g transform="translate(2.258 1.334)" data-name="Group 19456"><g data-name="Group 19455"><path class="cls-32" transform="translate(-2037.8 -1491.9)" d="m2039.144 1494.727.65-.337-1.384-2.452-.65.337z" data-name="Path 16687"/></g></g><g transform="translate(0 2.504)" data-name="Group 19458"><g data-name="Group 19457"><path class="cls-32" transform="translate(-2029.3 -1496.3)" d="m2030.764 1499.153.651-.337-1.474-2.491-.65.336z" data-name="Path 16688"/></g></g></g></g><g transform="translate(51.445 69.765)" data-name="Group 19461"><path class="cls-31" transform="translate(-2066 -1296)" d="m2066 1296 32.01 12.358h-24.269z" data-name="Path 16689"/></g><g transform="translate(49.983 76.524)" data-name="Group 19462"><path class="cls-33" transform="translate(-2060.6 -1321.3)" d="m2060.58 1323.518 2.769 15.938 2.724 15.67h.508l-2.724-15.67-2.784-16.023a1.373 1.373 0 0 1 1.828-1.523l6.483 2.4 23.423 8.669a5.74 5.74 0 0 0 .209-.448l-23.747-8.789-6.195-2.3a1.842 1.842 0 0 0-1.847.314 1.864 1.864 0 0 0-.647 1.762z" data-name="Path 16690"/></g><g transform="translate(32.292 68.485)" data-name="Group 19463"><path class="cls-33" transform="translate(-1994.2 -1291.2)" d="M1995.329 1306.175a13.516 13.516 0 0 0 13.5-13.5 13.652 13.652 0 0 0-.084-1.5q.254.022.508.06a14 14 0 0 1-13.922 15.441c-.359 0-.717-.015-1.071-.045l-.04-.279c-.01-.075-.02-.149-.025-.224.372.032.751.047 1.134.047z" data-name="Path 16691"/></g><g transform="translate(10.477 68.431)" data-name="Group 19464"><path class="cls-33" transform="translate(-1912.4 -1291)" d="M1912.442 1304.436a12.552 12.552 0 0 0 1.3.065 13.518 13.518 0 0 0 12.842-9.341 13.21 13.21 0 0 0 .652-4.033.978.978 0 0 0 0-.119v-.04h.5V1291.208a13.85 13.85 0 0 1-1.15 5.358 14.019 14.019 0 0 1-12.842 8.43c-.463 0-.927-.025-1.379-.07z" data-name="Path 16692"/></g><g transform="translate(48.698 49.16)" data-name="Group 19466"><path class="cls-30" transform="translate(-2081.6 -1236.8)" d="m2094.7 1243.4s-4.954 8.548-3.5 8.994 5.676-7.063 5.676-7.063z" data-name="Path 16693"/><path class="cls-30" transform="translate(-2073.3 -1218.7)" d="M2085.3 1228.073a28.859 28.859 0 0 0 4.73.959c1.352.011 4.725-4.432 4.725-4.432l-.072-5.417s-9.483-2.457-15.062 3.492z" data-name="Path 16694"/><path class="cls-30" transform="translate(-2063 -1228.5)" d="m2075.3 1232.1s-11.167 8.788-9.53 9.863 11.521-6.7 11.521-6.7z" data-name="Path 16695"/><path class="cls-30" transform="translate(-2055.7 -1223.6)" d="m2067.2 1225.3c-3.072-0.244-12.424 3.774-11.369 5.162s12.879-2.135 12.879-2.135z" data-name="Path 16696"/><g transform="translate(13.933 6.921)" data-name="Group 19465"><path class="cls-17" transform="translate(-2108 -1244.6)" d="M2114.589 1244.764a5.185 5.185 0 0 1-2.225 3.09c-1.93 1.3-4.271-.013-4.369-.07l.325-.567c.021.011 2.089 1.168 3.679.1a4.57 4.57 0 0 0 1.949-2.669l.644.116z" data-name="Path 16697"/></g></g><g transform="translate(53.684)" data-name="Group 19469"><ellipse class="cls-1" transform="rotate(-13 50.803 1.823)" cx="3.137" cy="3.293" rx="3.137" ry="3.293" data-name="Ellipse 185"/><ellipse class="cls-17" transform="rotate(-13.054 15.485 1.174)" cx="7.351" cy="7.016" rx="7.351" ry="7.016" data-name="Ellipse 186"/><path class="cls-30" transform="translate(-2093.5 -1068.7)" d="m2102.3 1091.1 7.922-0.877-2.081-8.974-7.71 1.787z" data-name="Path 16698"/><path class="cls-5" transform="translate(-2097 -1084.1)" d="m2105.2 1103.9 4.61-1.688-4.22 3.373z" data-name="Path 16699"/><path class="cls-30" transform="translate(-2080.7 -1048.5)" d="m2088.9 1069 7.262-3.069-1.871-8.07a5.618 5.618 0 0 0-6.833-4.043 5.617 5.617 0 0 0-4.357 6.637l1.474 6.359a2.936 2.936 0 0 0 4.325 2.186z" data-name="Path 16700"/><path class="cls-17" transform="rotate(166.95 6.638 6.282)" d="M0 0h3.236v7.589H0z" data-name="Rectangle 5039"/><path class="cls-17" transform="rotate(169.76 5.588 3.91)" d="M0 0a2.826 2.826 0 0 1 2.826 2.826v.832H0V0z" data-name="Rectangle 5040"/><path class="cls-34" transform="translate(-2082 -1070.7)" d="m2084.75 1084.059.676 2.916a1.167 1.167 0 0 0 .343-.026 1.56 1.56 0 0 0-.7-3.017 1.169 1.169 0 0 0-.319.127z" data-name="Path 16701"/><path class="cls-30" transform="translate(-2108.9 -1058.2)" d="m2121.5 1070.1a2.619 2.619 0 1 0 1.96-3.143 2.619 2.619 0 0 0-1.96 3.143z" data-name="Path 16702"/><path class="cls-34" transform="translate(-2097.6 -1066.3)" d="m2106.1 1079.9a1.641 1.641 0 1 0 1.228-1.969 1.641 1.641 0 0 0-1.228 1.969z" data-name="Path 16703"/><g transform="translate(3.71 11.603)" data-name="Group 19468"><path class="cls-1" transform="translate(-2093.5 -1090.2)" d="m2098.9 1094.7-3.6 0.692s1.918 2.284 3.6-0.692z" data-name="Path 16704"/><path class="cls-5" transform="translate(-2100.5 -1077.8)" d="M2104.937 1078.445a.518.518 0 1 0 .388-.622.519.519 0 0 0-.388.622z" data-name="Path 16705"/><path class="cls-5" transform="translate(-2088.4 -1080.6)" d="M2088.365 1082.287a.518.518 0 1 0 .388-.622.518.518 0 0 0-.388.622z" data-name="Path 16706"/><g transform="translate(1.991 2.541)" data-name="Group 19467"><path class="cls-5" transform="translate(-2095.8 -1087.3)" d="M2096.5 1088.333a.486.486 0 0 0 .073-.024l.917-.206-.092-.4-1.027.224v-.013l-.026-.05-.123-.521-.4.095.122.521a.446.446 0 0 0 .22.323.46.46 0 0 0 .336.051z" data-name="Path 16707"/></g></g><path class="cls-1" transform="rotate(-13 14.815 1.688)" d="M14.865 9.588S16.662.109 7.446 0 .17 9.459.17 9.459l.209-.369s-1-8.234 6.5-8.234S11.7 13.738 11.7 13.738z" data-name="Path 16708"/><ellipse class="cls-1" transform="rotate(-13 45.471 -44.977)" cx="3.137" cy="3.293" rx="3.137" ry="3.293" data-name="Ellipse 187"/></g></g><path class="cls-9" transform="translate(-1835.1 -1133)" d="m1836.6 1168.9h34.48a3.887 3.887 0 0 1 3.2 2.237l11.746 26.59c0.545 1.235 0 2.237-1.221 2.237h-34.48a3.889 3.889 0 0 1-3.2-2.237l-11.746-26.59c-0.545-1.236 1e-3 -2.237 1.221-2.237z" data-name="Path 16709"/><path transform="translate(-1880.5 -1218.5)" d="M1944.622 1286.945h-46.889a.768.768 0 0 1-.768-.768.768.768 0 0 1 .768-.768h46.889a.768.768 0 0 1 .768.768.768.768 0 0 1-.768.768z" fill="#c3bfdb" data-name="Path 16710"/></g></g></g></svg>