<svg xmlns="http://www.w3.org/2000/svg" width="80" height="80" xmlns:v="https://vecta.io/nano"><defs><clipPath id="A"><path d="M93.765 110.933v17.116a2.5 2.5 0 0 1-.5 1.5c-2.115 2.814-11.037 13.11-28.383 13.11s-26.268-10.3-28.383-13.11a2.5 2.5 0 0 1-.5-1.5v-17.116" transform="translate(-24.698 -76.106)" fill="#8680b7"/></clipPath></defs><path d="M69.067 34.827v17.116a2.5 2.5 0 0 1-.5 1.5c-2.115 2.814-11.037 13.11-28.383 13.11s-26.268-10.3-28.383-13.11a2.5 2.5 0 0 1-.5-1.5V34.827" fill="#8680b7"/><g clip-path="url(#A)"><path fill="#322e4f" d="M72.596 10.598l3.843 16.647a2.21 2.21 0 0 1-.255 1.598c-1.88 3.317-10.168 15.778-30.769 20.534S11.898 46.568 8.758 44.41a2.21 2.21 0 0 1-.93-1.325L3.985 26.438"/></g><path fill="#534d84" d="M2.512 30.138l37.673-20.092 37.672 20.092L40.185 50.23z"/><path fill="none" stroke="#322e4f" stroke-linecap="round" stroke-linejoin="round" stroke-width="2" d="M59.02 75.345V40.184L40.184 30.138"/></svg>