<svg xmlns="http://www.w3.org/2000/svg" width="40" height="40" xmlns:v="https://vecta.io/nano"><g fill="#d1ecff"><path d="M12.001 14.999h17v14h-17z"/><g stroke="#008aff" stroke-linecap="round" stroke-linejoin="round" stroke-width="2"><path d="M18.749 16.628l-4.063-7.037c-.558-.967-.558-2.158 0-3.125s1.59-1.563 2.707-1.563 2.148.596 2.706 1.563l6.25 10.825"/><path d="M13.961 20.837L8.024 10.551C7.206 9.061 7.728 7.19 9.2 6.34s3.353-.368 4.235 1.086l5.313 9.2"/><path d="M24.062 25.829a6.25 6.25 0 0 1 2.288-8.538l-1.561-2.706c-.558-.967-.558-2.158 0-3.125s1.59-1.563 2.707-1.563 2.148.596 2.706 1.563l3.125 5.413a12.5 12.5 0 0 1-10.826 18.75 12.5 12.5 0 0 1-10.825-6.25l-5.94-10.284c-.558-.967-.558-2.158 0-3.125s1.59-1.563 2.707-1.563 2.148.596 2.706 1.563l2.813 4.871"/></g></g><path d="M12.671 37.501A17.43 17.43 0 0 1 7.5 31.874m20-27.03a8.12 8.12 0 0 1 7.036 4.064" stroke="#008aff" stroke-linecap="round" stroke-linejoin="round" stroke-width="2" fill="none"/></svg>