<svg xmlns="http://www.w3.org/2000/svg" width="80" height="80" xmlns:v="https://vecta.io/nano"><defs><clipPath id="A"><rect width="60" height="45" rx="8" fill="#007c6e" x="10.002" y="22.5"/></clipPath></defs><rect width="60" height="45" rx="8" fill="#007c6e" x="10.002" y="22.5"/><path fill="none" stroke="#007c6e" stroke-linecap="round" stroke-linejoin="round" stroke-width="2" d="M52.5 22.5v-5a5 5 0 0 0-5-5h-15a5 5 0 0 0-5 5v5"/><g clip-path="url(#A)"><path fill="#00473f" d="M9.578 45.667s16.441 4.764 32.574 4.153 30.884-9.705 30.884-9.705l-.805-9.2s-.942-7.121-8.897-6.359l-47.485 4.154s-7.674 1.274-7.088 7.623l.817 9.333z"/></g><path fill="#13a899" stroke="#13a899" stroke-width="3" d="M10 38.9s15.048 6.2 30.248 7 29.8-7 29.8-7v-9.266s-.3-7.2-7.833-7.134H17.281s-7.312.6-7.281 7v9.4z"/><path fill="none" stroke="#a8f5ec" stroke-linecap="round" stroke-linejoin="round" stroke-width="2" d="M36.25 37.5h7.5"/></svg>