<svg height="512" viewBox="0 0 512 512" width="512" xmlns="http://www.w3.org/2000/svg"><g id="Flat"><path d="m305.1 210.455-17.1 65.893 62.64 17.719a51.434 51.434 0 0 0 40.718-5.592l65.565-39.612a64.74 64.74 0 0 0 28.886-39.293c8.963-34.536-10.387-70.062-43.218-79.348a59.1 59.1 0 0 0 -46.787 6.426l-65.566 39.612a56.347 56.347 0 0 0 -25.138 34.195z" fill="#5f8c46"/><path d="m309.545 206.9-65.893 17.1-17.719-62.64a51.434 51.434 0 0 1 5.592-40.718l39.612-65.565a64.74 64.74 0 0 1 39.293-28.886c34.536-8.963 70.062 10.387 79.348 43.218a59.1 59.1 0 0 1 -6.426 46.787l-39.612 65.566a56.347 56.347 0 0 1 -34.195 25.138z" fill="#5f8c46"/><g fill="#6a9c46"><path d="m451.85 211.981a27.7 27.7 0 0 1 -29.3-7.578l34.974-21.13-8.274-13.695-34.579 20.891c-3-15.427 12.262-28.158 13.013-28.774l-10.045-12.453c-10.28 8.293-25.148 28.164-17.2 49.827l-116.576 70.431 8.274 13.695 116.491-70.378c10.663 12.771 23.893 16.556 34.628 16.556a40.852 40.852 0 0 0 14.286-2.438z"/><path d="m328 120.024c21.8 0 43.714-16.78 44.907-17.709l-9.807-12.637c-6.664 5.152-24.064 15.7-37.539 14.218l24.862-41.152-13.694-8.273-24.99 41.361c-10.213-12.278-7.849-30.488-7.82-30.7l-7.919-1.132-7.916-1.16c-.188 1.288-4.026 29.435 15.077 47.189l-66.356 109.834 13.694 8.274 66.325-109.782a36.488 36.488 0 0 0 11.176 1.669z"/><path d="m448.2 248.4c36.191 18.978 50.274 63.948 31.455 100.445a74.029 74.029 0 0 1 -43.289 36.663l-86.3 27.482a63.8 63.8 0 0 1 -49.013-4.3l-38.362-17.49a46.266 46.266 0 0 0 -30.359-2.8l-.331.082a331.2 331.2 0 0 0 -115.4 62.356l-34.931 29.103a34.771 34.771 0 0 1 -22.259 8.059h-.647a34.693 34.693 0 0 1 -26.764-12.577l24-19.423s1 3.669 41-28.331c29.844-23.876 77.11-55.008 129.232-71.6a35.122 35.122 0 0 0 19.749-15.688l21.925-37.535a64.419 64.419 0 0 1 37.674-31.907l86.3-27.483a73.306 73.306 0 0 1 56.32 4.944z"/><path d="m263.6 63.8c-18.978-36.191-63.948-50.274-100.445-31.455a74.029 74.029 0 0 0 -36.663 43.289l-27.482 86.3a63.8 63.8 0 0 0 4.3 49.013l17.49 38.362a46.266 46.266 0 0 1 2.8 30.359l-.082.331a331.2 331.2 0 0 1 -62.352 115.401l-29.107 34.93a34.771 34.771 0 0 0 -8.059 22.259v.647a34.693 34.693 0 0 0 12.577 26.764l19.423-24s-3.669-1 28.331-41c23.876-29.844 55.008-77.11 71.6-129.232a35.122 35.122 0 0 1 15.688-19.749l37.535-21.925a64.419 64.419 0 0 0 31.907-37.674l27.483-86.3a73.306 73.306 0 0 0 -4.944-56.32z"/></g><path d="m193.952 129.268c23.669 0 39.574-18.431 45.2-29.69l-14.31-7.156a47.6 47.6 0 0 1 -10.113 12.557c-6.648 5.817-14 8.568-21.932 8.253 5.174-31.471 7.023-54.616 7.177-56.619l-15.954-1.227c-.036.476-1.821 22.765-6.818 53.5-16.753-9.1-17.2-28.008-17.205-28.926l-7.997.04h-8c0 12.022 6.574 35.418 30.367 45.236-2.781 15.064-6.274 31.393-10.617 47.75-4.836-2.595-9.079-6.857-12.686-12.763a62.981 62.981 0 0 1 -7.223-17.812l-15.686 3.158c2.557 12.783 12.043 34.617 31.183 43a344.365 344.365 0 0 1 -14.649 40.181l14.622 6.5a366.449 366.449 0 0 0 15.756-43.278c.313.007.617.029.933.029 37.337 0 47.188-28.267 47.589-29.47l-15.178-5.06c-.059.176-5.887 16.793-28.812 18.394 4.25-16.079 7.68-32.026 10.425-46.785 1.329.111 2.644.188 3.928.188z" fill="#79ad54"/><path d="m302.461 136a73.539 73.539 0 0 0 -52 21.539l-64.849 64.849a60.132 60.132 0 0 0 -17.612 42.52v55.092l-71.221 71.221a353.873 353.873 0 0 1 -53.936 44.217l-7.24 4.827a26.055 26.055 0 0 0 -11.603 21.679 26.055 26.055 0 0 0 26.055 26.056 26.055 26.055 0 0 0 21.679-11.6l4.827-7.24a353.873 353.873 0 0 1 44.217-53.936l71.222-71.224h55.092a60.13 60.13 0 0 0 42.52-17.612l64.849-64.849a73.539 73.539 0 0 0 21.539-52 73.54 73.54 0 0 0 -73.539-73.539z" fill="#79ad54"/><path d="m334.563 233.133c-.32.19-29.746 17.4-49.432 5.05l48.526-48.526-11.314-11.314-47.7 47.7c-8.575-19.487 6.713-45.64 6.893-45.941l-6.867-4.1-6.86-4.116a96.263 96.263 0 0 0 -9.935 25.317c-3.653 15.826-1.922 29.683 4.946 40.667l-36.177 36.177c-8.575-19.487 6.713-45.64 6.893-45.941l-6.867-4.1-6.86-4.116a96.263 96.263 0 0 0 -9.935 25.317c-3.653 15.826-1.922 29.683 4.946 40.667l-20.475 20.475 11.314 11.314 19.979-19.979c7.866 5.956 17.425 8.99 28.289 8.99a69.159 69.159 0 0 0 15.54-1.873 96.261 96.261 0 0 0 25.318-9.935l-8.22-13.727c-.32.19-29.746 17.4-49.432 5.05l36.505-36.5c7.866 5.956 17.425 8.99 28.289 8.99a69.159 69.159 0 0 0 15.54-1.873 96.261 96.261 0 0 0 25.318-9.935z" fill="#89ba66"/><path d="m392.05 325.326c20.073-6.225 40.015-11.272 56.942-13.388l-1.984-15.876c-16.858 2.107-36.25 6.852-55.776 12.744 2.7-11.931 10.055-23.872 13.647-28.646l-12.758-9.654a109.883 109.883 0 0 0 -10.395 17.536c-4.455 9.387-6.929 18.129-7.429 26.134-12.57 4.167-24.9 8.634-36.346 13 2.6-12.108 10.115-24.336 13.762-29.182l-12.759-9.654a109.883 109.883 0 0 0 -10.395 17.536c-4.786 10.086-7.288 19.43-7.507 27.912-24.854 9.966-42.66 18.143-44.405 18.948l6.706 14.528c.411-.19 17.077-7.842 40.89-17.45 3.95 7.022 12.259 13.549 25.2 19.8a170.294 170.294 0 0 0 22.064 8.706l4.643-15.312c-14.591-4.424-31.227-12.66-36.744-19.189 11.612-4.487 24.254-9.138 37.158-13.484 3.525 7.65 12.095 14.707 26.046 21.446a170.083 170.083 0 0 0 22.064 8.7l4.642-15.312c-15.083-4.569-32.363-13.219-37.266-19.843z" fill="#79ad54"/></g></svg>