<svg width="93" height="30" viewBox="0 0 93 30" fill="none" xmlns="http://www.w3.org/2000/svg">
<path fill-rule="evenodd" clip-rule="evenodd" d="M5.25412 3.42532C4.08828 3.42532 3.00774 3.80908 2.14046 4.44866V1.06597C2.14046 0.483245 1.65706 0 1.07414 0C0.491213 0 0.0078125 0.483245 0.0078125 1.06597V8.66992C0.0078125 11.5694 2.35372 13.9145 5.25412 13.9145C8.15452 13.9145 10.5004 11.5694 10.5004 8.66992C10.5004 5.77046 8.15452 3.42532 5.25412 3.42532ZM5.25412 11.811C3.51957 11.811 2.11202 10.4039 2.11202 8.66992C2.11202 6.93593 3.51957 5.52885 5.25412 5.52885C6.98868 5.52885 8.39622 6.93593 8.39622 8.66992C8.39622 10.4039 6.98868 11.811 5.25412 11.811Z" fill="#A1A6BA"/>
<path fill-rule="evenodd" clip-rule="evenodd" d="M86.0104 2.27408C82.4275 2.27408 79.5129 5.18774 79.5129 8.76941C79.5129 12.3511 82.4275 15.2647 86.0104 15.2647C89.5932 15.2647 92.5078 12.3511 92.5078 8.76941C92.5078 5.17353 89.5932 2.27408 86.0104 2.27408ZM89.3942 9.82116H87.0767V12.1379C87.0767 12.7206 86.5933 13.2039 86.0104 13.2039C85.4274 13.2039 84.944 12.7206 84.944 12.1379V9.82116H82.6266C82.0436 9.82116 81.5602 9.33793 81.5602 8.75519C81.5602 8.17246 82.0436 7.68922 82.6266 7.68922H84.944V5.3725C84.944 4.78977 85.4274 4.30653 86.0104 4.30653C86.5933 4.30653 87.0767 4.78977 87.0767 5.3725V7.68922H89.3942C89.9771 7.68922 90.4605 8.17246 90.4605 8.75519C90.4605 9.33793 89.9771 9.82116 89.3942 9.82116Z" fill="#A1A6BA"/>
<path d="M23.3674 6.53802C23.3674 4.5482 25.0735 3.39696 26.5237 3.39696H30.5757C31.1586 3.39696 31.6278 3.85177 31.6278 4.44872C31.6278 5.14515 31.0307 5.50048 30.5757 5.50048H26.5379C25.8555 5.50048 25.4858 6.05479 25.4858 6.53802C25.4858 7.03548 25.8412 7.60399 26.5379 7.60399H28.9976C30.9027 7.60399 32.1539 9.19585 32.1539 10.7451C32.1539 12.3511 30.9596 13.9288 28.9976 13.9288H24.974C24.3057 13.9288 23.9076 13.3745 23.9076 12.8628C23.9076 12.3085 24.3342 11.7968 24.9597 11.7968H28.9549C29.6516 11.7968 29.9928 11.1572 29.9928 10.7593C29.9928 10.3755 29.68 9.73594 28.9549 9.73594H26.5237C25.4289 9.72173 23.3674 8.85474 23.3674 6.53802Z" fill="#A1A6BA"/>
<path d="M58.9826 6.53802C58.9826 4.5482 60.6887 3.39696 62.1389 3.39696H66.1767C66.7596 3.39696 67.2288 3.85177 67.2288 4.44872C67.2288 5.14515 66.6317 5.50048 66.1767 5.50048H62.1389C61.4564 5.50048 61.0868 6.05479 61.0868 6.53802C61.0868 7.03548 61.4422 7.60399 62.1389 7.60399H64.5985C66.5037 7.60399 67.7549 9.19585 67.7549 10.7451C67.7549 12.3511 66.5606 13.9288 64.5985 13.9288H60.5749C59.8925 13.9288 59.5086 13.3745 59.5086 12.8628C59.5086 12.3085 59.9351 11.7968 60.5607 11.7968H64.5559C65.2525 11.7968 65.5938 11.1572 65.5938 10.7593C65.5938 10.3755 65.281 9.73594 64.5559 9.73594H62.1389C61.0299 9.72173 58.9826 8.85474 58.9826 6.53802Z" fill="#A1A6BA"/>
<path d="M71.3235 3.39696C69.8733 3.39696 68.1672 4.5482 68.1672 6.53802C68.1672 8.85474 70.2145 9.72173 71.3235 9.73594H73.7547C74.4798 9.73594 74.7926 10.3755 74.7926 10.7593C74.7926 11.1572 74.4514 11.7968 73.7547 11.7968H69.7596C69.134 11.7968 68.7075 12.3085 68.7075 12.8628C68.7075 13.3745 69.0913 13.9288 69.7738 13.9288H73.7974C75.7594 13.9288 76.9537 12.3511 76.9537 10.7451C76.9537 9.19585 75.7025 7.60399 73.7974 7.60399H71.3235C70.6268 7.60399 70.2714 7.03548 70.2714 6.53802C70.2714 6.05479 70.641 5.50048 71.3235 5.50048H75.3613C75.8163 5.50048 76.4134 5.14515 76.4134 4.44872C76.4134 3.85177 75.9442 3.39696 75.3613 3.39696H71.3235Z" fill="#A1A6BA"/>
<path d="M33.3908 4.46293C33.3908 3.8802 33.8742 3.39696 34.4571 3.39696C35.0401 3.39696 35.5235 3.8802 35.5235 4.46293V12.8486C35.5235 13.4313 35.0401 13.9146 34.4571 13.9146C33.8742 13.9146 33.3908 13.4313 33.3908 12.8486V4.46293Z" fill="#A1A6BA"/>
<path fill-rule="evenodd" clip-rule="evenodd" d="M33.6325 20.5235C34.4998 19.8839 35.5804 19.5001 36.7462 19.5001C39.6466 19.5001 41.9925 21.8453 41.9925 24.7447C41.9925 27.6442 39.6466 29.9893 36.7462 29.9893C33.8458 29.9893 31.4999 27.6442 31.4999 24.7447V17.1408C31.4999 16.5581 31.9833 16.0748 32.5662 16.0748C33.1491 16.0748 33.6325 16.5581 33.6325 17.1408V20.5235ZM33.6041 24.7447C33.6041 26.4787 35.0116 27.8858 36.7462 27.8858C38.4808 27.8858 39.8741 26.4787 39.8883 24.7447C39.8883 23.0108 38.4808 21.6037 36.7462 21.6037C35.0116 21.6037 33.6041 23.0108 33.6041 24.7447Z" fill="#A1A6BA"/>
<path d="M21.121 3.39696C20.5381 3.39696 20.0547 3.8802 20.0547 4.46293L20.0689 8.74103C20.0263 10.4324 18.6472 11.7826 16.9411 11.7826C15.2349 11.7826 13.8558 10.4324 13.8132 8.74103L13.8274 4.46293C13.8274 3.8802 13.344 3.39696 12.7611 3.39696C12.1781 3.39696 11.6947 3.8802 11.6947 4.46293V8.74103C11.7374 11.5978 14.0691 13.9146 16.9411 13.9146C19.813 13.9146 22.1447 11.6121 22.1874 8.74103V4.46293C22.1874 3.8802 21.704 3.39696 21.121 3.39696Z" fill="#A1A6BA"/>
<path d="M16.7278 20.5378C16.7278 19.955 17.2112 19.4718 17.7941 19.4718C18.377 19.4718 18.8604 19.955 18.8604 20.5378V24.8159C18.8178 27.6869 16.4861 29.9894 13.6141 29.9894C11.908 29.9894 10.3867 29.1792 9.43411 27.9143C8.48153 29.1792 6.96024 29.9894 5.25412 29.9894C2.38216 29.9894 0.0504659 27.6869 0.0078125 24.8159V20.5378C0.0078125 19.955 0.491213 19.4718 1.07414 19.4718C1.65706 19.4718 2.14046 19.955 2.14046 20.5378L2.12624 24.8159C2.16889 26.5072 3.548 27.8574 5.25412 27.8574C6.9318 27.8574 8.2967 26.5356 8.36779 24.8869V20.5378C8.36779 19.955 8.85119 19.4718 9.43411 19.4718C10.017 19.4718 10.5004 19.955 10.5004 20.5378V24.8869C10.5715 26.5356 11.9364 27.8574 13.6141 27.8574C15.3202 27.8574 16.6993 26.5072 16.742 24.8159L16.7278 20.5378Z" fill="#A1A6BA"/>
<path d="M37.841 13.9146C38.4239 13.9146 38.9073 13.4313 38.9073 12.8486L38.8931 8.57048C38.9357 6.87914 40.3148 5.5289 42.021 5.5289C43.7271 5.5289 45.1062 6.87914 45.1488 8.57048L45.1346 12.8486C45.1346 13.4313 45.618 13.9146 46.2009 13.9146C46.7839 13.9146 47.2673 13.4313 47.2673 12.8486V8.57048C47.2246 5.71367 44.8929 3.39696 42.021 3.39696C39.149 3.39696 36.8173 5.69946 36.7746 8.57048V12.8486C36.7746 13.4313 37.2438 13.9146 37.841 13.9146Z" fill="#A1A6BA"/>
<path d="M35.5235 1.16549C35.5235 1.75421 35.046 2.23147 34.4571 2.23147C33.8682 2.23147 33.3908 1.75421 33.3908 1.16549C33.3908 0.576769 33.8682 0.0995186 34.4571 0.0995186C35.046 0.0995186 35.5235 0.576769 35.5235 1.16549Z" fill="#A1A6BA"/>
<path fill-rule="evenodd" clip-rule="evenodd" d="M58.0869 9.73589C57.6035 9.40899 56.9352 9.5369 56.6082 10.0201C56.6076 10.0208 56.6045 10.0249 56.5991 10.032C56.4831 10.1865 55.2843 11.7826 53.722 11.7826C53.2529 11.7826 52.7979 11.6689 52.3856 11.4841L57.4186 6.4669C57.8309 6.05472 57.8309 5.3725 57.4186 4.96033L57.4027 4.94441C57.0909 4.63191 55.8727 3.41111 53.7078 3.41111C50.8074 3.41111 48.4615 5.75626 48.4615 8.65571C48.4615 11.5551 50.8074 13.9003 53.7078 13.9003C56.5761 13.9003 58.2208 11.4261 58.3669 11.2064L58.3712 11.1998C58.7124 10.7308 58.5845 10.0628 58.0869 9.73589ZM50.5942 8.66992C50.5942 6.95015 51.9875 5.54306 53.722 5.54306C54.1912 5.54306 54.6462 5.64255 55.0443 5.84153L50.8927 9.97751C50.7079 9.57955 50.5942 9.13894 50.5942 8.66992Z" fill="#A1A6BA"/>
<path fill-rule="evenodd" clip-rule="evenodd" d="M28.3293 26.095C28.6563 25.6117 29.3246 25.4838 29.808 25.8107C30.3056 26.1376 30.4336 26.8056 30.0923 27.2747L30.088 27.2812C29.9418 27.501 28.2972 29.9751 25.4289 29.9751C22.5285 29.9751 20.1826 27.63 20.1826 24.7305C20.1826 21.8311 22.5285 19.4859 25.4289 19.4859C27.5939 19.4859 28.812 20.7067 29.1239 21.0192L29.1397 21.0352C29.5521 21.4473 29.5521 22.1295 29.1397 22.5417L24.1067 27.5589C24.519 27.7437 24.974 27.8574 25.4432 27.8574C27.0055 27.8574 28.2043 26.2612 28.3203 26.1068L28.3265 26.0986C28.3281 26.0965 28.329 26.0953 28.3293 26.095ZM25.4432 21.6179C23.7086 21.6179 22.3153 23.025 22.3153 24.7447C22.3153 25.2138 22.429 25.6544 22.6139 26.0523L26.7654 21.9164C26.3673 21.7174 25.9123 21.6179 25.4432 21.6179Z" fill="#A1A6BA"/>
<path d="M49.9686 22.9398C49.8264 23.1388 49.6274 23.3093 49.3857 23.4373C49.144 23.5652 48.8596 23.622 48.5326 23.622C48.2483 23.622 47.9781 23.5794 47.7364 23.4799C47.4947 23.3804 47.2815 23.2525 47.1108 23.0677C46.9402 22.8972 46.7981 22.684 46.6985 22.4423C46.599 22.2007 46.5564 21.9307 46.5564 21.6464C46.5564 21.348 46.6132 21.0779 46.7128 20.8363C46.8123 20.5947 46.9545 20.3815 47.1393 20.2109C47.3241 20.0403 47.5374 19.8982 47.7791 19.8129C48.0208 19.7135 48.2909 19.6708 48.5753 19.6708C48.7032 19.6708 48.8312 19.685 48.9591 19.7135C49.0871 19.7419 49.2151 19.7703 49.343 19.8272C49.4568 19.8698 49.5705 19.9409 49.67 20.0119C49.7695 20.083 49.8549 20.1683 49.9259 20.2678L49.5136 20.5804C49.4283 20.4525 49.2861 20.353 49.1155 20.2678C48.9449 20.1825 48.7601 20.1398 48.5753 20.1398C48.362 20.1398 48.163 20.1825 47.9781 20.2535C47.8075 20.3388 47.6511 20.4383 47.5232 20.5804C47.3952 20.7226 47.3099 20.8789 47.2388 21.0637C47.1677 21.2485 47.1393 21.4474 47.1393 21.6464C47.1393 21.8596 47.1677 22.0586 47.2388 22.2434C47.3099 22.4281 47.3952 22.5845 47.5232 22.7266C47.6511 22.8687 47.7933 22.9682 47.9639 23.0535C48.1345 23.1388 48.3336 23.1672 48.5468 23.1672C48.7601 23.1672 48.9591 23.1246 49.1298 23.0393C49.3004 22.954 49.4425 22.8261 49.5563 22.6697L49.9686 22.9398Z" fill="#A1A6BA"/>
<path fill-rule="evenodd" clip-rule="evenodd" d="M52.869 22.7976C52.9401 22.627 52.9685 22.4565 52.9685 22.2575C52.9685 22.0585 52.9259 21.8737 52.869 21.7174C52.7979 21.5611 52.7126 21.4189 52.5846 21.3052C52.4567 21.1915 52.3145 21.1062 52.1439 21.0352C51.9733 20.9641 51.7884 20.9357 51.6036 20.9357C51.4046 20.9357 51.234 20.9641 51.0634 21.0352C50.907 21.092 50.7506 21.1915 50.6368 21.3052C50.5231 21.4189 50.4236 21.5611 50.3525 21.7174C50.2814 21.8879 50.2529 22.0585 50.2529 22.2575C50.2529 22.4565 50.2814 22.6412 50.3525 22.7976C50.4236 22.9681 50.5231 23.1103 50.6368 23.224C50.7506 23.3377 50.8927 23.423 51.0634 23.494C51.234 23.5651 51.4188 23.5935 51.6036 23.5935C51.8027 23.5935 51.9733 23.5651 52.1439 23.494C52.3145 23.4372 52.4567 23.3377 52.5846 23.224C52.6984 23.0961 52.7979 22.9539 52.869 22.7976ZM52.3856 21.9164C52.4282 22.0159 52.4425 22.1438 52.4425 22.2575C52.4425 22.3712 52.4282 22.4849 52.3856 22.5986C52.3572 22.7123 52.3003 22.8118 52.2292 22.8971C52.1581 22.9824 52.0586 23.0534 51.9591 23.0961C51.8595 23.1387 51.7458 23.1671 51.6036 23.1671C51.4757 23.1671 51.3477 23.1387 51.2482 23.0961C51.1344 23.0534 51.0491 22.9824 50.978 22.8971C50.907 22.8118 50.8643 22.7123 50.8217 22.5986C50.779 22.4991 50.7648 22.3712 50.7648 22.2575C50.7648 22.1438 50.779 22.0301 50.8217 21.9164C50.8501 21.8169 50.907 21.7174 50.978 21.6321C51.0491 21.5469 51.1487 21.4758 51.2482 21.4331C51.3477 21.3905 51.4614 21.3621 51.6036 21.3621C51.7316 21.3621 51.8595 21.3905 51.9591 21.4331C52.0728 21.4758 52.1581 21.5469 52.2292 21.6321C52.3003 21.7174 52.3429 21.8027 52.3856 21.9164Z" fill="#A1A6BA"/>
<path d="M54.4471 21.0637C54.5893 20.9642 54.7599 20.9215 54.9448 20.9215C55.1154 20.9215 55.2718 20.9642 55.3997 21.0352C55.5277 21.1063 55.6414 21.2484 55.7267 21.419C55.812 21.2626 55.9258 21.1347 56.0822 21.0494C56.2386 20.9642 56.395 20.9215 56.5798 20.9215C56.7362 20.9215 56.8784 20.9499 57.0063 21.0068C57.1201 21.0637 57.2196 21.1347 57.3049 21.2342C57.376 21.3337 57.4471 21.4332 57.4755 21.5611C57.5181 21.689 57.5324 21.817 57.5324 21.9591V23.5225H57.0348V22.1296C57.0348 22.0301 57.0205 21.9306 57.0063 21.8312C56.9921 21.7459 56.9637 21.6606 56.921 21.5895C56.8784 21.5185 56.8215 21.4616 56.7504 21.419C56.6793 21.3763 56.594 21.3621 56.4803 21.3621C56.3665 21.3621 56.267 21.3906 56.1817 21.4332C56.0964 21.4758 56.0395 21.5469 55.9826 21.618C55.9258 21.689 55.8973 21.7743 55.8689 21.8738C55.8405 21.9733 55.8405 22.0728 55.8405 22.1723V23.5367H55.3429V22.0301C55.3429 21.9306 55.3286 21.8454 55.3144 21.7601C55.3002 21.6748 55.2718 21.6038 55.2291 21.5469C55.1865 21.49 55.1296 21.4474 55.0585 21.4048C54.9874 21.3763 54.9021 21.3479 54.8026 21.3479C54.6178 21.3479 54.4614 21.419 54.3476 21.5753C54.2197 21.7317 54.1628 21.9306 54.1628 22.1723V23.5083H53.6652V21.2769C53.6652 21.2252 53.6613 21.1735 53.6576 21.1239C53.657 21.1146 53.6563 21.1053 53.6556 21.0962C53.6542 21.0764 53.6529 21.057 53.6521 21.0382C53.6514 21.0226 53.6509 21.0074 53.6509 20.9926H54.1201C54.1201 20.9998 54.1204 21.0074 54.1208 21.0154C54.1212 21.0237 54.1218 21.0325 54.1225 21.0415C54.1236 21.0562 54.1251 21.0718 54.1266 21.0877C54.1304 21.1268 54.1344 21.1683 54.1344 21.2058V21.4048H54.1486C54.2054 21.2769 54.3192 21.1631 54.4471 21.0637Z" fill="#A1A6BA"/>
<path fill-rule="evenodd" clip-rule="evenodd" d="M58.3855 24.8017H58.8689V23.1672H58.8831C58.9826 23.3093 59.1106 23.423 59.267 23.4941C59.4234 23.5652 59.594 23.6078 59.7788 23.6078C59.9778 23.6078 60.1485 23.5794 60.3048 23.5083C60.4612 23.4373 60.5892 23.3378 60.7029 23.2241C60.8167 23.0961 60.902 22.954 60.9589 22.7977C61.0157 22.6271 61.0442 22.4566 61.0442 22.2718C61.0442 22.1012 61.0157 21.9165 60.9589 21.7601C60.902 21.5896 60.8167 21.4474 60.7029 21.3337C60.5892 21.2058 60.4612 21.1205 60.3048 21.0495C60.1485 20.9784 59.9778 20.95 59.793 20.95C59.5797 20.95 59.3949 20.9926 59.2385 21.0779C59.0821 21.1632 58.9684 21.2769 58.8831 21.4048H58.8689V21.0068H58.3855V24.8017ZM60.4755 21.9165C60.5181 22.0302 60.5323 22.1439 60.5323 22.2576C60.5323 22.3713 60.5181 22.485 60.4755 22.5845C60.447 22.6982 60.3901 22.7977 60.3191 22.8829C60.248 22.9682 60.1484 23.0251 60.0489 23.0819C59.9352 23.1246 59.8214 23.153 59.6793 23.153C59.5513 23.153 59.4234 23.1246 59.3238 23.0819C59.2243 23.0393 59.1248 22.9682 59.0537 22.8829C58.9826 22.8119 58.9257 22.7124 58.8831 22.5987C58.8404 22.4992 58.8262 22.3713 58.8262 22.2576C58.8262 22.1439 58.8404 22.0302 58.8831 21.9165C58.9257 21.8028 58.9826 21.7033 59.0537 21.618C59.1248 21.5327 59.2243 21.4616 59.3238 21.419C59.4376 21.3764 59.5513 21.348 59.6793 21.348C59.8214 21.348 59.9494 21.3764 60.0489 21.419C60.1627 21.4616 60.248 21.5327 60.3191 21.618C60.3901 21.7033 60.4328 21.8028 60.4755 21.9165Z" fill="#A1A6BA"/>
<path d="M61.7382 21.1946C61.7368 21.1707 61.735 21.1471 61.7333 21.1239C61.7299 21.0779 61.7266 21.0336 61.7266 20.9926H62.1958C62.1958 21.0182 62.1987 21.0494 62.2018 21.0839C62.2038 21.1056 62.2059 21.1286 62.2075 21.1522L62.208 21.16L62.2085 21.1686C62.2094 21.1856 62.21 21.2028 62.21 21.22V21.419H62.2242C62.2953 21.2769 62.3948 21.1489 62.537 21.0637C62.6792 20.9784 62.8214 20.9215 62.992 20.9215C63.0631 20.9215 63.1342 20.9357 63.191 20.9499L63.1626 21.419C63.0915 21.4048 63.0204 21.3906 62.9351 21.3906C62.8214 21.3906 62.7076 21.419 62.6223 21.4616C62.537 21.5043 62.4659 21.5611 62.3948 21.6464C62.338 21.7175 62.2953 21.8027 62.2669 21.9022C62.2384 22.0017 62.2242 22.1012 62.2242 22.2149V23.5367H61.7266V21.5611C61.755 21.4758 61.755 21.3906 61.7408 21.2769C61.7408 21.2619 61.7405 21.247 61.74 21.2321C61.7395 21.2196 61.7389 21.207 61.7382 21.1946Z" fill="#A1A6BA"/>
<path fill-rule="evenodd" clip-rule="evenodd" d="M66.0346 22.7976C66.1056 22.627 66.1341 22.4565 66.1341 22.2575C66.1341 22.0585 66.1056 21.8737 66.0346 21.7174C65.9635 21.5611 65.8782 21.4189 65.7502 21.3052C65.6365 21.1915 65.4943 21.1062 65.3237 21.0352C65.1531 20.9641 64.9682 20.9357 64.7834 20.9357C64.5844 20.9357 64.4137 20.9641 64.2431 21.0352C64.0867 21.092 63.9303 21.1915 63.8166 21.3052C63.7029 21.4189 63.6033 21.5611 63.5322 21.7174C63.4612 21.8879 63.4327 22.0585 63.4327 22.2575C63.4327 22.4565 63.4612 22.6412 63.5322 22.7976C63.6033 22.9681 63.7029 23.1103 63.8166 23.224C63.9303 23.3377 64.0725 23.423 64.2431 23.494C64.4137 23.5651 64.5986 23.5935 64.7834 23.5935C64.9825 23.5935 65.1531 23.5651 65.3237 23.494C65.4801 23.4372 65.6222 23.3377 65.7502 23.224C65.8639 23.0961 65.9635 22.9539 66.0346 22.7976ZM65.5512 21.9164C65.5938 22.0159 65.608 22.1438 65.608 22.2575C65.608 22.3712 65.5938 22.4849 65.5512 22.5986C65.5227 22.7123 65.4658 22.8118 65.3948 22.8971C65.3237 22.9824 65.2241 23.0534 65.1246 23.0961C65.0251 23.1387 64.9114 23.1671 64.7692 23.1671C64.6412 23.1671 64.5133 23.1387 64.4137 23.0961C64.3 23.0534 64.2147 22.9824 64.1436 22.8971C64.0817 22.8228 64.0413 22.7269 64.0038 22.6377L63.9958 22.6187C63.9929 22.612 63.9901 22.6052 63.9872 22.5986C63.9446 22.4991 63.9303 22.3712 63.9303 22.2575C63.9303 22.1438 63.9446 22.0301 63.9872 21.9164C64.0156 21.8169 64.0725 21.7174 64.1436 21.6321C64.2147 21.5469 64.3142 21.4758 64.4137 21.4331C64.5133 21.3905 64.627 21.3621 64.7692 21.3621C64.8971 21.3621 65.0251 21.3905 65.1246 21.4331C65.2384 21.4758 65.3237 21.5469 65.3948 21.6321C65.4658 21.7174 65.5085 21.8027 65.5512 21.9164Z" fill="#A1A6BA"/>
<path d="M67.6269 21.0637C67.7691 20.9642 67.9397 20.9215 68.1245 20.9215C68.2951 20.9215 68.4515 20.9642 68.5795 21.0352C68.7217 21.1063 68.8212 21.2484 68.9065 21.419C68.9918 21.2626 69.1055 21.1347 69.2619 21.0494C69.4183 20.9642 69.5747 20.9215 69.7596 20.9215C69.9159 20.9215 70.0581 20.9499 70.1861 21.0068C70.2998 21.0637 70.3993 21.1347 70.4847 21.2342C70.5557 21.3337 70.6268 21.4332 70.6553 21.5611C70.6979 21.689 70.7121 21.817 70.7121 21.9591V23.5225H70.2145V22.1296C70.2145 22.0301 70.2003 21.9306 70.1861 21.8312C70.1719 21.7459 70.1434 21.6606 70.1008 21.5895C70.0581 21.5185 70.0013 21.4616 69.9302 21.419C69.8591 21.3763 69.7738 21.3621 69.66 21.3621C69.5463 21.3621 69.4468 21.3906 69.3615 21.4332C69.2761 21.4758 69.2193 21.5469 69.1624 21.618C69.1055 21.689 69.0771 21.7743 69.0487 21.8738C69.0202 21.9733 69.0202 22.0728 69.0202 22.1723V23.5367H68.5226V22.0301C68.5226 21.9306 68.5084 21.8454 68.4942 21.7601C68.48 21.6748 68.4515 21.6038 68.4089 21.5469C68.3662 21.49 68.3094 21.4474 68.2383 21.4048C68.1672 21.3763 68.0819 21.3479 67.9823 21.3479C67.7975 21.3479 67.6411 21.419 67.5274 21.5753C67.3994 21.7317 67.3426 21.9306 67.3426 22.1723V23.5083H66.8307V21.2769C66.8307 21.2252 66.8269 21.1735 66.8232 21.1239C66.8198 21.0779 66.8165 21.0336 66.8165 20.9926H67.2857C67.2857 21.0194 67.2889 21.0526 67.2922 21.0877L67.2922 21.0878C67.296 21.1269 67.2999 21.1683 67.2999 21.2058V21.4048H67.3141C67.3852 21.2769 67.4847 21.1631 67.6269 21.0637Z" fill="#A1A6BA"/>
<path fill-rule="evenodd" clip-rule="evenodd" d="M73.9111 22.2433C73.9111 22.0301 73.8827 21.8595 73.84 21.689C73.7831 21.5326 73.6978 21.3905 73.5983 21.2768C73.4988 21.1631 73.3708 21.0778 73.2144 21.021C73.0723 20.9641 72.9016 20.9357 72.7168 20.9357C72.532 20.9357 72.3614 20.9641 72.205 21.0352C72.0486 21.092 71.9064 21.1915 71.7927 21.3052C71.6789 21.4189 71.5936 21.5611 71.5225 21.7316C71.4514 21.9022 71.423 22.0727 71.423 22.2717C71.423 22.4707 71.4514 22.6555 71.5225 22.8118C71.5794 22.9681 71.6789 23.1103 71.7927 23.224C71.9206 23.3377 72.0628 23.4372 72.2192 23.494C72.3756 23.5651 72.5604 23.5935 72.7452 23.5935C72.9727 23.5935 73.1718 23.5509 73.3566 23.4656C73.5272 23.3803 73.6978 23.2524 73.8258 23.0676L73.4703 22.7834C73.3993 22.8829 73.2997 22.9824 73.1718 23.0534C73.0438 23.1245 72.9016 23.1671 72.731 23.1671C72.6173 23.1671 72.5178 23.1529 72.4182 23.1103C72.3187 23.0818 72.2334 23.025 72.1623 22.9539C72.077 22.8829 72.0201 22.8118 71.9775 22.7123C71.9348 22.6128 71.9064 22.5133 71.9064 22.4138H73.9111V22.2433ZM73.3424 21.7458C73.385 21.8311 73.3993 21.9306 73.3993 22.0301H71.9064C71.9064 21.9306 71.9348 21.8311 71.9775 21.7458C72.0201 21.6605 72.077 21.5895 72.1481 21.5184C72.2192 21.4474 72.2903 21.4047 72.3898 21.3621C72.4751 21.3194 72.5888 21.3052 72.6884 21.3052C72.8163 21.3052 72.9159 21.3194 73.0012 21.3621C73.0865 21.4047 73.1576 21.4616 73.2144 21.5184C73.2713 21.5895 73.2997 21.6605 73.3424 21.7458Z" fill="#A1A6BA"/>
<path d="M75.8305 21.4047H75.1623V22.7123C75.1623 22.8686 75.1907 22.9681 75.2476 23.0392C75.3045 23.1102 75.3898 23.1387 75.5177 23.1387C75.5604 23.1387 75.6173 23.1387 75.6599 23.1245C75.7168 23.1102 75.7594 23.096 75.8021 23.0818L75.8163 23.494C75.7594 23.5224 75.6883 23.5366 75.6173 23.5508C75.5462 23.5651 75.4751 23.5651 75.3898 23.5651C75.1481 23.5651 74.9632 23.494 74.8495 23.3661C74.7215 23.2382 74.6647 23.0392 74.6647 22.7691V21.4047H74.1813V20.9925H74.6647V20.2676H75.1623V20.9925H75.8305V21.4047Z" fill="#A1A6BA"/>
<path d="M76.8399 20.3104C76.911 20.2535 76.9395 20.1825 76.9395 20.083C76.9395 19.9977 76.8968 19.9266 76.8399 19.8414C76.7688 19.7703 76.6835 19.7419 76.5982 19.7419C76.5129 19.7419 76.4276 19.7845 76.3707 19.8414C76.2997 19.8982 76.2712 19.9835 76.2712 20.0688C76.2712 20.1541 76.3139 20.2251 76.3707 20.2962C76.4276 20.3673 76.5129 20.3957 76.5982 20.3957C76.6978 20.3957 76.7688 20.3673 76.8399 20.3104Z" fill="#A1A6BA"/>
<path d="M76.3565 23.5225H76.8541V21.0068H76.3565V23.5225Z" fill="#A1A6BA"/>
<path fill-rule="evenodd" clip-rule="evenodd" d="M79.7403 23.1245C79.6408 23.2809 79.5129 23.3946 79.3423 23.4799C79.1716 23.5651 79.001 23.5936 78.8304 23.5936C78.6314 23.5936 78.4608 23.5651 78.3044 23.4941C78.148 23.423 78.02 23.3235 77.9063 23.2098C77.7925 23.0961 77.7072 22.954 77.6504 22.7834C77.5935 22.6271 77.565 22.4423 77.565 22.2576C77.565 22.0728 77.5935 21.9022 77.6504 21.7459C77.7072 21.5895 77.7925 21.4474 77.9063 21.3195C78.02 21.2058 78.148 21.1063 78.3044 21.0352C78.4608 20.9642 78.6314 20.9357 78.8162 20.9357C79.0153 20.9357 79.2001 20.9784 79.3565 21.0637C79.5129 21.1489 79.6266 21.2626 79.7119 21.3763H79.7261V19.5002H80.2238V23.5225H79.7403V23.1245ZM78.0769 22.2576C78.0769 22.3712 78.0911 22.485 78.1338 22.5987C78.1622 22.7124 78.2191 22.8119 78.2901 22.8971C78.3612 22.9824 78.4465 23.0535 78.5461 23.0961C78.6456 23.153 78.7735 23.1672 78.9015 23.1672C79.0295 23.1672 79.1432 23.1387 79.257 23.0961C79.3565 23.0535 79.456 22.9824 79.5271 22.8971C79.5982 22.8119 79.655 22.7124 79.6977 22.6129C79.7403 22.4992 79.7546 22.3855 79.7546 22.2718C79.7546 22.1581 79.7403 22.0301 79.6977 21.9306C79.655 21.817 79.5982 21.7175 79.5271 21.6322C79.456 21.5469 79.3565 21.4758 79.257 21.4332C79.1574 21.3906 79.0295 21.3621 78.9015 21.3621C78.7593 21.3621 78.6456 21.3906 78.5461 21.4332C78.4465 21.4758 78.3612 21.5469 78.2901 21.6322C78.2191 21.7175 78.1622 21.817 78.1338 21.9306C78.0911 22.0301 78.0769 22.1438 78.0769 22.2576Z" fill="#A1A6BA"/>
<path fill-rule="evenodd" clip-rule="evenodd" d="M83.5649 22.7976C83.636 22.627 83.6644 22.4565 83.6644 22.2575C83.6644 22.0585 83.6218 21.8737 83.5649 21.7174C83.4938 21.5611 83.4085 21.4189 83.2805 21.3052C83.1668 21.1915 83.0246 21.1062 82.854 21.0352C82.6834 20.9641 82.4986 20.9357 82.3137 20.9357C82.1147 20.9357 81.9441 20.9641 81.7735 21.0352C81.6171 21.092 81.4607 21.1915 81.3469 21.3052C81.2332 21.4189 81.1337 21.5611 81.0626 21.7174C80.9915 21.8879 80.9631 22.0585 80.9631 22.2575C80.9631 22.4565 80.9915 22.6412 81.0626 22.7976C81.1337 22.9681 81.2332 23.1103 81.3469 23.224C81.4607 23.3377 81.6028 23.423 81.7735 23.494C81.9441 23.5651 82.1289 23.5935 82.3137 23.5935C82.5128 23.5935 82.6834 23.5651 82.854 23.494C83.0104 23.4372 83.1526 23.3377 83.2805 23.224C83.3943 23.0961 83.4938 22.9539 83.5649 22.7976ZM83.0815 21.9164C83.1241 22.0159 83.1383 22.1438 83.1383 22.2575C83.1383 22.3712 83.1241 22.4849 83.0815 22.5986C83.053 22.7123 82.9962 22.8118 82.9251 22.8971C82.854 22.9824 82.7545 23.0534 82.6549 23.0961C82.5554 23.1387 82.4417 23.1671 82.2995 23.1671C82.1715 23.1671 82.0436 23.1387 81.9441 23.0961C81.8303 23.0534 81.745 22.9824 81.6739 22.8971C81.6028 22.8118 81.5602 22.7123 81.5175 22.5986C81.4749 22.4991 81.4607 22.3712 81.4607 22.2575C81.4607 22.1438 81.4749 22.0301 81.5175 21.9164C81.546 21.8169 81.6028 21.7174 81.6739 21.6321C81.745 21.5469 81.8445 21.4758 81.9441 21.4331C82.0436 21.3905 82.1573 21.3621 82.2995 21.3621C82.4275 21.3621 82.5554 21.3905 82.6549 21.4331C82.7687 21.4758 82.854 21.5469 82.9251 21.6321C82.9962 21.7174 83.0388 21.8027 83.0815 21.9164Z" fill="#A1A6BA"/>
<path d="M85.7118 21.6321C85.6549 21.5469 85.5696 21.4616 85.4701 21.4047C85.3706 21.3479 85.2568 21.3195 85.1289 21.3195C85.072 21.3195 85.0151 21.3195 84.9582 21.3337C84.9014 21.3479 84.8445 21.3621 84.8019 21.3905C84.7592 21.4189 84.7165 21.4474 84.7023 21.49C84.6739 21.5327 84.6597 21.5753 84.6597 21.6464C84.6597 21.7459 84.7023 21.8311 84.8019 21.888C84.9014 21.9448 85.0436 21.9875 85.2284 22.0301C85.3421 22.0585 85.4559 22.087 85.5696 22.1296C85.6691 22.1722 85.7687 22.2149 85.8397 22.2717C85.9108 22.3286 85.9819 22.3996 86.0246 22.4849C86.0672 22.5702 86.0814 22.6555 86.0814 22.7692C86.0814 22.9113 86.053 23.0392 85.9961 23.1529C85.9393 23.2524 85.8682 23.3377 85.7687 23.4088C85.6691 23.4798 85.5696 23.5225 85.4417 23.5509C85.3279 23.5793 85.2 23.5935 85.072 23.5935C84.8872 23.5935 84.6881 23.5509 84.5175 23.4798C84.3327 23.4088 84.1763 23.2951 84.0625 23.1387L84.418 22.8402C84.4891 22.9397 84.5744 23.025 84.7023 23.0961C84.8161 23.1672 84.9582 23.1956 85.1004 23.1956C85.1573 23.1956 85.2284 23.1956 85.2853 23.1814C85.3421 23.1672 85.399 23.1529 85.4417 23.1245C85.4843 23.0961 85.527 23.0534 85.5554 23.0108C85.5838 22.9682 85.598 22.9113 85.598 22.8402C85.598 22.7266 85.5412 22.6413 85.4274 22.5844C85.3137 22.5276 85.1573 22.4707 84.9298 22.4281C84.8871 22.4139 84.8445 22.4032 84.8018 22.3925C84.7592 22.3819 84.7165 22.3712 84.6739 22.357C84.5886 22.3286 84.5033 22.286 84.4322 22.2291C84.3611 22.1722 84.3042 22.1154 84.2616 22.0301C84.2189 21.9448 84.1905 21.8453 84.1905 21.7316C84.1905 21.6037 84.2189 21.4758 84.2758 21.3905C84.3327 21.291 84.4038 21.22 84.4891 21.1489C84.5744 21.0921 84.6739 21.0352 84.7876 21.0068C84.9014 20.9783 85.0151 20.9641 85.1431 20.9641C85.3279 20.9641 85.4985 21.0068 85.6691 21.0636C85.8397 21.1347 85.9677 21.2342 86.0672 21.3763L85.7118 21.6321Z" fill="#A1A6BA"/>
<path d="M48.234 26.6351C48.3478 26.6777 48.4189 26.7488 48.4757 26.8341L48.8454 26.493C48.7459 26.3509 48.6037 26.2514 48.4331 26.1803C48.2625 26.1235 48.0776 26.0808 47.907 26.0808C47.708 26.0808 47.5374 26.1235 47.3668 26.1803C47.2104 26.2372 47.054 26.3367 46.9402 26.4503C46.8123 26.5783 46.727 26.7204 46.6559 26.8767C46.5848 27.0331 46.5564 27.2178 46.5564 27.4168C46.5564 27.63 46.5848 27.8148 46.6559 27.9711C46.727 28.1275 46.8265 28.2696 46.9402 28.3833C47.054 28.497 47.1962 28.5965 47.3668 28.6534C47.5374 28.7244 47.708 28.7529 47.907 28.7529C48.1061 28.7529 48.2909 28.7244 48.4473 28.6534C48.6037 28.5965 48.7459 28.497 48.8454 28.3691L48.5042 28.0706C48.4331 28.1559 48.3478 28.227 48.2483 28.2696C48.1345 28.3122 48.0208 28.3407 47.8928 28.3407C47.7506 28.3407 47.6369 28.3122 47.5374 28.2696C47.4378 28.227 47.3525 28.1559 47.2815 28.0706C47.2104 27.9996 47.1677 27.9001 47.1251 27.7864C47.0824 27.6869 47.0682 27.559 47.0682 27.4453C47.0682 27.3316 47.0824 27.2178 47.1251 27.1041C47.1535 27.0047 47.2104 26.9052 47.2815 26.8199C47.3525 26.7346 47.4378 26.6635 47.5374 26.6209C47.6511 26.5783 47.7649 26.5498 47.8928 26.5498C48.0208 26.5498 48.1345 26.5783 48.234 26.6351Z" fill="#A1A6BA"/>
<path fill-rule="evenodd" clip-rule="evenodd" d="M51.888 27.4452C51.888 27.6442 51.8595 27.8148 51.7884 27.9853C51.7174 28.1417 51.6178 28.2838 51.5041 28.4117C51.3761 28.5254 51.234 28.6249 51.0633 28.6818C50.8927 28.7528 50.7221 28.7812 50.5231 28.7812C50.3382 28.7812 50.1534 28.7528 49.9828 28.6818C49.8122 28.6107 49.67 28.5254 49.5563 28.4117C49.4425 28.298 49.343 28.1559 49.2719 27.9853C49.2008 27.829 49.1724 27.6442 49.1724 27.4452C49.1724 27.2463 49.2008 27.0757 49.2719 26.9051C49.343 26.7488 49.4425 26.6067 49.5563 26.493C49.67 26.3793 49.8264 26.2798 49.9828 26.2229C50.1534 26.1518 50.324 26.1234 50.5231 26.1234C50.7079 26.1234 50.8927 26.1518 51.0633 26.2229C51.234 26.294 51.3761 26.3793 51.5041 26.493C51.632 26.6067 51.7174 26.7488 51.7884 26.9051C51.8595 27.0757 51.888 27.2463 51.888 27.4452ZM51.3761 27.4452C51.3761 27.3315 51.3619 27.2036 51.3193 27.1041C51.2766 26.9904 51.2339 26.9051 51.1629 26.8199C51.0918 26.7346 51.0065 26.6635 50.8927 26.6209C50.7932 26.5782 50.6652 26.5498 50.5373 26.5498C50.3951 26.5498 50.2814 26.5782 50.1818 26.6209C50.0823 26.6635 49.9828 26.7346 49.9117 26.8199C49.8406 26.9051 49.7838 27.0046 49.7553 27.1041C49.7127 27.2178 49.6984 27.3315 49.6984 27.4452C49.6984 27.5589 49.7127 27.6869 49.7553 27.7863C49.798 27.9 49.8406 27.9995 49.9117 28.0848C49.9828 28.1701 50.0681 28.2412 50.1818 28.2838C50.2814 28.3264 50.4093 28.3549 50.5373 28.3549C50.6795 28.3549 50.7932 28.3264 50.8927 28.2838C50.9923 28.2412 51.0918 28.1701 51.1629 28.0848C51.2339 27.9995 51.2908 27.9 51.3193 27.7863C51.3477 27.6869 51.3761 27.5731 51.3761 27.4452Z" fill="#A1A6BA"/>
<path d="M53.0461 26.2895C53.0428 26.2545 53.0396 26.2213 53.0396 26.1945V26.2229H52.5846C52.5846 26.2639 52.5879 26.3082 52.5913 26.3542C52.595 26.4039 52.5988 26.4555 52.5988 26.5072V28.7386H53.0965V27.4026C53.0965 27.1468 53.1533 26.9478 53.2813 26.7914C53.4093 26.6351 53.5656 26.564 53.7647 26.564C53.8784 26.564 53.978 26.5782 54.049 26.6209C54.1201 26.6635 54.177 26.7204 54.2197 26.7914C54.2623 26.8625 54.2907 26.9478 54.305 27.0331C54.3192 27.1325 54.3334 27.232 54.3334 27.3315V28.7244H54.831V27.161C54.831 27.0188 54.8168 26.8909 54.7741 26.763C54.7457 26.6351 54.6746 26.5214 54.6035 26.4361C54.5182 26.3366 54.4187 26.2656 54.305 26.2087C54.177 26.1518 54.0348 26.1234 53.8784 26.1234C53.7789 26.1234 53.6936 26.1376 53.6083 26.1661C53.523 26.1803 53.4519 26.2229 53.3808 26.2656C53.3097 26.3082 53.2529 26.365 53.196 26.4219C53.1391 26.4787 53.0965 26.5356 53.068 26.6067H53.0538V26.4077C53.0538 26.4015 53.0537 26.3953 53.0535 26.389C53.0533 26.3834 53.0531 26.3778 53.0528 26.3722C53.0514 26.3449 53.0487 26.3167 53.0461 26.2895Z" fill="#A1A6BA"/>
<path d="M58.2433 26.6067H57.575V27.9143C57.575 28.0707 57.6035 28.1701 57.6604 28.2412C57.7172 28.3123 57.8025 28.3407 57.9305 28.3407C57.9731 28.3407 58.03 28.3407 58.0727 28.3265C58.0942 28.3211 58.1136 28.3157 58.1318 28.3104C58.1618 28.3015 58.1883 28.2927 58.2148 28.2839L58.2291 28.696C58.1722 28.7245 58.1011 28.7387 58.03 28.7529C57.9589 28.7671 57.8878 28.7671 57.8025 28.7671C57.5608 28.7671 57.376 28.696 57.2623 28.5681C57.1343 28.4402 57.0774 28.2412 57.0774 27.9712V26.6067H56.594V26.1945H57.0774V25.4697H57.575V26.1945H58.2433V26.6067Z" fill="#A1A6BA"/>
<path d="M60.5259 28.6159C60.5276 28.6339 60.5293 28.6514 60.5305 28.6678C60.5312 28.6778 60.5318 28.6874 60.5321 28.6964L60.5322 28.7012L60.5323 28.7056L60.5323 28.7102V28.696H60.9731C60.9731 28.655 60.9698 28.6107 60.9664 28.5648C60.9627 28.5151 60.9588 28.4634 60.9588 28.4118V26.1803H60.4612V27.5164C60.4612 27.758 60.4044 27.957 60.2764 28.1133C60.1627 28.2696 59.992 28.3407 59.793 28.3407C59.6793 28.3407 59.5797 28.3265 59.5086 28.2839C59.4376 28.2412 59.3807 28.1844 59.338 28.1133C59.2954 28.0422 59.2669 27.9712 59.2527 27.8717L59.2527 27.8715C59.2385 27.772 59.2243 27.6726 59.2243 27.5732V26.1803H58.7267V27.7438C58.7267 27.8859 58.7409 28.0138 58.7835 28.1417C58.8262 28.2696 58.8831 28.3691 58.9542 28.4686C59.0395 28.5681 59.139 28.6392 59.2527 28.696C59.3807 28.7529 59.5229 28.7813 59.6793 28.7813C59.8641 28.7813 60.0205 28.7387 60.1769 28.6392C60.3333 28.5539 60.447 28.426 60.5039 28.2981H60.5181V28.4971C60.5181 28.5345 60.522 28.5759 60.5258 28.615L60.5258 28.6152L60.5259 28.6159Z" fill="#A1A6BA"/>
<path d="M63.646 26.1945C63.646 26.2066 63.6466 26.2201 63.6476 26.2344C63.6489 26.2517 63.6507 26.2704 63.6525 26.2895C63.6542 26.3076 63.656 26.3262 63.6574 26.3446C63.659 26.3661 63.6602 26.3875 63.6602 26.4077V26.6067H63.6744C63.7028 26.5356 63.7455 26.4787 63.8024 26.4219C63.8592 26.365 63.9161 26.3082 63.9872 26.2656C64.0583 26.2229 64.1294 26.1803 64.2147 26.1661C64.3 26.1376 64.3853 26.1234 64.4848 26.1234C64.6412 26.1234 64.7834 26.1518 64.9113 26.2087C65.0251 26.2656 65.1246 26.3366 65.2099 26.4361C65.281 26.5214 65.3521 26.6351 65.3805 26.763C65.4232 26.8909 65.4374 27.0188 65.4374 27.161V28.7244H64.9398V27.3315C64.9398 27.232 64.9256 27.1325 64.9113 27.0331C64.8971 26.9478 64.8687 26.8625 64.826 26.7914C64.7834 26.7204 64.7265 26.6635 64.6554 26.6209C64.5843 26.5782 64.4848 26.564 64.3711 26.564C64.172 26.564 64.0156 26.6351 63.8877 26.7914C63.7597 26.9478 63.7028 27.1468 63.7028 27.4026V28.7386H63.2052V26.5072C63.2052 26.4555 63.2014 26.4039 63.1977 26.3542C63.1943 26.3082 63.191 26.2639 63.191 26.2229H63.646V26.1945Z" fill="#A1A6BA"/>
<path fill-rule="evenodd" clip-rule="evenodd" d="M68.6364 27.431C68.6364 27.232 68.608 27.0473 68.5511 26.8767C68.4942 26.7204 68.4089 26.5782 68.3094 26.4645C68.2099 26.3508 68.0819 26.2656 67.9255 26.2087C67.7833 26.1518 67.6127 26.1234 67.4279 26.1234C67.2431 26.1234 67.0724 26.1518 66.916 26.2229C66.7597 26.2798 66.6175 26.3793 66.5037 26.493C66.39 26.6067 66.3047 26.7488 66.2336 26.9193C66.1625 27.0899 66.1341 27.2605 66.1341 27.4594C66.1341 27.6584 66.1625 27.8432 66.2336 27.9995C66.2905 28.1559 66.39 28.298 66.5037 28.4117C66.6317 28.5254 66.7739 28.6249 66.9303 28.6818C67.0867 28.7528 67.2715 28.7812 67.4563 28.7812C67.6838 28.7812 67.8828 28.7386 68.0677 28.6533C68.2525 28.568 68.4231 28.4401 68.5511 28.2554L68.1956 27.9711C68.1245 28.0706 68.025 28.1701 67.8971 28.2412C67.7691 28.3122 67.6269 28.3549 67.4563 28.3549C67.3426 28.3549 67.2431 28.3406 67.1435 28.298C67.044 28.2696 66.9587 28.2127 66.8876 28.1417C66.8023 28.0706 66.7454 27.9995 66.7028 27.9C66.6601 27.8006 66.6317 27.7011 66.6317 27.6016H68.6364V27.431ZM68.0677 26.9478C68.1103 27.0331 68.1245 27.1325 68.1245 27.232H66.6317C66.6317 27.1325 66.6601 27.0331 66.7028 26.9478C66.7454 26.8625 66.8023 26.7772 66.8734 26.7204C66.9445 26.6493 67.0156 26.6067 67.1151 26.564C67.2004 26.5214 67.3141 26.5072 67.4137 26.5072C67.5416 26.5072 67.6411 26.5214 67.7264 26.564C67.8118 26.6067 67.8828 26.6635 67.9397 26.7204C67.9966 26.7914 68.0392 26.8625 68.0677 26.9478Z" fill="#A1A6BA"/>
<path fill-rule="evenodd" clip-rule="evenodd" d="M69.5321 29.1366C69.6458 29.2645 69.7738 29.364 69.9444 29.4351C70.115 29.5061 70.2856 29.5487 70.4562 29.5487C70.6268 29.5487 70.769 29.5203 70.8827 29.4777C70.9965 29.4351 71.0818 29.364 71.1529 29.2787C71.224 29.1934 71.2666 29.0939 71.2951 28.9802C71.3235 28.8665 71.3377 28.7386 71.3377 28.6107V28.2838H71.3235C71.2382 28.4259 71.1102 28.5396 70.9396 28.6107C70.7832 28.6818 70.6126 28.7244 70.4278 28.7244C70.2429 28.7244 70.0581 28.696 69.9017 28.6249C69.7453 28.5538 69.6032 28.4686 69.5036 28.3549C69.3899 28.2412 69.3046 28.099 69.2477 27.9427C69.1908 27.7863 69.1624 27.6158 69.1624 27.431C69.1624 27.2463 69.1908 27.0757 69.2477 26.9193C69.3046 26.763 69.3899 26.6209 69.5036 26.5072C69.6174 26.3935 69.7453 26.294 69.9017 26.2229C70.0581 26.1518 70.2287 26.1234 70.4278 26.1234C70.6126 26.1234 70.7832 26.1661 70.9396 26.2371C71.1102 26.3082 71.2382 26.4361 71.3377 26.5925H71.3519V26.1945H71.8353V28.5823C71.8353 28.767 71.8069 28.9376 71.7642 29.1081C71.7216 29.2787 71.6363 29.4208 71.5368 29.5487C71.423 29.6767 71.2808 29.7762 71.1102 29.8614C70.9396 29.9325 70.7121 29.9751 70.4562 29.9751C70.2429 29.9751 70.0155 29.9325 69.788 29.8614C69.5605 29.7762 69.3757 29.6625 69.2193 29.5203L69.5321 29.1366ZM69.6742 27.431C69.6742 27.5447 69.6885 27.6584 69.7311 27.7721C69.7738 27.8858 69.8164 27.9711 69.9017 28.0564C69.9728 28.1417 70.0581 28.1985 70.1719 28.2554C70.2714 28.298 70.3993 28.3264 70.5273 28.3264C70.6553 28.3264 70.769 28.298 70.8827 28.2554C70.9965 28.2127 71.0818 28.1417 71.1529 28.0706C71.224 27.9853 71.2808 27.9 71.3235 27.7863C71.3661 27.6726 71.3804 27.5589 71.3804 27.431C71.3804 27.3173 71.3661 27.2036 71.3235 27.0899C71.2808 26.9904 71.224 26.8909 71.1529 26.8057C71.0818 26.7204 70.9823 26.6635 70.8827 26.6067C70.7832 26.564 70.6553 26.5356 70.5273 26.5356C70.3993 26.5356 70.2714 26.564 70.1719 26.6067C70.0723 26.6493 69.987 26.7204 69.9017 26.7914C69.8306 26.8767 69.7738 26.962 69.7311 27.0757C69.7027 27.1894 69.6742 27.3031 69.6742 27.431Z" fill="#A1A6BA"/>
<path fill-rule="evenodd" clip-rule="evenodd" d="M75.1481 27.9853C75.2192 27.8148 75.2476 27.6442 75.2476 27.4452C75.2476 27.2463 75.2192 27.0757 75.1481 26.9051C75.077 26.7488 74.9917 26.6067 74.8637 26.493C74.75 26.3793 74.6078 26.294 74.4372 26.2229C74.2666 26.1518 74.0818 26.1234 73.8969 26.1234C73.6979 26.1234 73.5273 26.1518 73.3567 26.2229C73.2003 26.2798 73.0439 26.3793 72.9301 26.493C72.8164 26.6067 72.7169 26.7488 72.6458 26.9051C72.5747 27.0757 72.5462 27.2463 72.5462 27.4452C72.5462 27.6442 72.5747 27.829 72.6458 27.9853C72.7169 28.1559 72.8164 28.298 72.9301 28.4117C73.0439 28.5254 73.186 28.6107 73.3567 28.6818C73.5273 28.7528 73.7121 28.7812 73.8969 28.7812C74.096 28.7812 74.2666 28.7528 74.4372 28.6818C74.5936 28.6249 74.7358 28.5254 74.8637 28.4117C74.9775 28.2838 75.077 28.1417 75.1481 27.9853ZM74.6789 27.1041C74.7215 27.2036 74.7358 27.3315 74.7358 27.4452C74.7358 27.5731 74.7073 27.6869 74.6789 27.7863C74.6505 27.9 74.5936 27.9995 74.5225 28.0848C74.4514 28.1701 74.3519 28.2412 74.2524 28.2838C74.1528 28.3264 74.0391 28.3549 73.8969 28.3549C73.769 28.3549 73.641 28.3264 73.5415 28.2838C73.4277 28.2412 73.3424 28.1701 73.2713 28.0848C73.2003 27.9995 73.1576 27.9 73.115 27.7863C73.0723 27.6869 73.0581 27.5589 73.0581 27.4452C73.0581 27.3315 73.0723 27.2178 73.115 27.1041C73.1434 27.0046 73.2003 26.9051 73.2713 26.8199C73.3424 26.7346 73.442 26.6635 73.5415 26.6209C73.641 26.5782 73.7547 26.5498 73.8969 26.5498C74.0249 26.5498 74.1528 26.5782 74.2524 26.6209C74.3661 26.6635 74.4514 26.7346 74.5225 26.8199C74.5936 26.9051 74.6362 26.9904 74.6789 27.1041Z" fill="#A1A6BA"/>
<path d="M77.7072 26.8341C77.6504 26.7488 77.5793 26.6777 77.4655 26.6351C77.366 26.5783 77.2523 26.5498 77.1243 26.5498C76.9963 26.5498 76.8826 26.5783 76.7689 26.6209C76.6693 26.6635 76.584 26.7346 76.5129 26.8199C76.4419 26.9052 76.385 27.0047 76.3565 27.1041C76.3139 27.2178 76.2997 27.3316 76.2997 27.4453C76.2997 27.559 76.3139 27.6869 76.3565 27.7864C76.3992 27.9001 76.4419 27.9996 76.5129 28.0706C76.584 28.1559 76.6693 28.227 76.7689 28.2696C76.8684 28.3122 76.9821 28.3407 77.1243 28.3407C77.2523 28.3407 77.366 28.3122 77.4797 28.2696C77.5793 28.227 77.6646 28.1559 77.7357 28.0706L78.0769 28.3691C77.9774 28.497 77.8352 28.5965 77.6788 28.6534C77.5224 28.7244 77.3376 28.7529 77.1385 28.7529C76.9395 28.7529 76.7689 28.7244 76.5983 28.6534C76.4276 28.5965 76.2855 28.497 76.1717 28.3833C76.058 28.2696 75.9585 28.1275 75.8874 27.9711C75.8163 27.8148 75.7878 27.63 75.7878 27.4168C75.7878 27.2178 75.8163 27.0331 75.8874 26.8767C75.9585 26.7204 76.0438 26.5783 76.1717 26.4503C76.2855 26.3367 76.4419 26.2372 76.5983 26.1803C76.7689 26.1235 76.9395 26.0808 77.1385 26.0808C77.3091 26.0808 77.494 26.1235 77.6646 26.1803C77.8352 26.2514 77.9774 26.3509 78.0769 26.493L77.7072 26.8341Z" fill="#A1A6BA"/>
<path d="M79.0579 25.5123C79.129 25.4554 79.1574 25.3844 79.1574 25.2849C79.1574 25.1854 79.129 25.1143 79.0579 25.0433C78.9868 24.9722 78.9015 24.9438 78.8162 24.9438C78.7309 24.9438 78.6456 24.9864 78.5887 25.0433C78.5176 25.1001 78.4892 25.1854 78.4892 25.2707C78.4892 25.356 78.5318 25.427 78.5887 25.4981C78.6456 25.5691 78.7309 25.5976 78.8162 25.5976C78.9157 25.5976 78.9868 25.5691 79.0579 25.5123Z" fill="#A1A6BA"/>
<path d="M78.5745 28.7102H79.0721V26.1945H78.5745V28.7102Z" fill="#A1A6BA"/>
<path fill-rule="evenodd" clip-rule="evenodd" d="M82.4986 27.4452C82.4986 27.6442 82.4702 27.8148 82.3991 27.9853C82.328 28.1417 82.2285 28.2838 82.1147 28.4117C81.9868 28.5254 81.8446 28.6249 81.6882 28.6818C81.5176 28.7528 81.347 28.7812 81.1479 28.7812C80.9631 28.7812 80.7783 28.7528 80.6077 28.6818C80.437 28.6107 80.2949 28.5254 80.1811 28.4117C80.0674 28.298 79.9679 28.1559 79.8968 27.9853C79.8257 27.829 79.7972 27.6442 79.7972 27.4452C79.7972 27.2463 79.8257 27.0757 79.8968 26.9051C79.9679 26.7488 80.0674 26.6067 80.1811 26.493C80.2949 26.3793 80.4513 26.2798 80.6077 26.2229C80.7783 26.1518 80.9489 26.1234 81.1479 26.1234C81.3328 26.1234 81.5176 26.1518 81.6882 26.2229C81.8588 26.294 82.001 26.3793 82.1147 26.493C82.2427 26.6067 82.328 26.7488 82.3991 26.9051C82.4702 27.0757 82.4986 27.2463 82.4986 27.4452ZM81.9868 27.4452C81.9868 27.3315 81.9725 27.2036 81.9299 27.1041C81.8872 26.9904 81.8446 26.9051 81.7735 26.8199C81.7024 26.7346 81.6171 26.6635 81.5034 26.6209C81.4038 26.5782 81.2759 26.5498 81.1479 26.5498C81.0057 26.5498 80.892 26.5782 80.7925 26.6209C80.693 26.6635 80.5934 26.7346 80.5223 26.8199C80.4513 26.9051 80.3944 27.0046 80.366 27.1041C80.3233 27.2178 80.3091 27.3315 80.3091 27.4452C80.3091 27.5589 80.3233 27.6869 80.366 27.7863C80.4086 27.9 80.4513 27.9995 80.5223 28.0848C80.5934 28.1701 80.6787 28.2412 80.7925 28.2838C80.892 28.3264 81.02 28.3549 81.1479 28.3549C81.2901 28.3549 81.4038 28.3264 81.5034 28.2838C81.6029 28.2412 81.7024 28.1701 81.7735 28.0848C81.8446 27.9995 81.9015 27.9 81.9299 27.7863C81.9583 27.6869 81.9868 27.5731 81.9868 27.4452Z" fill="#A1A6BA"/>
<path d="M83.6502 28.6392C83.7213 28.5681 83.7497 28.4971 83.7497 28.3976C83.7497 28.2981 83.7213 28.2128 83.6502 28.156C83.5791 28.0849 83.4938 28.0565 83.3943 28.0565C83.2948 28.0565 83.2095 28.0849 83.1384 28.156C83.0673 28.2128 83.0388 28.2981 83.0388 28.3976C83.0388 28.4829 83.0673 28.5681 83.1384 28.6392C83.2095 28.7103 83.2948 28.7387 83.3943 28.7387C83.4938 28.7387 83.5791 28.7103 83.6502 28.6392Z" fill="#A1A6BA"/>
</svg>
