<svg width="128" height="25" viewBox="0 0 128 25" fill="none" xmlns="http://www.w3.org/2000/svg">
<path d="M11.0939 4.50972C11.1793 2.97231 11.2646 1.48616 11.35 0H0V1.62281C0.0700247 1.63082 0.139815 1.63883 0.20948 1.64684L0.444712 1.67392C0.889929 1.72522 1.33512 1.77651 1.80917 1.8278V16.7577C1.263 16.8431 0.750974 16.9285 0.204813 17.031V18.6709H11.606C11.5718 17.8851 11.542 17.1079 11.5121 16.3307C11.4822 15.5534 11.4524 14.7762 11.4182 13.9904C11.0243 13.9736 10.6426 13.9609 10.2633 13.9483C9.87018 13.9353 9.47949 13.9223 9.07997 13.905C9.04508 14.2143 9.01019 14.5178 8.97572 14.8176C8.89216 15.5442 8.81111 16.2492 8.73862 16.9627H5.25682V9.9077H6.74171C6.86118 10.4202 6.99772 10.9326 7.13426 11.3939H8.65328V6.81582H7.10013C6.98065 7.32829 6.86118 7.80659 6.74171 8.28489H5.23976V1.63989H8.70448C8.73008 2.10965 8.75568 2.57088 8.78129 3.0321C8.80689 3.49332 8.83249 3.95454 8.85809 4.42431C9.23469 4.44105 9.59897 4.4537 9.96101 4.46626C10.3373 4.47932 10.7112 4.49231 11.0939 4.50972Z" fill="#A1A6BA"/>
<path fill-rule="evenodd" clip-rule="evenodd" d="M51.7537 24.3949V24.3951C51.7422 24.5865 51.7302 24.7837 51.7149 24.9913H57.3643C57.3808 24.7767 57.3933 24.5701 57.4057 24.3656C57.4189 24.147 57.432 23.9308 57.4496 23.7101C56.9717 23.6076 56.5621 23.5222 56.1525 23.4368V18.4317C56.2378 18.4488 56.289 18.4659 56.3402 18.4829C57.1253 18.8417 57.9446 18.91 58.798 18.8417C60.4535 18.705 61.6482 17.8851 62.3139 16.3477C62.5187 15.8352 62.6723 15.3056 62.7747 14.759C63.0649 13.2899 63.0478 11.8038 62.9283 10.3347C62.8771 9.61725 62.7235 8.88272 62.5187 8.19943C62.0408 6.66202 61.1021 5.58584 59.3953 5.41502C58.0299 5.27837 56.8352 5.65417 55.9135 6.71327C55.9048 6.72201 55.8961 6.73024 55.8873 6.73816C55.8835 6.74161 55.8797 6.74501 55.8759 6.74835L55.8701 6.75345C55.859 6.76305 55.8479 6.77231 55.8367 6.78157C55.8111 6.80293 55.7855 6.8243 55.7599 6.84992C55.6623 6.50782 55.5733 6.18319 55.4806 5.84479L55.4798 5.84169C55.4432 5.70797 55.4059 5.57208 55.3674 5.4321C54.0702 5.62001 52.8243 5.79083 51.5784 5.96166V7.29407C52.0002 7.36685 52.4096 7.42724 52.8066 7.48579C52.8754 7.49594 52.9439 7.50603 53.012 7.51614V23.4368C52.6024 23.5393 52.2099 23.6247 51.8002 23.7101C51.7815 23.9349 51.7679 24.1597 51.7539 24.3929L51.7538 24.3939L51.7537 24.3949ZM59.1222 16.7747C58.1152 17.1164 57.1424 17.0993 56.1354 16.6722V8.83147C56.1354 8.14818 56.5621 7.63571 57.2448 7.49906C57.3131 7.49906 57.3643 7.48197 57.4155 7.46489C58.5419 7.27698 59.2758 7.70404 59.6172 8.78023C59.7708 9.27561 59.8732 9.80516 59.9073 10.3176C60.0097 11.855 60.0439 13.3924 59.822 14.9127C59.7732 15.2665 59.681 15.6203 59.5887 15.9741L59.5886 15.9743L59.5667 16.0583L59.5505 16.1209L59.5458 16.1391L59.5337 16.1861L59.525 16.2204C59.5099 16.2799 59.495 16.3394 59.4807 16.3989C59.4295 16.5868 59.327 16.7064 59.1222 16.7747Z" fill="#A1A6BA"/>
<path d="M93.9402 17.048C94.4181 17.1505 94.8447 17.2359 95.2714 17.3214C95.2629 17.552 95.2501 17.774 95.2373 17.9961C95.2245 18.2182 95.2117 18.4402 95.2032 18.6709H90.8509C90.8509 18.6196 90.8467 18.5726 90.8424 18.5256C90.8381 18.4787 90.8339 18.4317 90.8339 18.3805C90.8339 17.4182 90.8358 16.4559 90.8377 15.4936C90.8414 13.569 90.8452 11.6444 90.8339 9.71976C90.8339 9.32687 90.7485 8.93397 90.629 8.55816C90.4925 8.11402 90.117 7.85779 89.6562 7.7553C89.2124 7.6528 88.7687 7.68697 88.3591 7.85779C88.0006 8.01154 87.7105 8.30193 87.7105 8.72898V16.9285C87.7105 16.9472 87.7156 16.9608 87.7231 16.9805C87.7292 16.9968 87.7369 17.0172 87.7446 17.048C88.1372 17.1335 88.5468 17.2189 89.0247 17.3043C89.0066 17.5394 88.9933 17.7745 88.9797 18.0147L88.9797 18.0155L88.9797 18.0167C88.9676 18.2296 88.9554 18.4464 88.9393 18.6709H83.3412V17.3214C83.7679 17.2359 84.1604 17.1505 84.5871 17.048V7.6528L84.4336 7.63577L84.4327 7.63567L84.4322 7.63561L84.4317 7.63555C84.0191 7.58986 83.593 7.54267 83.1534 7.48198V6.09832C84.3652 5.9275 85.577 5.75668 86.84 5.56878C86.9182 5.83703 86.9891 6.10529 87.0574 6.36397L87.058 6.36619L87.0589 6.36944C87.0945 6.50421 87.1294 6.63636 87.1643 6.76453C87.2529 6.69801 87.3434 6.6261 87.4362 6.55228L87.4363 6.55212C87.6294 6.39853 87.8329 6.23675 88.0518 6.09832C89.2636 5.32962 90.5778 5.19297 91.9262 5.67127C93.0526 6.08124 93.65 6.96951 93.8378 8.1311C93.889 8.45567 93.906 8.78024 93.906 9.10479V16.5356C93.9402 16.7235 93.9402 16.8772 93.9402 17.048Z" fill="#A1A6BA"/>
<path d="M17.9419 17.2189C17.6612 17.1619 17.3806 17.105 17.0847 17.048C17.0837 17.0385 17.0827 17.029 17.0817 17.0196L17.0809 17.0107L17.0793 16.9943L17.0784 16.9838C17.0758 16.955 17.0736 16.9265 17.0714 16.8981C17.0639 16.7994 17.0563 16.7007 17.0335 16.5868V15.0494C17.0335 14.3554 17.0354 13.6632 17.0373 12.9717L17.0373 12.9679V12.9642C17.0411 11.5818 17.0449 10.2019 17.0335 8.81441C17.0335 8.55818 17.1188 8.37027 17.2725 8.16528C17.6821 7.6699 18.2453 7.65281 18.7915 7.70407C19.5595 7.77239 20.0033 8.23361 20.1227 8.98524C20.1739 9.30979 20.2081 9.63436 20.2081 9.95892V18.6538H24.5774V17.9534C24.5774 17.7313 24.5945 17.5093 24.6115 17.2872C24.3811 17.2445 24.1635 17.2018 23.9459 17.1591C23.7283 17.1164 23.5107 17.0737 23.2803 17.031V9.05356C23.2803 8.71191 23.2632 8.35319 23.1949 8.02862C22.9389 6.74746 22.205 5.85918 20.9079 5.5517C19.423 5.19298 18.0576 5.48338 16.8799 6.49122C16.8224 6.54056 16.7649 6.59387 16.7093 6.6454L16.709 6.64562C16.6492 6.70106 16.5916 6.75446 16.5386 6.7987C16.5169 6.72138 16.4959 6.64519 16.4751 6.5698C16.452 6.48546 16.4292 6.40214 16.4067 6.31943L16.4064 6.31837C16.3378 6.06701 16.2707 5.82113 16.1972 5.56879C14.9171 5.75669 13.7053 5.92751 12.4935 6.09833V7.48199C12.9714 7.53325 13.4493 7.58449 13.9101 7.63573C14.0125 8.11404 13.9784 16.7406 13.8931 17.048L13.8927 17.0481C13.5003 17.1335 13.1078 17.2189 12.6983 17.3043C12.6894 17.5558 12.6757 17.7932 12.6622 18.0263C12.6501 18.2365 12.6382 18.4432 12.6301 18.6538H18.2794C18.2965 18.4231 18.3093 18.201 18.3221 17.9789L18.3221 17.9787L18.3223 17.9761C18.3351 17.755 18.3478 17.5339 18.3648 17.3043C18.2229 17.2759 18.083 17.2475 17.943 17.2191L17.9419 17.2189Z" fill="#A1A6BA"/>
<path d="M113.926 7.31114C113.675 7.28421 113.429 7.26199 113.18 7.23953L113.179 7.23947C112.954 7.21922 112.727 7.19876 112.493 7.17448V5.96163C113.12 5.89269 113.748 5.82031 114.379 5.74756L114.38 5.74741L114.383 5.7471L114.386 5.74669L114.395 5.74563C115.166 5.65683 115.94 5.5675 116.725 5.48333C116.749 5.55708 116.773 5.62983 116.797 5.70191C116.945 6.14743 117.084 6.56731 117.084 7.03781C117.072 9.15453 117.076 11.2712 117.08 13.3829V13.3912C117.082 14.4465 117.084 15.5005 117.084 16.5526V17.0651C117.545 17.1505 117.954 17.2359 118.398 17.3384C118.372 17.569 118.351 17.7911 118.33 18.0132C118.308 18.2353 118.287 18.4573 118.261 18.6879H114.626C114.575 18.5258 114.519 18.3594 114.462 18.1866L114.462 18.186C114.404 18.0131 114.344 17.8338 114.285 17.6459C114.165 17.7313 114.08 17.7996 113.995 17.868C112.51 19.2175 110.513 19.0808 109.25 18.4658C108.26 17.9875 107.731 17.1676 107.56 16.1085C107.492 15.7668 107.475 15.4081 107.475 15.0494V7.3453C107.145 7.31116 106.83 7.27702 106.516 7.24289C106.358 7.22578 106.201 7.20867 106.041 7.19156V5.97872C107.057 5.86573 108.073 5.74352 109.109 5.61885C109.483 5.5739 109.86 5.52862 110.24 5.48333C110.276 5.63038 110.321 5.77251 110.366 5.91332L110.366 5.91373L110.367 5.91635C110.466 6.23259 110.564 6.54205 110.564 6.88408V14.4003C110.564 14.7419 110.581 15.0836 110.632 15.4252C110.752 16.3476 111.349 16.8943 112.271 16.9114C112.595 16.9114 112.919 16.8601 113.244 16.7747C113.585 16.6893 114.029 16.0914 114.029 15.7498V7.46487C113.977 7.41363 113.96 7.37946 113.926 7.31114Z" fill="#A1A6BA"/>
<path fill-rule="evenodd" clip-rule="evenodd" d="M45.4169 15.801C44.8536 14.964 44.683 14.0245 44.683 12.9654C46.8506 12.9312 48.9499 12.9141 51.1004 12.8971C51.1324 12.7956 51.1727 12.6942 51.2131 12.5928C51.3018 12.3697 51.3905 12.1465 51.3905 11.9234C51.3905 10.9497 51.2881 9.97599 51.0151 9.01939C50.742 8.07987 50.3494 7.22576 49.6496 6.54247C48.4549 5.39795 47.0212 5.21004 45.4852 5.53461C43.8637 5.87625 42.8055 6.88411 42.1228 8.35318C41.6961 9.25854 41.4913 10.1981 41.406 11.1888C41.2695 12.7946 41.4231 14.3661 42.1228 15.8523C42.7543 17.2018 43.7101 18.2096 45.1779 18.6367C46.9359 19.1492 48.5915 18.8588 50.1617 18.0046C50.3259 17.928 50.469 17.8232 50.6136 17.7173C50.6944 17.6581 50.7757 17.5986 50.8615 17.5434C50.6737 17.1164 50.503 16.7235 50.3323 16.3306L50.3319 16.3307L50.3304 16.3312C50.1779 16.3821 50.0759 16.4162 49.9739 16.4672C49.1888 16.7918 48.3866 16.9626 47.5333 16.9456C46.6287 16.9285 45.9289 16.5356 45.4169 15.801ZM48.5385 10.8182C48.5491 10.9618 48.5603 11.1122 48.5744 11.2742C47.2431 11.3426 45.963 11.3938 44.683 11.4451C44.6797 11.4251 44.6757 11.4065 44.6715 11.3888C44.6688 11.3778 44.6661 11.3671 44.6633 11.3567C44.6613 11.349 44.6593 11.3415 44.6573 11.3341C44.6439 11.2845 44.6318 11.2397 44.6318 11.1888C44.683 10.0614 44.8878 8.96814 45.3145 7.90905C45.451 7.60156 45.6558 7.41366 45.9801 7.31117C46.7994 7.05493 47.4309 7.277 47.8575 8.02861C48.2501 8.7119 48.4037 9.46353 48.489 10.2322C48.5091 10.4229 48.5233 10.6135 48.5385 10.818V10.8182Z" fill="#A1A6BA"/>
<path fill-rule="evenodd" clip-rule="evenodd" d="M102.296 12.9219L102.293 12.922C101.208 12.935 100.13 12.948 99.0433 12.9654C98.9921 13.4266 99.0604 13.8537 99.1457 14.2807C99.2652 14.9298 99.5042 15.5277 99.9479 16.0402C100.443 16.621 101.057 16.9114 101.808 16.9285C102.628 16.9626 103.413 16.8089 104.181 16.5014C104.334 16.4331 104.488 16.3818 104.693 16.3135L104.694 16.3156L104.694 16.3165C104.864 16.7084 105.035 17.1004 105.222 17.5434C105.209 17.5532 105.196 17.5623 105.183 17.571C105.172 17.5785 105.161 17.5856 105.15 17.5926C105.14 17.5991 105.129 17.6054 105.119 17.6118C105.101 17.623 105.083 17.6342 105.066 17.6461C105.049 17.6568 105.033 17.6679 105.017 17.6801C103.652 18.6367 102.115 19.0125 100.494 18.8246C98.4801 18.6025 97.1318 17.4238 96.3978 15.579C95.4591 13.2045 95.4933 10.7959 96.4661 8.42151C97.0976 6.90119 98.1899 5.85918 99.8455 5.50044C101.143 5.22713 102.389 5.31254 103.515 6.08124C104.317 6.62788 104.812 7.43074 105.154 8.31901C105.597 9.46353 105.768 10.6593 105.734 11.8721C105.722 12.116 105.64 12.3511 105.557 12.59L105.557 12.5909C105.543 12.6308 105.529 12.6708 105.515 12.711C105.507 12.7337 105.5 12.7565 105.492 12.7793C105.487 12.7954 105.482 12.8115 105.477 12.8277C105.471 12.8451 105.466 12.8625 105.461 12.88C104.39 12.8967 103.34 12.9094 102.296 12.9219ZM102.901 11.2742C102.866 10.386 102.764 9.54894 102.508 8.74607C102.372 8.3361 102.184 7.97737 101.911 7.63572C101.399 6.9866 99.8455 7.10618 99.6066 8.01154C99.5512 8.22286 99.49 8.43419 99.4286 8.6464C99.2813 9.15462 99.1326 9.66784 99.0604 10.1981C99.0518 10.2672 99.0422 10.3358 99.0326 10.4043C98.9853 10.7424 98.9382 11.0787 99.0092 11.4622C99.6926 11.4261 100.367 11.3949 101.046 11.3634C101.656 11.3351 102.271 11.3066 102.901 11.2742Z" fill="#A1A6BA"/>
<path fill-rule="evenodd" clip-rule="evenodd" d="M79.4421 12.9223C80.4958 12.9096 81.5538 12.8969 82.6243 12.88C82.6553 12.7818 82.6941 12.6819 82.7332 12.5814C82.8232 12.3501 82.9144 12.1155 82.9144 11.8893C82.9144 10.591 82.7437 9.32694 82.2317 8.13119C81.8392 7.20874 81.2759 6.42296 80.3713 5.92757C79.0059 5.17596 77.5723 5.24428 76.1727 5.79092C74.978 6.26922 74.1929 7.19166 73.6638 8.33618C73.2029 9.30987 72.9981 10.3519 72.9299 11.4281C72.8104 13.0167 73.0152 14.5712 73.7491 16.0232C74.466 17.441 75.5753 18.4318 77.1626 18.7393C78.8523 19.0809 80.4738 18.7563 81.9416 17.8339C82.0183 17.7827 82.0909 17.7272 82.1634 17.6717L82.1636 17.6715C82.2361 17.616 82.3086 17.5605 82.3853 17.5093C82.2728 17.2534 82.1665 17.0098 82.0626 16.7711C81.993 16.6115 81.9246 16.454 81.8562 16.2965C81.7534 16.3433 81.6608 16.3798 81.5728 16.4145L81.5725 16.4147C81.5 16.4433 81.4306 16.4706 81.3613 16.5015C80.5762 16.8261 79.774 16.9627 78.9377 16.9285C78.2038 16.9115 77.5893 16.604 77.1285 16.0403C76.3946 15.1691 76.2239 14.1271 76.2069 12.9655C77.2867 12.9482 78.3621 12.9352 79.4421 12.9223ZM80.0552 10.9238C80.0633 11.0373 80.0716 11.1538 80.0812 11.2743C79.3801 11.3103 78.6932 11.3416 78.0005 11.3731L77.9969 11.3732C77.3755 11.4015 76.7495 11.4299 76.1044 11.4622C76.1181 11.3045 76.1291 11.1606 76.1395 11.0238L76.1396 11.0226C76.1551 10.819 76.1694 10.6312 76.1898 10.4373C76.3093 9.53193 76.497 8.64365 76.8725 7.80662C76.9749 7.58455 77.1285 7.4479 77.3504 7.36249C78.2208 7.02084 78.9206 7.24291 79.3814 8.06285C79.7399 8.6949 79.8935 9.39528 79.9788 10.0956C80.0155 10.3654 80.0347 10.6351 80.0552 10.9238Z" fill="#A1A6BA"/>
<path d="M36.2346 5.56888C36.2858 5.7654 36.3328 5.95765 36.3797 6.1499C36.4266 6.342 36.4735 6.5341 36.5247 6.73047C36.6015 6.68777 36.6783 6.64079 36.7551 6.59382L36.7554 6.59369C36.8321 6.54676 36.9088 6.49982 36.9855 6.45716C37.8901 5.92761 38.863 5.68846 39.9041 5.56888C40.3991 5.51764 40.7575 5.67138 41.0476 6.09844C40.9557 6.96593 40.8537 7.85364 40.7493 8.76158L40.7492 8.76302C40.7179 9.0346 40.6865 9.308 40.6551 9.58321C40.2976 9.56616 39.9529 9.55338 39.6083 9.5406L39.6026 9.54041H39.602C39.2575 9.52763 38.913 9.51484 38.5558 9.4978C38.4704 8.86575 38.4022 8.2508 38.3339 7.63584C37.8219 7.67 37.3952 7.82374 37.0026 8.09705V17.0652C37.2984 17.1363 37.5859 17.1991 37.888 17.2651C38.0217 17.2943 38.1583 17.3242 38.2998 17.3556C38.2914 17.572 38.2791 17.7802 38.2666 17.9902C38.2535 18.2113 38.2402 18.4344 38.2315 18.671H32.6504V17.3727C33.0429 17.2702 33.4355 17.1677 33.811 17.0823V7.67C33.6626 7.6535 33.5178 7.63701 33.3743 7.62051C33.2949 7.61138 33.2158 7.60226 33.1368 7.59313C32.977 7.57467 32.8171 7.5562 32.6541 7.53775L32.4626 7.51626V6.13259C33.433 5.97074 34.4139 5.83018 35.4223 5.6857L35.437 5.6836C35.7008 5.64579 35.9666 5.6077 36.2346 5.56888Z" fill="#A1A6BA"/>
<path d="M119.234 17.3556C119.2 17.7826 119.183 18.2097 119.166 18.6709C121.061 18.6709 122.904 18.6709 124.815 18.6196C124.832 18.3974 124.845 18.1795 124.858 17.9615C124.871 17.7439 124.884 17.5262 124.901 17.3043C124.729 17.2662 124.563 17.228 124.4 17.1908C124.125 17.1279 123.861 17.0675 123.604 17.0139V7.9774C124.03 7.82366 124.457 7.66992 124.918 7.51618C124.949 7.76929 124.979 8.01303 125.007 8.25173L125.008 8.2535C125.056 8.65855 125.103 9.04913 125.157 9.44647C125.507 9.46355 125.852 9.47636 126.198 9.48916C126.544 9.50198 126.889 9.51479 127.239 9.53188C127.274 9.22182 127.31 8.91405 127.345 8.60887C127.445 7.73716 127.543 6.88661 127.632 6.06419C127.324 5.60296 126.932 5.44923 126.437 5.55172C126.269 5.58631 126.101 5.61661 125.934 5.64676L125.934 5.64686C125.523 5.72089 125.118 5.79403 124.73 5.92753C124.355 6.05274 123.995 6.23104 123.64 6.40684L123.639 6.40709C123.461 6.49504 123.285 6.58236 123.109 6.66207C123.067 6.50229 123.025 6.33011 122.981 6.14959C122.935 5.96338 122.888 5.76829 122.836 5.5688C121.573 5.75671 120.327 5.92753 119.03 6.09835V7.48201C119.447 7.53965 119.828 7.58514 120.193 7.62872C120.261 7.6368 120.328 7.64482 120.395 7.65283V17.0651C120.256 17.0999 120.123 17.1327 119.993 17.1648C119.738 17.2275 119.494 17.2878 119.234 17.3556Z" fill="#A1A6BA"/>
<path d="M69.0133 7.85242L69.0114 7.85311C68.8331 7.91892 68.6613 7.98232 68.4923 8.04572V17.0651C68.7127 17.116 68.9289 17.1627 69.145 17.2094L69.1539 17.2113C69.37 17.2579 69.5862 17.3046 69.8066 17.3555C69.7977 17.4707 69.7888 17.5847 69.78 17.6981C69.7687 17.8431 69.7574 17.9872 69.7461 18.1316C69.7321 18.3101 69.7181 18.489 69.7041 18.6709H64.123V17.3726L65.3007 17.0651V7.65283C65.1661 7.63786 65.0329 7.62289 64.9004 7.60793C64.806 7.59727 64.712 7.58662 64.618 7.57596L64.6036 7.57433C64.3823 7.54926 64.1608 7.52417 63.9353 7.49909V6.11543C65.1812 5.94461 66.4101 5.77379 67.7243 5.58588C67.7755 5.77372 67.8309 5.96157 67.8864 6.14942C67.9419 6.33738 67.9974 6.52535 68.0486 6.71331C68.1999 6.63761 68.3456 6.55913 68.4903 6.48122L68.4905 6.4811C68.7048 6.36569 68.9168 6.25156 69.1409 6.1496C69.8236 5.82503 70.5746 5.70545 71.3256 5.58588C71.8205 5.51755 72.2131 5.63713 72.5374 6.09834C72.4978 6.46617 72.4563 6.83962 72.4143 7.21869L72.4134 7.22594L72.4134 7.22673C72.3287 7.98942 72.2415 8.7749 72.1619 9.58313C71.818 9.57473 71.4782 9.56221 71.1365 9.54963C70.7829 9.53659 70.4271 9.52349 70.0626 9.51479C70.0072 9.08264 69.959 8.67924 69.9087 8.25796C69.8815 8.02982 69.8536 7.79635 69.8236 7.55033C69.5335 7.66048 69.2668 7.75886 69.0133 7.85242Z" fill="#A1A6BA"/>
<path d="M29.0832 5.73957V3.09182C28.644 3.11227 28.2231 3.13271 27.8023 3.15316C27.5199 3.16688 27.2376 3.1806 26.9498 3.19431C26.8094 3.68604 26.6631 4.17777 26.5179 4.66605C26.4159 5.00891 26.3144 5.35008 26.2159 5.68832C25.9407 5.70453 25.677 5.71688 25.4176 5.72904C25.1299 5.74253 24.8475 5.75577 24.5603 5.77373C24.5512 6.08282 24.5373 6.37256 24.5237 6.65582C24.5117 6.90482 24.5 7.14881 24.492 7.39655C24.7142 7.43361 24.9268 7.46747 25.1367 7.50089C25.4105 7.54448 25.6797 7.58735 25.9598 7.63569C25.9769 7.78944 25.994 7.94318 25.994 8.09692V15.7839C25.994 16.0402 25.994 16.2964 26.0281 16.5526C26.1646 17.7826 26.9668 18.6025 28.1786 18.8075C28.9808 18.9442 29.7659 18.8929 30.551 18.7392C30.9094 18.6708 31.2679 18.6025 31.6092 18.3804C31.5809 18.1352 31.5579 17.89 31.5343 17.6391C31.5151 17.4355 31.4956 17.2281 31.4727 17.0138C31.3094 17.0138 31.1521 17.0159 30.9987 17.0178C30.7032 17.0215 30.4223 17.0251 30.1414 17.0138C29.6123 16.9968 29.2368 16.6551 29.1685 16.1256C29.1515 15.9548 29.1515 15.7839 29.1515 15.6131C29.1344 13.0679 29.1344 10.5226 29.1344 7.97734C29.1344 7.8712 29.1479 7.77851 29.1628 7.67539L29.1685 7.63569C29.5455 7.58968 29.9126 7.54862 30.2832 7.50719C30.6004 7.47171 30.9202 7.43595 31.2508 7.39655C31.2636 7.25965 31.2764 7.12382 31.2893 6.98799C31.3276 6.58146 31.366 6.17491 31.4044 5.73957H29.0832Z" fill="#A1A6BA"/>
</svg>
