<svg width="122" height="20" viewBox="0 0 122 20" fill="none" xmlns="http://www.w3.org/2000/svg">
<path fill-rule="evenodd" clip-rule="evenodd" d="M14.9812 4.38212V0.547765L14.9127 0.479294H0.871562V0.616235C1.35101 0.684706 2.58389 1.64329 2.58389 3.14965V16.5699C2.58389 19.1033 1.28252 19.3772 0.734576 19.6511C0.597589 19.6511 0.597589 19.788 0.734576 19.788H7.78937C7.85786 19.788 7.85786 19.6511 7.78937 19.6511C6.62499 19.0348 5.66608 18.6925 5.66608 16.5014V10.1336H10.5291C11.6935 10.1336 12.9264 11.4346 13.4058 12.4616H13.5428V6.36776H13.4058C13.2003 7.53176 11.762 8.69576 10.5291 8.69576H5.73458V1.98565H11.2825C12.9264 1.98565 14.4332 3.28659 14.8442 4.45059C14.8442 4.51906 14.9812 4.51906 14.9812 4.38212ZM50.3921 17.3231L46.488 10.6129C47.0359 10.476 47.6524 10.2021 48.3373 9.85976C51.762 7.80565 51.1455 3.492 49.3647 2.05412C48.0633 1.02706 47.3099 0.547765 44.7757 0.479294H35.1866V0.547765C36.625 1.02706 37.1729 1.64329 37.2414 3.08118V16.5699C37.2414 19.1033 36.077 19.0348 35.2551 19.6511V19.8565H42.1044V19.7195C40.6661 19.0348 40.2551 18.624 40.2551 16.5699V10.9553H43.4743L48.2003 19.8565H52.8579V19.5141C52.0359 19.3772 51.5565 19.2402 50.3921 17.3231ZM43.6113 9.51741H40.1866V1.84871H44.0222C48.4058 1.84871 48.8168 9.51741 43.6113 9.51741ZM99.7072 0.616235C101.077 1.30094 101.556 1.71176 101.556 3.76588V13.6941L90.9401 0.479294H86.5565V0.616235C87.9264 1.30094 88.4058 1.71176 88.4058 3.76588H88.3373V15.7482C88.3373 18.2816 87.3784 19.0348 86.5565 19.6511V19.8565H92.0359V19.7195C90.5976 19.0348 89.9812 18.4186 89.9812 16.2275V4.656L102.31 19.8565H103.132V3.76588C103.132 1.23247 104.159 1.23247 104.981 0.684706V0.479294H99.8442V0.616235H99.7072ZM80.3921 0.616235C81.762 1.30094 82.2414 1.71176 82.2414 3.76588V14.5842C82.2414 16.6383 80.9401 18.5555 77.6524 18.5555C74.0223 18.5555 72.7209 16.2275 72.7209 14.5158V3.76588C72.7209 1.23247 73.6798 1.23247 74.5017 0.684706V0.479294H67.7209V0.616235C69.0907 1.30094 69.5702 1.71176 69.5702 3.76588V13.968C69.5702 16.0221 70.6661 19.9934 77.6524 19.9934C82.7894 19.9934 84.0907 16.5699 84.0907 13.8995L84.0222 3.69741C84.0222 1.164 85.0496 1.164 85.8716 0.616235V0.479294H80.4606V0.616235H80.3921ZM120.872 14.9951C120.187 17.1861 117.995 18.4186 114.844 18.4186C111.283 18.4186 110.735 17.3231 110.598 16.5014V10.2706H114.981C117.515 10.2706 117.789 11.2976 118.406 12.1193H118.543V7.05247H118.406C117.721 8.35341 117.104 8.8327 115.255 8.90117H110.666V1.78023H115.803C117.173 1.78023 119.57 3.21812 119.844 4.45059H119.913V0.479294H105.598V0.616235C106.899 1.23247 107.378 1.64329 107.447 3.08118V16.9807C107.378 18.4871 106.899 19.0348 105.598 19.6511V19.8565H120.118L121.009 14.9951H120.872ZM65.9401 0.479294H53.6113C53.2003 0.410823 52.7894 0.342353 52.7209 0.0684706L51.8305 4.79294L51.899 4.86141C53.4743 2.25953 53.8853 1.78023 58.2003 1.78023V16.4329C58.2003 18.9663 56.899 19.0348 56.1455 19.7195V19.8565H63.4743V19.7195C62.6524 19.1033 61.4195 19.0348 61.4195 16.4329V1.78023C65.7346 1.78023 66.077 2.25953 67.7894 4.86141V4.79294L66.8305 0.136941C66.6935 0.342353 66.351 0.410823 65.9401 0.479294ZM25.3921 0C19.5702 0 14.9127 4.45059 14.9127 9.9967C14.9127 15.5428 19.5702 19.9934 25.3921 19.9934C31.214 19.9934 35.8716 15.5428 35.8716 9.9967C35.9401 4.45059 31.214 0 25.3921 0ZM25.3921 18.7609C21.625 18.7609 18.5428 14.7896 18.5428 9.9967C18.5428 5.20376 21.625 1.36941 25.3921 1.36941C29.2277 1.36941 32.2414 5.27223 32.2414 9.9967C32.2414 14.7896 29.2277 18.7609 25.3921 18.7609Z" fill="#A1A6BA"/>
</svg>
