<svg width="104" height="18" viewBox="0 0 104 18" fill="none" xmlns="http://www.w3.org/2000/svg">
<path d="M15.6227 5.97884V17.6491H20.0898V0H13.9089L10.3128 9.74438L6.68863 0H0.507812V17.6491H4.94676V5.97884L9.32952 17.6491H11.2962L15.6227 5.97884Z" fill="#A1A6BA"/>
<path fill-rule="evenodd" clip-rule="evenodd" d="M28.9115 16.3844V17.6779H32.929V9.68699C32.929 5.72026 30.1195 4.57048 27.1134 4.57048C25.203 4.57048 23.0397 5.14537 21.4383 6.55385L22.8992 9.37081C23.9106 8.47972 25.1468 7.99108 26.383 7.99108C27.9843 7.99108 28.9115 8.73843 28.9115 9.85947V11.1242C28.1529 10.1756 26.692 9.6295 25.0344 9.6295C23.124 9.6295 20.7359 10.6643 20.7359 13.7687C20.7359 16.6144 23.124 17.9654 25.0344 17.9654C26.6358 17.9654 28.1248 17.333 28.9115 16.3844ZM28.9115 13.2226V14.3723C28.5182 14.976 27.5629 15.2922 26.692 15.2922C25.6525 15.2922 24.6973 14.8322 24.6973 13.8262C24.6973 12.8201 25.6525 12.3315 26.692 12.3315C27.5629 12.3315 28.49 12.6189 28.9115 13.2226Z" fill="#A1A6BA"/>
<path d="M33.1818 15.9819L34.8394 13.0787C35.7665 13.9123 37.7612 14.8034 39.2221 14.8034C40.4021 14.8034 40.9078 14.4585 40.9078 13.9123C40.9078 13.3495 39.9892 13.1947 38.8061 12.9953C36.6657 12.6346 33.6594 12.1279 33.6594 8.79579C33.6594 6.55373 35.5698 4.59911 38.9974 4.59911C41.1326 4.59911 42.8744 5.28899 44.223 6.29504L42.7059 9.16949C41.9473 8.42212 40.5426 7.761 39.0255 7.761C38.0984 7.761 37.4803 8.13468 37.4803 8.62334C37.4803 9.1045 38.3262 9.25021 39.44 9.44207C41.5867 9.81183 44.7287 10.353 44.7287 13.7973C44.7287 16.2406 42.6497 17.9653 39.0817 17.9653C36.806 17.9653 34.5023 17.1892 33.1818 15.9819Z" fill="#A1A6BA"/>
<path d="M53.691 10.2043V17.6491H57.6523V8.56584C57.6523 6.20879 56.3599 4.57037 53.5224 4.57037C51.4153 4.57037 49.9544 5.54768 49.1958 6.43876V0H45.2064V17.6204H49.1958V9.37068C49.6734 8.79579 50.4601 8.13468 51.6119 8.13468C52.8762 8.13468 53.691 8.65207 53.691 10.2043Z" fill="#A1A6BA"/>
<path fill-rule="evenodd" clip-rule="evenodd" d="M66.3897 16.3844C65.603 17.333 64.114 17.9654 62.5126 17.9654C60.6022 17.9654 58.2141 16.6144 58.2141 13.7687C58.2141 10.6643 60.6022 9.6295 62.5126 9.6295C64.1702 9.6295 65.6311 10.1756 66.3897 11.1242V9.85947C66.3897 8.73843 65.4625 7.99108 63.8611 7.99108C62.625 7.99108 61.3888 8.47972 60.3774 9.37081L58.9165 6.55385C60.5179 5.14537 62.6812 4.57048 64.5916 4.57048C67.5977 4.57048 70.4072 5.72026 70.4072 9.68699V17.6779H66.3897V16.3844ZM66.3897 14.3723V13.2226C65.9682 12.6189 65.0411 12.3315 64.1702 12.3315C63.1307 12.3315 62.1755 12.8201 62.1755 13.8262C62.1755 14.8322 63.1307 15.2922 64.1702 15.2922C65.0692 15.2922 65.9963 14.976 66.3897 14.3723Z" fill="#A1A6BA"/>
<path fill-rule="evenodd" clip-rule="evenodd" d="M71.7558 0V17.6491H75.7452V16.1831C76.7847 17.4191 78.049 17.994 79.4537 17.994C82.5441 17.994 84.9603 15.6083 84.9603 11.2678C84.9603 7.07113 82.5722 4.57037 79.4537 4.57037C78.0771 4.57037 76.7285 5.11651 75.7452 6.38127V0H71.7558ZM80.8585 11.2678C80.8585 13.1937 79.6785 14.3722 78.1052 14.3722C77.2623 14.3722 76.2228 13.9123 75.7171 13.2224V9.34195C76.2228 8.65207 77.2623 8.16343 78.1052 8.16343C79.6785 8.16343 80.8585 9.37068 80.8585 11.2678Z" fill="#A1A6BA"/>
<path d="M89.4835 0H85.494V17.6491H89.4835V0Z" fill="#A1A6BA"/>
<path fill-rule="evenodd" clip-rule="evenodd" d="M96.6757 4.54157C92.7706 4.54157 90.0454 7.531 90.0454 11.239C90.0454 15.407 92.9954 17.9652 96.8724 17.9652C98.7828 17.9652 100.862 17.4191 102.098 16.2693L100.356 13.5961C99.6257 14.2859 98.1648 14.6884 97.2938 14.6884C95.4958 14.6884 94.4563 13.7398 94.1753 12.59H103.053V11.6702C103.053 7.32978 100.384 4.54157 96.6757 4.54157ZM94.1191 9.8018C94.2596 8.88197 94.9339 7.81844 96.6757 7.81844C98.5019 7.81844 99.1481 8.91073 99.2605 9.8018H94.1191Z" fill="#A1A6BA"/>
</svg>
