<svg width="117" height="26" viewBox="0 0 117 26" fill="none" xmlns="http://www.w3.org/2000/svg">
<path d="M0 0.994751H11.8517V12.8835H0V0.994751Z" fill="#A1A6BA"/>
<path d="M13.0618 0.994751H24.9136V12.8835H13.0618V0.994751Z" fill="#A1A6BA"/>
<path d="M110.609 5.07905C109.378 4.74344 107.968 4.80773 106.872 5.52177C106.175 5.97878 105.662 6.69993 105.434 7.48537C105.246 8.10583 105.254 8.747 105.262 9.38726L105.264 9.52191L105.265 9.62692C105.266 9.8276 105.266 10.0279 105.256 10.2273C104.658 10.2273 104.068 10.2201 103.477 10.2344C103.481 10.6942 103.48 11.1508 103.478 11.6063V11.6139C103.478 11.8421 103.477 12.0701 103.477 12.298C103.594 12.2994 103.711 12.3 103.827 12.3001C103.967 12.3003 104.106 12.2998 104.245 12.2993L104.483 12.2986L104.661 12.2985L104.785 12.2988C104.945 12.2995 105.104 12.3013 105.263 12.3051C105.259 14.228 105.26 16.1541 105.262 18.0811L105.263 19.054C105.263 19.6939 105.263 20.3337 105.263 20.9735H107.826V12.298H111.577C111.577 12.912 111.576 13.5261 111.576 14.1401C111.574 15.3683 111.572 16.5964 111.577 17.8246C111.591 18.6886 111.734 19.6026 112.303 20.2809C112.794 20.8807 113.57 21.1521 114.325 21.2092C115.115 21.2663 115.934 21.1735 116.667 20.8521V18.7457C116.104 19.1242 115.328 19.2741 114.716 18.9314C114.346 18.7243 114.211 18.2959 114.161 17.9032C114.109 17.4653 114.114 17.021 114.118 16.5768C114.119 16.4917 114.12 16.4067 114.121 16.3218C114.121 16.2704 114.121 16.219 114.121 16.1677C114.121 16.082 114.12 15.9965 114.118 15.911C114.118 15.5112 114.119 15.1113 114.12 14.7114L114.121 14.1412C114.121 13.9415 114.122 13.7418 114.122 13.5421L114.121 13.214L114.121 12.8574C114.12 12.6757 114.119 12.4939 114.118 12.3122C114.424 12.3148 114.729 12.3128 115.033 12.3108C115.579 12.3071 116.123 12.3036 116.667 12.3265V10.2415C116.438 10.2435 116.209 10.2438 115.979 10.2436L115.583 10.2429H115.583C115.1 10.2417 114.616 10.2405 114.133 10.2487C114.125 9.63243 114.126 9.01853 114.127 8.4056C114.128 7.94615 114.129 7.48725 114.126 7.02836C113.877 7.1045 113.627 7.1819 113.377 7.25951C112.784 7.44374 112.188 7.62873 111.591 7.79957C111.578 8.30825 111.579 8.81694 111.579 9.32562L111.579 9.69693C111.579 9.87844 111.579 10.06 111.577 10.2415H107.826C107.83 10.1217 107.831 10.0015 107.831 9.88123C107.83 9.77398 107.829 9.66667 107.827 9.55935C107.822 9.14202 107.816 8.72482 107.876 8.31362C107.954 7.8138 108.239 7.30686 108.73 7.11406C109.342 6.85703 110.033 7.02836 110.616 7.28545C110.611 6.74951 110.613 6.21356 110.612 5.67762C110.612 5.47812 110.611 5.27855 110.609 5.07905Z" fill="#A1A6BA"/>
<path d="M51.9982 5.67169C52.5178 5.5931 53.073 5.77161 53.4147 6.17863C53.8133 6.62134 53.8916 7.3282 53.5927 7.8495C53.2652 8.43495 52.5249 8.70634 51.8843 8.56354C51.2223 8.44214 50.6671 7.82091 50.6956 7.12828C50.6742 6.40713 51.2864 5.75732 51.9982 5.67169Z" fill="#A1A6BA"/>
<path d="M36.082 5.99301H32.352C32.352 10.9913 32.352 15.9895 32.3592 20.9806H34.8007V14.2686C34.8033 13.6819 34.8021 13.0942 34.8009 12.5062C34.7989 11.4771 34.7968 10.4473 34.8149 9.42038C34.8321 9.44911 34.8493 9.47895 34.8664 9.5095C34.892 9.55496 34.9175 9.60189 34.9431 9.64889C35.3864 10.7533 35.8291 11.8583 36.2719 12.9636L36.2781 12.9793C37.3477 15.649 38.4179 18.3202 39.4987 20.9878C39.7804 20.9813 40.0606 20.9822 40.34 20.983C40.6749 20.9841 41.0086 20.9851 41.3423 20.9735C42.1486 18.9065 42.9656 16.8437 43.7827 14.7806L43.7939 14.7526C44.4662 13.0549 45.1387 11.3569 45.8054 9.656L45.8262 9.61472C45.837 9.59373 45.8479 9.57316 45.8589 9.5528C45.8847 9.50531 45.9114 9.45929 45.9406 9.4132C45.9477 9.58459 45.9549 9.74881 45.9549 9.91302C45.9513 11.7588 45.9513 13.6046 45.9513 15.4495C45.9513 17.2944 45.9513 19.1384 45.9477 20.9806C46.5905 20.9913 47.2333 20.9899 47.8761 20.9886H47.8872C48.102 20.9882 48.3168 20.9878 48.5316 20.9878V5.99301C48.1897 5.99301 47.8478 5.99182 47.5059 5.99063C46.6519 5.98771 45.798 5.98485 44.9441 6.00012C44.0319 8.26795 43.1117 10.5305 42.1917 12.7925L41.3062 14.9705C41.0213 15.6718 40.7366 16.3732 40.4525 17.0749C40.2707 16.6379 40.0989 16.1986 39.9268 15.7582C39.8091 15.4571 39.6912 15.1557 39.5699 14.8542L37.8244 10.4197C37.243 8.94468 36.6616 7.46975 36.082 5.99301Z" fill="#A1A6BA"/>
<path d="M59.0523 10.2272C60.2909 9.87021 61.6219 9.8845 62.8605 10.2415C63.1168 10.3129 63.3588 10.4129 63.5937 10.5485C63.5855 11.0181 63.5867 11.4877 63.5879 11.956C63.5887 12.3065 63.5896 12.6563 63.5866 13.0049C62.7609 12.3693 61.7145 11.9695 60.661 12.1051C59.8282 12.1837 59.0309 12.6121 58.5327 13.2905C57.892 14.1259 57.7425 15.2398 57.8564 16.268C57.9419 17.0677 58.2693 17.8746 58.8886 18.4029C59.5363 18.9814 60.4403 19.1813 61.2874 19.117C62.1202 19.0171 62.9103 18.6672 63.5866 18.1673C63.5908 18.6328 63.59 19.0956 63.5901 19.559C63.5903 19.8705 63.5908 20.1822 63.5937 20.4951C62.5473 21.1235 61.2874 21.2805 60.0915 21.2234C58.8672 21.1592 57.6429 20.695 56.7531 19.8239C55.7851 18.8885 55.2654 17.5604 55.2014 16.2251C55.1373 14.8399 55.422 13.3904 56.2121 12.2337C56.8741 11.2555 57.9134 10.5557 59.0523 10.2272Z" fill="#A1A6BA"/>
<path d="M90.5928 10.4414C89.4753 10.013 88.2296 9.8631 87.048 10.0702C86.0443 10.2487 85.062 10.7699 84.4997 11.6411C84.0014 12.3836 83.9374 13.3476 84.1438 14.2044C84.2862 14.7828 84.6349 15.2969 85.1047 15.6611C85.6259 16.0602 86.231 16.3221 86.833 16.5828C86.9138 16.6178 86.9945 16.6527 87.0751 16.688C87.1565 16.7237 87.2378 16.7597 87.3185 16.7964L87.3882 16.83C87.7663 17.0121 88.1612 17.2023 88.436 17.5319C88.7492 17.9888 88.6496 18.7386 88.13 18.9956C87.5819 19.2598 86.9412 19.2527 86.3575 19.1599C85.5105 19.0171 84.7204 18.6529 84.0299 18.153C84.0258 18.3905 84.0241 18.6279 84.0235 18.8653C84.0233 18.9544 84.0233 19.0433 84.0233 19.1324C84.0234 19.2792 84.0237 19.4261 84.0241 19.5729C84.025 19.9279 84.0258 20.2829 84.0228 20.6379C84.8414 21.0021 85.7383 21.1806 86.628 21.2377C87.8808 21.2877 89.2475 21.0378 90.1942 20.1523C91.1908 19.2741 91.4257 17.7104 90.8633 16.5322C90.5644 15.9038 89.9878 15.4683 89.397 15.1327C89.0533 14.931 88.6859 14.7782 88.3191 14.6257L88.3181 14.6253C87.8801 14.4432 87.443 14.2615 87.048 13.9974C86.6209 13.726 86.507 13.1334 86.6778 12.6835C86.8985 12.2265 87.4253 12.0266 87.9022 12.0052C88.8489 11.9766 89.8098 12.2622 90.5928 12.8049V10.4414Z" fill="#A1A6BA"/>
<path d="M69.3167 10.4057C70.0213 9.97731 70.9254 9.94161 71.6941 10.2058C71.6894 10.777 71.6909 11.3483 71.6925 11.9195C71.6933 12.2051 71.6941 12.4907 71.6941 12.7764C71.1887 12.4479 70.5552 12.305 69.9644 12.3693C69.2384 12.455 68.6618 13.012 68.3628 13.6546C68.0354 14.3329 67.9784 15.1041 67.9998 15.8467V20.9878H65.4728V10.2486C66.3116 10.2343 67.1575 10.2415 67.9964 10.2486H67.9998C67.995 10.658 67.9966 11.0674 67.9982 11.4768C67.999 11.6815 67.9998 11.8862 67.9998 12.0908C68.2703 11.4197 68.676 10.7699 69.3167 10.4057Z" fill="#A1A6BA"/>
<path d="M51.6577 10.2392H51.6569C51.4947 10.2399 51.3327 10.2407 51.1708 10.2412L50.9305 10.2415V20.9878H53.4716C53.4752 19.1991 53.4752 17.4087 53.4752 15.6182C53.4752 13.8277 53.4752 12.0374 53.4788 10.2486C52.8736 10.2334 52.2649 10.2362 51.6577 10.2392Z" fill="#A1A6BA"/>
<path fill-rule="evenodd" clip-rule="evenodd" d="M80.0793 10.4843C78.9404 9.96302 77.6449 9.89162 76.4135 10.0487C75.1251 10.2058 73.8652 10.8199 73.0466 11.8624C72.2992 12.7835 71.9361 13.9688 71.865 15.147C71.7653 16.5322 71.9931 18.0031 72.8046 19.1598C73.495 20.1594 74.5841 20.845 75.7657 21.0949C76.7551 21.3019 77.7873 21.3019 78.7696 21.0949C79.9156 20.8593 80.9976 20.2166 81.7094 19.2741C82.4069 18.3886 82.7558 17.2676 82.834 16.1466C82.9123 14.997 82.7984 13.8117 82.3215 12.7549C81.8731 11.7624 81.0687 10.9342 80.0793 10.4843ZM79.3248 12.8121C78.7696 12.2551 77.951 12.0338 77.1822 12.0837C76.5701 12.1194 75.9508 12.3265 75.481 12.7549C74.8546 13.3262 74.5698 14.1687 74.4916 14.997C74.4061 15.9038 74.4702 16.8607 74.8831 17.6889C75.2034 18.3315 75.7942 18.8314 76.4917 19.0171C77.1751 19.1956 77.9225 19.1813 78.5845 18.9242C79.154 18.7029 79.6024 18.2316 79.8444 17.6818C80.2146 16.8607 80.2502 15.9395 80.2074 15.0542C80.1434 14.2473 79.9156 13.3976 79.3248 12.8121Z" fill="#A1A6BA"/>
<path fill-rule="evenodd" clip-rule="evenodd" d="M96.8497 10.0415C98.131 9.8845 99.4834 9.97013 100.651 10.5628C101.669 11.0698 102.459 11.998 102.85 13.062C103.156 13.8759 103.263 14.7614 103.249 15.6253C103.249 16.9249 102.9 18.253 102.089 19.2883C101.327 20.288 100.167 20.9306 98.9354 21.1377C97.7324 21.3305 96.4654 21.2805 95.3264 20.8307C94.1733 20.3737 93.2123 19.4454 92.7212 18.2958C92.2158 17.1248 92.1589 15.811 92.3155 14.5614C92.4792 13.3119 93.0486 12.0908 94.0096 11.2626C94.7997 10.57 95.8176 10.1772 96.8497 10.0415ZM97.5402 12.0909C98.2662 12.0409 99.035 12.2051 99.5902 12.6978C100.103 13.1263 100.387 13.7618 100.516 14.4115C100.665 15.1684 100.658 15.9467 100.537 16.7107C100.437 17.2748 100.245 17.8389 99.8749 18.2887C99.5048 18.7386 98.9496 19.0099 98.3801 19.0956C97.768 19.1885 97.1202 19.1456 96.5437 18.8957C95.9244 18.6314 95.4474 18.0959 95.1912 17.4748C94.8851 16.7393 94.8282 15.9181 94.8851 15.1327C94.9421 14.3687 95.1556 13.5833 95.661 12.9906C96.1237 12.4336 96.8284 12.1266 97.5402 12.0909Z" fill="#A1A6BA"/>
<path d="M0 14.0973H11.8517V25.986H0V14.0973Z" fill="#A1A6BA"/>
<path d="M24.9136 14.0973H13.0618V25.986H24.9136V14.0973Z" fill="#A1A6BA"/>
</svg>
