<svg width="220" height="220" xmlns="http://www.w3.org/2000/svg" xmlns:xlink="http://www.w3.org/1999/xlink"><style>.st1{fill-rule:evenodd;clip-rule:evenodd;fill:#1f36c7}</style><defs><path fill="#1F36C7" d="M114.9 10.3c2.1 0 3.5 1.2 3.6 2.7 0 1.1-.9 2-2 2-2.4 0-1.8-1.8-2.8-1.8-2.24 0-3.999 3.443-5.675 7.129l-.258.568-.384.855-.383.848c-.9 1.8-1.3 2.1-2 2.1-1.7 0-2-4.5-2.7-6.5-1.4 3-4.2 6.5-8.6 6.5-2.6-.1-5.1-1.4-5.1-5.4 0-4.5 3-7.7 6-7.7 2.3 0 3.8 2.4 3.8 4-.1 4.4-6 4.5-6 5.4 0 .9 1.5 1.2 2.4 1.2 3.8 0 6.3-4.9 7.2-8.3.2-.6.7-1.8 1.8-1.8 1.2 0 .6 7.4 2.3 7.4 1.1 0 2.5-9.2 8.8-9.2ZM55.7.2c2-.1 3.6 1.8 3.8 4.8.4 8-2.3 11.2-3.7 14.1.3 1.1 2.2 3 4 3 .7 0 1.5-.3 1.7-.6-.2-.5-.3-1-.3-1.9 0-4.6 3.1-8.4 5.7-8.4 2.1 0 3.3 2.7 3.3 4.5 0 2.1-1.8 3.8-4.5 5.4.5.5 1.4.8 2.1.8 3.8.1 5.9-4.5 7.4-8.6.3-.8.8-1.9 1.7-1.9 1.6 0 2.2 10.4 4.9 10.4 1.1 0 2.1-2.3 2.1-4.1.1-1.4-.4-1.5-.4-3.4 0-2.1 1.1-3.9 2.7-3.9 1 0 1.3.9 1.3 2-.1 4.2-3.2 12-7.8 12-3.4 0-3.1-5.8-4.3-5.8-1.3 0-3.2 5.8-9.9 5.8-1.1 0-2.3-.5-3.2-1.6-1.6 1.1-3 1.5-4.5 1.5-2.5 0-3.6-2.5-4.6-2.5-1.2 0-2.6 2.5-6.6 2.5-3.2 0-3.8-4.2-4.9-4.2-1 0-2.6 4.2-4.3 4.2-1.366 0-2.208-1.737-3.003-3.516l-.237-.534C33.409 18.568 32.659 17 31.5 17c-.909 0-2.8 1.693-4.714 3.437l-.522.476c-1.909 1.74-3.751 3.383-4.564 3.287-.7-.1-1-.5-.9-1.2.1-.9 1-3.4 1.3-4.5.6-2 1.1-4.2 1.4-4.9.2-.7 1-1.2 1.6-1.1.3 0 .4.5.5 1 .3 1.6.8 3.3 1.3 3.3.9 0 4.1-5.8 5.9-5.8 2.3 0 2.5 9.2 5.5 9.2 1 0 1.7-1.2 2.4-2.6.1-2.4.8-5.9 2.8-5.9 1.4 0 2 3.1 1 5.8-.1 3.2 2.1 4 3.5 4 1 0 2.7-.3 4.1-2.4-.8-1.7-1.3-5.2-1.4-6.4-.3-6.4 2.2-12.4 5-12.5Zm-38.5 2c1.2-.4 1.7.2 2.2 1.6.6 2.1.6 4.9.4 8.8-.3 5.4-3.1 11.9-10 11.7-6-.1-8.6-3.9-8.8-9.6-.1-2.7.1-5.4 1.3-9.2.7-2 1.2-2.7 3.1-3.1 1.5-.3 1.3 1.2 1 3-.8 3.9-1.1 5.8-.9 10.3.3 4.7 2.5 6.6 4.9 6.6 3.7.1 5.3-2.8 6-7.1.5-3.4.1-5-.2-6.1-.2-.6-.8-1.9-.9-2.9-.4-2.2.8-3.7 1.9-4Zm48.7 12.1c-.6-.1-2 .6-2 2.7 0 1.7.6 2.5.9 2.8 2-.6 2.5-2.2 2.4-3.5 0-1.1-.6-2-1.3-2Zm27.8-.1c-2.6 0-2.4 4.1-2 5 1.9-.3 3.2-1.4 3.5-2.4.3-1-.1-2.6-1.5-2.6ZM55.922 4.093 55.8 4.1c-1.3.1-1.9 4.2-1.7 8.5.2 2.8.6 3.2 1 3.2.7 0 2.5-5.1 2.3-9.1-.1-1.8-.6-2.7-1.6-2.6ZM44.3 1c1.2 0 2 .7 2.1 1.8.2 1.5-.9 3.1-2.4 3.1-1.3 0-1.9-.9-2.1-2C41.8 2.3 43 1 44.3 1Z" id="path-1"/></defs><g id="logo-sketch" stroke="none" stroke-width="1" fill="none" fill-rule="evenodd"><path id="background" fill="#FFF" d="M0 0h220v220H0z"><animate id="o1" begin="0;o1.end" dur="8s" attributeName="visibility" from="hide" to="hide"/></path><g id="text" transform="translate(49 150)"><use id="Mask" xlink:href="#path-1"/></g><path id="fish" class="st1" d="M118.7 129.2c-.4-.7-.1-1.9-1.2-1.9-.7 0-.8.6-.9 1.1-1.5-.5-2.8-.7-4-.7-.8 0-1.5.1-2.2.3-.4-.7-2.2-2.1-3.7-2.6-.6 3.3-3.5 5.8-7.8 6.2-.2 2.1-1.9 2.7-3.2 2.7-.9 0-2.4-.3-2.5-.7-.5-3.1-2.8-4.8-3.9-5.2 0 .3.1.7.1 1 0 2.6-1.8 4.2-5.1 4.2-.5 0-1.2 0-1.7-.1 3.8 4.2 6.5 2.7 8.2 3.5 2.3 1 4.2 4.3 11.6 4.3 2.7 0 5.4-1.1 7.2-2.2.3 1.1 1.4 2.1 3.3 2.1 3.1 0 4.9-1 4.9-1.8 0-.2 0-.5-.6-.5-.5 0-.5.1-2.2.1-2 0-5.2-.8-6.7-4.3-.3-.6-.7-.6-.8-.6-1 0-2.6 3.6-8.9 3.6-2.7 0-3.9-1-3.9-1.2 0 0 0-.1.1-.1.3 0 1.2.1 2.4.1 4 0 7.2-1.9 9.2-4 .7-.8 1-.9 1.6-.9.5 0 1 .4 1.3 1.1.9 2.3 3 4.2 5.2 4.2 3 0 3.1-5.2 3.8-5.5.1 0 .3.1.4.1.4 0 .9-.3.9-.9.1-.8-.8-1-.9-1.4zm-5 3.9c-.8 0-1.4-.6-1.4-1.4 0-.8.6-1.5 1.4-1.5.8 0 1.4.7 1.4 1.4.1.9-.6 1.5-1.4 1.5z"><animate attributeName="fill" values="#1F36C7;#00D7C4;#1F36C7" dur="1s" begin="o1.begin+4s"/></path><path id="chilli_pepper" class="st1" d="M103.3 119.2c.7 0 1 .6 1.1 1.2.2-.2.5-.3.8-.3.7 0 1.1.5 1.1 1.1 0 .4-.2.7-.5.9.4.2.7.5.7.9 0 .5-.4.9-1 .9-.5 0-.9-.6-1.4-.6-.3 0-.7.1-.8.3.2.5.3.9.3 1.4 0 2.6-3.5 4.7-7.2 4.7-3.6 0-5-2.1-5-3 0-.2.1-.3.4-.3.6 0 .7.2 2.4.2 3.9 0 2.5-5 6.2-5 .5 0 1.6.3 2 1 .3-.3.4-.7.4-1 0-.6-.4-1-.4-1.5s.4-.8.9-.9z"><animate attributeName="fill" values="#1F36C7;#EB0000;#1F36C7" dur="1s" begin="o1.begin+4.05s"/></path><path id="swirl" class="st1" d="M80.1 116.6c4.4 0 7.8 3.7 7.8 9 0 2.4-1.3 5.9-6.6 5.9-6.3 0-10.1-5.3-10.1-8.7 0-2.9 1.9-4.7 3.1-5C73 123 75.9 128 81.7 128c2.9 0 4.3-1.4 4.3-3.9 0-2.8-1.9-5.5-5.2-5.5-1.6 0-2.8.9-2.8 2.2 0 2.1 1.8 3.4 3.7 3.4 1.2 0 2-.5 2-1.3 0-.1 0-.3-.1-.4-.1.1-.4.1-.8.1-1.5 0-2.7-.8-2.7-1.7 0-.7.5-1.1 1.1-1.1 2.2 0 3.7 2.2 3.7 3.8 0 1.6-1.2 3-3.2 3-4.3 0-6.2-3.5-6.2-5.8.1-2.5 2.2-4.2 4.6-4.2z"><animate attributeName="fill" values="#1F36C7;#EB0000;#1F36C7" dur="1s" begin="o1.begin+4.1s"/></path><g id="packaging" class="st1"><path d="M132.8 128.4c-.9.7-3.1 2.3-6.8 2.3-2 0-2.8-.6-3.1-.6-.4 0-.8.4-1.2.8-.9 1-2 2.8-2 4.9 0 1.4 1.1 2.8 3.2 2.8 6.8 0 11.8-4.2 11.8-7.5.1-1.9-1.1-2.7-1.9-2.7zm-3.5 6.5-3.9 1.1c.3-.8.5-1.7.5-2.6 0-.3 0-.5-.1-.8h.5c2.9 0 4.1-1.1 4.3-1.1.2 0 .4.1.4.7 0 .8-.4 1.9-1.7 2.7z"/><path d="M127 129.2c1.6 0 3-.4 3.9-1.2.3-.2.4-.6.4-1v-.8c0-1-1.6-1.6-3.8-1.6-2.6 0-4 1.2-4 1.7v1.6c0 .6 1.5 1.3 3.5 1.3z"/><animate attributeName="fill" values="#1F36C7;#001F82;#1F36C7" dur="1s" begin="o1.begin+4.15s"/></g><path id="clothes" class="st1" d="M139.2 112.2c-5.3 0-3.9 4.5-10.1 5.9-1.1.2-1.5.6-1.5 1.1 0 .9.5 2.1 1.2 2.1 2.7 0 6.8-5.5 7.6-5.5.3 0 .6 0 .6.8 0 2-5.8 4.6-5.8 6 0 .8 2 2.6 4.1 2.6 2.9 0 5.5-5.8 6.1-5.8.5 0 .6.3.6.7 0 1.6-2 4.7-5.4 6-.7.3-.8.6-.8.8 0 .8.9 1.9 1.7 1.9 1 0 7.7-5.8 7.7-10.4.2-4.3-3.1-6.2-6-6.2zm2.4 5c-.4 0-.8-.1-1-.3-.5-.2-1.3-.9-1.3-1.9 0-1 .5-1.3 1-1.3 1.5 0 3.2 1.3 3.2 2.4 0 .9-.8 1.1-1.9 1.1z"><animate attributeName="fill" values="#1F36C7;#9C44C0;#1F36C7" dur="1s" begin="o1.begin+4.2s"/></path><path id="spoon" class="st1" d="M91.6 119.6h-.9c-.3 0-.8-.1-1.1-.3-.6-.5-.8-3.2-1.8-4.8-1.2-1.8-2.5-2.3-4.2-2.3-1.2 0-2.6.7-2.6 1.7 0 .6.3 1 2.6 1.6 2.9.7 4.3 2.3 4.6 4.1.3 1.8.6 3.2 1.3 3.9.9 1 2.6 1.9 4.2 1.9 1.3 0 2.3-.4 2.3-1.6-.1-1.3-1.9-4.2-4.4-4.2zm1.9 3.9c-1.1 0-2.7-1.1-2.7-1.8 0-.5.5-.8.9-.8.9 0 2.5 1.1 2.5 2 0 .3-.2.6-.7.6z"><animate attributeName="fill" values="#1F36C7;#E60067;#1F36C7" dur="1s" begin="o1.begin+4.25s"/></path><g id="wave" class="st1"><path d="M113.4 115.9c-.7 0-.7 1.1-.7 1.5 0 .4 0 .5-.3.5s-.5-.1-.8-.1c-.2 0-.4.2-.4.5 0 1.5 1.9 2.7 3.8 2.7 2.5 0 3.7-1.1 4.4-1.1.3 0 .4.3.4.5 0 .4-.4.9-.4 1.1 0 .6 1.2.1 1.2.8 0 .9-1.5 1.6-3.8 1.6-4.5 0-7.4-3.1-7.4-6 0-5.4 5.8-3.7 5.8-5.8 0-.7-.7-1.1-1.2-1.1.6-.8 1.4-.9 2.2-.9.6 0 1.2.1 1.7.1.7 0 1.4-.3 1.4-1.1 0-.5-.4-1.1-2.1-1.3.2-1.1 2.5-.5 2.5-1.5 0-.7-1.3-1.2-2.9-1.2-6.2 0-10.6 5.1-10.6 10.6 0 5 3.6 10.5 10.3 10.5 6.5 0 9.6-5.3 9.6-9.3-1.2 1.1-4.4 1.4-6 1.4-4.7.1-6-2.4-6.7-2.4z"/><path d="M118.5 116.6c1 0 1.7-.8 1.7-1.7 0-1.4-1.4-2.7-3.5-2.7.4.4.5.7.5 1.1 0 .5-.3 1.1-.3 1.7 0 .9.6 1.6 1.6 1.6zM128.6 109.8c.3.4.4.8.4 1.2 0 1-.7 2-.7 3 0 1.2.9 2.2 2.3 2.2 1.5 0 2.5-1.2 2.5-2.6-.1-2-1.8-3.6-4.5-3.8zM121.4 106c.5.6.7 1.2.7 1.9 0 1.6-1.2 3.2-1.2 4.7 0 2 1.3 3.3 3.2 3.3 2 0 3.2-1.7 3.2-3.6 0-2.7-2.1-5.6-5.9-6.3zm2.8 5.7c-.5 0-.9-.4-.9-.9 0-.3.2-.7.2-1.1.1-.5 0-.9.3-.9.6 0 1.3 1.1 1.3 1.8 0 .6-.3 1.1-.9 1.1z"/><animate attributeName="fill" values="#1F36C7;#47C8FF;#1F36C7" dur="1s" begin="o1.begin+4.3s"/></g><g id="bowl" class="st1"><path d="M101.1 107.4c-1.6-.6-2.3-1.5-2.7-3.4-.8 1.1-1.2 2.1-1.2 2.7 0 2.4 3.3 2.4 3.3 4 0 .9-1.7 1.9-3.9 1.9-2.5 0-4.3-.4-5.9-2-.4-.4-.6-.8-1.1-.8-.6 0-.9 1-.9 2 0 3.4 3.3 7.5 7.9 7.5 5.7 0 8-3.9 8-7.1.1-1.9-.3-3.6-3.5-4.8zm-1.6 9.6c-.5 0-.6-.2-.6-.7 0-.3.1-.9.1-1.4 0-1.2.5-1.1 1.7-1.7.9-.4 1.2-.9 1.5-.9.3 0 .6.2.6.7 0 1.8-2 4-3.3 4z"/><path d="M93.8 101.6c-.6 0-1.6-.6-2.6-1.4-1.1 1.1-1.9 2.6-1.9 4.3 0 3.5 3.7 6.4 7.3 6.4.6 0 1.2-.1 1.8-.2-2-.2-3.2-1.7-3.2-3.5 0-2.3 2.6-4.4 2.6-6.2 0-2.2-2.7-2.4-2.7-4.2 0-1.5 2.6-2.6 2.5-5 0-1.4-1.4-3.1-3.3-4.1.3.6.5 1.4.5 1.9 0 2.8-5.4 4-5.4 6.2 0 2.8 5.2 3.9 5.2 5.2 0 .3-.2.6-.8.6z"/><animate attributeName="fill" values="#1F36C7;#9C44C0;#1F36C7" dur="1s" begin="o1.begin+4.35s"/></g><path id="heart" class="st1" d="M148.3 103.4c1.8 0 3.2 2.3 3.2 5 0 2.9-1.4 6-3.8 8.2 0-4.8-5.9-3.3-5.9-6.8 0-1.5 1.1-2.5 2.4-2.5 1.1 0 2 .3 2.7 1-.6-.6-1-1.5-1-2.3 0-1.3.8-2.6 2.4-2.6z"><animate attributeName="fill" values="#1F36C7;#EB0000;#1F36C7" dur="1s" begin="o1.begin+4.4s"/></path><path id="flower" class="st1" d="M77.5 108.3c-.5.1-.9.2-1.2.5-.3-1.1-1.3-2.1-2.7-1.8-1.2.2-2.1 1.3-1.9 2.7 0 .2.1.5.2.7 0 0-.2 0-.4.1-1 .2-2.2 1.2-2 2.7.2 1.3 1.3 2.2 2.6 2.1.5-.1.9-.2 1.2-.4.3 1.2 1.3 1.9 2.6 1.8 1.3-.2 2.2-1.3 2.1-2.6 0-.4-.1-.6-.2-.8h.3c1.3-.3 2.2-1.3 2.1-2.6-.4-1.6-1.5-2.6-2.7-2.4zm-2.6 4.9c-.8.1-1.4-.5-1.5-1.2-.1-.8.4-1.5 1.2-1.6.8-.1 1.4.5 1.5 1.2.1.8-.4 1.5-1.2 1.6z"><animate attributeName="fill" values="#1F36C7;#F752C7;#1F36C7" dur="1s" begin="o1.begin+4.45s"/></path><g id="transformation" class="st1"><path d="M142.3 102.3c0-.5 1.2-1.7 1.2-2.1 0-.1-.1-.2-.2-.2-.5 0-2.2 1.3-4.7 1.3-1 0-1.7-.1-1.7-.9 0-.7.6-1.3 1.6-1.7 1.1-.5 3.3-.5 3.3-1 0-.4-2.1-.4-2.1-.8 0-.5.8-1.7.8-2.2 0 0 0-.2-.1-.2-.4 0-1.4 1.2-2 1.2-.6 0-1.1-1.5-1.6-1.5-.1 0-.3.1-.3.4 0 .6.3 1.7.3 3.2 0 1.3-.7 2.4-1.4 2.4-.9 0-1.2-1.1-1.2-2 0-1.3.7-2.8.7-4.2 0-.3-.1-.4-.3-.4-.5 0-1.3 1.5-1.9 1.5-.4 0-1.1-1.8-1.7-1.8-.1 0-.2.3-.2.7 0 .5.1 1.2.1 1.5 0 .4-.5.5-1.1.5-.4 0-1.2 0-1.2.3s.8.6 1.5 1.1c1.3.9 3.4 1.8 3.4 3.9 0 1.9-2.7 3.2-4.6 3.6-.9.1-1.8.3-1.8.6 0 .4 2.4.5 2.4 1 0 .3-1.1 1.7-1.1 2.1 0 .1.1.1.1.1.4 0 1.6-1 2.1-1 .7 0 .6 2.1 1.1 2.1.6 0 .4-3.1.6-3.9.4-1.4 1.4-2.8 2.3-2.8 1.1 0 1.2 1.9 1.2 2.8 0 1.8-1.3 3.7-1.3 4.6 0 .1.1.2.2.2.4 0 1.3-1.2 1.8-1.2s1.6 2 2 2c.2 0 .3-.2.3-.4 0-.6-.3-1.6-.3-2.2 0-.7 2.3-.3 2.3-.8 0-.2-1-.6-1.6-1-1.3-.8-2.8-2.5-2.8-3.9 0-.5.3-.9.7-.9 2.8 0 4 4.3 4.5 4.3s.2-1.9.4-2.2c.1-.1.4-.2.7-.2.5 0 1.1.1 1.5.1.3 0 .4 0 .4-.1-.1-.6-2.3-1.3-2.3-1.9z"/><path d="M131.2 101.1c0-.9-3.9-3.9-4.7-3.9-.2 0-.3.1-.3.3 0 .3.1.7.1 1 0 .7-.3.8-1 .8-.8 0-2.1-.3-2.1-1.6 0-2.5 4.8-1.9 5.3-4.2-2.1 0-3.1-1.4-4.5-1.4-.5 0-1.5.3-1.5 1.6 0 .4.1 1.1.1 1.7 0 .6-.1 1-.8 1-.6 0-.7-.7-.7-1.5 0-.7.1-1.5.1-2 0-3.7-4.1-2.2-4.5-5.2-1 1.8-1.3 3.1-1.3 4.2 0 3.9 5.3 3.5 5.3 6.2 0 .7-.5 1.1-1 1.1-.9 0-1.5-1.9-2.9-1.9-.7 0-1.2.5-1.2 1.6 0 .8.2 1.4.2 2.2 0 1.6-.7 2.3-1.4 3 4.8-.4 5.1-4 6.5-4 .4 0 .6.3.6.5 0 .6-1 1.6-1 2.6 0 1.3 1.5 2 2.5 2 1.2 0 1.6-.4 1.6-1.2 0-.9-1.6-2.1-1.6-3.1 0-.5.5-.6 1.2-.6 1.5 0 2 .2 2 .5 0 .4-.6 1.2-.6 1.4 0 .1.1.4.4.4 1.1.2 5.2-.7 5.2-1.5z"/><animate attributeName="fill" values="#1F36C7;#00D7C4;#1F36C7" dur="1s" begin="o1.begin+4.5s"/></g><path id="hair" class="st1" d="M80.7 87.6c-.7 1.3-.9 3-.9 4 0 6.1 7.3 11.8 7.3 15.6 0 1.5-1.1 3.3-3.1 3.3-1.8 0-2.8-1.4-2.8-2.6 0-.9.6-1.7.9-1.7.1 0 .1.1.1.3 0 .5.4 1.2 1.2 1.1.8 0 1.2-.5 1.2-1.2 0-3-6-8.2-6-15.3-.3.8-.7 1.8-.7 3.3 0 3.4 2.5 7 2.5 10.3 0 1.3-1 2.5-2.3 2.5-1.5 0-2-1.2-2-1.9 0-.5.2-1 .4-1s.1.8.9.8c.9 0 1.2-.6 1.2-1.7 0-3-1.7-5.1-1.7-8.2 0-.5 0-1 .1-1.4-.9 1.1-1 2.7-1 4.1v3.7c0 2.5-1.2 3.6-2.7 3.6-1 0-1.9-.8-1.9-2.1 0-.2.1-.8.3-.8.3 0 .5.8 1.3.8 1.6 0 1.7-1.5 1.7-4.6-.2-3.8 1.2-7.9 6-10.9z"><animate attributeName="fill" values="#1F36C7;#CF98D9;#1F36C7" dur="1s" begin="o1.begin+4.55s"/></path><path id="hand" class="st1" d="M70.8 85.8c.5 0 .7.5.7.9 0 1.7-2.2 6.7-2.2 8.1 0 .2.1.4.3.4.9 0 2.7-3.9 3.3-5.8.3-1 .8-1.5 1.2-1.5.4 0 .7.4.7 1.2 0 1.9-1.8 6.5-3.4 9.5-1.2 2.4-3.2 5.8-3.2 7.7 0 1 .2 2 1.6 3.2-2.3-.1-3.3-.4-4.2-2.1-3.9 7.6 7.2 6.9 3.4 13.7-.7-1.2-6.2-2.5-6.2-9.6 0-6.1 5.5-9.7 5.5-12.3 0-.5-.2-.9-.7-1.3-1.2-1-1.2-1.8-2.2-1.8-.7 0-1.5 1.6-.7 3 .3.5.5.8.5 1.2 0 1-1.6 3.7-2.7 3.7s-2-2.8-2-7.2c0-3.9.9-7.9 2-7.9.3 0 .4.2.4.5 0 .5-.1 1.4-.1 3 0 1.7.4 1.8.7 1.8 1.2 0 1-7.5 3-7.5.5 0 .6.5.6 1 0 1.7-.8 4.2-.8 5.5 0 .7.2.9.5.9 1-.1 2.5-8.3 4-8.3z"><animate attributeName="fill" values="#1F36C7;#FFC000;#1F36C7" dur="1s" begin="o1.begin+4.6s"/></path><path id="plant" class="st1" d="M152.1 95.6c-1.7 0-2.6 3-4.3 3.1 1-4.3 5.3-6.6 5.3-10.6 0-4.6-3.8-6.2-5.4-7.2-2.6-3.8-4.5-6.8-8.8-6.8-1.8 0-3 .3-4.2.3-2.4 0-3.2-.9-3.3-.9 0 0-.1 0-.1.2 0 3.4 1.8 11 9.4 11 4.1 0 5.8-1.6 6.8-1.6s4.3 1.1 4.3 5c0 2.1-1.7 4.3-2.3 4.3-.6 0-1.2-1-1.2-2 0-1.1.6-3.2.6-4.5 0-.5-.1-.7-.4-.7-.6 0-3.7 2-3.7 4.4 0 2.1 3.1 3.4 4.3 4-1.2 1.9-1.9 3.2-2.4 5 0-1.4-1.3-4.1-1.7-5.3-1.9-5.4-2.6-6.4-6.7-6.9.6 2.2 7.6 7.4 7.6 12.7 0 .3 0 .8-.1 1-2.1-6.2-5.7-7.7-7-9.2-2.1-2.4-.9-4.7-4.3-6 .2.3.3.7.3 1 0 1.2-.6 2.6-.6 3.6 0 3.8 4.3 2.6 6.9 4.7 2.5 2 3.9 5.3 4.9 9 1-1.6 1.6-3.6 3.3-3.6 1.1 0 1.5 1.4 1.5 2.5v.5c1.7-1.5 2.6-3.9 2.6-5.5-.1-.8-.5-1.5-1.3-1.5zm-6.8-14.1c-.4 0-1-.2-1.5-.2-1.2 0-2.1 1.7-2.7 1.7-.2 0-.3-.2-.3-.4 0-.7 1.2-1.5 1.2-2 0-.3-.5-.4-.7-.4-1.2 0-2.9 1.7-3.9 1.7-.2 0-.4-.1-.4-.3 0-.5 1.3-1.1 1.3-1.6s-.5-.5-.9-.5c-.6 0-1.8.3-2.5.3-.4 0-.7-.1-.7-.4 0-.7 2.3-.3 2.3-1.1 0-.4-.7-1.2-.7-1.6 0-.2.2-.3.4-.3.8 0 1.7 2.3 2.6 2.3.4 0 .5-.3.5-.8s-.1-.7-.1-1.1c0-.4.2-.5.3-.5.6 0 1.1 3.2 2.8 3.2.7 0 .2-2 .9-2 .4 0 .5.6.5.9.2 2.1 2.1 2.2 2.1 3-.1-.1-.2.1-.5.1z"><animate attributeName="fill" values="#1F36C7;#00D7C4;#1F36C7" dur="1s" begin="o1.begin+4.65s"/></path><g id="particles" class="st1"><path d="M121.4 76.8c.8 0 1.4.6 1.4 1.3 0 .7-.6 1.3-1.4 1.3-.7 0-1.4-.6-1.4-1.3 0-.7.7-1.3 1.4-1.3zM130.6 89.4c-.7 0-1.4.6-1.4 1.3 0 .8.7 1.3 1.4 1.3.8 0 1.4-.6 1.4-1.4 0-.7-.6-1.2-1.4-1.2zM126 86.9c-1.4 0-2.5 1.1-2.5 2.4 0 1.3 1.1 2.4 2.5 2.4s2.5-1.1 2.5-2.4c0-1.3-1.1-2.4-2.5-2.4zM121.6 85.8c-.8 0-1.4.6-1.4 1.4 0 .8.7 1.4 1.4 1.4.8 0 1.4-.6 1.4-1.4 0-.8-.6-1.4-1.4-1.4zM130.4 88c.9 0 1.7-.7 1.7-1.6 0-.9-.8-1.6-1.7-1.6-.9 0-1.7.7-1.7 1.6 0 .8.8 1.6 1.7 1.6zM117.4 82.9c-1.1 0-2.1.9-2.1 2s.9 2 2.1 2c1.1 0 2.1-.9 2.1-2-.1-1.1-1-2-2.1-2zM124.9 84.4c0 .8.6 1.4 1.4 1.4.8 0 1.4-.6 1.4-1.4 0-.8-.6-1.4-1.4-1.4-.8 0-1.4.7-1.4 1.4zM122.1 84.8c1.2 0 2.2-.9 2.2-2.1 0-1.2-1-2.1-2.2-2.1-1.2 0-2.2.9-2.2 2.1 0 1.1.9 2.1 2.2 2.1zM130.1 83.4c.8 0 1.5-.7 1.5-1.5s-.7-1.5-1.5-1.4c-.8 0-1.5.7-1.5 1.5s.7 1.4 1.5 1.4zM118 81.4c.8 0 1.4-.6 1.4-1.4 0-.8-.6-1.4-1.4-1.4-.8 0-1.4.6-1.4 1.4-.1.8.6 1.4 1.4 1.4zM126.2 81.3c1.3 0 2.3-1 2.3-2.2 0-1.2-1-2.2-2.3-2.2-1.3 0-2.3 1-2.3 2.2 0 1.2 1 2.2 2.3 2.2zM127.9 76.1c.8 0 1.4-.6 1.4-1.3 0-.7-.6-1.3-1.4-1.3-.8 0-1.4.6-1.4 1.3.1.8.7 1.3 1.4 1.3z"/><animate attributeName="fill" values="#1F36C7;#FFA91F;#1F36C7" dur="1s" begin="o1.begin+4.7s"/></g><path id="tree" class="st1" d="M87.5 77.9c.9 0 2.5 1.5 2.9 3.1-.2 0-.4-.1-.5-.1-1.2 0-1.8 1.1-2.7 3 2.1-1.4 4-2.5 6.2-2.5 1.9 0 3.4 1.1 3.4 2.8 0 .7-.4 1.5-.8 2.3-.3-1.6-1.6-2.3-3.9-2.3-1.3 0-2.9.2-4.2.7 4.1.6 4.7 2 4.7 3.3 0 2.2-2.3 3.3-3.8 4 .1-.6.3-1.3.3-2 0-1.3-.5-2.9-2.6-4.3-.3 1.4-1.5 2.3-1.5 3.4 0 .4.3.6.5.6 0 .6-.3 2.4-.3 2.9 0 .9.2 1.1.7 1.2.3.8.3 2.2.5 2.9.1.4.4.5.7.5.3.7.7 1.8 1.3 2.2.1.1.3.4.3.6 0 .6-1 1.3-1.6 1.3-.2 0-.5-.1-.8-.8-.2-.5-2-1.6-2.1-2.2.1-.1.2-.3.2-.6 0-1-1.6-2.1-1.6-3.7.2-.1.4-.4.4-.7 0-.9-.9-2.6-.9-3.8.4 0 .6 0 .6-.6.1-1.2.3-2.9 1.4-3.9-.3 0-.6-.1-1-.1-2.2 0-5.5 1.2-6.8 4-.1-.4-.1-.8-.1-1.2 0-2.3 1.4-3.8 2.5-4.3.5-.2 1.2-.3 1.9-.3 1.2 0 2.5.2 3.9.5-1.2-1.6-3.1-2.7-4.7-2.7-.7 0-1.3.2-1.5.8-.1-.3-.1-.8-.1-1.2 0-1.7.6-2.7 2.1-2.7 2.2 0 4.2 2.6 5.3 5v-.3c0-3.4.1-5.1 1.5-5.2l.2.4z"><animate attributeName="fill" values="#1F36C7;#00D7C4;#1F36C7" dur="1s" begin="o1.begin+4.75s"/></path><g id="bee" class="st1"><path d="M59.7 83.6c0 2.7.9 4 2.4 4 1.2 0 2.8-.8 4.7-2.4-1.5.3-2.6.5-3.6.5-1.3 0-2.4-.5-3.5-2.1zM70.1 79.9c-.9.2-2.6 1.2-2.6 3 0 1.3 1 2.1 2.3 2.1.7 0 1.2-.1 1.5-.4-1-1-1.4-2-1.4-3.1 0-.7.1-1.2.2-1.6zM73.2 77c-.8.9-1.7 2.5-1.7 4.1 0 1.9 1.2 3.5 3.1 3.5 1.8 0 2.7-1.5 2.7-3 .1-2.4-2.2-4.1-4.1-4.6zM61 80.4v.5c0 1.7.9 2.6 2.2 2.6.9 0 2-.5 3-1.7-.4.1-.9.1-1.3.1-1.5.1-3-.3-3.9-1.5zM68.4 71.2c-1.2 0-2.7.1-4.3 1.1-3.2 2-2.8 5.2-3.3 6.1-.1.1-.1.2-.1.4 0 .3.4.7.7.7.3 0 .5-.1.6-.1.9 0 1.9.6 3.4.6.9 0 1.9-.3 3.1-.9 2.7-1.3 3.7-4.5 3.7-5 0-.7-.6-.6-1-1.2-.5-.6-.3-1.2-.6-1.5-.2-.2-.7-.2-1.4-.2h-.8zm-2.2 7.1c-1.2 0-2.6-1.5-2.6-2.8 0-.7.6-1.6 1-1.6.1 0 .2.1.3.4.2 1.7 1.4 2.7 2.5 3.2.1.1.2.1.2.2-.1.3-.8.6-1.4.6zm4.4-3.3c0 .5-.3 1.1-.9 1.1-1.3 0-2.3-1.9-2.4-3 0-.7.4-.7 1-.7.3 0 .4 0 .6.1.3.2.3.9.7 1.4.3.4 1 .8 1 1.1zM73.4 73.4c0 .8.7 1.4 1.5 1.4s1.5-.6 1.5-1.4c0-.8-.7-1.4-1.5-1.4-.8-.1-1.5.6-1.5 1.4zM72.9 71.6c.8 0 1.5-.6 1.5-1.4 0-.8-.7-1.4-1.5-1.4s-1.5.6-1.5 1.4c.1.7.7 1.4 1.5 1.4zM62.8 70.9c1.3 0 2.4-.8 2.4-.8-2.2-.6-3.4-2.1-3.4-4.2v-.6c-1.4.6-2 1.7-2 2.8.1 1.7 1.4 2.8 3 2.8zM69.3 69.3c.2-.6.3-1.3.3-2.1 0-1.7-.8-4.3-3.4-4.3-1.5 0-2.5 1.1-2.5 2.4.1 2.9 3.1 4 5.6 4z"/><animate attributeName="fill" values="#1F36C7;#FFE300;#1F36C7" dur="1s" begin="o1.begin+4.8s"/></g><g id="ice_cream" class="st1"><path d="M151.5 68.4c-1.6 3.2-5.6 3.9-6.9 3.7.4 3.3 5.3 7.7 6.6 7.6.9-.1 1.2-4.3 1.2-7.6 0-1.9.1-3.4-.9-3.7zM151.6 65.3c0-1.2-.5-2.1-1.9-2.3.2.3.3.6.3 1.1 0 1.9-2.8 4-5.9 4-1.1 0-1.5.8-1.4 1.2 0 1 .9 1.4 2.2 1.4 3.5-.1 6.7-2.9 6.7-5.4z"/><path d="M144.1 66.8c1.4 0 4.4-1.2 4.4-2.8 0-.5-.2-1-1-1-1.1 0-2.6 1.1-4.1 1.1-.5 0-1.1 0-1.7-.2.6.4.5 1.4.8 2.1.5.8 1.1.8 1.6.8z"/><animate attributeName="fill" values="#1F36C7;#F752C7;#1F36C7" dur="1s" begin="o1.begin+4.85s"/></g><g id="cycle" class="st1"><path d="M125.3 67.6c0 3.2-2.2 4.5-4.2 4.5-.5 0-.9-.1-1.3-.3.4-.4.8-1 .8-1.4 0-.3-.2-.4-.5-.4-.2 0-.7.1-1.1.1-1 0-1.8-.4-2.7-1.3-.6.9-.9 2.1-.9 3.3 0 1.9.7 3.8 1.5 3.9.4 0 .4-1.3 1.1-1.3.2 0 1 .6 2.7.6 2.5 0 5.3-1.5 5.3-5.4-.1-.5-.3-1.7-.7-2.3z"/><path d="M119.6 65.6c.5 0 1.5.2 1.8.7-.4.2-.8.7-.8 1.1 0 .2.1.4.3.5.9.4 1.4 1.1 1.7 1.7 1.6-.9 2.2-3.4 2.2-4.8 0-.4 0-1-.4-1-.3 0-.6.4-1 .4-.3 0-1.2-1.2-3.4-1.2-2.5 0-3.6 1.9-3.6 3.5 0 .4.1.9.2 1.2.5-1 1.5-2.1 3-2.1z"/><animate attributeName="fill" values="#1F36C7;#47C8FF;#1F36C7" dur="1s" begin="o1.begin+4.9s"/></g><path id="DNA" class="st1" d="M94.3 67.7c-1.8 0-3.4 1.5-4.6 3.5.1-.4.1-.8.1-1.2 0-2.8-1.5-5.2-4.2-5.2-2.2 0-4.3 1.3-5.1 3.9.2-.2 1-.7 1.6-.7.7 0 .9.6.9 1.6 0 .6-.1 1.4-.4 2.1-.4 1.2-1.2 1.5-1.6 1.5-1.7 0-.9-2.9-1.8-2.9-.7 0-.9 1.6-.9 2.2 0 2 1.3 4.1 4.2 4.1 3.1 0 4.8-1.5 6.6-3.4.4 2.1 1.5 5.8 4.6 5.8 1.7 0 2.9-1.4 3-3.1-.2.2-.5.4-.9.4-.6 0-.8-.9-.8-1.7 0-1.3.4-2.7 1-2.7.3 0 .5.2.6 1.2.1.7 0 1.6.5 1.6s.7-1.5.7-2.4c-.1-2.6-1.2-4.7-3.5-4.6zM84 74.5c-.3 0-.4-.3-.4-.5 0-1.4 1.5-7.6 2.6-7.6.2 0 .3.2.3.5 0 1.1-1.3 7.6-2.5 7.6zm4.6-2.7c-.9 1-1.4 1.5-1.8 1.5-.2 0-.4-.4-.4-.8 0-.7.5-3.6 1.6-3.6.4 0 .7.8.7 1.5 0 .6 0 1-.1 1.4zm2.1 2.5c-.3 0-.6-.6-.6-1.8.6-1 .9-1.4 1.3-1.4.1 0 .3.1.3.7-.1 1.3-.6 2.5-1 2.5zm1.8 2.1c-.2 0-.4-.3-.4-1.1 0-1.9 1.2-5.4 1.9-5.4.2 0 .3.5.3 1 .1 2.1-.9 5.5-1.8 5.5z"><animate attributeName="fill" values="#1F36C7;#E60067;#1F36C7" dur="1s" begin="o1.begin+4.95s"/></path><path id="lips" class="st1" d="M138.4 63.6c-.7 0-1.8.8-2.6.8-1.1 0-.8-1.5-2-1.5-.3 0-.6.1-.9.3-2.5 1.3-4.5.8-4.9 1.1-.1.1-.2.1-.2.4 0 2.8 2.8 7 7.4 7 3.2 0 5.8-1.1 5.8-3-.1-1.6-1.6-5.1-2.6-5.1zm-2.9 5.4c-2.6 0-4.2-1.5-4.2-2.4 0-.1.1-.2.2-.2.4 0 1.5.6 3 .8 1.7.3 2.6.3 3.1.3s.7.1.7.3c-.1.5-1.3 1.2-2.8 1.2z"><animate attributeName="fill" values="#1F36C7;#EB0000;#1F36C7" dur="1s" begin="o1.begin+5s"/></path><path id="dove" class="st1" d="M152.4 46.8c-1.8 0-2-.5-3.2-.5-1.4 0-2.4 1-2.4 2.5 0 .5.2 1.3.2 2.3 0 1.2-.2 2.4-1.3 2.4-1 0-1.4-.7-1.4-1.5 0-1.4.7-2.4.7-3.3 0-1.7-2-2.2-4.2-2.2-2.6 0-5.4.7-5.4 1.1 0 .6 3.7.2 6.4 3.7-1.7 0-5 .8-5 1.3 0 .6 6 1.2 6 3.7 0 1.6-1.3 1.8-1.8 1.8-2 0-3-2.1-3.5-2.1-.1 0-.3.1-.3.3 0 .3.3 1.2.3 2.1 0 2.3-2.5 2.5-2.5 3 0 .2.1.2.4.3 1.8.3 3.7.4 5.4.4 6.4 0 11.5-2 11.5-7.6 0-3.1-1-4.1-1-5.6-.2-.5.2-1.6 1.1-2.1zM143.5 59h-1.3c4.1-.7 6.4-3.1 6.4-6.3.9.3 1.5 1.2 1.5 2.2-.1 1.9-1.8 4.1-6.6 4.1zm5.7-9.7c-.5 0-.9-.4-.9-.9s.4-.9.9-.9.9.4.9.9-.4.9-.9.9z"><animate attributeName="fill" values="#1F36C7;#00D7C4;#1F36C7" dur="1s" begin="o1.begin+5.05s"/></path><path id="spark" class="st1" d="M127.5 45.6c-2.4 0-4.2 1.2-5.2 1.2-.6 0-1.4-1.4-1.9-1.4-.2 0-.4.4-.4 1v.2c0 .5-.1 1.4-.4 1.4-.9 0-4.3-2.4-4.3-1.6 0 .8 2.3 3.3 2.3 3.9 0 .6-2.2 1.2-2.2 1.7 0 .8 2.4.9 2.4 1.9 0 1-2.5 1.8-2.5 2.5 0 .6 2.5.2 2.5.9s-1.8 3.2-1.8 3.9c0 .2 0 .2.2.2.7 0 2.8-2.3 3.3-2.3.6 0 .7 1.4.8 2.2.1.4.1.5.3.5.4 0 1.1-1.6 1.6-1.6.7 0 2.5 1.9 5.6 1.9 4.4 0 8.5-3 8.5-8.3.1-5.2-3.7-8.2-8.8-8.2zM121.4 57c-.1 0-.2-.1-.2-.3l-.1-1.4c0-.1-.1-.3-.3-.3h-1.5c-.2 0-.3 0-.3-.1 0-.3 1.5-1.3 1.5-1.5 0-.4-1.4-1.1-1.4-1.6 0-.1.1-.1.2-.1.4 0 1.1.1 1.6.1s.5-2 .9-2c.3 0 .7 1.9 1.1 1.9.5 0 1.3-.5 1.7-.5.1 0 .1 0 .1.1 0 .2-.9 1.2-.9 1.5 0 .3 2 .7 2 1 0 .4-2.1.3-2.1.6 0 .2.8 1.2.8 1.6 0 .1 0 .1-.1.1-.3 0-1.4-.5-1.7-.5-.4 0-1 1.4-1.3 1.4zm6.2 3.1c-2.5 0-4.2-1.2-4.2-1.9 0-.3.2-.5.5-.5.8 0 2.5 1.2 3.1 1.2.1 0 .3-.1.3-.3 0-.6-.6-1.7-.6-2.2 0-.1.1-.2.3-.2 1 0 2.4.4 3.2.4.3 0 .3-.1.3-.3 0-.8-2.4-2.3-2.4-2.8 0-.4 2.9-1.1 2.9-1.7 0-.7-4-.2-4-.9 0-.5.8-1.3.8-1.7 0-.2-.1-.2-.4-.2-.3 0-2.1.7-2.8.7-.4 0-.8-.1-.8-.6 0-.8 1.4-1.7 3.6-1.7 3.6 0 5.7 2.4 5.7 6.4.1 5-3.5 6.3-5.5 6.3z"><animate attributeName="fill" values="#1F36C7;#FCA6DE;#1F36C7" dur="1.5s" begin="o1.begin+5.1s"/></path><g id="sun" class="st1"><path d="M89.6 55.8c1.4 0 5.6 1.9 7.5 1.9.7 0 1.1-.4 1.1-.8 0-2.2-5.9-6.1-6-7.7 0-.2.1-.3.2-.4 1-1.1 5.2-1.8 5.2-2.7 0-.5-.9-.5-1.3-.5-3.4 0-8.3 1.2-8.3 2.4s4.4 4.2 4.4 5.7c0 .4-.3.5-.7.5-1.2 0-3.9-1.5-5.2-1.5-.6 0-.8.4-.8 1 0 1.7 2.1 5 2.1 6 0 .1 0 .3-.2.3-.7 0-3.7-3.6-4.8-3.6-.4 0-.4.5-.4 1.3v1.2c0 .8 0 1.3-.4 1.3-.9 0-1.4-2.6-2.3-2.6-.9 0-1.1 4.7-2 4.7-1.1 0-.2-5.1-1.2-5.1-1.1 0-2.4 3.4-3.2 3.4-.3 0-.4-.3-.4-.5 0-1 .6-2.7.6-3.7 0-.5-.1-.8-.6-.8-1.1 0-3.6 1.8-4.5 1.8-.1 0-.3-.1-.3-.2 0-.9 4-3.6 4-4.8 0-1.2-5.5-.4-5.5-1.8 0-1.1 3.9-2.3 3.9-3.5 0-1-4.6-1.5-6.4-1.5-2.1 0-3.3.3-3.3.9 0 .9 4.9 1.2 4.9 2s-5.1 2.9-5.1 4.1c0 1.1 7.1.1 7.1 1.2 0 1.2-6.2 6.5-6.2 8.3 0 .4.3.6.7.6 1.9 0 6.8-3.6 8.1-3.6.5 0 .5.6.5 1.1 0 .9-.3 2.4-.3 3.4 0 .8.2 1.4.9 1.4 1.3 0 2.6-2.3 3.5-2.3 1.2 0 .5 6.6 2.2 6.6 1.5 0 2.1-7.2 3-7.2.9 0 1.7 2.1 2.6 2.1 1.1 0 .6-3.6 1.7-3.6 1.3 0 4.9 4.3 6.6 4.3.5 0 .7-.4.7-.9 0-1.9-2.7-6.2-2.7-7.6.1-.5.2-.6.6-.6z"/><path d="M91.9 58.3c-.1 0-.2.1-.2.2 0 1.3 4.6 7.4 5.4 7.4.7 0 1.3-1.3 1.3-2.3 0-.3-.1-.6-.2-.8-.7-1-5.3-4.5-6.3-4.5zM65 54.8c0-.3-.6-.4-1.1-.4-.8 0-1.9.2-2.4.6-.4.3-.7 1.3-.7 2 0 .4.1.8.5.8.9.1 3.7-2.3 3.7-3zM71.5 50.3c.8 0 2.1-.4 3-.4.5 0 1 .1 1 .6 0 .9-2 2.5-2 3.2 0 .2.2.3.4.3.7 0 2-1.8 3.1-1.8 1.9 0 .7 4.1 1.7 4.1 1.1 0 .6-4 2.2-4 1.3 0 2.2 2.8 3.1 2.8.2 0 .4-.2.4-.4 0-.8-1.1-2.3-1.1-3.3 0-.6.4-.9 1-.9.8 0 2 .5 2.6.5.2 0 .4-.1.4-.3 0-.9-3.2-1.8-3.2-2.9 0-1.1 1.8-1.1 1.8-1.6 0-.2-1.1-.4-2.6-.4-2.4 0-2 1.9-3.9 1.9s-1.4-2-3.8-2c-1.5 0-2.8.3-2.8.6 0 .4 1.7.2 1.7 1.4 0 1.3-3.7 1.6-3.7 2.4 0 .1.3.2.7.2zM94.4 49.8c0 .6 2.3 2 3.3 2 .6 0 .8-.8.8-1.7 0-1.1-.5-1.1-1.4-1.1-1.2 0-2.7.3-2.7.8z"/><animate attributeName="fill" values="#1F36C7;#FFE300;#1F36C7" dur="1s" begin="o1.begin+5.15s"/></g></g></svg>