<svg xmlns="http://www.w3.org/2000/svg" width="18" height="13.922" viewBox="0 0 18 13.922">
  <path id="Path_10164" data-name="Path 10164" d="M11.355-1.039l6.434-6.434a.692.692,0,0,0,.176-.246A.915.915,0,0,0,18-8a.915.915,0,0,0-.035-.281.938.938,0,0,0-.176-.246l-1.617-1.617-1.617-1.582-1.582-1.617-1.617-1.617-.281.246-.246.281-.527.492,1.3,1.3,1.266,1.266,1.3,1.3,1.266,1.266-3.867.035-3.832.035L3.867-8.7,0-8.668v1.477l3.9-.035,3.9-.035L11.672-7.3l3.9-.035-1.336,1.3L10.3-2.059l.281.246.246.246.281.281Z" transform="translate(18 -1.039) rotate(180)" fill="#707896"/>
</svg>
