<?xml version="1.0" encoding="UTF-8"?> <svg xmlns="http://www.w3.org/2000/svg" width="61" height="70"><g data-name="Group 4523"><g data-name="Group 1159"><path data-name="Path 1966" d="M56.824 0H23.202v18.991h.326c2.892-3.726 6.456-4.169 10.361-3.891 5.767.341 11.391 3.844 11.768 14.995v22.037a.838.838 0 01-.839.818h-6.181a.839.839 0 01-.843-.818V30.76c0-5.2-1.7-9.085-6.864-9.085-3.758 0-7.731 2.6-7.731 8.077V52.131a.836.836 0 01-.839.818h-6.174a.836.836 0 01-.839-.818V0H4.655A4.465 4.465 0 000 4.26v61.236a4.667 4.667 0 004.655 4.5h52.168a4.263 4.263 0 004.176-4.5V4.26A4.058 4.058 0 0056.824 0zm-7.425 61.064h-37.8v-3.722h37.8z" fill="#fff"></path></g></g></svg> 