<?xml version="1.0" encoding="UTF-8"?> <svg xmlns="http://www.w3.org/2000/svg" width="156" height="30"><g data-name="Group 1160"><g data-name="Group 1159" fill="#2c3454"><path data-name="Path 1956" d="M39.785 18.33v-5.809c0-3.258-1.246-6.234-5.752-6.234a9.546 9.546 0 00-4.817 1.22.191.191 0 00-.085.227l.567 1.757a.2.2 0 00.283.113 7.142 7.142 0 013.513-.935c2.919 0 3.06 2.041 3.089 3.23a.194.194 0 01-.2.2c-5.158.056-8.388 1.954-8.388 5.723A4.336 4.336 0 0032.5 22.3a5.1 5.1 0 004.278-2.1h.085l.2 1.615a.241.241 0 00.2.17h2.496a.187.187 0 00.2-.228 25.714 25.714 0 01-.174-3.427zm-3.173-1.5a3.127 3.127 0 01-3.2 3.116 2.2 2.2 0 01-2.266-2.465c0-2.663 2.777-3.173 5.27-3.2a.194.194 0 01.2.2z"></path><path data-name="Path 1957" d="M53.036 6.911a8.658 8.658 0 00-3.287-.624c-4.931 0-7.935 3.515-7.935 8.161 0 4.788 2.919 7.821 7.339 7.821a10.334 10.334 0 003.8-.709.159.159 0 00.113-.2l-.4-2.012a.178.178 0 00-.255-.141 7.177 7.177 0 01-2.663.51c-2.665 0-4.648-2.012-4.648-5.384 0-3 1.673-5.468 4.675-5.468a6.071 6.071 0 012.551.51.233.233 0 00.283-.141l.538-2.1a.192.192 0 00-.111-.223z"></path><path data-name="Path 1958" d="M61.739 13.403a.264.264 0 01.027-.254l5.045-5.866a.186.186 0 00-.143-.312h-3.287a.171.171 0 00-.169.085L59.443 12.1a48.676 48.676 0 00-1.162 1.786h-.056V.199a.194.194 0 00-.2-.2h-2.834a.194.194 0 00-.2.2v21.96a.193.193 0 00.2.2h2.834a.193.193 0 00.2-.2v-5.243a.215.215 0 01.056-.141l1.048-1.275a.185.185 0 01.312.029l4.193 6.715a.2.2 0 00.17.085h3.428c.17 0 .255-.17.114-.341z"></path><path data-name="Path 1959" d="M76.473 6.316c-4.364 0-6.913 3.655-6.913 8.218 0 4.675 2.663 7.764 7.282 7.764a12.2 12.2 0 004.732-.85.211.211 0 00.114-.227l-.426-1.9a.178.178 0 00-.255-.141 9.764 9.764 0 01-3.655.624c-2.38 0-4.478-1.247-4.647-4.561a.194.194 0 01.2-.2h9.351a.21.21 0 00.2-.17c.029-.339.058-.736.058-1.189-.005-3.769-1.734-7.368-6.041-7.368zm2.777 6.432h-6.318c-.114 0-.227-.085-.2-.2.227-1.757 1.247-3.91 3.513-3.91 2.38 0 3.174 2.1 3.2 3.91a.194.194 0 01-.195.2z"></path><path data-name="Path 1960" d="M92.075 6.772a3.575 3.575 0 00-.624-.056 4.032 4.032 0 00-4 2.739h-.113l-.085-2.231a.212.212 0 00-.2-.2H84.65a.194.194 0 00-.2.2c.056 1.355.085 2.767.085 4.462v10.418a.193.193 0 00.2.2h2.8a.194.194 0 00.2-.2v-7.9c0-2.655 1.389-4.433 3.542-4.433a5.136 5.136 0 01.736.056.2.2 0 00.227-.2V6.969a.212.212 0 00-.165-.197z"></path><path data-name="Path 1961" d="M101.011 6.316c-4.364 0-6.913 3.655-6.913 8.218 0 4.675 2.663 7.764 7.282 7.764a12.2 12.2 0 004.732-.85.208.208 0 00.113-.227l-.424-1.9a.178.178 0 00-.255-.141 9.765 9.765 0 01-3.655.624c-2.38 0-4.478-1.247-4.648-4.561a.194.194 0 01.2-.2h9.351a.211.211 0 00.2-.17c.029-.339.058-.736.058-1.189-.005-3.769-1.734-7.368-6.041-7.368zm2.777 6.432H97.47c-.114 0-.228-.085-.2-.2.227-1.757 1.247-3.91 3.513-3.91 2.38 0 3.174 2.1 3.2 3.91a.194.194 0 01-.195.2z"></path><path data-name="Path 1962" d="M120.77 18.365v-5.809c0-3.258-1.247-6.234-5.752-6.234a9.538 9.538 0 00-4.817 1.22.188.188 0 00-.085.225l.566 1.758a.2.2 0 00.284.113 7.134 7.134 0 013.513-.935c2.919 0 3.06 2.041 3.089 3.23a.194.194 0 01-.2.2c-5.156.056-8.387 1.954-8.387 5.723a4.335 4.335 0 004.505 4.478 5.1 5.1 0 004.278-2.1h.085l.2 1.615a.245.245 0 00.2.17h2.493a.189.189 0 00.2-.228 25.48 25.48 0 01-.172-3.426zm-3.145-1.5a3.126 3.126 0 01-3.2 3.116 2.2 2.2 0 01-2.268-2.465c0-2.663 2.777-3.173 5.27-3.2a.194.194 0 01.2.2z"></path><path data-name="Path 1963" d="M130.578 6.772a3.575 3.575 0 00-.624-.056 3.861 3.861 0 00-4 2.54h-.141l-.085-2.032a.212.212 0 00-.2-.2h-2.409a.194.194 0 00-.2.2c.056 1.355.085 2.767.085 4.462v10.418a.194.194 0 00.2.2h2.834a.194.194 0 00.2-.2v-7.9c0-2.655 1.389-4.433 3.541-4.433a5.157 5.157 0 01.738.056.2.2 0 00.227-.2V6.969a.212.212 0 00-.166-.197z"></path><path data-name="Path 1964" d="M141.205 6.674h-3.258a.194.194 0 01-.2-.2V3.159a.2.2 0 00-.254-.2l-2.806.879a.149.149 0 00-.113.2v2.438a.194.194 0 01-.2.2h-1.813a.193.193 0 00-.2.2v2.041a.193.193 0 00.2.2h1.786a.194.194 0 01.2.2v7.736c0 1.983.341 3.287 1.133 4.108a4.05 4.05 0 003.033 1.162 7.452 7.452 0 002.38-.312.212.212 0 00.141-.2l-.085-2.1a.207.207 0 00-.255-.17 4.543 4.543 0 01-1.189.141c-1.36 0-1.956-.906-1.956-2.8V9.317a.194.194 0 01.2-.2h3.258a.194.194 0 00.2-.2V6.876a.194.194 0 00-.202-.202z"></path><path data-name="Path 1965" d="M151.013 6.688a4.7 4.7 0 00-4.391 1.615h-.058v-8.1a.194.194 0 00-.2-.2h-2.834a.194.194 0 00-.2.2v21.931a.194.194 0 00.2.2h2.834a.194.194 0 00.2-.2v-9.183a3.232 3.232 0 013.287-3.428c2.183 0 2.919 1.644 2.919 3.854v8.784a.194.194 0 00.2.2h2.833a.213.213 0 00.2-.2v-9.07c-.144-4.732-2.553-6.262-4.99-6.403z"></path><path data-name="Path 1966" d="M24.137.17H9.856v8.093h.139a4.542 4.542 0 014.4-1.658c2.45.146 4.839 1.638 5 6.39v9.391a.356.356 0 01-.357.349h-2.623a.357.357 0 01-.358-.349v-9.107c0-2.216-.723-3.871-2.916-3.871a3.23 3.23 0 00-3.284 3.442v9.536a.356.356 0 01-.357.349H6.877a.356.356 0 01-.357-.349V.17H1.98A1.9 1.9 0 00.002 1.985v26.1a1.985 1.985 0 001.978 1.919h22.157a1.814 1.814 0 001.774-1.919v-26.1A1.726 1.726 0 0024.137.17zm-3.154 26.022H4.928v-1.589h16.056z"></path></g></g></svg> 