<?xml version="1.0" encoding="UTF-8"?> <svg xmlns="http://www.w3.org/2000/svg" width="26" height="30" viewBox="0 0 26 30"><g id="Group_1160" data-name="Group 1160" transform="translate(-104.363 -95.019)"><g id="Group_1159" data-name="Group 1159" transform="translate(104.363 95.019)"><path id="Path_1966" data-name="Path 1966" d="M128.583,94.967h-14.33v8.139h.139a4.552,4.552,0,0,1,4.416-1.668c2.458.146,4.855,1.647,5.016,6.426v9.445a.358.358,0,0,1-.358.351h-2.632a.358.358,0,0,1-.359-.351V108.15c0-2.229-.726-3.893-2.926-3.893a3.245,3.245,0,0,0-3.3,3.462v9.591a.357.357,0,0,1-.358.351h-2.632a.357.357,0,0,1-.358-.351V94.967h-4.555a1.907,1.907,0,0,0-1.984,1.826v26.244a1.994,1.994,0,0,0,1.984,1.93h22.236a1.823,1.823,0,0,0,1.78-1.93V96.793A1.734,1.734,0,0,0,128.583,94.967Zm-3.165,26.17h-16.11v-1.6h16.11Z" transform="translate(-104.363 -94.967)" fill="#2c3454"></path></g></g></svg> 