<svg id="Capa_1" enable-background="new 0 0 512 512" height="512" viewBox="0 0 512 512" width="512" xmlns="http://www.w3.org/2000/svg" xmlns:xlink="http://www.w3.org/1999/xlink"><linearGradient id="SVGID_1_" gradientUnits="userSpaceOnUse" x1="256" x2="256" y1="512" y2="0"><stop offset="0" stop-color="#fd3a84"/><stop offset="1" stop-color="#ffa68d"/></linearGradient><linearGradient id="SVGID_2_" gradientUnits="userSpaceOnUse" x1="256" x2="256" y1="180" y2="150"><stop offset="0" stop-color="#ffc2cc"/><stop offset="1" stop-color="#fff2f4"/></linearGradient><g id="Face_Scan"><g><g><path d="m76 90c8.284 0 15-6.716 15-15v-45h45c8.284 0 15-6.716 15-15s-6.716-15-15-15h-60c-8.284 0-15 6.716-15 15v60c0 8.284 6.716 15 15 15zm60 392h-45v-45c0-8.284-6.716-15-15-15s-15 6.716-15 15v60c0 8.284 6.716 15 15 15h60c8.284 0 15-6.716 15-15s-6.716-15-15-15zm300-482h-60c-8.284 0-15 6.716-15 15s6.716 15 15 15h45v45c0 8.284 6.716 15 15 15s15-6.716 15-15v-60c0-8.284-6.716-15-15-15zm0 422c-8.284 0-15 6.716-15 15v45h-45c-8.284 0-15 6.716-15 15s6.716 15 15 15h60c8.284 0 15-6.716 15-15v-60c0-8.284-6.716-15-15-15zm-266.382-182.99c10.731 20.599 25.212 37.406 41.382 48.212v14.778h-15c-41.355 0-75 33.645-75 75v30c0 8.284 6.716 15 15 15h240c8.284 0 15-6.716 15-15v-30c0-41.355-33.645-75-75-75h-15v-14.778c16.17-10.807 30.65-27.614 41.382-48.212 12.006-23.047 18.618-49.331 18.618-74.01 0-65.043-45.697-105-105-105-59.191 0-105 39.849-105 105 0 24.679 6.612 50.963 18.618 74.01z" fill="url(#SVGID_1_)"/></g></g><g><g><path d="m497 150h-482c-8.284 0-15 6.716-15 15s6.716 15 15 15h482c8.284 0 15-6.716 15-15s-6.716-15-15-15z" fill="url(#SVGID_2_)"/></g></g></g></svg>