<svg xmlns="http://www.w3.org/2000/svg" version="1.1" x="0" y="0" viewBox="0 0 40 25" height="25" width="40" enable-background="new 0 0 40 25" xml:space="preserve"><path fill="#E6E4E9" d="M37.5 5h-35C1.1 5 0 3.9 0 2.5v0C0 1.1 1.1 0 2.5 0h35C38.9 0 40 1.1 40 2.5v0C40 3.9 38.9 5 37.5 5zM37.5 15h-35C1.1 15 0 13.9 0 12.5v0C0 11.1 1.1 10 2.5 10h35c1.4 0 2.5 1.1 2.5 2.5v0C40 13.9 38.9 15 37.5 15zM37.5 25h-35C1.1 25 0 23.9 0 22.5v0C0 21.1 1.1 20 2.5 20h35c1.4 0 2.5 1.1 2.5 2.5v0C40 23.9 38.9 25 37.5 25z"/></svg>