<svg xmlns="http://www.w3.org/2000/svg" version="1.1" x="0" y="0" viewBox="0 0 165 82" width="165" height="82" xml:space="preserve"><style type="text/css">
	.st0{fill:#2E0E3B;}
</style><path class="st0" d="M118.4 54.3l-6.1 4.4c-0.2 0.1-0.3 0.4-0.3 0.6 0 0.2 0.2 0.5 0.4 0.6l7.2 2.7 1.3 5 -5.1 0.2c-0.3 0-0.6 0.2-0.7 0.6l-1.6 8.7c0 0.3 0.1 0.5 0.3 0.7l6.5 4.2c0.1 0.1 0.2 0.1 0.4 0.1 0.2 0 0.4-0.1 0.5-0.2l4.9-5.1 16-0.4C136 67.3 127.8 59.7 118.4 54.3z"/><path class="st0" d="M82.5 27.4C64.6 27.4 48 32.7 34 41.8L24 3.2l-3.9 1 10.4 39.9C17.3 53.7 6.9 66.7 0.5 81.9h57.8l3.9-3.9 13.7-5.5 7.9 0.5c0.1 0 0.4 0 0.5-0.2 0.1-0.1 0.2-0.3 0.2-0.5 0.1-4.6 0.2-6.8 0.2-7.9l7.1-0.5c0.2 0 0.4-0.1 0.5-0.3 0.1-0.2 0.1-0.4 0-0.6l-3.7-7.3c-0.1-0.2-0.3-0.4-0.6-0.4l-8.8 0.6 -6.3 6.5 -8.3-4.4 1.7-3.2 15.6-4.3c0.3-0.1 0.5-0.4 0.5-0.7l-0.5-5.6c0-0.3-0.2-0.5-0.5-0.6l-4.6-1.2 -5.2-3.7c3.6-0.5 7.2-0.9 11-0.9 31.1 0 58 18.2 70.8 44.2h11.3C151.1 49.9 119.4 27.4 82.5 27.4z"/><path class="st0" d="M44.5 19.6c4.5 2.5 15 0.8 19.1-6.7 0 0-0.3-7.5-1.6-12.5 -2.1 3.1-12.1 10.1-18.7 2.8 -6.6-7.4-17.3 2.5-17.3 2.5L30.4 22C30.4 22 37.4 15.5 44.5 19.6z"/></svg>