<svg width="464" height="464" viewBox="0 0 464 464" fill="none" xmlns="http://www.w3.org/2000/svg">
<path fill-rule="evenodd" clip-rule="evenodd" d="M231.675 413.349C332.011 413.349 413.349 332.011 413.349 231.675C413.349 131.339 332.011 50 231.675 50C131.339 50 50 131.339 50 231.675C50 332.011 131.339 413.349 231.675 413.349ZM231.675 463.349C359.625 463.349 463.349 359.625 463.349 231.675C463.349 103.724 359.625 0 231.675 0C103.724 0 0 103.724 0 231.675C0 359.625 103.724 463.349 231.675 463.349Z" fill="#244D4D"/>
<path fill-rule="evenodd" clip-rule="evenodd" d="M217.885 334.77C279.125 334.77 328.77 285.125 328.77 223.885C328.77 162.645 279.125 113 217.885 113C156.645 113 107 162.645 107 223.885C107 285.125 156.645 334.77 217.885 334.77ZM217.885 384.77C306.739 384.77 378.77 312.739 378.77 223.885C378.77 135.031 306.739 63 217.885 63C129.031 63 57 135.031 57 223.885C57 312.739 129.031 384.77 217.885 384.77Z" fill="#244D4D"/>
</svg>
