<svg width="133" height="37" viewBox="0 0 133 37" fill="none" xmlns="http://www.w3.org/2000/svg">
<path d="M0.78 16.324V17.182H2.99V23.89C2.99 25.606 2.964 27.296 2.912 28.96L0.91 29.194V30H8.918V29.194L6.448 28.908C6.422 27.244 6.396 25.58 6.396 23.89V17.182H9.958V16.09H6.37C6.266 13.126 6.552 11.358 7.358 10.162C7.54 9.85 7.826 9.59 8.164 9.408L8.71 10.136C9.412 11.28 10.114 11.696 10.998 11.696C12.09 11.696 12.714 11.046 12.74 10.162C12.428 8.914 11.128 8.42 9.672 8.42C8.19 8.42 6.656 8.888 5.278 10.214C4.082 11.384 3.276 13.1 3.016 16.064L0.78 16.324ZM24.3244 29.038V20.276L24.4024 16.116L24.1164 15.83L19.0984 16.558V17.234L20.9444 17.572L20.8924 26.828C19.9304 27.79 18.8384 28.362 17.6684 28.362C16.2384 28.362 15.4324 27.608 15.4324 25.32V20.276L15.5884 16.116L15.3024 15.83L10.1544 16.506V17.234L12.1044 17.598L12.0004 25.138C11.9484 29.038 13.5084 30.416 16.0044 30.416C17.9284 30.416 19.6704 29.272 20.9184 27.686L21.1004 30.286L26.0924 30V29.22L24.3244 29.038ZM32.2512 15.934L31.8872 15.7L26.8952 17.286V17.936L28.9492 18.144C29.0272 19.392 29.0532 20.328 29.0532 22.018V23.89C29.0532 25.32 29.0272 27.478 29.0012 28.96L27.1032 29.194V30H34.9292V29.194L32.5372 28.882C32.5112 27.4 32.4852 25.294 32.4852 23.89V21.576C33.0312 19.756 33.7332 18.612 34.8252 17.754L35.1112 18.066C35.7612 18.82 36.3072 19.314 37.1652 19.314C38.3872 19.314 38.8812 18.508 38.9592 17.338C38.6472 16.116 37.7112 15.674 36.6192 15.674C35.0592 15.674 33.3172 17.052 32.4852 19.548L32.2512 15.934ZM53.547 28.986C53.521 27.504 53.495 25.372 53.495 23.89V20.718C53.495 17.234 51.961 15.674 49.517 15.674C47.827 15.674 46.215 16.402 44.577 18.3L44.395 15.934L44.031 15.7L39.039 17.286V17.936L41.093 18.144C41.171 19.392 41.197 20.328 41.197 22.018V23.89C41.197 25.32 41.171 27.478 41.145 28.96L39.247 29.194V30H46.371V29.194L44.681 28.986C44.655 27.504 44.629 25.32 44.629 23.89V19.21C45.903 18.04 47.073 17.52 48.035 17.52C49.439 17.52 50.089 18.3 50.089 20.562V23.89C50.089 25.372 50.063 27.504 50.011 28.96L48.191 29.194V30H55.315V29.194L53.547 28.986ZM59.8037 12.788C60.9217 12.788 61.8577 11.982 61.8577 10.864C61.8577 9.694 60.9217 8.914 59.8037 8.914C58.6857 8.914 57.7497 9.694 57.7497 10.864C57.7497 11.982 58.6857 12.788 59.8037 12.788ZM61.6497 28.986C61.6237 27.504 61.5977 25.32 61.5977 23.89V19.99L61.6497 15.934L61.2857 15.7L56.0077 17.182V17.884L58.1137 18.092C58.1657 19.392 58.1917 20.38 58.1917 22.044V23.89C58.1917 25.32 58.1657 27.478 58.1397 28.96L56.2417 29.194V30H63.3917V29.194L61.6497 28.986ZM67.8039 30.416C68.9999 30.416 69.9359 29.428 69.9359 28.284C69.9359 27.088 68.9999 26.1 67.8039 26.1C66.5819 26.1 65.6459 27.088 65.6459 28.284C65.6459 29.428 66.5819 30.416 67.8039 30.416ZM77.9472 21.238C75.9452 20.588 75.3732 19.886 75.3732 18.794C75.3732 17.52 76.3612 16.688 78.0772 16.688C78.8312 16.688 79.4292 16.844 80.0532 17.156L80.8592 19.964H82.1852L82.3672 16.844C80.9372 16.09 79.6632 15.674 77.9992 15.674C74.4372 15.674 72.4872 17.598 72.4872 20.094C72.4872 22.2 73.8652 23.448 76.1012 24.15L77.5312 24.618C79.5592 25.294 80.1572 26.022 80.1572 27.166C80.1572 28.596 79.0652 29.402 76.9852 29.402C76.1272 29.402 75.3992 29.272 74.7232 28.986L73.9952 25.84H72.4872L72.3832 29.22C73.8652 30 75.3212 30.416 77.1932 30.416C81.0152 30.416 83.1472 28.596 83.1472 25.944C83.1472 23.942 82.0292 22.564 79.2992 21.654L77.9472 21.238ZM98.2122 28.986C98.1862 27.504 98.1602 25.372 98.1602 23.89V20.77C98.1602 17.156 96.6522 15.674 94.1822 15.674C92.2842 15.674 90.7502 16.558 89.1902 18.352V13.074L89.2942 8.94L88.9042 8.706L83.7562 9.824V10.552L85.8622 10.708V23.89C85.8622 25.32 85.8362 27.478 85.8102 28.96L83.9122 29.194V30H90.9842V29.194L89.3202 28.986C89.2682 27.504 89.2422 25.32 89.2422 23.89V19.21C90.5162 18.04 91.6342 17.52 92.6742 17.52C94.0262 17.52 94.7802 18.3 94.7802 20.562V23.89C94.7802 25.372 94.7542 27.504 94.7282 28.96L92.8562 29.194V30H99.9802V29.194L98.2122 28.986ZM108.03 30.416C112.008 30.416 115.05 27.686 115.05 23.006C115.05 18.326 111.8 15.674 108.03 15.674C104.234 15.674 101.01 18.352 101.01 23.006C101.01 27.66 104 30.416 108.03 30.416ZM108.03 29.454C105.872 29.454 104.676 27.348 104.676 23.032C104.676 18.742 105.872 16.636 108.03 16.636C110.136 16.636 111.384 18.742 111.384 23.032C111.384 27.348 110.136 29.454 108.03 29.454ZM121.505 18.482C122.597 17.494 123.455 17.286 124.287 17.286C126.445 17.286 127.771 18.924 127.771 23.032C127.771 27.27 126.237 28.752 124.105 28.752C123.117 28.752 122.311 28.518 121.505 27.79V18.482ZM121.219 15.96L120.855 15.7L115.915 17.286V17.936L118.021 18.144C118.073 19.392 118.099 20.354 118.099 22.044V30.416C118.099 32.002 118.073 33.874 118.047 35.746L116.071 35.98V36.76H123.741V35.98L121.505 35.72C121.479 33.848 121.453 31.976 121.453 30.416V28.622C122.597 29.948 123.923 30.416 125.275 30.416C128.707 30.416 131.437 27.556 131.437 22.954C131.437 18.352 128.967 15.674 125.821 15.674C124.209 15.674 122.649 16.272 121.401 17.676L121.219 15.96Z" fill="#244D4D"/>
</svg>
