<svg width="51" height="51" viewBox="0 0 51 51" fill="none" xmlns="http://www.w3.org/2000/svg">
<path d="M25.5 51C39.5833 51 51 39.5833 51 25.5C51 11.4167 39.5833 0 25.5 0C11.4167 0 0 11.4167 0 25.5C0 39.5833 11.4167 51 25.5 51Z" fill="#FE7865"/>
<mask id="mask0" mask-type="alpha" maskUnits="userSpaceOnUse" x="0" y="0" width="51" height="51">
<path d="M25.5 51C39.5833 51 51 39.5833 51 25.5C51 11.4167 39.5833 0 25.5 0C11.4167 0 0 11.4167 0 25.5C0 39.5833 11.4167 51 25.5 51Z" fill="white"/>
</mask>
<g mask="url(#mask0)">
<path d="M34.1547 32.5717C33.0203 33.2989 31.7827 33.7145 30.5451 34.0262C30.442 34.0262 30.3389 34.0262 30.442 34.1301C30.442 34.4418 30.442 34.6496 30.442 34.9613C30.5451 36.0002 30.6482 37.1431 30.7514 38.286C30.7514 38.4938 30.8545 38.5976 31.0608 38.5976C32.6077 38.5976 34.1547 38.5976 35.5985 38.5976C36.2173 38.5976 36.2173 38.5976 36.2173 39.221C36.2173 39.5327 36.1142 39.5327 35.9079 39.5327C29.9263 39.5327 23.8416 39.5327 17.86 39.5327C17.6538 39.5327 17.3444 39.6366 17.2413 39.5327C17.1381 39.4288 17.2413 39.1171 17.2413 38.9093C17.2413 38.7015 17.3444 38.7015 17.4475 38.7015C19.9227 38.7015 22.5009 38.7015 24.9761 38.7015C25.1823 38.7015 25.4917 38.7015 25.698 38.7015C25.8011 38.7015 25.9042 38.7015 25.9042 38.4938C25.9042 38.286 26.0074 37.9743 26.0074 37.7665C26.2136 36.7275 26.3168 35.6886 26.523 34.6496C26.523 34.5457 26.523 34.4418 26.4199 34.4418C26.0074 34.3379 25.5948 34.3379 25.2854 34.234C24.151 33.9223 23.1197 33.5067 22.0884 32.9873C20.5414 32.1561 19.0976 31.1171 17.7569 29.9743C15.7974 28.3119 14.1473 26.3379 12.6004 24.26C11.2597 22.4937 10.1252 20.6236 9.09392 18.5457C8.99079 18.3379 8.88767 18.3379 8.68141 18.3379C7.85636 18.3379 7.03131 18.234 6.20627 18.1301C6.10314 18.1301 6 18.1301 6 17.9223C6.10313 17.7145 6.10314 17.4028 6.10314 17.195C6.10314 16.9873 6.20626 16.9873 6.41252 16.9873C7.03131 16.9873 7.6501 17.195 8.16575 17.195C8.26888 17.195 8.37201 17.195 8.26888 16.9873C8.06262 16.3639 7.85636 15.7405 7.75323 15.1171C7.6501 14.7015 7.75322 14.1821 7.95949 13.8704C8.37201 13.247 8.9908 13.1431 9.71271 13.247C10.2284 13.3509 10.6409 13.6626 11.0534 13.9743C11.3628 14.1821 11.5691 14.4938 11.7753 14.8054C11.9816 15.1171 12.0847 15.4288 12.1878 15.7405C12.291 15.9483 12.291 16.26 12.1878 16.5717C12.0847 16.9873 11.8785 17.2989 11.6722 17.5067C11.2597 17.9223 10.744 18.0262 10.2284 18.1301C10.0221 18.1301 10.0221 18.234 10.1252 18.3379C10.6409 19.273 11.1565 20.208 11.6722 21.0392C11.7753 21.247 11.8785 21.247 11.9816 21.1431C12.7035 21.0392 13.4254 20.8314 14.1473 20.5197C15.3849 20.0002 16.5193 19.1691 17.5506 18.3379C18.7882 17.2989 20.0258 16.1561 21.2634 15.221C22.8103 13.9743 24.5635 12.9353 26.523 12.4158C27.6575 12.1041 28.895 12.0002 30.0295 12.0002C30.9576 12.0002 31.8858 12.1041 32.7109 12.3119C33.7422 12.6236 34.6703 13.0392 35.5985 13.6626C36.733 14.4938 37.6611 15.5327 38.2799 16.8834C38.4862 17.4028 38.7956 17.9223 38.8987 18.4418C38.8987 18.5457 39.0018 18.7535 39.2081 18.6496C39.5175 18.5457 39.7238 18.5457 40.0331 18.4418C41.1676 18.234 42.4052 18.0262 43.5396 17.8184C43.7459 17.8184 43.9521 17.7145 44.1584 17.7145C42.6114 19.0652 41.1676 20.3119 39.7237 21.6626C41.0644 22.286 42.4051 23.0132 43.849 23.6366C43.3333 23.7405 42.8177 23.7405 42.302 23.8444C41.3738 23.9483 40.3425 24.0522 39.4144 24.1561C39.2081 24.1561 39.2081 24.26 39.2081 24.3639C39.2081 24.7795 39.0018 25.0912 39.0018 25.5067C39.0018 25.8184 38.7956 26.0262 38.6924 26.3379C38.2799 27.5847 37.6611 28.7275 36.9392 29.6626C36.2173 30.5976 35.3923 31.5327 34.4641 32.26C34.4641 32.3639 34.2578 32.4678 34.1547 32.5717ZM38.3831 20.5197C38.2799 19.6886 38.0737 18.8574 37.7643 18.0262C37.4549 17.4028 37.1455 16.7795 36.733 16.1561C35.9079 15.1171 34.9797 14.286 33.7422 13.7665C32.0921 13.0392 30.442 12.9353 28.6888 13.0392C26.8324 13.1431 25.1823 13.7665 23.5322 14.8054C21.9853 15.7405 20.6446 16.9873 19.3039 18.1301C18.1694 19.1691 16.9319 20.1041 15.5912 20.9353C14.663 21.4548 13.6317 21.8704 12.6004 22.0782C12.4972 22.0782 12.3941 22.1821 12.291 22.1821C12.4972 22.4937 12.7035 22.8054 13.0129 23.1171C13.3223 23.6366 13.7348 24.0522 14.0442 24.5717C15.1786 26.0262 16.5193 27.4808 17.86 28.7275C19.0976 29.8704 20.3352 30.8054 21.779 31.6366C22.8103 32.26 23.9447 32.7795 25.0792 32.9873C26.4199 33.2989 27.7606 33.4028 29.2044 33.195C30.6482 32.9873 31.8858 32.5717 33.1234 31.8444C34.361 31.1171 35.2891 30.1821 36.1142 29.0392C36.8361 28.1041 37.3517 26.9613 37.7643 25.8184C37.8674 25.5067 37.9705 25.195 37.9705 24.8834C37.9705 24.7795 38.0737 24.6756 38.0737 24.5717C38.0737 24.4678 38.0737 24.3639 38.0737 24.26V24.1561C38.4862 23.0132 38.5893 21.7665 38.3831 20.5197ZM29.4107 38.4938C29.6169 38.4938 29.6169 38.3899 29.6169 38.286C29.5138 37.247 29.4107 36.1041 29.3076 35.0652C29.3076 34.8574 29.3076 34.6496 29.3076 34.4418C29.3076 34.3379 29.3076 34.234 29.1013 34.234C28.5856 34.3379 28.07 34.3379 27.5543 34.3379C27.4512 34.3379 27.3481 34.3379 27.3481 34.5457C27.2449 35.4808 27.0387 36.4158 26.9355 37.4548C26.9355 37.7665 26.8324 38.0782 26.8324 38.3899C26.8324 38.5976 26.8324 38.5976 27.0387 38.5976C27.4512 38.5976 27.8637 38.5976 28.2762 38.5976C28.6888 38.4938 28.9981 38.4938 29.4107 38.4938ZM9.19706 16.26C9.30019 16.4678 9.40332 16.6756 9.40332 16.7795C9.40332 16.8834 9.50644 16.8834 9.60958 16.8834C10.0221 16.7795 10.4346 16.6756 10.744 16.4678C11.0534 16.26 11.1565 15.9483 11.0534 15.6366C10.9503 15.1171 10.6409 14.8054 10.2284 14.4938C9.91897 14.1821 9.60957 14.0782 9.30018 14.0782C8.88766 14.0782 8.78453 14.1821 8.78453 14.3899C8.78453 15.221 8.9908 15.7405 9.19706 16.26ZM39.5175 19.5847C39.4144 19.5847 39.4144 19.6886 39.4144 19.7925C39.4144 20.0002 39.5175 20.208 39.5175 20.5197C39.5175 20.6236 39.5175 20.6236 39.6206 20.6236C40.0331 20.208 40.4457 19.8963 40.9613 19.4808C40.9613 19.4808 40.9613 19.4808 40.9613 19.3769C40.4457 19.3769 39.93 19.4808 39.5175 19.5847ZM39.7237 22.5976C39.6206 22.4938 39.5175 22.5976 39.5175 22.7015C39.5175 23.1171 39.5175 23.1171 39.8269 23.0132C40.0331 23.0132 40.1363 23.0132 40.3425 22.9093C40.1363 22.9093 39.93 22.8054 39.7237 22.5976Z" fill="#2C3039"/>
<path d="M38.28 24.5716C38.28 24.6755 38.0737 25.5067 37.9706 25.8184C37.5581 26.9612 37.0424 28.0002 36.3205 29.0391C35.4955 30.182 34.4642 31.1171 33.3297 31.8443C32.0922 32.5716 30.7514 32.9872 29.4108 33.195C28.0701 33.4028 26.6262 33.2989 25.2855 32.9872C24.1511 32.6755 23.0167 32.156 21.9853 31.6366C20.5415 30.8054 19.3039 29.8703 18.0664 28.7275C16.7257 27.4807 15.385 26.0262 14.2505 24.5716C13.838 24.156 13.5286 23.6366 13.2192 23.1171C13.838 23.0132 14.4568 22.8054 15.0756 22.5976C16.8288 21.8703 18.3758 20.6236 19.8196 19.3768C20.8509 18.4417 21.9854 17.5067 23.1198 16.6755C24.1511 15.8443 25.2855 15.221 26.5231 14.8054C27.5544 14.3898 28.5857 14.182 29.7201 14.182C30.5452 14.182 31.3702 14.182 32.1953 14.2859C33.536 14.4937 34.7736 14.9093 35.8049 15.7404C36.6299 16.3638 37.2487 17.0911 37.7643 17.9223L37.8675 18.0262C38.1769 18.8573 38.3831 19.6885 38.4863 20.5197C38.6925 23.0132 38.28 24.4677 38.28 24.5716ZM27.6575 18.1301C27.3481 18.4417 27.1419 18.8573 26.9356 19.2729C26.8325 19.4807 26.8325 19.5846 27.1419 19.6885C27.245 19.7924 27.4513 19.8963 27.5544 19.7924C27.6575 19.7924 27.6575 19.5846 27.7607 19.3768C28.0701 18.8573 28.3794 18.4417 28.8951 18.1301C29.617 17.7145 30.4421 17.7145 31.164 18.3379C31.2671 18.3379 31.2671 18.4417 31.3702 18.4417C31.6796 18.6495 31.6796 18.6495 31.7828 18.3379C32.0922 17.8184 32.0922 17.8184 31.6796 17.5067C31.164 17.0911 30.5452 16.7794 29.8233 16.7794C28.8951 16.9872 28.2763 17.5067 27.6575 18.1301Z" fill="#FEC365"/>
<path d="M29.7202 16.9873C28.8952 16.9873 28.2764 17.5068 27.6576 18.1302C27.3482 18.4419 27.142 18.8574 26.9357 19.273C26.8326 19.4808 26.8326 19.5847 27.142 19.6886C27.2451 19.7925 27.4514 19.8964 27.5545 19.7925C27.6576 19.7925 27.6576 19.5847 27.7608 19.3769C28.0701 18.8574 28.3795 18.4419 28.8952 18.1302C29.6171 17.7146 30.4422 17.7146 31.1641 18.338C31.2672 18.338 31.2672 18.4419 31.3703 18.4419C31.6797 18.6496 31.6797 18.6496 31.7828 18.338C32.0922 17.8185 32.0922 17.8185 31.6797 17.5068C31.0609 17.1951 30.4421 16.9873 29.7202 16.9873Z" fill="#2E323A"/>
</g>
</svg>
