<svg width="24" height="24" viewBox="0 0 24 24" fill="none" xmlns="http://www.w3.org/2000/svg">
<path d="M12 7.19298C9.33983 7.19298 7.19296 9.33986 7.19296 12C7.19296 14.6602 9.33983 16.807 12 16.807C14.6601 16.807 16.807 14.6602 16.807 12C16.807 9.33986 14.6601 7.19298 12 7.19298ZM12 15.1242C10.2797 15.1242 8.87577 13.7203 8.87577 12C8.87577 10.2797 10.2797 8.87579 12 8.87579C13.7203 8.87579 15.1242 10.2797 15.1242 12C15.1242 13.7203 13.7203 15.1242 12 15.1242ZM17.0039 5.87579C16.3828 5.87579 15.8812 6.37736 15.8812 6.99845C15.8812 7.61954 16.3828 8.12111 17.0039 8.12111C17.625 8.12111 18.1266 7.62189 18.1266 6.99845C18.1267 6.85097 18.0978 6.7049 18.0415 6.56861C17.9851 6.43232 17.9024 6.30849 17.7981 6.2042C17.6939 6.09992 17.57 6.01723 17.4337 5.96087C17.2974 5.90452 17.1514 5.87561 17.0039 5.87579V5.87579ZM21.3703 12C21.3703 10.7063 21.382 9.42423 21.3094 8.13283C21.2367 6.63283 20.8945 5.30158 19.7976 4.2047C18.6984 3.10548 17.3695 2.76564 15.8695 2.69298C14.5758 2.62033 13.2937 2.63204 12.0023 2.63204C10.7086 2.63204 9.42655 2.62033 8.13515 2.69298C6.63515 2.76564 5.3039 3.10783 4.20702 4.2047C3.1078 5.30392 2.76796 6.63283 2.6953 8.13283C2.62265 9.42658 2.63436 10.7086 2.63436 12C2.63436 13.2914 2.62265 14.5758 2.6953 15.8672C2.76796 17.3672 3.11015 18.6985 4.20702 19.7953C5.30624 20.8945 6.63515 21.2344 8.13515 21.307C9.4289 21.3797 10.7109 21.368 12.0023 21.368C13.2961 21.368 14.5781 21.3797 15.8695 21.307C17.3695 21.2344 18.7008 20.8922 19.7976 19.7953C20.8969 18.6961 21.2367 17.3672 21.3094 15.8672C21.3844 14.5758 21.3703 13.2938 21.3703 12V12ZM19.3078 17.5266C19.1367 17.9531 18.9305 18.2719 18.6 18.6C18.2695 18.9305 17.9531 19.1367 17.5266 19.3078C16.2937 19.7977 13.3664 19.6875 12 19.6875C10.6336 19.6875 7.7039 19.7977 6.47108 19.3102C6.04452 19.1391 5.72577 18.9328 5.39765 18.6024C5.06718 18.2719 4.86093 17.9555 4.68983 17.5289C4.20233 16.2938 4.31249 13.3664 4.31249 12C4.31249 10.6336 4.20233 7.70392 4.68983 6.47111C4.86093 6.04454 5.06718 5.72579 5.39765 5.39767C5.72811 5.06954 6.04452 4.86095 6.47108 4.68986C7.7039 4.20236 10.6336 4.31251 12 4.31251C13.3664 4.31251 16.2961 4.20236 17.5289 4.68986C17.9555 4.86095 18.2742 5.0672 18.6023 5.39767C18.9328 5.72814 19.1391 6.04454 19.3101 6.47111C19.7976 7.70392 19.6875 10.6336 19.6875 12C19.6875 13.3664 19.7976 16.2938 19.3078 17.5266Z" fill="white"/>
</svg>
