<svg width="24" height="24" viewBox="0 0 24 24" fill="none" xmlns="http://www.w3.org/2000/svg">
<path d="M21.75 5.96017C21.0328 6.26954 20.2523 6.4922 19.4484 6.57892C20.283 6.08306 20.9081 5.2997 21.2062 4.37579C20.423 4.8417 19.565 5.16841 18.6703 5.34142C18.2963 4.94163 17.844 4.62315 17.3416 4.40581C16.8392 4.18847 16.2974 4.07693 15.75 4.07813C13.5351 4.07813 11.7539 5.87345 11.7539 8.07657C11.7539 8.38595 11.7914 8.69532 11.8523 8.99298C8.5359 8.81954 5.57809 7.23517 3.61168 4.80938C3.25338 5.42137 3.06562 6.1182 3.06793 6.82735C3.06793 8.21485 3.7734 9.43829 4.84918 10.1578C4.21521 10.1329 3.59608 9.9586 3.04215 9.64923V9.69845C3.04215 11.6414 4.41559 13.2516 6.24606 13.6219C5.90237 13.7112 5.54881 13.7568 5.19371 13.7578C4.93356 13.7578 4.68746 13.732 4.43903 13.6969C4.94528 15.2813 6.41949 16.432 8.17496 16.4695C6.80153 17.5453 5.08121 18.1781 3.21324 18.1781C2.87809 18.1781 2.56871 18.1664 2.24762 18.1289C4.01949 19.2656 6.12184 19.9219 8.3859 19.9219C15.7359 19.9219 19.7578 13.8328 19.7578 8.54767C19.7578 8.37423 19.7578 8.20079 19.7461 8.02735C20.5242 7.45782 21.2062 6.75235 21.75 5.96017Z" fill="white"/>
</svg>
