<svg version="1.2" xmlns="http://www.w3.org/2000/svg" viewBox="0 0 900 200" width="900" height="200"><style>.A{fill:#e6e6e6}.B{fill:#18a497}</style><path class="A" d="m276.8 152h-19v-103.9h37q11.9 0 20.2 3.6q8.2 3.5 12.4 11q4.3 7.4 4.3 19q0 11.7-4.2 19.3q-4.2 7.6-12.4 11.3q-8.2 3.6-19.9 3.6h-18.4zm0-88v36.1h16.2q9.7 0 14.5-4.4q4.9-4.4 4.9-13.7q0-9.4-4.9-13.7q-4.9-4.3-15-4.3zm84.1 88h-18.5v-111.3h18.5v48l-4.2-3.3q4.7-3.3 10.2-6q5.5-2.7 13.1-2.7q9.8 0 16 4.3q6.1 4.3 9 12q2.9 7.7 2.9 17.8v41.2h-18.4v-39.9q0-10.4-3.3-15.3q-3.4-5-10.9-5q-6.5 0-10.7 3q-4 3-7.2 8.1l3.5-9.9zm97.2 1.5q-12.1 0-20.7-5.3q-8.5-5.3-13-14q-4.5-8.8-4.5-19.2q0-10.4 4.5-19.3q4.5-8.8 13-14.1q8.6-5.3 20.7-5.3q12.1 0 20.6 5.3q8.5 5.3 13 14.1q4.5 8.9 4.5 19.3q0 10.4-4.5 19.2q-4.5 8.7-13 14q-8.5 5.3-20.6 5.3zm0-15.2q9.3 0 14.2-6.4q5.1-6.6 5.1-16.9q0-10.4-5.1-17q-4.9-6.6-14.2-6.6q-9.2 0-14.3 6.6q-5 6.6-5 17q0 10.3 5 16.9q5.1 6.4 14.3 6.4zm87.4 15.2h-13.2q-7 0-11.4-2.9q-4.3-2.9-6.4-7.3q-2.1-4.5-2.1-9.3v-41.1h-10.5l1.6-15.1h8.9v-16.3l18.4-2v18.3h16.3v15.1h-16.3v33.5q0 5.7 0.7 8.2q0.6 2.5 3 3.1q2.4 0.6 7.6 0.6h5zm47.4 0q-12.1 0-20.6-5.2q-8.6-5.3-13.1-14.1q-4.5-8.7-4.5-19.1q0-10.5 4.5-19.3q4.5-8.8 13.1-14.1q8.5-5.3 20.6-5.3q12.1 0 20.6 5.3q8.6 5.3 13 14.1q4.5 8.8 4.5 19.3q0 10.4-4.5 19.1q-4.4 8.8-13 14.1q-8.5 5.2-20.6 5.2zm0-15.1q9.3 0 14.2-6.5q5.1-6.5 5.1-16.8q0-10.5-5.1-17q-4.9-6.6-14.2-6.6q-9.2 0-14.3 6.6q-5 6.5-5 17q0 10.3 5 16.8q5.1 6.5 14.3 6.5zm69.3 49.6h-18.4v-110.2h14.9l3.5 12.4l-5.5-2q5.1-5.2 11.2-8.4q6-3.1 14.6-3.1q11 0 18.4 5.2q7.4 5.3 11.2 14q3.8 8.8 3.8 19.2q0 10.4-3.8 19.1q-3.8 8.8-11.2 14.1q-7.4 5.2-18.4 5.2q-8.6 0-14.1-2.4q-5.4-2.3-10.9-7.5l4.7-3.7zm17.5-49.6q8.3 0 12.8-6.5q4.6-6.5 4.6-16.8q0-10.4-4.6-16.8q-4.5-6.5-12.8-6.5q-6.4 0-10.4 3q-4.1 2.9-6 8.2q-2 5.2-2 12.1q0 6.9 2 12.2q1.9 5.2 6 8.1q4 3 10.4 3zm84.8 15.1q-13.4 0-22.4-5.3q-8.9-5.4-13.4-14.2q-4.4-9-4.4-19.5q0-10.2 4.1-18.8q4.2-8.6 12.3-13.8q8.1-5.2 19.8-5.2q10.7 0 17.8 4.3q7.1 4.4 10.7 11.8q3.5 7.2 3.5 16.1q0 2.4-0.3 4.9q-0.3 2.5-0.8 5.2h-48q1 6.9 4.3 11.2q3.4 4.2 8.1 6.2q4.8 2 10.3 2q6.5 0 12-1.6q5.6-1.7 10.3-4.5l0.9 15.6q-4.3 2.2-10.6 3.9q-6.3 1.7-14.2 1.7zm-20.6-47h29.9q0-3.3-1.2-6.7q-1.3-3.4-4.3-5.7q-2.8-2.3-7.8-2.3q-7.1 0-11.2 4.2q-4.1 4.1-5.4 10.5zm77.3 47q-5.9 0-10.8-2.6q-4.9-2.6-7.8-7.6q-2.9-5-2.9-12q0-6.3 2.9-10.8q2.9-4.5 7.7-7.5q4.8-3 10.4-4.7q5.6-1.8 11-2.6q5.5-0.8 9.7-1q-0.3-6.4-3.3-9.3q-3-2.9-10.1-2.9q-5 0-9.7 1.5q-4.7 1.3-10.6 4.2l-1.7-15q6.7-3.3 13.4-4.9q6.8-1.6 13.7-1.6q8.3 0 14.3 2.9q6 3 9.3 9.6q3.2 6.5 3.2 17.3v20q0 5.6 0.6 8.1q0.5 2.5 1.9 3.1q1.4 0.7 4.1 0.7h2.3l-1.6 15.1h-6.7q-4.1 0-7.4-1q-3.2-1.1-5.5-3q-2.3-2-3.7-4.6q-3.6 4.1-9.9 6.4q-6.1 2.2-12.8 2.2zm7.7-14.1q2.5 0 6.1-1.2q3.6-1.4 6.5-4.1v-16.9q-5.2 0.2-10.4 1.7q-5.2 1.5-8.6 4.4q-3.5 2.9-3.5 7.2q0 4.6 2.3 6.8q2.4 2.1 7.6 2.1z"/><path fill-rule="evenodd" class="B" d="m59 12.3h117.2c15.6 0 28.2 12.7 28.2 28.3v117.2c0 15.6-12.6 28.2-28.2 28.2h-99.2l-0.4-74.8q0-0.3 0-0.6c0-28.3 22.5-51.3 50.4-51.3c16.7 0 30.3 13.8 30.3 30.8c0 17-13.6 30.8-30.3 30.8c-5.6 0-10.1-4.6-10.1-10.3c0-5.6 4.5-10.2 10.1-10.2c5.6 0 10.1-4.6 10.1-10.3c0-5.6-4.5-10.2-10.1-10.2c-16.7 0-30.2 13.7-30.2 30.7c0 17.1 13.5 30.8 30.2 30.8c27.9 0 50.4-22.9 50.4-51.3c0-28.3-22.5-51.3-50.4-51.3c-39 0-70.6 32.1-70.6 71.8q0 0.4 0 0.7h-0.1l0.3 74.6c-14.5-1.2-25.9-13.3-25.9-28.1v-117.2c0-15.6 12.6-28.3 28.3-28.3z"/></svg>