<svg width="107" height="55" xmlns="http://www.w3.org/2000/svg"><g fill="none" fill-rule="evenodd"><circle fill="#141C3A" cx="86" cy="50" r="5"/><circle fill="#FFF" cx="102" cy="50" r="5"/><circle fill="#FFF" cx="86" cy="35" r="5"/><circle fill="#141C3A" cx="102" cy="35" r="5"/><circle fill="#141C3A" cx="102" cy="20" r="5"/><circle fill="#FFF" cx="87" cy="20" r="5"/><circle fill="#FFF" cx="102" cy="5" r="5"/><circle fill="#FFF" cx="87" cy="5" r="5"/><circle fill="#FFF" cx="5" cy="5" r="5"/><circle fill="#FFF" cx="21" cy="5" r="5"/><circle fill="#FFF" cx="38" cy="5" r="5"/><circle fill="#FFF" cx="54" cy="5" r="5"/><circle fill="#141C3A" cx="70" cy="5" r="5"/><circle fill="#FFF" cx="5" cy="20" r="5"/><circle fill="#141C3A" cx="21" cy="20" r="5"/><circle fill="#FFF" cx="38" cy="20" r="5"/><circle fill="#FFF" cx="54" cy="20" r="5"/><circle fill="#FFF" cx="70" cy="20" r="5"/><circle fill="#FFF" cx="5" cy="35" r="5"/><circle fill="#FFF" cx="21" cy="35" r="5"/><circle fill="#141C3A" cx="38" cy="35" r="5"/><circle fill="#141C3A" cx="54" cy="35" r="5"/><circle fill="#FFF" cx="70" cy="35" r="5"/><circle fill="#141C3A" cx="5" cy="50" r="5"/><circle fill="#FFF" cx="21" cy="50" r="5"/><circle fill="#141C3A" cx="38" cy="50" r="5"/><circle fill="#FFF" cx="54" cy="50" r="5"/><circle fill="#FFF" cx="70" cy="50" r="5"/></g></svg>