<svg xmlns="http://www.w3.org/2000/svg" viewBox="0 0 500 500"><g id="freepik--background-complete--inject-35"><rect y="382.4" width="500" height="0.25" style="fill:#ebebeb"></rect><rect x="288.4" y="396.34" width="33.12" height="0.25" style="fill:#ebebeb"></rect><rect x="407.08" y="393.63" width="8.69" height="0.25" style="fill:#ebebeb"></rect><rect x="327.67" y="389.21" width="68.92" height="0.25" style="fill:#ebebeb"></rect><rect x="194.84" y="395.11" width="30.3" height="0.25" style="fill:#ebebeb"></rect><rect x="166.72" y="395.11" width="19.22" height="0.25" style="fill:#ebebeb"></rect><rect x="52.46" y="390.89" width="46.84" height="0.25" style="fill:#ebebeb"></rect><path d="M237,337.8H43.91a5.71,5.71,0,0,1-5.7-5.71V60.66A5.71,5.71,0,0,1,43.91,55H237a5.71,5.71,0,0,1,5.71,5.71V332.09A5.71,5.71,0,0,1,237,337.8ZM43.91,55.2a5.46,5.46,0,0,0-5.45,5.46V332.09a5.46,5.46,0,0,0,5.45,5.46H237a5.47,5.47,0,0,0,5.46-5.46V60.66A5.47,5.47,0,0,0,237,55.2Z" style="fill:#ebebeb"></path><path d="M453.31,337.8H260.21a5.72,5.72,0,0,1-5.71-5.71V60.66A5.72,5.72,0,0,1,260.21,55h193.1A5.71,5.71,0,0,1,459,60.66V332.09A5.71,5.71,0,0,1,453.31,337.8ZM260.21,55.2a5.47,5.47,0,0,0-5.46,5.46V332.09a5.47,5.47,0,0,0,5.46,5.46h193.1a5.47,5.47,0,0,0,5.46-5.46V60.66a5.47,5.47,0,0,0-5.46-5.46Z" style="fill:#ebebeb"></path><path d="M391.25,200c4.46,8.92,4,17.86,6.43,26.64,2.49,9,5.74,17.65,6.3,26.24a111.41,111.41,0,0,1-1.46,24.83c-1.27,8.17-2.84,16-5.81,23.19s-7.2,13.47-11.92,19.63a86.4,86.4,0,0,1-16,16.51c-6.17,4.74-12.2,9.67-19.84,12.93-7.44,3.17-16.16,4.31-24.89,5.86s-17.84.24-26.9-.2c-9.35-.46-18,1.21-27.45-1.06s-18.62-8-28-11.86-19.46-5.17-28.5-10.2-18.75-9.68-27.33-15.82-15-14.89-22.58-22.07a190.36,190.36,0,0,1-21-22.58c-6.08-7.93-9.65-16.49-14.11-25.4s-13.93-17.51-16.41-26.29c-2.53-9-.22-17.64-.83-26.23s-2.3-17.89-1.08-25.95,4.38-15.67,7.35-22.89,9.25-12.2,14.06-18.21a82.94,82.94,0,0,1,16.46-15.86c6.29-4.52,12-9.79,19.74-12.89,7.49-3,16.83-3,25.52-4.5s17-3,26.11-3c9.31,0,18.62,2.18,28.07,3.8,9.65,1.66,18.85,2.12,28.35,5.46s19.26,6.5,28.4,11.59,17.61,11.7,26.17,18.23c8.4,6.42,14.93,14.44,22.4,22s18.7,12.87,24.81,21.26C383.3,181.48,386.79,191.1,391.25,200Z" style="fill:#f5f5f5"></path><path d="M177,99.71c-.76.86-2.31,1.27-3.93,1.45a32.22,32.22,0,0,0,.61-6.18,31.63,31.63,0,0,0-.27-4,5,5,0,0,1,3.58.85c2.79,2.61,6.29,5.3,5.82-4.5-.29-5.94-3.84-5.37-5.72-1.81-.62,1.17-2.39,2-4.19,2.57a31.29,31.29,0,0,0-6-12.47c1.27-1.25,2.79-2.38,4.14-2.25,3.8.35,8.22.33,1.83-7.12-3.87-4.52-6.33-1.89-5.63,2.08.26,1.47-.91,3.5-2.15,5.18a31.8,31.8,0,0,0-4.89-4.23c1.22-1.58,2.68-3.27,3.6-3.71,2.42-1.14,3.86-1.42,0-3.43-2.34-1.22-2.6-.15-2.27,1.88.13.78-1.11,2.81-2.34,4.59a31.31,31.31,0,0,0-6-3c.58-1.39,1.38-2.65,2.44-3,3.58-1.33,7.56-3.26-1.44-7.21-5.44-2.39-6.51,1.05-4.16,4.32.79,1.1.72,3.15.4,5.06a31.53,31.53,0,0,0-13.83-.57c-.53-1.64-.81-3.42-.12-4.53,2-3.25,4-7.21-5.56-4.81-5.77,1.45-4.51,4.82-.65,6,1.38.4,2.63,2.21,3.57,4A31.2,31.2,0,0,0,122,71c-1.59-1.45-3.87-3.89-3.59-5.81.55-3.78.76-8.2-7-2.2-4.71,3.62-2.21,6.22,1.79,5.72,2.12-.26,5.23,2.46,6.88,4.06a31.61,31.61,0,0,0-4.63,5.86c-2-.93-5-2.41-5.8-3.47-1.6-2.13-2.16-3.49-3.36.69-.73,2.54.38,2.58,2.3,1.85.91-.35,4.07,1,6.27,2a29.82,29.82,0,0,0-2.42,5.47,5,5,0,0,1-3.19-1.88c-1.88-3.33-4.43-6.94-6.89,2.56-1.5,5.76,2.07,6.27,4.92,3.43.87-.86,2.6-1.15,4.35-1.2a31.25,31.25,0,0,0,.13,14.51,4,4,0,0,1-2.58-.47c-3.14-2.18-7-4.33-5.1,5.3,1.15,5.84,4.58,4.75,5.92,1a5.82,5.82,0,0,1,2.72-2.59,31.32,31.32,0,0,0,3.37,6.66,11.88,11.88,0,0,1-3.91,1.22c-2-.12-3.13-.46-1.27,2.32,1.13,1.69,1.71,1.06,2.23-.43.22-.6,1.95-1.57,3.49-2.34a31.77,31.77,0,0,0,3.94,4.56,4.69,4.69,0,0,1-2.85,1.75c-3.82.2-8.19.87-.77,7.31,4.48,3.9,6.53.94,5.26-2.88-.36-1.09.06-2.64.73-4.14a31.26,31.26,0,0,0,9,4.89c-.55,1.82-1.42,3.77-2.78,4.31-3.54,1.43-7.46,3.47,1.63,7.17,5.51,2.25,6.49-1.22,4.05-4.42-1-1.33-.75-4.07-.33-6.28a31,31,0,0,0,6.93,1,12.22,12.22,0,0,1-.32,4.22c-.88,1.85-1.61,2.72,1.68,2,2-.42,1.61-1.19.43-2.23-.47-.42-.72-2.31-.85-4a31.19,31.19,0,0,0,5.41-.49c.76,1.85,1.38,4.13.6,5.48-1.92,3.3-3.77,7.31,5.69,4.66,5.72-1.6,4.37-4.94.48-6-1.6-.43-3.09-2.74-4.11-4.75a31.27,31.27,0,0,0,12.6-6.77,5.11,5.11,0,0,1,1.65,3.42c-.3,3.81-.22,8.23,7.15,1.74,4.46-3.93,1.8-6.35-2.16-5.6-1.27.24-3-.59-4.53-1.61a31.84,31.84,0,0,0,4-5.19,14.13,14.13,0,0,1,3.9,2.93c1.45,2.23,1.91,3.63,3.4-.46.9-2.48-.21-2.6-2.17-2-.71.21-2.68-.62-4.52-1.54a30.64,30.64,0,0,0,2.57-6,4.81,4.81,0,0,1,3.13,1.63c2.1,3.19,4.87,6.63,6.71-3C183.22,97,179.63,96.68,177,99.71Z" style="fill:#ebebeb"></path><path d="M420.6,293.24a4.66,4.66,0,0,1-2.41-1.93,22.76,22.76,0,0,0,6.58-3.67,3.67,3.67,0,0,1,.82,2.58c-.58,2.76-.95,6,5.06,2,3.64-2.43,1.93-4.46-1-4.29-1,.05-2.17-.75-3.21-1.67a23,23,0,0,0,5.6-8.49c1.27.32,2.56.85,3,1.75,1.23,2.53,2.92,5.31,5.2-1.55,1.37-4.16-1.22-4.71-3.46-2.76-.83.72-2.55.76-4.09.61a23.26,23.26,0,0,0,.81-4.69,10.82,10.82,0,0,1,3.72.86c1.63,1.09,2.36,1.89,2.16-1.31-.12-1.94-.9-1.7-2.05-.72-.45.38-2.2.37-3.79.27a22.86,22.86,0,0,0-.38-4.94,3.81,3.81,0,0,1,2.85.39c2.2,1.75,4.94,3.52,4-3.66-.57-4.34-3.14-3.71-4.31-1-.4.92-1.72,1.65-3.05,2.18a23.19,23.19,0,0,0-4.9-9c.84-.95,1.86-1.81,2.82-1.8,2.81,0,6.05-.24.92-5.34-3.11-3.08-4.76-1-4,1.87.26,1-.4,2.5-1.18,3.77a23,23,0,0,0-8.42-5.08c.31-1.56,1-3.92,2.3-4.48,2.59-1.09,5.46-2.64-1.28-5.27-4.09-1.59-4.77,1-2.94,3.31,1,1.24.45,4.24.06,5.89a22.82,22.82,0,0,0-5.46-.69c-.19-1.65-.38-4.09,0-5,.74-1.82,1.38-2.69-1.71-1.85-1.88.5-1.49,1.22-.29,2.15.56.44.94,2.93,1.15,4.7a22.35,22.35,0,0,0-4.37.56,3.72,3.72,0,0,1,0-2.73c1.38-2.45,2.7-5.43-4.24-3.38-4.2,1.25-3.17,3.7-.29,4.42a5,5,0,0,1,2.41,2.28,23.11,23.11,0,0,0-4.7,2.16,23.48,23.48,0,0,0-4.41,3.44,2.92,2.92,0,0,1-.68-1.8c.18-2.81.07-6.07-5.29-1.2-3.24,2.94-1.25,4.7,1.66,4.1a4.24,4.24,0,0,1,2.67.73,22.62,22.62,0,0,0-2.92,4.66,8.82,8.82,0,0,1-2.26-2c-.71-1.34-.9-2.15-1.95.09-.63,1.35,0,1.47,1.13,1.24.46-.1,1.73.62,2.8,1.31a22.4,22.4,0,0,0-1.38,4.22,3.46,3.46,0,0,1-2.19-1.14c-1.58-2.33-3.66-4.83-4.91,2.3-.75,4.31,1.9,4.48,3.82,2.22a4.71,4.71,0,0,1,2.89-1.11,23.09,23.09,0,0,0,.32,7.5c-1.36.35-2.92.54-3.77-.11-2.25-1.69-5-3.39-3.91,3.76.68,4.33,3.24,3.63,4.33.87.46-1.13,2.28-2,3.84-2.6a23.67,23.67,0,0,0,2,4.74,8.84,8.84,0,0,1-2.78,1.4c-1.5.15-2.33,0-.65,1.83,1,1.1,1.36.57,1.57-.57.08-.46,1.19-1.34,2.21-2.06a23.19,23.19,0,0,0,2.36,3.22c-.87,1.19-2.07,2.45-3.22,2.47-2.82,0-6.05.4-.78,5.36,3.19,3,4.78.88,4-2-.34-1.17.55-3,1.43-4.4a22.94,22.94,0,0,0,9.06,5.37,3.76,3.76,0,0,1-1.53,2.35c-2.51,1.26-5.27,3,1.63,5.17,4.17,1.32,4.69-1.28,2.71-3.49a5.22,5.22,0,0,1-.71-3.47,22.58,22.58,0,0,0,4.78.52,10.23,10.23,0,0,1-.36,3.58c-.86,1.77-1.56,2.59,1.58,2,1.91-.38,1.57-1.12.44-2.13-.41-.37-.63-1.93-.74-3.43A22.86,22.86,0,0,0,416,292a3.57,3.57,0,0,1,.17,2.6c-1.22,2.53-2.34,5.59,4.45,3.08C424.71,296.14,423.52,293.77,420.6,293.24Z" style="fill:#e6e6e6"></path><path d="M404.23,369.21a2.24,2.24,0,0,1-1.14-.91,10.35,10.35,0,0,0,2-.94,9.6,9.6,0,0,0,1.16-.81,1.75,1.75,0,0,1,.4,1.23c-.28,1.31-.46,2.85,2.4.93,1.73-1.16.91-2.12-.49-2a2.58,2.58,0,0,1-1.53-.79,11,11,0,0,0,2.66-4,2.11,2.11,0,0,1,1.42.83c.59,1.21,1.39,2.53,2.47-.73.66-2-.58-2.24-1.64-1.32a2.88,2.88,0,0,1-1.94.3,11.28,11.28,0,0,0,.38-2.24,5.76,5.76,0,0,1,1.77.41c.77.52,1.12.9,1-.62-.05-.92-.42-.8-1-.34a3.89,3.89,0,0,1-1.8.13,11.64,11.64,0,0,0-.18-2.35,1.79,1.79,0,0,1,1.35.19c1.05.83,2.35,1.67,1.91-1.74-.27-2.06-1.5-1.77-2.05-.47a2.63,2.63,0,0,1-1.45,1,11.1,11.1,0,0,0-1.15-2.66,11.7,11.7,0,0,0-1.18-1.59,2.08,2.08,0,0,1,1.34-.86c1.34,0,2.88-.12.44-2.54-1.48-1.46-2.26-.47-1.91.89a2.75,2.75,0,0,1-.55,1.79,11,11,0,0,0-4-2.41c.15-.74.47-1.87,1.09-2.13,1.24-.52,2.6-1.25-.61-2.5-1.93-.76-2.26.46-1.39,1.57.46.59.21,2,0,2.8a10.35,10.35,0,0,0-2.6-.33,7.2,7.2,0,0,1,0-2.37c.36-.87.66-1.28-.81-.88-.89.24-.7.58-.14,1A5.44,5.44,0,0,1,399,347a10.59,10.59,0,0,0-2.08.27,1.76,1.76,0,0,1,0-1.3c.66-1.16,1.28-2.58-2-1.6-2,.59-1.5,1.75-.13,2.1a2.37,2.37,0,0,1,1.14,1.08,10.66,10.66,0,0,0-2.23,1,10.93,10.93,0,0,0-2.09,1.63,1.35,1.35,0,0,1-.33-.86c.08-1.33,0-2.88-2.51-.57-1.54,1.4-.6,2.24.78,1.95a2.07,2.07,0,0,1,1.27.35,11,11,0,0,0-1.38,2.21,4.09,4.09,0,0,1-1.08-.95c-.33-.64-.42-1-.92,0-.31.64,0,.7.53.59a3.41,3.41,0,0,1,1.33.62,11,11,0,0,0-.65,2,1.58,1.58,0,0,1-1-.54c-.75-1.11-1.74-2.3-2.34,1.09-.35,2.05.9,2.13,1.82,1.06a2.18,2.18,0,0,1,1.37-.53,11.22,11.22,0,0,0,.15,3.56,2.27,2.27,0,0,1-1.79-.05c-1.07-.8-2.39-1.61-1.86,1.79.33,2.05,1.54,1.72,2.06.41.22-.54,1.09-1,1.83-1.23a11,11,0,0,0,1,2.25,4.45,4.45,0,0,1-1.32.66c-.71.07-1.11,0-.31.87.48.52.65.28.75-.27,0-.22.56-.63,1.05-1a11.44,11.44,0,0,0,1.12,1.54c-.42.56-1,1.16-1.53,1.16-1.34,0-2.88.2-.37,2.55,1.51,1.43,2.27.42,1.88-.93a3.17,3.17,0,0,1,.68-2.09,11,11,0,0,0,4.31,2.55,1.77,1.77,0,0,1-.73,1.11c-1.2.6-2.51,1.43.77,2.46,2,.63,2.23-.61,1.29-1.66a2.56,2.56,0,0,1-.34-1.65,10.91,10.91,0,0,0,2.28.25,5.06,5.06,0,0,1-.18,1.7c-.41.84-.74,1.23.76.94.9-.18.74-.53.2-1a3.75,3.75,0,0,1-.35-1.63,11.71,11.71,0,0,0,2.27-.32,1.72,1.72,0,0,1,.08,1.23c-.58,1.2-1.11,2.66,2.11,1.46C406.19,370.59,405.62,369.47,404.23,369.21Z" style="fill:#f5f5f5"></path><path d="M89.46,163.27a3,3,0,0,1-2,0,14.83,14.83,0,0,0,1.21-2.65,15.49,15.49,0,0,0,.49-1.83,2.29,2.29,0,0,1,1.46.92c.84,1.58,2,3.31,3.27-1.11.77-2.68-.89-3-2.27-1.68a3.36,3.36,0,0,1-2.24.51,14.69,14.69,0,0,0-.75-6.44,2.89,2.89,0,0,1,2.18-.37c1.63.74,3.6,1.4,1.9-2.88-1-2.59-2.52-1.8-2.82.07-.11.69-.93,1.41-1.74,2a14.94,14.94,0,0,0-1.53-2.62,7,7,0,0,1,2.17-1.1c1.24-.14,1.92,0,.52-1.52-.85-.9-1.14-.46-1.3.49-.06.37-.92,1.07-1.73,1.68a14.69,14.69,0,0,0-2.21-2.25,2.42,2.42,0,0,1,1.55-1c1.79-.05,3.85-.31.46-3.42-2.06-1.89-3.05-.53-2.51,1.28A3.49,3.49,0,0,1,83,143.7,14.62,14.62,0,0,0,79.55,142a14.93,14.93,0,0,0-2.58-.63,2.76,2.76,0,0,1,.64-2c1.38-1.13,2.85-2.6-1.74-3-2.78-.23-2.73,1.46-1.19,2.55a3.64,3.64,0,0,1,1,2.32,14.7,14.7,0,0,0-6.19,1c-.49-.88-1.13-2.31-.71-3.12.82-1.6,1.58-3.52-2.78-2.05-2.64.9-1.93,2.43-.08,2.82,1,.2,2,1.88,2.44,2.84a14.84,14.84,0,0,0-3,1.9,9.78,9.78,0,0,1-2-2.42c-.39-1.19-.43-1.88-1.6-.21-.71,1-.22,1.21.74,1.17.46,0,1.66,1.05,2.49,1.82A14.35,14.35,0,0,0,63.06,147a2.38,2.38,0,0,1-1.13-1.32c-.33-1.76-.91-3.75-3.44.09-1.54,2.33,0,3.1,1.66,2.27a3.21,3.21,0,0,1,2.11.13,14.66,14.66,0,0,0-2.15,6.46A1.87,1.87,0,0,1,59,154c-1.06-1.45-2.45-3-3.07,1.57-.38,2.77,1.31,2.81,2.48,1.33a2.73,2.73,0,0,1,1.6-.74,15,15,0,0,0,.49,3.47,5.46,5.46,0,0,1-1.92-.06c-.9-.36-1.32-.68-.92.84.24.92.6.73,1.06.15a4.22,4.22,0,0,1,1.9-.51,15.25,15.25,0,0,0,1.05,2.62,2.15,2.15,0,0,1-1.53.34c-1.72-.49-3.76-.86-1.45,3.13,1.4,2.41,2.75,1.41,2.77-.48a3,3,0,0,1,1-1.72,14.79,14.79,0,0,0,3.23,3.52c-.52.73-1.2,1.46-1.89,1.5-1.79.09-3.84.4-.37,3.43,2.11,1.83,3.07.44,2.48-1.35-.25-.74.28-1.92.8-2.84a14.64,14.64,0,0,0,2.93,1.48,5.88,5.88,0,0,1-.78,1.82c-.67.69-1.13,1,.43,1.16,1,.12.9-.28.53-.92a4.31,4.31,0,0,1,.23-1.91,14.71,14.71,0,0,0,2.48.61A3.23,3.23,0,0,1,72,173c-1.35,1.18-2.78,2.68,1.82,2.94,2.78.16,2.69-1.53,1.12-2.58-.65-.43-1-1.69-1.1-2.73a14.87,14.87,0,0,0,6.62-1.09,2.38,2.38,0,0,1,.21,1.77c-.71,1.64-1.35,3.62,2.91,1.86,2.58-1.07,1.76-2.55-.11-2.82a3.3,3.3,0,0,1-1.76-1.4,14.43,14.43,0,0,0,2.54-1.7,6.58,6.58,0,0,1,1.29,1.89c.3,1.22.3,1.91,1.58.32.77-1,.3-1.19-.66-1.22-.35,0-1.09-.68-1.77-1.37a14.44,14.44,0,0,0,2.06-2.28,2.29,2.29,0,0,1,1.14,1.19c.44,1.74,1.15,3.69,3.43-.31C92.65,163,91.1,162.34,89.46,163.27Z" style="fill:#f5f5f5"></path><path d="M273.67,194.19a6.16,6.16,0,0,1-3.17-2.54,30.93,30.93,0,0,0,5.43-2.58,31.27,31.27,0,0,0,3.22-2.25,4.83,4.83,0,0,1,1.09,3.4c-.77,3.62-1.25,7.88,6.65,2.58,4.79-3.21,2.54-5.88-1.36-5.66-1.28.07-2.86-1-4.23-2.19a30.3,30.3,0,0,0,7.37-11.17c1.68.42,3.37,1.12,3.94,2.3,1.61,3.33,3.84,7,6.83-2,1.82-5.48-1.6-6.2-4.54-3.63-1.09,1-3.36,1-5.38.8a30.62,30.62,0,0,0,1.06-6.18c1.93.23,4.06.59,4.89,1.14,2.15,1.43,3.1,2.49,2.85-1.72-.16-2.55-1.19-2.23-2.7-.94-.59.5-2.89.48-5,.35a30.28,30.28,0,0,0-.51-6.5,5,5,0,0,1,3.76.51c2.89,2.3,6.49,4.63,5.26-4.81-.74-5.72-4.13-4.89-5.67-1.3-.52,1.22-2.25,2.18-4,2.87A30.5,30.5,0,0,0,283,142.86c1.1-1.26,2.44-2.38,3.7-2.36,3.7,0,8-.33,1.22-7-4.1-4.06-6.27-1.33-5.28,2.45.35,1.34-.53,3.29-1.54,5A30.43,30.43,0,0,0,270,134.2c.4-2,1.29-5.16,3-5.89,3.42-1.44,7.19-3.47-1.68-6.93-5.37-2.1-6.27,1.28-3.86,4.35,1.27,1.63.58,5.57.07,7.74a30.91,30.91,0,0,0-7.18-.91c-.25-2.16-.5-5.37,0-6.55,1-2.4,1.81-3.54-2.26-2.45-2.47.67-1.95,1.61-.38,2.84.74.58,1.24,3.86,1.51,6.18a30.47,30.47,0,0,0-5.75.73,4.88,4.88,0,0,1,0-3.59c1.81-3.22,3.54-7.14-5.58-4.43-5.53,1.64-4.17,4.85-.38,5.8,1.15.29,2.25,1.58,3.16,3a31.17,31.17,0,0,0-6.18,2.83,30.17,30.17,0,0,0-5.79,4.54,3.93,3.93,0,0,1-.91-2.38c.24-3.7.1-8-7-1.58-4.27,3.88-1.65,6.19,2.18,5.4a5.6,5.6,0,0,1,3.51,1A30.2,30.2,0,0,0,232.7,150a11.36,11.36,0,0,1-3-2.64c-.93-1.76-1.18-2.83-2.56.11-.84,1.78,0,1.95,1.47,1.63.61-.12,2.28.83,3.69,1.73a30.25,30.25,0,0,0-1.81,5.55,4.52,4.52,0,0,1-2.88-1.49c-2.08-3.07-4.82-6.36-6.46,3-1,5.67,2.49,5.89,5,2.92.72-.85,2.22-1.27,3.8-1.46a30.1,30.1,0,0,0,.42,9.87c-1.79.46-3.84.71-5-.14-3-2.23-6.61-4.47-5.14,4.94.89,5.69,4.26,4.78,5.7,1.15.6-1.5,3-2.67,5-3.42a29.81,29.81,0,0,0,2.68,6.23,11.83,11.83,0,0,1-3.67,1.84c-2,.2-3.06,0-.85,2.42,1.34,1.44,1.79.75,2.07-.76.1-.6,1.55-1.76,2.9-2.72a29.76,29.76,0,0,0,3.11,4.25c-1.15,1.56-2.73,3.22-4.24,3.24-3.71.06-8,.54-1,7.06,4.2,3.95,6.29,1.16,5.21-2.59-.45-1.55.73-3.94,1.88-5.79A30.51,30.51,0,0,0,251.06,192a5,5,0,0,1-2,3.08c-3.32,1.66-6.94,3.94,2.13,6.81,5.5,1.74,6.18-1.69,3.57-4.6-.84-.93-1-2.77-.93-4.56a30.84,30.84,0,0,0,6.29.69,13.6,13.6,0,0,1-.47,4.7c-1.14,2.33-2.06,3.41,2.08,2.6,2.51-.5,2-1.48.57-2.8-.53-.49-.82-2.54-1-4.52a30.66,30.66,0,0,0,6.29-.89,4.67,4.67,0,0,1,.21,3.41c-1.6,3.34-3.06,7.37,5.86,4.06C279.08,198,277.51,194.88,273.67,194.19Z" style="fill:#fff"></path></g><g id="freepik--character-1--inject-35"><path d="M291.33,247.81c5.82,28.66-1.75,57.62-16.72,80.21a106.79,106.79,0,0,1-67.53,45.72c-28.66,5.82-56.17-2.67-78.77-17.64s-41.84-36.84-47.66-65.5S82.06,233,97,210.39s39.19-38.62,67.85-44.44,57.67-1.2,80.27,13.77S285.51,219.15,291.33,247.81Z" style="fill:#FA9805;opacity:0.2"></path><path d="M145.87,340.2c-2,13.81-12.76,63.73-16.41,68.93a151.24,151.24,0,0,1-15.64-5.87.92.92,0,0,0-1,1.51,55.7,55.7,0,0,0,18.93,11.47c5.91-13,21.51-57.53,21.51-63.13C149.67,347.61,145.87,340.2,145.87,340.2Z" style="fill:#FA9805"></path><path d="M145.87,340.2c-.57,3.92-1.84,10.72-3.45,18.59A82.87,82.87,0,0,0,151.2,362c1.29-4.4,2.08-7.64,2.08-8.9C149.68,347.61,145.87,340.2,145.87,340.2Z" style="opacity:0.2"></path><path d="M281.15,269.27c0,25.86-11.66,49.61-28.6,66.56A94.41,94.41,0,0,1,186,363.56c-25.86,0-48.2-12.2-65.15-29.14s-29.77-39.29-29.77-65.15,11.36-49.67,28.31-66.61,40.75-26.57,66.61-26.57,50.18,9.11,67.13,26.06A96,96,0,0,1,281.15,269.27Z" style="fill:#FA9805"></path><path d="M213,359.54l-10-10c1.09,3.94.36,9.15-.32,12.49A89.2,89.2,0,0,0,213,359.54Z" style="opacity:0.2"></path><path d="M200.1,347.41c4.73,6.19,17.78,24.49,26,38.94,3,5.3,24.87,9.33,27.46,10.42a150.9,150.9,0,0,1-2.42,16.54.91.91,0,0,0,1.68.64A55.48,55.48,0,0,0,260,393c-13.55-.88-19.46-7.48-28-8.8-7.09-14.36-12.87-32.13-15.11-34.32C210.45,348.62,200.1,347.41,200.1,347.41Z" style="fill:#FA9805"></path><path d="M266.63,179.42c-4.31,9.9-15.51,21.81-22.31,27a4.5,4.5,0,0,0,3.7,3.9s17.2-17.91,21.26-28.31C267.83,180.72,266.63,179.42,266.63,179.42Z" style="fill:#FA9805"></path><path d="M276.63,178.67a7.45,7.45,0,0,1-7.36,7.3,7.12,7.12,0,0,1-5-2.26,7.21,7.21,0,0,1-2.31-5,7.35,7.35,0,0,1,2.19-5.15,7.58,7.58,0,0,1,10.35,0A7.43,7.43,0,0,1,276.63,178.67Z" style="fill:#FA9805"></path><path d="M276.63,178.67a7.45,7.45,0,0,1-7.36,7.3,7.12,7.12,0,0,1-5-2.26,7.21,7.21,0,0,1-2.31-5,7.35,7.35,0,0,1,2.19-5.15,7.58,7.58,0,0,1,10.35,0A7.43,7.43,0,0,1,276.63,178.67Z" style="fill:#fff;opacity:0.2"></path><path d="M206.79,157.61c-.91,14.44-9.6,34.55-15.8,44.21,2.52,4.22,6.44,3.23,6.44,3.23s13.52-30.41,13.89-45.37C208.89,158.7,206.79,157.61,206.79,157.61Z" style="fill:#FA9805"></path><path d="M219.06,152.11a9.91,9.91,0,0,1-.44,7.5,9.79,9.79,0,0,1-5.52,5,10.49,10.49,0,0,1-12.58-5.85,9.83,9.83,0,0,1,.42-7.49,9.67,9.67,0,0,1,5.55-4.94,9.79,9.79,0,0,1,7.47.18A9.93,9.93,0,0,1,219.06,152.11Z" style="fill:#FA9805"></path><path d="M219.06,152.11a9.91,9.91,0,0,1-.44,7.5,9.79,9.79,0,0,1-5.52,5,10.49,10.49,0,0,1-12.58-5.85,9.83,9.83,0,0,1,.42-7.49,9.67,9.67,0,0,1,5.55-4.94,9.79,9.79,0,0,1,7.47.18A9.93,9.93,0,0,1,219.06,152.11Z" style="fill:#fff;opacity:0.2"></path><path d="M238.44,172.44c-5.56,7.28-9.76,20.51-10.81,27.7a3.83,3.83,0,0,1-4.42-1.13s6.17-20.15,12.21-27.46C237,172.09,238.44,172.44,238.44,172.44Z" style="fill:#FA9805"></path><path d="M234.86,164.72a6.31,6.31,0,0,0-2.37,8.47,6.64,6.64,0,0,0,8.44,2.43,6.24,6.24,0,0,0,2.92-3.75,6.46,6.46,0,0,0-4.25-7.69A6.28,6.28,0,0,0,234.86,164.72Z" style="fill:#FA9805"></path><path d="M234.86,164.72a6.31,6.31,0,0,0-2.37,8.47,6.64,6.64,0,0,0,8.44,2.43,6.24,6.24,0,0,0,2.92-3.75,6.46,6.46,0,0,0-4.25-7.69A6.28,6.28,0,0,0,234.86,164.72Z" style="fill:#fff;opacity:0.2"></path><path d="M179.94,161.21c.86,7.17,5.74,17,9.1,21.6a3,3,0,0,1-3.12,1.79s-7.58-14.79-8.17-22.23C178.93,161.81,179.94,161.21,179.94,161.21Z" style="fill:#FA9805"></path><path d="M173.68,158.81a4.93,4.93,0,0,0,.42,3.72A4.87,4.87,0,0,0,177,164.9a4.82,4.82,0,0,0,3.67-.48,4.77,4.77,0,0,0,2.44-2.78,4.91,4.91,0,0,0-.41-3.73,5.09,5.09,0,0,0-6.62-2A4.94,4.94,0,0,0,173.68,158.81Z" style="fill:#FA9805"></path><path d="M173.68,158.81a4.93,4.93,0,0,0,.42,3.72A4.87,4.87,0,0,0,177,164.9a4.82,4.82,0,0,0,3.67-.48,4.77,4.77,0,0,0,2.44-2.78,4.91,4.91,0,0,0-.41-3.73,5.09,5.09,0,0,0-6.62-2A4.94,4.94,0,0,0,173.68,158.81Z" style="fill:#fff;opacity:0.2"></path><path d="M153.77,159.56c4.41,8.81,6.18,23.63,5.83,31.44a4.11,4.11,0,0,0,4.9-.31s-2.45-22.53-7.35-31.46C155.39,159.48,153.77,159.56,153.77,159.56Z" style="fill:#FA9805"></path><path d="M159.11,152.12a6.75,6.75,0,0,1,2.31,4.57,6.63,6.63,0,0,1-1.52,4.86,7.14,7.14,0,0,1-9.4.87,6.75,6.75,0,0,1-2.33-4.56,6.92,6.92,0,0,1,6-7.26A6.78,6.78,0,0,1,159.11,152.12Z" style="fill:#FA9805"></path><path d="M159.11,152.12a6.75,6.75,0,0,1,2.31,4.57,6.63,6.63,0,0,1-1.52,4.86,7.14,7.14,0,0,1-9.4.87,6.75,6.75,0,0,1-2.33-4.56,6.92,6.92,0,0,1,6-7.26A6.78,6.78,0,0,1,159.11,152.12Z" style="fill:#fff;opacity:0.2"></path><path d="M132.38,175.2C134.21,183.36,141,194,145.43,199a3.48,3.48,0,0,1-3.38,2.43S131.56,185.3,130,176.79C131.28,176,132.38,175.2,132.38,175.2Z" style="fill:#FA9805"></path><path d="M124.87,173.18a5.7,5.7,0,0,0,.94,4.24,5.64,5.64,0,0,0,3.61,2.38,6,6,0,0,0,6.64-4.49,5.66,5.66,0,0,0-.92-4.23,5.59,5.59,0,0,0-3.62-2.32,5.68,5.68,0,0,0-4.24.78A5.77,5.77,0,0,0,124.87,173.18Z" style="fill:#FA9805"></path><path d="M124.87,173.18a5.7,5.7,0,0,0,.94,4.24,5.64,5.64,0,0,0,3.61,2.38,6,6,0,0,0,6.64-4.49,5.66,5.66,0,0,0-.92-4.23,5.59,5.59,0,0,0-3.62-2.32,5.68,5.68,0,0,0-4.24.78A5.77,5.77,0,0,0,124.87,173.18Z" style="fill:#fff;opacity:0.2"></path><path d="M109.23,182.09c9.33,5.43,19.86,17.94,24.23,25.3a4.51,4.51,0,0,0,4.31-3.22S122,185,112.12,179.76C110.66,181.05,109.23,182.09,109.23,182.09Z" style="fill:#FA9805"></path><path d="M109.65,172.07a7.44,7.44,0,0,1,6.39,8.16,7.11,7.11,0,0,1-2.83,4.74,7.19,7.19,0,0,1-5.27,1.71,7.35,7.35,0,0,1-4.86-2.78,7.57,7.57,0,0,1,1.16-10.28A7.43,7.43,0,0,1,109.65,172.07Z" style="fill:#FA9805"></path><path d="M109.65,172.07a7.44,7.44,0,0,1,6.39,8.16,7.11,7.11,0,0,1-2.83,4.74,7.19,7.19,0,0,1-5.27,1.71,7.35,7.35,0,0,1-4.86-2.78,7.57,7.57,0,0,1,1.16-10.28A7.43,7.43,0,0,1,109.65,172.07Z" style="fill:#fff;opacity:0.2"></path><path d="M80.61,239c14.24,2.58,33.2,13.55,42.07,20.83,4.48-2,4-6,4-6s-28.63-17-43.45-19.07C81.94,237,80.61,239,80.61,239Z" style="fill:#FA9805"></path><path d="M76.58,226.16a10,10,0,0,1,11.77,7.37,10.51,10.51,0,0,1-7.27,11.82,9.88,9.88,0,0,1-7.4-1.28,10.17,10.17,0,0,1-3.22-13.49A10,10,0,0,1,76.58,226.16Z" style="fill:#FA9805"></path><path d="M76.58,226.16a10,10,0,0,1,11.77,7.37,10.51,10.51,0,0,1-7.27,11.82,9.88,9.88,0,0,1-7.4-1.28,10.17,10.17,0,0,1-3.22-13.49A10,10,0,0,1,76.58,226.16Z" style="fill:#fff;opacity:0.2"></path><path d="M99,209.28c6.59,6.37,19.24,12.07,26.26,13.95a3.82,3.82,0,0,1-1.64,4.26s-19.3-8.47-25.85-15.31C98.5,210.69,99,209.28,99,209.28Z" style="fill:#FA9805"></path><path d="M90.93,211.94a6.32,6.32,0,0,0,8.14,3.33,6.63,6.63,0,0,0,3.4-8.1,6.24,6.24,0,0,0-3.39-3.33A6.43,6.43,0,0,0,91,207.16,6.37,6.37,0,0,0,90.93,211.94Z" style="fill:#FA9805"></path><path d="M90.93,211.94a6.32,6.32,0,0,0,8.14,3.33,6.63,6.63,0,0,0,3.4-8.1,6.24,6.24,0,0,0-3.39-3.33A6.43,6.43,0,0,0,91,207.16,6.37,6.37,0,0,0,90.93,211.94Z" style="fill:#fff;opacity:0.2"></path><path d="M81.07,266.07c7.22,0,17.51-3.73,22.51-6.53a3,3,0,0,1,1.41,3.31s-15.57,5.81-23,5.54C81.55,267.15,81.07,266.07,81.07,266.07Z" style="fill:#FA9805"></path><path d="M78,272a5,5,0,0,0,6.44-2.58A5.26,5.26,0,0,0,81.86,263a4.92,4.92,0,0,0-3.75,0,5.08,5.08,0,0,0-2.77,6.34A4.94,4.94,0,0,0,78,272Z" style="fill:#FA9805"></path><path d="M78,272a5,5,0,0,0,6.44-2.58A5.26,5.26,0,0,0,81.86,263a4.92,4.92,0,0,0-3.75,0,5.08,5.08,0,0,0-2.77,6.34A4.94,4.94,0,0,0,78,272Z" style="fill:#fff;opacity:0.2"></path><path d="M76.38,291.87c9.27-3.35,24.19-3.39,31.91-2.13a4.11,4.11,0,0,0,.26-4.91s-22.66-.18-32.1,3.65C76.49,290.26,76.38,291.87,76.38,291.87Z" style="fill:#FA9805"></path><path d="M69.62,285.7a6.79,6.79,0,0,1,9.45.31,6.51,6.51,0,0,1,1.67,4.76,6.58,6.58,0,0,1-1.9,4.69,6.77,6.77,0,0,1-4.79,1.78,6.93,6.93,0,0,1-6.52-6.84A6.81,6.81,0,0,1,69.62,285.7Z" style="fill:#FA9805"></path><path d="M69.62,285.7a6.79,6.79,0,0,1,9.45.31,6.51,6.51,0,0,1,1.67,4.76,6.58,6.58,0,0,1-1.9,4.69,6.77,6.77,0,0,1-4.79,1.78,6.93,6.93,0,0,1-6.52-6.84A6.81,6.81,0,0,1,69.62,285.7Z" style="fill:#fff;opacity:0.2"></path><path d="M89.43,314.94c8.32-.88,19.72-6.38,25.15-10.2a3.49,3.49,0,0,1,2,3.64s-17.24,8.55-25.87,9.12C90.11,316.13,89.43,314.94,89.43,314.94Z" style="fill:#FA9805"></path><path d="M86.55,322.16a5.75,5.75,0,0,0,4.32-.44,5.62,5.62,0,0,0,2.78-3.3,5.49,5.49,0,0,0-.49-4.25A5.57,5.57,0,0,0,90,311.29a5.72,5.72,0,0,0-4.31.42A5.58,5.58,0,0,0,82.94,315a5.66,5.66,0,0,0,.28,4.31A5.76,5.76,0,0,0,86.55,322.16Z" style="fill:#FA9805"></path><path d="M86.55,322.16a5.75,5.75,0,0,0,4.32-.44,5.62,5.62,0,0,0,2.78-3.3,5.49,5.49,0,0,0-.49-4.25A5.57,5.57,0,0,0,90,311.29a5.72,5.72,0,0,0-4.31.42A5.58,5.58,0,0,0,82.94,315a5.66,5.66,0,0,0,.28,4.31A5.76,5.76,0,0,0,86.55,322.16Z" style="fill:#fff;opacity:0.2"></path><path d="M114.42,357.43c4-10,14.92-22.22,21.58-27.6a4.5,4.5,0,0,0-3.8-3.8s-16.73,18.36-20.5,28.87C113.18,356.16,114.42,357.43,114.42,357.43Z" style="fill:#FA9805"></path><path d="M104.43,358.44a7.38,7.38,0,0,1,2.08-5.21A7.28,7.28,0,0,1,111.6,351a7.12,7.12,0,0,1,5.1,2.12,7.25,7.25,0,0,1,2.44,5,7.36,7.36,0,0,1-2.06,5.21,7.22,7.22,0,0,1-5.09,2.19,7.32,7.32,0,0,1-5.25-1.88A7.42,7.42,0,0,1,104.43,358.44Z" style="fill:#FA9805"></path><path d="M104.43,358.44a7.38,7.38,0,0,1,2.08-5.21A7.28,7.28,0,0,1,111.6,351a7.12,7.12,0,0,1,5.1,2.12,7.25,7.25,0,0,1,2.44,5,7.36,7.36,0,0,1-2.06,5.21,7.22,7.22,0,0,1-5.09,2.19,7.32,7.32,0,0,1-5.25-1.88A7.42,7.42,0,0,1,104.43,358.44Z" style="fill:#fff;opacity:0.2"></path><path d="M188.53,384.86c-2.39-14.27,1.51-35.83,5.36-46.64-3.41-3.54-7-1.68-7-1.68s-6.26,32.68-3.22,47.33C186.23,384.28,188.53,384.86,188.53,384.86Z" style="fill:#FA9805"></path><path d="M177.83,393a10,10,0,0,1,2.95-13.57,10.49,10.49,0,0,1,13.58,2.84,9.84,9.84,0,0,1,1.3,7.39,10.16,10.16,0,0,1-11.6,7.59A9.92,9.92,0,0,1,177.83,393Z" style="fill:#FA9805"></path><path d="M177.83,393a10,10,0,0,1,2.95-13.57,10.49,10.49,0,0,1,13.58,2.84,9.84,9.84,0,0,1,1.3,7.39,10.16,10.16,0,0,1-11.6,7.59A9.92,9.92,0,0,1,177.83,393Z" style="fill:#fff;opacity:0.2"></path><path d="M164.31,375.51c3.77-8.35,4.85-22.19,4.24-29.43a3.81,3.81,0,0,1,4.56.1s-1.43,21-5.65,29.51C165.81,375.52,164.31,375.51,164.31,375.51Z" style="fill:#FA9805"></path><path d="M169.55,382.22a6.27,6.27,0,0,0,2-4.33,6.21,6.21,0,0,0-1.6-4.46,6.07,6.07,0,0,0-4.29-1.88,6.14,6.14,0,0,0-4.48,1.43,6.26,6.26,0,0,0-2,4.32,6.44,6.44,0,0,0,5.88,6.52A6.28,6.28,0,0,0,169.55,382.22Z" style="fill:#FA9805"></path><path d="M169.55,382.22a6.27,6.27,0,0,0,2-4.33,6.21,6.21,0,0,0-1.6-4.46,6.07,6.07,0,0,0-4.29-1.88,6.14,6.14,0,0,0-4.48,1.43,6.26,6.26,0,0,0-2,4.32,6.44,6.44,0,0,0,5.88,6.52A6.28,6.28,0,0,0,169.55,382.22Z" style="fill:#fff;opacity:0.2"></path><path d="M92.43,330.52c6.15-3.79,13-12.34,15.78-17.34a3,3,0,0,1,2.93,2.08S100.91,328.36,94.41,332C93.41,331.19,92.43,330.52,92.43,330.52Z" style="fill:#FA9805"></path><path d="M92.89,337.21A5,5,0,0,0,97,331.64a5.25,5.25,0,0,0-5.53-4.17,4.92,4.92,0,0,0-3.2,1.94,4.81,4.81,0,0,0-.87,3.61,4.92,4.92,0,0,0,1.82,3.25A5,5,0,0,0,92.89,337.21Z" style="fill:#FA9805"></path><path d="M92.89,337.21A5,5,0,0,0,97,331.64a5.25,5.25,0,0,0-5.53-4.17,4.92,4.92,0,0,0-3.2,1.94,4.81,4.81,0,0,0-.87,3.61,4.92,4.92,0,0,0,1.82,3.25A5,5,0,0,0,92.89,337.21Z" style="fill:#fff;opacity:0.2"></path><path d="M253.84,374c-6.3-7.58-11.38-21.61-12.82-29.29a4.11,4.11,0,0,0-4.7,1.41s7.5,21.39,14.31,29C252.28,374.47,253.84,374,253.84,374Z" style="fill:#FA9805"></path><path d="M250.32,382.48a6.76,6.76,0,0,1-3.28-3.92,6.68,6.68,0,0,1,.37-5.08,7.15,7.15,0,0,1,9-3,6.79,6.79,0,0,1-.94,12.35A6.78,6.78,0,0,1,250.32,382.48Z" style="fill:#FA9805"></path><path d="M250.32,382.48a6.76,6.76,0,0,1-3.28-3.92,6.68,6.68,0,0,1,.37-5.08,7.15,7.15,0,0,1,9-3,6.79,6.79,0,0,1-.94,12.35A6.78,6.78,0,0,1,250.32,382.48Z" style="fill:#fff;opacity:0.2"></path><path d="M271.12,353.94c-3.64-7.53-12.68-16.4-18.11-20.21a3.48,3.48,0,0,1,2.74-3.13s13.88,13.32,17.34,21.24C272,352.89,271.12,353.94,271.12,353.94Z" style="fill:#FA9805"></path><path d="M278.89,354.2a5.73,5.73,0,0,0-1.87-3.92,5.66,5.66,0,0,0-4.06-1.49,6.05,6.05,0,0,0-5.45,5.87,5.69,5.69,0,0,0,1.85,3.92,5.88,5.88,0,0,0,8-.29A5.75,5.75,0,0,0,278.89,354.2Z" style="fill:#FA9805"></path><path d="M278.89,354.2a5.73,5.73,0,0,0-1.87-3.92,5.66,5.66,0,0,0-4.06-1.49,6.05,6.05,0,0,0-5.45,5.87,5.69,5.69,0,0,0,1.85,3.92,5.88,5.88,0,0,0,8-.29A5.75,5.75,0,0,0,278.89,354.2Z" style="fill:#fff;opacity:0.2"></path><path d="M294.39,336.64c-10.32-3.16-23.41-13-29.34-19.13a4.5,4.5,0,0,0-3.46,4.11s19.72,15.09,30.52,17.95C293.24,338,294.39,336.64,294.39,336.64Z" style="fill:#FA9805"></path><path d="M296.26,346.5a7.44,7.44,0,0,1-8.08-6.49,7.84,7.84,0,0,1,6.43-8.12,7.31,7.31,0,0,1,5.36,1.6,7.59,7.59,0,0,1,1.2,10.27A7.4,7.4,0,0,1,296.26,346.5Z" style="fill:#FA9805"></path><path d="M296.26,346.5a7.44,7.44,0,0,1-8.08-6.49,7.84,7.84,0,0,1,6.43-8.12,7.31,7.31,0,0,1,5.36,1.6,7.59,7.59,0,0,1,1.2,10.27A7.4,7.4,0,0,1,296.26,346.5Z" style="fill:#fff;opacity:0.2"></path><path d="M305.05,280.07c-14.45.71-35.41-5.67-45.7-10.75-3.91,3-2.49,6.77-2.49,6.77s31.73,10,46.64,8.71C304.2,282.28,305.05,280.07,305.05,280.07Z" style="fill:#FA9805"></path><path d="M311.89,291.64a9.85,9.85,0,0,1-7.5.4,9.74,9.74,0,0,1-5.64-4.91,10.48,10.48,0,0,1,4.4-13.15,9.88,9.88,0,0,1,7.49-.44,10.19,10.19,0,0,1,6.2,12.41A10,10,0,0,1,311.89,291.64Z" style="fill:#FA9805"></path><path d="M311.89,291.64a9.85,9.85,0,0,1-7.5.4,9.74,9.74,0,0,1-5.64-4.91,10.48,10.48,0,0,1,4.4-13.15,9.88,9.88,0,0,1,7.49-.44,10.19,10.19,0,0,1,6.2,12.41A10,10,0,0,1,311.89,291.64Z" style="fill:#fff;opacity:0.2"></path><path d="M295.88,313.18c-7.86-4.71-21.48-7.4-28.74-7.63a3.81,3.81,0,0,1,.63-4.52s20.72,3.86,28.65,9.05C296.06,311.69,295.88,313.18,295.88,313.18Z" style="fill:#FA9805"></path><path d="M303.15,308.75a6.33,6.33,0,0,0-8.69-1.4A6.67,6.67,0,0,0,293,316a6.32,6.32,0,0,0,11.22-2.61A6.34,6.34,0,0,0,303.15,308.75Z" style="fill:#FA9805"></path><path d="M303.15,308.75a6.33,6.33,0,0,0-8.69-1.4A6.67,6.67,0,0,0,293,316a6.32,6.32,0,0,0,11.22-2.61A6.34,6.34,0,0,0,303.15,308.75Z" style="fill:#fff;opacity:0.2"></path><path d="M300.47,253.79c-7,1.66-16.2,7.61-20.44,11.47a3,3,0,0,1-2.12-2.9s13.84-9.19,21.17-10.62C299.76,252.85,300.47,253.79,300.47,253.79Z" style="fill:#FA9805"></path><path d="M302.16,247.3a5,5,0,0,0-5.68,4,4.77,4.77,0,0,0,.88,3.59,4.84,4.84,0,0,0,3,2.12,4.91,4.91,0,0,0,3.66-.83,4.83,4.83,0,0,0,2-3.15,4.79,4.79,0,0,0-3.87-5.7Z" style="fill:#FA9805"></path><path d="M302.16,247.3a5,5,0,0,0-5.68,4,4.77,4.77,0,0,0,.88,3.59,4.84,4.84,0,0,0,3,2.12,4.91,4.91,0,0,0,3.66-.83,4.83,4.83,0,0,0,2-3.15,4.79,4.79,0,0,0-3.87-5.7Z" style="fill:#fff;opacity:0.2"></path><path d="M299.18,227.6c-8.26,5.37-22.79,8.79-30.59,9.32a4.12,4.12,0,0,0,.85,4.84s22.12-5,30.45-10.84C299.44,229.2,299.18,227.6,299.18,227.6Z" style="fill:#FA9805"></path><path d="M307.17,232.08a6.74,6.74,0,0,1-4.28,2.8,6.64,6.64,0,0,1-5-1,7.16,7.16,0,0,1-1.92-9.25,6.71,6.71,0,0,1,4.27-2.82,6.57,6.57,0,0,1,4.95,1,6.65,6.65,0,0,1,2.94,4.15A6.82,6.82,0,0,1,307.17,232.08Z" style="fill:#FA9805"></path><path d="M307.17,232.08a6.74,6.74,0,0,1-4.28,2.8,6.64,6.64,0,0,1-5-1,7.16,7.16,0,0,1-1.92-9.25,6.71,6.71,0,0,1,4.27-2.82,6.57,6.57,0,0,1,4.95,1,6.65,6.65,0,0,1,2.94,4.15A6.82,6.82,0,0,1,307.17,232.08Z" style="fill:#fff;opacity:0.2"></path><path d="M281.24,208.1c-7.9,2.74-17.76,10.69-22.18,15.64a3.49,3.49,0,0,1-2.79-3.09s14.84-12.24,23.12-14.75C280.31,207.09,281.24,208.1,281.24,208.1Z" style="fill:#FA9805"></path><path d="M282.4,200.41a5.79,5.79,0,0,0-6.07,5.26,6.07,6.07,0,0,0,5.21,6.1,5.68,5.68,0,0,0,4.11-1.39,5.59,5.59,0,0,0,1.89-3.86,5.68,5.68,0,0,0-1.25-4.13A5.78,5.78,0,0,0,282.4,200.41Z" style="fill:#FA9805"></path><path d="M282.4,200.41a5.79,5.79,0,0,0-6.07,5.26,6.07,6.07,0,0,0,5.21,6.1,5.68,5.68,0,0,0,4.11-1.39,5.59,5.59,0,0,0,1.89-3.86,5.68,5.68,0,0,0-1.25-4.13A5.78,5.78,0,0,0,282.4,200.41Z" style="fill:#fff;opacity:0.2"></path><g style="opacity:0.1"><path d="M267.39,266.41c0,5.52-2.86,10.57-4,15.81s-1.79,10.63-4,15.58a84.89,84.89,0,0,1-8,14,88.08,88.08,0,0,1-10.09,12.62,81.5,81.5,0,0,1-12.6,10,81.37,81.37,0,0,1-14,7.79c-4.95,2.07-9.88,4.27-15.24,5.36s-10.62.82-16.12.82-10.4-1.66-15.52-2.83c-5.29-1.2-10.78-1.12-15.6-3.37s-8.46-6.46-12.81-9.58-9.77-4.91-13.55-8.69-8.06-7.4-11.25-11.76-4.34-10-6.68-14.85a74.07,74.07,0,0,1-5.62-15c-1.22-5.14-.81-10.37-.81-15.89s-3-11.38-1.89-16.63,5-10.07,7.12-15,3.86-10.42,6.9-14.88,7.08-8.48,10.89-12.29,8.9-6,13.43-9a78,78,0,0,1,14.13-7.37c4.95-1.94,9.8-4.36,15.17-5.35,5.21-1,10.61,0,16.09,0a91.88,91.88,0,0,1,16,.95c5.39.94,10.16,3.12,15.16,5s10.3,3.11,14.84,6,9.27,5.65,13.1,9.47,6.81,8.43,9.87,13,4.47,9.72,6.6,14.8,7.1,9.21,8.21,14.6S267.39,260.88,267.39,266.41Z" style="fill:#fff"></path></g><ellipse cx="185.12" cy="248.3" rx="12.55" ry="8.17" transform="translate(-74.89 416.57) rotate(-86.2)" style="fill:#fff"></ellipse><ellipse cx="136.16" cy="247.55" rx="12.55" ry="8.17" transform="translate(-119.87 367.01) rotate(-86.2)" style="fill:#fff"></ellipse><path d="M164.46,287.78c32,2.25,51.11-16.53,52-17.4a2.41,2.41,0,0,0,0-3.39,2.37,2.37,0,0,0-3.37,0c-.22.21-22,21.62-57.14,14.85a2.36,2.36,0,0,0-2.78,1.91,2.42,2.42,0,0,0,1.92,2.81A81.34,81.34,0,0,0,164.46,287.78Z" style="fill:#fff"></path><path d="M187.12,219.37a2.78,2.78,0,0,0-.6,1.23,2.75,2.75,0,0,0,2.14,3.25,26.54,26.54,0,0,0,24.05-6.37,2.7,2.7,0,0,0-.1-3.88,2.78,2.78,0,0,0-3.9.08c-.37.38-7.34,7.24-18.93,4.81A2.78,2.78,0,0,0,187.12,219.37Z" style="fill:#fff"></path><path d="M134.15,220a2.72,2.72,0,0,0-2.15-1.38c-12.44-1-17.59-9.82-17.64-9.91a2.72,2.72,0,0,0-3.74-1,2.78,2.78,0,0,0-1,3.75h0c.26.47,6.65,11.41,21.92,12.65a2.77,2.77,0,0,0,2.64-4.11Z" style="fill:#fff"></path></g><g id="freepik--character-2--inject-35"><path d="M387.8,86.24c-15.51-2-30.68,3.06-42.18,11.88a57.11,57.11,0,0,0-21.91,37.72c-2,15.51,3.5,29.87,12.32,41.38s21.2,21,36.71,23,30.68-2.88,42.19-11.7,19.16-22.33,21.21-37.84-1.49-30.81-10.31-42.32A58.13,58.13,0,0,0,387.8,86.24Z" style="fill:#263238;opacity:0.2"></path><path d="M392.66,186.35a223.44,223.44,0,0,0-8.63,23.5c-.9,3.13-11.84,9-13.27,9.43,0,3.41.35,6.39.41,8.59a.48.48,0,0,1-.94.18A31.37,31.37,0,0,1,367.51,217c7.26.2,8.9-5.73,13.15-7.48,1.9-8.36,2.68-18.32,3.57-19.74C387.43,188.28,392.66,186.35,392.66,186.35Z" style="fill:#263238"></path><path d="M384.24,189.74c-.43.68-.83,3.26-1.33,6.7a48.64,48.64,0,0,0,6.19-1.35c1.47-3.79,2.8-7,3.56-8.73C392.66,186.36,387.43,188.28,384.24,189.74Z" style="opacity:0.2"></path><path d="M376.72,92.47c-13.79,1-26,8-34.46,17.71a50.56,50.56,0,0,0-12.34,36.54c1,13.79,8.29,25.27,18,33.68s22.06,14.44,35.85,13.48a50.8,50.8,0,0,0,34.5-17.56c8.42-9.66,12.68-22.72,11.72-36.52s-6.71-26.44-16.38-34.85A51.31,51.31,0,0,0,376.72,92.47Z" style="fill:#263238"></path><path d="M365.76,186.59l-3.34,3.28c1.08.49,2.17.93,3.28,1.34A25.63,25.63,0,0,0,365.76,186.59Z" style="opacity:0.2"></path><path d="M366.43,186.23a223.43,223.43,0,0,0-13.89,20.82c-1.61,2.84-13.3,5-14.69,5.58a80.54,80.54,0,0,0,1.3,8.84.49.49,0,0,1-.9.34,29.62,29.62,0,0,1-3.85-11.19c7.25-.48,10.41-4,15-4.71,3.79-7.68,7.74-19.26,8.93-20.43C361.74,184.8,366.43,186.23,366.43,186.23Z" style="fill:#263238"></path><path d="M425.2,96.9c-5.12,2.66-11.06,9.08-13.59,12.9a2.41,2.41,0,0,1-2.22-1.83s8.92-9.84,14.33-12.39C424.46,96.31,425.2,96.9,425.2,96.9Z" style="fill:#263238"></path><path d="M425.23,91.53a4,4,0,0,0-2.67,1.38,3.85,3.85,0,0,0-.95,2.82,4.19,4.19,0,0,0,4.16,3.65,4,4,0,0,0,2.31-6.88A4,4,0,0,0,425.23,91.53Z" style="fill:#263238"></path><path d="M425.23,91.53a4,4,0,0,0-2.67,1.38,3.85,3.85,0,0,0-.95,2.82,4.19,4.19,0,0,0,4.16,3.65,4,4,0,0,0,2.31-6.88A4,4,0,0,0,425.23,91.53Z" style="fill:#fff;opacity:0.2"></path><path d="M439,128c-7.67,1-18.08,6.4-23,10.07a3.24,3.24,0,0,1-2-3.32s15.73-8.34,23.69-9.09C438.38,126.94,439,128,439,128Z" style="fill:#263238"></path><path d="M441.52,121.27a5.27,5.27,0,0,0-4,.52,5.35,5.35,0,0,0,1.09,9.62,5.29,5.29,0,0,0,4-.5,5.21,5.21,0,0,0,2.43-3.14,5.29,5.29,0,0,0-.37-4A5.38,5.38,0,0,0,441.52,121.27Z" style="fill:#263238"></path><path d="M441.52,121.27a5.27,5.27,0,0,0-4,.52,5.35,5.35,0,0,0,1.09,9.62,5.29,5.29,0,0,0,4-.5,5.21,5.21,0,0,0,2.43-3.14,5.29,5.29,0,0,0-.37-4A5.38,5.38,0,0,0,441.52,121.27Z" style="fill:#fff;opacity:0.2"></path><path d="M430,111.68c-3.68,3.24-10.58,6-14.38,6.79a2,2,0,0,0,.77,2.32s10.53-4,14.2-7.53C430.2,112.45,430,111.68,430,111.68Z" style="fill:#263238"></path><path d="M434.22,113.31a3.4,3.4,0,0,1-1.91,1.69,3.33,3.33,0,0,1-2.53-.12,3.18,3.18,0,0,1-1.63-1.9,3.26,3.26,0,0,1,0-2.51,3.4,3.4,0,0,1,1.9-1.7,3.45,3.45,0,0,1,4.26,2A3.42,3.42,0,0,1,434.22,113.31Z" style="fill:#263238"></path><path d="M434.22,113.31a3.4,3.4,0,0,1-1.91,1.69,3.33,3.33,0,0,1-2.53-.12,3.18,3.18,0,0,1-1.63-1.9,3.26,3.26,0,0,1,0-2.51,3.4,3.4,0,0,1,1.9-1.7,3.45,3.45,0,0,1,4.26,2A3.42,3.42,0,0,1,434.22,113.31Z" style="fill:#fff;opacity:0.2"></path><path d="M438.11,142.48c-3.86-.19-9.26-2.44-11.86-4.06a1.62,1.62,0,0,0-.84,1.73s8.17,3.5,12.17,3.54C437.83,143,438.11,142.48,438.11,142.48Z" style="fill:#263238"></path><path d="M439.63,145.73a2.59,2.59,0,0,1-2-.09,2.64,2.64,0,0,1-1.37-1.45,2.81,2.81,0,0,1,1.52-3.38,2.65,2.65,0,0,1,2,.08,2.59,2.59,0,0,1,1.34,1.47,2.56,2.56,0,0,1-1.48,3.37Z" style="fill:#263238"></path><path d="M439.63,145.73a2.59,2.59,0,0,1-2-.09,2.64,2.64,0,0,1-1.37-1.45,2.81,2.81,0,0,1,1.52-3.38,2.65,2.65,0,0,1,2,.08,2.59,2.59,0,0,1,1.34,1.47,2.56,2.56,0,0,1-1.48,3.37Z" style="fill:#fff;opacity:0.2"></path><path d="M440,156.38c-4.87-2-12.84-2.42-17-1.95a2.2,2.2,0,0,1,0-2.62s12.11.47,17.06,2.76C439.94,155.52,440,156.38,440,156.38Z" style="fill:#263238"></path><path d="M443.73,153.26a3.59,3.59,0,0,0-5.17,5,3.59,3.59,0,0,0,5.17-5Z" style="fill:#263238"></path><path d="M443.73,153.26a3.59,3.59,0,0,0-5.17,5,3.59,3.59,0,0,0,5.17-5Z" style="fill:#fff;opacity:0.2"></path><path d="M432.4,168.37c-4.42-.67-10.37-3.91-13.17-6.08a1.85,1.85,0,0,0-1.17,1.89s9,5,13.58,5.53C432,169,432.4,168.37,432.4,168.37Z" style="fill:#263238"></path><path d="M433.76,172.3a3.06,3.06,0,0,1-2.3-.34,3,3,0,0,1-1.4-1.84,3.25,3.25,0,0,1,2.15-3.71,3,3,0,0,1,2.29.34,3,3,0,0,1,1.37,1.84,3,3,0,0,1-.26,2.3A3.09,3.09,0,0,1,433.76,172.3Z" style="fill:#263238"></path><path d="M433.76,172.3a3.06,3.06,0,0,1-2.3-.34,3,3,0,0,1-1.4-1.84,3.25,3.25,0,0,1,2.15-3.71,3,3,0,0,1,2.29.34,3,3,0,0,1,1.37,1.84,3,3,0,0,1-.26,2.3A3.09,3.09,0,0,1,433.76,172.3Z" style="fill:#fff;opacity:0.2"></path><path d="M429.58,181c-3.24-4.78-10.3-9.93-14.39-12a2.4,2.4,0,0,1,1.56-2.41s10.81,7.71,14,12.78C430.08,180.18,429.58,181,429.58,181Z" style="fill:#263238"></path><path d="M434.91,180.39a4,4,0,0,0-4.59-3.11A3.78,3.78,0,0,0,427.9,179a3.84,3.84,0,0,0-.72,2.88,3.94,3.94,0,0,0,1.66,2.49,4.06,4.06,0,0,0,5.44-1A4,4,0,0,0,434.91,180.39Z" style="fill:#263238"></path><path d="M434.91,180.39a4,4,0,0,0-4.59-3.11A3.78,3.78,0,0,0,427.9,179a3.84,3.84,0,0,0-.72,2.88,3.94,3.94,0,0,0,1.66,2.49,4.06,4.06,0,0,0,5.44-1A4,4,0,0,0,434.91,180.39Z" style="fill:#fff;opacity:0.2"></path><path d="M401.93,201c-1.9-7.5-8.45-17.21-12.66-21.68a3.23,3.23,0,0,1,3.06-2.33s10.11,14.65,11.78,22.48C402.93,200.23,401.93,201,401.93,201Z" style="fill:#263238"></path><path d="M408.93,202.69a5.35,5.35,0,0,0-4.37-6,5.63,5.63,0,0,0-6,4.32,5.27,5.27,0,0,0,1,3.9,5.19,5.19,0,0,0,3.41,2,5.25,5.25,0,0,0,3.9-.82A5.34,5.34,0,0,0,408.93,202.69Z" style="fill:#263238"></path><path d="M408.93,202.69a5.35,5.35,0,0,0-4.37-6,5.63,5.63,0,0,0-6,4.32,5.27,5.27,0,0,0,1,3.9,5.19,5.19,0,0,0,3.41,2,5.25,5.25,0,0,0,3.9-.82A5.34,5.34,0,0,0,408.93,202.69Z" style="fill:#fff;opacity:0.2"></path><path d="M415.45,187.43c-3.64-3.28-7.15-9.82-8.41-13.5a2.05,2.05,0,0,0-2.21,1s5.23,10,9.12,13.24C414.72,187.76,415.45,187.43,415.45,187.43Z" style="fill:#263238"></path><path d="M414.33,191.84a3.37,3.37,0,0,1-2.08-4.22,3.57,3.57,0,0,1,4.2-2.11,3.31,3.31,0,0,1,2.05,4.2,3.24,3.24,0,0,1-4.17,2.13Z" style="fill:#263238"></path><path d="M414.33,191.84a3.37,3.37,0,0,1-2.08-4.22,3.57,3.57,0,0,1,4.2-2.11,3.31,3.31,0,0,1,2.05,4.2,3.24,3.24,0,0,1-4.17,2.13Z" style="fill:#fff;opacity:0.2"></path><path d="M321.38,136.51c3.84-.47,9.54.82,12.38,2a1.6,1.6,0,0,0,.53-1.85s-8.64-2-12.59-1.41C321.57,135.9,321.38,136.51,321.38,136.51Z" style="fill:#263238"></path><path d="M319.34,133.56a2.63,2.63,0,0,1,2-.25,2.59,2.59,0,0,1,1.59,1.19,2.81,2.81,0,0,1-.91,3.59,2.66,2.66,0,0,1-3.88-2.92A2.66,2.66,0,0,1,319.34,133.56Z" style="fill:#263238"></path><path d="M319.34,133.56a2.63,2.63,0,0,1,2-.25,2.59,2.59,0,0,1,1.59,1.19,2.81,2.81,0,0,1-.91,3.59,2.66,2.66,0,0,1-3.88-2.92A2.66,2.66,0,0,1,319.34,133.56Z" style="fill:#fff;opacity:0.2"></path><path d="M372.22,202.55c1.45-5.06.91-13,0-17.1a2.2,2.2,0,0,1,2.61-.32s.93,12.09-.77,17.27C373.07,202.44,372.22,202.55,372.22,202.55Z" style="fill:#263238"></path><path d="M375.76,205.94a3.64,3.64,0,0,0-.52-5,3.47,3.47,0,0,0-2.6-.71,3.5,3.5,0,0,0-2.43,1.19,3.57,3.57,0,0,0-.77,2.62,3.71,3.71,0,0,0,3.89,3.22A3.65,3.65,0,0,0,375.76,205.94Z" style="fill:#263238"></path><path d="M375.76,205.94a3.64,3.64,0,0,0-.52-5,3.47,3.47,0,0,0-2.6-.71,3.5,3.5,0,0,0-2.43,1.19,3.57,3.57,0,0,0-.77,2.62,3.71,3.71,0,0,0,3.89,3.22A3.65,3.65,0,0,0,375.76,205.94Z" style="fill:#fff;opacity:0.2"></path><path d="M320.85,125.05c4.47-.2,10.93,1.81,14.11,3.39a1.86,1.86,0,0,0,.78-2.08s-9.8-3.15-14.41-2.77C321.11,124.37,320.85,125.05,320.85,125.05Z" style="fill:#263238"></path><path d="M318.75,121.47a3,3,0,0,1,2.32-.12,3,3,0,0,1,1.73,1.53,3.23,3.23,0,0,1-1.38,4.06,3,3,0,0,1-2.31.12,3.15,3.15,0,0,1-1.9-3.84A3,3,0,0,1,318.75,121.47Z" style="fill:#263238"></path><path d="M318.75,121.47a3,3,0,0,1,2.32-.12,3,3,0,0,1,1.73,1.53,3.23,3.23,0,0,1-1.38,4.06,3,3,0,0,1-2.31.12,3.15,3.15,0,0,1-1.9-3.84A3,3,0,0,1,318.75,121.47Z" style="fill:#fff;opacity:0.2"></path><path d="M324.34,176c5.6-1.43,12.84-6.33,16.17-9.48a2.39,2.39,0,0,1,1.74,2.28s-10.92,7.56-16.76,8.82C324.93,176.76,324.34,176,324.34,176Z" style="fill:#263238"></path><path d="M323.1,181.23a4,4,0,0,0,4.48-3.26,4.19,4.19,0,0,0-3.23-4.5,4,4,0,0,0-2.91.72,3.88,3.88,0,0,0-1.52,2.54,3.93,3.93,0,0,0,.62,2.92A4,4,0,0,0,323.1,181.23Z" style="fill:#263238"></path><path d="M323.1,181.23a4,4,0,0,0,4.48-3.26,4.19,4.19,0,0,0-3.23-4.5,4,4,0,0,0-2.91.72,3.88,3.88,0,0,0-1.52,2.54,3.93,3.93,0,0,0,.62,2.92A4,4,0,0,0,323.1,181.23Z" style="fill:#fff;opacity:0.2"></path><path d="M318.46,146.15c7.71.75,19.06-2.13,24.69-4.58a3.23,3.23,0,0,1,1.16,3.67s-17.21,4.55-25.14,3.47C318.86,147.35,318.46,146.15,318.46,146.15Z" style="fill:#263238"></path><path d="M314.52,152.16a5.34,5.34,0,0,0,7.13-2.08,5.08,5.08,0,0,0,.34-3.94,5.17,5.17,0,0,0-2.36-3.2A5.33,5.33,0,0,0,312,149,5.3,5.3,0,0,0,314.52,152.16Z" style="fill:#263238"></path><path d="M314.52,152.16a5.34,5.34,0,0,0,7.13-2.08,5.08,5.08,0,0,0,.34-3.94,5.17,5.17,0,0,0-2.36-3.2A5.33,5.33,0,0,0,312,149,5.3,5.3,0,0,0,314.52,152.16Z" style="fill:#fff;opacity:0.2"></path><path d="M324.35,158.73c4.32-2.32,11.66-3.41,15.54-3.35a2,2,0,0,0-.22-2.43s-11.17,1.54-15.54,4.1C324.29,157.92,324.35,158.73,324.35,158.73Z" style="fill:#263238"></path><path d="M320.57,156.18a3.37,3.37,0,0,1,4.68-.53,3.55,3.55,0,0,1,.56,4.66,3.37,3.37,0,0,1-5.92-1.67A3.36,3.36,0,0,1,320.57,156.18Z" style="fill:#263238"></path><path d="M320.57,156.18a3.37,3.37,0,0,1,4.68-.53,3.55,3.55,0,0,1,.56,4.66,3.37,3.37,0,0,1-5.92-1.67A3.36,3.36,0,0,1,320.57,156.18Z" style="fill:#fff;opacity:0.2"></path><path d="M339.72,187.9c1.79-3.43,6.1-7.38,8.67-9.06a1.62,1.62,0,0,0-1.22-1.49s-6.61,5.94-8.33,9.55C339.32,187.4,339.72,187.9,339.72,187.9Z" style="fill:#263238"></path><path d="M336.13,187.9a2.65,2.65,0,0,1,2.82-2.41,2.55,2.55,0,0,1,1.74.94,2.58,2.58,0,0,1,.69,1.85,2.7,2.7,0,0,1-.92,1.79,2.7,2.7,0,0,1-3.69-.26A2.64,2.64,0,0,1,336.13,187.9Z" style="fill:#263238"></path><path d="M336.13,187.9a2.65,2.65,0,0,1,2.82-2.41,2.55,2.55,0,0,1,1.74.94,2.58,2.58,0,0,1,.69,1.85,2.7,2.7,0,0,1-.92,1.79,2.7,2.7,0,0,1-3.69-.26A2.64,2.64,0,0,1,336.13,187.9Z" style="fill:#fff;opacity:0.2"></path><path d="M321.84,110.9c4.28,3.08,12,5.28,16.1,5.76a2.19,2.19,0,0,1-.58,2.56s-11.69-3.21-16-6.56C321.66,111.75,321.84,110.9,321.84,110.9Z" style="fill:#263238"></path><path d="M317.46,113.09a3.62,3.62,0,0,0,4.91,1.22,3.81,3.81,0,0,0,1.25-4.89,3.52,3.52,0,0,0-4.88-1.19,3.53,3.53,0,0,0-1.67,2.14A3.64,3.64,0,0,0,317.46,113.09Z" style="fill:#263238"></path><path d="M317.46,113.09a3.62,3.62,0,0,0,4.91,1.22,3.81,3.81,0,0,0,1.25-4.89,3.52,3.52,0,0,0-4.88-1.19,3.53,3.53,0,0,0-1.67,2.14A3.64,3.64,0,0,0,317.46,113.09Z" style="fill:#fff;opacity:0.2"></path><path d="M331.92,100.94c4.15,1.66,9.21,6.16,11.45,8.92a1.87,1.87,0,0,0,1.57-1.58s-7.62-6.92-12-8.47C332.44,100.43,331.92,100.94,331.92,100.94Z" style="fill:#263238"></path><path d="M331.49,96.8a3.09,3.09,0,0,1,3.11,3,3,3,0,0,1-.88,2.11,2.94,2.94,0,0,1-2.06,1,3,3,0,0,1-2.16-.84,3,3,0,0,1,2-5.25Z" style="fill:#263238"></path><path d="M331.49,96.8a3.09,3.09,0,0,1,3.11,3,3,3,0,0,1-.88,2.11,2.94,2.94,0,0,1-2.06,1,3,3,0,0,1-2.16-.84,3,3,0,0,1,2-5.25Z" style="fill:#fff;opacity:0.2"></path><path d="M340.29,87.88c2.06,5.4,7.78,12,11.29,15a2.41,2.41,0,0,1-2.07,2s-8.78-10-10.7-15.62C339.61,88.55,340.29,87.88,340.29,87.88Z" style="fill:#263238"></path><path d="M335,87.25A3.94,3.94,0,0,0,336,90.06a3.87,3.87,0,0,0,2.7,1.26,3.82,3.82,0,0,0,2.75-1.09,3.87,3.87,0,0,0,1.35-2.64,4,4,0,0,0-1.06-2.8,3.88,3.88,0,0,0-2.7-1.22,3.83,3.83,0,0,0-4.1,3.68Z" style="fill:#263238"></path><path d="M335,87.25A3.94,3.94,0,0,0,336,90.06a3.87,3.87,0,0,0,2.7,1.26,3.82,3.82,0,0,0,2.75-1.09,3.87,3.87,0,0,0,1.35-2.64,4,4,0,0,0-1.06-2.8,3.88,3.88,0,0,0-2.7-1.22,3.83,3.83,0,0,0-4.1,3.68Z" style="fill:#fff;opacity:0.2"></path><path d="M370.08,80.11c.15,7.74,4.33,18.69,7.42,24a3.23,3.23,0,0,1-3.52,1.58s-6.52-16.57-6.37-24.57C368.93,80.65,370.08,80.11,370.08,80.11Z" style="fill:#263238"></path><path d="M363.65,76.89a5.34,5.34,0,0,0,2.89,6.84,5.08,5.08,0,0,0,4-.12,5.14,5.14,0,0,0,2.9-2.71A5.33,5.33,0,0,0,366.51,74,5.32,5.32,0,0,0,363.65,76.89Z" style="fill:#263238"></path><path d="M363.65,76.89a5.34,5.34,0,0,0,2.89,6.84,5.08,5.08,0,0,0,4-.12,5.14,5.14,0,0,0,2.9-2.71A5.33,5.33,0,0,0,366.51,74,5.32,5.32,0,0,0,363.65,76.89Z" style="fill:#fff;opacity:0.2"></path><path d="M352.75,86.23c2.81,4,4.74,11.18,5.13,15a2,2,0,0,0,2.39-.5s-2.83-10.92-5.88-15C353.54,86.07,352.75,86.23,352.75,86.23Z" style="fill:#263238"></path><path d="M354.84,82.18a3.37,3.37,0,0,1,1.07,4.59,3.25,3.25,0,0,1-2.07,1.41,3.33,3.33,0,0,1-2.5-.31,3.39,3.39,0,0,1-1.47-2.08,3.3,3.3,0,0,1,.44-2.48,3.27,3.27,0,0,1,2-1.52A3.36,3.36,0,0,1,354.84,82.18Z" style="fill:#263238"></path><path d="M354.84,82.18a3.37,3.37,0,0,1,1.07,4.59,3.25,3.25,0,0,1-2.07,1.41,3.33,3.33,0,0,1-2.5-.31,3.39,3.39,0,0,1-1.47-2.08,3.3,3.3,0,0,1,.44-2.48,3.27,3.27,0,0,1,2-1.52A3.36,3.36,0,0,1,354.84,82.18Z" style="fill:#fff;opacity:0.2"></path><path d="M384.27,81.58c-.62,3.82-3.46,8.93-5.37,11.33a1.61,1.61,0,0,0,1.63,1s4.4-7.72,4.89-11.69C384.8,81.93,384.27,81.58,384.27,81.58Z" style="fill:#263238"></path><path d="M387.67,80.44a2.63,2.63,0,0,1-.31,2,2.6,2.6,0,0,1-1.6,1.19,2.55,2.55,0,0,1-1.95-.34,2.54,2.54,0,0,1,.67-4.69,2.56,2.56,0,0,1,3.19,1.85Z" style="fill:#263238"></path><path d="M387.67,80.44a2.63,2.63,0,0,1-.31,2,2.6,2.6,0,0,1-1.6,1.19,2.55,2.55,0,0,1-1.95-.34,2.54,2.54,0,0,1,.67-4.69,2.56,2.56,0,0,1,3.19,1.85Z" style="fill:#fff;opacity:0.2"></path><path d="M398.29,81.31c-2.56,4.61-3.85,12.48-3.84,16.66a2.21,2.21,0,0,1-2.62-.27s1.84-12,4.67-16.65C397.43,81.23,398.29,81.31,398.29,81.31Z" style="fill:#263238"></path><path d="M395.61,77.21a3.63,3.63,0,0,0-.64,5,3.83,3.83,0,0,0,5,.68,3.54,3.54,0,0,0,.62-5,3.49,3.49,0,0,0-5-.71Z" style="fill:#263238"></path><path d="M395.61,77.21a3.63,3.63,0,0,0-.64,5,3.83,3.83,0,0,0,5,.68,3.54,3.54,0,0,0,.62-5,3.49,3.49,0,0,0-5-.71Z" style="fill:#fff;opacity:0.2"></path><path d="M409.36,90.16c-1.17,4.32-5.05,9.87-7.53,12.41a1.88,1.88,0,0,0,1.75,1.38s6-8.37,7-12.88C409.93,90.62,409.36,90.16,409.36,90.16Z" style="fill:#263238"></path><path d="M413.42,89.26a3,3,0,0,1-.6,2.24,3.09,3.09,0,0,1-5.43-1.36,3.06,3.06,0,0,1,.59-2.25,3.14,3.14,0,0,1,4.24-.63A3.11,3.11,0,0,1,413.42,89.26Z" style="fill:#263238"></path><path d="M413.42,89.26a3,3,0,0,1-.6,2.24,3.09,3.09,0,0,1-5.43-1.36,3.06,3.06,0,0,1,.59-2.25,3.14,3.14,0,0,1,4.24-.63A3.11,3.11,0,0,1,413.42,89.26Z" style="fill:#fff;opacity:0.2"></path><g style="opacity:0.1"><path d="M378.76,98c-2.95.2-5.54,1.92-8.29,2.71s-5.61,1.35-8.17,2.69a45.81,45.81,0,0,0-7.17,4.81,46.54,46.54,0,0,0-6.36,5.84,45.14,45.14,0,0,0-4.86,7.09,44.45,44.45,0,0,0-3.63,7.78,43.9,43.9,0,0,0-2.3,8.33,43.18,43.18,0,0,0,.16,8.64c.2,2.93,1.27,5.48,2.08,8.17s1,5.71,2.37,8.2,3.76,4.27,5.59,6.48,3,5,5.13,6.91a56.71,56.71,0,0,0,6.7,5.57c2.43,1.53,5.48,2,8.16,3a40.36,40.36,0,0,0,8.2,2.44c2.78.46,5.56.05,8.51-.15s6.18,1.18,8.94.39,5.19-3,7.75-4.35,5.42-2.44,7.69-4.23a47.22,47.22,0,0,0,6.15-6.26c1.9-2.18,2.89-5,4.28-7.5a41.56,41.56,0,0,0,3.42-7.81c.85-2.71,2-5.39,2.29-8.29s-.4-5.66-.6-8.59a50.42,50.42,0,0,0-1.1-8.49,44.7,44.7,0,0,0-3.23-7.9c-1.21-2.66-2-5.39-3.73-7.7a39.37,39.37,0,0,0-5.54-6.64,44.93,44.93,0,0,0-7.31-4.79c-2.51-1.44-5.35-2-8.14-3s-5.18-3.45-8.09-3.84S381.71,97.8,378.76,98Z" style="fill:#fff"></path></g><path d="M370.06,133.3c.17,3.7,2.27,6.67,4.68,6.62s4.23-3.08,4.06-6.78-2.26-6.67-4.68-6.63S369.89,129.6,370.06,133.3Z" style="fill:#fff"></path><path d="M396.25,132.9c.17,3.7,2.27,6.67,4.68,6.62s4.23-3.08,4.06-6.78-2.26-6.67-4.68-6.63S396.08,129.2,396.25,132.9Z" style="fill:#fff"></path><path d="M393.21,162.08a37.09,37.09,0,0,1-27.8-9.3,1.29,1.29,0,0,1,0-1.82,1.28,1.28,0,0,1,1.8,0,35.5,35.5,0,0,0,30.57,8,1.26,1.26,0,0,1,1.48,1,1.29,1.29,0,0,1-1,1.5A42.38,42.38,0,0,1,393.21,162.08Z" style="fill:#fff"></path><path d="M373.23,117.45a1.52,1.52,0,0,1,.47.56,1.48,1.48,0,0,1-.71,2,14.16,14.16,0,0,1-13.3-.3,1.43,1.43,0,0,1-.44-2,1.5,1.5,0,0,1,2-.45,11.25,11.25,0,0,0,10.45.12A1.47,1.47,0,0,1,373.23,117.45Z" style="fill:#fff"></path><path d="M408.5,117.92a1.44,1.44,0,0,1-1.2-.65,12.17,12.17,0,0,0-9.18-5.73,1.45,1.45,0,0,1-1.43-1.5,1.48,1.48,0,0,1,1.49-1.45h0a15,15,0,0,1,11.56,7,1.47,1.47,0,0,1-.42,2A1.4,1.4,0,0,1,408.5,117.92Z" style="fill:#fff"></path></g></svg>