<svg xmlns="http://www.w3.org/2000/svg" viewBox="0 0 500 500"><g id="freepik--Tubes--inject-119"><rect x="56.94" y="365.9" width="3.94" height="76.86" style="fill:#263238"></rect><rect x="60.88" y="437.37" width="83.97" height="5.38" style="fill:#263238"></rect><path d="M89.58,360.8l-.29,64.34a7.59,7.59,0,0,1-15.18-.07l.29-64.34Z" style="fill:#ebebeb"></path><path d="M88.61,379.41l-.2,45.68A6.71,6.71,0,1,1,75,425l.21-45.68Z" style="fill:#c7c7c7"></path><rect x="72.02" y="355.09" width="19.94" height="10" transform="translate(1.63 -0.37) rotate(0.26)" style="fill:#263238"></rect><path d="M113,360.8l-.29,64.34a7.59,7.59,0,0,1-15.18-.07l.29-64.34Z" style="fill:#ebebeb"></path><path d="M112,379.41l-.2,45.68A6.71,6.71,0,1,1,98.38,425l.21-45.68Z" style="fill:#FA9805"></path><rect x="95.41" y="355.09" width="19.94" height="10" transform="translate(1.63 -0.47) rotate(0.26)" style="fill:#455a64"></rect><path d="M144.84,394.6l0,7.19H60.88V394.6H74.51V397c0,1.19,3.36,2.15,7.48,2.15s7.48-1,7.48-2.15V394.6h8.44V397c0,1.19,3.34,2.15,7.47,2.15s7.47-1,7.47-2.15V394.6h8.45V397c0,1.19,3.34,2.15,7.47,2.15s7.48-1,7.48-2.15V394.6Z" style="fill:#455a64"></path><rect x="60.88" y="401.8" width="83.97" height="2.9" style="fill:#263238"></rect><rect x="144.84" y="365.9" width="3.94" height="76.86" style="fill:#263238"></rect></g><g id="freepik--Virus--inject-119"><path d="M340.64,108.88c-2.58,11-13.05,18.51-24.25,15.89-6.72-1.58-12.24-5.41-14.91-11.08a20.53,20.53,0,0,1-1-13.65C303.54,86.81,315,81.21,326,83.78a18.84,18.84,0,0,1,11.12,7.15A22.27,22.27,0,0,1,340.64,108.88Z" style="fill:#FA9805"></path><path d="M340.64,108.88c-2.58,11-13.05,18.51-24.25,15.89-6.72-1.58-12.24-5.41-14.91-11.08a20.53,20.53,0,0,1-1-13.65C303.54,86.81,315,81.21,326,83.78a18.84,18.84,0,0,1,11.12,7.15A22.27,22.27,0,0,1,340.64,108.88Z" style="fill:#fff;opacity:0.7000000000000001"></path><path d="M331.73,106.82c-1.44,6.15-7.28,10.33-13.53,8.87a11.81,11.81,0,0,1-8.31-6.18,11.47,11.47,0,0,1-.59-7.62c1.73-7.37,8.14-10.5,14.26-9.06a10.52,10.52,0,0,1,6.2,4A12.45,12.45,0,0,1,331.73,106.82Z" style="fill:#FA9805"></path><path d="M331.73,106.82c-1.44,6.15-7.28,10.33-13.53,8.87a11.81,11.81,0,0,1-8.31-6.18,11.47,11.47,0,0,1-.59-7.62c1.73-7.37,8.14-10.5,14.26-9.06a10.52,10.52,0,0,1,6.2,4A12.45,12.45,0,0,1,331.73,106.82Z" style="fill:#fff;opacity:0.5"></path><path d="M378.93,194.1a8.13,8.13,0,0,1-9.68,6.34A8.46,8.46,0,0,1,363.3,196a8.75,8.75,0,0,1,9.79-11.94,7.59,7.59,0,0,1,4.44,2.86A8.9,8.9,0,0,1,378.93,194.1Z" style="fill:#FA9805;opacity:0.30000000000000004"></path><path d="M375.38,193.28a4.55,4.55,0,0,1-5.41,3.54,4.69,4.69,0,0,1-3.31-2.47,4.87,4.87,0,0,1,5.45-6.66,4.22,4.22,0,0,1,2.48,1.59A5,5,0,0,1,375.38,193.28Z" style="fill:#FA9805;opacity:0.30000000000000004"></path><path d="M249.51,203.59c-1.81,7.73-9.15,13-17,11.14-4.72-1.1-8.59-3.79-10.45-7.76a14.37,14.37,0,0,1-.74-9.58c2.17-9.27,10.24-13.2,17.92-11.4a13.23,13.23,0,0,1,7.8,5A15.59,15.59,0,0,1,249.51,203.59Z" style="fill:#FA9805"></path><path d="M249.51,203.59c-1.81,7.73-9.15,13-17,11.14-4.72-1.1-8.59-3.79-10.45-7.76a14.37,14.37,0,0,1-.74-9.58c2.17-9.27,10.24-13.2,17.92-11.4a13.23,13.23,0,0,1,7.8,5A15.59,15.59,0,0,1,249.51,203.59Z" style="fill:#fff;opacity:0.7000000000000001"></path><path d="M243.26,202.15a8,8,0,0,1-9.48,6.21A8.26,8.26,0,0,1,228,204a8,8,0,0,1-.41-5.34,8.1,8.1,0,0,1,10-6.36,7.38,7.38,0,0,1,4.35,2.8A8.69,8.69,0,0,1,243.26,202.15Z" style="fill:#FA9805"></path><path d="M243.26,202.15a8,8,0,0,1-9.48,6.21A8.26,8.26,0,0,1,228,204a8,8,0,0,1-.41-5.34,8.1,8.1,0,0,1,10-6.36,7.38,7.38,0,0,1,4.35,2.8A8.69,8.69,0,0,1,243.26,202.15Z" style="fill:#fff;opacity:0.5"></path><path d="M196.84,358.31c-1.81,7.72-9.15,13-17,11.13-4.71-1.1-8.58-3.78-10.45-7.76a14.41,14.41,0,0,1-.73-9.57c2.17-9.28,10.23-13.2,17.92-11.4a13.14,13.14,0,0,1,7.79,5A15.61,15.61,0,0,1,196.84,358.31Z" style="fill:#FA9805"></path><path d="M196.84,358.31c-1.81,7.72-9.15,13-17,11.13-4.71-1.1-8.58-3.78-10.45-7.76a14.41,14.41,0,0,1-.73-9.57c2.17-9.28,10.23-13.2,17.92-11.4a13.14,13.14,0,0,1,7.79,5A15.61,15.61,0,0,1,196.84,358.31Z" style="fill:#fff;opacity:0.7000000000000001"></path><path d="M190.59,356.86a8,8,0,0,1-9.49,6.22,8.31,8.31,0,0,1-5.83-4.33,8.57,8.57,0,0,1,9.59-11.7,7.33,7.33,0,0,1,4.35,2.8A8.71,8.71,0,0,1,190.59,356.86Z" style="fill:#FA9805"></path><path d="M190.59,356.86a8,8,0,0,1-9.49,6.22,8.31,8.31,0,0,1-5.83-4.33,8.57,8.57,0,0,1,9.59-11.7,7.33,7.33,0,0,1,4.35,2.8A8.71,8.71,0,0,1,190.59,356.86Z" style="fill:#fff;opacity:0.5"></path><path d="M105.29,186.81c-2.59,11-13.06,18.52-24.26,15.89-6.72-1.58-12.23-5.4-14.9-11.07a20.5,20.5,0,0,1-1-13.66c3.1-13.22,14.6-18.83,25.56-16.26a18.91,18.91,0,0,1,11.12,7.15A22.28,22.28,0,0,1,105.29,186.81Z" style="fill:#FA9805"></path><path d="M105.29,186.81c-2.59,11-13.06,18.52-24.26,15.89-6.72-1.58-12.23-5.4-14.9-11.07a20.5,20.5,0,0,1-1-13.66c3.1-13.22,14.6-18.83,25.56-16.26a18.91,18.91,0,0,1,11.12,7.15A22.28,22.28,0,0,1,105.29,186.81Z" style="fill:#fff;opacity:0.7000000000000001"></path><path d="M96.37,184.76c-1.44,6.14-7.28,10.32-13.52,8.86a11.83,11.83,0,0,1-8.32-6.18,11.43,11.43,0,0,1-.58-7.61c1.73-7.38,8.14-10.51,14.25-9.07a10.52,10.52,0,0,1,6.21,4A12.4,12.4,0,0,1,96.37,184.76Z" style="fill:#FA9805"></path><path d="M96.37,184.76c-1.44,6.14-7.28,10.32-13.52,8.86a11.83,11.83,0,0,1-8.32-6.18,11.43,11.43,0,0,1-.58-7.61c1.73-7.38,8.14-10.51,14.25-9.07a10.52,10.52,0,0,1,6.21,4A12.4,12.4,0,0,1,96.37,184.76Z" style="fill:#fff;opacity:0.5"></path><path d="M428.9,335.85a8.4,8.4,0,0,1-10,6.54,8.73,8.73,0,0,1-6.13-4.56,9,9,0,0,1,10.09-12.31,7.77,7.77,0,0,1,4.58,2.94A9.22,9.22,0,0,1,428.9,335.85Z" style="fill:#FA9805"></path><path d="M428.9,335.85a8.4,8.4,0,0,1-10,6.54,8.73,8.73,0,0,1-6.13-4.56,9,9,0,0,1,10.09-12.31,7.77,7.77,0,0,1,4.58,2.94A9.22,9.22,0,0,1,428.9,335.85Z" style="fill:#fff;opacity:0.7000000000000001"></path><path d="M425.23,335a4.69,4.69,0,0,1-5.57,3.65,4.86,4.86,0,0,1-3.42-2.54A4.68,4.68,0,0,1,416,333a4.75,4.75,0,0,1,5.86-3.73,4.32,4.32,0,0,1,2.56,1.64A5.12,5.12,0,0,1,425.23,335Z" style="fill:#FA9805"></path><path d="M425.23,335a4.69,4.69,0,0,1-5.57,3.65,4.86,4.86,0,0,1-3.42-2.54A4.68,4.68,0,0,1,416,333a4.75,4.75,0,0,1,5.86-3.73,4.32,4.32,0,0,1,2.56,1.64A5.12,5.12,0,0,1,425.23,335Z" style="fill:#fff;opacity:0.5"></path><path d="M118.21,306.18a8.39,8.39,0,0,1-10,6.54,8.75,8.75,0,0,1-6.14-4.56,9,9,0,0,1,10.09-12.32,7.75,7.75,0,0,1,4.58,3A9.18,9.18,0,0,1,118.21,306.18Z" style="fill:#FA9805"></path><path d="M118.21,306.18a8.39,8.39,0,0,1-10,6.54,8.75,8.75,0,0,1-6.14-4.56,9,9,0,0,1,10.09-12.32,7.75,7.75,0,0,1,4.58,3A9.18,9.18,0,0,1,118.21,306.18Z" style="fill:#fff;opacity:0.7000000000000001"></path><path d="M114.54,305.33A4.69,4.69,0,0,1,109,309a4.86,4.86,0,0,1-3.42-2.54,4.68,4.68,0,0,1-.24-3.14,4.75,4.75,0,0,1,5.87-3.73,4.28,4.28,0,0,1,2.55,1.64A5.11,5.11,0,0,1,114.54,305.33Z" style="fill:#FA9805"></path><path d="M114.54,305.33A4.69,4.69,0,0,1,109,309a4.86,4.86,0,0,1-3.42-2.54,4.68,4.68,0,0,1-.24-3.14,4.75,4.75,0,0,1,5.87-3.73,4.28,4.28,0,0,1,2.55,1.64A5.11,5.11,0,0,1,114.54,305.33Z" style="fill:#fff;opacity:0.5"></path><path d="M423.46,257.71s2.92-4,3.05-4.2-.54-1.36-.32-1.62,3,.89,2.73,1.45c-.18.33-1.14.42-1.24.57s-2.09,4.93-2.09,4.93Z" style="fill:#FA9805"></path><path d="M426.46,252a6,6,0,0,0,2.3,1.13"></path><path d="M423.46,257.71s2.92-4,3.05-4.2-.54-1.36-.32-1.62,3,.89,2.73,1.45c-.18.33-1.14.42-1.24.57s-2.09,4.93-2.09,4.93Z" style="opacity:0.1"></path><path d="M416.35,257.88s-.78-4.9-.81-5.13-1.35-.58-1.39-.92,2.78-1.5,3-.9c.11.36-.5,1.1-.47,1.28s2,5,2,5Z" style="fill:#FA9805"></path><path d="M414.41,251.71a5.91,5.91,0,0,0,2.43-.83"></path><path d="M416.35,257.88s-.78-4.9-.81-5.13-1.35-.58-1.39-.92,2.78-1.5,3-.9c.11.36-.5,1.1-.47,1.28s2,5,2,5Z" style="opacity:0.1"></path><path d="M411.44,263l-4.2-3c-.19-.14-1.37.54-1.63.33s.89-3,1.45-2.74c.34.18.42,1.14.57,1.24s4.93,2.1,4.93,2.1Z" style="fill:#FA9805"></path><path d="M405.7,260a6.15,6.15,0,0,0,1.14-2.31"></path><path d="M411.44,263l-4.2-3c-.19-.14-1.37.54-1.63.33s.89-3,1.45-2.74c.34.18.42,1.14.57,1.24s4.93,2.1,4.93,2.1Z" style="opacity:0.1"></path><path d="M411.6,270.15l-5.12.81c-.23,0-.59,1.35-.92,1.38s-1.51-2.77-.91-3c.36-.11,1.1.51,1.28.47s5-2,5-2Z" style="fill:#FA9805"></path><path d="M405.43,272.08a6,6,0,0,0-.82-2.43"></path><path d="M411.6,270.15l-5.12.81c-.23,0-.59,1.35-.92,1.38s-1.51-2.77-.91-3c.36-.11,1.1.51,1.28.47s5-2,5-2Z" style="opacity:0.1"></path><path d="M416.75,275.06l-3.05,4.2c-.13.19.54,1.37.33,1.63s-3-.9-2.73-1.46c.17-.33,1.13-.42,1.23-.57s2.1-4.93,2.1-4.93Z" style="fill:#FA9805"></path><path d="M413.76,280.79a6,6,0,0,0-2.3-1.13"></path><path d="M416.75,275.06l-3.05,4.2c-.13.19.54,1.37.33,1.63s-3-.9-2.73-1.46c.17-.33,1.13-.42,1.23-.57s2.1-4.93,2.1-4.93Z" style="opacity:0.1"></path><path d="M423.87,274.89s.77,4.9.81,5.13,1.35.58,1.38.92-2.77,1.5-3,.9c-.11-.36.51-1.1.47-1.28s-2-5-2-5Z" style="fill:#FA9805"></path><path d="M425.81,281.06a5.91,5.91,0,0,0-2.43.83"></path><path d="M423.87,274.89s.77,4.9.81,5.13,1.35.58,1.38.92-2.77,1.5-3,.9c-.11-.36.51-1.1.47-1.28s-2-5-2-5Z" style="opacity:0.1"></path><path d="M428.78,269.74l4.2,3.05c.19.14,1.37-.54,1.63-.33s-.9,3-1.45,2.74c-.34-.18-.42-1.14-.58-1.24s-4.93-2.1-4.93-2.1Z" style="fill:#FA9805"></path><path d="M434.52,272.74a5.93,5.93,0,0,0-1.14,2.3"></path><path d="M428.78,269.74l4.2,3.05c.19.14,1.37-.54,1.63-.33s-.9,3-1.45,2.74c-.34-.18-.42-1.14-.58-1.24s-4.93-2.1-4.93-2.1Z" style="opacity:0.1"></path><path d="M428.61,262.63l5.13-.82c.23,0,.59-1.35.92-1.38s1.51,2.77.91,3c-.37.11-1.11-.51-1.28-.47s-5,2-5,2Z" style="fill:#FA9805"></path><path d="M434.79,260.69a6,6,0,0,0,.82,2.43"></path><path d="M428.61,262.63l5.13-.82c.23,0,.59-1.35.92-1.38s1.51,2.77.91,3c-.37.11-1.11-.51-1.28-.47s-5,2-5,2Z" style="opacity:0.1"></path><path d="M422.39,257s3.11-6.17,3.22-6.37-.7-1.3-.52-1.58,3.13.53,2.9,1.12c-.13.35-1.08.55-1.16.72s-2.19,7-2.19,7Z" style="fill:#FA9805"></path><path d="M425.37,249.06a6.12,6.12,0,0,0,2.44.85"></path><path d="M415.18,258.22s-2.16-6.56-2.22-6.78-1.42-.43-1.49-.75,2.58-1.84,2.84-1.26c.16.34-.37,1.16-.31,1.33s3.39,6.48,3.39,6.48Z" style="fill:#FA9805"></path><path d="M411.71,250.53a6,6,0,0,0,2.32-1.12"></path><path d="M411,264.21s-6.16-3.1-6.37-3.22-1.3.7-1.58.52.53-3.12,1.12-2.9c.35.14.56,1.09.72,1.17s7,2.18,7,2.18Z" style="fill:#FA9805"></path><path d="M403.09,261.23a5.89,5.89,0,0,0,.85-2.43"></path><path d="M412.25,271.42l-6.78,2.23c-.22.06-.42,1.41-.75,1.49s-1.84-2.59-1.26-2.85c.35-.15,1.16.38,1.33.32s6.48-3.4,6.48-3.4Z" style="fill:#FA9805"></path><path d="M404.56,274.89a6,6,0,0,0-1.11-2.32"></path><path d="M418.25,275.62s-3.11,6.17-3.23,6.37.71,1.3.53,1.59-3.13-.53-2.9-1.12c.13-.36,1.08-.56,1.16-.72s2.18-7,2.18-7Z" style="fill:#FA9805"></path><path d="M415.26,283.52a6,6,0,0,0-2.43-.86"></path><path d="M425.46,274.35s2.16,6.56,2.22,6.79,1.42.42,1.49.75-2.58,1.83-2.84,1.26c-.16-.35.37-1.16.31-1.34s-3.39-6.48-3.39-6.48Z" style="fill:#FA9805"></path><path d="M428.93,282a6.07,6.07,0,0,0-2.33,1.12"></path><path d="M429.66,268.36l6.36,3.22c.21.11,1.3-.7,1.59-.52s-.53,3.13-1.12,2.9c-.36-.14-.56-1.08-.72-1.17s-7-2.18-7-2.18Z" style="fill:#FA9805"></path><path d="M437.55,271.34a6,6,0,0,0-.86,2.43"></path><path d="M428.39,261.15l6.78-2.23c.22-.06.42-1.41.75-1.49s1.84,2.59,1.26,2.85c-.35.15-1.16-.37-1.33-.32s-6.49,3.4-6.49,3.4Z" style="fill:#FA9805"></path><path d="M436.08,257.68a6,6,0,0,0,1.11,2.32"></path><path d="M431.76,268.92c-1.47,6.31-7.47,10.59-13.88,9.09-4.06-.95-7.35-3.33-8.77-6.88a12,12,0,0,1-.36-7.27c1.77-7.58,8.35-10.78,14.63-9.31a11,11,0,0,1,4.07,1.83C431.53,259.32,432.75,264.67,431.76,268.92Z" style="fill:#FA9805"></path><path d="M431.76,268.92c-1.47,6.31-7.47,10.59-13.88,9.09-4.06-.95-7.35-3.33-8.77-6.88,2.8,2.22,8.59,5.77,14.39,3,8-3.81,7.48-13,3.95-17.77C431.53,259.32,432.75,264.67,431.76,268.92Z" style="opacity:0.1"></path><path d="M421.21,257.6h-2.74l0-.3c.17-1.11.74-4.87.78-5.09s-1.28-1.09-1.2-1.47c0-.17.76-.33,1.54-.39.95-.08,2,0,2,.39s-.92,1-.93,1.24S421.21,257.6,421.21,257.6Z" style="fill:#FA9805"></path><path d="M418.42,250.69a6.86,6.86,0,0,0,2.92-.09Z"></path><path d="M418.52,257.3c.17-1.11.74-4.87.78-5.09s-1.28-1.09-1.2-1.47c0-.17.76-.33,1.54-.39a2.23,2.23,0,0,0-.73.32.33.33,0,0,0-.06.08c-.06.1,0,.2.07.31.25.28.85.62.87.92S418.57,257.15,418.52,257.3Z" style="opacity:0.1"></path><path d="M414.66,259.09,412.73,261l-.08-.1v0c-.51-.68-3-4.08-3.15-4.28s-1.67.13-1.88-.19.84-1.55,1.64-2.2c.37-.29.69-.45.85-.28s.08,1.37.21,1.53S414.66,259.09,414.66,259.09Z" style="fill:#FA9805"></path><path d="M407.8,256.17a6.8,6.8,0,0,0,2-2.13Z"></path><path d="M412.64,260.9c-.51-.68-3-4.08-3.15-4.28s-1.67.13-1.88-.19.84-1.55,1.64-2.2a5.29,5.29,0,0,0-.73,1.17,1.14,1.14,0,0,0-.08.27c0,.12,0,.21.07.23.31.1,1-.14,1.29,0S412.46,260.57,412.64,260.9Z" style="opacity:0.1"></path><path d="M411.08,264.77v2.74h0l-5.39-.82c-.26,0-1.08,1.27-1.45,1.2s-.67-3-.15-3.47a.2.2,0,0,1,.15-.06c.42,0,1,.92,1.23.94C405.81,265.32,411.08,264.77,411.08,264.77Z" style="fill:#FA9805"></path><path d="M404.16,267.56a6.7,6.7,0,0,0-.09-2.92Z"></path><path d="M411.06,267.5l-5.39-.82c-.26,0-1.08,1.27-1.45,1.2s-.67-3-.15-3.47a2.68,2.68,0,0,0,.06,2.14,1.57,1.57,0,0,0,.13.23c.08.11.16.17.22.16.31-.07.78-.71,1.22-.68S410.77,267.43,411.06,267.5Z" style="opacity:0.1"></path><path d="M410.09,276.49c-.15.11,0,.94,0,1.47a.57.57,0,0,1-.13.41c-.32.21-3-2-2.5-2.49.31-.31,1.38-.08,1.54-.21s1.53-1.8,2.53-3h0l1.07-1.31,1.93,1.93Z" style="fill:#FA9805"></path><path d="M409.64,278.18a6.8,6.8,0,0,0-2.13-2Z"></path><path d="M410,278a.57.57,0,0,1-.13.41c-.32.21-3-2-2.5-2.49.31-.31,1.38-.08,1.54-.21s1.53-1.8,2.53-3a24.69,24.69,0,0,1-2.21,3.41c-.25.12-.93.12-1,.45a.36.36,0,0,0,.06.22,3.45,3.45,0,0,0,.5.7,5.26,5.26,0,0,0,.66.62l.1.06c.13.08.23.12.3.08A.43.43,0,0,0,410,278Z" style="opacity:0.1"></path><path d="M421.35,281.76c0,.09-.23.18-.55.25-1,.23-3,.3-3-.25s.93-1,.94-1.24-.24-2.87-.4-4.44h0l-.12-1.17H421l-.82,5.4C420.11,280.56,421.43,281.39,421.35,281.76Z" style="fill:#FA9805"></path><path d="M421,281.81a6.87,6.87,0,0,0-2.92.09Z"></path><path d="M420.8,282c-1,.23-3,.3-3-.25s.93-1,.94-1.24-.24-2.87-.4-4.44c.29,1.47.86,4.33.83,4.45s-.74.91-.55,1.16a.22.22,0,0,0,.07.06,1.37,1.37,0,0,0,.4.12A9.31,9.31,0,0,0,420.8,282Z" style="opacity:0.1"></path><path d="M431,277.53c-.61.69-1.34,1.29-1.6,1s-.08-1.38-.21-1.53-3.23-2.7-4.11-3.42h0l-.24-.19,1.93-1.94,3.24,4.4c.16.22,1.67-.13,1.88.19C431.94,276.22,431.5,276.91,431,277.53Z" style="fill:#FA9805"></path><path d="M431.65,276.33a6.8,6.8,0,0,0-2,2.13Z"></path><path d="M431,277.53c-.61.69-1.34,1.29-1.6,1s-.08-1.38-.21-1.53-3.23-2.7-4.11-3.42h0s4.58,2.91,4.61,3.15-.06,1.23.25,1.27a.51.51,0,0,0,.2,0A4.79,4.79,0,0,0,431,277.53Z" style="opacity:0.1"></path><path d="M435.23,268.15c-.23,0-.5-.26-.74-.5s-.4-.43-.5-.44c-.35,0-5.62.53-5.62.53V265l1.11.17h0l4.27.66c.26,0,1.09-1.28,1.46-1.21S436,268.15,435.23,268.15Z" style="fill:#FA9805"></path><path d="M435.28,265a6.86,6.86,0,0,0,.09,2.92Z"></path><path d="M435.23,268.15c-.23,0-.5-.26-.74-.5a4.85,4.85,0,0,0,.67,0,.14.14,0,0,0,.12-.08.38.38,0,0,0,.08-.17,3,3,0,0,0,0-1.3,2,2,0,0,0-.13-.39h0c-.05-.09-.1-.14-.16-.14-.35,0-1,.74-1.46.67s-2.75-.72-4.07-1.09l4.27.66c.26,0,1.09-1.28,1.46-1.21S436,268.15,435.23,268.15Z" style="opacity:0.1"></path><path d="M432,256.63c-.3.31-1.37.08-1.54.21s-3.6,4.35-3.6,4.35L425,259.25l.43-.31h0l4-2.92c.2-.16-.14-1.67.18-1.89.16-.1.95.42,1.6,1h0C431.77,255.73,432.28,256.38,432,256.63Z" style="fill:#FA9805"></path><path d="M429.81,254.33a6.85,6.85,0,0,0,2.12,2Z"></path><path d="M431.14,255.16a2.75,2.75,0,0,0-.78-.31.35.35,0,0,0-.17,0c-.16,0-.26.06-.29.21-.07.4.18,1.13,0,1.37s-4.35,2.44-4.52,2.53l4-2.92c.2-.16-.14-1.67.18-1.89C429.7,254,430.49,254.55,431.14,255.16Z" style="opacity:0.1"></path><g style="opacity:0.1"><path d="M416.41,273.58c-.11.26-.55.31-1,.11s-.67-.56-.55-.81.56-.31,1-.11S416.53,273.33,416.41,273.58Z"></path><path d="M416.13,274.49a2.81,2.81,0,0,1-1.67-.79.9.9,0,0,1-.28-1c.18-.45.61-.44,1-.48,0,0,0,0,0,0-.71-.08-1.56.22-1.43,1.08.15,1,1.45,1.46,2.34,1.39C416.2,274.65,416.23,274.51,416.13,274.49Z"></path><path d="M418,259c0,.28-.43.57-1,.65s-1.16-.07-1.2-.35.44-.57,1.06-.65S418,258.75,418,259Z"></path><path d="M416.41,260.27a2.32,2.32,0,0,1-.92-.3.68.68,0,0,1-.19-1,2.1,2.1,0,0,1,1.52-.83s0-.06,0-.05c-.7,0-1.76.38-2,1.14-.29,1,.9,1.17,1.6,1.16C416.48,260.38,416.47,260.28,416.41,260.27Z"></path><path d="M426.75,262.56c0,.28-.39.5-.86.48s-.84-.24-.83-.53.39-.49.86-.48S426.76,262.28,426.75,262.56Z"></path><path d="M425.82,263.68a3.58,3.58,0,0,1-1.31-.65c-.66-.71.36-1.14.93-1.31,0,0,0-.05,0-.05-.61.06-1.54.43-1.41,1.19s1.15,1.07,1.79,1A.08.08,0,0,0,425.82,263.68Z"></path><path d="M413.24,270.44c0,.22-.32.38-.68.36s-.64-.21-.63-.43.31-.38.67-.36S413.25,270.22,413.24,270.44Z"></path><path d="M412.49,271.29a2.76,2.76,0,0,1-1-.53c-.5-.56.31-.88.74-1,0,0,0,0,0,0-.47,0-1.2.3-1.11.89s.87.86,1.36.78C412.54,271.4,412.54,271.32,412.49,271.29Z"></path><path d="M428.91,270.72c.06.34-.35.7-.93.8s-1.08-.1-1.14-.44.35-.71.93-.8S428.85,270.37,428.91,270.72Z"></path><path d="M426.86,270.14s0,0,0,0c-.54.41-1.3,1.07-.75,1.8a1.63,1.63,0,0,0,2,.33.06.06,0,0,0,0-.11,2.77,2.77,0,0,1-1.48-.19C425.73,271.5,426.35,270.6,426.86,270.14Z"></path></g><path d="M82.25,322.44l3-4.2c.14-.19-.54-1.37-.33-1.63s3,.89,2.74,1.45c-.18.33-1.14.42-1.24.57s-2.1,4.93-2.1,4.93Z" style="fill:#FA9805"></path><path d="M85.25,316.7a6,6,0,0,0,2.3,1.13" style="fill:#263238"></path><path d="M82.25,322.44l3-4.2c.14-.19-.54-1.37-.33-1.63s3,.89,2.74,1.45c-.18.33-1.14.42-1.24.57s-2.1,4.93-2.1,4.93Z" style="opacity:0.1"></path><path d="M75.14,322.6s-.78-4.89-.82-5.12-1.35-.59-1.38-.92,2.77-1.51,3-.91c.11.36-.51,1.1-.47,1.28s2,5,2,5Z" style="fill:#FA9805"></path><path d="M73.2,316.43a6,6,0,0,0,2.43-.83" style="fill:#263238"></path><path d="M75.14,322.6s-.78-4.89-.82-5.12-1.35-.59-1.38-.92,2.77-1.51,3-.91c.11.36-.51,1.1-.47,1.28s2,5,2,5Z" style="opacity:0.1"></path><path d="M70.22,327.75,66,324.7c-.18-.14-1.36.54-1.62.33s.89-3,1.45-2.73c.33.17.42,1.13.57,1.23s4.93,2.1,4.93,2.1Z" style="fill:#FA9805"></path><path d="M64.49,324.76a6,6,0,0,0,1.13-2.3" style="fill:#263238"></path><path d="M70.22,327.75,66,324.7c-.18-.14-1.36.54-1.62.33s.89-3,1.45-2.73c.33.17.42,1.13.57,1.23s4.93,2.1,4.93,2.1Z" style="opacity:0.1"></path><path d="M70.39,334.87l-5.13.81c-.23,0-.58,1.35-.91,1.38s-1.51-2.77-.91-3c.36-.11,1.1.51,1.28.47s5-2,5-2Z" style="fill:#FA9805"></path><path d="M64.22,336.8a5.88,5.88,0,0,0-.83-2.42" style="fill:#263238"></path><path d="M70.39,334.87l-5.13.81c-.23,0-.58,1.35-.91,1.38s-1.51-2.77-.91-3c.36-.11,1.1.51,1.28.47s5-2,5-2Z" style="opacity:0.1"></path><path d="M75.54,339.78,72.49,344c-.14.19.54,1.37.33,1.63s-3-.9-2.74-1.45c.18-.34,1.14-.43,1.24-.58s2.1-4.93,2.1-4.93Z" style="fill:#FA9805"></path><path d="M72.55,345.51a6,6,0,0,0-2.31-1.13" style="fill:#263238"></path><path d="M75.54,339.78,72.49,344c-.14.19.54,1.37.33,1.63s-3-.9-2.74-1.45c.18-.34,1.14-.43,1.24-.58s2.1-4.93,2.1-4.93Z" style="opacity:0.1"></path><path d="M82.66,339.61s.77,4.9.81,5.13,1.35.58,1.38.92-2.77,1.51-3,.9c-.11-.36.51-1.1.47-1.28s-2-5-2-5Z" style="fill:#FA9805"></path><path d="M84.59,345.78a6.12,6.12,0,0,0-2.43.83" style="fill:#263238"></path><path d="M82.66,339.61s.77,4.9.81,5.13,1.35.58,1.38.92-2.77,1.51-3,.9c-.11-.36.51-1.1.47-1.28s-2-5-2-5Z" style="opacity:0.1"></path><path d="M87.57,334.46l4.2,3.05c.19.14,1.37-.54,1.63-.32s-.9,3-1.46,2.73c-.33-.18-.42-1.14-.57-1.24s-4.93-2.1-4.93-2.1Z" style="fill:#FA9805"></path><path d="M93.3,337.46a6,6,0,0,0-1.13,2.3" style="fill:#263238"></path><path d="M87.57,334.46l4.2,3.05c.19.14,1.37-.54,1.63-.32s-.9,3-1.46,2.73c-.33-.18-.42-1.14-.57-1.24s-4.93-2.1-4.93-2.1Z" style="opacity:0.1"></path><path d="M87.4,327.35l5.13-.81c.23,0,.58-1.35.92-1.39s1.5,2.78.9,3c-.36.11-1.1-.51-1.28-.47s-5,2-5,2Z" style="fill:#FA9805"></path><path d="M93.57,325.41a6.12,6.12,0,0,0,.83,2.43" style="fill:#263238"></path><path d="M87.4,327.35l5.13-.81c.23,0,.58-1.35.92-1.39s1.5,2.78.9,3c-.36.11-1.1-.51-1.28-.47s-5,2-5,2Z" style="opacity:0.1"></path><path d="M81.18,321.67l3.22-6.37c.12-.2-.7-1.3-.52-1.58s3.13.53,2.9,1.12c-.14.35-1.08.55-1.16.72s-2.19,7-2.19,7Z" style="fill:#FA9805"></path><path d="M84.16,313.78a6,6,0,0,0,2.43.85" style="fill:#263238"></path><path d="M74,322.94s-2.16-6.56-2.22-6.78-1.42-.42-1.49-.75,2.58-1.84,2.84-1.26c.15.34-.37,1.16-.31,1.33S76.18,322,76.18,322Z" style="fill:#FA9805"></path><path d="M70.5,315.25a6,6,0,0,0,2.32-1.12" style="fill:#263238"></path><path d="M69.77,328.93s-6.16-3.1-6.37-3.22-1.3.71-1.58.53.53-3.13,1.12-2.91c.35.14.55,1.09.72,1.17s7,2.18,7,2.18Z" style="fill:#FA9805"></path><path d="M61.88,326a6,6,0,0,0,.85-2.43" style="fill:#263238"></path><path d="M71,336.14l-6.78,2.23c-.23.06-.42,1.42-.75,1.49s-1.84-2.59-1.26-2.84c.35-.16,1.16.37,1.33.31s6.48-3.39,6.48-3.39Z" style="fill:#FA9805"></path><path d="M63.35,339.62a6.07,6.07,0,0,0-1.12-2.33" style="fill:#263238"></path><path d="M77,340.34s-3.11,6.17-3.23,6.37.71,1.3.53,1.59-3.13-.53-2.91-1.12c.14-.36,1.09-.56,1.17-.72s2.18-7,2.18-7Z" style="fill:#FA9805"></path><path d="M74.05,348.24a6,6,0,0,0-2.43-.86" style="fill:#263238"></path><path d="M84.24,339.07s2.16,6.56,2.23,6.79,1.42.42,1.49.75-2.59,1.83-2.84,1.26c-.16-.35.37-1.16.31-1.34S82,340.05,82,340.05Z" style="fill:#FA9805"></path><path d="M87.72,346.76a6.07,6.07,0,0,0-2.33,1.12" style="fill:#263238"></path><path d="M88.44,333.08l6.37,3.22c.21.12,1.3-.7,1.59-.52s-.53,3.13-1.12,2.9c-.36-.14-.56-1.08-.72-1.16s-7-2.19-7-2.19Z" style="fill:#FA9805"></path><path d="M96.34,336.06a6,6,0,0,0-.86,2.43" style="fill:#263238"></path><path d="M87.17,325.87s6.56-2.16,6.79-2.22.42-1.42.75-1.49S96.54,324.74,96,325c-.35.15-1.16-.37-1.34-.32s-6.48,3.4-6.48,3.4Z" style="fill:#FA9805"></path><path d="M94.86,322.4A6,6,0,0,0,96,324.72" style="fill:#263238"></path><path d="M90.55,333.64c-1.47,6.31-7.47,10.59-13.88,9.09-4.06-1-7.35-3.33-8.77-6.88a12,12,0,0,1-.36-7.27c1.77-7.58,8.35-10.78,14.63-9.31a11,11,0,0,1,4.07,1.83C90.32,324,91.54,329.39,90.55,333.64Z" style="fill:#FA9805"></path><path d="M90.55,333.64c-1.47,6.31-7.47,10.59-13.88,9.09-4.06-1-7.35-3.33-8.77-6.88,2.8,2.22,8.59,5.77,14.39,3,8-3.81,7.48-13,3.95-17.77C90.32,324,91.54,329.39,90.55,333.64Z" style="opacity:0.1"></path><path d="M80,322.33H77.26a2.8,2.8,0,0,1,0-.31c.16-1.1.74-4.87.77-5.09s-1.27-1.09-1.2-1.47c0-.16.77-.32,1.55-.39.94-.08,2,0,2,.39s-.92,1-.94,1.24C79.44,317.06,80,322.33,80,322.33Z" style="fill:#FA9805"></path><path d="M77.21,315.41a6.69,6.69,0,0,0,2.92-.09Z" style="fill:#263238"></path><path d="M77.31,322c.16-1.1.74-4.87.77-5.09s-1.27-1.09-1.2-1.47c0-.16.77-.32,1.55-.39a1.84,1.84,0,0,0-.73.33.16.16,0,0,0-.06.08c-.06.09,0,.19.07.3.25.28.85.63.87.92S77.35,321.87,77.31,322Z" style="opacity:0.1"></path><path d="M73.45,323.81l-1.94,1.94-.07-.11v0c-.51-.68-3-4.08-3.15-4.28s-1.67.14-1.89-.18S67.24,319.6,68,319c.37-.29.69-.44.85-.28s.08,1.38.21,1.53S73.45,323.81,73.45,323.81Z" style="fill:#FA9805"></path><path d="M66.59,320.89a6.8,6.8,0,0,0,2-2.13Z" style="fill:#263238"></path><path d="M71.43,325.62c-.51-.68-3-4.08-3.15-4.28s-1.67.14-1.89-.18S67.24,319.6,68,319a4.94,4.94,0,0,0-.73,1.17,1.3,1.3,0,0,0-.08.27c0,.12,0,.21.07.23.31.1,1-.13,1.29.05S71.25,325.29,71.43,325.62Z" style="opacity:0.1"></path><path d="M69.87,329.49v2.74h0l-5.39-.82c-.26,0-1.08,1.28-1.46,1.2s-.66-3-.14-3.46a.2.2,0,0,1,.14-.06c.43,0,1,.91,1.24.93S69.87,329.49,69.87,329.49Z" style="fill:#FA9805"></path><path d="M63,332.28a6.87,6.87,0,0,0-.09-2.92Z" style="fill:#263238"></path><path d="M69.85,332.22l-5.39-.82c-.26,0-1.08,1.28-1.46,1.2s-.66-3-.14-3.46a2.58,2.58,0,0,0,.06,2.13,1,1,0,0,0,.13.23c.08.11.16.17.22.16.31-.07.78-.71,1.22-.68S69.56,332.15,69.85,332.22Z" style="opacity:0.1"></path><path d="M68.88,341.21c-.16.11,0,1,0,1.47a.57.57,0,0,1-.13.41c-.32.21-3-2-2.5-2.49.31-.31,1.38-.08,1.54-.21s1.53-1.8,2.53-3v0L71.35,336,73.28,338Z" style="fill:#FA9805"></path><path d="M68.43,342.9a6.8,6.8,0,0,0-2.13-2Z" style="fill:#263238"></path><path d="M68.83,342.68a.57.57,0,0,1-.13.41c-.32.21-3-2-2.5-2.49.31-.31,1.38-.08,1.54-.21s1.53-1.8,2.53-3a25,25,0,0,1-2.21,3.4c-.25.12-.93.12-1,.45a.36.36,0,0,0,.06.22,3.45,3.45,0,0,0,.5.7,4.17,4.17,0,0,0,.66.62l.1.06c.13.08.23.12.3.08A.43.43,0,0,0,68.83,342.68Z" style="opacity:0.1"></path><path d="M80.14,346.48c0,.09-.24.18-.55.25-1,.23-3,.3-3-.25s.92-1,.94-1.23-.24-2.88-.4-4.45h0c-.07-.68-.13-1.17-.13-1.17h2.74l-.82,5.4C78.9,345.28,80.22,346.11,80.14,346.48Z" style="fill:#FA9805"></path><path d="M79.82,346.53a6.91,6.91,0,0,0-2.93.09Z" style="fill:#263238"></path><path d="M79.59,346.73c-1,.23-3,.3-3-.25s.92-1,.94-1.23-.24-2.88-.4-4.45c.29,1.47.86,4.33.82,4.45s-.74.91-.54,1.16a.22.22,0,0,0,.07.06,1.37,1.37,0,0,0,.4.12A9.31,9.31,0,0,0,79.59,346.73Z" style="opacity:0.1"></path><path d="M89.74,342.26c-.61.68-1.34,1.29-1.6,1s-.08-1.38-.22-1.53-3.22-2.7-4.11-3.41h0l-.24-.19,1.94-1.94s3.07,4.19,3.24,4.4,1.67-.13,1.88.19C90.73,340.94,90.28,341.63,89.74,342.26Z" style="fill:#FA9805"></path><path d="M90.44,341.06a6.84,6.84,0,0,0-2,2.12Z" style="fill:#263238"></path><path d="M89.74,342.26c-.61.68-1.34,1.29-1.6,1s-.08-1.38-.22-1.53-3.22-2.7-4.11-3.41h0a55.14,55.14,0,0,1,4.62,3.16c0,.25-.06,1.22.25,1.26a.54.54,0,0,0,.2,0A5.46,5.46,0,0,0,89.74,342.26Z" style="opacity:0.1"></path><path d="M94,332.87c-.23,0-.5-.26-.75-.5s-.39-.43-.49-.44c-.35,0-5.62.53-5.62.53v-2.74l1.11.17h0l4.28.66c.26,0,1.09-1.28,1.46-1.21S94.74,332.87,94,332.87Z" style="fill:#FA9805"></path><path d="M94.07,329.67a6.86,6.86,0,0,0,.09,2.92Z" style="fill:#263238"></path><path d="M94,332.87c-.23,0-.5-.26-.75-.5a5,5,0,0,0,.68,0,.14.14,0,0,0,.12-.08.54.54,0,0,0,.08-.17,3,3,0,0,0,0-1.3,2,2,0,0,0-.13-.39h0c0-.09-.1-.14-.16-.14-.35,0-1,.75-1.47.67-.35-.06-2.74-.72-4.07-1.09l4.28.66c.26,0,1.09-1.28,1.46-1.21S94.74,332.87,94,332.87Z" style="opacity:0.1"></path><path d="M90.82,321.35c-.3.31-1.38.08-1.54.21s-3.61,4.35-3.61,4.35L83.74,324l.42-.31h0l4-2.92c.21-.16-.13-1.67.19-1.89.16-.1.94.42,1.6,1h0C90.56,320.45,91.07,321.1,90.82,321.35Z" style="fill:#FA9805"></path><path d="M88.59,319.05a6.8,6.8,0,0,0,2.13,2Z" style="fill:#263238"></path><path d="M89.93,319.88a2.75,2.75,0,0,0-.78-.31.35.35,0,0,0-.17,0c-.16,0-.27.06-.29.21-.07.4.18,1.14,0,1.37s-4.35,2.44-4.52,2.53l4-2.92c.21-.16-.13-1.67.19-1.89C88.49,318.75,89.27,319.27,89.93,319.88Z" style="opacity:0.1"></path><g style="opacity:0.1"><path d="M75.2,338.3c-.12.26-.55.31-1,.11s-.67-.56-.55-.81.55-.31,1-.11S75.32,338.05,75.2,338.3Z"></path><path d="M74.92,339.22a2.88,2.88,0,0,1-1.68-.8.91.91,0,0,1-.27-1c.18-.45.61-.43,1-.47,0,0,0,0,0,0-.71-.08-1.56.21-1.43,1.08s1.44,1.45,2.33,1.38C75,339.37,75,339.23,74.92,339.22Z"></path><path d="M76.81,323.75c0,.28-.44.57-1.06.66s-1.15-.08-1.19-.36.44-.57,1.06-.65S76.77,323.47,76.81,323.75Z"></path><path d="M75.2,325a2.37,2.37,0,0,1-.93-.3.69.69,0,0,1-.18-1,2.1,2.1,0,0,1,1.52-.83s0-.05,0-.05c-.71,0-1.76.38-2,1.14-.3,1,.9,1.17,1.59,1.16C75.27,325.11,75.26,325,75.2,325Z"></path><path d="M85.54,327.28c0,.28-.39.5-.86.49s-.84-.25-.83-.53.39-.5.86-.49S85.55,327,85.54,327.28Z"></path><path d="M84.61,328.41a3.68,3.68,0,0,1-1.31-.66c-.66-.71.36-1.14.92-1.31,0,0,0-.05,0-.05-.6.06-1.53.43-1.4,1.19s1.15,1.08,1.78,1A.07.07,0,0,0,84.61,328.41Z"></path><path d="M72,335.16c0,.22-.32.38-.68.36s-.64-.21-.63-.43.31-.37.67-.36S72,334.94,72,335.16Z"></path><path d="M71.28,336a3.1,3.1,0,0,1-1-.53c-.5-.57.3-.89.74-1,0,0,0,0,0,0-.48,0-1.2.3-1.11.89s.87.86,1.36.79A.06.06,0,0,0,71.28,336Z"></path><path d="M87.7,335.44c.06.34-.36.7-.93.8s-1.08-.1-1.14-.44.35-.7.92-.8S87.64,335.09,87.7,335.44Z"></path><path d="M85.65,334.86s0,0,0,0c-.54.41-1.3,1.08-.76,1.81a1.64,1.64,0,0,0,2,.32.06.06,0,0,0,0-.11,2.76,2.76,0,0,1-1.48-.19C84.52,336.22,85.13,335.32,85.65,334.86Z"></path></g><path d="M401.93,166.39l8.84,6.42c.4.29,2.88-1.13,3.43-.69s-1.88,6.37-3.06,5.76c-.7-.38-.88-2.4-1.2-2.61-.55-.36-10.38-4.41-10.38-4.41Z" style="fill:#FA9805"></path><path d="M414,172.7s-2.13,2.7-2.38,4.84" style="fill:#263238"></path><path d="M401.93,166.39l8.84,6.42c.4.29,2.88-1.13,3.43-.69s-1.88,6.37-3.06,5.76c-.7-.38-.88-2.4-1.2-2.61-.55-.36-10.38-4.41-10.38-4.41Z" style="opacity:0.1"></path><path d="M401.58,151.42l10.79-1.71c.49-.08,1.23-2.84,1.94-2.91s3.17,5.83,1.9,6.23c-.76.23-2.32-1.07-2.69-1-.64.13-10.46,4.22-10.46,4.22Z" style="fill:#FA9805"></path><path d="M414.57,147.34s.41,3.42,1.74,5.11" style="fill:#263238"></path><path d="M401.58,151.42l10.79-1.71c.49-.08,1.23-2.84,1.94-2.91s3.17,5.83,1.9,6.23c-.76.23-2.32-1.07-2.69-1-.64.13-10.46,4.22-10.46,4.22Z" style="opacity:0.1"></path><path d="M390.74,141.08l6.43-8.84c.28-.4-1.14-2.88-.7-3.43s6.38,1.89,5.76,3.06c-.37.7-2.4.89-2.61,1.21-.36.55-4.41,10.37-4.41,10.37Z" style="fill:#FA9805"></path><path d="M397.05,129s2.7,2.13,4.84,2.39" style="fill:#263238"></path><path d="M390.74,141.08l6.43-8.84c.28-.4-1.14-2.88-.7-3.43s6.38,1.89,5.76,3.06c-.37.7-2.4.89-2.61,1.21-.36.55-4.41,10.37-4.41,10.37Z" style="opacity:0.1"></path><path d="M375.77,141.43s-1.63-10.3-1.71-10.79-2.84-1.23-2.91-1.93,5.84-3.18,6.23-1.91c.23.76-1.07,2.32-1,2.69.14.65,4.22,10.46,4.22,10.46Z" style="fill:#FA9805"></path><path d="M371.69,128.44s3.42-.4,5.11-1.74" style="fill:#263238"></path><path d="M375.77,141.43s-1.63-10.3-1.71-10.79-2.84-1.23-2.91-1.93,5.84-3.18,6.23-1.91c.23.76-1.07,2.32-1,2.69.14.65,4.22,10.46,4.22,10.46Z" style="opacity:0.1"></path><path d="M365.43,152.27l-8.84-6.42c-.39-.29-2.88,1.14-3.42.69s1.88-6.37,3.05-5.75c.71.37.89,2.39,1.21,2.6.55.36,10.38,4.41,10.38,4.41Z" style="fill:#FA9805"></path><path d="M353.36,146s2.13-2.71,2.39-4.85" style="fill:#263238"></path><path d="M365.43,152.27l-8.84-6.42c-.39-.29-2.88,1.14-3.42.69s1.88-6.37,3.05-5.75c.71.37.89,2.39,1.21,2.6.55.36,10.38,4.41,10.38,4.41Z" style="opacity:0.1"></path><path d="M365.79,167.24,355,169c-.48.08-1.23,2.84-1.93,2.91s-3.17-5.83-1.91-6.22c.76-.24,2.32,1.06,2.7,1,.64-.13,10.45-4.21,10.45-4.21Z" style="fill:#FA9805"></path><path d="M352.79,171.32s-.4-3.42-1.73-5.11" style="fill:#263238"></path><path d="M365.79,167.24,355,169c-.48.08-1.23,2.84-1.93,2.91s-3.17-5.83-1.91-6.22c.76-.24,2.32,1.06,2.7,1,.64-.13,10.45-4.21,10.45-4.21Z" style="opacity:0.1"></path><path d="M376.62,177.58l-6.42,8.84c-.29.4,1.14,2.88.69,3.43s-6.37-1.89-5.75-3.06c.37-.7,2.39-.88,2.6-1.2.36-.55,4.41-10.38,4.41-10.38Z" style="fill:#FA9805"></path><path d="M370.32,189.65s-2.7-2.13-4.84-2.38" style="fill:#263238"></path><path d="M376.62,177.58l-6.42,8.84c-.29.4,1.14,2.88.69,3.43s-6.37-1.89-5.75-3.06c.37-.7,2.39-.88,2.6-1.2.36-.55,4.41-10.38,4.41-10.38Z" style="opacity:0.1"></path><path d="M391.6,177.23s1.63,10.31,1.71,10.79,2.84,1.23,2.91,1.93-5.84,3.18-6.23,1.91c-.24-.76,1.06-2.32,1-2.69-.14-.65-4.22-10.46-4.22-10.46Z" style="fill:#FA9805"></path><path d="M395.67,190.22s-3.42.4-5.11,1.74" style="fill:#263238"></path><path d="M391.6,177.23s1.63,10.31,1.71,10.79,2.84,1.23,2.91,1.93-5.84,3.18-6.23,1.91c-.24-.76,1.06-2.32,1-2.69-.14-.65-4.22-10.46-4.22-10.46Z" style="opacity:0.1"></path><path d="M403.54,164.14s13,6.54,13.41,6.78,2.73-1.48,3.33-1.1-1.11,6.58-2.36,6.1c-.74-.28-1.17-2.28-1.51-2.45-.59-.29-14.7-4.59-14.7-4.59Z" style="fill:#FA9805"></path><path d="M420.15,170.41s-1.8,3-1.79,5.12" style="fill:#263238"></path><path d="M400.87,149s13.8-4.54,14.27-4.68.89-3,1.59-3.13,3.86,5.44,2.65,6c-.74.33-2.45-.78-2.81-.66-.63.21-13.64,7.14-13.64,7.14Z" style="fill:#FA9805"></path><path d="M417.06,141.66s.81,3.36,2.34,4.89" style="fill:#263238"></path><path d="M388.25,140.13s6.55-13,6.79-13.41-1.48-2.73-1.1-3.33,6.58,1.11,6.1,2.35c-.28.75-2.28,1.18-2.45,1.52-.29.59-4.59,14.7-4.59,14.7Z" style="fill:#FA9805"></path><path d="M394.53,123.51s3,1.81,5.12,1.8" style="fill:#263238"></path><path d="M373.08,142.8s-4.55-13.8-4.68-14.28-3-.88-3.14-1.58,5.45-3.86,6-2.65c.33.73-.79,2.44-.66,2.81.21.62,7.14,13.64,7.14,13.64Z" style="fill:#FA9805"></path><path d="M365.77,126.61s3.37-.81,4.9-2.35" style="fill:#263238"></path><path d="M364.24,155.41s-13-6.54-13.4-6.78-2.74,1.48-3.34,1.1,1.12-6.58,2.36-6.1c.75.28,1.17,2.28,1.52,2.45.59.29,14.7,4.59,14.7,4.59Z" style="fill:#FA9805"></path><path d="M347.63,149.14s1.8-3,1.8-5.12" style="fill:#263238"></path><path d="M366.92,170.59s-13.8,4.54-14.28,4.68-.89,3-1.58,3.13-3.86-5.44-2.65-6c.73-.33,2.44.78,2.81.66.62-.21,13.64-7.14,13.64-7.14Z" style="fill:#FA9805"></path><path d="M350.73,177.89s-.81-3.36-2.35-4.89" style="fill:#263238"></path><path d="M379.53,179.42s-6.54,13-6.78,13.41,1.48,2.73,1.1,3.33-6.58-1.11-6.11-2.35c.29-.75,2.29-1.18,2.46-1.52.29-.59,4.59-14.7,4.59-14.7Z" style="fill:#FA9805"></path><path d="M373.26,196s-3-1.81-5.12-1.8" style="fill:#263238"></path><path d="M394.7,176.75s4.55,13.8,4.69,14.28,3,.88,3.13,1.58-5.44,3.86-6,2.65c-.33-.73.78-2.44.66-2.81-.21-.62-7.14-13.64-7.14-13.64Z" style="fill:#FA9805"></path><path d="M402,192.94s-3.36.81-4.89,2.34" style="fill:#263238"></path><path d="M408.59,166.22c-3.6,15.36-18.83,20.32-30.24,17.64A26.31,26.31,0,0,1,365.83,177a23.5,23.5,0,0,1-6.62-22.36c3.16-13.49,13.86-22.95,29.79-19.21a27.68,27.68,0,0,1,12.18,6.09C408.18,147.71,410.73,157.12,408.59,166.22Z" style="fill:#FA9805"></path><path d="M408.59,166.22c-3.6,15.36-18.83,20.32-30.24,17.64A26.31,26.31,0,0,1,365.83,177c6.69,3.18,15.15,5,23.61,1,16.23-7.7,17.22-24.93,11.74-36.47C408.18,147.71,410.73,157.12,408.59,166.22Z" style="opacity:0.1"></path><path d="M402.16,161.65v-5.77l.64.1,10.73,1.64c.54.08,2.28-2.68,3.08-2.52.35.07.69,1.6.82,3.24.16,2,0,4.17-.82,4.17s-2.17-1.93-2.61-2C413.26,160.48,402.16,161.65,402.16,161.65Z" style="fill:#FA9805"></path><path d="M416.71,155.78s-.7,3.85.19,6.14Z" style="fill:#263238"></path><path d="M402.8,156l10.73,1.64c.54.08,2.28-2.68,3.08-2.52.35.07.69,1.6.82,3.24a4.1,4.1,0,0,0-.68-1.53.64.64,0,0,0-.17-.13c-.2-.12-.4-.06-.63.15-.6.53-1.33,1.78-1.94,1.83S403.13,156.08,402.8,156Z" style="opacity:0.1"></path><path d="M399,147.87,395,143.79l.21-.16,0,0c1.44-1.07,8.61-6.33,9-6.63s-.28-3.51.4-4c.45-.3,3.27,1.78,4.63,3.47.62.76.94,1.44.61,1.78-.64.64-2.91.17-3.24.44C406.06,139.19,399,147.87,399,147.87Z" style="fill:#FA9805"></path><path d="M405.18,133.42s2.23,3.23,4.48,4.22Z" style="fill:#263238"></path><path d="M395.22,143.61c1.44-1.07,8.61-6.33,9-6.63s-.28-3.51.4-4c.45-.3,3.27,1.78,4.63,3.47a10.27,10.27,0,0,0-2.46-1.55,2.73,2.73,0,0,0-.56-.16c-.26-.05-.44,0-.49.15-.21.65.29,2-.09,2.7S395.92,143.24,395.22,143.61Z" style="opacity:0.1"></path><path d="M387.09,140.33h-5.76a.16.16,0,0,1,0,0c.09-.63,1.65-10.8,1.72-11.34s-2.68-2.28-2.52-3.07,6.33-1.4,7.29-.31a.43.43,0,0,1,.13.31c0,.91-1.93,2.17-2,2.6C385.92,129.23,387.09,140.33,387.09,140.33Z" style="fill:#FA9805"></path><path d="M381.22,125.77s3.86.7,6.15-.19Z" style="fill:#263238"></path><path d="M381.34,140.29c.09-.63,1.65-10.8,1.72-11.34s-2.68-2.28-2.52-3.07,6.33-1.4,7.29-.31a5.55,5.55,0,0,0-4.5.14,2.32,2.32,0,0,0-.47.27c-.23.16-.36.33-.34.47.15.64,1.49,1.64,1.43,2.56S381.49,139.68,381.34,140.29Z" style="opacity:0.1"></path><path d="M362.42,138.25c-.23-.33-2,0-3.1-.11-.42,0-.74-.1-.86-.28-.44-.66,4.18-6.31,5.24-5.24.65.64.17,2.9.45,3.23s3.78,3.22,6.36,5.32l0,0,2.76,2.25-4.07,4.07S362.76,138.7,362.42,138.25Z" style="fill:#FA9805"></path><path d="M358.87,137.3s3.22-2.23,4.21-4.48Z" style="fill:#263238"></path><path d="M359.32,138.14c-.42,0-.74-.1-.86-.28-.44-.66,4.18-6.31,5.24-5.24.65.64.17,2.9.45,3.23s3.78,3.22,6.36,5.32c-2.66-1.49-7-4.25-7.17-4.64s-.24-2-.94-2.11a.87.87,0,0,0-.47.13,7.79,7.79,0,0,0-1.47,1,9,9,0,0,0-1.29,1.38,2.17,2.17,0,0,0-.15.22c-.17.27-.23.49-.16.62A.83.83,0,0,0,359.32,138.14Z" style="opacity:0.1"></path><path d="M351.32,162c-.19,0-.37-.5-.52-1.17-.48-2.09-.63-6.25.52-6.26.91,0,2.18,1.94,2.61,2s6.05-.51,9.36-.85h0l2.46-.26v5.76l-11.36-1.73C353.85,159.34,352.11,162.11,351.32,162Z" style="fill:#FA9805"></path><path d="M351.21,161.26s.7-3.85-.18-6.14Z" style="fill:#263238"></path><path d="M350.8,160.78c-.48-2.09-.63-6.25.52-6.26.91,0,2.18,1.94,2.61,2s6.05-.51,9.36-.85c-3.1.62-9.12,1.82-9.38,1.74s-1.91-1.56-2.44-1.15a.44.44,0,0,0-.12.16,2.8,2.8,0,0,0-.26.83A18.8,18.8,0,0,0,350.8,160.78Z" style="opacity:0.1"></path><path d="M360.22,182.14c-1.44-1.27-2.72-2.81-2.16-3.36s2.9-.17,3.23-.45c.5-.41,5.68-6.78,7.18-8.65h0l.4-.5,4.08,4.07s-8.82,6.47-9.26,6.81.27,3.52-.39,4C363,184.23,361.54,183.3,360.22,182.14Z" style="fill:#FA9805"></path><path d="M362.75,183.62s-2.24-3.22-4.48-4.22Z" style="fill:#263238"></path><path d="M360.22,182.14c-1.44-1.27-2.72-2.81-2.16-3.36s2.9-.17,3.23-.45c.5-.41,5.68-6.78,7.18-8.65h0s-6.12,9.64-6.64,9.72-2.58-.13-2.66.52a1,1,0,0,0,.07.42A9.17,9.17,0,0,0,360.22,182.14Z" style="opacity:0.1"></path><path d="M380,191.16c0-.48.55-1.06,1.06-1.57s.9-.83.91-1c.07-.74-1.1-11.83-1.1-11.83h5.76l-.36,2.33v0c-.5,3.21-1.33,8.61-1.38,9-.07.56,2.68,2.3,2.53,3.08S380,192.67,380,191.16Z" style="fill:#FA9805"></path><path d="M386.71,191.27s-3.86-.7-6.15.19Z" style="fill:#263238"></path><path d="M380,191.16c0-.48.55-1.06,1.06-1.57a12.92,12.92,0,0,0,0,1.42.41.41,0,0,0,.16.26,1,1,0,0,0,.36.16,6.46,6.46,0,0,0,2.75-.08,3.79,3.79,0,0,0,.81-.28h0c.19-.1.3-.21.3-.33,0-.74-1.57-2-1.41-3.09.12-.75,1.51-5.77,2.29-8.56-.5,3.21-1.33,8.61-1.38,9-.07.56,2.68,2.3,2.53,3.08S380,192.67,380,191.16Z" style="opacity:0.1"></path><path d="M404.22,184.43c-.65-.64-.17-2.9-.45-3.24-.48-.57-9.15-7.59-9.15-7.59l4.08-4.08.65.9h0l6.15,8.37c.34.44,3.52-.28,4,.39.23.34-.88,2-2.15,3.38h0C406.1,183.87,404.74,184.94,404.22,184.43Z" style="fill:#FA9805"></path><path d="M409.06,179.74s-3.22,2.23-4.21,4.48Z" style="fill:#263238"></path><path d="M407.32,182.56a6.19,6.19,0,0,0,.65-1.66,1.08,1.08,0,0,0,0-.35c0-.33-.14-.56-.45-.61-.84-.14-2.39.38-2.87,0s-5.15-9.16-5.34-9.52l6.15,8.37c.34.44,3.52-.28,4,.39C409.7,179.52,408.59,181.17,407.32,182.56Z" style="opacity:0.1"></path><g style="opacity:0.1"><path d="M386.44,174.48c-.25.53-1.17.63-2.07.22s-1.41-1.18-1.16-1.71,1.17-.64,2.06-.23S386.68,173.94,386.44,174.48Z"></path><path d="M385.84,176.39a6.06,6.06,0,0,1-3.53-1.68,1.89,1.89,0,0,1-.57-2.07c.38-.95,1.27-.92,2.15-1,0,0,.06-.08,0-.09-1.5-.17-3.28.45-3,2.28.32,2.15,3,3,4.91,2.91C386,176.72,386.05,176.42,385.84,176.39Z"></path><path d="M383.43,145.06c-.07.59-1.18.95-2.49.81s-2.32-.73-2.26-1.32,1.18-1,2.49-.81S383.49,144.48,383.43,145.06Z"></path><path d="M379.52,146.8a5.46,5.46,0,0,1-1.75-1.08,1.45,1.45,0,0,1,.13-2.15,4.42,4.42,0,0,1,3.52-.92.06.06,0,0,0,0-.12c-1.46-.27-3.79-.1-4.64,1.33-1.1,1.85,1.26,2.84,2.67,3.17C379.6,147.06,379.63,146.85,379.52,146.8Z"></path><path d="M371.36,164.25c0,.59-.82,1-1.8,1s-1.77-.53-1.75-1.12.82-1,1.8-1S371.38,163.65,371.36,164.25Z"></path><path d="M369.4,166.62a7.72,7.72,0,0,1-2.75-1.37c-1.4-1.5.76-2.42,1.94-2.77a.05.05,0,0,0,0-.1c-1.28.12-3.24.9-3,2.51s2.42,2.25,3.76,2A.16.16,0,0,0,369.4,166.62Z"></path><path d="M375.22,157.84c.09.44-.44.93-1.18,1.09s-1.43-.09-1.52-.54.44-.93,1.18-1.09S375.13,157.39,375.22,157.84Z"></path><path d="M374.16,160a5.94,5.94,0,0,1-2.32-.55c-1.32-.89.15-2,1-2.43a0,0,0,1,0,0-.07c-.94.31-2.28,1.25-1.79,2.41s2.22,1.28,3.19.87A.12.12,0,0,0,374.16,160Z"></path><path d="M402.52,159.57c.12.72-.75,1.48-1.95,1.69s-2.29-.21-2.41-.93.75-1.48,1.95-1.69S402.39,158.85,402.52,159.57Z"></path><path d="M398.2,158.36s0-.07,0-.05c-1.14.86-2.73,2.27-1.59,3.8a3.43,3.43,0,0,0,4.3.68.13.13,0,0,0-.08-.23,5.79,5.79,0,0,1-3.11-.39C395.82,161.22,397.12,159.33,398.2,158.36Z"></path></g><path d="M187.84,288.31l18.63,74.31-38.23-66a75.07,75.07,0,0,1-11.73,2.06,73.7,73.7,0,1,1,31.33-10.33Z" style="fill:#fff"></path><path d="M187.84,288.31l18.87,74.25.44,1.74-.9-1.55-38.31-66,.38.15a71.23,71.23,0,0,1-13.68,2.22,74.53,74.53,0,0,1-13.85-.32,73.19,73.19,0,0,1-26.33-8.32,74.19,74.19,0,0,1-39-68.78,73.52,73.52,0,0,1,6.44-26.88,74.67,74.67,0,0,1,15.84-22.65,74,74,0,0,1,125.53,59.66,73.1,73.1,0,0,1-2.54,13.6A74.49,74.49,0,0,1,187.84,288.31Zm0,0a74.27,74.27,0,0,0,32.55-43,75.42,75.42,0,0,0,2.38-27.28,73.39,73.39,0,1,0-107.93,71.73,72.48,72.48,0,0,0,26,8.29,74.88,74.88,0,0,0,13.72.35,70.71,70.71,0,0,0,13.56-2.17l.25-.06.13.22,38.15,66.09-.46.18Z" style="fill:#263238"></path><path d="M222.17,101.93l8.84,6.43c.4.29,2.88-1.14,3.43-.69s-1.89,6.37-3.06,5.75c-.7-.37-.88-2.39-1.2-2.6-.55-.36-10.38-4.42-10.38-4.42Z" style="fill:#FA9805"></path><path d="M234.24,108.24s-2.13,2.7-2.38,4.84" style="fill:#263238"></path><path d="M222.17,101.93l8.84,6.43c.4.29,2.88-1.14,3.43-.69s-1.89,6.37-3.06,5.75c-.7-.37-.88-2.39-1.2-2.6-.55-.36-10.38-4.42-10.38-4.42Z" style="opacity:0.1"></path><path d="M221.82,87l10.79-1.71c.49-.07,1.23-2.84,1.94-2.91s3.17,5.84,1.9,6.23c-.76.23-2.32-1.07-2.69-1-.64.14-10.46,4.22-10.46,4.22Z" style="fill:#FA9805"></path><path d="M234.81,82.88s.41,3.42,1.74,5.12" style="fill:#263238"></path><path d="M221.82,87l10.79-1.71c.49-.07,1.23-2.84,1.94-2.91s3.17,5.84,1.9,6.23c-.76.23-2.32-1.07-2.69-1-.64.14-10.46,4.22-10.46,4.22Z" style="opacity:0.1"></path><path d="M211,76.62s6.14-8.44,6.42-8.84-1.13-2.88-.69-3.42,6.37,1.88,5.76,3c-.38.71-2.4.89-2.61,1.21-.36.55-4.41,10.38-4.41,10.38Z" style="fill:#FA9805"></path><path d="M217.29,64.55s2.7,2.13,4.84,2.39" style="fill:#263238"></path><path d="M211,76.62s6.14-8.44,6.42-8.84-1.13-2.88-.69-3.42,6.37,1.88,5.76,3c-.38.71-2.4.89-2.61,1.21-.36.55-4.41,10.38-4.41,10.38Z" style="opacity:0.1"></path><path d="M196,77s-1.63-10.31-1.71-10.8-2.84-1.23-2.91-1.93,5.84-3.17,6.23-1.91c.23.76-1.07,2.32-1,2.7.13.64,4.22,10.46,4.22,10.46Z" style="fill:#FA9805"></path><path d="M191.93,64s3.42-.4,5.11-1.73" style="fill:#263238"></path><path d="M196,77s-1.63-10.31-1.71-10.8-2.84-1.23-2.91-1.93,5.84-3.17,6.23-1.91c.23.76-1.07,2.32-1,2.7.13.64,4.22,10.46,4.22,10.46Z" style="opacity:0.1"></path><path d="M185.67,87.81l-8.84-6.42c-.39-.29-2.88,1.14-3.43.69s1.89-6.37,3.06-5.75c.7.37.89,2.39,1.21,2.6.55.36,10.37,4.42,10.37,4.42Z" style="fill:#FA9805"></path><path d="M173.6,81.51s2.13-2.7,2.39-4.84" style="fill:#263238"></path><path d="M185.67,87.81l-8.84-6.42c-.39-.29-2.88,1.14-3.43.69s1.89-6.37,3.06-5.75c.7.37.89,2.39,1.21,2.6.55.36,10.37,4.42,10.37,4.42Z" style="opacity:0.1"></path><path d="M186,102.79l-10.79,1.71c-.48.07-1.23,2.84-1.93,2.91s-3.17-5.84-1.91-6.23c.76-.24,2.32,1.06,2.69,1,.65-.14,10.46-4.22,10.46-4.22Z" style="fill:#FA9805"></path><path d="M173,106.86s-.4-3.41-1.74-5.11" style="fill:#263238"></path><path d="M186,102.79l-10.79,1.71c-.48.07-1.23,2.84-1.93,2.91s-3.17-5.84-1.91-6.23c.76-.24,2.32,1.06,2.69,1,.65-.14,10.46-4.22,10.46-4.22Z" style="opacity:0.1"></path><path d="M196.86,113.12,190.44,122c-.29.4,1.14,2.88.69,3.43s-6.37-1.88-5.75-3c.37-.71,2.39-.89,2.6-1.21.36-.55,4.41-10.38,4.41-10.38Z" style="fill:#FA9805"></path><path d="M190.56,125.19s-2.71-2.13-4.85-2.38" style="fill:#263238"></path><path d="M196.86,113.12,190.44,122c-.29.4,1.14,2.88.69,3.43s-6.37-1.88-5.75-3c.37-.71,2.39-.89,2.6-1.21.36-.55,4.41-10.38,4.41-10.38Z" style="opacity:0.1"></path><path d="M211.83,112.77s1.64,10.31,1.71,10.79,2.84,1.23,2.92,1.94-5.84,3.17-6.23,1.9c-.24-.76,1.06-2.31,1-2.69-.13-.64-4.21-10.46-4.21-10.46Z" style="fill:#FA9805"></path><path d="M215.91,125.76s-3.42.41-5.11,1.74" style="fill:#263238"></path><path d="M211.83,112.77s1.64,10.31,1.71,10.79,2.84,1.23,2.92,1.94-5.84,3.17-6.23,1.9c-.24-.76,1.06-2.31,1-2.69-.13-.64-4.21-10.46-4.21-10.46Z" style="opacity:0.1"></path><path d="M223.78,99.68s13,6.54,13.4,6.78,2.74-1.48,3.34-1.1-1.11,6.58-2.36,6.11c-.74-.29-1.17-2.28-1.51-2.45-.6-.3-14.7-4.6-14.7-4.6Z" style="fill:#FA9805"></path><path d="M240.39,106s-1.8,3-1.8,5.11" style="fill:#263238"></path><path d="M221.11,84.51s13.8-4.55,14.27-4.68.89-3,1.58-3.14,3.87,5.44,2.65,6c-.73.33-2.44-.78-2.8-.66-.63.21-13.64,7.15-13.64,7.15Z" style="fill:#FA9805"></path><path d="M237.3,77.2s.81,3.36,2.34,4.89" style="fill:#263238"></path><path d="M208.49,75.67s6.55-13,6.79-13.4-1.49-2.74-1.1-3.34,6.58,1.11,6.1,2.36c-.29.74-2.28,1.17-2.45,1.51-.29.6-4.6,14.7-4.6,14.7Z" style="fill:#FA9805"></path><path d="M214.77,59.06s2.95,1.8,5.12,1.8" style="fill:#263238"></path><path d="M193.32,78.34s-4.55-13.8-4.68-14.27-3-.89-3.14-1.58,5.45-3.87,6-2.65c.32.73-.79,2.44-.66,2.8.21.63,7.14,13.64,7.14,13.64Z" style="fill:#FA9805"></path><path d="M186,62.16s3.37-.82,4.89-2.35" style="fill:#263238"></path><path d="M184.48,91s-13-6.55-13.4-6.79-2.74,1.49-3.34,1.1,1.12-6.58,2.36-6.1c.75.29,1.17,2.28,1.52,2.45.59.29,14.69,4.6,14.69,4.6Z" style="fill:#FA9805"></path><path d="M167.87,84.68s1.8-3,1.8-5.12" style="fill:#263238"></path><path d="M187.15,106.13s-13.8,4.55-14.27,4.68-.89,3-1.58,3.14-3.87-5.45-2.65-6c.73-.32,2.44.79,2.81.66.62-.21,13.64-7.14,13.64-7.14Z" style="fill:#FA9805"></path><path d="M171,113.44s-.81-3.37-2.35-4.89" style="fill:#263238"></path><path d="M199.77,115s-6.54,13-6.78,13.4,1.48,2.74,1.1,3.34-6.58-1.12-6.11-2.36c.29-.75,2.28-1.17,2.45-1.52.3-.59,4.6-14.69,4.6-14.69Z" style="fill:#FA9805"></path><path d="M193.49,131.58s-3-1.8-5.11-1.8" style="fill:#263238"></path><path d="M214.94,112.3s4.55,13.8,4.68,14.27,3,.89,3.14,1.58-5.44,3.87-6,2.65c-.33-.73.78-2.44.66-2.81-.21-.62-7.15-13.64-7.15-13.64Z" style="fill:#FA9805"></path><path d="M222.25,128.48s-3.36.81-4.89,2.35" style="fill:#263238"></path><path d="M228.83,101.76c-3.6,15.36-18.82,20.32-30.24,17.64a25.88,25.88,0,0,1-17.17-13.15,23.23,23.23,0,0,1-2-16.07c3.17-13.49,13.86-23,29.8-19.21a28.11,28.11,0,0,1,11.17,5.25C228.18,82.38,231.07,92.24,228.83,101.76Z" style="fill:#FA9805"></path><path d="M228.83,101.76c-3.6,15.36-18.82,20.32-30.24,17.64a25.88,25.88,0,0,1-17.17-13.15c6.25,4.68,17.77,11,29.31,5.53,15.91-7.54,15.89-25.07,9.69-35.56C228.18,82.38,231.07,92.24,228.83,101.76Z" style="opacity:0.1"></path><path d="M222.4,97.19V91.42l.64.11,10.73,1.63c.54.09,2.28-2.68,3.07-2.52.36.08.7,1.6.83,3.25.16,2,0,4.17-.83,4.17s-2.16-1.94-2.6-2C233.5,96,222.4,97.19,222.4,97.19Z" style="fill:#FA9805"></path><path d="M237,91.32s-.7,3.86.19,6.15Z" style="fill:#263238"></path><path d="M223,91.53l10.73,1.63c.54.09,2.28-2.68,3.07-2.52.36.08.7,1.6.83,3.25a4.34,4.34,0,0,0-.68-1.54.44.44,0,0,0-.17-.12c-.2-.12-.41-.06-.63.14-.6.53-1.33,1.79-1.94,1.83S223.36,91.63,223,91.53Z" style="opacity:0.1"></path><path d="M219.28,83.41l-4.07-4.07.21-.16,0,0c1.44-1.06,8.6-6.33,9-6.62s-.28-3.52.4-4c.45-.3,3.27,1.78,4.63,3.47.62.77.94,1.44.6,1.78-.63.64-2.9.17-3.23.45C226.3,74.73,219.28,83.41,219.28,83.41Z" style="fill:#FA9805"></path><path d="M225.42,69s2.23,3.22,4.48,4.21Z" style="fill:#263238"></path><path d="M215.46,79.15c1.44-1.06,8.6-6.33,9-6.62s-.28-3.52.4-4c.45-.3,3.27,1.78,4.63,3.47A9.91,9.91,0,0,0,227,70.49a1.86,1.86,0,0,0-.56-.16c-.26,0-.44,0-.49.14-.21.65.28,2.06-.1,2.71S216.16,78.78,215.46,79.15Z" style="opacity:0.1"></path><path d="M207.33,75.87h-5.76v0c.1-.64,1.66-10.8,1.73-11.34s-2.68-2.29-2.52-3.07,6.33-1.4,7.29-.32a.5.5,0,0,1,.13.32c0,.9-1.94,2.16-2,2.59C206.15,64.78,207.33,75.87,207.33,75.87Z" style="fill:#FA9805"></path><path d="M201.46,61.31s3.86.7,6.15-.18Z" style="fill:#263238"></path><path d="M201.57,75.84c.1-.64,1.66-10.8,1.73-11.34s-2.68-2.29-2.52-3.07,6.33-1.4,7.29-.32a5.55,5.55,0,0,0-4.5.14,2.91,2.91,0,0,0-.47.27c-.24.17-.36.34-.34.47.15.64,1.49,1.64,1.43,2.57S201.73,75.23,201.57,75.84Z" style="opacity:0.1"></path><path d="M182.66,73.79c-.24-.33-2,0-3.1-.11a1.12,1.12,0,0,1-.86-.27c-.44-.67,4.18-6.31,5.24-5.25.65.64.17,2.9.45,3.24s3.78,3.21,6.36,5.31l0,0L193.54,79l-4.07,4.08S183,74.24,182.66,73.79Z" style="fill:#FA9805"></path><path d="M179.1,72.85s3.23-2.24,4.22-4.48Z" style="fill:#263238"></path><path d="M179.56,73.68a1.12,1.12,0,0,1-.86-.27c-.44-.67,4.18-6.31,5.24-5.25.65.64.17,2.9.45,3.24s3.78,3.21,6.36,5.31c-2.67-1.49-7-4.25-7.17-4.64s-.24-2-.94-2.11a1,1,0,0,0-.47.13,7.48,7.48,0,0,0-1.47,1,9.64,9.64,0,0,0-1.3,1.39,1.28,1.28,0,0,0-.14.21c-.17.27-.24.49-.16.62A.83.83,0,0,0,179.56,73.68Z" style="opacity:0.1"></path><path d="M171.56,97.49c-.19,0-.37-.5-.52-1.16-.48-2.1-.63-6.26.52-6.26.91,0,2.18,1.94,2.61,2s6-.51,9.36-.85h0l2.46-.25V96.7L174.64,95C174.09,94.88,172.35,97.65,171.56,97.49Z" style="fill:#FA9805"></path><path d="M171.45,96.81s.7-3.86-.19-6.15Z" style="fill:#263238"></path><path d="M171,96.33c-.48-2.1-.63-6.26.52-6.26.91,0,2.18,1.94,2.61,2s6-.51,9.36-.85c-3.1.62-9.12,1.82-9.38,1.74s-1.91-1.56-2.44-1.15a.44.44,0,0,0-.12.16,2.8,2.8,0,0,0-.26.83A18.84,18.84,0,0,0,171,96.33Z" style="opacity:0.1"></path><path d="M180.46,117.69c-1.44-1.28-2.72-2.81-2.16-3.37s2.9-.17,3.23-.45c.5-.41,5.68-6.78,7.18-8.64h0c.25-.33.4-.51.4-.51l4.08,4.07-9.27,6.81c-.44.34.28,3.52-.38,4C183.23,119.78,181.77,118.84,180.46,117.69Z" style="fill:#FA9805"></path><path d="M183,119.16s-2.23-3.22-4.47-4.21Z" style="fill:#263238"></path><path d="M180.46,117.69c-1.44-1.28-2.72-2.81-2.16-3.37s2.9-.17,3.23-.45c.5-.41,5.68-6.78,7.18-8.64h0s-6.12,9.64-6.64,9.71-2.58-.12-2.66.53a.82.82,0,0,0,.07.41A9.55,9.55,0,0,0,180.46,117.69Z" style="opacity:0.1"></path><path d="M200.21,126.7c0-.48.55-1.06,1.06-1.57s.89-.83.91-1c.07-.75-1.1-11.84-1.1-11.84h5.76l-.36,2.34v0c-.5,3.22-1.33,8.61-1.38,9-.08.56,2.68,2.3,2.53,3.08S200.21,128.21,200.21,126.7Z" style="fill:#FA9805"></path><path d="M207,126.81s-3.86-.7-6.15.19Z" style="fill:#263238"></path><path d="M200.21,126.7c0-.48.55-1.06,1.06-1.57a10.84,10.84,0,0,0-.05,1.42.39.39,0,0,0,.16.26,1,1,0,0,0,.36.16,6.25,6.25,0,0,0,2.74-.08,3.44,3.44,0,0,0,.81-.28h0c.19-.1.3-.21.3-.33,0-.73-1.57-2-1.41-3.09.12-.75,1.51-5.77,2.29-8.56-.5,3.22-1.33,8.61-1.38,9-.08.56,2.68,2.3,2.53,3.08S200.21,128.21,200.21,126.7Z" style="opacity:0.1"></path><path d="M224.46,120c-.65-.64-.17-2.9-.45-3.24-.48-.57-9.15-7.59-9.15-7.59l4.08-4.07s.25.33.64.89h0l6.15,8.37c.34.43,3.52-.29,4,.38.23.34-.88,2-2.15,3.38h0C226.34,119.41,225,120.49,224.46,120Z" style="fill:#FA9805"></path><path d="M229.3,115.28s-3.22,2.23-4.21,4.48Z" style="fill:#263238"></path><path d="M227.56,118.1a6.26,6.26,0,0,0,.65-1.65,1.17,1.17,0,0,0,0-.36c0-.33-.14-.56-.45-.61-.84-.14-2.39.38-2.88,0s-5.14-9.16-5.33-9.51l6.15,8.37c.34.43,3.52-.29,4,.38C229.94,115.06,228.83,116.72,227.56,118.1Z" style="opacity:0.1"></path><g style="opacity:0.1"><path d="M198.87,109.81c-.25.54-1.17.64-2.06.23s-1.42-1.18-1.17-1.71,1.17-.64,2.06-.23S199.12,109.28,198.87,109.81Z"></path><path d="M198.27,111.73a6,6,0,0,1-3.52-1.68,1.86,1.86,0,0,1-.57-2.07c.37-1,1.27-.92,2.14-1,.05,0,.06-.08,0-.09-1.49-.17-3.27.45-3,2.28.32,2.15,3,3,4.91,2.91C198.43,112.06,198.48,111.76,198.27,111.73Z"></path><path d="M208,80.14c-.06.59-1.18,1-2.49.81s-2.32-.74-2.26-1.32,1.18-.95,2.49-.81S208.06,79.56,208,80.14Z"></path><path d="M204.08,81.88a5.17,5.17,0,0,1-1.74-1.09,1.45,1.45,0,0,1,.13-2.15,4.47,4.47,0,0,1,3.51-.92.06.06,0,1,0,0-.11c-1.46-.27-3.79-.1-4.64,1.33-1.1,1.85,1.26,2.84,2.68,3.17C204.16,82.14,204.2,81.93,204.08,81.88Z"></path><path d="M219.34,94c0,.59-.82,1-1.81,1s-1.76-.52-1.75-1.11.83-1,1.81-1S219.36,93.38,219.34,94Z"></path><path d="M217.38,96.34A7.56,7.56,0,0,1,214.63,95c-1.4-1.5.76-2.41,1.94-2.76a.05.05,0,0,0,0-.1c-1.27.11-3.23.9-3,2.5s2.42,2.26,3.75,2A.16.16,0,0,0,217.38,96.34Z"></path><path d="M190.62,95.51c.09.44-.44.93-1.19,1.09s-1.42-.09-1.51-.54.43-.94,1.18-1.09S190.53,95.06,190.62,95.51Z"></path><path d="M189.55,97.64a5.89,5.89,0,0,1-2.31-.55c-1.32-.89.15-2,1-2.43,0,0,0-.09,0-.07-.95.31-2.29,1.24-1.8,2.41s2.23,1.27,3.2.87A.12.12,0,0,0,189.55,97.64Z"></path><path d="M226.21,98.47c.12.72-.75,1.48-2,1.69s-2.29-.21-2.41-.93.75-1.48,2-1.69S226.08,97.74,226.21,98.47Z"></path><path d="M221.89,97.26s0-.08,0-.05c-1.14.86-2.73,2.26-1.59,3.8a3.43,3.43,0,0,0,4.3.68.13.13,0,0,0-.08-.23,5.79,5.79,0,0,1-3.11-.4C219.51,100.12,220.81,98.22,221.89,97.26Z"></path></g><path d="M153.24,196.89,159.88,181c.3-.71-2.78-4-2.29-5s10.43.58,9.91,2.6c-.32,1.21-3.35,2.22-3.55,2.79-.35,1-3,17.48-3,17.48Z" style="fill:#FA9805"></path><path d="M158.53,176.13s4.91,2.29,8.28,1.91" style="fill:#263238"></path><path d="M153.24,196.89,159.88,181c.3-.71-2.78-4-2.29-5s10.43.58,9.91,2.6c-.32,1.21-3.35,2.22-3.55,2.79-.35,1-3,17.48-3,17.48Z" style="opacity:0.1"></path><path d="M130.45,202.84s-6.23-15.19-6.52-15.91-4.79-.86-5.16-1.91,7.8-7,8.85-5.17c.64,1.08-.79,3.94-.54,4.48.44.94,10.24,14.49,10.24,14.49Z" style="fill:#FA9805"></path><path d="M119.51,184.42s5.09-1.85,7.2-4.51" style="fill:#263238"></path><path d="M130.45,202.84s-6.23-15.19-6.52-15.91-4.79-.86-5.16-1.91,7.8-7,8.85-5.17c.64,1.08-.79,3.94-.54,4.48.44.94,10.24,14.49,10.24,14.49Z" style="opacity:0.1"></path><path d="M118.53,223.16l-15.85-6.64c-.71-.3-4,2.78-5,2.3s.59-10.44,2.6-9.91c1.22.31,2.23,3.34,2.79,3.55,1,.35,17.48,3,17.48,3Z" style="fill:#FA9805"></path><path d="M97.78,217.87s2.28-4.91,1.9-8.28" style="fill:#263238"></path><path d="M118.53,223.16l-15.85-6.64c-.71-.3-4,2.78-5,2.3s.59-10.44,2.6-9.91c1.22.31,2.23,3.34,2.79,3.55,1,.35,17.48,3,17.48,3Z" style="opacity:0.1"></path><path d="M124.48,246l-15.9,6.51c-.72.29-.86,4.8-1.91,5.16s-7-7.79-5.17-8.85c1.08-.63,3.93.8,4.48.54.93-.44,14.49-10.23,14.49-10.23Z" style="fill:#FA9805"></path><path d="M106.06,256.89s-1.85-5.09-4.5-7.2" style="fill:#263238"></path><path d="M124.48,246l-15.9,6.51c-.72.29-.86,4.8-1.91,5.16s-7-7.79-5.17-8.85c1.08-.63,3.93.8,4.48.54.93-.44,14.49-10.23,14.49-10.23Z" style="opacity:0.1"></path><path d="M144.81,257.87l-6.64,15.85c-.3.71,2.78,4,2.29,5s-10.43-.58-9.91-2.6c.32-1.21,3.35-2.22,3.55-2.79.35-1,3-17.48,3-17.48Z" style="fill:#FA9805"></path><path d="M139.51,278.63s-4.9-2.29-8.27-1.91" style="fill:#263238"></path><path d="M144.81,257.87l-6.64,15.85c-.3.71,2.78,4,2.29,5s-10.43-.58-9.91-2.6c.32-1.21,3.35-2.22,3.55-2.79.35-1,3-17.48,3-17.48Z" style="opacity:0.1"></path><path d="M167.6,251.92s6.23,15.19,6.52,15.91,4.79.86,5.15,1.91-7.79,7-8.84,5.17c-.64-1.08.79-3.94.54-4.48-.44-.94-10.24-14.49-10.24-14.49Z" style="fill:#FA9805"></path><path d="M178.54,270.34s-5.09,1.85-7.2,4.51" style="fill:#263238"></path><path d="M167.6,251.92s6.23,15.19,6.52,15.91,4.79.86,5.15,1.91-7.79,7-8.84,5.17c-.64-1.08.79-3.94.54-4.48-.44-.94-10.24-14.49-10.24-14.49Z" style="opacity:0.1"></path><path d="M179.51,231.6l15.86,6.64c.71.3,4-2.79,5-2.3s-.58,10.43-2.6,9.91c-1.21-.31-2.22-3.34-2.78-3.55-1-.35-17.48-3-17.48-3Z" style="fill:#FA9805"></path><path d="M200.27,236.89s-2.29,4.91-1.9,8.27" style="fill:#263238"></path><path d="M179.51,231.6l15.86,6.64c.71.3,4-2.79,5-2.3s-.58,10.43-2.6,9.91c-1.21-.31-2.22-3.34-2.78-3.55-1-.35-17.48-3-17.48-3Z" style="opacity:0.1"></path><path d="M173.57,208.8l15.9-6.51c.71-.29.86-4.8,1.91-5.16s7,7.79,5.17,8.85c-1.08.63-3.93-.8-4.48-.54-.94.44-14.49,10.23-14.49,10.23Z" style="fill:#FA9805"></path><path d="M192,197.87s1.85,5.08,4.5,7.19" style="fill:#263238"></path><path d="M173.57,208.8l15.9-6.51c.71-.29.86-4.8,1.91-5.16s7,7.79,5.17,8.85c-1.08.63-3.93-.8-4.48-.54-.94.44-14.49,10.23-14.49,10.23Z" style="opacity:0.1"></path><path d="M149.21,195.24s5.33-22.23,5.54-23-3.26-3.65-2.89-4.71,10.48-.67,10.2,1.4c-.17,1.25-3.07,2.62-3.21,3.21-.23,1-1.72,24.16-1.72,24.16Z" style="fill:#FA9805"></path><path d="M152.82,167.54s5.17,1.69,8.48.9" style="fill:#263238"></path><path d="M127,204.81s-12-19.49-12.33-20.16-4.88-.28-5.37-1.29,6.94-7.88,8.2-6.22c.77,1-.31,4,0,4.54.55.88,15.86,18.3,15.86,18.3Z" style="fill:#FA9805"></path><path d="M109.91,182.67s4.85-2.46,6.64-5.36" style="fill:#263238"></path><path d="M118,227.32S95.75,222,95,221.77s-3.65,3.26-4.71,2.89-.67-10.48,1.41-10.2c1.24.17,2.61,3.07,3.2,3.21,1,.23,24.16,1.73,24.16,1.73Z" style="fill:#FA9805"></path><path d="M90.27,223.71s1.69-5.17.91-8.49" style="fill:#263238"></path><path d="M127.54,249.58s-19.48,11.95-20.16,12.32-.28,4.89-1.29,5.38-7.88-6.94-6.22-8.21c1-.76,4,.32,4.54,0,.88-.55,18.3-15.86,18.3-15.86Z" style="fill:#FA9805"></path><path d="M105.4,266.61s-2.46-4.85-5.36-6.64" style="fill:#263238"></path><path d="M150.05,258.55s-5.33,22.23-5.54,23,3.25,3.66,2.89,4.71-10.48.67-10.2-1.4c.16-1.25,3.06-2.62,3.2-3.21.24-1,1.73-24.16,1.73-24.16Z" style="fill:#FA9805"></path><path d="M146.44,286.25s-5.17-1.69-8.49-.9" style="fill:#263238"></path><path d="M172.31,249s11.95,19.49,12.32,20.17,4.89.28,5.38,1.28-6.94,7.89-8.21,6.22c-.76-1,.32-4,0-4.53-.55-.88-15.86-18.31-15.86-18.31Z" style="fill:#FA9805"></path><path d="M189.34,271.12s-4.85,2.46-6.64,5.36" style="fill:#263238"></path><path d="M181.28,226.48s22.23,5.33,23,5.54,3.65-3.26,4.7-2.89.67,10.48-1.4,10.2c-1.25-.17-2.62-3.07-3.21-3.21-1-.23-24.16-1.72-24.16-1.72Z" style="fill:#FA9805"></path><path d="M209,230.09s-1.7,5.17-.91,8.48" style="fill:#263238"></path><path d="M171.72,204.21s19.48-11.94,20.16-12.32.28-4.88,1.28-5.37,7.89,6.93,6.22,8.2c-1,.77-4-.32-4.53,0-.88.55-18.3,15.87-18.3,15.87Z" style="fill:#FA9805"></path><path d="M193.86,187.18s2.45,4.85,5.36,6.64" style="fill:#263238"></path><path d="M187.52,235.61c-4.9,20.89-24.74,35.09-46,30.11-12.74-3-23.19-10.24-28.25-21-3.36-7.15-4.33-15.85-2-25.87,5.87-25.07,27.66-35.69,48.43-30.81a35.73,35.73,0,0,1,21.08,13.55C188.18,211.49,190.08,224.67,187.52,235.61Z" style="fill:#FA9805"></path><path d="M187.52,235.61c-4.9,20.89-24.74,35.09-46,30.11-12.74-3-23.19-10.24-28.25-21,10.44,7.73,29.31,17.87,48.2,8.92,23.13-11,25.92-34.67,19.33-52.05C188.18,211.49,190.08,224.67,187.52,235.61Z" style="opacity:0.1"></path><path d="M145.9,198.25l-8.83,2.08s0-.37-.08-1c-.3-3.69-1.3-16.25-1.37-17s-4.93-2.53-5-3.8c0-.57,2.21-1.64,4.67-2.44,3-1,6.38-1.51,6.68-.24s-2.17,4-2.06,4.7C140.1,181.69,145.9,198.25,145.9,198.25Z" style="fill:#FA9805"></path><path d="M131.65,178.09s6.16-.32,9.35-2.5Z" style="fill:#263238"></path><path d="M137,199.31c-.3-3.69-1.3-16.25-1.37-17s-4.93-2.53-5-3.8c0-.57,2.21-1.64,4.67-2.44a6.61,6.61,0,0,0-2.1,1.6.85.85,0,0,0-.13.3c-.11.35,0,.64.45.92,1,.72,3.21,1.38,3.5,2.31S137,198.79,137,199.31Z" style="opacity:0.1"></path><path d="M125.93,208l-4.77,7.7-.32-.26-.06-.06L107.39,204c-.68-.56-5.28,1.7-6.21.83-.63-.59,1.54-5.66,3.63-8.34,1-1.24,1.87-2,2.51-1.58,1.21.74,1.31,4.38,1.85,4.79C110.1,200.4,125.93,208,125.93,208Z" style="fill:#FA9805"></path><path d="M101.6,203.82s4.12-4.58,4.83-8.38Z" style="fill:#263238"></path><path d="M120.78,215.39,107.39,204c-.68-.56-5.28,1.7-6.21.83-.63-.59,1.54-5.66,3.63-8.34a16.07,16.07,0,0,0-1.47,4.31,3.32,3.32,0,0,0,0,.92c0,.42.14.68.39.7,1.07.09,3-1.18,4.18-.83S120,214.46,120.78,215.39Z" style="opacity:0.1"></path><path d="M118.7,229l2.08,8.82h-.06c-1,.09-17.12,1.37-18,1.45s-2.53,4.93-3.79,5-4.43-9.18-3.11-11.05a.69.69,0,0,1,.43-.3c1.39-.33,4,2.17,4.69,2.08C102.14,234.83,118.7,229,118.7,229Z" style="fill:#FA9805"></path><path d="M98.53,243.27s-.32-6.16-2.5-9.34Z" style="fill:#263238"></path><path d="M120.72,237.85c-1,.09-17.12,1.37-18,1.45s-2.53,4.93-3.79,5-4.43-9.18-3.11-11.05c-.63,2.43.65,5.34,1.83,6.84a4.45,4.45,0,0,0,.59.62c.34.3.64.44.84.35.93-.45,2-2.87,3.41-3.11S119.74,237.84,120.72,237.85Z" style="opacity:0.1"></path><path d="M124.43,267.54c-.42.48.67,3.06.95,4.8a1.78,1.78,0,0,1-.11,1.41c-.86.92-11.17-4.12-9.93-6.13.75-1.23,4.38-1.31,4.8-1.86s3.55-6.95,5.84-11.66c0,0,0,0,0,0,1.38-2.82,2.45-5.05,2.45-5.05l7.71,4.76S125,266.86,124.43,267.54Z" style="fill:#FA9805"></path><path d="M124.26,273.33s-4.58-4.13-8.38-4.83Z" style="fill:#263238"></path><path d="M125.38,272.34a1.78,1.78,0,0,1-.11,1.41c-.86.92-11.17-4.12-9.93-6.13.75-1.23,4.38-1.31,4.8-1.86s3.55-6.95,5.84-11.66c-1.33,4.62-4,12.25-4.52,12.66-.72.56-2.92,1.08-2.88,2.2a1.26,1.26,0,0,0,.36.67,11.74,11.74,0,0,0,2.14,1.87,14.15,14.15,0,0,0,2.59,1.49,3,3,0,0,0,.37.14c.48.16.84.18,1,0A1.35,1.35,0,0,0,125.38,272.34Z" style="opacity:0.1"></path><path d="M164.72,276c0,.3-.63.75-1.6,1.22-3,1.49-9.34,3.22-9.77,1.46-.33-1.39,2.19-4,2.08-4.7s-3-9.08-4.68-14h0c-.74-2.16-1.27-3.68-1.27-3.68l8.82-2.08,1.44,18C159.81,273.05,164.68,274.71,164.72,276Z" style="fill:#FA9805"></path><path d="M163.71,276.39s-6.16.32-9.34,2.51Z" style="fill:#263238"></path><path d="M163.12,277.2c-3,1.49-9.34,3.22-9.77,1.46-.33-1.39,2.19-4,2.08-4.7s-3-9.08-4.68-14c2.07,4.51,6.08,13.3,6.06,13.73s-1.7,3.48-.89,4.15a.65.65,0,0,0,.29.12,4.21,4.21,0,0,0,1.37.1A28.75,28.75,0,0,0,163.12,277.2Z" style="opacity:0.1"></path><path d="M192.42,255.06c-1.43,2.67-3.32,5.17-4.37,4.52-1.21-.75-1.31-4.38-1.85-4.78-.82-.61-12.44-6.24-15.83-7.87h0l-.92-.44,4.77-7.71S187.3,249.93,188,250.49s5.28-1.69,6.21-.84C194.63,250.07,193.72,252.63,192.42,255.06Z" style="fill:#FA9805"></path><path d="M193.77,250.66s-4.13,4.58-4.83,8.38Z" style="fill:#263238"></path><path d="M192.42,255.06c-1.43,2.67-3.32,5.17-4.37,4.52-1.21-.75-1.31-4.38-1.85-4.78-.82-.61-12.44-6.24-15.83-7.87h0s17,5.88,17.28,6.65.74,4,1.76,3.88a1.36,1.36,0,0,0,.61-.25A14.42,14.42,0,0,0,192.42,255.06Z" style="opacity:0.1"></path><path d="M199.1,221.57c-.74.17-1.83-.46-2.79-1.06s-1.6-1.07-1.92-1c-1.16.16-17.72,6-17.72,6l-2.08-8.83s1.54-.11,3.71-.3c0,0,0,0,0,0,5.1-.39,13.66-1.08,14.26-1.14.88-.08,2.55-4.93,3.8-5S201.41,221,199.1,221.57Z" style="fill:#FA9805"></path><path d="M196.83,211.21s.32,6.16,2.51,9.35Z" style="fill:#263238"></path><path d="M199.1,221.57c-.74.17-1.83-.46-2.79-1.06a16.32,16.32,0,0,0,2.19-.44.57.57,0,0,0,.34-.34,1.71,1.71,0,0,0,.11-.61,9.92,9.92,0,0,0-1.12-4.17,5.15,5.15,0,0,0-.71-1.13v0c-.22-.24-.43-.37-.61-.33-1.11.29-2.54,3.14-4.22,3.27-1.19.09-9.37-.23-13.93-.41,5.1-.39,13.66-1.08,14.26-1.14.88-.08,2.55-4.93,3.8-5S201.41,221,199.1,221.57Z" style="opacity:0.1"></path><path d="M180,186.87c-.75,1.23-4.38,1.31-4.8,1.86-.7.94-8.32,16.75-8.32,16.75l-7.71-4.77s.43-.51,1.14-1.31v0l10.59-12.44c.55-.67-1.71-5.28-.84-6.21.44-.47,3.37.63,5.94,2.08h0C178.5,184.19,180.63,185.9,180,186.87Z" style="fill:#FA9805"></path><path d="M171.1,181.16s4.58,4.12,8.38,4.83Z" style="fill:#263238"></path><path d="M176,182.81a9.07,9.07,0,0,0-2.76-.4,1.66,1.66,0,0,0-.56.06c-.5.13-.8.41-.77.91.09,1.34,1.45,3.51,1,4.4s-12.17,11.19-12.64,11.6l10.59-12.44c.55-.67-1.71-5.28-.84-6.21C170.54,180.26,173.47,181.36,176,182.81Z" style="opacity:0.1"></path><g style="opacity:0.1"><path d="M136.7,251.06c-.39.84-1.84,1-3.24.35s-2.23-1.85-1.84-2.7,1.84-1,3.24-.35S137.09,250.21,136.7,251.06Z"></path><path d="M135.76,254.07a9.51,9.51,0,0,1-5.55-2.64,3,3,0,0,1-.89-3.26c.58-1.5,2-1.45,3.37-1.58.08,0,.1-.13,0-.13-2.36-.27-5.15.7-4.72,3.57.5,3.39,4.78,4.81,7.72,4.58C136,254.59,136.09,254.11,135.76,254.07Z"></path><path d="M142,202.87c.13.92-1.44,1.89-3.5,2.17s-3.82-.25-3.94-1.17,1.44-1.89,3.49-2.16S141.9,202,142,202.87Z"></path><path d="M136.7,207a8.09,8.09,0,0,1-3.07-1,2.3,2.3,0,0,1-.61-3.34c1-1.7,3.14-2.43,5-2.72a.09.09,0,0,0,0-.18c-2.33.13-5.82,1.26-6.58,3.78-1,3.24,3,3.86,5.27,3.83C136.93,207.36,136.9,207,136.7,207Z"></path><path d="M170.92,214.56c0,.93-1.3,1.65-2.84,1.61s-2.78-.83-2.76-1.76,1.3-1.65,2.84-1.61S170.94,213.63,170.92,214.56Z"></path><path d="M167.84,218.29c-1.44-.61-3.22-1-4.33-2.16-2.2-2.35,1.19-3.8,3.05-4.35a.08.08,0,1,0,0-.15c-2,.17-5.08,1.41-4.64,3.93s3.8,3.55,5.9,3.2A.25.25,0,0,0,167.84,218.29Z"></path><path d="M126.18,240.65c0,.72-1,1.25-2.23,1.19s-2.14-.69-2.1-1.41,1-1.25,2.23-1.19S126.22,239.93,126.18,240.65Z"></path><path d="M123.72,243.48c-1.1-.5-2.47-.81-3.31-1.76-1.66-1.86,1-2.92,2.45-3.31a.06.06,0,1,0,0-.12c-1.57.1-4,1-3.69,3s2.89,2.83,4.52,2.59A.19.19,0,0,0,123.72,243.48Z"></path><path d="M178.07,241.57c.2,1.14-1.18,2.33-3.07,2.66s-3.59-.33-3.79-1.47,1.18-2.33,3.07-2.66S177.87,240.43,178.07,241.57Z"></path><path d="M171.28,239.66s0-.11-.06-.07c-1.79,1.35-4.3,3.56-2.5,6a5.39,5.39,0,0,0,6.76,1.06.2.2,0,0,0-.13-.36,9.07,9.07,0,0,1-4.89-.62C167.54,244.16,169.58,241.18,171.28,239.66Z"></path></g></g><g id="freepik--Character--inject-119"><path d="M293.56,194.71c1-7.35,7.85-24.33,24-22.31,23,2.88,29.56,46.31,41.85,59.08,22.28,23.13,24.78,47.5,8.32,52.65-18.45,5.78-38.22-13-40.79-56.64-1.61-27.29-10.2-38.8-15.58-37.58s-7.83,8.32-7.83,8.32Z" style="fill:#263238"></path><path d="M294.11,191.93a44.4,44.4,0,0,1,3.82-9.93,26,26,0,0,1,6.84-8.34A17.69,17.69,0,0,1,315,169.84,22.82,22.82,0,0,1,325.76,172a25.69,25.69,0,0,1,8.52,6.83,47.25,47.25,0,0,1,5.79,9.09,95.11,95.11,0,0,1,6.78,20.16,139.43,139.43,0,0,0-8.16-19.44,50.46,50.46,0,0,0-5.84-8.58,24.43,24.43,0,0,0-8-6.26,21.54,21.54,0,0,0-9.82-2.05,16.64,16.64,0,0,0-9.38,3.18,26.65,26.65,0,0,0-6.93,7.59,45.53,45.53,0,0,0-2.57,4.58C295.45,188.66,294.75,190.29,294.11,191.93Z" style="fill:#263238"></path><path d="M325.65,212.48c.56,4.31.63,8.66.87,13s.38,8.65.69,12.95.77,8.59,1.53,12.81A65,65,0,0,0,332,263.58a33.39,33.39,0,0,0,6.35,10.83,36.49,36.49,0,0,0,10.11,7.51,27.31,27.31,0,0,0,12.23,2.94A25.18,25.18,0,0,0,367,284a23.69,23.69,0,0,0,3-1,11.66,11.66,0,0,0,2.82-1.58,16.18,16.18,0,0,1-5.71,3.13,25.19,25.19,0,0,1-6.45,1.28,26.66,26.66,0,0,1-6.61-.44,29.21,29.21,0,0,1-6.32-2.06A34.31,34.31,0,0,1,342,280l-1.33-1-1.29-1a24.17,24.17,0,0,1-2.46-2.29,34.91,34.91,0,0,1-6.83-11.39C327,256,326,247.18,325.66,238.5c-.18-4.35-.17-8.69-.11-13S325.76,216.81,325.65,212.48Z" style="fill:#263238"></path><path d="M292.27,194.93c-.4-2,.6-4.83,1.84-5.41s11.57,1.92,12.81,4.24-2.66,5.24-2.66,5.24Z" style="fill:#FA9805"></path><path d="M410.77,442.94H297l3.21-57.85H407.8C420.58,420.72,410.77,442.94,410.77,442.94Z" style="fill:#263238"></path><path d="M325.64,294.44c.39,26.78-15.68,104.23-30.48,114-13.79,9.12-75.93,17.38-91.53,16.42-18.26-1.13-21.64-44.5-11.47-48,12.69-4.41,64.31-8.59,75.63-13.23,6.51-2.67,21.8-45.14,40.39-83C315.37,266,325.42,279.36,325.64,294.44Z" style="fill: rgb(247, 169, 160);"></path><path d="M205,386.05s-31.58,9.58-33,10.59,0,3,1,4.63a17,17,0,0,0,2.64,2.21c4.31,3.31,11.79,9.31,6.71,13.93-6.67,6.07-23.5-7.4-25.8-9.91a10.72,10.72,0,0,1-1.72-4.17c-1.24-5.31-1.27-13.9,3.52-18.42,6.57-6.21,16-9.39,23.9-12.73Z" style="fill: rgb(247, 169, 160);"></path><path d="M205,386.05s-31.58,9.58-33,10.59,0,3,1,4.63a17,17,0,0,0,2.64,2.21c-7.4,0-15.59-.08-20.81-.15-1.24-5.31-1.27-13.9,3.52-18.42,6.57-6.21,16-9.39,23.9-12.73Z" style="fill:#263238"></path><path d="M231.7,423c-1.93-.08-18.47,1.8-30.93,3.24-6.83-6.88-22.05-19-26.07-22.19-3.85-4.35-14.57-11.44-14.92-11-.67.83-3,3.79-6.15,7.14-4.15,4.43-9.66,9.58-14.44,11.51-2.61,1.05-5,1.15-6.81-.3-3.31-2.61,2.11-10.09,7.76-19.51,7.67-12.83,17.79-28.18,25.74-29.48,11.74-1.91,27.92,5.79,33,7.52s22.7,1.74,22.7,1.74C238.64,395.09,234.28,423.06,231.7,423Z" style="fill: rgb(247, 169, 160);"></path><path d="M172,401.45c-.22-.15-.29,0-.07.23.68.66,3.7,3.68,3.1,4.45-1.05,1.34-11.41.86-15.79,1.41-.23,0-.21.36,0,.32a64.66,64.66,0,0,1,6.82,0c2.14,0,8.67.58,10-1.11C177,405.61,172.92,402,172,401.45Z" style="fill:#263238"></path><path d="M138.9,363.75l31.94,55.85a7.59,7.59,0,0,1-13.18,7.54l-31.94-55.86Z" style="fill:#ebebeb"></path><path d="M147.38,380.34,170.05,420a6.71,6.71,0,0,1-11.65,6.66L135.73,387Z" style="fill:#c7c7c7"></path><rect x="122.01" y="361.93" width="19.94" height="10" transform="translate(-164.71 113.89) rotate(-29.76)" style="fill:#FA9805"></rect><path d="M200.77,426.21c-4.25.5-8,1-10.6,1.39-10.08,1.6-16.2-.78-22.22-4.24s-26.61-.38-20.48-10,28.16-3.86,28.58-6.88c.08-.58-.44-1.45-1.35-2.46C178.72,407.24,193.94,419.33,200.77,426.21Z" style="fill: rgb(247, 169, 160);"></path><path d="M297,409.11c-3.54,3.18-10.16,5.86-18,8.08-22.52,6.36-55.28,9-55.28,9l-8.82-57.5s48.55-4.44,54-7.59,18-36.75,32.57-69.51c3.53-7.9,6.84-13.08,9.86-16,9.48-9.1,16,4.49,16.6,27.5C328.8,333.48,310.68,396.86,297,409.11Z" style="fill:#ebebeb"></path><path d="M232.87,421.23c-1.48-23.1-6.54-47.15-7.12-51.4,0-.2-.35-.14-.31.06.79,4.15,3.59,32.26,7.09,51.42C232.57,421.53,232.88,421.45,232.87,421.23Z" style="fill:#263238"></path><path d="M297,409.11c-3.54,3.18-10.16,5.86-18,8.08l32.37-141.54c9.48-9.1,16,4.49,16.6,27.5C328.8,333.48,310.68,396.86,297,409.11Z" style="fill:#263238"></path><path d="M297.26,400.21l2.85-47.72s-12.84-14.19-10-27c1.43-6.49,23.59-55.87,25.76-57.89,8.72-8.14,23.45-4.89,29.49-.32,33.48,25.3,57.07,79.58,68.4,133Z" style="fill:#FA9805"></path><path d="M311.75,278.62c.63,1.87,1.31,3.72,2.12,5.51a31.07,31.07,0,0,0,2.75,5.16c1.09,1.56,2.36,3.15,4.06,3.76s3.49-.37,4.9-1.58c2.91-2.5,5-5.89,7-9.25a57.33,57.33,0,0,0,2.67-5.24,41.15,41.15,0,0,0,2.13-5.5,48.27,48.27,0,0,1-7.2,16.21,25.39,25.39,0,0,1-3.95,4.54,9.55,9.55,0,0,1-2.65,1.63,4.9,4.9,0,0,1-1.59.33,4.64,4.64,0,0,1-1.62-.28,7.19,7.19,0,0,1-2.57-1.78A14.32,14.32,0,0,1,316,289.7,37.76,37.76,0,0,1,311.75,278.62Z" style="fill:#263238"></path><path d="M416.09,442.94H330.36l4-180s5.32-.12,14.31,6.12,21.7,18.92,36.4,44.54C423.23,380.16,416.09,442.94,416.09,442.94Z" style="fill:#ebebeb"></path><path d="M314.14,269.36,299.27,442.94h-7.45s6.14-89.09,6.06-90-13.11-11.73-10.1-28S312.06,270.84,314.14,269.36Z" style="fill:#ebebeb"></path><path d="M297.88,353a30.42,30.42,0,0,1-9.07-11.23,24.55,24.55,0,0,1-2.08-14.43,64.78,64.78,0,0,1,4-14,99.93,99.93,0,0,1,6.29-13c-1.87,4.43-3.61,8.9-5.18,13.42-.76,2.26-1.53,4.52-2.14,6.83a53.69,53.69,0,0,0-1.51,6.94,24.92,24.92,0,0,0,1.67,13.74A35.52,35.52,0,0,0,297.88,353Z" style="fill:#263238"></path><path d="M334.35,263c1.44,3.3,2.83,6.61,4.23,9.92l4.17,9.95q4.13,10,8.13,20l.25.6-.53.42q-5.37,4.24-10.78,8.41l.18-1.38,10,13.24.33.44-.2.51c-2.89,7.33-5.87,14.63-8.88,21.92-1.51,3.64-3,7.28-4.59,10.9s-3.1,7.25-4.72,10.85c1.26-3.74,2.61-7.45,3.92-11.17s2.69-7.41,4.05-11.11q4.13-11.08,8.41-22.11l.13.95-10-13.22-.59-.79.78-.59q5.43-4.16,10.9-8.25l-.28,1q-3.84-10.08-7.58-20.19L338,273.12C336.75,269.74,335.53,266.36,334.35,263Z" style="fill:#dbdbdb"></path><path d="M314.24,273.68c-1.1,2.77-2.25,5.51-3.41,8.26s-2.29,5.49-3.47,8.22q-3.51,8.22-7.13,16.37l-.24-1c2.59,2.1,5.14,4.23,7.69,6.38l.61.51-.38.7-6.53,12.19.11-.6c.95,6.94,1.82,13.89,2.65,20.85.41,3.48.81,7,1.17,10.45s.73,7,1,10.46c-.67-3.44-1.25-6.9-1.88-10.34s-1.17-6.91-1.73-10.37c-1.11-6.92-2.18-13.84-3.16-20.78l-.05-.31.15-.28,6.51-12.2.23,1.22q-3.79-3.24-7.55-6.53l-.5-.45.27-.59c2.53-5.39,5.08-10.77,7.69-16.12,1.28-2.68,2.61-5.35,3.93-8S312.88,276.33,314.24,273.68Z" style="fill:#dbdbdb"></path><path d="M334.35,265.23c.39,2.16-3.5,19-12.69,22.46-3,1.12-9.84-14.95-9.84-14.95l-.77-1.07-10.86-15,14.1-20.9,2.1-2.87s2.7,4.3,6,9.68c.16.25.31.5.47.77s.38.58.55.87c.51.8,1,1.61,1.51,2.44.38.62.75,1.23,1.12,1.9l1.15,2C330.92,257.19,334.17,264.31,334.35,265.23Z" style="fill: rgb(247, 169, 160);"></path><path d="M322.4,242.59a37.12,37.12,0,0,1-11.35,29.08l-10.86-15,14.1-20.9,2.1-2.87S319.09,237.21,322.4,242.59Z" style="fill:#263238"></path><path d="M265.31,243.63c9.91,30.94,29.56,28.5,36.23,26.36,6-1.95,26.42-9.34,19.76-41.14s-24.17-37-38.25-33.25S255.4,212.69,265.31,243.63Z" style="fill: rgb(247, 169, 160);"></path><path d="M269.51,237.1c.67-.37,1.24-.82,1.87-1.25s1.32-.79,1.66-1.63a1.16,1.16,0,0,0-.53-1.31,2.87,2.87,0,0,0-2.87.43,4.2,4.2,0,0,0-1.9,2.36A1.24,1.24,0,0,0,269.51,237.1Z" style="fill:#263238"></path><path d="M290.65,229.41a20.83,20.83,0,0,1-2.21.38,3.64,3.64,0,0,1-2.33,0,1.15,1.15,0,0,1-.52-1.31,2.86,2.86,0,0,1,2.37-1.67,4.2,4.2,0,0,1,3,.4A1.24,1.24,0,0,1,290.65,229.41Z" style="fill:#263238"></path><path d="M289.67,238.62c0-.08.19,0,.22.13.71,2.09,1.87,4.38,4,4.37.07,0,.1.1,0,.12C291.51,243.77,290,240.72,289.67,238.62Z" style="fill:#263238"></path><path d="M290.71,235.77c3.24-1.5,6,5.09,3,6.48S288,237,290.71,235.77Z" style="fill:#263238"></path><path d="M292.15,235.58c.73.13,1.57.55,2.29.33s1.16-1.2,1.4-2.08c0-.09.11-.06.15,0,.54,1.25.6,2.75-.67,3.5s-2.52-.06-3.37-1.19C291.8,236,291.86,235.52,292.15,235.58Z" style="fill:#263238"></path><path d="M276.49,243c-.05-.07-.12.16-.08.25.93,2,1.66,4.46.11,5.92,0,.05,0,.15.07.11C278.7,248,277.69,244.78,276.49,243Z" style="fill:#263238"></path><path d="M273.77,241.68c-3.38,1.15-.84,7.82,2.29,6.76S276.6,240.72,273.77,241.68Z" style="fill:#263238"></path><path d="M272.54,242.65c-.39.55-.67,1.4-1.28,1.68s-1.53-.19-2.26-.71c-.07-.05-.1,0-.07.12.45,1.28,1.38,2.45,2.69,2.23s1.61-1.61,1.43-3C273,242.72,272.7,242.43,272.54,242.65Z" style="fill:#263238"></path><path d="M295.2,254.7c-.26.7-.43,1.57-1.13,2a5.73,5.73,0,0,1-2.39.51c-.07,0-.11.1,0,.14a3,3,0,0,0,3.06-.11,2.33,2.33,0,0,0,.73-2.51C295.41,254.57,295.24,254.6,295.2,254.7Z" style="fill:#263238"></path><path d="M283.63,250.75s.81,3.23,1.4,4.68c.05.13.43.06.93-.11,0,0,0,0,.06,0a7.42,7.42,0,0,0,5.63-5.26.16.16,0,0,0-.29-.12,11.14,11.14,0,0,1-5.55,4.33c-.26-.35-1.21-5.58-1.45-5.51a13.86,13.86,0,0,0-3,2.07c-1.89-6.69-2.69-13.62-4.67-20.25a.21.21,0,0,0-.42.05c.33,7.33,2.34,15.08,4.11,22C280.61,253.51,283.15,251.23,283.63,250.75Z" style="fill:#263238"></path><path d="M285.63,254.16a9,9,0,0,0,4.25,1.75,4.11,4.11,0,0,0,2.42-.51c1.61-.93,1.21-2.53.52-3.8a9.58,9.58,0,0,0-1.35-1.86A11.77,11.77,0,0,1,285.63,254.16Z" style="fill:#263238"></path><path d="M289.88,255.91a4.11,4.11,0,0,0,2.42-.51c1.61-.93,1.21-2.53.52-3.8C291,252.3,289.54,254.06,289.88,255.91Z" style="fill:#f392b9"></path><path d="M321.13,229.09c-3.53,1.18-16.32-4.73-23.25-21.29,0,0,7.25,14.44,9.26,16.18s-7.17-3.33-12.95-16.61c0,0-5.3,8.35-10.93,12.66s-9.55,5.81-10.19,5.53,7.53-6.95,8.89-10.87c0,0-13.75,14.6-21.3,18.3-.87.43-9.35-17.66-.45-30.33s31.35-11.8,38.46-8.9c0,0,6.36-1.54,16.46,4.75S324.94,227.83,321.13,229.09Z" style="fill:#263238"></path><path d="M317.14,232.8s2.63-12.09,7.85-11.53,6,16.17,1.77,20.11a5.5,5.5,0,0,1-7.93.12Z" style="fill: rgb(247, 169, 160);"></path><path d="M325.1,225.75c.07,0,.14.06.08.12-2.9,2.88-3.39,6.89-3.27,10.79.5-1.73,1.62-3,3.87-2.52.12,0,.09.21,0,.23a3.36,3.36,0,0,0-3,2.52,16.13,16.13,0,0,0-.49,3.46c0,.38-.66.45-.69,0a.28.28,0,0,1,0-.09C319.65,235.88,320.5,228.2,325.1,225.75Z" style="fill:#263238"></path><path d="M416.09,442.94H396.2L348.65,269.08c9,6.26,21.7,18.92,36.4,44.54C423.23,380.16,416.09,442.94,416.09,442.94Z" style="fill:#263238"></path><path d="M317.53,442.76H307.41s-2.41-37.24-25-39.1c-11.92-1-22.92,7.5-31.47,17,8.47-9.62,23.49-22,37.82-22C310.39,398.67,317.53,442.76,317.53,442.76Z" style="fill:#263238"></path><polygon points="250.76 327.43 266.27 295.8 271.53 302.9 258.22 327.43 250.76 327.43" style="fill:#263238"></polygon><rect x="248.82" y="312.24" width="37.94" height="9.1" transform="translate(-137.36 405.82) rotate(-62.19)" style="fill:#455a64"></rect><polygon points="262.96 335.69 267.78 334.38 282.36 307.39 280.66 302.14 262.96 335.69" style="fill:#37474f"></polygon><rect x="215.74" y="329.81" width="6.55" height="24.02" rx="2.65" transform="translate(157.44 -59.45) rotate(23.92)" style="fill:#37474f"></rect><rect x="234.19" y="340.89" width="6.55" height="24.02" rx="2.65" transform="translate(163.51 -65.98) rotate(23.92)" style="fill:#37474f"></rect><rect x="221.38" y="336.65" width="9.1" height="30.94" rx="3.59" transform="translate(162.19 -61.36) rotate(23.92)" style="fill:#37474f"></rect><rect x="256.59" y="244.59" width="9.1" height="30.94" rx="3.59" transform="translate(127.9 -83.56) rotate(23.92)" style="fill:#37474f"></rect><rect x="270.2" y="250.63" width="9.1" height="30.94" rx="3.59" transform="translate(131.51 -88.55) rotate(23.92)" style="fill:#37474f"></rect><path d="M219.8,331.4l32.58-67.83s9.3.32,25.4,11.49l-34.6,67.67A64.86,64.86,0,0,1,219.8,331.4Z" style="fill:#37474f"></path><path d="M249.66,348.39S219,339.34,210.52,331l2.69-6a82.63,82.63,0,0,1,39.13,17.36Z" style="fill:#455a64"></path><path d="M279,277s-12.15-10.36-28.64-13.47l2.82-6c17.43-.3,28.64,13.47,28.64,13.47Z" style="fill:#455a64"></path><path d="M256.33,317.79s-13.43-8.89-25-11.76a1.25,1.25,0,0,1-.64-1.76l3.16-6.71a1.43,1.43,0,0,1,1.76-.64c15.58,3.95,25,11.76,25,11.76a1.33,1.33,0,0,1,.64,1.76l-3.16,6.71A1.33,1.33,0,0,1,256.33,317.79Z" style="fill:#455a64"></path><path d="M278,309.52l2.43-1.08s33.88,15,32.12,55.42c-1.16,26.76-20.68,45.25-20.68,45.25s23.74-30.63,14.86-59S278,309.52,278,309.52Z" style="fill:#455a64"></path><path d="M309.78,366.64c-1.95,24.68-17.95,42.47-17.95,42.47H267.54c-11.13-14.65-28.86-23.21-28.86-23.21l19.42,3.4,1.73-.89,3.41-1.75s4.92,7.53,12.32,7.36a11.56,11.56,0,0,0,4.39-1c8.64-3.74,13-26.69,9-40.4s-21.76-22.18-21.76-22.18L278,309.52C297.3,318.19,311.72,342,309.78,366.64Z" style="fill:#37474f"></path><path d="M275.57,394s-6.36,2.16-15.74-5.62l3.41-1.75s4.92,7.53,12.32,7.36Z" style="fill:#455a64"></path><path d="M307.41,442.76H235c1.81-2.83,4.95-7.92,9.1-13.52l.27-.36c.11-.15.22-.29.32-.44a3.4,3.4,0,0,0,.21-.28l.63-.82.18-.23c.22-.28.44-.58.67-.86.37-.47.77-1,1.22-1.52l.94-1.14c.5-.6,1-1.22,1.59-1.87.29-.34.58-.67.9-1,8.55-9.54,19.55-18,31.47-17C305,405.52,307.41,442.76,307.41,442.76Z" style="fill:#455a64"></path><rect x="184.02" y="377.66" width="71.46" height="9.05" transform="translate(32.57 -16.97) rotate(4.77)" style="fill:#263238"></rect><rect x="255.33" y="381.3" width="15.84" height="9.05" transform="translate(33.03 -20.57) rotate(4.77)" style="fill:#37474f"></rect><circle cx="246.81" cy="436.79" r="2.45" style="fill:#263238"></circle><path d="M300.18,436.79a2.45,2.45,0,1,1-2.45-2.45A2.45,2.45,0,0,1,300.18,436.79Z" style="fill:#263238"></path><path d="M280,411.57a2.46,2.46,0,1,1-2.46-2.46A2.46,2.46,0,0,1,280,411.57Z" style="fill:#263238"></path><circle cx="258.69" cy="279.99" r="2.45" style="fill:#263238"></circle><path d="M239.92,325a2.46,2.46,0,1,1-2.45-2.45A2.45,2.45,0,0,1,239.92,325Z" style="fill:#263238"></path><circle cx="282.36" cy="325.84" r="2.45" style="fill:#263238"></circle><circle cx="264.02" cy="396.7" r="2.45" style="fill:#263238"></circle><path d="M369,282C416.6,317.43,465,399.85,447,411.49c-16.38,10.63-73.65,13.39-97.66,11.89-7.05-.44-2.52-55.27,5-54.81,9.11.56,32.05-.11,32.94-.33,1.91-.47-30.33-58.37-40.81-79.75C331.93,258.7,351.11,268.71,369,282Z" style="fill: rgb(247, 169, 160);"></path><path d="M282.54,368.63c-2.28,5.39,2.34,9.32,2.34,9.32a12.51,12.51,0,0,0-4.87,7c-1.1,5,6.3,8.95,6.3,8.95a15.44,15.44,0,0,0-4,8.16c-.57,4.92,6.33,10,6.33,10a13.5,13.5,0,0,0,1,9.36c4.21,7.59,17.43,8.27,25.84,8.79s32.72-5.87,37.48-6.62l3.8-53.9s-37-13.06-47-12.27C301.46,358,285.1,362.57,282.54,368.63Z" style="fill: rgb(247, 169, 160);"></path><path d="M285.31,377.11c8.76-2.85,17.88-3,27-3.58a.16.16,0,0,1,0,.31c-9.06.52-17.9,2.83-26.92,3.7A.22.22,0,0,1,285.31,377.11Z" style="fill:#263238"></path><path d="M286.53,393.17a24.3,24.3,0,0,1,6.26-.55q3.33-.06,6.67,0c4.45.07,8.91.23,13.35.53.2,0,.23.32,0,.32-4.44-.06-8.88,0-13.32.08-2.22.06-4.44.15-6.66.25a28.66,28.66,0,0,1-6.28,0A.32.32,0,0,1,286.53,393.17Z" style="fill:#263238"></path><path d="M288.87,412c1.71-.57,3.87-.25,5.65-.19l6.09.18c4.06.1,8.12.2,12.17.15.21,0,.23.32,0,.32-4.12.06-8.24.19-12.37.21-2,0-4.05,0-6.07,0-1.73,0-3.88.18-5.51-.47A.12.12,0,0,1,288.87,412Z" style="fill:#263238"></path><path d="M385,366.91c2.35-2.83-30.39-56.92-40.75-81s-3.13-24.43,21.3-7.42,68,63,84,111.12c5,15,10.07,25.52-25.75,31.09C387,426.39,360.85,426,360.85,426l-2-57.83S384.3,367.73,385,366.91Z" style="fill:#ebebeb"></path><path d="M373.37,423.37c.69-23.13-2.09-47.55-2.27-51.85,0-.2-.34-.16-.32,0,.4,4.2.56,32.45,2.25,51.85C373.05,423.64,373.37,423.59,373.37,423.37Z" style="fill:#263238"></path><path d="M412.9,366.6a47.86,47.86,0,0,0-7-.22c-2.16,0-4.33,0-6.49-.05h-2.8l.25-.07,3.56-1.16c1.18-.39,2.34-.87,3.55-1.18.2-.05.13-.37-.06-.31-1.19.37-2.41.57-3.62.86s-2.5.61-3.75.93c-1.09.27-2.17.61-3.26.93-2.08,0-4.17,0-6.26.1-1.58-3.85-3.68-7.57-5.58-11.27q-3-5.81-6.13-11.53t-6.42-11.11c-1.11-1.83-2.88-4.61-4-6.43s-.74-.59.29,1.41,1.93,3.8,2.89,5.71q2.9,5.7,5.84,11.4c2,3.79,3.93,7.58,5.88,11.38,1.79,3.47,3.44,7.09,5.37,10.49-4.26.16-8.51.4-12.77.62-2.18.1-4.35.23-6.52.36-2.33.13-4.72.55-7,.54-.21,0-.23.33,0,.31,2.29-.13,4.68.16,7,.17s4.33,0,6.49,0c4.59,0,9.17,0,13.75-.08s9-.36,13.52-.61c2.26-.13,4.52-.29,6.78-.41a46.47,46.47,0,0,0,6.56-.57A.11.11,0,0,0,412.9,366.6Z" style="fill:#263238"></path><path d="M432.18,419.24c-19.38,2.67-54.47,6.06-70.9,6.7a.16.16,0,1,0,0,.31,280.61,280.61,0,0,0,71-6.27A.38.38,0,0,0,432.18,419.24Z" style="fill:#263238"></path></g></svg>