<svg xmlns="http://www.w3.org/2000/svg" viewBox="0 0 750 500"><g id="freepik--speech-bubbles--inject-76"><path d="M107.8,169.41a45.39,45.39,0,0,0,27.35-7.5l20.06,4.89-8.74-15.54a45.61,45.61,0,1,0-38.67,18.15Z" style="fill:#fff"></path><path d="M107.8,169.41l-.79-.1-2.33-.25c-.51-.07-1.09-.1-1.71-.21l-2-.42c-.74-.16-1.53-.3-2.37-.51l-2.64-.82a44.24,44.24,0,0,1-12.61-6.45,18.59,18.59,0,0,1-1.66-1.3L80,158a18.26,18.26,0,0,1-1.63-1.55l-1.64-1.64c-1.07-1.16-2-2.45-3.11-3.72L72.17,149a23,23,0,0,1-1.38-2.18,42.65,42.65,0,0,1-2.4-4.78l-1.07-2.55c-.27-.89-.55-1.79-.83-2.69-.15-.46-.29-.91-.43-1.37s-.2-.94-.3-1.42c-.2-1-.39-1.91-.59-2.88s-.22-2-.33-3c0-.5-.1-1-.16-1.51s0-1,0-1.53V122c0-1,.19-2.09.28-3.14.06-.53.11-1.06.16-1.59s.2-1,.3-1.57l.66-3.18a49.18,49.18,0,0,1,5.25-12.34,47.25,47.25,0,0,1,9.16-10.69c1-.75,1.84-1.58,2.84-2.27l3-2c1.06-.62,2.16-1.19,3.25-1.78.27-.15.54-.31.82-.44l.86-.36L93,81.84a44.76,44.76,0,0,1,30.36-1.29l1.44.45.73.22.69.29L129,82.68l.69.3.66.35,1.31.72a24.35,24.35,0,0,1,2.58,1.49l2.46,1.66c.82.54,1.53,1.23,2.3,1.84a44.76,44.76,0,0,1,4.26,4,44.68,44.68,0,0,1,12.07,30.31V126c-.05.87-.09,1.74-.19,2.6a44.62,44.62,0,0,1-.81,5.07,45.57,45.57,0,0,1-8,17.5l-.08.1.06.11,8.77,15.54.19-.26-20.07-4.86h-.06l-.05,0a45.42,45.42,0,0,1-19.71,7.29,52.42,52.42,0,0,1-5.62.35l-1.45,0h-.49l.49,0,1.45.05a48.38,48.38,0,0,0,5.63-.27,45.53,45.53,0,0,0,19.86-7.2h-.11l20,4.93.39.1-.2-.35c-2.7-4.83-5.6-10-8.72-15.56v.22a45.89,45.89,0,0,0,8.12-17.65,43,43,0,0,0,.82-5.12c.11-.86.15-1.74.21-2.62s0-1.77,0-2.66a45.18,45.18,0,0,0-16.46-34.66c-.78-.61-1.5-1.31-2.33-1.86l-2.48-1.67a23.29,23.29,0,0,0-2.61-1.51l-1.33-.73-.66-.36-.7-.3-2.8-1.18-.71-.29-.73-.23-1.46-.45A45.35,45.35,0,0,0,92.82,81.4l-1.74.74-.87.37c-.29.13-.56.29-.83.44-1.1.6-2.21,1.18-3.28,1.8L83,86.82c-1,.71-1.9,1.54-2.86,2.3a47.48,47.48,0,0,0-9.24,10.81,50.06,50.06,0,0,0-5.28,12.46Q65.31,114,65,115.6c-.1.54-.23,1.06-.3,1.59l-.16,1.6c-.09,1.07-.23,2.12-.27,3.17s0,2.09,0,3.12c0,.52,0,1,0,1.55s.11,1,.16,1.52c.11,1,.19,2,.34,3l.6,2.9c.1.47.18.95.31,1.42s.29.92.43,1.38l.85,2.72c.37.86.73,1.72,1.09,2.57a40.69,40.69,0,0,0,2.43,4.8,19.86,19.86,0,0,0,1.4,2.19l1.42,2.11c1.08,1.27,2.07,2.57,3.15,3.72l1.65,1.65a18.52,18.52,0,0,0,1.65,1.56l1.7,1.39a18.57,18.57,0,0,0,1.68,1.31,43.84,43.84,0,0,0,12.71,6.4l2.65.81c.85.2,1.65.34,2.39.49l2,.4c.63.1,1.21.13,1.72.18l2.34.21Z" style="fill:#263238"></path><path d="M82.14,137l1.15,2.29s5.34-2.45,8-2.75a21.77,21.77,0,0,0,6.42,6.33,20.87,20.87,0,0,1-1.33,5.52l2.37,1a15.72,15.72,0,0,1,2.81-4.57,20.27,20.27,0,0,0,8.53,1.43c.59,1.63,1.92,5.53,2,7.84l2.57-.08s0-6.26.95-8.68a21.67,21.67,0,0,0,8-4.45,20.77,20.77,0,0,1,4.3,3.16l1.81-1.83a15.41,15.41,0,0,1-3.22-4.42,21.43,21.43,0,0,0,3.34-6.31c1.63-.11,5.94-.34,8.24.24l.63-2.49s-5.58-1.63-7.83-3.15a21.64,21.64,0,0,0-.39-5.76,20.6,20.6,0,0,1,4.89-2.13l-.67-2.48a15.15,15.15,0,0,1-5.49.54,21.66,21.66,0,0,0-3.83-6c.49-1,2.71-5.51,4.54-7.38L128.1,101s-4.9,4.65-7.2,5.4a21.14,21.14,0,0,0-5.07-2.35,21.17,21.17,0,0,1,.54-5.71l-2.46-.63s-1,3.77-2.51,5.44a21.7,21.7,0,0,0-6.35.32s-3.44-4.88-4.26-7.68l-2.43.69s1.67,6.72,1.1,9a21.47,21.47,0,0,0-4.11,2.77,21.45,21.45,0,0,1-4.76-3.37l-1.78,1.8s2.79,2.68,3.38,4.87A21.64,21.64,0,0,0,89,117.34c-.77.06-6.18.44-8.82-.22l-.62,2.45s6.53,1.91,8.24,3.51a21.47,21.47,0,0,0,1,8.36C88.17,132.14,84.53,135.78,82.14,137Zm33.12-33.1-.08,0Z" style="fill:#FA9805"></path><g style="opacity:0.2"><path d="M93.59,125.8c.89-.24,1.13-2,1.93-4.37.08-.29.22-.59.32-.9s.26-.62.38-.94a19,19,0,0,1,1-2,14.75,14.75,0,0,1,3-3.66,15,15,0,0,1,4.07-2.42,20.92,20.92,0,0,1,2.07-.69l1-.24c.32,0,.64-.14.94-.18,2.42-.44,4.24-.4,4.61-1.25a.85.85,0,0,0-.06-.72,2.75,2.75,0,0,0-.72-.9,8.44,8.44,0,0,0-3.54-1.69,12.31,12.31,0,0,0-1.29-.24c-.46-.06-.94-.09-1.43-.11a14.31,14.31,0,0,0-3.18.29A15,15,0,0,0,99.29,107,14.35,14.35,0,0,0,93.42,112,14.54,14.54,0,0,0,91,118.29c0,.49-.1,1-.11,1.43s0,.89,0,1.31a8.39,8.39,0,0,0,1.14,3.75,2.72,2.72,0,0,0,.78.85A.83.83,0,0,0,93.59,125.8Z" style="fill:#fff"></path></g><path d="M127.74,99.62c-.33.33.22,1.42,1.23,2.44a7.35,7.35,0,0,0,1,.85c.64.44,1.19.61,1.41.39s-.22-1.41-1.23-2.43S128.07,99.3,127.74,99.62Z" style="fill:#FA9805"></path><g style="opacity:0.30000000000000004"><path d="M129.89,102.85A8.29,8.29,0,0,1,128.1,101c-.34.32-.74.69-1.15,1a8.53,8.53,0,0,0,2.57,1.21Z"></path></g><path d="M135.09,114.3c-.45.12-.52,1.33-.17,2.72a7.54,7.54,0,0,0,.44,1.25c.33.7.72,1.13,1,1,.45-.11.53-1.33.17-2.72S135.54,114.19,135.09,114.3Z" style="fill:#FA9805"></path><g style="opacity:0.30000000000000004"><path d="M135.32,118.17a5.68,5.68,0,0,1-.61-2.49c-.47.13-1,.25-1.51.35a8.16,8.16,0,0,0,1.58,2.3Z"></path></g><path d="M139.73,128.19c-.45-.12-1.12.9-1.49,2.29a6.64,6.64,0,0,0-.22,1.31c-.06.77.07,1.33.37,1.41.45.12,1.11-.91,1.48-2.29S140.18,128.31,139.73,128.19Z" style="fill:#FA9805"></path><g style="opacity:0.30000000000000004"><path d="M138,131.67a8.45,8.45,0,0,1,.69-2.47l-1.49-.46a8.58,8.58,0,0,0,.25,2.82Z"></path></g><path d="M131.1,141.83c-.32-.34-1.41.21-2.43,1.22a5.93,5.93,0,0,0-.86,1c-.44.64-.61,1.18-.4,1.4s1.42-.21,2.44-1.22S131.43,142.16,131.1,141.83Z" style="fill:#FA9805"></path><g style="opacity:0.30000000000000004"><path d="M127.87,144a5.72,5.72,0,0,1,1.85-1.79c-.35-.33-.7-.71-1.07-1.12a8.29,8.29,0,0,0-1.19,2.52Z"></path></g><path d="M115.93,154.67c0-.46-1.17-.82-2.61-.79A7.42,7.42,0,0,0,112,154c-.75.16-1.26.44-1.25.75s1.18.82,2.61.79S115.94,155.13,115.93,154.67Z" style="fill:#FA9805"></path><g style="opacity:0.30000000000000004"><path d="M112.11,154a8.34,8.34,0,0,1,2.57,0c0-.48,0-1,0-1.57a8.55,8.55,0,0,0-2.64,1Z"></path></g><path d="M99.63,150.51c.18-.42-.74-1.23-2-1.79a7.83,7.83,0,0,0-1.27-.42c-.75-.16-1.32-.11-1.44.17-.19.43.73,1.23,2,1.79S99.44,150.94,99.63,150.51Z" style="fill:#FA9805"></path><g style="opacity:0.30000000000000004"><path d="M96.42,148.33a5.71,5.71,0,0,1,2.35,1c.18-.44.4-.91.64-1.4a8.16,8.16,0,0,0-2.79-.15Z"></path></g><path d="M83.19,140.7c.42-.2.25-1.41-.38-2.69a6.36,6.36,0,0,0-.68-1.14c-.46-.62-.93-1-1.2-.83-.42.21-.25,1.41.37,2.7S82.77,140.91,83.19,140.7Z" style="fill:#FA9805"></path><g style="opacity:0.30000000000000004"><path d="M82.2,137a8.34,8.34,0,0,1,1.09,2.32c.44-.2.93-.42,1.44-.63a8.66,8.66,0,0,0-2-2Z"></path></g><g style="opacity:0.30000000000000004"><path d="M117.64,129.79c-.38,1.63.19,3.16,1.29,3.42s2.29-.85,2.68-2.48-.19-3.16-1.29-3.42S118,128.17,117.64,129.79Z"></path></g><path d="M118.78,128.3c-.39,1.63.19,3.16,1.29,3.42s2.29-.85,2.68-2.48-.2-3.16-1.29-3.42S119.16,126.67,118.78,128.3Z" style="fill:#FA9805"></path><g style="opacity:0.30000000000000004"><path d="M122.44,113c-1.26-1.1-2.88-1.31-3.62-.46s-.32,2.42.94,3.53,2.88,1.31,3.62.46S123.7,114.14,122.44,113Z"></path></g><path d="M123.68,111.7c-1.26-1.1-2.88-1.31-3.62-.46s-.32,2.42.93,3.53,2.88,1.3,3.63.46S124.94,112.8,123.68,111.7Z" style="fill:#FA9805"></path><g style="opacity:0.30000000000000004"><path d="M109.71,137.28a2,2,0,1,0,2.4-1.49A2,2,0,0,0,109.71,137.28Z"></path></g><path d="M110,136.24a2,2,0,1,0,2.4-1.49A2,2,0,0,0,110,136.24Z" style="fill:#FA9805"></path><g style="opacity:0.30000000000000004"><path d="M110,136.24a2,2,0,1,0,2.4-1.49A2,2,0,0,0,110,136.24Z" style="fill:#fff"></path></g><g style="opacity:0.30000000000000004"><path d="M100.9,117a2.45,2.45,0,1,0,.94-3.34A2.46,2.46,0,0,0,100.9,117Z"></path></g><path d="M100.26,115.84a2.45,2.45,0,1,0,.93-3.34A2.45,2.45,0,0,0,100.26,115.84Z" style="fill:#FA9805"></path><g style="opacity:0.30000000000000004"><path d="M99.38,136.86a1.46,1.46,0,1,0,1.76-1.09A1.46,1.46,0,0,0,99.38,136.86Z"></path></g><path d="M99.56,136.09a1.46,1.46,0,1,0,1.76-1.08A1.46,1.46,0,0,0,99.56,136.09Z" style="fill:#FA9805"></path><path d="M78.57,120.57c.44.12,1.1-.89,1.46-2.26a6.64,6.64,0,0,0,.23-1.29c0-.76-.07-1.31-.37-1.39s-1.1.89-1.46,2.25S78.13,120.45,78.57,120.57Z" style="fill:#FA9805"></path><g style="opacity:0.30000000000000004"><path d="M80.25,117.13a8,8,0,0,1-.68,2.44l1.48.46a8.42,8.42,0,0,0-.25-2.79Z"></path></g><path d="M87.44,107c.32.32,1.4-.22,2.41-1.21a7.31,7.31,0,0,0,.85-1c.43-.63.6-1.17.39-1.39s-1.4.21-2.41,1.21S87.12,106.67,87.44,107Z" style="fill:#FA9805"></path><g style="opacity:0.30000000000000004"><path d="M90.63,104.88a5.54,5.54,0,0,1-1.82,1.76q.51.49,1,1.11A8.19,8.19,0,0,0,91,105.26Z"></path></g><path d="M97,96.13c.12.45,1.32.5,2.69.13a6.75,6.75,0,0,0,1.23-.45c.69-.34,1.1-.73,1-1-.12-.44-1.32-.5-2.69-.13S96.87,95.69,97,96.13Z" style="fill:#FA9805"></path><g style="opacity:0.30000000000000004"><path d="M100.81,95.86a8.2,8.2,0,0,1-2.45.63c.11.46.23,1,.34,1.51A8.26,8.26,0,0,0,101,96.38Z"></path></g><path d="M112.92,96.71c-.12.45.89,1.11,2.25,1.48a7.5,7.5,0,0,0,1.29.23c.76,0,1.32-.07,1.4-.36.12-.45-.89-1.11-2.25-1.48S113,96.27,112.92,96.71Z" style="fill:#FA9805"></path><g style="opacity:0.30000000000000004"><path d="M116.35,98.41a5.71,5.71,0,0,1-2.44-.69c-.11.46-.26,1-.43,1.46a8,8,0,0,0,2.75-.23Z"></path></g><g style="opacity:0.30000000000000004"><path d="M95.37,130.6c.42,1.62,1.64,2.71,2.73,2.42s1.63-1.83,1.21-3.44-1.65-2.71-2.74-2.42S94.94,129,95.37,130.6Z"></path></g><path d="M94.71,129.61c.42,1.61,1.64,2.7,2.73,2.41s1.63-1.82,1.21-3.44-1.65-2.7-2.74-2.42S94.28,128,94.71,129.61Z" style="fill:#FA9805"></path><g style="opacity:0.30000000000000004"><path d="M106.54,123.32a3,3,0,1,0,3.64-2.25A3,3,0,0,0,106.54,123.32Z"></path></g><path d="M106.94,121.61a3,3,0,1,0,3.65-2.25A3,3,0,0,0,106.94,121.61Z" style="fill:#FA9805"></path><g style="opacity:0.30000000000000004"><path d="M95.09,137.65c-.18.19,0,.72.54,1.48a12.41,12.41,0,0,0,2.86,2.72,17.73,17.73,0,0,0,2.36,1.42,19.8,19.8,0,0,0,2.94,1.19,20.34,20.34,0,0,0,7.26.9,20.64,20.64,0,0,0,7.1-1.78,20.18,20.18,0,0,0,2.78-1.54,19.3,19.3,0,0,0,2.17-1.7,12.34,12.34,0,0,0,2.5-3.05c.45-.82.56-1.37.36-1.54-.45-.36-1.94.91-4.5,2.38-.64.37-1.36.73-2.13,1.1a25.9,25.9,0,0,1-2.52,1,22.73,22.73,0,0,1-6,1.22,23.66,23.66,0,0,1-6.11-.47,25.5,25.5,0,0,1-2.62-.71c-.81-.27-1.57-.55-2.24-.84C97.12,138.31,95.49,137.24,95.09,137.65Z"></path></g><g style="opacity:0.30000000000000004"><path d="M128,128.39a1.85,1.85,0,1,0,1.36,2.31A1.9,1.9,0,0,0,128,128.39Z"></path></g><g style="opacity:0.30000000000000004"><path d="M118.78,128.3c-.39,1.63.19,3.16,1.29,3.42s2.29-.85,2.68-2.48-.2-3.16-1.29-3.42S119.16,126.67,118.78,128.3Z" style="fill:#fff"></path></g><g style="opacity:0.30000000000000004"><path d="M123.68,111.7c-1.26-1.1-2.88-1.31-3.62-.46s-.32,2.42.93,3.53,2.88,1.3,3.63.46S124.94,112.8,123.68,111.7Z" style="fill:#fff"></path></g><g style="opacity:0.30000000000000004"><path d="M100.26,115.84a2.45,2.45,0,1,0,.93-3.34A2.45,2.45,0,0,0,100.26,115.84Z" style="fill:#fff"></path></g><g style="opacity:0.30000000000000004"><path d="M99.56,136.09a1.46,1.46,0,1,0,1.76-1.08A1.46,1.46,0,0,0,99.56,136.09Z" style="fill:#fff"></path></g><g style="opacity:0.30000000000000004"><path d="M94.71,129.61c.42,1.61,1.64,2.7,2.73,2.41s1.63-1.82,1.21-3.44-1.65-2.7-2.74-2.42S94.28,128,94.71,129.61Z" style="fill:#fff"></path></g><g style="opacity:0.30000000000000004"><path d="M106.94,121.61a3,3,0,1,0,3.65-2.25A3,3,0,0,0,106.94,121.61Z" style="fill:#fff"></path></g><rect x="63.57" y="121.88" width="91.17" height="1.85" transform="translate(-52.81 95.21) rotate(-38.7)" style="fill:#263238"></rect><path d="M651.78,265.89a41.08,41.08,0,0,1-24-9.18l-18.55,2.65,9.26-13.26a41.39,41.39,0,1,1,33.32,19.79Z" style="fill:#fff"></path><path d="M651.78,265.89l.72,0,2.13,0c.47,0,1,0,1.56,0l1.88-.21c.68-.08,1.41-.14,2.19-.25l2.45-.51a40.4,40.4,0,0,0,12-4.71,17.47,17.47,0,0,0,1.61-1l1.65-1.11a18.94,18.94,0,0,0,1.61-1.26l1.62-1.34c1.07-1,2.06-2,3.14-3.08l1.45-1.77a17.44,17.44,0,0,0,1.44-1.84,40.16,40.16,0,0,0,2.59-4.1L691,242.4l1-2.37.51-1.19c.15-.41.26-.84.4-1.26.25-.84.52-1.68.78-2.54s.37-1.77.56-2.66l.27-1.35a12.49,12.49,0,0,0,.16-1.37c.1-.93.19-1.86.28-2.8s0-1.9,0-2.86v-1.44c0-.49-.09-1-.13-1.45-.11-1-.21-2-.32-2.93a44.78,44.78,0,0,0-3.65-11.61,42.86,42.86,0,0,0-7.34-10.46c-.78-.76-1.51-1.58-2.36-2.3l-2.56-2.12c-.91-.64-1.85-1.25-2.78-1.89-.23-.16-.46-.32-.7-.47l-.75-.4-1.49-.81a40.74,40.74,0,0,0-27.3-3.84l-1.35.28-.67.14-.66.2-2.61.81-.64.21-.63.26-1.25.53a22.83,22.83,0,0,0-2.46,1.12l-2.37,1.28c-.79.42-1.49,1-2.24,1.46a41.41,41.41,0,0,0-4.2,3.23,40.63,40.63,0,0,0-13.56,26.31l-.24,2.37c0,.79-.06,1.58,0,2.37a39.45,39.45,0,0,0,.29,4.64,41,41,0,0,0,5.7,16.51l.06.1-.07.1-9.28,13.25-.15-.24,18.55-2.62h0l.05,0a41.59,41.59,0,0,0,9.38,5.76,42,42,0,0,0,7.78,2.56,49.21,49.21,0,0,0,5,.81l1.31.11.44,0a3.8,3.8,0,0,1-.45,0l-1.31-.07a43.93,43.93,0,0,1-5.06-.75,41.11,41.11,0,0,1-17.29-8.25l.09,0-18.54,2.68-.36.05.21-.3L618.32,246v.2a41.36,41.36,0,0,1-5.78-16.65,40.44,40.44,0,0,1-.3-4.69c0-.79,0-1.59,0-2.39s.16-1.59.24-2.4a41,41,0,0,1,17.92-29.85c.75-.48,1.46-1.05,2.26-1.47l2.39-1.3a21.53,21.53,0,0,1,2.49-1.13l1.26-.53.63-.27.66-.21,2.64-.82.66-.2.68-.14,1.36-.28a41.09,41.09,0,0,1,27.59,3.88l1.5.82.76.41c.24.14.47.31.71.47.94.64,1.89,1.26,2.8,1.92l2.59,2.14c.85.72,1.59,1.56,2.38,2.32a43.27,43.27,0,0,1,7.4,10.58,45.32,45.32,0,0,1,3.67,11.72c.11,1,.21,2,.31,3,0,.49.12,1,.13,1.46V224c0,1,0,1.93,0,2.88s-.19,1.89-.29,2.82c-.06.47-.07.94-.16,1.39s-.19.91-.28,1.36c-.19.9-.35,1.8-.57,2.68l-.8,2.56c-.14.42-.25.85-.4,1.26l-.52,1.21-1,2.38-1.21,2.22a39.73,39.73,0,0,1-2.62,4.13,17.73,17.73,0,0,1-1.46,1.85l-1.47,1.78c-1.08,1-2.09,2.14-3.16,3.09L679.71,257a19.2,19.2,0,0,1-1.63,1.26l-1.66,1.11a17.75,17.75,0,0,1-1.63,1,39.8,39.8,0,0,1-12,4.66l-2.47.5c-.78.1-1.52.16-2.2.23l-1.88.18c-.58,0-1.1,0-1.57,0H652.5C652,265.91,651.78,265.89,651.78,265.89Z" style="fill:#263238"></path><path d="M674.22,225.16a19.53,19.53,0,0,0-1.46-7.51c1-1.86,6.12-5.34,6.12-5.34l-1.22-1.94c-2.09,1.31-6.87,2.5-7.55,2.67a19.24,19.24,0,0,0-4.38-4.13c-.1-2.07,1.55-5.16,1.55-5.16l-2-1.05a19.18,19.18,0,0,1-3.16,4.24,19.65,19.65,0,0,0-4.33-1.23c-1.11-1.76-1.56-8-1.56-8l-2.29.08c.08,2.65-1.51,7.8-1.52,7.83a19.86,19.86,0,0,0-5.57,1.5c-1.81-1-3.69-4-3.69-4l-1.94,1.23a18.88,18.88,0,0,1,2.06,4.78,19.07,19.07,0,0,0-3.71,3.45c-2.19,0-7.73-2.64-7.73-2.64L630.73,212c2.1,1.1,5.29,4.36,6,5.09a19.57,19.57,0,0,0-1.6,6.28,13.86,13.86,0,0,1-4.89,1.08l.12,2.32a18.77,18.77,0,0,1,4.81.47,19.46,19.46,0,0,0,1.28,5.07c-1.51,1.95-5.87,4.93-5.87,4.93l1.24,2a30.8,30.8,0,0,1,7.05-2.52,19.31,19.31,0,0,0,4.65,4.51,14,14,0,0,1-1.53,4.72l2.07,1.07a18.91,18.91,0,0,1,2.82-3.94,19.73,19.73,0,0,0,8.13,1.6c1.49,1.82,3.26,7.22,3.26,7.22l2.24-.65a30.05,30.05,0,0,1-.48-7.33,19.13,19.13,0,0,0,4.8-2.08,21.26,21.26,0,0,0,2.17-1.55,14.32,14.32,0,0,1,3.7,3.16l1.77-1.51a19.06,19.06,0,0,1-2.7-4.4,19.54,19.54,0,0,0,3.76-7.26c2.4-.49,7.69.12,7.69.12l.35-2.3C679.16,227.68,675,225.57,674.22,225.16Zm-30.47-16.39-.06,0Z" style="fill:#FA9805"></path><g style="opacity:0.2"><path d="M668.54,221.62c-.84,0-1.55-1.44-2.89-3.23-.16-.23-.36-.45-.53-.68s-.4-.47-.6-.71a18.48,18.48,0,0,0-1.4-1.4,13.57,13.57,0,0,0-3.62-2.31,13.27,13.27,0,0,0-4.19-.94,16.47,16.47,0,0,0-2,0c-.32,0-.63,0-.92.08s-.59.05-.86.1c-2.22.31-3.78.85-4.34.22a.83.83,0,0,1-.15-.64,2.54,2.54,0,0,1,.38-1,7.65,7.65,0,0,1,2.58-2.45,10.11,10.11,0,0,1,1-.57c.38-.18.78-.34,1.2-.5a13.88,13.88,0,0,1,2.82-.64,13.62,13.62,0,0,1,3.25,0,14.18,14.18,0,0,1,3.43.91,13.7,13.7,0,0,1,3,1.8,13.12,13.12,0,0,1,2.3,2.29,13.69,13.69,0,0,1,1.53,2.45c.18.41.36.81.49,1.21a9,9,0,0,1,.33,1.14,7.68,7.68,0,0,1,.07,3.56,2.48,2.48,0,0,1-.43.95A.76.76,0,0,1,668.54,221.62Z" style="fill:#fff"></path></g><path d="M631.73,208.64c.37.19.2,1.28-.38,2.44a7,7,0,0,1-.64,1c-.43.55-.85.85-1.1.73s-.21-1.29.38-2.45S631.35,208.45,631.73,208.64Z" style="fill:#FA9805"></path><g style="opacity:0.30000000000000004"><path d="M630.78,212a7.45,7.45,0,0,0,1-2.09c.39.19.84.39,1.29.59a7.68,7.68,0,0,1-1.87,1.76Z"></path></g><path d="M629.51,223.37c.42,0,.83,1,.91,2.29a6.78,6.78,0,0,1,0,1.21c-.09.69-.3,1.17-.58,1.19s-.83-1-.91-2.3S629.09,223.39,629.51,223.37Z" style="fill:#FA9805"></path><g style="opacity:0.30000000000000004"><path d="M630.4,226.77a5.16,5.16,0,0,0-.17-2.32c.43,0,.9-.06,1.4-.12a7.59,7.59,0,0,1-.72,2.42Z"></path></g><path d="M629.41,236.65c.35-.23,1.21.47,1.92,1.55a7,7,0,0,1,.57,1.07c.26.65.31,1.17.07,1.32s-1.21-.47-1.92-1.55S629.06,236.88,629.41,236.65Z" style="fill:#FA9805"></path><g style="opacity:0.30000000000000004"><path d="M631.86,239.18a7.43,7.43,0,0,0-1.29-1.94c.35-.25.76-.53,1.16-.83a7.78,7.78,0,0,1,.57,2.51Z"></path></g><path d="M640.68,246c.19-.38,1.28-.21,2.45.37a5.75,5.75,0,0,1,1,.63c.56.42.86.85.74,1.1s-1.28.21-2.45-.37S640.49,246.36,640.68,246Z" style="fill:#FA9805"></path><g style="opacity:0.30000000000000004"><path d="M644.07,246.93a5.08,5.08,0,0,0-2.09-1c.2-.39.4-.81.6-1.27a7.61,7.61,0,0,1,1.74,1.84Z"></path></g><path d="M657.38,252.81c-.12-.41.78-1,2-1.42a6.41,6.41,0,0,1,1.18-.25c.69-.07,1.2,0,1.29.29s-.79,1-2,1.42S657.5,253.21,657.38,252.81Z" style="fill:#FA9805"></path><g style="opacity:0.30000000000000004"><path d="M660.48,251.15a7.52,7.52,0,0,0-2.22.71c-.13-.41-.29-.88-.46-1.34a7.58,7.58,0,0,1,2.57.14Z"></path></g><path d="M670.28,244.64c-.28-.32.28-1.27,1.26-2.13a6.26,6.26,0,0,1,1-.71c.61-.35,1.11-.47,1.3-.26s-.29,1.26-1.26,2.12S670.55,245,670.28,244.64Z" style="fill:#FA9805"></path><g style="opacity:0.30000000000000004"><path d="M672.42,241.85a5.19,5.19,0,0,0-1.73,1.56c-.28-.34-.6-.68-1-1a7.42,7.42,0,0,1,2.37-.91Z"></path></g><path d="M681.7,231.56c-.42-.06-.61-1.15-.43-2.43a6,6,0,0,1,.27-1.18c.22-.66.53-1.09.8-1s.62,1.15.44,2.43S682.12,231.62,681.7,231.56Z" style="fill:#FA9805"></path><g style="opacity:0.30000000000000004"><path d="M681.5,228.05a7.59,7.59,0,0,0-.29,2.31l-1.41-.14A7.7,7.7,0,0,1,681,228Z"></path></g><g style="opacity:0.30000000000000004"><path d="M648.92,231.83c.78,1.29.72,2.77-.16,3.31s-2.21-.09-3-1.39-.73-2.78.15-3.31S648.13,230.53,648.92,231.83Z"></path></g><path d="M647.51,230.86c.79,1.29.73,2.78-.15,3.31s-2.22-.09-3-1.39-.72-2.78.15-3.31S646.72,229.56,647.51,230.86Z" style="fill:#FA9805"></path><g style="opacity:0.30000000000000004"><path d="M640.07,218.72c.77-1.3,2.11-1.94,3-1.41s1,2,.18,3.3-2.11,1.94-3,1.42S639.29,220,640.07,218.72Z"></path></g><path d="M638.62,217.91c.78-1.3,2.12-1.94,3-1.41s1,2,.18,3.3-2.12,1.94-3,1.42S637.84,219.22,638.62,217.91Z" style="fill:#FA9805"></path><g style="opacity:0.30000000000000004"><path d="M657.86,236.05a1.81,1.81,0,1,1-2.49-.6A1.82,1.82,0,0,1,657.86,236.05Z"></path></g><path d="M657.35,235.23a1.81,1.81,0,1,1-2.48-.61A1.8,1.8,0,0,1,657.35,235.23Z" style="fill:#FA9805"></path><g style="opacity:0.30000000000000004"><path d="M657.35,235.23a1.81,1.81,0,1,1-2.48-.61A1.8,1.8,0,0,1,657.35,235.23Z" style="fill:#fff"></path></g><g style="opacity:0.30000000000000004"><path d="M659.76,216.07a2.23,2.23,0,1,1-1.75-2.62A2.23,2.23,0,0,1,659.76,216.07Z"></path></g><path d="M660,214.9a2.22,2.22,0,1,1-1.75-2.62A2.22,2.22,0,0,1,660,214.9Z" style="fill:#FA9805"></path><g style="opacity:0.30000000000000004"><path d="M666.65,232.79a1.32,1.32,0,1,1-1.82-.45A1.32,1.32,0,0,1,666.65,232.79Z"></path></g><path d="M666.28,232.18a1.32,1.32,0,0,1-2.26,1.38,1.32,1.32,0,0,1,2.26-1.38Z" style="fill:#FA9805"></path><path d="M680,212.89c-.35.23-1.2-.46-1.9-1.53a6.86,6.86,0,0,1-.56-1.06c-.26-.64-.3-1.15-.07-1.3s1.2.46,1.9,1.53S680.38,212.67,680,212.89Z" style="fill:#FA9805"></path><g style="opacity:0.30000000000000004"><path d="M677.61,210.4a7.3,7.3,0,0,0,1.27,1.91l-1.14.81a7.53,7.53,0,0,1-.57-2.47Z"></path></g><path d="M668.56,203.67c-.18.38-1.27.21-2.41-.36a5.75,5.75,0,0,1-1-.63c-.55-.42-.85-.84-.72-1.08s1.26-.21,2.41.36S668.75,203.3,668.56,203.67Z" style="fill:#FA9805"></path><g style="opacity:0.30000000000000004"><path d="M665.21,202.75a5.17,5.17,0,0,0,2.07,1c-.2.38-.4.8-.59,1.25a7.25,7.25,0,0,1-1.72-1.82Z"></path></g><path d="M657.27,197c0,.41-1,.8-2.28.86a6.47,6.47,0,0,1-1.19,0c-.69-.1-1.16-.32-1.17-.6s1-.8,2.28-.86S657.25,196.57,657.27,197Z" style="fill:#FA9805"></path><g style="opacity:0.30000000000000004"><path d="M653.9,197.82a7.19,7.19,0,0,0,2.29-.14c0,.43.08.91.13,1.4a7.67,7.67,0,0,1-2.43-.76Z"></path></g><path d="M643.69,202c.23.35-.45,1.2-1.52,1.91a7.86,7.86,0,0,1-1.06.56c-.64.26-1.15.31-1.3.08s.46-1.2,1.53-1.9S643.47,201.61,643.69,202Z" style="fill:#FA9805"></path><g style="opacity:0.30000000000000004"><path d="M641.21,204.39a5.17,5.17,0,0,0,1.91-1.28c.22.36.49.75.78,1.14a7.23,7.23,0,0,1-2.43.57Z"></path></g><g style="opacity:0.30000000000000004"><path d="M668.36,226.27c.09,1.51-.67,2.79-1.68,2.85s-1.92-1.12-2-2.63.67-2.8,1.69-2.86S668.27,224.75,668.36,226.27Z"></path></g><path d="M668.65,225.22c.09,1.51-.67,2.79-1.69,2.85s-1.92-1.11-2-2.63.67-2.79,1.69-2.85S668.56,223.7,668.65,225.22Z" style="fill:#FA9805"></path><g style="opacity:0.30000000000000004"><path d="M656.67,223.12a2.75,2.75,0,1,1-3.78-.92A2.75,2.75,0,0,1,656.67,223.12Z"></path></g><path d="M655.84,221.76a2.75,2.75,0,1,1-3.78-.92A2.75,2.75,0,0,1,655.84,221.76Z" style="fill:#FA9805"></path><g style="opacity:0.30000000000000004"><path d="M670.58,232.27c.21.11.21.62-.05,1.43a11.66,11.66,0,0,1-1.71,3.15,17.73,17.73,0,0,1-1.63,1.88,18.2,18.2,0,0,1-2.21,1.86,18.13,18.13,0,0,1-12.63,3.27,17.53,17.53,0,0,1-2.83-.55,15.24,15.24,0,0,1-2.35-.86,11.27,11.27,0,0,1-3-1.92c-.62-.58-.86-1-.73-1.23.28-.43,1.92.24,4.54.79.66.14,1.38.25,2.15.36a23.46,23.46,0,0,0,2.46.16,20.73,20.73,0,0,0,5.51-.63,21.06,21.06,0,0,0,5.13-2.12c.75-.43,1.43-.9,2.07-1.34s1.2-.92,1.7-1.36C669,233.41,670.12,232,670.58,232.27Z"></path></g><g style="opacity:0.30000000000000004"><path d="M639.59,233.52a1.68,1.68,0,1,1-.53,2.38A1.73,1.73,0,0,1,639.59,233.52Z"></path></g><g style="opacity:0.30000000000000004"><path d="M647.51,230.86c.79,1.29.73,2.78-.15,3.31s-2.22-.09-3-1.39-.72-2.78.15-3.31S646.72,229.56,647.51,230.86Z" style="fill:#fff"></path></g><g style="opacity:0.30000000000000004"><path d="M638.62,217.91c.78-1.3,2.12-1.94,3-1.41s1,2,.18,3.3-2.12,1.94-3,1.42S637.84,219.22,638.62,217.91Z" style="fill:#fff"></path></g><g style="opacity:0.30000000000000004"><path d="M660,214.9a2.22,2.22,0,1,1-1.75-2.62A2.22,2.22,0,0,1,660,214.9Z" style="fill:#fff"></path></g><g style="opacity:0.30000000000000004"><path d="M666.28,232.18a1.32,1.32,0,0,1-2.26,1.38,1.32,1.32,0,0,1,2.26-1.38Z" style="fill:#fff"></path></g><g style="opacity:0.30000000000000004"><path d="M668.65,225.22c.09,1.51-.67,2.79-1.69,2.85s-1.92-1.11-2-2.63.67-2.79,1.69-2.85S668.56,223.7,668.65,225.22Z" style="fill:#fff"></path></g><g style="opacity:0.30000000000000004"><path d="M655.84,221.76a2.75,2.75,0,1,1-3.78-.92A2.75,2.75,0,0,1,655.84,221.76Z" style="fill:#fff"></path></g><rect x="653.44" y="182.05" width="1.67" height="82.71" transform="translate(214.41 756.8) rotate(-69.34)" style="fill:#263238"></rect></g><g id="freepik--character-3--inject-76"><path d="M399.78,457.18s1.76-44.64,9-54.22S534.08,413.8,534.08,413.8l21.12,43.38Z" style="fill:#455a64"></path><path d="M666.74,374,611,343s-16.06-76-16.7-77.45c-4.55-10.42-20-22.15-20-22.15L561.78,326l3.48,17.78a49,49,0,0,0,16,27.82l.27.24c4.5,3.82,10,5.5,15.29,8.66l56.25,19.74Z" style="fill:#aa6550"></path><path d="M502.61,184.3c1.81-.16,4,.06,5.13-1.35,1.3-1.57.32-4-1.07-5.49s-3.25-2.71-3.9-4.64c-.77-2.25.35-4.74,1.89-6.54a14.75,14.75,0,0,1,22.77.39l5.09.26c-.37,5.94-.75,11.95-2.59,17.6s-5.34,11-10.57,13.84a11.46,11.46,0,0,1-7.24,1.5,6.81,6.81,0,0,1-5.5-4.54c-.69-2.42.7-5.37,3.13-6a23.27,23.27,0,0,1-8.2-.22,3.06,3.06,0,0,1-2.22-1.48C498.61,186,500.79,184.46,502.61,184.3Z" style="fill:#263238"></path><path d="M530.65,193.66c-1.94-8.19-3.85-16.45-4.35-24.86s.45-17.05,4-24.68c.54-1.16,5-8.86,6.23-8.63.89.16-2,7.44-1.65,8.27,3.76,7.85,4.21,17,2.81,25.57a114.12,114.12,0,0,1-7.06,24.33" style="fill:#263238"></path><path d="M549,280.26c-13-1.33-24-27.33-22.94-40.35l6.34-78.35c1-21.1,14.17-38.09,35.24-36.48l1.94.27a37.76,37.76,0,0,1,32.64,39.47c-1,18.29-2.33,38.48-3.77,48.17-3,20.06-23.49,20.45-23.49,20.45s-.5,4.67-1,10.6c-1.23,13.31-6.39,43.65-19.69,42.29Z" style="fill:#aa6550"></path><path d="M575,233.44s-12.77-1-25.11-11.28c0,0,4.39,15.48,24.69,16.39Z" style="fill:#894536"></path><path d="M594.1,180.63a2.89,2.89,0,0,1-3.16,2.52,2.76,2.76,0,0,1-2.6-3,2.89,2.89,0,0,1,3.15-2.52A2.77,2.77,0,0,1,594.1,180.63Z" style="fill:#263238"></path><path d="M596.83,172.58c-.4.33-2.36-1.58-5.45-2s-5.56.83-5.84.4c-.14-.19.31-.81,1.4-1.4a7.94,7.94,0,0,1,4.74-.78,7.61,7.61,0,0,1,4.27,2.05C596.8,171.72,597,172.44,596.83,172.58Z" style="fill:#263238"></path><path d="M564.78,176.35a2.89,2.89,0,0,1-3.15,2.52,2.78,2.78,0,0,1-2.61-3,2.9,2.9,0,0,1,3.16-2.52A2.76,2.76,0,0,1,564.78,176.35Z" style="fill:#263238"></path><path d="M566.42,169.72c-.4.33-2.36-1.57-5.45-2s-5.56.82-5.84.4c-.14-.19.31-.82,1.4-1.4a7.93,7.93,0,0,1,4.74-.79,7.67,7.67,0,0,1,4.27,2.05C566.39,168.86,566.62,169.58,566.42,169.72Z" style="fill:#263238"></path><path d="M574.28,195c0-.18,2-.25,5.13-.22.8,0,1.57,0,1.78-.55a4.06,4.06,0,0,0-.21-2.41q-.72-3-1.52-6.32c-2.08-9-3.47-16.33-3.1-16.41s2.34,7.13,4.42,16.12l1.41,6.34a4.6,4.6,0,0,1,0,3.15,2,2,0,0,1-1.45,1,5.68,5.68,0,0,1-1.37,0C576.21,195.38,574.27,195.13,574.28,195Z" style="fill:#263238"></path><path d="M564.9,195.85c.51,0,.06,3.39,2.61,6.16s6.16,2.88,6.12,3.36c0,.21-.88.54-2.4.38a8.42,8.42,0,0,1-5.14-2.62,7.28,7.28,0,0,1-2-5.13C564.19,196.58,564.68,195.8,564.9,195.85Z" style="fill:#263238"></path><path d="M568,157.17c-.42.8-3.44,0-7.12-.07s-6.75.54-7.13-.28c-.16-.39.45-1.11,1.74-1.76a12.38,12.38,0,0,1,10.86.27C567.56,156,568.14,156.79,568,157.17Z" style="fill:#263238"></path><path d="M597,162.14c-.64.63-2.67-.38-5.22-.77s-4.79-.17-5.18-1c-.17-.38.26-1,1.3-1.57a7.25,7.25,0,0,1,4.4-.58,7.33,7.33,0,0,1,4,2C597,161.07,597.24,161.83,597,162.14Z" style="fill:#263238"></path><path d="M532.06,176.66c-.32-.2-13.25-6-14.68,7.84s12.72,12.38,12.79,12S532.06,176.66,532.06,176.66Z" style="fill:#aa6550"></path><path d="M526.49,190.82s-.26.15-.68.29A2.43,2.43,0,0,1,524,191c-1.4-.68-2.39-3.12-2.2-5.62a7.85,7.85,0,0,1,1-3.37,2.81,2.81,0,0,1,2-1.66,1.24,1.24,0,0,1,1.35.81c.14.4,0,.67.1.7s.31-.2.26-.78a1.53,1.53,0,0,0-.45-.92,1.85,1.85,0,0,0-1.29-.49,3.38,3.38,0,0,0-2.73,1.88,8.09,8.09,0,0,0-1.23,3.76c-.2,2.79.95,5.54,2.89,6.32a2.6,2.6,0,0,0,2.23-.14C526.43,191.15,526.54,190.85,526.49,190.82Z" style="fill:#894536"></path><path d="M595.49,141.11c2.35-1-3.68-8.89-8.93-11.9-7.94-4.55-20.4-8.06-28.25-6.62-9.46,1.75-17.55,5.61-23,13.55s-8.07,17.56-8.71,27.15c-.19,2.93-.18,6,1.15,8.62,1.64,3.24,5.16,5.51,4.6,9.7a5.81,5.81,0,0,0,1,4.35c2.28,2.93,5.6.7,7.26-1.7,3.55-5.12,4.5-11.55,5.35-17.72.6-4.38,1.21-8.86.37-13.21-.46-2.36-1.34-4.64-1.67-7s0-5,1.63-6.8a8.8,8.8,0,0,1,1.23-1,14.44,14.44,0,0,1,14.54-1.37c7.51,3.48,20.4,8.84,24.12,6.53C591.59,140.32,593,138,593,138Z" style="fill:#263238"></path><path d="M559.2,120.79c7.83-1.82,16.45-.88,23.21,3.48,3.58,2.31,6.69,5.76,7.45,10s-1.45,9.06-5.54,10.29l-.28.15c-6.08,1.43-9.83.27-15.52-2.31-4.78-2.18-8.88-5.64-13.67-7.8a28.26,28.26,0,0,0-16.38-2C544.32,127,551.38,122.61,559.2,120.79Z" style="fill:#263238"></path><path d="M540.23,130.65c0,.21,2.55-1.24,6.84-.78a19.83,19.83,0,0,1,7.08,2.26,56.3,56.3,0,0,1,7.69,5.17,62,62,0,0,0,7.77,5.33,20.93,20.93,0,0,0,7.34,2.53,13.59,13.59,0,0,0,5.23-.24,4.33,4.33,0,0,0,1.77-.72,18.25,18.25,0,0,1-6.89.22,21.77,21.77,0,0,1-7-2.65,69.93,69.93,0,0,1-7.61-5.32,49.87,49.87,0,0,0-7.88-5.19,19.39,19.39,0,0,0-7.47-2.14,13.11,13.11,0,0,0-5.19.65A4.65,4.65,0,0,0,540.23,130.65Z" style="fill:#455a64"></path><path d="M546.5,126.68c0,.21,2.39-.89,6.28-.32a20.09,20.09,0,0,1,6.44,2.16,40.16,40.16,0,0,1,6.88,4.84c2.3,1.94,4.44,3.89,6.55,5.51a32.3,32.3,0,0,0,6,3.76,18.14,18.14,0,0,0,4.53,1.49,4.48,4.48,0,0,0,1.74.1c0-.19-2.46-.41-5.93-2.26a37,37,0,0,1-5.7-3.86c-2-1.63-4.15-3.59-6.48-5.56a37.43,37.43,0,0,0-7.11-4.9,19.67,19.67,0,0,0-6.8-2,13,13,0,0,0-4.77.37A4.08,4.08,0,0,0,546.5,126.68Z" style="fill:#455a64"></path><path d="M579.21,125.38c-.11.1.57,1.07,1.64,2.63a28.66,28.66,0,0,1,3.45,6.41,13.73,13.73,0,0,1,.61,7.07c-.36,1.81-1,2.82-.85,2.92s1-.83,1.58-2.74a12.49,12.49,0,0,0-.33-7.6,21.31,21.31,0,0,0-3.86-6.51C580.2,126.09,579.32,125.29,579.21,125.38Z" style="fill:#455a64"></path><path d="M588.18,132.89c-.32.07.43,3-.72,6.36s-3.4,5.32-3.19,5.56.78-.23,1.68-1.09a10.36,10.36,0,0,0,2.53-4.13,10.49,10.49,0,0,0,.41-4.82C588.68,133.54,588.3,132.85,588.18,132.89Z" style="fill:#455a64"></path><path d="M526.11,163.77c-.27,0-.85,2.59-.64,5.9s1.54,5.82,1.8,5.68-.55-2.58-.73-5.75S526.43,163.79,526.11,163.77Z" style="fill:#FA9805"></path><path d="M577.2,246.3s-1.61,17.93-13.17,16.43-36.59-39.41-36.59-39.41c-3.63.41-16.41,2.79-20.44,4.17-20,6.83-39.73,32-52.54,52.16-14.45,22.74-41.34,107.93-45.72,122a3.38,3.38,0,0,0,.86,3.43c6.2,6,30.75,28.93,50.51,32,22.81,3.53,71.38-13.51,77.81-19.29l-2.45-22.52,45.7-93.36a52.6,52.6,0,0,0,1.05-43.95l-5-11.62" style="fill:#FA9805"></path><path d="M574.26,243.4s15.45,11.73,20,22.15c.64,1.47,17.39,73.39,17.39,73.39l-46.57,8.65L561.78,326Z" style="fill:#FA9805"></path><path d="M521.53,246l24,112.27,89.24,22.13-2.83,24.13s-47.06,0-84-4c-37.73-4.08-43-15.25-50.84-48.54-7.79-33.13-14.21-76.48-14.53-79.2C482.09,268.3,503,242.27,521.53,246Z" style="fill:#aa6550"></path><path d="M712.84,422.5a5.21,5.21,0,0,1-6.87.61,4.46,4.46,0,0,0-.61,3.33,15.66,15.66,0,0,1,.33,3.46,2.87,2.87,0,0,1-2,2.61,2.71,2.71,0,0,1-2.61-1.15,7.9,7.9,0,0,1-1.16-2.75L698.39,423c-.37.89-.92,1.91-1.88,2-1.17.1-1.89-1.25-2.13-2.4s-.45-2.53-1.52-3c-.1.92-1.43,1.23-2.19.7a3.52,3.52,0,0,1-1.16-2.43,5.91,5.91,0,0,0-.76-2.64l9.51-.78Z" style="fill:#fafafa"></path><path d="M715.74,375.76a3.68,3.68,0,0,0-2.77-1.15c-1.66.05-4.33.1-5.73,0-2.12-.16-13.79-3.7-16.23-4.37a28.54,28.54,0,0,0-9.53-.08c-1.48.38-12.4,1.24-12.4,1.24l-14.64,18.77s9.47,17,18,19.69a165,165,0,0,1,17.26,6.77l6.36.23s13,6.94,16,5.89,3.5-2.47,3.5-2.47,4.1,1.59,5.8-.64-.73-4.83-.73-4.83,3-.82,3.13-2.29a6.11,6.11,0,0,0-2.38-5.3c-2.07-1.74-16.22-13.08-19.08-14.45s-4.9-4.44-5.78-6.24.46-4.89,4-3.86,7.37,1.3,10,.44C714.18,381.84,719.58,379.84,715.74,375.76Z" style="fill:#aa6550"></path><path d="M688.71,406.29s.49-.18,1.33-.42a7.51,7.51,0,0,1,3.55-.12l.22.05.06-.22a6.32,6.32,0,0,1,2.54-4,4,4,0,0,1,2.59-.51l.48.08-.19-.43A4.79,4.79,0,0,1,699,398a9.14,9.14,0,0,1,.68-2.14,12.33,12.33,0,0,1,.69-1.32,3.49,3.49,0,0,0,.28-.46c0-.07-.64.48-1.26,1.64a8.31,8.31,0,0,0-.82,2.2,5.11,5.11,0,0,0,.27,3l.28-.36a4.39,4.39,0,0,0-3,.56,5.19,5.19,0,0,0-1.89,2,9.42,9.42,0,0,0-.83,2.3l.28-.17a6.93,6.93,0,0,0-3.74.31A3.21,3.21,0,0,0,688.71,406.29Z" style="fill:#894536"></path><path d="M699.45,400.73a31,31,0,0,0,3.13,2c1.95,1.18,4.62,2.86,7.47,4.84s5.35,3.91,7.14,5.33a32.9,32.9,0,0,0,2.92,2.25s-.21-.28-.67-.73-1.15-1.06-2-1.81a88.87,88.87,0,0,0-14.65-10.2c-1-.56-1.82-1-2.4-1.26A3.52,3.52,0,0,0,699.45,400.73Z" style="fill:#894536"></path><path d="M693.22,405.84a4.85,4.85,0,0,0,.89.54l2.5,1.3c2.11,1.09,5,2.59,8.18,4.36a52.72,52.72,0,0,1,7.77,5,20.25,20.25,0,0,1,2.59,2.8,2.75,2.75,0,0,0-.48-.93,12.29,12.29,0,0,0-1.86-2.15,44,44,0,0,0-7.76-5.15c-3.17-1.78-6.12-3.23-8.28-4.24-1.08-.5-2-.89-2.57-1.15A3.78,3.78,0,0,0,693.22,405.84Z" style="fill:#894536"></path><path d="M686,407.47a4.19,4.19,0,0,0,1,.64,25.38,25.38,0,0,0,2.95,1.35,29.09,29.09,0,0,0,4.64,1.34,36.32,36.32,0,0,0,5.86.62,5.38,5.38,0,0,1,2.74.82,2.61,2.61,0,0,1,1.16,2.2,3.23,3.23,0,0,1-.86,2.17,4.41,4.41,0,0,1-1.79,1.12,6.44,6.44,0,0,1-3.12.15,11,11,0,0,0-1.16-.22,3.43,3.43,0,0,0,1.12.42,6.25,6.25,0,0,0,3.28,0,4.57,4.57,0,0,0,2-1.18,3.63,3.63,0,0,0,1-2.47,3.1,3.1,0,0,0-1.35-2.62,5.76,5.76,0,0,0-3-.93,38.9,38.9,0,0,1-5.81-.57,31.48,31.48,0,0,1-4.6-1.22C687.49,408.22,686,407.39,686,407.47Z" style="fill:#894536"></path><path d="M699.23,401.5a2,2,0,0,0,1.45,1.8,2.5,2.5,0,0,0,2.3-.49c.44-.36.82-.88,1.38-.95s1.2.44,1.78.26a1.16,1.16,0,0,0,.63-1.49,2.94,2.94,0,0,0-1.47-1.34,4.38,4.38,0,0,0-3.25-.43C700.19,399.33,699.28,400.59,699.23,401.5Z" style="fill:#fafafa"></path><path d="M661.29,386.14l.53.15,8.91,1.79c3.56-.06,3.48-6,3.48-6s2.39,2.06,6.34,0a6.38,6.38,0,0,0,3.3-6.37,12.37,12.37,0,0,0,6.57-3.06c-3.71-3.9-7.45.19-7.45.19a4.85,4.85,0,0,0-9.05-2c-1.25-2.13-4.58-2.4-6.46-.79a6.2,6.2,0,0,0-1.42,6.81,5.5,5.5,0,0,0-4.75,9.28Zm8.18-16a.44.44,0,0,1-.36.49.43.43,0,0,1-.48-.36.41.41,0,0,1,.35-.48A.43.43,0,0,1,669.47,370.14Zm.91,1.93a.42.42,0,1,1,.83-.13.42.42,0,1,1-.83.13Zm-.66-1.54a.78.78,0,1,1,.89.66A.79.79,0,0,1,669.72,370.53Zm-.91,4.63a.78.78,0,0,1,.65-.89.78.78,0,1,1-.65.89ZM667,372.53a1.56,1.56,0,1,1,1.78,1.3A1.56,1.56,0,0,1,667,372.53Zm-.21,7a.78.78,0,1,1,.89.66A.79.79,0,0,1,666.79,379.48Zm-1.18-.94a.44.44,0,0,1,.36-.49.43.43,0,0,1,.48.36.41.41,0,0,1-.35.48A.42.42,0,0,1,665.61,378.54ZM663.32,380a1.11,1.11,0,1,1,1.26.93A1.1,1.1,0,0,1,663.32,380Zm-.55,1.46a.42.42,0,0,1,.35-.48.42.42,0,0,1,.49.36.43.43,0,0,1-.36.48A.42.42,0,0,1,662.77,381.47Z" style="fill:#ebebeb"></path><path d="M673.38,408.11a5.82,5.82,0,0,0,3.78,1.46,4,4,0,0,0,1,5.45,5.41,5.41,0,0,0,5.84,0,3.06,3.06,0,0,0,3.88,2.5c1.68-.58,2.85-1.88,1.86-3.35l-1.65-.73a3.09,3.09,0,0,0,0-3.94,2.86,2.86,0,0,1-.79-1.05c-.16-.67.44-1.29,1.08-1.55a13.11,13.11,0,0,0,1.94-.68,2.48,2.48,0,0,0,.9-3,3.14,3.14,0,0,0-2.59-1.85,4.27,4.27,0,0,0-3.08,1.06,3.95,3.95,0,0,0-7.46,1.06,9.47,9.47,0,0,0-2.79-.41,3.23,3.23,0,0,0-2.46,1.19A3.05,3.05,0,0,0,673.38,408.11Zm6.61,5.1a.3.3,0,0,1-.59.09.3.3,0,1,1,.59-.09Zm.94-10.11a1.06,1.06,0,0,1-.88,1.19,1,1,0,0,1-.32-2.07A1.05,1.05,0,0,1,680.93,403.1Zm1.32-1.16a.38.38,0,0,1-.33.45.39.39,0,0,1-.46-.33.41.41,0,0,1,.34-.46A.4.4,0,0,1,682.25,401.94Zm3.21,13.89a1.1,1.1,0,0,1,.93-1.25,1.1,1.1,0,0,1,.33,2.17A1.1,1.1,0,0,1,685.46,415.83Zm-1.9-2.1a.6.6,0,1,1,.68.5A.59.59,0,0,1,683.56,413.73Zm-2.18-10a.69.69,0,0,1,.57-.78.68.68,0,0,1,.78.58.68.68,0,1,1-1.35.2Zm-.84,9.62a1.2,1.2,0,1,1,1.37,1A1.2,1.2,0,0,1,680.54,413.34Zm-1.08,1.32a.6.6,0,1,1,.68.51A.6.6,0,0,1,679.46,414.66Zm-.9-.22a.3.3,0,0,1,.59-.09.3.3,0,1,1-.59.09Zm-3-9.82a.72.72,0,1,1,.82.6A.73.73,0,0,1,675.52,404.62Zm-.81-.61a.37.37,0,0,1,.3-.4.35.35,0,1,1-.3.4Z" style="fill:#fafafa"></path><path d="M681.22,398.67c.91.53,4.53.17,4.53.17a6.15,6.15,0,0,0,5,1c2.69-.77.7-2.14.7-2.14s6.27-.21,7.21-2.23-2-2.26-2-2.26a3.6,3.6,0,0,0-3.82-4.07,3,3,0,0,0-5.73-1.74,2.94,2.94,0,0,0-3.72,4.26c-.59-.62-1.73-.21-2.14.55a4.15,4.15,0,0,0-.17,2.52S680.32,398.14,681.22,398.67Zm14.49-7.25a.2.2,0,0,1-.17.23.21.21,0,0,1-.24-.17.21.21,0,0,1,.18-.23A.2.2,0,0,1,695.71,391.42Zm-.51,1a.4.4,0,0,1,.34-.47.41.41,0,0,1,.46.34.42.42,0,0,1-.34.47A.41.41,0,0,1,695.2,392.46Zm-2-.85a1,1,0,1,1,2-.3,1,1,0,0,1-2,.3Zm-7.93-1a.41.41,0,0,1,.35-.47.41.41,0,0,1,.12.82A.41.41,0,0,1,685.3,390.65Zm-.38-.55a1,1,0,0,1-.3-2,1,1,0,0,1,.3,2Zm-1.1.94a.59.59,0,0,1,.49-.66.58.58,0,0,1,.18,1.15A.59.59,0,0,1,683.82,391Z" style="fill:#fafafa"></path><path d="M634.77,380.43l-2.9,24.7s16,9.19,16.93,9.78a5.23,5.23,0,0,0,3.13.91c.77-.18,1.93-1.29,2.86-1.7s3.24-1,3.93-.79a15.9,15.9,0,0,0,5.22.66c2.24-.14,7.29,2.48,9.34.7a5,5,0,0,0,1.93-3.77s-4.78-1.12-5.62-2.22-5-5.7-5.57-6.81a29.43,29.43,0,0,1-1.26-4.79s6.31-.9,7.61-.63,2.54,1,5,1.49,7,.51,7.59-1.16.45-3.54.06-4c0,0-5.61-4.53-6.76-5.15S661.74,383,658.8,382s-14-6.51-24-1.59" style="fill:#aa6550"></path><path d="M673.51,393a12.48,12.48,0,0,0,.46-2.07c.28-1.11.73-1.95.6-2s-.8.69-1.11,1.91A2.87,2.87,0,0,0,673.51,393Z" style="fill:#894536"></path><path d="M654.14,409.67c0,.05.32.55,1,1.3a10.52,10.52,0,0,0,3.19,2.43,8.55,8.55,0,0,0,3.94.79,3.71,3.71,0,0,0,1.64-.27,7.92,7.92,0,0,0-1.63-.1,10,10,0,0,1-3.72-.9,13,13,0,0,1-3.16-2.22C654.67,410,654.2,409.61,654.14,409.67Z" style="fill:#894536"></path><path d="M662.57,392.9a4.4,4.4,0,0,0-.35,2.64,4.28,4.28,0,0,0,.8,2.54,17.72,17.72,0,0,0-.27-2.59A16.39,16.39,0,0,0,662.57,392.9Z" style="fill:#894536"></path><path d="M664.35,394c-.09-.11-.75.37-1.09,1.28s-.16,1.7,0,1.68.22-.71.52-1.5S664.46,394.13,664.35,394Z" style="fill:#894536"></path><path d="M681.7,397.15c0-.08-.36-.26-.88-.67a3.56,3.56,0,0,1-1.34-2.05,2.52,2.52,0,0,1,.63-2.27c.44-.46.87-.57.84-.65s-.49-.09-1.09.38a2.58,2.58,0,0,0-.78,1.05,2.91,2.91,0,0,0-.12,1.59,3.46,3.46,0,0,0,1.65,2.26C681.23,397.15,681.68,397.21,681.7,397.15Z" style="fill:#894536"></path><path d="M690.09,427.07a1.59,1.59,0,1,0,1.33-1.81A1.6,1.6,0,0,0,690.09,427.07Z" style="fill:#fafafa"></path><path d="M708.27,402.44a1.49,1.49,0,1,0,1.25-1.69A1.49,1.49,0,0,0,708.27,402.44Z" style="fill:#fafafa"></path><path d="M500.08,236.19s25-10.14,30.81,26.71,7.9,51.78,7.9,51.78L486.14,333.9l-12.07-54.27S472,243.81,500.08,236.19Z" style="fill:#FA9805"></path><path d="M475.82,287.48s.09.29.22.84.33,1.4.58,2.47c.5,2.18,1.23,5.35,2.15,9.38,1.83,8.13,4.44,19.72,7.59,33.68l-.29-.16,53-19.66,1.54-.57-.16.28c-2.25-14-4.53-27.31-6.82-39.35-1.16-6-2.28-11.74-3.62-17a35.29,35.29,0,0,0-6.5-13.46,20.59,20.59,0,0,0-4.86-4.35,17.15,17.15,0,0,0-5.36-2.22,23.05,23.05,0,0,0-9.3.13,56.72,56.72,0,0,0-5.76,1.46l-1.47.46-.51.14a4.15,4.15,0,0,1,.49-.19l1.46-.51a52.9,52.9,0,0,1,5.75-1.56,23.18,23.18,0,0,1,9.4-.21,17.08,17.08,0,0,1,5.48,2.23,20.75,20.75,0,0,1,5,4.39,35.51,35.51,0,0,1,6.64,13.58c1.36,5.28,2.49,11,3.67,17,2.32,12.05,4.61,25.35,6.86,39.36l0,.21-.2.08-1.55.57-53,19.58-.24.09-.05-.25c-3.07-14-5.62-25.58-7.4-33.71-.88-4.05-1.56-7.22-2-9.41l-.51-2.48C475.86,287.78,475.82,287.48,475.82,287.48Z" style="fill:#263238"></path><path d="M536.14,315.39s.07.25.19.75.28,1.24.5,2.19l1.91,8.49c1.64,7.4,4,18.12,7,31.44l-.13-.13,89.25,22.05-.17,0a20.75,20.75,0,0,1,9-2,31.21,31.21,0,0,1,9.39,1.48c2.76.8,5.3,2.05,8,2.82l8,2.49,3.93,1.25,2,.65,1,.34a3.75,3.75,0,0,1,1,.48c2.25,1.57,4.32,3.27,6.41,4.93l0,0h0a1.89,1.89,0,0,1,.32.89,4.75,4.75,0,0,1,.06.84,8.41,8.41,0,0,1-.16,1.66c-.06.27-.13.54-.21.8a1.94,1.94,0,0,1-.22.43,2.06,2.06,0,0,1-.33.33,3.87,3.87,0,0,1-1.56.66,13.06,13.06,0,0,1-3.23.23,15.29,15.29,0,0,1-3.16-.41,24.86,24.86,0,0,1-3-.93,8.74,8.74,0,0,0-1.44-.43,7.27,7.27,0,0,0-1.48,0c-2,.12-4,.38-6,.65l.21-.29c.16.85.34,1.69.54,2.51a10.45,10.45,0,0,0,.77,2.35,48.14,48.14,0,0,0,3.12,3.88c.54.63,1.07,1.26,1.61,1.88l.78.94a2.88,2.88,0,0,0,.94.61,25,25,0,0,0,4.5,1.48l.18.05v.16a5.17,5.17,0,0,1-1.51,3.46,3.23,3.23,0,0,1-1.6,1,5.31,5.31,0,0,1-1.86.08,24.53,24.53,0,0,1-3.49-.73,10.33,10.33,0,0,0-3.35-.53,14.88,14.88,0,0,1-3.41-.31c-.55-.11-1.12-.26-1.62-.41a4.69,4.69,0,0,0-1.55.15,8.51,8.51,0,0,0-2.94,1.09c-.44.29-.86.61-1.32.89a3,3,0,0,1-.76.36,1.89,1.89,0,0,1-.85,0,7.74,7.74,0,0,1-2.89-1.2l-2.58-1.49-5-2.87-9-5.2.06,0L612,404.43l-5.26-.25-1.36-.07-.46,0h.46l1.36,0,5.27.17,19.86.71h0l0,0,9,5.17,5,2.85,2.59,1.49a7.49,7.49,0,0,0,2.75,1.13,1.71,1.71,0,0,0,1.36-.34c.43-.27.85-.59,1.3-.89a8.77,8.77,0,0,1,3.08-1.15,4.8,4.8,0,0,1,1.71-.15c.56.16,1.07.29,1.62.4a14.71,14.71,0,0,0,3.32.29,11,11,0,0,1,3.47.53,23.63,23.63,0,0,0,3.42.72,4.65,4.65,0,0,0,1.71-.08,2.73,2.73,0,0,0,1.39-.91,4.74,4.74,0,0,0,1.38-3.13l.17.21a26.37,26.37,0,0,1-4.61-1.5,3.68,3.68,0,0,1-1.08-.73l-.79-.94c-.53-.62-1.07-1.24-1.6-1.87-1.07-1.28-2.19-2.5-3.18-4a11.05,11.05,0,0,1-.83-2.47c-.2-.84-.38-1.68-.55-2.54l0-.25.25,0c2-.27,4-.53,6.06-.66a9.56,9.56,0,0,1,1.6,0,10.69,10.69,0,0,1,1.52.45,23.8,23.8,0,0,0,2.94.92,15.83,15.83,0,0,0,3.07.39,12.36,12.36,0,0,0,3.1-.22,3.52,3.52,0,0,0,1.36-.56,1.73,1.73,0,0,0,.23-.24,1.84,1.84,0,0,0,.15-.28c.07-.25.14-.5.19-.75a8.18,8.18,0,0,0,.16-1.56,3,3,0,0,0-.26-1.39l0,0c-2.08-1.65-4.17-3.36-6.37-4.9a7.77,7.77,0,0,0-1.81-.77l-1.94-.64-3.93-1.25-8-2.49c-2.72-.77-5.28-2-8-2.81a30.64,30.64,0,0,0-9.24-1.46,20.41,20.41,0,0,0-8.73,2l-.09,0-.09,0-89.22-22.2-.11,0,0-.11-6.8-31.48c-.79-3.69-1.4-6.55-1.82-8.5-.19-1-.35-1.7-.45-2.21S536.14,315.39,536.14,315.39Z" style="fill:#894536"></path><path d="M536.92,369.91a6.8,6.8,0,0,1,.73-2,23.21,23.21,0,0,1,6.45-8.17,6.89,6.89,0,0,1,1.81-1.19,35.23,35.23,0,0,0-9,11.39Z" style="fill:#894536"></path><path d="M553,359.47c-.13-.06,6.48-14.39,14.75-32s15.08-31.83,15.21-31.77-6.47,14.38-14.74,32S553.1,359.53,553,359.47Z" style="fill:#263238"></path><g style="opacity:0.30000000000000004"><path d="M477.9,316.69c0-5.78,1-12.34.39-18.09,2.64,11.87,5.22,23.43,7.85,35.3,2.12-.7,4.59-1.79,6.71-2.49,3,17.33,7.56,35,14.8,51l-.81.12c-10.54-10.76-14.91-15.79-19.4-42.79-5.52.2-7.5-.7-9.8-6C476.35,330.81,477.9,324.47,477.9,316.69Z"></path></g><g style="opacity:0.30000000000000004"><path d="M582,297.77s-3.13,42.72-17.26,47.34l-1.22-8Z"></path></g></g><g id="freepik--character-1--inject-76"><path d="M109.71,227.33a11,11,0,0,0-2.19-3.73,10.3,10.3,0,0,1-2.1-3.76,3.65,3.65,0,0,1,1.25-3.88,10.4,10.4,0,0,1-2.18-2.86,3.55,3.55,0,0,1,.14-3.45,2.18,2.18,0,0,1,3.14-.48,11.22,11.22,0,0,1,1.09-5c.88-1.51,2.76-2.58,4.38-2,.16-3.08,3.42-5.33,6.5-5.27s5.88,1.9,8.08,4.07,4,4.72,6.25,6.83c2.46,2.29,5.49,4.06,7.33,6.89,2.22,3.42,2.3,7.77,2.3,11.86l-18.87,21S111.36,233.67,109.71,227.33Z" style="fill:#455a64"></path><path d="M126.19,252.46s8.32,40.22,11.73,39.09,27.1-24.8,27.1-24.8L147.2,243.44Z" style="fill:#455a64"></path><path d="M111.54,212.31a3.44,3.44,0,0,1,1.37,1.74,5.73,5.73,0,0,1,.47,2.4,3.34,3.34,0,0,1-1.25,2.76,1.66,1.66,0,0,1-1.68,0,9.34,9.34,0,0,1-1.21-.78,16.74,16.74,0,0,1-1.79-1.59,8.64,8.64,0,0,1-1.47-1.63,9.77,9.77,0,0,1,1.72,1.36c.51.44,1.11,1,1.82,1.47s1.59,1.22,2.34.72a2.26,2.26,0,0,0,.79-1.05,4.47,4.47,0,0,0,.25-1.29,5.69,5.69,0,0,0-.33-2.24A12.6,12.6,0,0,0,111.54,212.31Z" style="fill:#263238"></path><path d="M112,219a4.92,4.92,0,0,1,1,1.51,6.11,6.11,0,0,1,.56,4.36,2.77,2.77,0,0,1-1.45,2.07,2.43,2.43,0,0,1-2.07-.2,3.39,3.39,0,0,1-1.35-1.24c.06-.08.57.43,1.52.91a2.08,2.08,0,0,0,1.7.09,2.35,2.35,0,0,0,1.14-1.74,6.3,6.3,0,0,0-.39-4.1A10,10,0,0,1,112,219Z" style="fill:#263238"></path><path d="M126.3,192.22l18.57,10.53,5,18.91-6.21,1.52-5.11-3.31-5.52,6.9-11.28-6.9,7-8.84s-.69-4.55-3-4-8.14,8.19-14.35,5.13V210A16.13,16.13,0,0,0,124,202.75s1.25-2.21.28-3.17a12.3,12.3,0,0,0-2.59-1.8Z" style="fill:#FA9805"></path><polyline points="121.72 197.78 118.35 194.62 121.72 190.05 126.3 192.22 121.72 197.78" style="fill:#FA9805"></polyline><path d="M126,191.92a15.86,15.86,0,0,1-4.54,5.69,19.79,19.79,0,0,1,2.19-2.91A18.85,18.85,0,0,1,126,191.92Z" style="fill:#263238"></path><path d="M122.48,219.87s-55.92,54.88-57.4,62.26,27.25,27.59,35.46,25.14c4.3-1.28,32.94-81.51,32.94-81.51Z" style="fill:#ebebeb"></path><path d="M122.48,219.87s.24.1.71.35l2.1,1.09,8.25,4.35.08.05,0,.09c-3.09,8.74-8,22.34-14.26,39-3.15,8.33-6.64,17.42-10.62,27-1,2.39-2,4.8-3.13,7.23a61.41,61.41,0,0,1-3.7,7.21,8.59,8.59,0,0,1-.64.85,2.05,2.05,0,0,1-.47.38,1.67,1.67,0,0,1-.55.16,4.34,4.34,0,0,1-1.07.12,6.31,6.31,0,0,1-1.06,0,19.11,19.11,0,0,1-4.09-.94,49.87,49.87,0,0,1-7.69-3.54,82.23,82.23,0,0,1-9.9-6.53,55.22,55.22,0,0,1-8.47-7.8A14.63,14.63,0,0,1,65,284a3.24,3.24,0,0,1-.16-.7,2.54,2.54,0,0,1,0-.73,3.87,3.87,0,0,1,.36-1.42c.23-.41.44-.83.68-1.22l.76-1.15c2.11-3,4.42-5.67,6.68-8.29,9.14-10.4,17.87-19.3,25.17-26.79s13.33-13.44,17.5-17.54l4.82-4.71,1.26-1.21c.29-.27.45-.4.45-.4s-.13.15-.41.43l-1.23,1.25c-1.1,1.11-2.69,2.72-4.75,4.78C112,230.48,106,236.49,98.71,244s-16,16.45-25.07,26.85c-2.25,2.61-4.55,5.32-6.63,8.25l-.74,1.13c-.24.38-.44.78-.66,1.17a3.32,3.32,0,0,0-.12,2.5,14,14,0,0,0,2.84,4.65,55.27,55.27,0,0,0,8.4,7.72,81.84,81.84,0,0,0,9.83,6.48,48.16,48.16,0,0,0,7.6,3.5,18.68,18.68,0,0,0,4,.93,6.69,6.69,0,0,0,1,0,3.48,3.48,0,0,0,1-.11,1,1,0,0,0,.75-.38,9.37,9.37,0,0,0,.59-.78,62.51,62.51,0,0,0,3.67-7.14c1.1-2.42,2.13-4.83,3.13-7.21,4-9.54,7.49-18.63,10.67-26.94,6.33-16.63,11.28-30.21,14.45-38.92l.06.14-8.14-4.43-2.1-1.15Z" style="fill:#263238"></path><path d="M107.8,208.68a4.35,4.35,0,0,0,3.14,3.61,3.49,3.49,0,0,0,3.91-1.08A6.73,6.73,0,0,0,116,207c2.25.55,4,1,5.4-.85s1.72-4.68,0-8.15" style="fill:#455a64"></path><path d="M113.24,202.16s.21.18.53.54.81.87,1.34,1.59a6.19,6.19,0,0,1,1.11,2.91,5.14,5.14,0,0,1-.86,3.74,4.39,4.39,0,0,1-3.44,1.69,4.16,4.16,0,0,1-4-3,1.44,1.44,0,0,1-.07-.76,5.43,5.43,0,0,0,1.39,2.32,3.77,3.77,0,0,0,2.63,1,4,4,0,0,0,3-1.52,4.78,4.78,0,0,0,.81-3.37,6.05,6.05,0,0,0-1-2.76c-.46-.72-.92-1.26-1.19-1.67S113.21,202.18,113.24,202.16Z" style="fill:#263238"></path><path d="M121.3,197.82a5,5,0,0,1,1.11,1.92,7.72,7.72,0,0,1,.5,2.37,5.93,5.93,0,0,1-.61,2.93,4.88,4.88,0,0,1-2,2.2,4.54,4.54,0,0,1-2.38.6,2.85,2.85,0,0,1-1.56-.58c-.3-.26-.41-.45-.39-.47a3.76,3.76,0,0,0,2,.68,4.7,4.7,0,0,0,4-2.66,6.66,6.66,0,0,0,.22-4.95C121.66,198.59,121.23,197.87,121.3,197.82Z" style="fill:#263238"></path><path d="M127.8,208.52a9.51,9.51,0,0,1-2.2-3.69,9.61,9.61,0,0,1-.87-4.21c.15,0,.5,1.85,1.35,4S127.93,208.43,127.8,208.52Z" style="fill:#263238"></path><path d="M116,216.35s8-8.37,10.51-8,15.1,5.09,16.08,8,4.6,27.09,4.6,27.09l-21,9a23.41,23.41,0,0,1-.82-14.93c2.3-8.21,5.42-16.25,5.42-16.25l-4.11-2.79S116.84,223.9,116,216.35Z" style="fill:#455a64"></path><path d="M122.45,220.1a2.41,2.41,0,0,1-.61.18,6.63,6.63,0,0,1-1.79.24,4.24,4.24,0,0,1-2.72-.81,4.36,4.36,0,0,1-1.53-3.36v-.09l.07-.06a67.65,67.65,0,0,1,8-7,9.22,9.22,0,0,1,1.79-1,1.86,1.86,0,0,1,.54-.13,1.29,1.29,0,0,1,.57.06l.93.27c1.22.37,2.38.76,3.48,1.16a55.54,55.54,0,0,1,5.71,2.44,25.23,25.23,0,0,1,3.6,2.15,9.63,9.63,0,0,1,.89.7c.2.18.3.27.29.29a14,14,0,0,1-1.29-.83,34.36,34.36,0,0,0-3.65-2c-1.59-.75-3.52-1.54-5.71-2.32-1.1-.38-2.26-.77-3.47-1.12l-.91-.26a.82.82,0,0,0-.39-.05,1.8,1.8,0,0,0-.41.11,8,8,0,0,0-1.67.94,74.64,74.64,0,0,0-8,6.9l.06-.15a3.67,3.67,0,0,0,3.83,3.91,8.24,8.24,0,0,0,1.76-.12A1.78,1.78,0,0,1,122.45,220.1Z" style="fill:#263238"></path><path d="M131.42,221.64a8.8,8.8,0,0,1-2.65-1.43,9.9,9.9,0,0,1-2.41-1.89,8.57,8.57,0,0,1,2.65,1.43A9.06,9.06,0,0,1,131.42,221.64Z" style="fill:#263238"></path><path d="M144,233.63a6,6,0,0,1-.28,2.16,13.77,13.77,0,0,1-6.2,8.25,5.72,5.72,0,0,1-2,.87c0-.08.71-.43,1.8-1.18a15.88,15.88,0,0,0,6-8A19.71,19.71,0,0,1,144,233.63Z" style="fill:#263238"></path><path d="M144.1,244.5a27.26,27.26,0,0,1-2.24,1.82,37.74,37.74,0,0,0-4.9,4.88,37.13,37.13,0,0,0-3.86,5.74,26.7,26.7,0,0,1-1.36,2.55,10.67,10.67,0,0,1,1-2.71A29.39,29.39,0,0,1,141.64,246,11.18,11.18,0,0,1,144.1,244.5Z" style="fill:#263238"></path><path d="M210.69,129.82c-.07-3.85-4.46-6.57-8.26-5.93s-6.75,3.73-8.53,7.14-3.82,8.14-5.92,11.36c-8.38,12.84-9.88,17.12-12.46,27.14-1.82,7-.15,14.83,1.76,21.85s5.09,13.61,8.52,20a74.09,74.09,0,0,1,5.61,11.93c1.35,4.19,1.81,8.81.39,13a2.39,2.39,0,0,0-.17,1.73c.38.83,1.54.86,2.43.64,4.42-1.14,17.79-1.91,18.55-6.42s-10.71-12.69-12.32-17-3.69-8.39-4.88-12.8c-2.61-9.65-.8-19.86-.35-29.85.26-5.63.08-11.32,1.2-16.85s3.75-11,8.42-14.17c1.81-1.23,3.91-2.09,5.44-3.66s2.31-4.24.92-5.94" style="fill:#263238"></path><path d="M207.38,238.67s.13-5.83.13-5.77-17.27-3.29-20.33-26c-1.52-11.29-.52-29.72.79-44.77,1.17-13.55,10.56-30,24-28.24l42,11.67c4.1.53,5.45,4,5.27,8.17l.29,1.94L256,220.41l-.87,15.44c-.62,12.3-12.49,41.42-25.68,41.77h0C216.76,278.29,207.38,272.46,207.38,238.67Z" style="fill:#c69481"></path><path d="M192.25,179a2.91,2.91,0,0,0,2.72,3,2.79,2.79,0,0,0,3.06-2.55,2.9,2.9,0,0,0-2.73-3A2.76,2.76,0,0,0,192.25,179Z" style="fill:#263238"></path><path d="M221.14,181.07a2.9,2.9,0,0,0,2.73,3,2.77,2.77,0,0,0,3-2.54,2.91,2.91,0,0,0-2.72-3A2.79,2.79,0,0,0,221.14,181.07Z" style="fill:#263238"></path><path d="M191.86,172.45c.35.38,2.58-1.19,5.71-1.11s5.37,1.7,5.72,1.33c.17-.17-.19-.86-1.16-1.61a8,8,0,0,0-4.57-1.53,7.7,7.7,0,0,0-4.56,1.35C192,171.6,191.68,172.27,191.86,172.45Z" style="fill:#263238"></path><path d="M222.51,174.64c.35.39,2.59-1.19,5.71-1.1s5.37,1.69,5.72,1.32c.17-.17-.18-.86-1.16-1.61a8,8,0,0,0-4.57-1.53,7.66,7.66,0,0,0-4.55,1.36C222.68,173.79,222.34,174.47,222.51,174.64Z" style="fill:#263238"></path><path d="M210.54,196c0-.18-1.92-.56-5-1-.8-.1-1.55-.28-1.67-.82a4.09,4.09,0,0,1,.59-2.35l2.5-6c3.48-8.56,6-15.61,5.67-15.75s-3.45,6.7-6.93,15.26c-.83,2.11-1.64,4.13-2.4,6a4.69,4.69,0,0,0-.49,3.12,2,2,0,0,0,1.29,1.2,5.63,5.63,0,0,0,1.35.22C208.56,196.13,210.52,196.19,210.54,196Z" style="fill:#263238"></path><path d="M207.51,232.9A57.58,57.58,0,0,0,238,225.54s-8,15.78-30.61,13.13Z" style="fill:#936457"></path><path d="M222.58,163.75c.36.83,3.44.24,7.13.45s6.7,1,7.14.24c.19-.38-.37-1.14-1.61-1.89a12.39,12.39,0,0,0-10.88-.52C223.06,162.65,222.42,163.36,222.58,163.75Z" style="fill:#263238"></path><path d="M192.33,162.82c.63.73,3.19.05,6.25.09s5.64.61,6.26-.12c.27-.35-.13-1.07-1.24-1.77a10,10,0,0,0-5.06-1.28,9.74,9.74,0,0,0-5,1.31C192.42,161.75,192.05,162.47,192.33,162.82Z" style="fill:#263238"></path><path d="M213.64,202.3a4.7,4.7,0,0,1,3.53-1.77,5.56,5.56,0,0,1,4.07,1.95l.07.07.15.15-.06,0a2.67,2.67,0,0,1,.7,1.53,4,4,0,0,1-1.69,3.28,5,5,0,0,1-5.72.23A4.07,4.07,0,0,1,213.64,202.3Z" style="fill:#936457"></path><path d="M221,199.54c-.19,0-.33.72-.83,1.75a7.23,7.23,0,0,1-7,4.2c-1.14-.05-1.86-.27-1.93-.11s.56.66,1.82.94a6.79,6.79,0,0,0,7.93-4.73C221.28,200.34,221.11,199.54,221,199.54Z" style="fill:#263238"></path><path d="M206.86,134.27c.41,2.25-.8,4.53-2.46,6.11a34.41,34.41,0,0,1-5.68,3.82c-6,3.77-9,12-11.83,18.51-5-9.46,2.68-21.72,9-29.11a13.88,13.88,0,0,1,3.94-3.43,5.79,5.79,0,0,1,5.06-.3" style="fill:#263238"></path><path d="M298.32,221c-13.25-40.18-21.47-12.5-20.05-53.36.37-10.76-12.67-26-19.87-34-8.55-9.49-21.52-14.38-34.3-14.56-4.74-.07-9.73.55-13.6,3.29s-6.18,8.13-4.18,12.44l.35,3c2.66,5,9.1,6.51,14.78,6.82s11.84.14,16.4,3.54c3.82,2.84,5.64,7.59,7.26,12.08,5.21,14.37-7.27,20.37,6.39,26.08,7.85,3.27-5.59,31.75-5.59,31.75a13.57,13.57,0,0,0,.27,14.13L298.32,221S298.33,221.05,298.32,221Z" style="fill:#263238"></path><path d="M252.24,188.33c.35-4.81,5.66-7.91,9.78-5.41,2.26,1.37,4,4.07,3.63,9.18-.85,13.61-14.34,10-14.34,9.56S251.84,194,252.24,188.33Z" style="fill:#c69481"></path><path d="M255.79,196.76c.06,0,.23.18.62.39a2.39,2.39,0,0,0,1.77.15c1.47-.44,2.82-2.65,3-5.1a7.87,7.87,0,0,0-.45-3.44,2.74,2.74,0,0,0-1.67-1.93,1.21,1.21,0,0,0-1.44.56c-.21.37-.14.65-.21.67s-.28-.25-.13-.8a1.47,1.47,0,0,1,.59-.82,1.79,1.79,0,0,1,1.33-.27,3.35,3.35,0,0,1,2.34,2.27,8,8,0,0,1,.59,3.85c-.26,2.73-1.83,5.21-3.83,5.66a2.52,2.52,0,0,1-2.14-.5C255.79,197.09,255.74,196.78,255.79,196.76Z" style="fill:#263238"></path><path d="M250.6,206.05s-.09.27,0,.75a3,3,0,0,0,1.23,1.67,3.36,3.36,0,0,0,3.06.35,4.53,4.53,0,0,0,2.68-2.64,6.33,6.33,0,0,0,.23-3.75,6.44,6.44,0,0,0-1.41-2.71,3.42,3.42,0,0,0-2.41-1.34,7,7,0,0,1,2.07,1.63,6.29,6.29,0,0,1,1.18,2.55A6,6,0,0,1,257,206a4,4,0,0,1-2.3,2.33,3,3,0,0,1-2.62-.18,3.1,3.1,0,0,1-1.24-1.38C250.68,206.31,250.65,206,250.6,206.05Z" style="fill:#fff"></path><path d="M267.17,223.74a4.36,4.36,0,0,0,1.36-.41,4.84,4.84,0,0,0,2.32-3.19c.5-1.73-.11-4-1.42-6.11-.64-1.09-1.44-2.19-2.23-3.41a13.88,13.88,0,0,1-1.95-4.18,7.43,7.43,0,0,1,.58-5,25.87,25.87,0,0,1,3-4.58,16.72,16.72,0,0,0,2.86-5,13.17,13.17,0,0,0,.46-6,12.57,12.57,0,0,0-2.48-5.81,22.86,22.86,0,0,0-5.05-4.39,29.35,29.35,0,0,1-5.46-4.51,16.54,16.54,0,0,1-3.28-6.52c-1.27-4.79-1.28-9.64-2.42-14.08A24.85,24.85,0,0,0,247,139.23a30.26,30.26,0,0,0-9.84-6.63,33.91,33.91,0,0,0-10.11-2.38A39.27,39.27,0,0,0,212.16,132c-1.71.54-3,1-3.88,1.4l-1,.4a1.7,1.7,0,0,1-.35.12,35.17,35.17,0,0,1,5.16-2.11,38.8,38.8,0,0,1,15-1.94,34.19,34.19,0,0,1,10.24,2.35,30.55,30.55,0,0,1,10,6.69A25.44,25.44,0,0,1,254,150.42c1.16,4.52,1.17,9.37,2.42,14.06a16,16,0,0,0,3.18,6.32,28.65,28.65,0,0,0,5.35,4.43,23.67,23.67,0,0,1,5.15,4.5,13.08,13.08,0,0,1,2.56,6.05,13.4,13.4,0,0,1-.5,6.22,16.86,16.86,0,0,1-2.94,5.1,25.72,25.72,0,0,0-3,4.49,7.13,7.13,0,0,0-.58,4.77,13.6,13.6,0,0,0,1.87,4.08c.77,1.22,1.57,2.33,2.2,3.44,1.31,2.19,1.92,4.53,1.37,6.31a5,5,0,0,1-2.47,3.24,3.54,3.54,0,0,1-1,.3A1.47,1.47,0,0,1,267.17,223.74Z" style="fill:#e0e0e0"></path><path d="M275.8,158.89a10.9,10.9,0,0,1,5.51-10,10.71,10.71,0,0,1,11.37.81,10.54,10.54,0,0,1,3.78,10.73A10.36,10.36,0,0,1,288,168c-4.71.6-9.16-2.14-13-5" style="fill:#263238"></path><path d="M235.82,191.12c-.08,0-.47-.81-1.49-1.88a8.55,8.55,0,0,0-10.45-1.62c-1.29.7-1.92,1.4-2,1.33s.11-.21.4-.52a7.28,7.28,0,0,1,1.41-1.13A8.41,8.41,0,0,1,234.6,189a6.88,6.88,0,0,1,1,1.51C235.79,190.88,235.85,191.11,235.82,191.12Z" style="fill:#936457"></path><path d="M251.92,186.23a8,8,0,0,1-.26-.77,17.32,17.32,0,0,1-.44-2.29,51.58,51.58,0,0,1,0-8.53,43.92,43.92,0,0,0-1.14-12.48,29.32,29.32,0,0,0-7.16-13.38A23.76,23.76,0,0,0,236.6,144a22.76,22.76,0,0,0-7-2.2c-4.68-.72-9-.69-12.56-1.45a19,19,0,0,1-7.86-3.27,11.22,11.22,0,0,1-1.71-1.58,5.12,5.12,0,0,1-.5-.65,17.79,17.79,0,0,0,2.33,2.06,19.52,19.52,0,0,0,7.81,3.08c3.52.71,7.82.64,12.56,1.33a23.26,23.26,0,0,1,7.18,2.22,24.24,24.24,0,0,1,6.46,4.84A29.5,29.5,0,0,1,250.53,162a42.88,42.88,0,0,1,1.05,12.62,54.63,54.63,0,0,0-.15,8.49,22,22,0,0,0,.33,2.28A3.61,3.61,0,0,1,251.92,186.23Z" style="fill:#e0e0e0"></path><path d="M295.66,153.36a2.63,2.63,0,0,1-.46.78,13.78,13.78,0,0,1-1.62,1.85,17.88,17.88,0,0,1-6.87,4.25,13.11,13.11,0,0,1-8-.46,10.59,10.59,0,0,1-2.19-1.12c-.48-.32-.72-.53-.7-.56s1.09.68,3,1.34a13.59,13.59,0,0,0,7.77.3,19.26,19.26,0,0,0,6.77-4C294.86,154.37,295.58,153.31,295.66,153.36Z" style="fill:#e0e0e0"></path><path d="M295.43,162.91s-.24.18-.72.41a14.42,14.42,0,0,1-2.12.79,17.78,17.78,0,0,1-7.41.61,17.1,17.1,0,0,1-4-1.08,15.13,15.13,0,0,1-2.95-1.63,12.44,12.44,0,0,1-1.73-1.45c-.37-.38-.56-.6-.54-.63s.9.76,2.48,1.78a17.17,17.17,0,0,0,2.92,1.49,18.64,18.64,0,0,0,3.88,1,19.74,19.74,0,0,0,7.25-.44C294.32,163.3,295.4,162.83,295.43,162.91Z" style="fill:#e0e0e0"></path><path d="M278.15,163.93a3.14,3.14,0,0,1-.66.72A6.36,6.36,0,0,1,275,166a8.29,8.29,0,0,1-4.45,0,10.68,10.68,0,0,1-4.95-3.18,18.86,18.86,0,0,1-3.57-6.19c-.91-2.42-1.56-5.08-2.45-7.8-1.77-5.42-4.16-11.41-8.5-16.41a25.16,25.16,0,0,0-7.49-5.89,29.11,29.11,0,0,0-8.47-2.78,37.21,37.21,0,0,0-15.07.76,58,58,0,0,0-9.68,3.41c-1.11.5-2,.91-2.53,1.19l-.66.31a.76.76,0,0,1-.23.09s.06,0,.2-.14l.64-.35c.56-.31,1.4-.75,2.5-1.28a52.66,52.66,0,0,1,9.67-3.58,36.74,36.74,0,0,1,15.23-.88,29.39,29.39,0,0,1,8.63,2.79,25.67,25.67,0,0,1,7.65,6,36.26,36.26,0,0,1,5.28,8.17,62.47,62.47,0,0,1,3.28,8.43c.89,2.75,1.52,5.41,2.41,7.8a18.49,18.49,0,0,0,3.44,6.09,10.32,10.32,0,0,0,4.75,3.15,8.29,8.29,0,0,0,4.31.05,6.47,6.47,0,0,0,2.46-1.23C277.92,164.18,278.13,163.9,278.15,163.93Z" style="fill:#e0e0e0"></path><polygon points="163.84 268.03 192.34 290.49 175.79 326.67 143.55 287.36 163.84 268.03" style="fill:#FA9805"></polygon><g style="opacity:0.30000000000000004"><polygon points="163.84 268.03 192.34 290.49 175.79 326.67 143.55 287.36 163.84 268.03"></polygon></g><path d="M186.13,281.82c-10.29,13.18-14.66,23.76-17.76,41-3.58,19.9.26,60.81.26,60.81l-7.06,73.55H302c9-17.44-18.54-71.7-22.68-78.6-5-8.38,9.15-52.39,14.7-73.33,3.25-12.27,4.64-23.77,1.47-35.3a34.54,34.54,0,0,0-14.13-19.44l-25.48-15.26c-.68,0-29.68,23.2-40.57,23.61-8.82.32-7-12.68-7-12.68Z" style="fill:#FA9805"></path><path d="M294.25,288.65S239.43,324.9,223,333.46c-16.73,8.7-47.55,17-59.91,13.83-25.32-6.55-74.74-75.93-74.35-77.58,2.06-8.66,15-19.56,15-19.56l69.95,40.34c7.79-1,57.5-19.16,75.58-32.48" style="fill:#FA9805"></path><path d="M93,276.54s.12.16.33.48.5.81.91,1.43c.81,1.25,2.07,3.05,3.73,5.34,3.33,4.58,8.35,11.07,14.81,18.86s14.33,16.94,23.72,26.47c2.35,2.38,4.81,4.76,7.43,7.08a43.31,43.31,0,0,0,8.57,6.29l4.91,2.5a29.82,29.82,0,0,0,5.08,2.24,20,20,0,0,0,5.52.9,20.62,20.62,0,0,0,2.83-.13c.94-.11,1.89-.28,2.84-.42A257.94,257.94,0,0,0,216,337.7a314.7,314.7,0,0,0,33.08-13c9.22-4.18,16.56-7.83,21.63-10.35l5.83-2.93,1.52-.75c.34-.17.52-.24.52-.24a5.63,5.63,0,0,1-.5.29l-1.49.8c-1.35.69-3.29,1.71-5.79,3-5,2.57-12.36,6.28-21.56,10.51a310.46,310.46,0,0,1-33.09,13.09,254.43,254.43,0,0,1-42.41,9.94c-1,.14-1.9.31-2.86.43a21.73,21.73,0,0,1-2.9.13,20.75,20.75,0,0,1-5.67-.92,31,31,0,0,1-5.15-2.28l-4.91-2.51a44.14,44.14,0,0,1-8.67-6.36c-2.62-2.34-5.09-4.74-7.44-7.12-9.39-9.57-17.21-18.77-23.66-26.58s-11.41-14.35-14.69-19c-1.64-2.31-2.87-4.14-3.65-5.41S93,276.54,93,276.54Z" style="fill:#263238"></path><path d="M170.05,314a25.25,25.25,0,0,1,.2-3.49c.17-2.14.42-5.11.82-8.38a68.85,68.85,0,0,1,1.47-8.31c.26-1.05.52-1.89.72-2.45a2.92,2.92,0,0,1,.37-.87c.08,0-.3,1.3-.73,3.4s-.92,5-1.32,8.29-.7,6.08-1,8.36A20.46,20.46,0,0,1,170.05,314Z" style="fill:#263238"></path><path d="M175.14,314a22.76,22.76,0,0,1-.29-3.45c-.1-2.27-.22-5.14-.35-8.32s-.36-6.18-.57-8.29a29.64,29.64,0,0,1-.3-3.44,3.29,3.29,0,0,1,.24.9c.13.58.27,1.43.43,2.49.3,2.12.58,5.06.72,8.32s.18,6.2.2,8.33A22.72,22.72,0,0,1,175.14,314Z" style="fill:#263238"></path><path d="M293.18,284.14a1.59,1.59,0,0,1,.07-.38l.24-1.12c.12-.48.14-1.11.24-1.83s.06-1.58.07-2.52a36.66,36.66,0,0,0-4.18-15.41,26.43,26.43,0,0,0-2.93-4.42,20.59,20.59,0,0,0-1.93-2,13.81,13.81,0,0,0-2.38-1.65,27,27,0,0,0-12.29-2.67,41.85,41.85,0,0,0-13.75,2.62,80.5,80.5,0,0,0-13.55,6.72c-4.46,2.67-8.69,5.49-12.93,8A131,131,0,0,1,217.31,276a193.8,193.8,0,0,1-22.41,8.54c-6.51,2-11.84,3.5-15.53,4.49l-4.25,1.11-1.11.27-.38.08a1.88,1.88,0,0,1,.37-.13l1.09-.32,4.23-1.2c3.66-1,9-2.56,15.47-4.65a201.23,201.23,0,0,0,22.31-8.63A129.17,129.17,0,0,0,229.6,269c4.22-2.49,8.45-5.32,12.92-8a79.68,79.68,0,0,1,13.64-6.76,42,42,0,0,1,13.93-2.62,27.27,27.27,0,0,1,12.49,2.77A14,14,0,0,1,285,256.1a20.25,20.25,0,0,1,2,2.1,26.32,26.32,0,0,1,2.94,4.51A36.11,36.11,0,0,1,294,278.28c0,1,0,1.81-.12,2.54a16.72,16.72,0,0,1-.29,1.84c-.12.47-.22.84-.29,1.11A1.61,1.61,0,0,1,293.18,284.14Z" style="fill:#263238"></path><g style="opacity:0.30000000000000004"><path d="M180.53,346.57h0c34,7,67.56-5.74,90.2-32.09C240.93,329.46,213.35,340.66,180.53,346.57Z"></path></g><path d="M256.77,377.75a2.4,2.4,0,0,1-.62.17l-1.83.39c-1.58.32-3.87.8-6.69,1.41-5.65,1.23-13.42,3.09-21.89,5.54s-16,5-21.45,7c-2.72,1-4.91,1.81-6.42,2.39l-1.74.65a2.92,2.92,0,0,1-.63.19,3,3,0,0,1,.59-.29l1.71-.74c1.48-.63,3.66-1.51,6.36-2.54,5.4-2.07,13-4.71,21.44-7.18s16.28-4.26,22-5.4c2.84-.57,5.14-1,6.74-1.25l1.84-.29A3.09,3.09,0,0,1,256.77,377.75Z" style="fill:#263238"></path><g style="opacity:0.30000000000000004"><path d="M173.52,291.5a.29.29,0,0,1,0,.09h0Z"></path><path d="M173.63,290.49A67.64,67.64,0,0,0,171,312c.09,2,.55,4.42,2.42,5.19C175.37,308.81,174.83,299.1,173.63,290.49Z"></path></g><path d="M115.66,262.77a1.22,1.22,0,0,1,0,1.15,2.68,2.68,0,0,1-1.55,1.21,5.59,5.59,0,0,1-2.85.16,8.36,8.36,0,0,1-1.61-.47c-.55-.23-1-.44-1.44-.65a4.58,4.58,0,0,0-1.91-.68c-.26.11-.15.27-.49.43s-.89.47-1.63.95-1.76,1.21-3.15,2a14.07,14.07,0,0,1-5.46,1.88,10.67,10.67,0,0,1-3.26-.16,11.45,11.45,0,0,1-2.67-.89,15,15,0,0,1-3.4-2.26,25.47,25.47,0,0,1-2-1.94c-1.06-1.15-1.63-1.88-2.23-2.58l-.43-.5a5.71,5.71,0,0,1-.39-.47,2.37,2.37,0,0,1-.49-1,1.38,1.38,0,0,1,.28-1.07,2.66,2.66,0,0,1,.56-.55,4,4,0,0,1,.85-.43,8.93,8.93,0,0,1,5.43.18c1,.28,2,.64,2.86,1a12.87,12.87,0,0,0,2.38.7,1.77,1.77,0,0,0,1.12-.09,11.17,11.17,0,0,0,1.71-.83c.91-.51,2-1.21,3.48-1.95a14.4,14.4,0,0,1,5.1-1.46,9.92,9.92,0,0,1,3.05.23,8.72,8.72,0,0,1,2.77,1.19,9.64,9.64,0,0,1,3.45,4.19l.53,1.06a3.67,3.67,0,0,0,.64.88A4.28,4.28,0,0,1,115.66,262.77Z" style="fill:#FA9805"></path><path d="M85.51,209.82c-.34-1.79-1.74-3.16-3.16-4.29a47.73,47.73,0,0,0-14.15-7.41c-4-1.38-8.12-2.47-12.3-2.13s-8.4,2.29-10.6,5.86c-1.94,3.14-2.11,7.09-3.77,10.39-2.37,4.7-7.38,7.42-10.76,11.45A20.24,20.24,0,0,0,27,242.5c2.63,8.25,10.17,13.78,17.27,18.73a16,16,0,0,0,6.12,3.07c3.31.59,6.7-1,9.11-3.32s4-5.35,5.58-8.32l14.57-34.24C82.22,216.47,86.12,213,85.51,209.82Z" style="fill:#ebebeb"></path><path d="M85.51,209.82a3.13,3.13,0,0,1,.09.7,4.89,4.89,0,0,1-.48,2c-.74,1.71-2.59,3.8-5.36,5.95l0,0c-3.23,7.64-8.28,19.61-14.47,34.28h0c-1.66,3.13-3.41,6.58-6.46,9.14a12.09,12.09,0,0,1-5.36,2.62,9,9,0,0,1-3.1,0,10.33,10.33,0,0,1-3-1A53.42,53.42,0,0,1,42.16,260c-1.73-1.23-3.46-2.51-5.14-3.9a33.86,33.86,0,0,1-8.73-10,21.1,21.1,0,0,1-1.83-4.71,19.38,19.38,0,0,1-.57-5,20.86,20.86,0,0,1,2.35-9.4,20.14,20.14,0,0,1,2.7-3.91,37.42,37.42,0,0,1,3.33-3.23c2.28-2,4.61-3.92,6.2-6.32s2.17-5.21,3-7.85a16.91,16.91,0,0,1,1.57-3.8,11.27,11.27,0,0,1,2.64-3,14.88,14.88,0,0,1,6.91-3,21.41,21.41,0,0,1,6.94.15,41.41,41.41,0,0,1,6.08,1.63c1.88.65,3.63,1.33,5.23,2a44.54,44.54,0,0,1,7.85,4.37A15.35,15.35,0,0,1,84.8,208a5,5,0,0,1,.61,1.34,2.6,2.6,0,0,1,.1.5,6,6,0,0,0-.8-1.79,15.7,15.7,0,0,0-4.18-3.73A45.42,45.42,0,0,0,72.69,200c-1.6-.69-3.35-1.36-5.22-2a40.66,40.66,0,0,0-6-1.57,20.66,20.66,0,0,0-6.81-.12,14.47,14.47,0,0,0-6.71,2.89,10.78,10.78,0,0,0-2.52,2.89,16.43,16.43,0,0,0-1.52,3.71c-.78,2.61-1.29,5.52-3,8s-4,4.41-6.27,6.42a37.91,37.91,0,0,0-3.28,3.19,19.44,19.44,0,0,0-2.62,3.82,20.27,20.27,0,0,0-2.29,9.17,19.31,19.31,0,0,0,.55,4.83,20.91,20.91,0,0,0,1.79,4.59,33.43,33.43,0,0,0,8.6,9.89c1.66,1.37,3.39,2.65,5.11,3.88a53.8,53.8,0,0,0,5.21,3.44,10.05,10.05,0,0,0,2.81,1,8.24,8.24,0,0,0,2.93,0,11.49,11.49,0,0,0,5.15-2.5c2.95-2.46,4.69-5.86,6.36-9v0l14.66-34.2v0l0,0c2.77-2.11,4.63-4.16,5.39-5.82A4.75,4.75,0,0,0,85.51,209.82Z" style="fill:#263238"></path><path d="M53.67,239.64a19.89,19.89,0,0,1-2,2.47c-1.29,1.48-3.09,3.51-5.1,5.72s-4,4.11-4.75,5.89a6.79,6.79,0,0,0-.56,3,4.19,4.19,0,0,1,.22-3.17c.72-1.94,2.74-3.87,4.7-6.1s3.86-4.2,5.22-5.62A18.65,18.65,0,0,1,53.67,239.64Z" style="fill:#263238"></path><path d="M79.69,218.42c.16.94,9.82,11.57,9.82,11.57l8.68,14.91L82.64,262.58l-21.45-9.82S47,249.9,43.9,249.37c-2.42-.4-2.69-3-1.38-3.65s16.7.49,16.7-1.31S37.9,229.78,35.86,227.16c-1.41-1.82-1.52-4.53,1.92-3.71s12.11,4.39,12.11,4.39-12.28-8-11-10.77,3-1.08,6.16-.26,12.52,6.83,12.52,6.83c-.23.08-13-8.76-10-12.47,1.09-1.33,3.28-.44,7.31,2.09s18.74,10.61,20.7,9.47S79.69,218.42,79.69,218.42Z" style="fill:#455a64"></path><path d="M82.64,262.58s16.75,30.81,19.33,30,28.16-28.16,28.16-28.16L98.19,244.9Z" style="fill:#455a64"></path><path d="M93.27,247.86a10.24,10.24,0,0,1-2.4,1.15,34.21,34.21,0,0,1-6.16,1.77,35.83,35.83,0,0,1-6.38.61,10.76,10.76,0,0,1-2.65-.2,19.4,19.4,0,0,1,2.64-.17,48.82,48.82,0,0,0,6.29-.75,50,50,0,0,0,6.14-1.6A18,18,0,0,1,93.27,247.86Z" style="fill:#263238"></path><path d="M93,252.07a14.45,14.45,0,0,1-4.57,2.28,14.77,14.77,0,0,1-5,1.06c0-.15,2.2-.63,4.83-1.55S92.93,251.94,93,252.07Z" style="fill:#263238"></path><path d="M78.68,222.14a14.53,14.53,0,0,1-5.06,2.68,14.68,14.68,0,0,1-5.65,1c0-.16,2.52-.47,5.48-1.5S78.6,222,78.68,222.14Z" style="fill:#263238"></path><path d="M64.36,236.79a11.32,11.32,0,0,1-2.64-.81,36,36,0,0,1-6-3,36.49,36.49,0,0,1-5.35-4,10.75,10.75,0,0,1-1.91-2,22.84,22.84,0,0,1,2.15,1.72A50,50,0,0,0,56,232.57a51.06,51.06,0,0,0,5.85,3.07A18.77,18.77,0,0,1,64.36,236.79Z" style="fill:#263238"></path><path d="M68.1,229.6a8.53,8.53,0,0,1-2.34-.66,38.59,38.59,0,0,1-5.33-2.45,37.68,37.68,0,0,1-4.88-3.24,9.15,9.15,0,0,1-1.8-1.64,14.6,14.6,0,0,1,2,1.34c1.22.85,2.94,2,4.92,3.08a56.28,56.28,0,0,0,5.21,2.56A16.45,16.45,0,0,1,68.1,229.6Z" style="fill:#263238"></path><path d="M77.8,209.25s0-.15-.15-.4a1.4,1.4,0,0,0-.94-.67,1.33,1.33,0,0,0-1.54.7,2.15,2.15,0,0,0,.23,2.31,4.27,4.27,0,0,0,2.58,1.5,3.42,3.42,0,0,0,3.19-.83,3.38,3.38,0,0,0,.3-3.57,6.49,6.49,0,0,0-2.67-3.13,4.13,4.13,0,0,0-3.94-.22,9.2,9.2,0,0,0-3,2.5A38,38,0,0,0,68,213a45.42,45.42,0,0,0-2.08,4.13,12.38,12.38,0,0,1-.7,1.55,1.59,1.59,0,0,1,.11-.43c.08-.28.22-.68.41-1.2a33.72,33.72,0,0,1,1.93-4.23,37.05,37.05,0,0,1,3.85-5.73,9.35,9.35,0,0,1,3.18-2.65,4.58,4.58,0,0,1,2.2-.45,4.93,4.93,0,0,1,2.21.68A7,7,0,0,1,82,208.1a5,5,0,0,1,.37,2.13,3.07,3.07,0,0,1-.8,2,3.86,3.86,0,0,1-3.62.92,4.64,4.64,0,0,1-2.8-1.7,2.47,2.47,0,0,1-.18-2.67,1.68,1.68,0,0,1,.88-.75,1.57,1.57,0,0,1,1,0,1.43,1.43,0,0,1,1,.83A.72.72,0,0,1,77.8,209.25Z" style="fill:#263238"></path><path d="M27.09,235.64c0,.13-.62.07-1.3-.15s-1.18-.51-1.13-.64.62-.08,1.3.14S27.14,235.5,27.09,235.64Z" style="fill:#263238"></path><path d="M27.16,234.8c-.08.12-.71-.16-1.39-.63s-1.18-.95-1.1-1.07.7.16,1.39.64S27.24,234.69,27.16,234.8Z" style="fill:#263238"></path><path d="M27.43,233.74c-.12.08-.55-.34-1-.94s-.67-1.16-.55-1.24.55.34,1,.94S27.55,233.66,27.43,233.74Z" style="fill:#263238"></path><path d="M64.84,194.32c.14,0,.16.89,0,1.94s-.34,1.88-.48,1.87-.16-.89,0-1.94S64.7,194.31,64.84,194.32Z" style="fill:#263238"></path><path d="M66.66,196.33c.13.06.08.5-.12,1s-.47.85-.61.8-.08-.5.13-1S66.53,196.28,66.66,196.33Z" style="fill:#263238"></path><path d="M68.83,197.32c.1.1-.19.58-.66,1.08s-.94.82-1,.72.19-.58.66-1.08S68.72,197.22,68.83,197.32Z" style="fill:#263238"></path><path d="M75.43,220c-.13.06-.46-.31-.73-.83s-.4-1-.27-1.07.45.3.73.83S75.56,219.92,75.43,220Z" style="fill:#263238"></path><path d="M76.62,219.39c-.11.1-.48-.14-.83-.53s-.55-.79-.45-.89.48.15.83.54S76.72,219.3,76.62,219.39Z" style="fill:#263238"></path><path d="M78.11,218.2c-.08.12-.59-.08-1.21-.24s-1.17-.23-1.18-.37.58-.32,1.31-.13S78.19,218.09,78.11,218.2Z" style="fill:#263238"></path><path d="M37,241.37c-.15,0-.39-.62-.56-1.45s-.18-1.52,0-1.55.39.62.55,1.45S37.1,241.34,37,241.37Z" style="fill:#263238"></path><path d="M38.75,240.17c-.13.06-.45-.36-.73-.94s-.39-1.09-.26-1.16.45.36.73.94S38.88,240.11,38.75,240.17Z" style="fill:#263238"></path><path d="M41,239.87c-.14.07-.53-.48-1.17-1s-1.25-.72-1.22-.87.8-.11,1.54.45S41.09,239.82,41,239.87Z" style="fill:#263238"></path><path d="M52.45,259.54c-.13,0-.39-.35-.36-.92s.33-.94.46-.88.08.45.06.91S52.59,259.49,52.45,259.54Z" style="fill:#263238"></path><path d="M54.14,259.44c-.14,0-.35-.37-.46-.89s-.08-1,.06-1,.34.37.45.89S54.28,259.41,54.14,259.44Z" style="fill:#263238"></path><path d="M56.14,259.44c-.11.1-.58-.28-1-.83s-.76-1.07-.65-1.17.57.28,1,.83S56.25,259.35,56.14,259.44Z" style="fill:#263238"></path><path d="M59.44,205.11c.14,0,.3.66.46,1.47s.28,1.48.14,1.53-.48-.58-.65-1.43S59.3,205.12,59.44,205.11Z" style="fill:#263238"></path><path d="M61.43,204.91c.13.05,0,.58,0,1.21s-.1,1.16-.25,1.19-.36-.54-.27-1.25S61.3,204.85,61.43,204.91Z" style="fill:#263238"></path><path d="M62.93,205.61c.15,0,.27.48.12,1s-.49.93-.61.86,0-.5.1-1S62.79,205.61,62.93,205.61Z" style="fill:#263238"></path></g><g id="freepik--character-2--inject-76"><path d="M352.22,249c-.71,0-30.71,3.09-30.61,5.87l-5.89,44,11.7,51.57-4.06,32.66,101.05-1.23s11.54-58.15,11.31-64.92-2.53-41,3.78-60.67l-29.74-6.72Z" style="fill:#455a64"></path><path d="M391,331.72a31.32,31.32,0,0,0,4.15-15.39l.25-7.09a7.92,7.92,0,0,0,0-1,.28.28,0,0,0,0-.09,3.23,3.23,0,0,0-1.72-2.8,5.71,5.71,0,0,0-1.43-.67l-14.47-5.75-14.68,4.7a13.3,13.3,0,0,0-2.36,1.09,2.32,2.32,0,0,0-1.14,1.44,1.85,1.85,0,0,0-.08.48l-.29,8.58a32.51,32.51,0,0,0,4.21,17.26,29.73,29.73,0,0,0,12.95,12.23c.46-.14.91-.29,1.35-.46l.37-.15c.34-.14.67-.28,1-.44l.21-.09.12-.06a23.61,23.61,0,0,0,5.32-3.77c.28-.25.55-.51.81-.76a27.59,27.59,0,0,0,2.93-3.4c.48-.64.93-1.27,1.34-1.88.12-.19.23-.39.35-.57.28-.44.55-.87.8-1.32Z" style="fill:#e0e0e0"></path><rect x="374.87" y="308.44" width="4.83" height="21.63" style="fill:#455a64"></rect><rect x="374.87" y="308.44" width="4.83" height="21.63" transform="translate(58.03 696.53) rotate(-90)" style="fill:#455a64"></rect><g style="opacity:0.4"><path d="M406.89,349.2l.3-.4.16-.22a2.48,2.48,0,0,0,.17-.29,4.74,4.74,0,0,0,.38-.75c.06-.15.13-.3.19-.47l.15-.55a3.54,3.54,0,0,0,.12-.6c0-.22.09-.44.1-.67a12.5,12.5,0,0,0-.15-3.22,28.64,28.64,0,0,0-3-8.32,65.31,65.31,0,0,0-6.35-9.88,101,101,0,0,0-9.46-10.63,116.34,116.34,0,0,0-12.43-10.61c-2.32-1.7-4.77-3.36-7.35-4.91a68.45,68.45,0,0,0-8.16-4.28,38.11,38.11,0,0,0-9.08-2.85,16.36,16.36,0,0,0-4.84-.12,9.22,9.22,0,0,0-2.34.68,5.81,5.81,0,0,0-3.17,3.55,9.21,9.21,0,0,0-.41,2.4,16.23,16.23,0,0,0,.67,4.8,38.23,38.23,0,0,0,3.86,8.7,71.72,71.72,0,0,0,5.18,7.62c1.84,2.38,3.77,4.63,5.72,6.74a116.32,116.32,0,0,0,12,11.14,100.65,100.65,0,0,0,11.64,8.2,66,66,0,0,0,10.53,5.18,29.14,29.14,0,0,0,8.61,2,12.78,12.78,0,0,0,3.21-.22c.23,0,.45-.12.65-.17a4.54,4.54,0,0,0,.59-.19l.53-.21c.16-.08.3-.17.44-.25a4.16,4.16,0,0,0,.71-.46,3.16,3.16,0,0,0,.27-.2l.2-.19.36-.34-.35.36-.2.19c-.07.07-.17.13-.26.21a5.82,5.82,0,0,1-.71.47c-.14.07-.28.16-.45.24l-.52.22a4.53,4.53,0,0,1-.59.2,5.77,5.77,0,0,1-.66.17,12,12,0,0,1-3.23.24,28.91,28.91,0,0,1-8.64-2,64.44,64.44,0,0,1-10.56-5.17,99.51,99.51,0,0,1-11.67-8.19,116.51,116.51,0,0,1-12-11.14c-2-2.11-3.89-4.36-5.73-6.75a72.14,72.14,0,0,1-5.2-7.64,38.2,38.2,0,0,1-3.88-8.74,16.22,16.22,0,0,1-.68-4.86,9.25,9.25,0,0,1,.42-2.45,6.69,6.69,0,0,1,1.25-2.18,6.51,6.51,0,0,1,2-1.48,9.22,9.22,0,0,1,2.39-.7,16.41,16.41,0,0,1,4.9.12,37.94,37.94,0,0,1,9.13,2.87,69.57,69.57,0,0,1,8.18,4.29c2.58,1.56,5,3.22,7.35,4.93a115.64,115.64,0,0,1,12.44,10.64,101.15,101.15,0,0,1,9.46,10.66,64.87,64.87,0,0,1,6.34,9.91,28.67,28.67,0,0,1,2.93,8.36,12.56,12.56,0,0,1,.13,3.24c0,.23-.07.45-.09.67a3.88,3.88,0,0,1-.14.61l-.15.54c-.06.17-.13.33-.19.47a5.3,5.3,0,0,1-.39.76c-.07.1-.12.2-.18.29l-.17.21Z" style="fill:#e0e0e0"></path><path d="M418.64,320.85s0-.17-.05-.5l0-.27a2.46,2.46,0,0,0-.07-.33,3.89,3.89,0,0,0-.22-.82c0-.15-.1-.31-.17-.47l-.25-.51a4.35,4.35,0,0,0-.31-.54,5.55,5.55,0,0,0-.38-.56,12.37,12.37,0,0,0-2.25-2.3,28.93,28.93,0,0,0-7.75-4.24,64.91,64.91,0,0,0-11.3-3.15,102.05,102.05,0,0,0-14.15-1.63,116.12,116.12,0,0,0-16.33.36c-2.87.27-5.8.66-8.76,1.22a70.41,70.41,0,0,0-8.94,2.24,38.48,38.48,0,0,0-8.67,3.92,16,16,0,0,0-3.69,3.13,9,9,0,0,0-1.29,2.06,5.86,5.86,0,0,0,0,4.76,9.25,9.25,0,0,0,1.3,2.07,16,16,0,0,0,3.69,3.13,37.66,37.66,0,0,0,8.67,3.92,70.41,70.41,0,0,0,8.94,2.24c3,.56,5.89.95,8.76,1.23a116.06,116.06,0,0,0,16.33.35,100.55,100.55,0,0,0,14.15-1.63,66,66,0,0,0,11.31-3.14,29,29,0,0,0,7.74-4.25,12.78,12.78,0,0,0,2.26-2.3,6,6,0,0,0,.37-.56,3.73,3.73,0,0,0,.31-.54l.25-.5c.07-.17.12-.33.17-.48a4,4,0,0,0,.22-.81,2.46,2.46,0,0,0,.07-.33l0-.28c0-.33.05-.49.05-.49l0,.49v.28c0,.1,0,.21-.07.33a4.5,4.5,0,0,1-.21.82c-.05.15-.1.32-.17.48s-.16.34-.25.51a5,5,0,0,1-.3.55c-.13.18-.23.38-.38.56A12.45,12.45,0,0,1,415,327.2a29.2,29.2,0,0,1-7.75,4.29,66.11,66.11,0,0,1-11.33,3.17,100.51,100.51,0,0,1-14.16,1.66,115,115,0,0,1-16.36-.34c-2.87-.27-5.8-.66-8.77-1.22a70.83,70.83,0,0,1-9-2.24,37.78,37.78,0,0,1-8.71-3.94,16.15,16.15,0,0,1-3.74-3.17,9.23,9.23,0,0,1-1.32-2.11,6.69,6.69,0,0,1-.52-2.46,6.6,6.6,0,0,1,.52-2.45,9.36,9.36,0,0,1,1.32-2.11,16.15,16.15,0,0,1,3.74-3.17,38.47,38.47,0,0,1,8.72-3.94,70.27,70.27,0,0,1,9-2.24c3-.55,5.9-.95,8.77-1.22a116.42,116.42,0,0,1,16.36-.34A102,102,0,0,1,395.89,307a64.8,64.8,0,0,1,11.32,3.18,28.84,28.84,0,0,1,7.76,4.28,12.45,12.45,0,0,1,2.25,2.33,6.12,6.12,0,0,1,.37.57,3.73,3.73,0,0,1,.31.54l.25.51c.07.17.12.33.17.48a4.5,4.5,0,0,1,.21.82c0,.12.05.23.07.33v.28Z" style="fill:#e0e0e0"></path><path d="M403.07,285.55l-.42-.27-.23-.15-.3-.15a4.49,4.49,0,0,0-.78-.32l-.48-.16-.55-.11a3,3,0,0,0-.62-.08,4.68,4.68,0,0,0-.67-.05,12.43,12.43,0,0,0-3.2.37,29.06,29.06,0,0,0-8.1,3.52,65.21,65.21,0,0,0-9.41,7,100.79,100.79,0,0,0-10,10.18,115.61,115.61,0,0,0-9.73,13.13c-1.54,2.43-3,5-4.39,7.67a71.18,71.18,0,0,0-3.71,8.43,37.82,37.82,0,0,0-2.21,9.26,16.07,16.07,0,0,0,.21,4.84,8.94,8.94,0,0,0,.84,2.28,6.5,6.5,0,0,0,1.56,1.86,6.74,6.74,0,0,0,2.19,1.06,9,9,0,0,0,2.43.24,16,16,0,0,0,4.74-1,38.59,38.59,0,0,0,8.41-4.45,71.16,71.16,0,0,0,7.25-5.7c2.25-2,4.36-4.07,6.33-6.17a115.53,115.53,0,0,0,10.29-12.69,101.81,101.81,0,0,0,7.38-12.18,65.4,65.4,0,0,0,4.44-10.86,28.63,28.63,0,0,0,1.39-8.73,12.34,12.34,0,0,0-.44-3.19,6,6,0,0,0-.21-.64,4.23,4.23,0,0,0-.23-.57l-.25-.51c-.09-.15-.19-.29-.27-.43a3.89,3.89,0,0,0-.51-.67l-.22-.26-.2-.18-.37-.34.38.32.21.19.22.25a3.9,3.9,0,0,1,.52.67c.09.14.19.27.28.43l.25.51a3.25,3.25,0,0,1,.24.57,6.19,6.19,0,0,1,.22.65,12.75,12.75,0,0,1,.46,3.2,29,29,0,0,1-1.37,8.76A64.57,64.57,0,0,1,400.06,312a101.12,101.12,0,0,1-7.37,12.21,115.75,115.75,0,0,1-10.29,12.72q-3,3.16-6.34,6.19a71.37,71.37,0,0,1-7.26,5.71,38.6,38.6,0,0,1-8.46,4.48,16.23,16.23,0,0,1-4.8,1,9.37,9.37,0,0,1-2.47-.24,6.1,6.1,0,0,1-3.88-3,9.4,9.4,0,0,1-.86-2.34,16.14,16.14,0,0,1-.21-4.9,38,38,0,0,1,2.22-9.3,73.36,73.36,0,0,1,3.72-8.46c1.38-2.68,2.87-5.24,4.42-7.67a113.77,113.77,0,0,1,9.75-13.14,99.87,99.87,0,0,1,10-10.18,64.5,64.5,0,0,1,9.44-7,28.55,28.55,0,0,1,8.14-3.5,12.48,12.48,0,0,1,3.22-.36c.24,0,.46,0,.68.05a4,4,0,0,1,.62.09l.55.12.49.16a4.44,4.44,0,0,1,.78.34l.3.15.22.15Z" style="fill:#e0e0e0"></path><path d="M406.89,349.2l.3-.4.16-.22a2.48,2.48,0,0,0,.17-.29,4.74,4.74,0,0,0,.38-.75c.06-.15.13-.3.19-.47l.15-.55a3.54,3.54,0,0,0,.12-.6c0-.22.09-.44.1-.67a12.5,12.5,0,0,0-.15-3.22,28.64,28.64,0,0,0-3-8.32,65.31,65.31,0,0,0-6.35-9.88,101,101,0,0,0-9.46-10.63,116.34,116.34,0,0,0-12.43-10.61c-2.32-1.7-4.77-3.36-7.35-4.91a68.45,68.45,0,0,0-8.16-4.28,38.11,38.11,0,0,0-9.08-2.85,16.36,16.36,0,0,0-4.84-.12,9.22,9.22,0,0,0-2.34.68,5.81,5.81,0,0,0-3.17,3.55,9.21,9.21,0,0,0-.41,2.4,16.23,16.23,0,0,0,.67,4.8,38.23,38.23,0,0,0,3.86,8.7,71.72,71.72,0,0,0,5.18,7.62c1.84,2.38,3.77,4.63,5.72,6.74a116.32,116.32,0,0,0,12,11.14,100.65,100.65,0,0,0,11.64,8.2,66,66,0,0,0,10.53,5.18,29.14,29.14,0,0,0,8.61,2,12.78,12.78,0,0,0,3.21-.22c.23,0,.45-.12.65-.17a4.54,4.54,0,0,0,.59-.19l.53-.21c.16-.08.3-.17.44-.25a4.16,4.16,0,0,0,.71-.46,3.16,3.16,0,0,0,.27-.2l.2-.19.36-.34-.35.36-.2.19c-.07.07-.17.13-.26.21a5.82,5.82,0,0,1-.71.47c-.14.07-.28.16-.45.24l-.52.22a4.53,4.53,0,0,1-.59.2,5.77,5.77,0,0,1-.66.17,12,12,0,0,1-3.23.24,28.91,28.91,0,0,1-8.64-2,64.44,64.44,0,0,1-10.56-5.17,99.51,99.51,0,0,1-11.67-8.19,116.51,116.51,0,0,1-12-11.14c-2-2.11-3.89-4.36-5.73-6.75a72.14,72.14,0,0,1-5.2-7.64,38.2,38.2,0,0,1-3.88-8.74,16.22,16.22,0,0,1-.68-4.86,9.25,9.25,0,0,1,.42-2.45,6.69,6.69,0,0,1,1.25-2.18,6.51,6.51,0,0,1,2-1.48,9.22,9.22,0,0,1,2.39-.7,16.41,16.41,0,0,1,4.9.12,37.94,37.94,0,0,1,9.13,2.87,69.57,69.57,0,0,1,8.18,4.29c2.58,1.56,5,3.22,7.35,4.93a115.64,115.64,0,0,1,12.44,10.64,101.15,101.15,0,0,1,9.46,10.66,64.87,64.87,0,0,1,6.34,9.91,28.67,28.67,0,0,1,2.93,8.36,12.56,12.56,0,0,1,.13,3.24c0,.23-.07.45-.09.67a3.88,3.88,0,0,1-.14.61l-.15.54c-.06.17-.13.33-.19.47a5.3,5.3,0,0,1-.39.76c-.07.1-.12.2-.18.29l-.17.21Z" style="fill:#e0e0e0"></path><path d="M418.64,320.85s0-.17-.05-.5l0-.27a2.46,2.46,0,0,0-.07-.33,3.89,3.89,0,0,0-.22-.82c0-.15-.1-.31-.17-.47l-.25-.51a4.35,4.35,0,0,0-.31-.54,5.55,5.55,0,0,0-.38-.56,12.37,12.37,0,0,0-2.25-2.3,28.93,28.93,0,0,0-7.75-4.24,64.91,64.91,0,0,0-11.3-3.15,102.05,102.05,0,0,0-14.15-1.63,116.12,116.12,0,0,0-16.33.36c-2.87.27-5.8.66-8.76,1.22a70.41,70.41,0,0,0-8.94,2.24,38.48,38.48,0,0,0-8.67,3.92,16,16,0,0,0-3.69,3.13,9,9,0,0,0-1.29,2.06,5.86,5.86,0,0,0,0,4.76,9.25,9.25,0,0,0,1.3,2.07,16,16,0,0,0,3.69,3.13,37.66,37.66,0,0,0,8.67,3.92,70.41,70.41,0,0,0,8.94,2.24c3,.56,5.89.95,8.76,1.23a116.06,116.06,0,0,0,16.33.35,100.55,100.55,0,0,0,14.15-1.63,66,66,0,0,0,11.31-3.14,29,29,0,0,0,7.74-4.25,12.78,12.78,0,0,0,2.26-2.3,6,6,0,0,0,.37-.56,3.73,3.73,0,0,0,.31-.54l.25-.5c.07-.17.12-.33.17-.48a4,4,0,0,0,.22-.81,2.46,2.46,0,0,0,.07-.33l0-.28c0-.33.05-.49.05-.49l0,.49v.28c0,.1,0,.21-.07.33a4.5,4.5,0,0,1-.21.82c-.05.15-.1.32-.17.48s-.16.34-.25.51a5,5,0,0,1-.3.55c-.13.18-.23.38-.38.56A12.45,12.45,0,0,1,415,327.2a29.2,29.2,0,0,1-7.75,4.29,66.11,66.11,0,0,1-11.33,3.17,100.51,100.51,0,0,1-14.16,1.66,115,115,0,0,1-16.36-.34c-2.87-.27-5.8-.66-8.77-1.22a70.83,70.83,0,0,1-9-2.24,37.78,37.78,0,0,1-8.71-3.94,16.15,16.15,0,0,1-3.74-3.17,9.23,9.23,0,0,1-1.32-2.11,6.69,6.69,0,0,1-.52-2.46,6.6,6.6,0,0,1,.52-2.45,9.36,9.36,0,0,1,1.32-2.11,16.15,16.15,0,0,1,3.74-3.17,38.47,38.47,0,0,1,8.72-3.94,70.27,70.27,0,0,1,9-2.24c3-.55,5.9-.95,8.77-1.22a116.42,116.42,0,0,1,16.36-.34A102,102,0,0,1,395.89,307a64.8,64.8,0,0,1,11.32,3.18,28.84,28.84,0,0,1,7.76,4.28,12.45,12.45,0,0,1,2.25,2.33,6.12,6.12,0,0,1,.37.57,3.73,3.73,0,0,1,.31.54l.25.51c.07.17.12.33.17.48a4.5,4.5,0,0,1,.21.82c0,.12.05.23.07.33v.28Z" style="fill:#e0e0e0"></path><path d="M403.07,285.55l-.42-.27-.23-.15-.3-.15a4.49,4.49,0,0,0-.78-.32l-.48-.16-.55-.11a3,3,0,0,0-.62-.08,4.68,4.68,0,0,0-.67-.05,12.43,12.43,0,0,0-3.2.37,29.06,29.06,0,0,0-8.1,3.52,65.21,65.21,0,0,0-9.41,7,100.79,100.79,0,0,0-10,10.18,115.61,115.61,0,0,0-9.73,13.13c-1.54,2.43-3,5-4.39,7.67a71.18,71.18,0,0,0-3.71,8.43,37.82,37.82,0,0,0-2.21,9.26,16.07,16.07,0,0,0,.21,4.84,8.94,8.94,0,0,0,.84,2.28,6.5,6.5,0,0,0,1.56,1.86,6.74,6.74,0,0,0,2.19,1.06,9,9,0,0,0,2.43.24,16,16,0,0,0,4.74-1,38.59,38.59,0,0,0,8.41-4.45,71.16,71.16,0,0,0,7.25-5.7c2.25-2,4.36-4.07,6.33-6.17a115.53,115.53,0,0,0,10.29-12.69,101.81,101.81,0,0,0,7.38-12.18,65.4,65.4,0,0,0,4.44-10.86,28.63,28.63,0,0,0,1.39-8.73,12.34,12.34,0,0,0-.44-3.19,6,6,0,0,0-.21-.64,4.23,4.23,0,0,0-.23-.57l-.25-.51c-.09-.15-.19-.29-.27-.43a3.89,3.89,0,0,0-.51-.67l-.22-.26-.2-.18-.37-.34.38.32.21.19.22.25a3.9,3.9,0,0,1,.52.67c.09.14.19.27.28.43l.25.51a3.25,3.25,0,0,1,.24.57,6.19,6.19,0,0,1,.22.65,12.75,12.75,0,0,1,.46,3.2,29,29,0,0,1-1.37,8.76A64.57,64.57,0,0,1,400.06,312a101.12,101.12,0,0,1-7.37,12.21,115.75,115.75,0,0,1-10.29,12.72q-3,3.16-6.34,6.19a71.37,71.37,0,0,1-7.26,5.71,38.6,38.6,0,0,1-8.46,4.48,16.23,16.23,0,0,1-4.8,1,9.37,9.37,0,0,1-2.47-.24,6.1,6.1,0,0,1-3.88-3,9.4,9.4,0,0,1-.86-2.34,16.14,16.14,0,0,1-.21-4.9,38,38,0,0,1,2.22-9.3,73.36,73.36,0,0,1,3.72-8.46c1.38-2.68,2.87-5.24,4.42-7.67a113.77,113.77,0,0,1,9.75-13.14,99.87,99.87,0,0,1,10-10.18,64.5,64.5,0,0,1,9.44-7,28.55,28.55,0,0,1,8.14-3.5,12.48,12.48,0,0,1,3.22-.36c.24,0,.46,0,.68.05a4,4,0,0,1,.62.09l.55.12.49.16a4.44,4.44,0,0,1,.78.34l.3.15.22.15Z" style="fill:#e0e0e0"></path></g><path d="M333,338.43a1.58,1.58,0,0,1,0,2.24,1.6,1.6,0,0,1-2.24,0,1.58,1.58,0,0,1,2.24-2.24Z" style="fill:#e0e0e0"></path><path d="M343,343.63a.4.4,0,1,1-.4-.4A.4.4,0,0,1,343,343.63Z" style="fill:#e0e0e0"></path><path d="M422.24,289.4a1.59,1.59,0,1,1-1.58-1.58A1.58,1.58,0,0,1,422.24,289.4Z" style="fill:#e0e0e0"></path><path d="M419.88,302.1a.41.41,0,1,1-.4-.4A.4.4,0,0,1,419.88,302.1Z" style="fill:#e0e0e0"></path><g style="opacity:0.4"><path d="M406.89,349.2l.3-.4.16-.22a2.48,2.48,0,0,0,.17-.29,4.74,4.74,0,0,0,.38-.75c.06-.15.13-.3.19-.47l.15-.55a3.54,3.54,0,0,0,.12-.6c0-.22.09-.44.1-.67a12.5,12.5,0,0,0-.15-3.22,28.64,28.64,0,0,0-3-8.32,65.31,65.31,0,0,0-6.35-9.88,101,101,0,0,0-9.46-10.63,116.34,116.34,0,0,0-12.43-10.61c-2.32-1.7-4.77-3.36-7.35-4.91a68.45,68.45,0,0,0-8.16-4.28,38.11,38.11,0,0,0-9.08-2.85,16.36,16.36,0,0,0-4.84-.12,9.22,9.22,0,0,0-2.34.68,5.81,5.81,0,0,0-3.17,3.55,9.21,9.21,0,0,0-.41,2.4,16.23,16.23,0,0,0,.67,4.8,38.23,38.23,0,0,0,3.86,8.7,71.72,71.72,0,0,0,5.18,7.62c1.84,2.38,3.77,4.63,5.72,6.74a116.32,116.32,0,0,0,12,11.14,100.65,100.65,0,0,0,11.64,8.2,66,66,0,0,0,10.53,5.18,29.14,29.14,0,0,0,8.61,2,12.78,12.78,0,0,0,3.21-.22c.23,0,.45-.12.65-.17a4.54,4.54,0,0,0,.59-.19l.53-.21c.16-.08.3-.17.44-.25a4.16,4.16,0,0,0,.71-.46,3.16,3.16,0,0,0,.27-.2l.2-.19.36-.34-.35.36-.2.19c-.07.07-.17.13-.26.21a5.82,5.82,0,0,1-.71.47c-.14.07-.28.16-.45.24l-.52.22a4.53,4.53,0,0,1-.59.2,5.77,5.77,0,0,1-.66.17,12,12,0,0,1-3.23.24,28.91,28.91,0,0,1-8.64-2,64.44,64.44,0,0,1-10.56-5.17,99.51,99.51,0,0,1-11.67-8.19,116.51,116.51,0,0,1-12-11.14c-2-2.11-3.89-4.36-5.73-6.75a72.14,72.14,0,0,1-5.2-7.64,38.2,38.2,0,0,1-3.88-8.74,16.22,16.22,0,0,1-.68-4.86,9.25,9.25,0,0,1,.42-2.45,6.69,6.69,0,0,1,1.25-2.18,6.51,6.51,0,0,1,2-1.48,9.22,9.22,0,0,1,2.39-.7,16.41,16.41,0,0,1,4.9.12,37.94,37.94,0,0,1,9.13,2.87,69.57,69.57,0,0,1,8.18,4.29c2.58,1.56,5,3.22,7.35,4.93a115.64,115.64,0,0,1,12.44,10.64,101.15,101.15,0,0,1,9.46,10.66,64.87,64.87,0,0,1,6.34,9.91,28.67,28.67,0,0,1,2.93,8.36,12.56,12.56,0,0,1,.13,3.24c0,.23-.07.45-.09.67a3.88,3.88,0,0,1-.14.61l-.15.54c-.06.17-.13.33-.19.47a5.3,5.3,0,0,1-.39.76c-.07.1-.12.2-.18.29l-.17.21Z" style="fill:#e0e0e0"></path><path d="M418.64,320.85s0-.17-.05-.5l0-.27a2.46,2.46,0,0,0-.07-.33,3.89,3.89,0,0,0-.22-.82c0-.15-.1-.31-.17-.47l-.25-.51a4.35,4.35,0,0,0-.31-.54,5.55,5.55,0,0,0-.38-.56,12.37,12.37,0,0,0-2.25-2.3,28.93,28.93,0,0,0-7.75-4.24,64.91,64.91,0,0,0-11.3-3.15,102.05,102.05,0,0,0-14.15-1.63,116.12,116.12,0,0,0-16.33.36c-2.87.27-5.8.66-8.76,1.22a70.41,70.41,0,0,0-8.94,2.24,38.48,38.48,0,0,0-8.67,3.92,16,16,0,0,0-3.69,3.13,9,9,0,0,0-1.29,2.06,5.86,5.86,0,0,0,0,4.76,9.25,9.25,0,0,0,1.3,2.07,16,16,0,0,0,3.69,3.13,37.66,37.66,0,0,0,8.67,3.92,70.41,70.41,0,0,0,8.94,2.24c3,.56,5.89.95,8.76,1.23a116.06,116.06,0,0,0,16.33.35,100.55,100.55,0,0,0,14.15-1.63,66,66,0,0,0,11.31-3.14,29,29,0,0,0,7.74-4.25,12.78,12.78,0,0,0,2.26-2.3,6,6,0,0,0,.37-.56,3.73,3.73,0,0,0,.31-.54l.25-.5c.07-.17.12-.33.17-.48a4,4,0,0,0,.22-.81,2.46,2.46,0,0,0,.07-.33l0-.28c0-.33.05-.49.05-.49l0,.49v.28c0,.1,0,.21-.07.33a4.5,4.5,0,0,1-.21.82c-.05.15-.1.32-.17.48s-.16.34-.25.51a5,5,0,0,1-.3.55c-.13.18-.23.38-.38.56A12.45,12.45,0,0,1,415,327.2a29.2,29.2,0,0,1-7.75,4.29,66.11,66.11,0,0,1-11.33,3.17,100.51,100.51,0,0,1-14.16,1.66,115,115,0,0,1-16.36-.34c-2.87-.27-5.8-.66-8.77-1.22a70.83,70.83,0,0,1-9-2.24,37.78,37.78,0,0,1-8.71-3.94,16.15,16.15,0,0,1-3.74-3.17,9.23,9.23,0,0,1-1.32-2.11,6.69,6.69,0,0,1-.52-2.46,6.6,6.6,0,0,1,.52-2.45,9.36,9.36,0,0,1,1.32-2.11,16.15,16.15,0,0,1,3.74-3.17,38.47,38.47,0,0,1,8.72-3.94,70.27,70.27,0,0,1,9-2.24c3-.55,5.9-.95,8.77-1.22a116.42,116.42,0,0,1,16.36-.34A102,102,0,0,1,395.89,307a64.8,64.8,0,0,1,11.32,3.18,28.84,28.84,0,0,1,7.76,4.28,12.45,12.45,0,0,1,2.25,2.33,6.12,6.12,0,0,1,.37.57,3.73,3.73,0,0,1,.31.54l.25.51c.07.17.12.33.17.48a4.5,4.5,0,0,1,.21.82c0,.12.05.23.07.33v.28Z" style="fill:#e0e0e0"></path><path d="M403.07,285.55l-.42-.27-.23-.15-.3-.15a4.49,4.49,0,0,0-.78-.32l-.48-.16-.55-.11a3,3,0,0,0-.62-.08,4.68,4.68,0,0,0-.67-.05,12.43,12.43,0,0,0-3.2.37,29.06,29.06,0,0,0-8.1,3.52,65.21,65.21,0,0,0-9.41,7,100.79,100.79,0,0,0-10,10.18,115.61,115.61,0,0,0-9.73,13.13c-1.54,2.43-3,5-4.39,7.67a71.18,71.18,0,0,0-3.71,8.43,37.82,37.82,0,0,0-2.21,9.26,16.07,16.07,0,0,0,.21,4.84,8.94,8.94,0,0,0,.84,2.28,6.5,6.5,0,0,0,1.56,1.86,6.74,6.74,0,0,0,2.19,1.06,9,9,0,0,0,2.43.24,16,16,0,0,0,4.74-1,38.59,38.59,0,0,0,8.41-4.45,71.16,71.16,0,0,0,7.25-5.7c2.25-2,4.36-4.07,6.33-6.17a115.53,115.53,0,0,0,10.29-12.69,101.81,101.81,0,0,0,7.38-12.18,65.4,65.4,0,0,0,4.44-10.86,28.63,28.63,0,0,0,1.39-8.73,12.34,12.34,0,0,0-.44-3.19,6,6,0,0,0-.21-.64,4.23,4.23,0,0,0-.23-.57l-.25-.51c-.09-.15-.19-.29-.27-.43a3.89,3.89,0,0,0-.51-.67l-.22-.26-.2-.18-.37-.34.38.32.21.19.22.25a3.9,3.9,0,0,1,.52.67c.09.14.19.27.28.43l.25.51a3.25,3.25,0,0,1,.24.57,6.19,6.19,0,0,1,.22.65,12.75,12.75,0,0,1,.46,3.2,29,29,0,0,1-1.37,8.76A64.57,64.57,0,0,1,400.06,312a101.12,101.12,0,0,1-7.37,12.21,115.75,115.75,0,0,1-10.29,12.72q-3,3.16-6.34,6.19a71.37,71.37,0,0,1-7.26,5.71,38.6,38.6,0,0,1-8.46,4.48,16.23,16.23,0,0,1-4.8,1,9.37,9.37,0,0,1-2.47-.24,6.1,6.1,0,0,1-3.88-3,9.4,9.4,0,0,1-.86-2.34,16.14,16.14,0,0,1-.21-4.9,38,38,0,0,1,2.22-9.3,73.36,73.36,0,0,1,3.72-8.46c1.38-2.68,2.87-5.24,4.42-7.67a113.77,113.77,0,0,1,9.75-13.14,99.87,99.87,0,0,1,10-10.18,64.5,64.5,0,0,1,9.44-7,28.55,28.55,0,0,1,8.14-3.5,12.48,12.48,0,0,1,3.22-.36c.24,0,.46,0,.68.05a4,4,0,0,1,.62.09l.55.12.49.16a4.44,4.44,0,0,1,.78.34l.3.15.22.15Z" style="fill:#e0e0e0"></path></g><path d="M322.47,253.93s-17.69,18.64-24.83,30.68l3.51-26.1-25.95-5.35s-11.21,34.15-14.1,46c-1.23,5-7.54,30.06-7.58,36.17-.06,11.16,5.85,22.65,14.52,25.95s17.06,3.29,25.51-2.84c8.68-6.3,28.09-34.89,28.09-34.89l-5.82-25.39Z" style="fill:#455a64"></path><path d="M427.12,314.15s16.24,32.35,28.39,37.42,28.85-2.15,31.38-7.91-16.2-87.13-16.2-87.13l-23.52,4.32s-6.74-11.15-18.18-9.56-15.49,26.38-15.49,26.38Z" style="fill:#455a64"></path><path d="M288.09,343.24c5.09-5.66,9-12.53,10.14-20.11,1.27-8.3-.52-16.63-1.11-24.9a42.26,42.26,0,0,1,1.06-14.44c.05-.16-.19-.22-.24-.07-2.18,7.8-1,15.88-.14,23.78.9,8.36,1.06,16.62-2.48,24.43a43.49,43.49,0,0,1-7.41,11.13c-.11.12.07.3.18.18Z" style="fill:#263238"></path><g style="opacity:0.30000000000000004"><path d="M301.74,308c-1.79-4.74-3.84-8.73-4.92-13.69.31,9.9,2.82,19.48,1.41,28.79-.63,4.16-2.87,8.09-4.47,12.16,4.23-3.43,8.33-7.13,9.72-12.4C304.77,318,303.54,312.75,301.74,308Z"></path></g><path d="M327.4,274.09a4.06,4.06,0,0,1-.29.74c-.19.48-.55,1.16-.89,2.09a70.93,70.93,0,0,0-2.51,8,117,117,0,0,0-2.37,12.16,111.18,111.18,0,0,0-1.24,15.12,37.3,37.3,0,0,0,.61,7.78c.5,2.49,1,4.89,1.54,7.17,1.08,4.54,2.05,8.63,2.86,12.09s1.4,6.25,1.78,8.19c.18.93.32,1.68.42,2.24a4.09,4.09,0,0,1,.11.79,5.76,5.76,0,0,1-.21-.77c-.13-.56-.3-1.29-.51-2.22-.45-1.93-1.1-4.71-1.95-8.14s-1.9-7.52-3-12.07c-.54-2.28-1.07-4.68-1.58-7.17a37.26,37.26,0,0,1-.63-7.9A108.46,108.46,0,0,1,320.86,297a115.26,115.26,0,0,1,2.49-12.19,62.72,62.72,0,0,1,2.69-8c.37-.92.75-1.59,1-2.06A3.69,3.69,0,0,1,327.4,274.09Z" style="fill:#263238"></path><path d="M457.57,336.09a5,5,0,0,1-.56-.54,14.3,14.3,0,0,1-1.46-1.73,23.55,23.55,0,0,1-3.49-7.49,54.33,54.33,0,0,1-1.71-12.16c-.26-4.62-.27-9.7-.21-15s.12-10.4,0-15-.44-8.75-.9-12.2-1-6.22-1.42-8.12c-.21-.92-.37-1.64-.5-2.19a3.91,3.91,0,0,1-.14-.78,4.55,4.55,0,0,1,.24.75l.6,2.17a79.85,79.85,0,0,1,1.58,8.12,110.06,110.06,0,0,1,1,12.24c.16,4.62.1,9.7.05,15s-.06,10.39.17,15a56.46,56.46,0,0,0,1.58,12.09,24.36,24.36,0,0,0,3.31,7.48C456.83,335.3,457.62,336.05,457.57,336.09Z" style="fill:#263238"></path><path d="M439.37,286.23a8.59,8.59,0,0,1,0,1.6c0,1-.1,2.53-.22,4.38-.24,3.69-.69,8.78-1.45,14.37s-1.67,10.62-2.42,14.24c-.37,1.81-.7,3.27-1,4.28a10.94,10.94,0,0,1-.43,1.54,9.19,9.19,0,0,1,.23-1.59c.2-1.1.47-2.55.79-4.3.66-3.63,1.51-8.66,2.27-14.24s1.26-10.66,1.59-14.33c.16-1.77.29-3.24.39-4.36A10.24,10.24,0,0,1,439.37,286.23Z" style="fill:#263238"></path><path d="M369.83,123.07c-13.75,2.22-28.64,12.39-34,25.25s-4.82,29.4-4.57,43.33c4.24-.85,6.93,1.16,11.25.86,2.81-.2,5.11-2.28,6.9-4.45,4.22-5.12,6.93-11.28,9.58-17.36q9.42-21.66,18.49-43.46" style="fill:#263238"></path><path d="M349,144c-21.6,14-16.16,39.92-20.36,46-1.68,2.44-3.72,4.89-3.87,7.72-.16,3.12,2,6,2.09,9.14.09,4.33-3.81,7.82-6.33,11.56a20.33,20.33,0,0,0-2.72,17.15,4.8,4.8,0,0,0,2.14,3.1c.86.45-.82,14.31.18,14.36,20.52.94,45.34-4.95,65.89-5.48,4.68-.12,8.09-8.06,12.05-10.23,5.42-3,7.62-8.75,9.44-14.08l5.77-16.86a64.2,64.2,0,0,0,3.07-11.1c.79-5.24.24-10.56.31-15.84.06-4.9.66-9.8.22-14.68s-2-9.87-5.78-13.54" style="fill:#263238"></path><path d="M411.66,165.07c.44-19.28-15.38-35.22-35.25-35-18.73.2-33.8,15.47-34.7,33.85-.78,16.11-1.21,32.34-.53,38.14,2.05,17.51,13.2,23.25,17.65,24.86a23.61,23.61,0,0,0,4.82.66h0a.11.11,0,0,1,.11.13l-1.87,20.53c-.42,13.38,8.3,24.36,21.9,24.88s23.12-10.7,23.8-24.1Z" style="fill:#ffbe9d"></path><path d="M349.31,174.57a2.81,2.81,0,0,0,2.62,2.93,2.73,2.73,0,0,0,3.05-2.42,2.81,2.81,0,0,0-2.62-2.93A2.73,2.73,0,0,0,349.31,174.57Z" style="fill:#263238"></path><path d="M346.64,167.68c.23.4,2.67,0,5.54,1.1s4.55,3,5,2.88c.2-.06,0-.68-.68-1.56a9.63,9.63,0,0,0-3.85-2.64,9.06,9.06,0,0,0-4.54-.54C347,167.12,346.52,167.49,346.64,167.68Z" style="fill:#263238"></path><path d="M380.27,175.38a2.82,2.82,0,0,0,2.63,2.93,2.72,2.72,0,0,0,3-2.41,2.81,2.81,0,0,0-2.62-2.94A2.74,2.74,0,0,0,380.27,175.38Z" style="fill:#263238"></path><path d="M377.05,172.5c.45.14,2.31-1.64,5.48-2.62s5.84-.64,6.1-1c.13-.16-.4-.51-1.58-.68a11.81,11.81,0,0,0-5,.5,10.74,10.74,0,0,0-4.25,2.39C377,171.88,376.83,172.44,377.05,172.5Z" style="fill:#263238"></path><path d="M364.34,191.88c0-.17-1.87-.57-4.94-1.07-.78-.11-1.52-.29-1.62-.82a3.85,3.85,0,0,1,.62-2.26L361,182c3.58-8.21,6.21-15,5.87-15.12s-3.51,6.41-7.09,14.63l-2.48,5.81a4.4,4.4,0,0,0-.54,3,2,2,0,0,0,1.24,1.18,5.55,5.55,0,0,0,1.32.23C362.39,192,364.32,192.05,364.34,191.88Z" style="fill:#263238"></path><path d="M363.77,227.57s11.81,1.42,27-6.76c0,0-5.34,15.2-27.5,12.3Z" style="fill:#eb996e"></path><path d="M365.32,199.2a5.57,5.57,0,0,1,5-1.83,5,5,0,0,1,3.41,2,3.12,3.12,0,0,1,.09,3.6,3.79,3.79,0,0,1-4.07.85,11.69,11.69,0,0,1-3.82-2.46,3.2,3.2,0,0,1-.84-.92,1,1,0,0,1,.06-1.12" style="fill:#eb996e"></path><path d="M373.28,194.31c-.5,0-.65,3.23-3.6,5.44s-6.48,1.72-6.53,2.17c0,.2.77.67,2.26.76a8.4,8.4,0,0,0,5.44-1.62,7.17,7.17,0,0,0,2.81-4.57C373.84,195.13,373.51,194.3,373.28,194.31Z" style="fill:#263238"></path><path d="M376.09,160.35c.36.79,3.39.15,7,.28s6.6.85,7,.07c.18-.37-.38-1.09-1.61-1.79a12.37,12.37,0,0,0-10.69-.27C376.54,159.27,375.93,160,376.09,160.35Z" style="fill:#263238"></path><path d="M346.94,158.21c.51.7,2.66.08,5.2.14s4.67.64,5.2-.06c.23-.34-.08-1-1-1.72a7.22,7.22,0,0,0-4.17-1.28A7.41,7.41,0,0,0,348,156.5C347.05,157.17,346.72,157.87,346.94,158.21Z" style="fill:#263238"></path><path d="M369.28,121.47c-4.17,8.87,0,19.38,8.63,24,3.74,2,8.5,3.08,10.37,6.88,1.44,2.94.63,6.72,2.47,9.43s5.19,3.24,7.7,5.07c3.42,2.51,4.79,7,5.16,11.2s0,8.53.79,12.69,3.32,8.36,7.38,9.6c2.55-12,4.88-24.19,4.22-36.43s-4.61-24.71-13.13-33.53-22.12-13.23-33.59-8.88" style="fill:#263238"></path><path d="M381.51,119.91c14.75.55,31.19,10.58,36.22,24.45,2.53,7,3.13,15,8,20.62,3.08,3.54,7.61,5.74,10.14,9.69,5.4,8.45-.82,20.06,2.55,29.5,1.51,4.22,4.78,7.53,7.32,11.22s2.65,27.47.93,31.61a11.15,11.15,0,0,1-6.92,5.89,33.07,33.07,0,0,1-9.25,1.3c-15.88.71-30.21-6.78-46.09-6.07,0,0-2-16.75,1.12-21.77s10.93-9.64,9.2-16.85-5.26-6.3-5.37-13.81,5.09-14.68,4.22-21.19-3-5-5.73-15.26-8.48-13.07-8.48-13.07l4.49-24.59" style="fill:#263238"></path><path d="M327.56,195.13c1.72-2.59,3.51-5.53,2.95-8.59-.39-2.14-1.89-3.91-2.53-6a10.29,10.29,0,0,1,.78-8c1-2.54,2.36-4.93,3.17-7.53.65-2.08.93-4.28,1.78-6.28s2.44-3.88,4.59-4.25c1.5,9.69-2.25,19.37-2.76,29.16-.11,2.15-.08,4.38-1,6.33s-3.1,3.51-5.15,2.87" style="fill:#263238"></path><path d="M415.81,144.05a7.2,7.2,0,0,0-.67-2,6.33,6.33,0,0,0-4.68-2.85c-2.42-.34-5.28.55-8.59,1.11a36.69,36.69,0,0,1-10.88.21,26.28,26.28,0,0,1-10.3-3.62,22,22,0,0,1-6.48-6.11,17.49,17.49,0,0,1-2.59-5.41,10.56,10.56,0,0,1-.33-1.6c-.05-.37-.06-.56,0-.57.22-.08.55,3.17,3.53,7.16a22.35,22.35,0,0,0,6.39,5.73,26.18,26.18,0,0,0,9.94,3.4,37.77,37.77,0,0,0,10.6-.12c3.2-.49,6.21-1.36,8.83-.9a6.54,6.54,0,0,1,4.93,3.38,4,4,0,0,1,.41,1.62C415.89,143.86,415.84,144.05,415.81,144.05Z" style="fill:#455a64"></path><path d="M418.86,149a9.84,9.84,0,0,1-2.16,1.15,30.23,30.23,0,0,1-6.37,2,33.17,33.17,0,0,1-36.69-18.56,29.38,29.38,0,0,1-2.19-6.3,9.22,9.22,0,0,1-.35-2.42c.22-.06.68,3.44,3.19,8.4a33.55,33.55,0,0,0,35.91,18.16C415.68,150.45,418.78,148.75,418.86,149Z" style="fill:#455a64"></path><path d="M335.35,197.19v37.93h76.58l-1-37.93s-24.14.54-28,0-10.54-4.17-15.33-2.64a47.38,47.38,0,0,1-13,2.64C351,197.24,335.35,197.19,335.35,197.19Z" style="fill:#FA9805"></path><path d="M338.63,228.14c-.08,0,.21-1.47.54-3.83a67.54,67.54,0,0,0,.63-9.3,66.83,66.83,0,0,0-.73-9.29c-.35-2.36-.66-3.81-.58-3.83a3.7,3.7,0,0,1,.33,1c.18.65.39,1.6.62,2.78a53.08,53.08,0,0,1,.1,18.7c-.22,1.19-.42,2.14-.59,2.79A3.52,3.52,0,0,1,338.63,228.14Z" style="fill:#263238"></path><path d="M403.13,214.34a2.5,2.5,0,0,1-.63-.09l-1.81-.38c-1.57-.33-3.84-.82-6.66-1.36a100.62,100.62,0,0,0-22.22-2.11,143.37,143.37,0,0,0-22.18,2.8L343,214.52l-1.82.34a2.59,2.59,0,0,1-.64.09,3.16,3.16,0,0,1,.62-.19l1.79-.44c1.57-.37,3.83-.89,6.64-1.48a130.67,130.67,0,0,1,22.24-3,94.63,94.63,0,0,1,22.3,2.28c2.82.59,5.07,1.13,6.63,1.52l1.79.47A3.89,3.89,0,0,1,403.13,214.34Z" style="fill:#263238"></path><path d="M407.62,227.75a4.45,4.45,0,0,1-.23-1c-.11-.62-.24-1.54-.36-2.67-.25-2.26-.43-5.4-.49-8.87s0-6.61.18-8.88c.08-1.14.17-2.06.26-2.69a3.43,3.43,0,0,1,.21-1c.07,0-.05,1.41-.1,3.67s-.09,5.4,0,8.86.19,6.59.33,8.85S407.7,227.73,407.62,227.75Z" style="fill:#263238"></path><path d="M400.58,219.08a2.9,2.9,0,0,1-.54,0l-1.55,0-5.68,0c-4.79,0-11.41,0-18.73-.08s-13.94-.23-18.73-.43c-2.4-.09-4.34-.19-5.67-.28l-1.54-.12a2.07,2.07,0,0,1-.54-.07,1.91,1.91,0,0,1,.54,0l1.55,0,5.67.12c4.79.1,11.41.2,18.73.27l18.73.23,5.67.13L400,219A2,2,0,0,1,400.58,219.08Z" style="fill:#263238"></path><path d="M393.44,226.86a2.49,2.49,0,0,1-.45.19l-1.31.46c-.57.2-1.27.43-2.1.65s-1.77.52-2.83.74a64.55,64.55,0,0,1-7.48,1.33,68.21,68.21,0,0,1-18.57-.35,67.29,67.29,0,0,1-7.43-1.6c-1-.27-2-.59-2.79-.85s-1.52-.51-2.08-.73l-1.29-.51c-.3-.12-.45-.19-.44-.21a2,2,0,0,1,.47.11l1.33.42c.57.19,1.27.42,2.1.64s1.75.53,2.8.77a72.27,72.27,0,0,0,7.4,1.49,72.42,72.42,0,0,0,18.45.34,71.78,71.78,0,0,0,7.45-1.21c1.06-.19,2-.46,2.83-.66s1.54-.39,2.12-.56L393,227A1.43,1.43,0,0,1,393.44,226.86Z" style="fill:#263238"></path><path d="M402,208.34a2.6,2.6,0,0,1-.64,0,17.83,17.83,0,0,1-1.83-.14,33.78,33.78,0,0,1-6.54-1.57c-2.71-.89-5.82-2.23-9.31-3.56a34.3,34.3,0,0,0-11.74-2.64,35.29,35.29,0,0,0-11.81,2.38c-3.53,1.24-6.67,2.5-9.39,3.34a36.57,36.57,0,0,1-6.55,1.53c-.79.12-1.41.11-1.82.15a2.6,2.6,0,0,1-.64,0c0-.05.87-.11,2.43-.35a42.07,42.07,0,0,0,6.47-1.68c2.69-.88,5.8-2.17,9.34-3.44a35,35,0,0,1,12-2.45,26.9,26.9,0,0,1,6.3.86,56.75,56.75,0,0,1,5.61,1.85c3.5,1.36,6.59,2.73,9.26,3.66a37.14,37.14,0,0,0,6.45,1.72C401.08,208.24,402,208.28,402,208.34Z" style="fill:#263238"></path><g style="opacity:0.30000000000000004"><path d="M344.83,218.21l.6.77a73.52,73.52,0,0,0,54.83.18Z"></path></g><g style="opacity:0.30000000000000004"><path d="M349.86,227.26h0l-.19-.1Z"></path></g><g style="opacity:0.30000000000000004"><path d="M370.49,230.44c-7.37-.4-13.78-1-20.62-3.18a43.58,43.58,0,0,0,39.18.84C383,229.31,376.68,230.78,370.49,230.44Z"></path></g><g style="opacity:0.30000000000000004"><path d="M349.9,206.2a84.84,84.84,0,0,1,12.26-5.73,28.42,28.42,0,0,1,13.34-1.6c5.27.78,12.79,3.8,16.79,7.33,0,0-12.53-6.39-22.51-5.89C362.76,200.66,349.9,206.2,349.9,206.2Z"></path></g><path d="M455.92,182.49s5.95,15.76,5.75,16.77-1.65,14.36-1.44,15.39.93,20.34,4.52,30.19,3.9,12.11,3.9,12.11l-21.15,3.9s-9.66-22.38-9.66-24.43V231.3l-3.08-.86v2.77s.95,6.78-.85,7.42-2.83.26-3.25-1.13c-.57-1.87-2.06-8.2-2.06-8.2l-1.23-8.64,5.55-9s10.67-.35,10.47-1.1-2-11.18-2-11.18-3.39-3-5.63-2.81c-5,.45-6.4-.69-6.75-4.35l7.81-1.5,12.58,4.51,2.79,7.58,1.88-6.34S447.91,185.23,455.92,182.49Z" style="fill:#ffbe9d"></path><path d="M441.69,219.61a14.56,14.56,0,0,1-2.3,1.52l-5.68,3.4c-1.09.66-2.12,1.29-3,1.89l.09-.11c-.55,1.47-1.05,2.78-1.47,3.89a9.31,9.31,0,0,1-.59,1.51c-.14,0,.44-2.37,1.61-5.57l0-.07.06,0c.92-.63,2-1.27,3-1.93,2.22-1.34,4.27-2.48,5.77-3.28A14.9,14.9,0,0,1,441.69,219.61Z" style="fill:#eb996e"></path><path d="M433.27,224.49c-.13-.11,1.42-1.29,2-3.39l0-.07.05-.21h.19a15.83,15.83,0,0,1,4,0,16,16,0,0,1-4,.5l.24-.21,0,.11a6,6,0,0,1-1.51,2.56C433.73,224.32,433.31,224.54,433.27,224.49Z" style="fill:#eb996e"></path><path d="M453.47,210.05a40.55,40.55,0,0,1-2.25-6.14,42.09,42.09,0,0,1-1.76-6.29,40.39,40.39,0,0,1,2.25,6.13A41,41,0,0,1,453.47,210.05Z" style="fill:#eb996e"></path><path d="M430.25,234.56a59.71,59.71,0,0,1-20.62-3.67l.26-.71a58.89,58.89,0,0,0,27.72,3.16l.1.74A58.27,58.27,0,0,1,430.25,234.56Z" style="fill:#fff"></path><path d="M408.2,201l-.21-.72c17.12-5.08,37.39-8,51.15-9.75l.09.75C445.5,193,425.27,195.93,408.2,201Z" style="fill:#fff"></path><path d="M290.75,183s-2.57,14.34-3.21,19.9-1.29,15.2-1.93,18.31-8.35,32.86-8.35,32.86L297.81,258s5.89-8.24,7.6-13.7a70.71,70.71,0,0,0,2.25-8.78l2.57-4,1.5.54.75,1.82s-1.93,3.42-.43,6,2.89.32,2.89.32l3.21-6.53-.86-3.64s-.1-3.53-1.92-4.38a65.83,65.83,0,0,0-7.71-2.25V222.1l7.31-3s4.23,2.9,3.91,3.54a9.09,9.09,0,0,0,.45,5.16c.75,1.6,2.46,2,2.56,1.71s3.24-8.2,3.24-8.2S317.3,211,317,210.87s-13.05,2.19-13.05,2.19l2.25-10,12.45-9.23s1.57-4.24-2.28-3.89c-2.22.21-5.85,1.65-9.38,4.18a68.46,68.46,0,0,1-8.07,4.91l-3,7.19L295.35,196s3.32-15-4.5-13.38" style="fill:#ffbe9d"></path><path d="M335.29,201.7c-.41-.07-40.74-7.12-47-2.66a1.51,1.51,0,0,0-.69,1l-.74-.12a2.23,2.23,0,0,1,1-1.46c6.52-4.65,45.9,2.24,47.58,2.53Z" style="fill:#fff"></path><path d="M314.11,235.49c-2.92,0-4.69-.44-5.27-1.32a1.1,1.1,0,0,1-.13-1l.69.3-.35-.15.35.14a.38.38,0,0,0,.08.31c.21.29,1.08,1,4.63,1,5.71,0,21.57-3.76,21.73-3.8l.17.73C335.36,231.82,319.91,235.49,314.11,235.49Z" style="fill:#fff"></path><path d="M299.24,199a65.41,65.41,0,0,1-2.76,6.57,65.83,65.83,0,0,1-3,6.46,8.19,8.19,0,0,1,.61-2c.45-1.21,1.11-2.87,1.91-4.67s1.58-3.41,2.17-4.56A8.67,8.67,0,0,1,299.24,199Z" style="fill:#eb996e"></path><path d="M308.27,223.93a20.6,20.6,0,0,0-3.3.73,20.37,20.37,0,0,0-2.91,1.74,5.79,5.79,0,0,1,6.21-2.47Z" style="fill:#eb996e"></path><path d="M323.36,383.09s-19.13,39.79-18.19,74.09h148.3s-12.24-62-29.06-75.32Z" style="fill:#263238"></path><path d="M372.4,447.82a3.45,3.45,0,0,1-.66.28,6.05,6.05,0,0,1-2.05.23,8.86,8.86,0,0,1-6.36-3.8,12.58,12.58,0,0,1-2-4.84,29.91,29.91,0,0,1-.51-6c0-4.2.06-8.81.09-13.65.12-9.66.22-18.4.3-24.8.06-3.13.11-5.68.15-7.51,0-.85.05-1.53.06-2.05a3.36,3.36,0,0,1,.06-.71,3.08,3.08,0,0,1,.05.71c0,.52,0,1.2,0,2.05,0,1.83,0,4.38,0,7.51,0,6.4-.09,15.14-.15,24.8,0,4.84-.09,9.45-.13,13.65a30.63,30.63,0,0,0,.45,5.89,12.54,12.54,0,0,0,1.87,4.71,8.77,8.77,0,0,0,6.08,3.81A7.32,7.32,0,0,0,372.4,447.82Z" style="fill:#455a64"></path><path d="M373.05,390.83c0,.06-.38,0-1,.1a4.59,4.59,0,0,0-2.34,1.27,4.52,4.52,0,0,0-1.35,3.56,3.41,3.41,0,0,0,1,2,4.7,4.7,0,0,0,2.13,1.21,4.62,4.62,0,0,0,2.45,0,3.33,3.33,0,0,0,1.82-1.29,4.48,4.48,0,0,0,.54-3.77,4.42,4.42,0,0,0-1.42-2.24c-.5-.41-.85-.53-.83-.58s.1,0,.26.06a3,3,0,0,1,.69.35,4.49,4.49,0,0,1,1.66,2.3,4.86,4.86,0,0,1-.5,4.16,3.9,3.9,0,0,1-2.07,1.5,5.05,5.05,0,0,1-2.73.05,5.14,5.14,0,0,1-2.36-1.37,3.85,3.85,0,0,1-1.08-2.32,4.79,4.79,0,0,1,1.58-3.87,4.46,4.46,0,0,1,2.56-1.21,2.91,2.91,0,0,1,.77,0C373,390.79,373.05,390.81,373.05,390.83Z" style="fill:#455a64"></path><path d="M402.09,395.23a16.17,16.17,0,0,1,.11-2,14.24,14.24,0,0,0-.6-4.61,14.5,14.5,0,0,0-2.06-4.18,16.84,16.84,0,0,1-1.18-1.57,4.75,4.75,0,0,1,1.47,1.35,12.18,12.18,0,0,1,2.27,4.25,12.05,12.05,0,0,1,.46,4.79A5.17,5.17,0,0,1,402.09,395.23Z" style="fill:#455a64"></path><path d="M407.37,394.88a20.56,20.56,0,0,0,.28-6.07,20.92,20.92,0,0,0-2-5.74,4.36,4.36,0,0,1,1.09,1.47,12.43,12.43,0,0,1,1.24,8.62A4.25,4.25,0,0,1,407.37,394.88Z" style="fill:#455a64"></path><path d="M328.1,396.44a4.12,4.12,0,0,1-.7-1.57,11.33,11.33,0,0,1,.75-8.17,4.07,4.07,0,0,1,1-1.43,15,15,0,0,0-1,11.17Z" style="fill:#455a64"></path><path d="M334,395.66a3.65,3.65,0,0,1-.67-1.52,10.66,10.66,0,0,1,.88-7.83c.49-.9.93-1.37,1-1.33A14.13,14.13,0,0,0,334,395.66Z" style="fill:#455a64"></path><path d="M326.85,409.39a2.87,2.87,0,0,1,.08.49l.12,1.4a16.77,16.77,0,0,1,.08,2.24,25.76,25.76,0,0,1-.1,3c0,.55-.09,1.13-.14,1.72s-.18,1.21-.27,1.85c-.17,1.28-.51,2.62-.84,4a44.25,44.25,0,0,1-8.48,16.74c-.95,1.1-1.82,2.17-2.76,3.06-.46.45-.88.91-1.33,1.31l-1.3,1.13a27.78,27.78,0,0,1-2.33,1.83,15.47,15.47,0,0,1-1.84,1.25l-1.21.73a1.83,1.83,0,0,1-.44.23s.13-.13.39-.32l1.15-.81a21.14,21.14,0,0,0,1.78-1.31c.67-.55,1.48-1.12,2.26-1.88l1.27-1.14c.43-.41.84-.87,1.29-1.32.92-.9,1.77-2,2.7-3.06A45.43,45.43,0,0,0,325.32,424c.34-1.39.69-2.71.87-4,.1-.63.24-1.24.3-1.83s.12-1.15.18-1.7c.14-1.08.13-2.06.17-2.93a20.69,20.69,0,0,0,0-2.22c0-.56,0-1,0-1.4A1.72,1.72,0,0,1,326.85,409.39Z" style="fill:#455a64"></path><path d="M445.09,437.22a1.83,1.83,0,0,1-.54,0l-1.56-.11-1.13-.09c-.41,0-.85-.13-1.32-.21a31.19,31.19,0,0,1-3.22-.63l-1.85-.48c-.64-.17-1.28-.42-2-.64a43.37,43.37,0,0,1-4.25-1.68,46.08,46.08,0,0,1-16.42-12.7,42.16,42.16,0,0,1-2.69-3.68c-.39-.61-.79-1.17-1.12-1.74l-.92-1.68a27.67,27.67,0,0,1-1.42-2.95c-.2-.44-.39-.84-.54-1.23s-.26-.74-.37-1.07l-.5-1.48a2.12,2.12,0,0,1-.13-.52,2.73,2.73,0,0,1,.23.49c.16.38.35.86.59,1.44.12.32.26.67.41,1.05s.37.77.57,1.2c.43.86.85,1.87,1.48,2.9l.95,1.64c.33.56.74,1.11,1.13,1.71.75,1.2,1.72,2.36,2.7,3.62A47.29,47.29,0,0,0,429.47,433a44.33,44.33,0,0,0,4.18,1.7c.67.23,1.31.49,1.94.67l1.82.5a29.69,29.69,0,0,0,3.18.7c.47.09.9.19,1.31.26l1.11.13,1.55.2A2.17,2.17,0,0,1,445.09,437.22Z" style="fill:#455a64"></path></g><g id="freepik--Table--inject-76"><path d="M709.7,457.18c0,.15-150.31.26-335.68.26s-335.72-.11-335.72-.26,150.28-.26,335.72-.26S709.7,457,709.7,457.18Z" style="fill:#263238"></path></g></svg>