<svg width="25" height="25" viewBox="0 0 25 25" fill="none" xmlns="http://www.w3.org/2000/svg">
<path d="M22.6562 6.25H16.4062V5.46875C16.4044 4.84771 16.1569 4.25262 15.7178 3.81347C15.2786 3.37433 14.6835 3.12681 14.0625 3.125H10.9375C10.3165 3.12681 9.72137 3.37433 9.28222 3.81347C8.84308 4.25262 8.59556 4.84771 8.59375 5.46875V6.25H2.34375C2.13673 6.2506 1.93837 6.3331 1.79198 6.47948C1.6456 6.62587 1.5631 6.82423 1.5625 7.03125V8.4375L9.53906 10.1719C9.71371 10.2102 9.87007 10.307 9.98228 10.4462C10.0945 10.5854 10.1559 10.7587 10.1562 10.9375V12.5H14.8438V10.9375C14.8441 10.7587 14.9055 10.5854 15.0177 10.4462C15.1299 10.307 15.2863 10.2102 15.4609 10.1719L23.4375 8.4375V7.03125C23.4369 6.82423 23.3544 6.62587 23.208 6.47948C23.0616 6.3331 22.8633 6.2506 22.6562 6.25V6.25ZM14.8438 6.25H10.1562V5.46875C10.1568 5.26173 10.2393 5.06337 10.3857 4.91698C10.5321 4.7706 10.7305 4.6881 10.9375 4.6875H14.0625C14.2695 4.6881 14.4679 4.7706 14.6143 4.91698C14.7606 5.06337 14.8432 5.26173 14.8438 5.46875V6.25ZM16.4062 11.5703V13.2812C16.4057 13.4883 16.3231 13.6866 16.1768 13.833C16.0304 13.9794 15.832 14.0619 15.625 14.0625H9.375C9.16798 14.0619 8.96962 13.9794 8.82323 13.833C8.67685 13.6866 8.59435 13.4883 8.59375 13.2812V11.5703L1.5625 10.0313V19.5312C1.5631 19.7383 1.6456 19.9366 1.79198 20.083C1.93837 20.2294 2.13673 20.3119 2.34375 20.3125H22.6562C22.8633 20.3119 23.0616 20.2294 23.208 20.083C23.3544 19.9366 23.4369 19.7383 23.4375 19.5312V10.0313L16.4062 11.5703Z" fill="white"/>
</svg>
