<?xml version="1.0" encoding="UTF-8" standalone="no"?>
<svg
   xmlns:sketch="http://www.bohemiancoding.com/sketch/ns"
   xmlns:dc="http://purl.org/dc/elements/1.1/"
   xmlns:cc="http://creativecommons.org/ns#"
   xmlns:rdf="http://www.w3.org/1999/02/22-rdf-syntax-ns#"
   xmlns:svg="http://www.w3.org/2000/svg"
   xmlns="http://www.w3.org/2000/svg"
   xmlns:sodipodi="http://sodipodi.sourceforge.net/DTD/sodipodi-0.dtd"
   xmlns:inkscape="http://www.inkscape.org/namespaces/inkscape"
   width="23"
   height="23"
   viewBox="0 0 23 23"
   id="svg2"
   version="1.1"
   inkscape:version="0.48.5 r10040"
   sodipodi:docname="icon-cart.svg">
  <metadata
     id="metadata20">
    <rdf:RDF>
      <cc:Work
         rdf:about="">
        <dc:format>image/svg+xml</dc:format>
        <dc:type
           rdf:resource="http://purl.org/dc/dcmitype/StillImage" />
      </cc:Work>
    </rdf:RDF>
  </metadata>
  <defs
     id="defs18" />
  <sodipodi:namedview
     pagecolor="#ffffff"
     bordercolor="#666666"
     borderopacity="1"
     objecttolerance="10"
     gridtolerance="10"
     guidetolerance="10"
     inkscape:pageopacity="0"
     inkscape:pageshadow="2"
     inkscape:window-width="1050"
     inkscape:window-height="1641"
     id="namedview16"
     showgrid="false"
     inkscape:zoom="6.2105263"
     inkscape:cx="19.322034"
     inkscape:cy="19"
     inkscape:window-x="1280"
     inkscape:window-y="0"
     inkscape:window-maximized="1"
     inkscape:current-layer="svg2" />
  <title
     id="title4">ARDWEB_newicons-01b</title>
  <g
     sketch:type="MSShapeGroup"
     id="g6"
     transform="scale(0.60527919,0.60526316)"
     style="fill:#ffffff">
    <path
       d="m 27.695,30.088 c -2.186,0 -3.955,1.771 -3.955,3.957 0,2.186 1.77,3.955 3.955,3.955 2.187,0 3.957,-1.77 3.957,-3.955 0,-2.185 -1.771,-3.957 -3.957,-3.957 z m 0,6.33 c -1.311,0 -2.373,-1.062 -2.373,-2.373 0,-1.311 1.062,-2.375 2.373,-2.375 1.312,0 2.375,1.064 2.375,2.375 0,1.311 -1.064,2.373 -2.375,2.373 z m -14.242,-6.33 c -2.186,0 -3.957,1.771 -3.957,3.957 0,2.186 1.771,3.955 3.957,3.955 2.186,0 3.956,-1.77 3.956,-3.955 0,-2.185 -1.771,-3.957 -3.956,-3.957 z m 0,6.33 c -1.311,0 -2.374,-1.062 -2.374,-2.373 0,-1.311 1.063,-2.375 2.374,-2.375 1.311,0 2.373,1.064 2.373,2.375 0,1.311 -1.063,2.373 -2.373,2.373 z M 36.4,5 H 7.74 L 7.122,1.436 C 6.974,0.569 6.216,0 5.341,0 H 0.032 L 0,0.003 V 2.997 L 0.032,3 h 4.184 l 0.776,4.748 2.921,19.33 C 8.129,27.879 8.621,29 9.496,29 h 23.738 c 0.875,0 1.51,-1.279 1.584,-1.922 L 37.982,6.544 C 38.131,5.679 37.275,5 36.4,5 z M 34.422,8 32.048,25 H 10.683 L 8.309,8 h 26.113 z"
       id="path8"
       inkscape:connector-curvature="0" />
    <circle
       cx="13.833"
       cy="33.833"
       r="2.8329999"
       id="circle10"
       sodipodi:cx="13.833"
       sodipodi:cy="33.833"
       sodipodi:rx="2.8329999"
       sodipodi:ry="2.8329999"
       d="m 16.666,33.833 c 0,1.564623 -1.268377,2.833 -2.833,2.833 C 12.268378,36.666 11,35.397623 11,33.833 11,32.268378 12.268378,31 13.833,31 c 1.564623,0 2.833,1.268378 2.833,2.833 z" />
    <circle
       cx="27.833"
       cy="33.833"
       r="2.8329999"
       id="circle12"
       sodipodi:cx="27.833"
       sodipodi:cy="33.833"
       sodipodi:rx="2.8329999"
       sodipodi:ry="2.8329999"
       d="m 30.666,33.833 c 0,1.564623 -1.268377,2.833 -2.833,2.833 C 26.268378,36.666 25,35.397623 25,33.833 25,32.268378 26.268378,31 27.833,31 c 1.564623,0 2.833,1.268378 2.833,2.833 z" />
    <path
       d="M 6.875,7.094 10,26.5 33.219,26.781 35.281,7.094 H 6.875 z"
       id="path14"
       inkscape:connector-curvature="0" />
  </g>
</svg>
