<?xml version="1.0" encoding="UTF-8" standalone="no"?>
<svg width="25" height="16" viewBox="0 0 25 16" fill="none" xmlns="http://www.w3.org/2000/svg">
<path d="M25 10.5C24.9974 11.9579 24.417 13.3553 23.3862 14.3861C22.3553 15.417 20.9579 15.9973 19.5 16H5.5C4.24947 15.9996 3.03639 15.5732 2.06064 14.7911C1.0849 14.009 0.404733 12.9177 0.132224 11.6973C-0.140286 10.4768 0.011126 9.1999 0.561508 8.07701C1.11189 6.95412 2.0284 6.05223 3.16 5.51998C3.40993 4.36488 3.94826 3.29187 4.72479 2.40096C5.50132 1.51005 6.49077 0.830251 7.60092 0.424927C8.71107 0.0196024 9.90577 -0.098049 11.0737 0.082938C12.2415 0.263925 13.3446 0.737658 14.28 1.45998C15.0451 1.1263 15.876 0.970564 16.71 1.00449C17.5441 1.03841 18.3595 1.2611 19.095 1.65581C19.8305 2.05052 20.4669 2.60695 20.9562 3.28321C21.4456 3.95947 21.7751 4.73793 21.92 5.55998C22.8428 6.01454 23.6201 6.71796 24.1643 7.59084C24.7086 8.46372 24.998 9.47134 25 10.5Z" fill="white"/>
</svg>

