<?xml version="1.0" encoding="utf-8"?>
<!-- Generator: Adobe Illustrator 19.2.1, SVG Export Plug-In . SVG Version: 6.00 Build 0)  -->
<svg version="1.1" id="Layer_1" xmlns="http://www.w3.org/2000/svg" xmlns:xlink="http://www.w3.org/1999/xlink" x="0px" y="0px"
	 width="23px" height="23px" viewBox="0 0 23 23" enable-background="new 0 0 23 23" xml:space="preserve">
<path fill="#FFFFFF" d="M17.08,4.525c-0.275,0-0.556,0.019-0.834,0.059c-2.321,0.331-3.875,2.002-4.746,3.282
	c-0.872-1.281-2.425-2.951-4.748-3.282C6.476,4.544,6.196,4.525,5.92,4.525c-2.989,0-5.42,2.345-5.42,5.226
	c0,2.883,2.431,5.226,5.418,5.226c0,0,0.001,0,0.002,0l0,0c0,0,0.556,0.019,0.833,0.059c2.322,0.331,3.876,2.158,4.748,3.438
	c0.87-1.281,2.424-3.107,4.746-3.438c0.278-0.04,0.559-0.059,0.834-0.059l0,0h0.002c2.987,0,5.417-2.344,5.417-5.226
	C22.5,6.87,20.069,4.525,17.08,4.525z"/>
</svg>
