<svg xmlns="http://www.w3.org/2000/svg" xmlns:xlink="http://www.w3.org/1999/xlink" xmlns:fi="http://pattern.flaticon.com/" x="0" y="0" width="700" height="350" viewBox="0 0 700 350"><rect x="0px" y="0px" width="100%" height="100%" opacity="0.41" fill="#4caf50"/><defs><g transform="matrix(0.1697916491523753 0.04549553527192747 -0.04549553527192747 0.1697916491523753 -31.820237644216093 294.886424943223)" id="L1_72"><path d="M85.078,436.246l-0.149-0.14c-4.024-3.77-10.303-3.535-14.081,0.479c-3.778,4.015-3.559,10.364,0.447,14.151    c1.935,1.84,4.414,2.753,6.889,2.753c2.643,0,5.28-1.041,7.246-3.106C89.236,446.383,89.079,440.053,85.078,436.246z" fill="#1da854"/><path d="M156.434,415.898c-13.601-37.26-20.791-82.181-20.791-129.906c0-25.278,2.05-49.986,6.093-73.436    c0.938-5.442-2.713-10.615-8.156-11.552c-5.445-0.942-10.613,2.712-11.551,8.154c-4.236,24.57-6.384,50.421-6.384,76.834    c0,50.039,7.609,97.33,22.003,136.764c1.48,4.057,5.313,6.574,9.395,6.574c1.138,0,2.297-0.196,3.428-0.609    C155.658,426.827,158.328,421.086,156.434,415.898z" fill="#1da854"/><path d="M144.699,158.955c-5.281-1.617-10.872,1.355-12.487,6.636l-0.332,1.097c-1.575,5.292,1.438,10.859,6.731,12.436    c0.952,0.283,1.913,0.418,2.857,0.418c4.309,0,8.288-2.808,9.581-7.149l0.287-0.951    C152.951,166.161,149.981,160.571,144.699,158.955z" fill="#1da854"/><path d="M452.839,166.914c-3.905-3.905-10.237-3.905-14.142,0l-13.079,13.079c-18.169-34.17-44.806-63.147-77.518-84.191    c-27.582-17.744-58.505-29.144-90.782-33.63c3.431-4.287,6.055-9.226,7.699-14.637c5.928-19.518-5.128-40.22-24.646-46.149    c-16.671-5.064-34.351,4.38-39.414,21.049c-1.605,5.285,1.378,10.869,6.662,12.474c5.284,1.606,10.869-1.378,12.474-6.662    c1.858-6.119,8.349-9.583,14.466-7.726c8.967,2.724,14.046,12.234,11.322,21.201c-3.805,12.527-17.092,19.624-29.62,15.818    c-11.583-3.518-20.135-13.108-22.317-25.029c-0.994-5.433-6.203-9.028-11.636-8.036c-5.433,0.994-9.031,6.204-8.036,11.636    c1.909,10.429,6.833,19.755,13.91,27.03c-45.988,7.702-88.359,29.417-121.992,63.05C23.507,168.877,0,225.628,0,285.992    c0,47.931,14.814,93.72,42.841,132.42c1.956,2.701,5.01,4.135,8.107,4.135c2.033,0,4.085-0.618,5.857-1.901    c4.473-3.24,5.473-9.492,2.233-13.964c-25.539-35.265-39.038-76.998-39.038-120.689c0-95.236,64.971-175.571,152.913-199.044    c-8.345,9.184-16.092,20.61-23.043,34.12c-2.527,4.911-0.594,10.939,4.317,13.466c4.91,2.526,10.939,0.594,13.466-4.317    c16.66-32.381,37.378-50.216,58.337-50.216c22.36,0,44.916,20.949,61.886,57.475c18.352,39.503,28.459,92.246,28.459,148.515    c0,0.996,0.15,1.957,0.422,2.865L167.181,438.43c-1.875,1.875-2.929,4.419-2.929,7.071c0,2.652,1.054,5.196,2.929,7.071    c16.654,16.654,35.521,29.772,55.658,39.382c-37.551-0.568-74.068-11.292-105.801-31.108c-4.684-2.924-10.852-1.5-13.778,3.185    c-2.925,4.685-1.5,10.854,3.185,13.778c35.799,22.356,77.137,34.172,119.543,34.172c14.83,0,29.659-1.453,44.089-4.308    c13.169,2.636,26.55,3.966,39.933,3.966c51.725,0,103.451-19.689,142.829-59.067C490.989,414.42,512,363.697,512,309.743    C512,255.79,490.99,205.066,452.839,166.914z M279.161,87.076c56.446,15.239,105.111,54.188,131.603,107.772l-74.711,74.711    C333.375,189.737,311.311,122.554,279.161,87.076z M400.176,233.719c17.972,21.244,27.771,47.881,27.771,76.024    c0,31.503-12.267,61.119-34.543,83.394c-43.602,43.602-113.127,45.854-159.414,6.768L400.176,233.719z M219.803,414.091    c25.812,22.345,58.008,33.523,90.208,33.523c35.322,0,70.645-13.445,97.536-40.336c51.403-51.403,53.67-133.614,6.813-187.743l9-9    c51.796,59.103,49.527,149.368-6.831,205.725c-56.357,56.358-146.623,58.628-205.725,6.83L219.803,414.091z M438.698,438.43    c-68.585,68.586-178.745,70.876-250.112,6.879l8.049-8.049c32.225,28.687,72.798,43.041,113.376,43.041    c43.697,0,87.394-16.633,120.66-49.899c64.157-64.158,66.437-167.109,6.859-234.036l8.051-8.051    c30.012,33.422,46.423,76.162,46.423,121.427C492.001,358.355,473.071,404.057,438.698,438.43z" fill="#1da854"/><path d="M348.248,333.839l-3.091-3.091c-3.905-3.905-10.237-3.905-14.142,0c-3.905,3.905-3.905,10.236,0,14.142l3.092,3.091    c1.953,1.953,4.512,2.929,7.071,2.929s5.119-0.976,7.071-2.929C352.153,344.077,352.153,337.745,348.248,333.839z" fill="#1da854"/><path d="M314.021,368.066l-3.091-3.09c-3.905-3.904-10.237-3.905-14.141,0.001c-3.906,3.906-3.905,10.237,0.001,14.142l3.091,3.09    c1.953,1.952,4.511,2.928,7.07,2.928s5.119-0.977,7.072-2.93C317.926,378.302,317.925,371.97,314.021,368.066z" fill="#1da854"/><path d="M357.56,380.47l-3.091-3.091c-3.904-3.905-10.236-3.905-14.141,0c-3.905,3.905-3.905,10.237,0,14.142l3.091,3.091    c1.953,1.953,4.512,2.929,7.071,2.929s5.119-0.976,7.071-2.929C361.464,390.708,361.464,384.376,357.56,380.47z" fill="#1da854"/><path d="M390.858,345.543l-3.091-3.09c-3.905-3.904-10.236-3.905-14.141,0.002c-3.905,3.905-3.904,10.237,0.001,14.141l3.091,3.09    c1.953,1.952,4.511,2.928,7.07,2.928s5.119-0.977,7.072-2.93C394.764,355.779,394.763,349.448,390.858,345.543z" fill="#1da854"/><path d="M380.001,302.085l-3.091-3.091c-3.905-3.905-10.237-3.905-14.142,0c-3.905,3.905-3.905,10.237,0,14.142l3.092,3.091    c1.953,1.953,4.512,2.929,7.071,2.929s5.119-0.976,7.071-2.929C383.906,312.322,383.906,305.991,380.001,302.085z" fill="#1da854"/></g><g transform="matrix(0.078125 0 0 0.078125 155 330)" id="L1_73"><path d="M481.258,259.38c-0.729-0.868-1.468-1.725-2.214-2.566c-22.293-25.189-53.212-40.403-87.063-42.837    c-33.653-2.418-66.576,8.013-92.72,29.375l-4.917,4.019c-0.542,0.443-1.073,0.895-1.606,1.344    c-5.738-48.049,23.592-94.781,71.226-109.438c6.669,0.566,13.347,0.865,20.016,0.865c39.206-0.001,78.091-9.733,112.876-28.642    c13.279-7.218,18.769-23.657,12.499-37.424c-3.266-7.169-9.403-12.77-16.84-15.365c-7.481-2.612-15.477-2.074-22.512,1.514    c-26.045,13.285-55.254,19.994-84.489,19.41c-0.068-0.001-0.136-0.002-0.205-0.002c-5.428,0-9.884,4.346-9.993,9.799    c-0.111,5.52,4.276,10.086,9.796,10.197c32.522,0.646,65.006-6.813,93.976-21.59c2.128-1.085,4.555-1.243,6.834-0.448    c2.344,0.818,4.203,2.515,5.231,4.773c1.939,4.259,0.249,9.338-3.85,11.565c-39.056,21.229-81.979,29.365-123.48,25.51    c-0.395-0.06-0.794-0.102-1.198-0.114c-56.968-5.611-111.16-33.831-148.871-81.84c-1.593-2.028-2.229-4.544-1.789-7.081    c0.437-2.528,1.873-4.673,4.042-6.039l4.688-2.955c3.897-2.456,8.956-1.594,11.768,2.004    c19.929,25.502,46.079,45.925,75.626,59.058c5.045,2.244,10.956-0.029,13.199-5.075c2.244-5.045-0.029-10.955-5.075-13.198    C289.65,52.391,266.139,34.03,248.22,11.1c-9.156-11.716-25.573-14.557-38.187-6.607l-4.688,2.955    c-6.92,4.361-11.69,11.486-13.085,19.548c-1.396,8.073,0.706,16.398,5.768,22.844c23.283,29.643,53.289,53.11,87.202,68.689    c-21.995,5.475-42.703,15.512-61.176,29.795c-26.139,20.209-46.301,48.338-57.408,79.853c-30.023-8.932-62.009-6.857-90.739,6.002    c-30.815,13.791-54.541,38.53-66.81,69.661c-0.411,1.044-0.81,2.094-1.196,3.153c-12.347,33.843-10.051,71.665,6.297,103.764    l39.172,76.918C61.217,503.077,76.746,512,92.968,512c6.193,0,12.489-1.302,18.494-4.04l78.54-35.809    c30.625-13.964,54.755-39.473,67.097-70.635c3.886,8.676,8.761,16.963,14.597,24.711c0.678,0.899,1.368,1.793,2.073,2.681    c22.525,28.358,56.149,46.256,92.251,49.103l86.543,6.825c1.205,0.096,2.4,0.142,3.587,0.142    c22.401,0,41.501-16.629,44.273-39.245l10.562-86.167C515.393,323.622,504.558,287.105,481.258,259.38z M128.957,242.644    c12.256,0,24.751,2.04,37.021,6.324l5.961,2.083h0.001c35.544,12.414,60.816,40.746,70.203,74.084    c-11.334-5.304-27.133-15.672-39.84-35.324c-2.241-3.468-6.382-5.203-10.424-4.362c-4.042,0.837-7.154,4.072-7.834,8.143    c-2.899,17.351-9.01,25.041-13.084,28.345c-5.457-6.053-13.783-19.071-9.51-39.233c1.035-4.885-1.692-9.784-6.388-11.478    c-4.698-1.697-9.924,0.335-12.246,4.757c-8.89,16.925-24.021,20.547-33.549,21.003c0.996-7.12,3.642-16.975,10.589-23.51    c3.82-3.594,4.215-9.526,0.905-13.595c-3.311-4.068-9.2-4.887-13.495-1.878c-14.834,10.394-33.623,10.56-46.999,8.8    C79.48,251.309,103.709,242.644,128.957,242.644z M241.431,385.81c-0.278,0.909-0.568,1.818-0.871,2.726    c-9.656,28.926-31.107,52.771-58.853,65.422l-78.54,35.809c-11.961,5.45-26.007,0.549-31.974-11.167l-39.173-76.918    c-13.839-27.173-15.781-59.188-5.33-87.837c0.328-0.897,0.666-1.789,1.015-2.673c3.963-10.054,9.277-19.17,15.639-27.25    c9.654,2.461,28.33,5.867,47.754,2.006c-2.821,11.078-2.414,20.279-2.378,20.96c0.237,4.579,3.56,8.41,8.059,9.294    c10.258,2.012,28.855,1.366,44.784-9.396c4.804,22.938,21.064,34.724,21.989,35.377c2.248,1.586,5.05,2.178,7.749,1.633    c2.096-0.424,17.392-4.247,26.848-26.752c17.816,19.401,37.383,27.713,47.837,31.011c-0.025,2.621,0.038,5.232,0.17,7.833    C246.001,365.803,244.472,375.857,241.431,385.81z M254.751,301.993c-0.978-2.167-2.01-4.318-3.113-6.445    c-14.291-27.585-37.607-48.915-66.147-60.716c21.247-60.81,76.498-101.169,139.643-101.169c0.876,0,3.294-0.15,3.676-0.059    c-43.456,27.486-66.079,80.639-53.178,132.465C266.787,276.878,259.746,288.989,254.751,301.993z M266.096,356.85    c0.067-3.586-0.013-7.17-0.251-10.745c0.808-31.12,14.895-61.797,41.151-83.248l4.918-4.019    c31.049-25.37,71.348-31.498,106.299-19.465c-12.01,6.302-29.885,12.681-47.684,7.905c-5.065-1.358-10.319,1.426-12.038,6.379    c-1.719,4.954,0.682,10.395,5.499,12.466c8.882,3.815,14.781,12.261,18.163,18.657c-9.182,2.868-24.787,4.688-39.061-8.296    c-3.693-3.359-9.299-3.48-13.134-0.281c-3.834,3.199-4.721,8.735-2.077,12.972c11.024,17.666,7.57,32.896,4.499,40.454    c-4.992-1.705-13.457-6.861-22.205-22.332c-2.032-3.594-6.065-5.562-10.147-4.974c-4.085,0.597-7.383,3.642-8.303,7.664    c-5.286,23.109-16.693,38.35-25.602,47.236C266.113,357.1,266.105,356.975,266.096,356.85z M491.137,357.135l-10.562,86.167    c-1.613,13.156-13.222,22.64-26.438,21.602l-86.544-6.825c-30.589-2.413-59.079-17.577-78.161-41.602    c-0.599-0.755-1.187-1.515-1.763-2.28c-7.976-10.588-13.721-22.162-17.317-34.169c8.742-6.704,24.422-21.317,34.594-45.848    c16.679,18.063,32.462,16.416,34.585,16.095c2.722-0.41,5.154-1.925,6.723-4.186c0.649-0.936,11.979-17.686,8.59-41.041    c18.767,4.724,36.59-1.063,45.595-6.497c3.926-2.369,5.737-7.105,4.394-11.49c-0.201-0.656-2.993-9.53-9.499-19.049    c19.746-3.022,36.279-12.71,44.55-18.357c8.807,5.453,16.972,12.263,24.187,20.414c0.634,0.717,1.26,1.442,1.878,2.178    C485.69,295.736,494.871,326.678,491.137,357.135z" fill="#1da854"/><path d="M452.207,283.877c-3.551-4.228-9.858-4.775-14.087-1.222c-4.228,3.553-4.775,9.859-1.222,14.088    c12.148,14.455,17.797,33.495,15.499,52.236l-5.397,44.033c-0.672,5.48,3.227,10.47,8.708,11.142    c0.413,0.051,0.823,0.075,1.229,0.075c4.979,0,9.291-3.716,9.912-8.783l5.397-44.033    C475.217,327.182,467.914,302.565,452.207,283.877z" fill="#1da854"/><path d="M376.084,361.421l-2.49-2.488c-3.906-3.903-10.237-3.9-14.141,0.004c-3.904,3.907-3.902,10.237,0.004,14.142l2.49,2.488    c1.952,1.951,4.511,2.927,7.068,2.927c2.56,0,5.12-0.978,7.072-2.931C379.992,371.656,379.99,365.326,376.084,361.421z" fill="#1da854"/><path d="M323.992,399.432l-3.515-3.536c-3.895-3.916-10.225-3.936-14.141-0.043c-3.917,3.894-3.937,10.225-0.043,14.142    l3.515,3.536c1.955,1.966,4.523,2.95,7.092,2.95c2.549,0,5.099-0.969,7.048-2.907C327.865,409.68,327.885,403.349,323.992,399.432    z" fill="#1da854"/><path d="M423.869,358.132c-1.86-1.859-4.44-2.93-7.069-2.93c-2.64,0-5.209,1.07-7.069,2.93c-1.87,1.86-2.93,4.44-2.93,7.069    c0,2.63,1.06,5.209,2.93,7.069c1.86,1.86,4.43,2.93,7.069,2.93c2.63,0,5.209-1.07,7.069-2.93c1.86-1.86,2.93-4.44,2.93-7.069    C426.799,362.572,425.729,359.992,423.869,358.132z" fill="#1da854"/><path d="M415.04,316.357c-1.86-1.859-4.44-2.93-7.069-2.93c-2.63,0-5.209,1.07-7.069,2.93c-1.86,1.86-2.93,4.44-2.93,7.069    c0,2.63,1.07,5.209,2.93,7.069c1.86,1.859,4.44,2.93,7.069,2.93c2.63,0,5.209-1.071,7.069-2.93c1.86-1.86,2.93-4.44,2.93-7.069    C417.97,320.796,416.9,318.217,415.04,316.357z" fill="#1da854"/><path d="M371.045,409.447c-1.86-1.86-4.44-2.93-7.069-2.93c-2.63,0-5.209,1.069-7.069,2.93c-1.86,1.859-2.93,4.439-2.93,7.069    c0,2.63,1.07,5.209,2.93,7.068c1.86,1.86,4.44,2.931,7.069,2.931c2.63,0,5.209-1.07,7.069-2.931c1.86-1.859,2.93-4.439,2.93-7.068    C373.974,413.886,372.904,411.306,371.045,409.447z" fill="#1da854"/><path d="M427.321,416.207l-2.501-2.517c-3.894-3.917-10.225-3.936-14.141-0.043c-3.917,3.894-3.936,10.225-0.042,14.142    l2.501,2.517c1.955,1.966,4.523,2.95,7.091,2.95c2.549,0,5.098-0.969,7.049-2.907    C431.195,426.455,431.214,420.124,427.321,416.207z" fill="#1da854"/><path d="M81.276,411.978l-15.833-31.091c-8.513-16.716-9.708-36.41-3.28-54.032c1.893-5.187-0.779-10.928-5.966-12.82    c-5.19-1.891-10.929,0.779-12.821,5.967c-8.324,22.817-6.776,48.317,4.247,69.961l15.833,31.091    c1.766,3.468,5.276,5.463,8.918,5.463c1.527,0,3.077-0.351,4.529-1.091C81.825,422.92,83.782,416.898,81.276,411.978z" fill="#1da854"/><path d="M149.609,355.482c-5.1-2.122-10.952,0.294-13.072,5.394l-1.351,3.25c-2.12,5.099,0.295,10.952,5.394,13.071    c1.255,0.522,2.556,0.77,3.835,0.77c3.919,0,7.639-2.319,9.237-6.163l1.351-3.25C157.123,363.454,154.708,357.6,149.609,355.482z" fill="#1da854"/><path d="M212.799,369.314c-5.107-2.1-10.951,0.334-13.053,5.438l-1.898,4.609c-2.103,5.107,0.332,10.95,5.438,13.054    c1.246,0.513,2.535,0.756,3.804,0.756c3.932,0,7.66-2.335,9.249-6.194l1.898-4.609    C220.34,377.261,217.905,371.418,212.799,369.314z" fill="#1da854"/><path d="M102.129,339.399c-5.227-1.791-10.91,1.001-12.697,6.226l-1.194,3.493c-1.787,5.225,1.001,10.91,6.226,12.696    c1.072,0.367,2.163,0.541,3.236,0.541c4.158,0,8.04-2.614,9.46-6.767l1.194-3.493    C110.143,346.871,107.355,341.185,102.129,339.399z" fill="#1da854"/><path d="M174.485,403.348c-1.86-1.86-4.44-2.92-7.069-2.92c-2.63,0-5.209,1.061-7.069,2.92c-1.86,1.87-2.93,4.44-2.93,7.069    c0,2.63,1.07,5.209,2.93,7.079c1.86,1.86,4.44,2.93,7.069,2.93c2.63,0,5.209-1.069,7.069-2.93c1.86-1.87,2.93-4.44,2.93-7.079    C177.415,407.787,176.345,405.217,174.485,403.348z" fill="#1da854"/><path d="M98.743,443.364c-1.87-1.86-4.44-2.93-7.069-2.93c-2.64,0-5.209,1.069-7.069,2.93c-1.87,1.86-2.93,4.439-2.93,7.069    c0,2.64,1.06,5.209,2.93,7.068c1.86,1.87,4.43,2.931,7.069,2.931c2.63,0,5.209-1.061,7.069-2.931c1.86-1.859,2.93-4.43,2.93-7.068    C101.673,447.802,100.603,445.223,98.743,443.364z" fill="#1da854"/><path d="M352.581,75.912l-1.182-0.25c-5.398-1.167-10.718,2.27-11.881,7.668c-1.162,5.398,2.271,10.717,7.669,11.881l1.323,0.281    c0.687,0.143,1.372,0.211,2.046,0.211c4.638,0,8.798-3.246,9.779-7.965C361.46,82.331,357.987,77.036,352.581,75.912z" fill="#1da854"/></g><g transform="matrix(0.07812485098838806 0 0 0.07812485098838806 64.5 72.49999994277965)" id="L1_74"><path d="M122.059,224.172c-1.86-1.86-4.44-2.92-7.07-2.92s-5.21,1.06-7.07,2.92c-1.86,1.87-2.93,4.44-2.93,7.08    c0,2.63,1.07,5.21,2.93,7.07c1.86,1.86,4.44,2.93,7.07,2.93s5.21-1.07,7.07-2.93c1.87-1.87,2.93-4.44,2.93-7.07    C124.989,228.621,123.929,226.042,122.059,224.172z" fill="#1da854"/><path d="M210.257,316.74c-1.86-1.86-4.44-2.93-7.07-2.93c-2.63,0-5.21,1.07-7.07,2.93c-1.86,1.86-2.93,4.44-2.93,7.07    c0,2.63,1.07,5.21,2.93,7.07c1.86,1.86,4.44,2.93,7.07,2.93c2.64,0,5.21-1.07,7.07-2.93c1.86-1.86,2.93-4.44,2.93-7.07    C213.187,321.18,212.117,318.6,210.257,316.74z" fill="#1da854"/><path d="M501.994,129.278l-27.373-9.388l31.242-31.242c5.234-5.234,7.293-12.647,5.508-19.831    c-1.785-7.183-7.075-12.771-14.149-14.946L478.48,48.11c-15.987-4.915-33.167-1.281-45.744,9.449l-11.159-42.321    c-0.913-3.462-3.606-6.171-7.062-7.105c-3.456-0.933-7.146,0.052-9.679,2.583L349.784,65.77l-10.01-22.558    c-1.337-3.012-4.072-5.173-7.312-5.775c-3.24-0.604-6.569,0.429-8.9,2.76l-53.329,53.329c-9.32-2.025-18.949-2.823-28.645-2.287    c-35.791,1.979-68.065,21.573-86.334,52.413l-27.608,46.606c-2.814,4.752-1.244,10.886,3.507,13.701    c4.752,2.814,10.885,1.245,13.701-3.507l21.139-35.686l45.184,45.184c1.953,1.953,4.512,2.929,7.071,2.929    s5.119-0.976,7.071-2.929c3.905-3.905,3.905-10.237,0-14.143l-48.544-48.544c15.328-21.272,39.438-34.59,65.917-36.054    c24.747-1.371,48.972,7.896,66.49,25.415l58.409,58.408c17.076,17.076,26.304,40.535,25.492,64.62l-26.408-26.408    c-3.905-3.905-10.237-3.905-14.143,0c-3.905,3.905-3.905,10.237,0,14.143l36.323,36.323    c-6.473,19.928-19.989,37.084-38.488,48.042l-78.56,46.534l-36.335-36.334c-3.905-3.905-10.237-3.905-14.142,0    c-3.905,3.905-3.905,10.237,0,14.142l32.714,32.714l-60.651,35.926c-30.05,17.8-62.372,31.976-95.892,42.194    c-0.355-0.529-0.763-1.032-1.231-1.5l-15.6-15.601c-3.905-3.905-10.237-3.905-14.142,0c-3.905,3.905-3.906,10.237,0,14.142    l9.041,9.042c-17.907,4.471-36.08,7.82-54.366,9.997c5.565-46.746,18.796-92.767,38.834-135.441l42.188,42.188    c1.953,1.953,4.512,2.929,7.071,2.929s5.119-0.977,7.071-2.929c3.905-3.905,3.906-10.237,0-14.142l-46.908-46.908    c3.202-6.042,6.536-12.011,10.017-17.887l20.452-34.526c2.814-4.752,1.244-10.886-3.507-13.701    c-4.75-2.815-10.885-1.244-13.701,3.507l-20.452,34.526C27.709,358.973,6.191,425.511,0.042,493.047    c-0.5,5.5,3.552,10.624,9.052,11.125c0.309,0.028,0.614,0.042,0.918,0.042c0.08,0,0.158-0.01,0.238-0.012    c-0.001,0.004-0.001,0.008-0.002,0.012c0.304,0,0.61-0.014,0.918-0.042c67.537-6.15,134.076-27.669,192.422-62.23l69.567-41.207    c1.611-0.445,3.133-1.294,4.399-2.56c0.032-0.032,0.058-0.067,0.089-0.099l82.917-49.115    c30.841-18.269,50.435-50.543,52.413-86.335c0.424-7.676,0.013-15.313-1.181-22.788l94.028-94.029    c2.439-2.44,3.449-5.965,2.671-9.327C507.712,133.121,505.257,130.397,501.994,129.278z M306.665,108.889    c-4.832-3.194-9.902-5.986-15.159-8.352l35.896-35.896l7.226,16.285L306.665,108.889z M323.325,122.48    c-0.328-0.328-0.665-0.646-0.997-0.97l84.347-84.347l6.95,26.36c1.663,6.306-0.168,13.087-4.777,17.7l-63.39,63.39L323.325,122.48    z M383.511,182.715c-0.586-0.615-1.177-1.225-1.779-1.827L359.6,158.757l21.831-21.831c0.001-0.001,0.002-0.002,0.003-0.003    l41.551-41.551c0.004-0.004,0.007-0.008,0.011-0.011l21.032-21.032c7.495-7.495,18.445-10.216,28.576-7.101l18.742,5.762    c0.16,0.049,0.493,0.151,0.618,0.652c0.124,0.5-0.122,0.747-0.241,0.865L383.511,182.715z M405.734,217.611    c-2.605-6.651-5.867-13.047-9.758-19.076l62.901-62.901l21.47,7.364L405.734,217.611z" fill="#1da854"/></g><g transform="matrix(0.13671794533729553 0 0 0.13671794533729553 315 140)" id="L1_75"><path d="M504.491,143.284c-1.996-4.097-5.285-10.848-5.408-13.468c4.726-10,16.005-34.948-3.951-54.306    c-13.769-13.357-29.311-2.535-38.635,3.989c1.019-2.408,1.861-4.868,2.345-7.404c1.653-8.667-1.319-16.272-8.368-21.413    c-7.184-5.24-14.505-7.245-21.431-7.388c-1.858-8.709-5.885-21.005-14.485-29.348c-18.536-17.979-44.566-14.987-58.056-1.901    c-0.758,0.735-1.315,1.16-1.676,1.398c-1.051-0.64-2.797-2.128-4.021-3.171C346.011,6.185,338.764,0.01,328.048,0.01    c-15.058,0-22.681,13.045-27.727,21.677c-1.269,2.171-3.041,5.203-4.364,6.867c-0.44-0.335-1.005-0.811-1.694-1.479    c-8.398-8.146-19.321-10.904-29.981-7.563c-16.184,5.074-28.334,22.67-33.338,48.278c-4.559,23.329-28.921,43.86-54.308,45.768    c-37.97,2.853-41.849,25.415-44.965,43.543c-2.1,12.218-4.084,23.758-14.413,33.778c-9.266,8.988-18.792,14.859-29.822,21.656    c-16.258,10.019-34.684,21.373-57.559,45.724c-53.251,56.692-26.615,120.972,12.373,158.793c0,0,59.076,57.307,60.597,58.783    c20.589,19.971,51.148,33.337,81.746,35.753c3.42,0.271,6.818,0.404,10.198,0.404c32.111-0.001,62.118-12.115,85.381-34.68    c11.203-10.868,22.545-24.481,34.673-41.62c3.19-4.508,2.121-10.749-2.387-13.939c-4.508-3.19-10.749-2.121-13.939,2.387    c-11.407,16.121-21.963,28.817-32.272,38.817c-26.185,25.401-57.244,31.992-85.322,28.331    c35.568-26.841,67.626-57.799,95.48-92.243L381.245,269.4c10.508-3.914,22.882-1.777,31.342,6.429    c3.964,3.845,10.296,3.75,14.141-0.215c3.846-3.964,3.749-10.295-0.215-14.141c-7.854-7.619-17.73-12.103-27.967-13.467    l31.399-38.829c3.326-4.113,2.874-10.104-1.03-13.671c-3.905-3.567-9.912-3.478-13.708,0.205l-62.069,60.209    c-0.864-14.449-7.057-27.909-17.679-38.214c-3.965-3.846-10.295-3.75-14.141,0.215s-3.749,10.295,0.215,14.141    c7.559,7.332,11.721,17.047,11.721,27.355c0,9.247-3.358,18.01-9.502,25.009l-14.645,14.206    c-6.827,6.622-13.728,13.185-20.678,19.706c0.115-1.659,0.195-3.325,0.195-5.004c0-19.438-7.796-37.704-21.95-51.436    c-3.964-3.845-10.295-3.75-14.141,0.215c-3.846,3.964-3.749,10.295,0.215,14.141c10.238,9.932,15.877,23.1,15.877,37.08    c0,13.98-5.639,27.147-15.877,37.079c-0.545,0.528-1.009,1.107-1.407,1.716c-43.071,38.105-88.2,74.195-134.841,107.837    c-0.04-0.03-0.074-0.063-0.114-0.092c-1.268-0.924-2.513-1.89-3.739-2.887c-3.976-4.915-5.896-9.567-5.577-13.646    c0.409-5.242,4.487-8.858,6.882-10.547c10.152-7.162,9.682-18.943,9.4-25.981c-0.013-0.328-0.027-0.69-0.041-1.066    c10.299-0.314,22.121-5.245,31.174-13.196c8.27-7.264,12.986-16.181,13.283-25.107c0.094-2.802,0.056-5.587,0.016-8.535    c-0.19-14.065-0.406-30.006,15.205-50.586c8.729-11.508,18.306-16.95,27.565-22.212c11.237-6.387,22.856-12.992,26.618-28.99    c3.318-14.115,15.255-23.756,37.564-30.342c12.156-3.589,22.056-13.825,30.183-25.951c0.155-0.227,0.302-0.459,0.453-0.689    c5.33-8.065,9.893-16.915,13.819-25.18c0.752-0.153,2.121-0.244,3.084-0.307c5.425-0.358,19.836-1.31,20.263-20.77    c0.001-0.056,0.002-0.109,0.005-0.161c1.966-0.199,5.523,0.107,7.813,0.304c7.433,0.637,15.852,1.362,22.22-4.121    c0.79-0.317,3.211-0.308,4.673-0.3c4.534,0.018,11.346,0.048,15.957-5.688c4.474-5.563,3.542-12.673,2.451-17.537    c-0.171-0.764-0.225-1.297-0.235-1.639c2.214-1.002,8.274-1.119,10.668-1.166c2.624-0.051,4.891-0.094,6.968-0.452    c6.839-1.176,10.497-7.071,14.035-12.771c1.465-2.361,4.089-6.589,5.75-7.854c0.141,0.074,0.318,0.176,0.532,0.316    c12.753,8.359,25.336-0.449,34.522-6.88c3.85-2.694,7.829-5.48,10.8-6.447c1.595-0.519,1.751-0.363,2.514,0.377    c8.342,8.092,5.85,18.62-0.458,31.937c-4.421,9.336,0.756,19.962,5.763,30.24c1.996,4.095,5.253,10.781,5.485,13.592    c-1.022,0.991-3.595,2.55-5.363,3.623c-4.623,2.803-9.862,5.98-13.198,11.392c-3.034,4.923-5.267,13.122,1.336,24.22    c3.098,5.207,4.035,9.851,2.789,13.804c-1.53,4.85-6.205,8.438-10.071,10.179c-12.345,5.56-13.728,16.952-14.839,26.104    c-0.521,4.294-1.061,8.733-2.584,12.938c-3.693,10.195-32.524,34.9-60.692,40.589c-15.269,3.083-29.031,19.981-44.999,44.405    c-3.022,4.623-1.725,10.82,2.898,13.842c4.621,3.021,10.819,1.724,13.842-2.898c5.447-8.332,22.022-33.687,32.218-35.745    c32.656-6.595,68.83-34.864,75.538-53.382c2.298-6.346,3.038-12.441,3.633-17.338c0.994-8.188,1.575-9.549,3.198-10.28    c10.271-4.626,17.901-12.791,20.931-22.398c2.087-6.615,2.97-17.197-4.673-30.044c-1.277-2.146-1.455-3.253-1.479-3.542    c0.706-1.217,4.476-3.503,6.523-4.745c5.457-3.309,12.249-7.428,14.358-15.265C513.739,162.266,509.038,152.616,504.491,143.284z     M310.696,324.833l-49.843,61.637c-30.262,37.422-65.687,70.567-105.307,98.581c-8.563-3.122-16.507-7.099-23.532-11.61    C194.748,427.933,254.744,378.04,310.696,324.833z M56.174,402.695c-11.753-11.4-67.562-71.292-11.719-130.742    c21.052-22.412,38.276-33.026,53.473-42.391c11.53-7.105,22.42-13.817,33.256-24.327c15.01-14.56,17.887-31.296,20.197-44.745    c2.987-17.375,4.351-25.305,26.752-26.988c34.343-2.581,66.161-29.759,72.437-61.875c4.122-21.092,12.876-30.892,19.692-33.03    c3.588-1.124,6.976-0.171,10.073,2.834c2.268,2.2,9.168,8.896,18.382,7.635c9.528-1.303,14.491-9.794,18.87-17.286    c3.897-6.669,7.143-11.77,10.46-11.77c3.188,0,5.796,2.084,9.786,5.484c5.795,4.937,17.849,15.208,32.594,0.906    c5.92-5.743,19.71-8.277,30.204,1.902c4.73,4.589,7.425,12.689,8.808,19.061c-5.645,2.343-10.299,5.187-13.374,7.102    c-2.62,0.362-10.087-1.888-14.609-3.249c-9.854-2.965-20.043-6.03-28.33-2.668c-7.5,3.043-10.711,10.056-13.291,15.691    c-0.987,2.155-2.824,6.167-3.859,6.735c-0.267,0.085-1.609,0.101-4.207-0.914c-14.063-5.489-24.546-3.021-30.867,0.016    c-8.863,4.26-15.761,12.516-18.924,22.651c-0.512,1.638-2.802,2.466-9.893,4.281c-4.79,1.226-10.751,2.752-16.733,5.762    c-19.548,9.839-37.152,51.941-42.895,77.296c-9.047,39.945-36.486,56.491-68.259,75.648    c-22.936,13.831-46.654,28.131-65.55,52.511c-19.489,25.144-27.503,54.584-23.177,85.139c0.503,3.553,1.189,7.097,2.029,10.62    L56.174,402.695z M434.313,79.174c-0.567,1.046-1.136,2.106-1.698,3.173c-1.461,0.003-2.767,0.178-3.879,0.424    c-9.35,2.066-14.72,10.718-18.641,17.036c-0.703,1.132-1.648,2.656-2.397,3.728c-0.664,0.021-1.381,0.034-1.999,0.046    c-7.81,0.151-19.613,0.379-26.28,8.874c-2.507,3.194-5.084,8.72-3.517,17.15c-4.511,0.023-10.607,0.426-15.881,4.726    c-1.56,0.32-5.526-0.021-7.958-0.23c-7.436-0.64-16.686-1.433-23.396,4.592c-3.929,3.528-5.99,8.492-6.128,14.753    c-0.01,0.448-0.032,0.825-0.062,1.14c-0.518,0.045-1.073,0.082-1.524,0.112c-2.801,0.185-7.372,0.49-11.682,2.813    c-2.986-7.033-7.747-13.259-14.005-18.153c-4.352-3.402-10.635-2.632-14.038,1.717c-3.401,4.351-2.633,10.636,1.718,14.038    c5.572,4.357,9.045,10.54,9.78,17.411c0.559,5.231-0.522,10.407-3.064,14.979c-0.742,1.164-1.48,2.282-2.213,3.348    c-0.197,0.254-0.393,0.508-0.599,0.757c-0.439,0.527-0.813,1.086-1.126,1.668c-5.862,7.983-11.429,12.783-16.654,14.326    c-10.845,3.202-43.847,12.944-51.37,44.946c-1.689,7.183-6.721,10.319-17.033,16.18c-9.982,5.674-22.405,12.735-33.616,27.513    c-19.768,26.06-19.479,47.378-19.27,62.943c0.037,2.708,0.071,5.265-0.006,7.599c-0.11,3.301-2.477,7.219-6.494,10.747    c-6.747,5.927-15.399,8.64-20.086,8.19c-6.633-0.636-10.723,1.774-12.985,3.912c-5.362,5.07-5.076,12.23-4.847,17.985    c0.127,3.166,0.318,7.95-0.945,8.841c-5.595,3.948-9.798,8.878-12.387,14.401c-7.558-12.331-12.768-26.242-14.757-40.292    c-3.551-25.077,3.083-49.312,19.184-70.083c16.61-21.431,38.704-34.752,60.069-47.636c32.697-19.716,66.509-40.104,77.437-88.358    c6.546-28.904,23.275-59.267,32.38-63.849c4.048-2.037,8.447-3.163,12.701-4.252c8.959-2.293,20.109-5.147,24.024-17.698    c0.56-1.794,2.827-7.86,8.496-10.584c3.992-1.918,9.017-1.72,14.931,0.588c22.173,8.66,30.127-8.708,33.522-16.125    c0.833-1.819,2.053-4.482,2.874-5.503c2.774-0.303,10.254,1.937,14.802,3.305c10.833,3.259,22.034,6.63,30.546,1.322    c5.856-3.652,11.22-6.434,16.229-7.69c0.295-0.056,0.586-0.121,0.871-0.202c5.476-1.185,10.532-0.469,15.348,3.044    c0.361,0.264,0.537,0.449,0.609,0.534C439.581,69.459,436.031,76.005,434.313,79.174z" fill="#1da854"/><path d="M336.312,384.464c-4.68-2.938-10.851-1.526-13.786,3.151l-0.106,0.171c-2.913,4.692-1.444,10.816,3.248,13.729    c1.631,1.013,3.442,1.494,5.235,1.494c3.364,0,6.66-1.696,8.561-4.757C342.401,393.572,340.99,387.399,336.312,384.464z" fill="#1da854"/><path d="M127.382,241.792c-2.947-4.672-9.122-6.068-13.793-3.123c-2.432,1.534-4.85,3.023-7.268,4.514    c-15.741,9.7-30.608,18.862-50.206,39.724c-11.129,11.849-17.658,24.798-19.404,38.491c-0.698,5.479,3.177,10.486,8.655,11.185    c0.43,0.055,0.855,0.082,1.277,0.082c4.959,0,9.263-3.687,9.907-8.736c1.202-9.425,5.961-18.619,14.142-27.329    c17.777-18.924,30.911-27.018,46.14-36.402c2.459-1.516,4.936-3.042,7.427-4.613C128.93,252.638,130.328,246.463,127.382,241.792z    " fill="#1da854"/><path d="M156.476,216.947c-3.839-3.972-10.169-4.078-14.14-0.24l-0.176,0.17c-3.971,3.838-4.078,10.169-0.239,14.14    c1.963,2.03,4.575,3.05,7.191,3.05c2.503,0,5.008-0.934,6.949-2.81l0.176-0.17C160.208,227.249,160.315,220.918,156.476,216.947z" fill="#1da854"/></g><g transform="matrix(0.09765662997961044 0 0 0.09765662997961044 62.5 237.5)" id="L1_76"><path d="M176.423,474.051c-2.607-4.867-8.665-6.701-13.537-4.096l-0.497,0.268c-4.869,2.606-6.703,8.667-4.097,13.537    c1.803,3.366,5.256,5.282,8.825,5.282c1.593,0,3.208-0.382,4.711-1.186l0.497-0.268    C177.195,484.981,179.029,478.92,176.423,474.051z" fill="#1da854"/><path d="M174.678,413.502c-3.906-3.904-10.237-3.904-14.144,0l-6.929,6.929c-3.905,3.905-3.905,10.238,0,14.144    c1.953,1.952,4.512,2.929,7.071,2.929s5.119-0.977,7.072-2.929l6.929-6.929C178.583,423.74,178.583,417.408,174.678,413.502z" fill="#1da854"/><path d="M398.964,281.656c61.463-79.847,79.149-140.975,51.571-178.19c2.468-3.869,2.019-9.062-1.36-12.442    c-2.446-2.444-5.841-3.358-8.997-2.741c-6.643-4.165-12.158-9.945-16-16.858c-9.471-17.048-3.308-38.622,13.738-48.093    c6.141-3.411,13.241-4.228,19.993-2.298c6.753,1.929,12.352,6.372,15.763,12.513c2.469,4.443,3.06,9.583,1.663,14.473    c-1.397,4.889-4.613,8.94-9.058,11.411c-3.088,1.717-6.659,2.125-10.057,1.156c-3.397-0.971-6.214-3.206-7.93-6.294    c-2.298-4.137-0.803-9.371,3.334-11.671c4.827-2.683,6.566-8.771,3.884-13.6c-2.684-4.828-8.773-6.565-13.6-3.884    c-13.776,7.655-18.757,25.091-11.103,38.868c4.311,7.758,11.386,13.374,19.92,15.812c8.536,2.439,17.507,1.406,25.266-2.904    c18.814-10.455,25.617-34.267,15.163-53.081c-6.006-10.811-15.862-18.634-27.751-22.03c-11.892-3.396-24.391-1.96-35.201,4.047    c-25.518,14.178-35.441,45.675-23.299,71.741c-4.569-0.502-9.331-0.634-14.302-0.352c-9.287,0.524-19.313,2.465-29.995,5.776    c-5.522-7.008-17.869-21.129-37.808-35.849C297.573,28.539,254.701,5.248,193.72,0.05c-2.709-0.234-5.383,0.647-7.425,2.43    c-2.043,1.783-3.274,4.319-3.412,7.028c-0.974,19.205,6.352,49.078,11.869,68.443c-10.484-2.982-24.771-6.263-41.655-8.152    c-33.067-3.701-82.798-2.507-131.932,24.187c-2.372,1.289-4.122,3.482-4.853,6.081c-0.73,2.6-0.379,5.383,0.975,7.719    c28.135,48.564,65.011,74.838,90.992,88.326c9.489,4.926,18.239,8.557,25.72,11.214c-14.034,8.862-30.697,22.057-38.053,38.065    c-1.513,3.292-1.126,7.146,1.011,10.072c4.417,6.052,13.157,10.291,27.435,13.323c-32.922,37.559-58.128,72.676-74.059,103.391    c-12.81,24.697-19.844,46.914-20.909,66.035c-1.216,21.814,5.152,39.858,18.929,53.635c12.725,12.725,28.901,19.106,48.311,19.106    c9.479,0,19.729-1.522,30.723-4.572c5.322-1.476,8.439-6.986,6.963-12.31c-1.475-5.321-6.99-8.438-12.31-6.963    c-26.415,7.326-45.89,4.25-59.544-9.404c-19.384-19.383-17.502-51.789,5.592-96.318c21.876-42.181,62.43-93.467,117.277-148.314    c54.746-54.747,106.061-95.267,148.4-117.181c44.562-23.067,76.942-24.981,96.234-5.688c14.749,14.749,17.036,37.454,6.798,67.486    c-9.884,28.995-30.785,63.475-62.14,102.529c-27.915,1.266-55.457,12.531-76.726,33.8c-22.52,22.52-33.823,52.071-33.919,81.651    c-22.267,19.875-43.677,37.017-63.686,50.976c-4.529,3.16-5.64,9.394-2.479,13.924c1.944,2.787,5.052,4.279,8.21,4.279    c1.975,0,3.971-0.584,5.713-1.8c17.381-12.126,35.741-26.537,54.744-42.955c4.472,21.263,14.94,41.505,31.417,57.982    c22.615,22.615,52.322,33.923,82.028,33.923s59.413-11.308,82.028-33.923c45.231-45.231,45.231-118.826,0-164.057    C444.211,296.246,422.056,285.461,398.964,281.656z M324.568,98.131c-11.671,6.041-23.968,13.418-36.776,22.021l-25.109-44.078    c-2.735-4.798-8.838-6.475-13.641-3.739c-4.799,2.734-6.473,8.841-3.739,13.641l26.033,45.699    c-11.215,8.17-22.77,17.214-34.598,27.065l-71.359-22.65c-5.258-1.669-10.887,1.241-12.558,6.506    c-1.671,5.264,1.242,10.887,6.506,12.558l59.549,18.902c-15.533,13.692-31.464,28.681-47.658,44.877    c-10.893,10.894-21.236,21.661-31.012,32.267c-8.16-1.003-16.36-2.819-21.653-4.697c11.922-15.691,36.477-28.883,46.164-33.11    c4.102-1.782,6.509-6.073,5.913-10.507c-0.596-4.432-4.074-7.932-8.501-8.567c-0.196-0.028-19.927-2.977-45.414-16.357    c-31.054-16.304-56.788-40.215-76.622-71.167c33.22-15.758,70.204-21.538,110.113-17.188c32.97,3.596,55.636,13.152,55.849,13.243    c3.622,1.557,7.82,0.843,10.723-1.827c2.902-2.67,3.964-6.795,2.713-10.534c-4.271-12.759-14.187-46.354-16.3-69.315    c49.981,6.422,85.504,25.823,106.992,41.543c14.463,10.58,24.568,20.866,30.565,27.721    C335.483,92.717,330.092,95.271,324.568,98.131z M447.842,463.934c-37.432,37.434-98.339,37.434-135.771,0    c-37.433-37.432-37.433-98.339,0-135.771c18.716-18.717,43.301-28.074,67.885-28.074c24.584,0,49.169,9.357,67.885,28.074    C485.275,365.595,485.275,426.502,447.842,463.934z" fill="#1da854"/><path d="M394.057,317.315c-8.434-6.214-19.769-6.214-28.2,0c-9.757,7.188-12.547,20.525-6.485,31.023l11.925,20.655    c1.786,3.094,5.088,5,8.66,5c3.572,0,6.874-1.906,8.66-5l11.926-20.655C406.604,337.841,403.813,324.504,394.057,317.315z     M383.22,338.337l-3.265,5.654l-3.265-5.654c-0.96-1.664-0.517-3.779,1.03-4.919c0.669-0.493,1.452-0.739,2.236-0.739    c0.783,0,1.567,0.246,2.236,0.739C383.739,334.558,384.181,336.673,383.22,338.337z" fill="#1da854"/><path d="M400.542,443.76l-11.926-20.656c-1.786-3.094-5.088-5-8.66-5c-3.572,0-6.874,1.906-8.66,5L359.37,443.76    c-6.061,10.497-3.271,23.833,6.485,31.023c4.217,3.107,9.158,4.661,14.101,4.66c4.941,0,9.884-1.554,14.101-4.66    C403.814,467.594,406.604,454.258,400.542,443.76z M382.192,458.68c-1.338,0.985-3.135,0.986-4.473,0    c-1.547-1.14-1.989-3.255-1.028-4.919l3.265-5.654l3.265,5.654C384.182,455.425,383.739,457.54,382.192,458.68z" fill="#1da854"/><path d="M360.855,407.076c-1.786-3.094-5.088-5-8.66-5h-23.851c-12.119,0-22.275,9.082-23.624,21.129    c-1.163,10.411,4.504,20.225,14.102,24.421c3.095,1.354,6.333,1.999,9.525,1.999c8.26,0,16.213-4.322,20.583-11.894l11.926-20.655    C362.642,413.983,362.642,410.17,360.855,407.076z M331.609,427.731c-0.961,1.664-3.014,2.336-4.774,1.57    c-1.522-0.666-2.421-2.223-2.237-3.873c0.214-1.91,1.825-3.351,3.747-3.351h6.529L331.609,427.731z" fill="#1da854"/><path d="M441.091,344.47c-11.105-4.856-24.048-0.602-30.11,9.896l-11.926,20.654c-1.786,3.094-1.786,6.906,0,10    c1.786,3.094,5.088,5,8.66,5h23.851c12.119,0,22.275-9.082,23.623-21.127C456.356,358.482,450.69,348.666,441.091,344.47z     M435.315,366.669c-0.214,1.91-1.825,3.351-3.747,3.351h-6.529l3.265-5.654c0,0,0,0,0-0.001c0.961-1.665,3.014-2.335,4.775-1.568    C434.602,363.462,435.5,365.019,435.315,366.669z" fill="#1da854"/><path d="M455.191,423.203c-1.347-12.045-11.504-21.127-23.623-21.127h-23.851c-3.572,0-6.874,1.906-8.66,5    c-1.786,3.094-1.786,6.906,0,10.001l11.926,20.655c4.371,7.57,12.323,11.895,20.583,11.895c3.192,0,6.431-0.646,9.525-2    C450.69,443.43,456.356,433.615,455.191,423.203z M433.078,429.301c-1.758,0.771-3.813,0.096-4.774-1.569l-3.265-5.654h6.529    c1.922,0,3.533,1.44,3.746,3.351C435.5,427.078,434.602,428.635,433.078,429.301z" fill="#1da854"/><path d="M360.856,375.021l-11.926-20.654c-6.059-10.498-19.005-14.752-30.109-9.896c-9.596,4.196-15.264,14.011-14.1,24.423    c1.347,12.044,11.505,21.127,23.623,21.127h23.851c3.572,0,6.874-1.906,8.66-5C362.642,381.927,362.642,378.115,360.856,375.021z     M328.346,370.02c-1.922,0-3.533-1.44-3.746-3.349c-0.186-1.652,0.712-3.209,2.234-3.875c0.491-0.215,1.005-0.316,1.512-0.316    c1.31,0,2.57,0.686,3.264,1.886l3.265,5.654H328.346z" fill="#1da854"/><path d="M102.779,422.168c-3.905-3.904-10.236-3.904-14.143,0l-6.533,6.533c-3.905,3.905-3.905,10.237,0,14.144    c1.953,1.952,4.512,2.929,7.071,2.929c2.559,0,5.118-0.977,7.071-2.929l6.533-6.533    C106.684,432.407,106.684,426.074,102.779,422.168z" fill="#1da854"/><path d="M160.943,324.148c-3.904-3.906-10.238-3.905-14.143,0.001l-6.928,6.929c-3.905,3.905-3.905,10.237,0.001,14.143    c1.952,1.953,4.511,2.929,7.07,2.929s5.119-0.977,7.071-2.93l6.929-6.929C164.849,334.386,164.849,328.053,160.943,324.148z" fill="#1da854"/><path d="M229.397,243.216c-3.906-3.905-10.237-3.905-14.143,0l-5.921,5.921c-3.905,3.905-3.905,10.238,0,14.144    c1.953,1.952,4.512,2.929,7.071,2.929s5.118-0.977,7.071-2.929l5.921-5.921C233.302,253.454,233.302,247.122,229.397,243.216z" fill="#1da854"/><path d="M226.434,373.549c-3.905-3.907-10.239-3.904-14.143,0.001l-5.166,5.167c-3.905,3.906-3.904,10.239,0.002,14.143    c1.952,1.953,4.512,2.929,7.07,2.929c2.56,0,5.119-0.977,7.071-2.93l5.166-5.167C230.341,383.786,230.34,377.454,226.434,373.549z    " fill="#1da854"/><path d="M312.69,244.51c-3.906-3.904-10.237-3.904-14.144,0l-3.332,3.333c-3.905,3.905-3.905,10.238,0,14.144    c1.953,1.952,4.512,2.929,7.071,2.929c2.559,0,5.118-0.977,7.071-2.929l3.333-3.333    C316.595,254.748,316.595,248.416,312.69,244.51z" fill="#1da854"/><path d="M250.437,302.382c-3.906-3.904-10.237-3.904-14.144,0l-7.267,7.267c-3.904,3.906-3.904,10.239,0.001,14.144    c1.953,1.952,4.512,2.929,7.071,2.929c2.559,0,5.118-0.977,7.071-2.929l7.267-7.267    C254.342,312.62,254.342,306.288,250.437,302.382z" fill="#1da854"/><path d="M374.996,217.959c-3.905-3.904-10.236-3.904-14.143,0l-3.481,3.481c-3.905,3.905-3.905,10.238,0,14.144    c1.953,1.952,4.512,2.929,7.071,2.929s5.118-0.977,7.071-2.929l3.481-3.481C378.901,228.197,378.901,221.865,374.996,217.959z" fill="#1da854"/><path d="M320.779,175.201c-3.906-3.904-10.237-3.904-14.144,0l-3.221,3.221c-3.905,3.905-3.905,10.238,0,14.144    c1.953,1.952,4.512,2.929,7.071,2.929s5.118-0.977,7.072-2.929l3.221-3.221C324.684,185.44,324.684,179.108,320.779,175.201z" fill="#1da854"/><path d="M392.361,143.955c-3.906-3.904-10.237-3.904-14.144,0l-5.333,5.333c-3.905,3.905-3.905,10.238,0,14.144    c1.953,1.952,4.512,2.929,7.071,2.929c2.559,0,5.119-0.976,7.072-2.929l5.333-5.333    C396.266,154.193,396.266,147.861,392.361,143.955z" fill="#1da854"/><path d="M134.499,127.465c-1.86-1.86-4.43-2.93-7.07-2.93c-2.63,0-5.21,1.07-7.07,2.93c-1.859,1.86-2.93,4.44-2.93,7.07    s1.07,5.21,2.93,7.07c1.86,1.859,4.44,2.93,7.07,2.93s5.21-1.07,7.07-2.93c1.859-1.86,2.93-4.44,2.93-7.07    S136.359,129.325,134.499,127.465z" fill="#1da854"/></g><g transform="matrix(0.17578022181987762 0 0 0.17578022181987762 217.5 217.5)" id="L1_77"><path d="M173.717,351.307l-0.264-0.72c-1.899-5.185-7.641-7.848-12.828-5.952c-5.185,1.899-7.85,7.641-5.952,12.828l0.264,0.72    c1.483,4.052,5.313,6.564,9.391,6.564c1.142,0,2.303-0.197,3.437-0.612C172.95,362.236,175.615,356.494,173.717,351.307z" fill="#1da854"/><path d="M437.87,24.776c-2.635-1.542-65.216-37.573-125.617-19.919c-31.153,9.105-54.971,30.511-70.923,49.488    c1.269-5.771,2.74-11.201,4.41-16.193l0.176-0.523c2.947-8.676,1.522-18.298-3.81-25.74c-5.325-7.43-13.964-11.866-23.109-11.866    h-1.148c-12.573,0-23.798,8.412-27.298,20.457c-7.333,25.241-12.002,54.907-12.884,81.121    C114.78,97.004,53.583,128.675,21.54,185.227C-1.123,225.22-6.14,273.285,7.772,317.098    C29.28,384.827,79.076,439.73,144.39,467.727l3.112,1.334c20.36,8.727,38.693,22.272,53.018,39.17    c1.9,2.241,4.707,3.534,7.644,3.534c2.938,0,5.727-1.292,7.627-3.534c6.729-7.938,14.343-15.16,22.628-21.462    c4.396-3.344,5.249-9.617,1.906-14.012c-3.342-4.396-9.616-5.248-14.011-1.906c-6.435,4.896-12.515,10.276-18.162,16.072    c-14.996-15.367-33.048-27.789-52.771-36.243l-3.112-1.334C92.301,423.64,46.581,373.231,26.833,311.044    c-12.234-38.525-7.821-80.792,12.105-115.96c29.398-51.882,86.7-79.947,144.483-72.824c-52.18,42.93-72.785,115.03-48.943,180.091    l5.609,15.309c1.484,4.05,5.313,6.561,9.389,6.561c1.142,0,2.305-0.198,3.44-0.614c5.186-1.9,7.848-7.644,5.948-12.829    l-5.61-15.309c-23.23-63.389,1.705-134.407,59.291-169.413c48.801-12.93,101.604,0.632,138.112,35.562    c3.991,3.817,10.319,3.679,14.138-0.313c3.818-3.991,3.678-10.32-0.313-14.138c-8.845-8.462-18.605-15.895-29.053-22.184    c3.896-0.715,7.797-1.61,11.69-2.748c60.432-17.662,93.261-81.615,94.629-84.329C444.122,33.193,442.426,27.444,437.87,24.776z     M226.979,31.196l-0.21,0.625c-6.645,19.865-10.497,45.582-10.966,72.937c-2.674,0.562-5.341,1.169-7.989,1.864    c-3.403-0.894-6.812-1.675-10.227-2.347c0.64-25.071,5.081-53.827,12.166-78.214c1.034-3.556,4.363-6.039,8.095-6.039h1.148    c2.754,0,5.25,1.282,6.852,3.517C227.457,25.784,227.869,28.577,226.979,31.196z M341.509,103.042    c-33.591,9.819-69.389-0.404-90.691-8.967c38.256-15.813,78.639-23.841,120.147-23.841c5.522,0,9.999-4.477,9.999-9.999    s-4.477-9.999-9.999-9.999c-40.553,0-80.099,7.195-117.806,21.403c14.029-17.706,36.039-39.207,64.703-47.585    c39.881-11.657,82.873,4.935,101.024,13.461C408.302,54.448,381.324,91.406,341.509,103.042z" fill="#1da854"/><path d="M473.11,248.959l-1.6-2.139c-10.279-13.742-17.331-29.929-20.396-46.813c-0.525-2.891-2.294-5.404-4.839-6.873    s-5.605-1.745-8.372-0.754c-16.674,5.975-33.593,7.996-50.282,6.006l-2.654-0.316c-56.308-6.712-112.616,11.361-154.501,49.582    c-27.232,24.852-43.022,60.248-43.32,97.114c-0.487,60.267,39.428,113.067,97.324,129.145    c19.955,19.603,45.072,32.209,72.772,36.498c6.875,1.064,13.752,1.593,20.589,1.593c21.322,0,42.245-5.142,61.434-15.203    c4.892-2.564,6.777-8.607,4.213-13.499c-2.564-4.892-8.607-6.776-13.499-4.213c-43.915,23.023-96.754,15.027-131.898-19.839    c-0.813-1.154-1.881-2.15-3.174-2.896l-0.456-0.263c-1.29-0.745-2.684-1.171-4.087-1.298    c-49.477-13.481-83.639-58.477-83.224-109.865c0.253-31.319,13.667-61.39,36.803-82.503    c37.589-34.301,88.128-50.518,138.653-44.497l2.654,0.316c16.201,1.931,32.528,0.696,48.678-3.671    c4.341,15.912,11.691,31.026,21.565,44.226l1.6,2.139c30.48,40.747,41.703,92.623,30.791,142.326    c-2.007,9.141-5.148,18.016-9.34,26.379c-2.475,4.938-0.478,10.945,4.459,13.419c4.937,2.474,10.945,0.478,13.419-4.459    c4.934-9.844,8.633-20.291,10.995-31.05C519.579,352.169,507.074,294.365,473.11,248.959z" fill="#1da854"/><path d="M472.297,458.179c-3.907-3.905-10.238-3.905-14.142,0c-0.028,0.028-0.118,0.119-0.145,0.147    c-3.857,3.949-3.773,10.263,0.172,14.123c1.943,1.901,4.465,2.847,6.986,2.846c2.593,0,5.186-1,7.145-2.992    C476.201,468.397,476.195,462.079,472.297,458.179z" fill="#1da854"/><path d="M405.845,274.106c-1.793-3.291-5.271-5.29-9.024-5.211c-3.182,0.078-78.221,2.424-103.978,47.038    c-25.758,44.614,9.729,110.772,11.253,113.567c1.755,3.219,5.126,5.214,8.778,5.214c0.082,0,0.164-0.001,0.246-0.003    c3.182-0.078,78.221-2.424,103.978-47.038S407.369,276.901,405.845,274.106z M399.779,377.674    c-16.485,28.553-63.925,35.171-80.967,36.643c-9.464-19.943-23.795-62.154-8.652-88.383    c16.484-28.553,63.925-35.171,80.967-36.643C400.591,309.234,414.923,351.445,399.779,377.674z" fill="#1da854"/></g><g transform="matrix(0.03906257450580597 0 0 0.03906257450580597 252.5 340)" id="L1_78"><path d="M127.951,354.228c-4.038-3.766-10.365-3.547-14.132,0.491c-0.242,0.26-24.498,26.26-48.791,51.887    c-3.798,4.008-3.629,10.336,0.378,14.136c1.935,1.833,4.407,2.742,6.877,2.742c2.649,0,5.292-1.046,7.259-3.12    c24.349-25.687,48.658-51.744,48.9-52.004C132.209,364.322,131.989,357.995,127.951,354.228z" fill="#1da854"/><path d="M55.517,431.252c-3.873-3.908-10.198-3.934-14.126-0.079c-0.022,0.021-0.084,0.083-0.106,0.104    c-3.892,3.892-3.886,10.178-0.013,14.088c1.95,1.968,4.52,2.952,7.094,2.952c2.54,0,5.081-0.958,7.032-2.873    c0.022-0.021,0.084-0.083,0.106-0.104C59.396,441.447,59.39,435.161,55.517,431.252z" fill="#1da854"/><path d="M509.032,111.031c-2.938-2.915-7.37-3.715-11.145-2.017l-155.157,69.87L504.653,17.071    c2.861-2.859,3.717-7.158,2.172-10.894c-1.545-3.736-5.188-6.174-9.233-6.177c-0.037,0-0.067,0-0.104,0    c-39.338,0-76.567,13.85-106.099,39.239l7.304-11.524c2.316-3.654,2.02-8.385-0.736-11.72c-2.757-3.336-7.347-4.521-11.37-2.937    c-47.876,18.844-87.701,51.8-115.171,95.305l-92.137,145.925c-11.879,11.084-132.21,123.372-159.54,148.987    C6.403,415.774-0.589,432.318,0.049,449.859c0.667,18.343,9.474,35.681,24.16,47.567c11.729,9.492,26.105,14.573,40.627,14.573    c3.471,0,6.951-0.29,10.403-0.881c17.346-2.964,32.22-13.234,41.881-28.921c18.97-30.801,98.23-163.753,111.18-185.482    l76.292-28.87c5.165-1.954,7.768-7.726,5.812-12.89c-1.954-5.164-7.723-7.766-12.89-5.812l-40.392,15.285l45.657-45.626    l176.618-79.534c-22.038,34.685-55.089,61.895-93.781,76.536l-22.761,8.613c-5.165,1.955-7.768,7.726-5.812,12.89    c1.514,3.999,5.315,6.463,9.353,6.463c1.176,0,2.372-0.209,3.536-0.65l22.761-8.613c26.355-9.972,50.086-24.862,70.531-44.255    c20.445-19.392,36.568-42.303,47.919-68.095C512.81,118.369,511.97,113.944,509.032,111.031z M100.093,471.712    c-8.462,13.74-20.018,18.295-28.222,19.696c-12.236,2.09-25.019-1.383-35.083-9.526c-10.043-8.127-16.308-20.37-16.758-32.749    c-0.3-8.261,1.778-20.391,13.382-31.267c24.94-23.377,127.433-119.025,154.097-143.908l20.964,16.965    C189.823,322.212,117.975,442.679,100.093,471.712z M219.062,273.766l-17.589-14.235l-1.228-0.994l88.08-139.497    c19.008-30.103,44.468-54.697,74.684-72.377L219.062,273.766z M290.52,202.786c-0.503,0.414-0.959,0.87-1.365,1.364l-6.253,6.248    l61.761-97.441c0.714-0.419,1.391-0.922,2.004-1.534l49.838-49.687c20.638-20.576,46.452-34.083,74.497-39.307L290.52,202.786z" fill="#1da854"/><path d="M342.767,238.315c-1.859-1.86-4.438-2.93-7.068-2.93c-2.641,0-5.209,1.07-7.069,2.93c-1.86,1.86-2.93,4.439-2.93,7.069    c0,2.64,1.069,5.209,2.93,7.069c1.86,1.87,4.438,2.93,7.069,2.93c2.63,0,5.209-1.06,7.068-2.93c1.86-1.86,2.931-4.429,2.931-7.069    C345.698,242.754,344.628,240.174,342.767,238.315z" fill="#1da854"/></g><g transform="matrix(0.07812530547380447 0 0 0.07812530547380447 242.5 67.5)" id="L1_79"><path d="M501.905,273.944h-14.354c4.148-27.527,3.596-54.955-1.663-81.706c-0.569-6.255-6.31-73.33,6.154-102.87    c9.463-22.423,22.422-53.133-0.936-76.491c-21.956-21.959-49.898-11.191-74.549-1.69l-1.646,0.633    c-18.839,7.251-67.722,8.306-130.76,2.827c-17.149-1.49-33.829-1.207-49.583,0.837c-55.532,7.212-108.547,33.615-149.28,74.348    c-63.47,63.471-90.091,154.275-69.569,237.123c0.702,6.295,6.412,61.2-3.824,92.092c-0.891,2.687-1.812,5.357-2.727,8.008    c-8.066,23.385-17.21,49.89,3.882,70.982c10.177,10.176,21.775,13.734,33.429,13.734c16.684,0,33.485-7.293,46.399-12.899    c34.037-14.776,73.901-11.514,91.123-9.083c30.47,14.532,64.067,22.21,98.852,22.21c44.198,0,87.102-12.56,124.073-36.323    c4.647-2.987,5.992-9.175,3.006-13.822c-2.987-4.647-9.172-5.994-13.822-3.006c-33.737,21.684-72.901,33.147-113.256,33.147    c-111.901,0-203.549-87.956-208.812-198.047h22.603c5.237,97.748,86.753,175.672,186.208,175.672    c99.455,0,180.97-77.924,186.207-175.672h22.608c-1.979,42.135-16.471,81.944-42.207,115.682    c-3.352,4.392-2.507,10.669,1.885,14.019c4.393,3.352,10.669,2.505,14.019-1.885c30.448-39.914,46.542-87.57,46.542-137.818    C511.908,278.422,507.428,273.944,501.905,273.944z M282.853,449.616c-88.422,0-160.965-68.953-166.177-155.667h332.351    C443.816,380.662,371.274,449.616,282.853,449.616z M466.022,194.654c0.032,0.327,0.08,0.652,0.145,0.974    c5.09,25.593,5.451,51.899,1.119,78.315H63.801c-5.523,0-10.002,4.478-10.002,10.002c0,60.924,23.832,118.2,67.105,161.275    c8.248,8.21,17.017,15.712,26.227,22.485c-19.41,0.561-41.466,3.809-62.217,12.817c-27.624,11.989-45.005,16.081-57.716,3.369    c-11.656-11.656-7.258-26.712,0.883-50.313c0.94-2.728,1.889-5.475,2.805-8.24c12.227-36.9,4.945-98.755,4.629-101.369    c-0.05-0.416-0.126-0.828-0.229-1.234c-19.125-76.241,5.455-160.064,64.149-218.758c37.627-37.627,86.534-62.009,137.711-68.655    c14.326-1.86,29.56-2.111,45.274-0.746c39.318,3.418,109.747,7.432,139.678-4.086l1.653-0.637    c25.081-9.666,41.069-14.975,53.21-2.831c11.769,11.768,8.297,26.971-3.349,54.568    C458.627,117.102,465.714,191.504,466.022,194.654z" fill="#1da854"/><path d="M438.516,437.701c-3.726-4.077-10.052-4.363-14.13-0.638l-0.668,0.609c-4.092,3.711-4.399,10.037-0.688,14.128    c1.974,2.177,4.688,3.282,7.411,3.282c2.397,0,4.803-0.856,6.718-2.595l0.719-0.655    C441.956,448.106,442.242,441.78,438.516,437.701z" fill="#1da854"/><path d="M357.184,373.309c-25.821-27.51-41.846-44.526-42.866-45.52c-2.883-2.807-7.162-3.614-10.868-2.05    c-3.705,1.563-6.113,5.194-6.113,9.215v63.257c-0.001,9.229,4.586,17.781,12.27,22.878c4.59,3.046,9.886,4.599,15.224,4.599    c3.637,0,7.293-0.721,10.759-2.184c5.301-2.237,10.412-4.762,15.192-7.505c7.358-4.224,12.295-11.454,13.544-19.838    C365.572,387.802,362.969,379.472,357.184,373.309z M344.538,393.212c-0.342,2.296-1.696,4.278-3.717,5.437    c-4.077,2.34-8.454,4.501-13.01,6.424c-3.399,1.432-6.13,0.02-7.147-0.654c-1-0.663-3.325-2.596-3.325-6.207v-38.096h0.001    c6.045,6.427,14.215,15.122,25.257,26.884C344.75,389.293,344.738,391.877,344.538,393.212z" fill="#1da854"/><path d="M422.396,315.743c-5.104-7.58-13.603-12.123-22.734-12.153c-59.191-0.194-66.439,0.093-66.719,0.105    c-4.015,0.176-7.534,2.739-8.935,6.505c-1.401,3.766-0.413,8.005,2.51,10.763l46.694,44.061c5.14,4.85,11.883,7.504,18.865,7.504    c1.012,0,2.029-0.056,3.047-0.168c8.022-0.889,15.208-5.232,19.718-11.917c4.203-6.23,7.656-12.678,10.263-19.163    C428.497,332.844,427.483,323.298,422.396,315.743z M406.543,333.817c-2.081,5.179-4.869,10.372-8.285,15.436    c-1.669,2.474-4.062,3.081-5.338,3.222c-1.289,0.143-3.781,0.073-5.979-2.001l-28.555-26.944    c9.618-0.006,22.906,0.006,41.21,0.066c3.592,0.012,5.537,2.328,6.207,3.322C406.464,327.899,407.862,330.539,406.543,333.817z" fill="#1da854"/><path d="M265.551,327.741c-3.705-1.563-7.987-0.756-10.868,2.05c-1.021,0.994-17.045,18.01-42.866,45.52    c-5.787,6.162-8.39,14.492-7.143,22.852c1.249,8.384,6.188,15.615,13.545,19.838c4.777,2.743,9.889,5.268,15.192,7.506    c3.465,1.461,7.121,2.182,10.758,2.182c5.338,0,10.635-1.553,15.226-4.6c7.683-5.097,12.27-13.649,12.27-22.876v-63.257    C271.664,332.934,269.256,329.304,265.551,327.741z M251.659,400.213c0,3.611-2.325,5.543-3.325,6.208    c-1.017,0.674-3.749,2.089-7.147,0.654c-4.557-1.922-8.934-4.084-13.01-6.424c-2.02-1.16-3.376-3.142-3.718-5.438    c-0.198-1.335-0.211-3.918,1.941-6.211c11.042-11.764,19.213-20.459,25.258-26.884V400.213z" fill="#1da854"/><path d="M244.991,312.201c-1.401-3.766-4.92-6.328-8.935-6.505c-0.28-0.013-7.535-0.3-66.718-0.105    c-9.132,0.03-17.631,4.573-22.734,12.153c-5.088,7.554-6.101,17.1-2.71,25.536c2.607,6.485,6.06,12.932,10.264,19.164    c4.509,6.684,11.696,11.027,19.717,11.916c1.018,0.113,2.034,0.168,3.047,0.168c6.983,0,13.727-2.654,18.867-7.504l46.693-44.06    C245.404,320.206,246.392,315.967,244.991,312.201z M182.058,352.474c-2.198,2.074-4.695,2.144-5.979,2.001    c-1.277-0.142-3.67-0.748-5.338-3.222c-3.417-5.064-6.204-10.257-8.286-15.436c-1.317-3.278,0.08-5.917,0.741-6.9    c0.67-0.995,2.617-3.311,6.208-3.323c15.044-0.049,26.693-0.068,35.706-0.068c1.956,0,3.787,0.001,5.502,0.002L182.058,352.474z" fill="#1da854"/><path d="M289.929,306.45c-1.87-1.86-4.44-2.931-7.071-2.931c-2.642,0-5.222,1.07-7.082,2.931c-1.86,1.87-2.932,4.441-2.932,7.072    c0,2.631,1.07,5.211,2.932,7.072c1.859,1.87,4.44,2.931,7.082,2.931c2.631,0,5.2-1.06,7.071-2.931    c1.86-1.86,2.932-4.431,2.932-7.072C292.86,310.891,291.79,308.31,289.929,306.45z" fill="#1da854"/><path d="M297.333,59.961h-0.251c-5.523,0-10.002,4.478-10.002,10.002c0,5.524,4.479,10.002,10.002,10.002h0.251    c5.523,0,10.002-4.478,10.002-10.002C307.336,64.439,302.857,59.961,297.333,59.961z" fill="#1da854"/><path d="M329.303,119.642h-0.251c-5.523,0-10.002,4.478-10.002,10.002c0,5.524,4.479,10.002,10.002,10.002h0.251    c5.523,0,10.002-4.478,10.002-10.002C339.305,124.12,334.826,119.642,329.303,119.642z" fill="#1da854"/><path d="M376.959,71.987h-0.251c-5.523,0-10.002,4.478-10.002,10.002c0,5.524,4.478,10.002,10.002,10.002h0.251    c5.523,0,10.002-4.478,10.002-10.002C386.962,76.465,382.483,71.987,376.959,71.987z" fill="#1da854"/><path d="M81.01,199.973c-5.22-1.823-10.921,0.929-12.741,6.144l-0.379,1.092c-1.792,5.227,0.989,10.917,6.214,12.709    c1.075,0.369,2.171,0.544,3.248,0.544c4.154,0,8.036-2.609,9.46-6.759l0.342-0.99C88.976,207.499,86.225,201.795,81.01,199.973z" fill="#1da854"/><path d="M245.484,73.868c-0.904-5.448-6.054-9.134-11.507-8.227c-42.596,7.08-83.344,28.268-114.736,59.66    C106.97,137.571,96.207,151.265,87.246,166c-2.872,4.72-1.371,10.874,3.349,13.743c1.623,0.987,3.416,1.457,5.187,1.457    c3.378,0,6.674-1.71,8.557-4.807c8.131-13.373,17.903-25.804,29.047-36.947c28.467-28.467,65.356-47.67,103.871-54.072    C242.706,84.469,246.39,79.317,245.484,73.868z" fill="#1da854"/></g><g transform="matrix(0.13205991248146265 -0.03538534690193266 0.03538534690193266 0.13205991248146265 132.1339488101618 150.25125982509095)" id="L1_80"><path d="M162.048,30.479c-2.719-4.806-8.828-6.496-13.637-3.774c-4.836,2.666-6.596,8.749-3.93,13.585    c1.824,3.307,5.242,5.175,8.767,5.175c1.633,0,3.288-0.401,4.819-1.245l0.21-0.117C163.084,41.383,164.767,35.287,162.048,30.479z    " fill="#1da854"/><path d="M417.847,78.927C377.008,28.744,316.638,0,251.959,0c-21.759,0-43.228,3.259-63.81,9.687    c-5.271,1.646-8.21,7.255-6.563,12.526c1.646,5.272,7.257,8.21,12.526,6.564C212.762,22.953,232.224,20,251.959,20    c53.571,0,103.887,21.761,140.414,60.224c-2.08,9.86-6.848,16.564-14.185,19.919c-5.918,2.707-11.743,4.298-11.743,4.298    c-14.44-10.974-32.432-17.503-51.926-17.503c-1.646,0-3.316,0.048-4.964,0.142c-18.002,1.033-36.628-2.603-55.355-10.8    c-9.882-4.326-20.401-6.519-31.269-6.519c-31.046,0-59.128,18.556-71.495,46.682c-4.048-2.416-11.096-7.558-17.156-16.759    c-3.038-4.612-9.24-5.889-13.853-2.851c-4.612,3.038-5.888,9.239-2.851,13.852c3.848,5.843,8.029,10.506,12.014,14.188    c-52.716,7.833-93.291,53.391-93.291,108.251c0,8.137,0.896,16.218,2.672,24.105c-6.753,5.7-12.738,12.172-17.872,19.225    c-0.712-6.782-1.092-13.613-1.092-20.466c0-57.545,25.35-111.753,69.548-148.725c0.713-0.597,1.34-1.29,1.861-2.059    c10.366-15.292,22.848-29.021,37.097-40.809c4.256-3.521,4.852-9.824,1.331-14.08s-9.822-4.851-14.079-1.332    c-15.351,12.698-28.841,27.443-40.113,43.84C27.558,133.583,0.007,192.969,0.007,255.988c0,16.832,1.986,33.563,5.857,49.791    C2.036,317,0.007,328.877,0.007,340.952c0,35.758,17.11,68.671,46.055,89.219c0.077,11.406,4.922,23.113,13.844,32.962    c12.162,13.426,29.937,21.168,48.205,21.168c0.035,0,0.069-0.002,0.104-0.002c35.743,27.693,80.952,27.702,120.971,27.702    c14.208,0,28.035-2.686,41.098-7.983c28.993-11.757,59.221-17.717,89.851-17.717c0.103,0,0.211,0,0.314,0    c0.45,0,0.898-0.001,1.342-0.007c26.164-0.304,50.892-10.704,69.626-29.283c17.006-16.864,27.31-38.719,29.454-62.171    c0.087-0.095,0.181-0.18,0.265-0.279c32.796-38.57,50.858-87.733,50.858-138.433C511.994,184.951,476.828,118.826,417.847,78.927z     M108.018,464.3c-12.647-0.016-24.917-5.352-33.29-14.595c-5.169-5.706-8.221-12.341-8.63-18.478    c7.413-4.284,22.394-13.826,45.021-32.272c1.777-1.449,3.003-3.465,3.471-5.71c2.539-12.179,5.822-36.033-0.717-58.973    c-0.106-0.373-0.061-0.427,0.015-0.515c0.212-0.245,0.561-0.373,0.668-0.354c0.001,0,0.103,0.044,0.286,0.237    c8.318,8.751,11.476,21.189,12.66,30.083c0.496,3.731,3.046,6.867,6.598,8.115c3.547,1.249,7.502,0.396,10.224-2.205    c12.336-11.789,24.151-24.173,35.118-36.806c1.331-1.533,2.163-3.436,2.388-5.453c1.849-16.658,2.444-47.151-10.408-80.863    c10.611,16.471,16.247,33.863,18.036,46.583c0.567,4.039,3.531,7.328,7.49,8.313c3.955,0.983,8.117-0.535,10.51-3.838    c28.904-39.892,50.738-82.607,64.893-126.959c0.165-0.518,0.249-0.532,0.449-0.565c0.505-0.082,1.006,0.144,1.096,0.263    c0,0.001,0.072,0.143,0.07,0.541c-0.144,31.218-5.579,62.689-16.155,93.537c-1.07,3.123-0.53,6.574,1.443,9.221    c1.974,2.647,5.129,4.154,8.426,4.014c9.273-0.379,25.92-2.154,44.127-9.269c-20.031,17.646-43.707,25.962-64.827,31.748    c-2.749,0.753-5.047,2.644-6.314,5.197c-9.81,19.759-21.883,39.495-35.883,58.659c-1.906,2.61-2.434,5.981-1.415,9.05    c1.019,3.069,3.458,5.454,6.548,6.406c16.371,5.041,53.98,12.13,123.754,4.009c-47.592,17.666-109.835,20.445-153.135,17.019    c-3.08-0.235-6.119,0.958-8.2,3.255C149.007,429.445,131.315,446.139,108.018,464.3z M443.742,296.83    c-8.162,23.616-9.726,48.01-4.52,70.544c1.495,6.465,2.184,13.148,2.052,19.863c-0.848,43.091-36.608,78.557-79.723,79.059    c-0.291,0.003-0.582,0.005-0.879,0.005c-0.175-0.001-0.353,0-0.528,0c-33.228,0-65.987,6.453-97.377,19.184    c-10.664,4.324-21.963,6.517-33.582,6.517c-33.739,0-71.492-0.016-101.002-18.193c19.369-15.704,35.964-31.55,55.684-53.075    c27.745,1.817,101.342,3.715,161.915-20.548c9.148-3.665,14.002-13.256,11.541-22.806c-2.463-9.561-11.354-15.612-21.146-14.402    c-53.529,6.64-87.126,4.216-106.654,0.609c10.181-14.93,19.242-30.141,27.045-45.402c25.154-7.223,55.919-19.239,79.912-46.222    c5.691-6.401,5.975-15.594,0.689-22.354c-5.31-6.792-14.339-8.742-21.96-4.745c-12.093,6.345-24.104,9.588-33.794,11.228    c8.202-28.16,12.419-56.735,12.55-85.148c0.049-10.514-7.175-19.005-17.566-20.648c-10.4-1.644-19.902,4.209-23.102,14.235    c-11.396,35.709-28.033,70.34-49.564,103.216c-4.971-14.706-14.045-33.751-30.469-51.339c-6.073-6.505-15.749-7.471-23.007-2.292    c-7.23,5.161-9.456,14.592-5.292,22.427c18.236,34.309,18.91,67.256,17.292,85.559c-6.169,7.018-12.606,13.949-19.251,20.729    c-2.799-7.9-7.093-16.05-13.668-22.968c-6.643-6.987-16.726-8.473-25.09-3.695c-8.401,4.798-12.263,14.276-9.609,23.588    c4.821,16.913,3.024,34.957,1.04,45.969c-19.377,15.598-32.284,23.889-38.71,27.672c-23.249-16.829-36.962-43.499-36.962-72.443    c0-10.584,1.811-20.836,5.252-30.421c0.25-0.52,0.448-1.064,0.605-1.623c4.369-11.453,11.093-21.906,19.88-30.764    c8.973,18.657,23.375,27.865,24.124,28.333c1.654,1.036,3.498,1.53,5.319,1.53c3.334,0,6.595-1.656,8.489-4.683    c2.931-4.682,1.538-10.835-3.143-13.766c-0.158-0.102-15.838-10.399-20.515-30.768c-0.013-0.057-0.033-0.111-0.047-0.167    c-0.033-0.132-0.061-0.265-0.099-0.396c-2.372-8.13-3.574-16.576-3.574-25.104c0-49.321,40.125-89.446,89.445-89.446l0.418,0.001    c0.036,0,0.071,0,0.107,0c9.82,0,18.65-6.221,21.995-15.51c8.27-22.974,30.237-38.409,54.666-38.409    c8.089,0,15.911,1.628,23.249,4.84c21.637,9.471,43.343,13.654,64.517,12.447c1.269-0.073,2.555-0.109,3.822-0.109    c36.392,0,65.998,29.607,65.998,65.999v0.193c-0.034,11.267,6.76,21.158,17.308,25.198c30.016,11.497,50.183,40.823,50.183,72.973    C448.006,280.054,446.571,288.643,443.742,296.83z M459.014,364.288c-0.102-0.472-0.195-0.946-0.304-1.416    c-4.358-18.87-2.998-39.448,3.936-59.51c3.558-10.295,5.361-21.081,5.361-32.062c0-20.25-6.12-39.691-17.699-56.223    c-11.311-16.149-26.985-28.4-45.329-35.426c-2.72-1.042-4.471-3.578-4.462-6.491v-0.224c0-19.919-6.826-38.263-18.236-52.858    c9.595-3.311,19.692-10.343,25.744-23.611c52.629,36.267,83.969,95.706,83.969,159.661    C491.994,294.8,480.4,332.483,459.014,364.288z" fill="#1da854"/><path d="M418.642,277.573c-5.219-1.798-10.912,0.98-12.709,6.203l-0.126,0.366c-1.797,5.223,0.98,10.912,6.203,12.709    c1.077,0.371,2.175,0.547,3.254,0.547c4.15,0,8.029-2.604,9.455-6.75l0.126-0.366C426.642,285.059,423.865,279.37,418.642,277.573    z" fill="#1da854"/><path d="M419.736,371.873c-3.369-14.585-4.33-29.812-2.857-45.256c0.524-5.498-3.508-10.38-9.006-10.904    c-5.502-0.519-10.38,3.509-10.904,9.006c-1.677,17.591-0.574,34.969,3.28,51.654c0.753,3.263,1.1,6.652,1.033,10.077    c-0.426,21.719-18.456,39.595-40.189,39.849c-5.523,0.064-9.947,4.593-9.883,10.115c0.063,5.484,4.527,9.884,9.997,9.884    c0.039,0,0.079,0,0.118-0.001c32.421-0.377,59.315-27.049,59.953-59.453C421.379,381.776,420.86,376.74,419.736,371.873z" fill="#1da854"/></g><g transform="matrix(0.0390625 0 0 0.0390625 77.5 340)" id="L1_81"><path d="M343.859,330.191c-3.838-3.973-10.17-4.078-14.141-0.242c-3.972,3.838-4.08,10.169-0.242,14.141    c11.782,12.191,18.364,28.249,18.534,45.213c0.178,17.771-6.603,34.505-19.092,47.12c-5.425,5.479-11.644,9.914-18.483,13.184    c-4.983,2.381-7.093,8.351-4.711,13.334c1.717,3.593,5.297,5.69,9.029,5.69c1.445,0,2.914-0.314,4.305-0.979    c8.925-4.265,17.024-10.037,24.073-17.158c16.274-16.438,25.109-38.24,24.877-61.391C367.788,367,359.211,346.079,343.859,330.191    z" fill="#1da854"/><path d="M282.208,455.991h-0.194c-5.522,0-10,4.478-10,10c0,5.522,4.478,10,10,10h0.194c5.522,0,10-4.478,10-10    C292.208,460.469,287.73,455.991,282.208,455.991z" fill="#1da854"/><path d="M390.93,189.853c0,0-0.001,0-0.002,0h-0.001c-13.739,0-27.116,2.282-39.764,6.678    c-8.933-2.561-19.105-5.917-29.877-10.277c-25.927-10.494-59.796-28.75-86.477-58.872c7.511,2.702,15.596,4.765,24.076,5.798    c3.981,0.485,7.937,0.726,11.858,0.726c21.413,0,41.787-7.189,59.51-21.107c23.666-18.586,30.55-36.077,36.623-51.509    c5.068-12.877,9.445-23.999,23.523-35.457c2.891-2.353,4.233-6.119,3.482-9.77c-0.75-3.651-3.469-6.582-7.054-7.604    c-3.542-1.008-87.246-24.312-132.354,11.116c-19.924,15.648-29.634,29.674-36.724,39.915    c-6.516,9.411-10.398,15.016-18.486,18.554l-18.814-27.17c-1.554-2.243-3.955-3.754-6.649-4.183    c-2.693-0.431-5.446,0.261-7.619,1.911l-27.122,20.591c-2.154,1.635-3.554,4.073-3.88,6.758s0.448,5.387,2.147,7.491    l23.798,29.462c3.935,26.738-2.585,50.988-19.401,72.115c-1.654,2.077-3.335,4.027-5.011,5.85    c-5.135-0.661-10.355-1.015-15.643-1.015c-0.687,0-1.371,0.015-2.055,0.026c-0.343-0.009-0.684-0.026-1.029-0.026    c-0.005,0.014-0.01,0.026-0.015,0.039C52.639,191.542,0,245.201,0,310.923c0,64.834,51.227,117.924,115.33,120.931    c5.94,16.297,15.376,31.262,27.954,43.967c23.092,23.324,53.883,36.17,86.702,36.17c8.756,0,17.495-0.938,26.014-2.789    c8.519,1.852,17.258,2.789,26.014,2.789c32.819,0,63.61-12.846,86.702-36.17c12.578-12.705,22.014-27.669,27.954-43.967    C460.773,428.847,512,375.758,512,310.923C512,244.165,457.688,189.853,390.93,189.853z M304.429,57.899    c-3.357-4.387-9.637-5.221-14.019-1.864c-18.878,14.448-42.884,20.409-61.887,22.783c1.927-2.54,3.771-5.202,5.671-7.945    c7.07-10.21,15.083-21.784,32.634-35.57c26.271-20.633,72.423-15.955,97.365-11.4c-8.097,10.164-12.058,20.229-15.928,30.061    c-5.642,14.333-10.97,27.872-30.366,43.104c-16.935,13.3-35.974,18.77-56.597,16.258c-15.109-1.841-28.43-7.533-38.648-13.723    c22.487-1.888,54.486-8.226,79.911-27.685C306.952,68.561,307.786,62.285,304.429,57.899z M203.367,119.291    c24.462,36.722,62.738,66.312,110.972,85.727c3.735,1.503,7.391,2.888,10.956,4.173c-2.33,1.51-4.627,3.086-6.869,4.765    c-18.344,13.737-32.586,32.733-40.703,54.045c-5.51,0.016-11.035,0.025-16.571,0.029c-2.172-10.546-5.242-23.188-9.559-37.135    c-9.348-30.203-26.284-71.476-55.771-108.654L203.367,119.291z M159.362,78.891l10.593-8.043l21.814,31.503l-9.772,3.821    c-1.281-1.371-2.579-2.734-3.899-4.085L159.362,78.891z M181.82,136.803c26.446,34.075,41.879,71.748,50.511,99.5    c3.628,11.665,6.341,22.432,8.358,31.715c-2.135-0.004-4.266-0.01-6.396-0.016c-13.188-34.885-41.264-61.05-75.608-72.209    C172.273,178.111,180.068,158.11,181.82,136.803z M109.847,411.369C59.38,405.766,20,362.861,20,310.923    c0-53.167,41.265-96.875,93.449-100.784c-0.172,0.1-0.276,0.159-0.288,0.166c-4.827,2.659-6.595,8.724-3.946,13.561    c1.817,3.32,5.244,5.2,8.78,5.2c1.623,0,3.27-0.396,4.793-1.23c0.364-0.199,4.817-2.67,11.129-7.47    c0.901,2.095,1.403,4.4,1.403,6.822c0,9.558-7.776,17.333-17.334,17.333c-4.63,0-8.983-1.803-12.257-5.077    c-3.906-3.905-10.236-3.905-14.143,0c-3.905,3.905-3.905,10.237,0,14.143c7.052,7.051,16.427,10.935,26.399,10.935    c20.586,0,37.334-16.748,37.334-37.334c0-4.235-0.719-8.302-2.024-12.1c26.32,8.802,48.14,28.188,59.835,54.062    c-26.826,3.72-51.624,16.303-70.772,36.117c-21.849,22.606-34.053,52.251-34.366,83.474    C107.915,396.413,108.549,403.978,109.847,411.369z M354.503,461.75c-19.307,19.501-45.05,30.241-72.489,30.241    c-7.993,0-15.967-0.933-23.699-2.772c-0.761-0.181-1.538-0.271-2.314-0.271s-1.554,0.091-2.314,0.271    c-7.732,1.84-15.706,2.772-23.699,2.772c-27.439,0-53.183-10.74-72.489-30.241c-19.303-19.498-29.781-45.355-29.505-72.809    c0.544-54.212,43.366-98.512,97.488-100.854c1.618-0.07,3.247-0.111,4.855-0.096c4.687,0.016,9.393,0.026,14.105,0.033    c1.294,8.286,1.708,13.168,1.718,13.283c0.419,5.232,4.796,9.201,9.957,9.201c0.266,0,0.534-0.011,0.803-0.032    c5.506-0.438,9.614-5.256,9.177-10.761c-0.032-0.401-0.321-3.866-1.129-9.72c7.023,3.327,11.905,10.464,11.905,18.738    c0,11.438-9.306,20.744-20.744,20.744s-20.744-9.306-20.744-20.744c0-5.522-4.478-10-10-10c-5.522,0-10,4.478-10,10    c0,22.467,18.277,40.744,40.744,40.744c22.467,0,40.744-18.277,40.744-40.744c0-7.396-1.991-14.331-5.449-20.316    c51.783,4.715,92.059,47.959,92.586,100.523C384.284,416.394,373.806,442.252,354.503,461.75z M402.152,411.367    c1.298-7.391,1.932-14.956,1.855-22.628c-0.313-31.223-12.518-60.867-34.366-83.474c-19.153-19.818-43.958-32.402-70.791-36.119    c10.686-23.71,29.82-41.943,53.184-51.606c18,4.773,29.991,6.259,30.775,6.353c0.404,0.049,0.806,0.072,1.203,0.072    c4.986,0,9.298-3.727,9.911-8.802c0.22-1.819-0.073-3.579-0.751-5.149c8.498,1.107,15.088,8.376,15.088,17.171    c0,9.558-7.776,17.333-17.334,17.333c-4.63,0-8.982-1.803-12.256-5.077c-3.906-3.905-10.236-3.905-14.143,0    c-3.905,3.905-3.905,10.237,0,14.143c7.052,7.051,16.427,10.935,26.398,10.935c20.586,0,37.334-16.748,37.334-37.334    c0-3.756-0.563-7.382-1.6-10.804C464.808,230.849,492,267.767,492,310.923C492,362.861,452.62,405.766,402.152,411.367z" fill="#1da854"/></g></defs><g fi:class="KUsePattern"><pattern id="pattern_L1_72" width="350" height="350" patternUnits="userSpaceOnUse"><use xlink:href="#L1_72" x="-350" y="-350"/><use xlink:href="#L1_72" x="0" y="-350"/><use xlink:href="#L1_72" x="350" y="-350"/><use xlink:href="#L1_72" x="-350" y="0"/><use xlink:href="#L1_72" x="0" y="0"/><use xlink:href="#L1_72" x="350" y="0"/><use xlink:href="#L1_72" x="-350" y="350"/><use xlink:href="#L1_72" x="0" y="350"/><use xlink:href="#L1_72" x="350" y="350"/></pattern><rect x="0" y="0" width="100%" height="100%" fill="url(#pattern_L1_72)"/></g><g fi:class="KUsePattern"><pattern id="pattern_L1_73" width="350" height="350" patternUnits="userSpaceOnUse"><use xlink:href="#L1_73" x="-350" y="-350"/><use xlink:href="#L1_73" x="0" y="-350"/><use xlink:href="#L1_73" x="350" y="-350"/><use xlink:href="#L1_73" x="-350" y="0"/><use xlink:href="#L1_73" x="0" y="0"/><use xlink:href="#L1_73" x="350" y="0"/><use xlink:href="#L1_73" x="-350" y="350"/><use xlink:href="#L1_73" x="0" y="350"/><use xlink:href="#L1_73" x="350" y="350"/></pattern><rect x="0" y="0" width="100%" height="100%" fill="url(#pattern_L1_73)"/></g><g fi:class="KUsePattern"><pattern id="pattern_L1_74" width="350" height="350" patternUnits="userSpaceOnUse"><use xlink:href="#L1_74" x="-350" y="-350"/><use xlink:href="#L1_74" x="0" y="-350"/><use xlink:href="#L1_74" x="350" y="-350"/><use xlink:href="#L1_74" x="-350" y="0"/><use xlink:href="#L1_74" x="0" y="0"/><use xlink:href="#L1_74" x="350" y="0"/><use xlink:href="#L1_74" x="-350" y="350"/><use xlink:href="#L1_74" x="0" y="350"/><use xlink:href="#L1_74" x="350" y="350"/></pattern><rect x="0" y="0" width="100%" height="100%" fill="url(#pattern_L1_74)"/></g><g fi:class="KUsePattern"><pattern id="pattern_L1_75" width="350" height="350" patternUnits="userSpaceOnUse"><use xlink:href="#L1_75" x="-350" y="-350"/><use xlink:href="#L1_75" x="0" y="-350"/><use xlink:href="#L1_75" x="350" y="-350"/><use xlink:href="#L1_75" x="-350" y="0"/><use xlink:href="#L1_75" x="0" y="0"/><use xlink:href="#L1_75" x="350" y="0"/><use xlink:href="#L1_75" x="-350" y="350"/><use xlink:href="#L1_75" x="0" y="350"/><use xlink:href="#L1_75" x="350" y="350"/></pattern><rect x="0" y="0" width="100%" height="100%" fill="url(#pattern_L1_75)"/></g><g fi:class="KUsePattern"><pattern id="pattern_L1_76" width="350" height="350" patternUnits="userSpaceOnUse"><use xlink:href="#L1_76" x="-350" y="-350"/><use xlink:href="#L1_76" x="0" y="-350"/><use xlink:href="#L1_76" x="350" y="-350"/><use xlink:href="#L1_76" x="-350" y="0"/><use xlink:href="#L1_76" x="0" y="0"/><use xlink:href="#L1_76" x="350" y="0"/><use xlink:href="#L1_76" x="-350" y="350"/><use xlink:href="#L1_76" x="0" y="350"/><use xlink:href="#L1_76" x="350" y="350"/></pattern><rect x="0" y="0" width="100%" height="100%" fill="url(#pattern_L1_76)"/></g><g fi:class="KUsePattern"><pattern id="pattern_L1_77" width="350" height="350" patternUnits="userSpaceOnUse"><use xlink:href="#L1_77" x="-350" y="-350"/><use xlink:href="#L1_77" x="0" y="-350"/><use xlink:href="#L1_77" x="350" y="-350"/><use xlink:href="#L1_77" x="-350" y="0"/><use xlink:href="#L1_77" x="0" y="0"/><use xlink:href="#L1_77" x="350" y="0"/><use xlink:href="#L1_77" x="-350" y="350"/><use xlink:href="#L1_77" x="0" y="350"/><use xlink:href="#L1_77" x="350" y="350"/></pattern><rect x="0" y="0" width="100%" height="100%" fill="url(#pattern_L1_77)"/></g><g fi:class="KUsePattern"><pattern id="pattern_L1_78" width="350" height="350" patternUnits="userSpaceOnUse"><use xlink:href="#L1_78" x="-350" y="-350"/><use xlink:href="#L1_78" x="0" y="-350"/><use xlink:href="#L1_78" x="350" y="-350"/><use xlink:href="#L1_78" x="-350" y="0"/><use xlink:href="#L1_78" x="0" y="0"/><use xlink:href="#L1_78" x="350" y="0"/><use xlink:href="#L1_78" x="-350" y="350"/><use xlink:href="#L1_78" x="0" y="350"/><use xlink:href="#L1_78" x="350" y="350"/></pattern><rect x="0" y="0" width="100%" height="100%" fill="url(#pattern_L1_78)"/></g><g fi:class="KUsePattern"><pattern id="pattern_L1_79" width="350" height="350" patternUnits="userSpaceOnUse"><use xlink:href="#L1_79" x="-350" y="-350"/><use xlink:href="#L1_79" x="0" y="-350"/><use xlink:href="#L1_79" x="350" y="-350"/><use xlink:href="#L1_79" x="-350" y="0"/><use xlink:href="#L1_79" x="0" y="0"/><use xlink:href="#L1_79" x="350" y="0"/><use xlink:href="#L1_79" x="-350" y="350"/><use xlink:href="#L1_79" x="0" y="350"/><use xlink:href="#L1_79" x="350" y="350"/></pattern><rect x="0" y="0" width="100%" height="100%" fill="url(#pattern_L1_79)"/></g><g fi:class="KUsePattern"><pattern id="pattern_L1_80" width="350" height="350" patternUnits="userSpaceOnUse"><use xlink:href="#L1_80" x="-350" y="-350"/><use xlink:href="#L1_80" x="0" y="-350"/><use xlink:href="#L1_80" x="350" y="-350"/><use xlink:href="#L1_80" x="-350" y="0"/><use xlink:href="#L1_80" x="0" y="0"/><use xlink:href="#L1_80" x="350" y="0"/><use xlink:href="#L1_80" x="-350" y="350"/><use xlink:href="#L1_80" x="0" y="350"/><use xlink:href="#L1_80" x="350" y="350"/></pattern><rect x="0" y="0" width="100%" height="100%" fill="url(#pattern_L1_80)"/></g><g fi:class="KUsePattern"><pattern id="pattern_L1_81" width="350" height="350" patternUnits="userSpaceOnUse"><use xlink:href="#L1_81" x="-350" y="-350"/><use xlink:href="#L1_81" x="0" y="-350"/><use xlink:href="#L1_81" x="350" y="-350"/><use xlink:href="#L1_81" x="-350" y="0"/><use xlink:href="#L1_81" x="0" y="0"/><use xlink:href="#L1_81" x="350" y="0"/><use xlink:href="#L1_81" x="-350" y="350"/><use xlink:href="#L1_81" x="0" y="350"/><use xlink:href="#L1_81" x="350" y="350"/></pattern><rect x="0" y="0" width="100%" height="100%" fill="url(#pattern_L1_81)"/></g></svg>