<?xml version="1.0" encoding="utf-8"?>
<!-- Generator: Adobe Illustrator 24.1.0, SVG Export Plug-In . SVG Version: 6.00 Build 0)  -->
<svg version="1.1" id="Layer_1" xmlns="http://www.w3.org/2000/svg" xmlns:xlink="http://www.w3.org/1999/xlink" x="0px" y="0px"
	 viewBox="0 0 160 160" style="enable-background:new 0 0 160 160;" xml:space="preserve">
<style type="text/css">
	.st0{fill:none;}
	.st1{fill:#10162F;}
	.st2{fill:url(#SVGID_1_);stroke:#10162F;stroke-linecap:round;stroke-linejoin:round;stroke-miterlimit:10;}
	.st3{fill:#FFD104;stroke:#10162F;stroke-miterlimit:10;}
	.st4{fill:#10162F;stroke:#10162F;stroke-linecap:round;stroke-linejoin:round;stroke-miterlimit:10;}
	.st5{fill:#66C2FD;stroke:#10162F;stroke-miterlimit:10;}
	.st6{fill:#ACE738;stroke:#10162F;stroke-miterlimit:10;}
	.st7{fill:#FFFFFF;stroke:#10162F;stroke-linecap:round;stroke-linejoin:round;stroke-miterlimit:10;}
</style>
<pattern  x="-320" y="-320" width="4" height="4" patternUnits="userSpaceOnUse" id="cc-pixel-navy-dot" viewBox="0 -4 4 4" style="overflow:visible;">
	<g>
		<rect y="-4" class="st0" width="4" height="4"/>
		<rect y="-4" class="st1" width="1" height="1"/>
		<rect x="2" y="-2" class="st1" width="1" height="1"/>
	</g>
</pattern>
<pattern  id="SVGID_1_" xlink:href="#cc-pixel-navy-dot" patternTransform="matrix(1.0901 0 0 1.0901 764.4384 694.3029)">
</pattern>
<polygon class="st2" points="1.5,95 108.6,95 108.6,4.6 1.5,4.6 "/>
<rect x="1.5" y="4.6" transform="matrix(-1 -4.490465e-11 4.490465e-11 -1 110.1058 27.5955)" class="st3" width="107" height="18.4"/>
<circle class="st4" cx="36.9" cy="13.7" r="3.9"/>
<circle class="st4" cx="23.9" cy="13.7" r="3.9"/>
<circle class="st4" cx="10.9" cy="13.7" r="3.9"/>
<path class="st5" d="M140.7,26.4c0,0-21.9-3.4-24.4,15.9c-2.9,21.3-18.7,2.5-30.8,23.5c-11.3,19.6-32.4-5.4-32.4,40H141L140.7,26.4z
	"/>
<path class="st6" d="M100,116.1c0,0-7-31.5-46.4-31.5c-33.4,0-3.3-33-52-33V115C1.6,115,100.7,115.5,100,116.1z"/>
<path class="st4" d="M27.1,156.1h131.3V52.9c0,0-26.2-6.5-35.5,24.3c-7.9,26.4-21.2,6.6-37.8,17.4c-13.6,8.8-9.9,24-33,26.8
	C27.6,124.3,27.1,156.1,27.1,156.1z"/>
<circle class="st3" cx="57.1" cy="48.4" r="14.7"/>
<polygon class="st7" points="116.6,147.5 100.4,105.6 141.2,122.8 129.4,128.8 139.5,138.9 132.5,145.9 122.2,135.6 "/>
</svg>
