<svg width="100" height="54" xmlns="http://www.w3.org/2000/svg"><g fill="none" fill-rule="evenodd"><path d="M100 19h-9.962V8H100zm-12.808 0H77.23V8h9.962zm-13.519 0H63V8h10.673z" fill="#FFD500"/><path d="M76.525 21.6a2 2 0 0 1 2 2V54H69.75V23.6a2 2 0 0 1 2-2h4.775zM65.725 0a2 2 0 0 1 2 2v52H58.95V2a2 2 0 0 1 2-2h4.775zM54.25 10.8a2 2 0 0 1 2 2V54h-8.775V12.8a2 2 0 0 1 2-2h4.775zM88 32.4a2 2 0 0 1 2 2V54h-8.775V34.4a2 2 0 0 1 2-2H88zM42.775 16.2a2 2 0 0 1 2 2V54H36V18.2a2 2 0 0 1 2-2h4.775z" fill="#141C3A"/><path d="M31 38c0 8.284-6.94 15-15.5 15C6.94 53 0 46.284 0 38h31z" fill="#6400E4"/></g></svg>