<svg height="160" viewBox="0 0 160 160" width="160" xmlns="http://www.w3.org/2000/svg" xmlns:xlink="http://www.w3.org/1999/xlink"><pattern id="a" height="4" patternUnits="userSpaceOnUse" viewBox="0 0 4 4" width="4"><path d="m0 0h4v4h-4z" fill="none"/><path d="m0 0h1v1h-1z" fill="#10162f"/><path d="m2 2h1v1h-1z" fill="#10162f"/></pattern><g stroke="#10162f" stroke-miterlimit="10"><path d="m76.94 82.18-60.53 24.62c-1.21 4.86-1 16.67 2.31 18.55l58.4 33.31a5 5 0 0 0 4.95 0l59.26-34.66c3.3-1.93 3.38-14.52 2.35-18.09l-61.79-23.79a5 5 0 0 0 -4.95.06z" fill="#66c4ff"/><path d="m77 69-58.3 34.58a5 5 0 0 0 .07 8.56l58.41 33.31a4.92 4.92 0 0 0 4.95 0l59.25-34.61a5 5 0 0 0 -.07-8.59l-59.31-33.34a5 5 0 0 0 -5 .09z" fill="#10162f"/><path d="m76.94 48-60.53 24.64c-1.21 4.85-1 16.66 2.31 18.55l58.4 33.3a5 5 0 0 0 4.95 0l59.26-34.61c3.3-1.94 3.38-14.52 2.35-18.09l-61.79-23.79a4.92 4.92 0 0 0 -4.95 0z" fill="#ffd300"/><path d="m76.87 35-58.3 34.62a5 5 0 0 0 .07 8.56l58.41 33.31a4.92 4.92 0 0 0 5 0l59.25-34.61a5 5 0 0 0 -.07-8.59l-59.41-33.29a5 5 0 0 0 -4.95 0z" fill="#10162f"/><path d="m76.94 14.22-60.53 24.63c-1.21 4.85-1 16.66 2.31 18.54l58.4 33.31a4.92 4.92 0 0 0 4.95 0l59.26-34.61c3.3-1.93 3.38-14.51 2.35-18.08l-61.79-23.85a5 5 0 0 0 -4.95.06z" fill="#aee938"/><path d="m76.93 1.35-58.3 34.65a5 5 0 0 0 .08 8.56l58.4 33.31a5 5 0 0 0 5 0l59.26-34.62a5 5 0 0 0 -.08-8.59l-59.41-33.37a5 5 0 0 0 -4.95.06z" fill="#fff"/><path d="m76.93 1.35-58.3 34.65a5 5 0 0 0 .08 8.56l58.4 33.31a5 5 0 0 0 5 0l59.26-34.62a5 5 0 0 0 -.08-8.59l-59.41-33.37a5 5 0 0 0 -4.95.06z" fill="url(#a)"/></g></svg>