<svg width="83" height="57" xmlns="http://www.w3.org/2000/svg"><g fill="none" fill-rule="evenodd"><path d="M40.5 39.875v2.75h12.375C52.875 49.46 47.335 55 40.5 55s-12.375-5.54-12.375-12.375l-.001-1.604h.001v-3.896l.004-.252a8.25 8.25 0 0 1 7.994-7.994l.252-.004 2.751-.001-.001.001h5.5l.288-.004c5.845-.15 10.555-4.86 10.708-10.703l.004-.293v-2.75C62.46 15.125 68 20.665 68 27.5s-5.54 12.375-12.375 12.375H40.5zm5.5 6.188a2.062 2.062 0 1 0 0 4.124 2.062 2.062 0 0 0 0-4.124zM40.5 0c6.835 0 12.375 5.54 12.375 12.375l-.001 2.75.001-.001v2.751l-.004.252a8.25 8.25 0 0 1-7.994 7.994l-.252.004h-8.25l-.288.004c-5.845.15-10.555 4.86-10.708 10.703l-.004.293v2.75C18.54 39.875 13 34.335 13 27.5s5.54-12.375 12.375-12.375H40.5v-2.75H28.125C28.125 5.54 33.665 0 40.5 0zm-6.188 4.813a2.062 2.062 0 1 0 0 4.124 2.062 2.062 0 0 0 0-4.124z" fill="#141C3A"/><path fill="#6400E4" d="M10.5 36L21 57H0z"/><path d="M78.5 18.75c-2.485 0-4.5-1.958-4.5-4.375C74 11.96 76.015 10 78.5 10s4.5 1.959 4.5 4.375c0 2.417-2.015 4.375-4.5 4.375m0 12.788c-2.485 0-4.5-1.958-4.5-4.375 0-2.416 2.015-4.375 4.5-4.375s4.5 1.959 4.5 4.375c0 2.417-2.015 4.375-4.5 4.375M78.5 45c-2.485 0-4.5-1.959-4.5-4.375s2.015-4.375 4.5-4.375 4.5 1.959 4.5 4.375S80.985 45 78.5 45" fill="#6AEBC0"/></g></svg>