<svg width="104" height="45" xmlns="http://www.w3.org/2000/svg"><g fill="none" fill-rule="evenodd"><path d="M18 45h74V0H16v43a2 2 0 0 0 2 2z" fill="#141C3A"/><path d="M21.067 2.857c0 .79-.648 1.429-1.448 1.429-.8 0-1.448-.64-1.448-1.429S18.82 1.43 19.62 1.43s1.448.64 1.448 1.428m4.342-.001c0 .79-.649 1.429-1.448 1.429-.8 0-1.448-.64-1.448-1.429s.648-1.428 1.448-1.428c.8 0 1.448.64 1.448 1.428m4.342 0c0 .79-.648 1.429-1.447 1.429-.8 0-1.448-.64-1.448-1.429s.648-1.428 1.448-1.428c.8 0 1.447.64 1.447 1.428m47.048 25v2.857H31.924v-2.857H76.8zm0-6.428v2.857H31.924v-2.857H76.8zm0-6.429v2.857H31.924V15H76.8z" fill="#FFF"/><path d="M11 8v9.962H0V8zm0 12.808v9.962H0v-9.962zm0 13.519V45H0V34.327z" fill="#EFD9CA"/><path d="M104 21.501c0 .14-.002.28-.004.423-.005.14-.009.282-.017.423-.007.131-.013.263-.024.395-.002.04-.004.08-.008.12l-.026.311a14.388 14.388 0 0 1-.107.862 16.592 16.592 0 0 1-.33 1.672 9.81 9.81 0 0 1-.096.375c-.004.016-.01.033-.012.05a20.44 20.44 0 0 1-.246.81c-.044.136-.091.27-.138.406-.049.134-.098.27-.15.404-.05.13-.101.26-.155.389-.004.008-.006.017-.01.023a13.842 13.842 0 0 1-.345.779c-.06.13-.122.257-.186.384l-.009.015a25.938 25.938 0 0 1-.219.423c-.051.094-.102.188-.156.282a6.433 6.433 0 0 1-.07.122c-.045.08-.092.159-.138.238a17.825 17.825 0 0 1-1.025 1.532c-.004.008-.011.017-.015.023a47.878 47.878 0 0 1-.269.347 15.013 15.013 0 0 1-.575.693 18.579 18.579 0 0 1-.942.998L86 21.501 98.728 9c.22.215.433.435.64.66.102.112.204.223.302.338.126.142.247.287.366.434.073.085.141.17.21.259.119.153.236.305.35.46l.018.023a7.197 7.197 0 0 1 .214.299l.153.22c.05.075.102.153.15.228.107.16.21.32.305.482a13.454 13.454 0 0 1 .576 1.01l.053.1c.038.076.077.151.113.227.053.104.104.209.154.316.055.115.108.232.162.35l.038.09c.04.09.079.181.117.271.02.046.038.092.058.136.046.115.091.228.136.345l.15.402c.044.13.089.26.131.39.004.01.006.02.01.027l.046.142c.027.088.055.176.08.264l.007.018c.038.128.074.258.11.386.039.138.073.276.11.414.04.163.076.324.112.487l.007.032c.006.027.013.056.017.083.015.067.027.132.04.2.01.045.02.093.028.142.01.048.02.096.028.144a41.226 41.226 0 0 1 .09.532 18.013 18.013 0 0 1 .17 1.73v.01a11.908 11.908 0 0 1 .017.423c.002.145.004.287.004.427" fill="#FFD500"/></g></svg>