<?xml version="1.0" encoding="iso-8859-1"?>
<!-- Generator: Adobe Illustrator 19.0.0, SVG Export Plug-In . SVG Version: 6.00 Build 0)  -->
<svg version="1.1" id="Capa_1" xmlns="http://www.w3.org/2000/svg" xmlns:xlink="http://www.w3.org/1999/xlink" x="0px" y="0px"
	 viewBox="0 0 479.619 479.619" style="enable-background:new 0 0 479.619 479.619;" xml:space="preserve">
<g>
	<g>
		<path style="fill:#65676b" d="M475.855,336.376c-0.441-2.809-1.116-5.577-2.017-8.275c-8.621-23.991-33.203-38.346-58.334-34.065
			c-8.313,1.309-16.114-4.368-17.425-12.681l-12.646-80.913c-10.379-68.459-59.835-124.522-126.464-143.36
			c-6.06-37.088-41.038-62.242-78.127-56.182c-36.598,5.98-61.669,40.163-56.376,76.867
			c-57.432,36.346-87.748,103.365-77.124,170.496l13.551,86.118c1.241,8.297-4.405,16.054-12.68,17.425
			c-25.234,3.641-44.226,24.849-45.073,50.33c-0.292,28.275,22.393,51.434,50.668,51.726c0.177,0.002,0.355,0.003,0.532,0.003
			c2.669-0.002,5.333-0.207,7.97-0.614l52.531-8.26c18.274,32.622,59.533,44.254,92.155,25.98
			c17.231-9.652,29.388-26.347,33.285-45.709L433.22,394.9C461.154,390.513,480.243,364.311,475.855,336.376z M186.777,36.313
			c1.779-0.277,3.576-0.42,5.376-0.427c11.441,0.061,22.098,5.822,28.416,15.36h-0.819c-6.365-0.192-12.737-0.009-19.081,0.546
			c-6.681,0.638-13.32,1.664-19.883,3.072c-1.417,0.29-2.816,0.7-4.216,1.041c-5.376,1.263-10.65,2.748-15.821,4.506
			c-0.512,0.154-1.041,0.239-1.553,0.427C162.797,47.969,173.576,38.384,186.777,36.313z M173.806,445.486
			c-7.233,0.008-14.277-2.314-20.087-6.622l47.787-7.492C195.075,440.252,184.77,445.503,173.806,445.486z M439.824,353.207
			c-2.613,4.291-6.983,7.213-11.947,7.987L222.31,393.518l-99.891,15.718l-65.365,10.24c-4.952,0.808-10.006-0.63-13.79-3.925
			c-3.862-3.293-6.057-8.135-5.99-13.21c0.739-8.753,7.526-15.782,16.247-16.828c26.88-4.309,45.234-29.518,41.079-56.422
			l-13.534-86.118c-8.864-56.814,18.723-113.111,69.052-140.919c0.296-0.099,0.586-0.213,0.87-0.341
			c16.334-8.85,34.302-14.275,52.804-15.94c5.607-0.493,11.24-0.601,16.862-0.324l2.799,0.137
			c5.816,0.352,11.602,1.081,17.323,2.185c0.188,0,0.358,0,0.546,0c57.748,12.493,101.701,59.479,110.319,117.931l12.732,80.913
			c4.232,26.931,29.49,45.336,56.422,41.114c8.608-1.681,17.214,2.907,20.617,10.991
			C443.075,343.541,442.493,348.857,439.824,353.207z"/>
	</g>
</g>
<g>
</g>
<g>
</g>
<g>
</g>
<g>
</g>
<g>
</g>
<g>
</g>
<g>
</g>
<g>
</g>
<g>
</g>
<g>
</g>
<g>
</g>
<g>
</g>
<g>
</g>
<g>
</g>
<g>
</g>
</svg>
