<svg viewBox="0 0 28 28" height="28" width="28" xmlns="http://www.w3.org/2000/svg" style="fill:#65676b"><path d="M8.75 25.25C8.336 25.25 8 24.914 8 24.5 8 24.086 8.336 23.75 8.75 23.75L19.25 23.75C19.664 23.75 20 24.086 20 24.5 20 24.914 19.664 25.25 19.25 25.25L8.75 25.25ZM17.163 12.846 12.055 15.923C11.591 16.202 11 15.869 11 15.327L11 9.172C11 8.631 11.591 8.297 12.055 8.576L17.163 11.654C17.612 11.924 17.612 12.575 17.163 12.846ZM21.75 20.25C22.992 20.25 24 19.242 24 18L24 6.5C24 5.258 22.992 4.25 21.75 4.25L6.25 4.25C5.008 4.25 4 5.258 4 6.5L4 18C4 19.242 5.008 20.25 6.25 20.25L21.75 20.25ZM21.75 21.75 6.25 21.75C4.179 21.75 2.5 20.071 2.5 18L2.5 6.5C2.5 4.429 4.179 2.75 6.25 2.75L21.75 2.75C23.821 2.75 25.5 4.429 25.5 6.5L25.5 18C25.5 20.071 23.821 21.75 21.75 21.75Z"></path></svg>