<svg id="Capa_1" enable-background="new 0 0 512 512" height="512" viewBox="0 0 512 512" width="512" xmlns="http://www.w3.org/2000/svg"><g><path d="m476.439 91.9v-69.4c0-12.407-10.094-22.5-22.5-22.5h-43.748c-4.143 0-7.5 3.358-7.5 7.5s3.357 7.5 7.5 7.5h43.748c4.136 0 7.5 3.364 7.5 7.5v69.4c0 4.136-3.364 7.5-7.5 7.5h-22c-15.163 0-27.5 12.336-27.5 27.5v125.207c0 4.142 3.357 7.5 7.5 7.5s7.5-3.358 7.5-7.5v-38.307h29.5c6.893 0 12.5 5.607 12.5 12.5v59.4c0 6.893-5.607 12.5-12.5 12.5h-29.5v-10.775c0-4.142-3.357-7.5-7.5-7.5s-7.5 3.358-7.5 7.5v209.575h-34.589c-4.143 0-7.5 3.358-7.5 7.5s3.357 7.5 7.5 7.5h42.089 37c15.163 0 27.5-12.336 27.5-27.5v-59.4c0-7.875-3.333-14.982-8.655-20 5.323-5.018 8.655-12.125 8.655-20v-59.4c0-7.875-3.333-14.982-8.655-20 5.323-5.018 8.655-12.125 8.655-20v-59.4c0-7.875-3.333-14.982-8.655-20 5.323-5.018 8.655-12.125 8.655-20v-59.4c0-7.131-2.729-13.635-7.196-18.527 4.423-4.111 7.196-9.973 7.196-16.473zm-15 333.2v59.4c0 6.893-5.607 12.5-12.5 12.5h-29.5v-84.4h29.5c6.893 0 12.5 5.608 12.5 12.5zm0-99.4v59.4c0 6.893-5.607 12.5-12.5 12.5h-29.5v-84.4h29.5c6.893 0 12.5 5.608 12.5 12.5zm-42-126.9v-71.9c0-6.893 5.607-12.5 12.5-12.5h17c6.893 0 12.5 5.607 12.5 12.5v59.4c0 6.893-5.607 12.5-12.5 12.5z"/><path d="m334.745 497h-238.414c-4.136 0-7.5-3.364-7.5-7.5v-23.936h12.188c15.163 0 27.5-12.336 27.5-27.5s-12.337-27.5-27.5-27.5h-12.188v-35h12.188c15.163 0 27.5-12.336 27.5-27.5s-12.337-27.5-27.5-27.5h-12.188v-35h12.188c15.163 0 27.5-12.336 27.5-27.5s-12.337-27.5-27.5-27.5h-12.188v-35h12.188c15.163 0 27.5-12.336 27.5-27.5s-12.337-27.5-27.5-27.5h-12.188v-35h12.188c15.163 0 27.5-12.336 27.5-27.5s-12.337-27.5-27.5-27.5h-12.188v-28.064c0-4.136 3.364-7.5 7.5-7.5h278.712c4.143 0 7.5-3.358 7.5-7.5s-3.357-7.5-7.5-7.5h-278.712c-12.406 0-22.5 10.093-22.5 22.5v28.064h-10.77c-15.163 0-27.5 12.336-27.5 27.5s12.337 27.5 27.5 27.5h10.771v35h-10.771c-15.163 0-27.5 12.336-27.5 27.5s12.337 27.5 27.5 27.5h10.771v35h-10.771c-15.163 0-27.5 12.336-27.5 27.5s12.337 27.5 27.5 27.5h10.771v35h-10.771c-15.163 0-27.5 12.336-27.5 27.5s12.337 27.5 27.5 27.5h10.771v35h-10.771c-15.163 0-27.5 12.336-27.5 27.5s12.337 27.5 27.5 27.5h10.771v23.936c0 12.407 10.094 22.5 22.5 22.5h238.414c4.143 0 7.5-3.358 7.5-7.5s-3.358-7.5-7.501-7.5zm-284.184-418.936c0-6.893 5.607-12.5 12.5-12.5h37.958c6.893 0 12.5 5.607 12.5 12.5s-5.607 12.5-12.5 12.5h-37.958c-6.893 0-12.5-5.607-12.5-12.5zm0 90c0-6.893 5.607-12.5 12.5-12.5h37.958c6.893 0 12.5 5.607 12.5 12.5s-5.607 12.5-12.5 12.5h-37.958c-6.893 0-12.5-5.607-12.5-12.5zm0 90c0-6.893 5.607-12.5 12.5-12.5h37.958c6.893 0 12.5 5.607 12.5 12.5s-5.607 12.5-12.5 12.5h-37.958c-6.893 0-12.5-5.607-12.5-12.5zm0 90c0-6.893 5.607-12.5 12.5-12.5h37.958c6.893 0 12.5 5.607 12.5 12.5s-5.607 12.5-12.5 12.5h-37.958c-6.893 0-12.5-5.607-12.5-12.5zm0 90c0-6.893 5.607-12.5 12.5-12.5h37.958c6.893 0 12.5 5.607 12.5 12.5s-5.607 12.5-12.5 12.5h-37.958c-6.893 0-12.5-5.607-12.5-12.5z"/><path d="m363.028 361.064c0-15.164-12.337-27.5-27.5-27.5h-100.23c-4.143 0-7.5 3.358-7.5 7.5s3.357 7.5 7.5 7.5h100.23c6.893 0 12.5 5.607 12.5 12.5v64c0 6.893-5.607 12.5-12.5 12.5h-139c-6.893 0-12.5-5.607-12.5-12.5v-64c0-6.893 5.607-12.5 12.5-12.5h3.706c4.143 0 7.5-3.358 7.5-7.5s-3.357-7.5-7.5-7.5h-3.706c-15.163 0-27.5 12.336-27.5 27.5v64c0 15.164 12.337 27.5 27.5 27.5h139c15.163 0 27.5-12.336 27.5-27.5z"/><path d="m322.912 371.075h-113.766c-4.143 0-7.5 3.358-7.5 7.5s3.357 7.5 7.5 7.5h113.767c4.143 0 7.5-3.358 7.5-7.5s-3.358-7.5-7.501-7.5z"/><path d="m322.912 401.564h-113.766c-4.143 0-7.5 3.358-7.5 7.5s3.357 7.5 7.5 7.5h113.767c4.143 0 7.5-3.358 7.5-7.5s-3.358-7.5-7.501-7.5z"/></g></svg>