<?xml version="1.0" encoding="iso-8859-1"?>
<!-- Generator: Adobe Illustrator 19.0.0, SVG Export Plug-In . SVG Version: 6.00 Build 0)  -->
<svg version="1.1" id="Capa_1" xmlns="http://www.w3.org/2000/svg" xmlns:xlink="http://www.w3.org/1999/xlink" x="0px" y="0px"
	 viewBox="0 0 480 480" style="enable-background:new 0 0 480 480;" xml:space="preserve">
<g>
	<g>
		<path d="M472,88.014h-32v-40c0.016-4.418-3.553-8.013-7.972-8.028c-0.234-0.001-0.467,0.009-0.7,0.028l-20.872,1.76
			c-50.615,4.186-100.259,16.291-147.12,35.872L240,87.35l-23.312-9.672c-46.866-19.584-96.516-31.691-147.136-35.88l-20.88-1.784
			c-4.403-0.371-8.273,2.897-8.644,7.3c-0.02,0.233-0.029,0.467-0.028,0.7v40H8c-4.418,0-8,3.582-8,8v336c0,4.418,3.582,8,8,8h464
			c4.418,0,8-3.582,8-8v-336C480,91.596,476.418,88.014,472,88.014z M16,424.03V104.014h24v280c-0.015,4.166,3.169,7.646,7.32,8
			l21.528,1.84c5.867,0.491,11.733,1.096,17.6,1.816c1.96,0.232,3.904,0.544,5.864,0.8c3.88,0.52,7.76,1.04,11.624,1.656
			c2.304,0.368,4.6,0.8,6.896,1.208c3.504,0.616,7.008,1.232,10.496,1.92c2.4,0.48,4.8,1.008,7.2,1.528
			c3.368,0.72,6.736,1.456,10.088,2.256c2.4,0.576,4.84,1.192,7.256,1.808c3.304,0.848,6.6,1.712,9.888,2.624
			c2.4,0.672,4.8,1.376,7.2,2.08c3.264,0.965,6.52,1.968,9.768,3.008c2.379,0.757,4.752,1.536,7.12,2.336
			c3.272,1.096,6.52,2.248,9.768,3.424c2.304,0.8,4.616,1.672,6.904,2.544c0.992,0.376,1.976,0.8,2.96,1.168H16z M232,420.014
			l-14.752-6.16c-46.83-19.62-96.45-31.768-147.048-36L56,376.67V56.718l12.208,1.024c48.966,4.046,96.993,15.754,142.328,34.696
			L232,101.35V420.014z M248,420.014V101.35l21.488-8.92c45.327-18.938,93.346-30.643,142.304-34.688L424,56.718v319.928
			l-13.144,1.072c-50.629,4.203-100.293,16.279-147.2,35.792L248,420.014z M464,424.014H280.64c1.096-0.424,2.184-0.872,3.28-1.288
			c2.4-0.92,4.8-1.792,7.256-2.664c3.136-1.136,6.285-2.237,9.448-3.304c2.464-0.8,4.944-1.6,7.416-2.4
			c3.16-1.008,6.336-1.968,9.512-2.912c2.496-0.736,5-1.464,7.504-2.152c3.2-0.896,6.4-1.736,9.68-2.56
			c2.48-0.632,4.968-1.264,7.464-1.856c3.328-0.8,6.68-1.52,10.032-2.232c2.4-0.52,4.8-1.056,7.248-1.536
			c3.52-0.696,7.056-1.312,10.584-1.928c2.288-0.4,4.568-0.8,6.864-1.2c3.944-0.624,7.896-1.16,11.856-1.688
			c1.896-0.248,3.792-0.552,5.696-0.8c5.867-0.709,11.763-1.315,17.688-1.816l20.488-1.664c4.16-0.342,7.358-3.826,7.344-8v-280h24
			V424.014z"/>
	</g>
</g>
<g>
</g>
<g>
</g>
<g>
</g>
<g>
</g>
<g>
</g>
<g>
</g>
<g>
</g>
<g>
</g>
<g>
</g>
<g>
</g>
<g>
</g>
<g>
</g>
<g>
</g>
<g>
</g>
<g>
</g>
</svg>
