<svg id="Capa_1" enable-background="new 0 0 511.976 511.976" height="512" viewBox="0 0 511.976 511.976" width="512" xmlns="http://www.w3.org/2000/svg"><g><path d="m369.672 390.417-69.298-53.835v-22.542c24.778-14.9 41.395-42.043 41.395-73.001v-68.416c0-31.331-25.489-56.82-56.82-56.82h-63.612l-4.377-8.373c-1.64-3.138-4.549-5.438-7.98-6.31-3.432-.873-7.085-.241-10.025 1.732-17.182 11.534-27.44 30.775-27.44 51.469v86.717c0 8.587 1.278 17.069 3.799 25.211 1.225 3.957 5.425 6.169 9.383 4.946 3.957-1.226 6.171-5.426 4.946-9.383-2.076-6.704-3.128-13.693-3.128-20.774v-44.066c46.079-7.9 93.201-7.893 140.254.023v44.043c0 38.668-31.459 70.127-70.127 70.127-20.286 0-39.575-8.801-52.92-24.146-2.718-3.126-7.456-3.456-10.581-.737-3.125 2.718-3.456 7.456-.737 10.581 5.35 6.151 11.491 11.43 18.199 15.749v23.969l-69.298 53.835c-21.884 17-34.435 42.644-34.435 70.355v43.463c0 4.142 3.358 7.5 7.5 7.5s7.5-3.358 7.5-7.5v-43.463c0-23.045 10.438-44.371 28.637-58.509l62.23-48.344c5.795 18.087 22.766 31.221 42.752 31.221s36.957-13.133 42.752-31.221l62.23 48.344c18.199 14.138 28.637 35.464 28.637 58.509v43.463c0 4.142 3.358 7.5 7.5 7.5s7.5-3.358 7.5-7.5v-43.463c-.001-27.709-12.552-53.353-34.436-70.354zm-183.158-208.65v-27.444c0-14.74 6.864-28.506 18.499-37.368l5.135 9.824c1.293 2.474 3.854 4.025 6.646 4.025h68.154c23.06 0 41.82 18.76 41.82 41.82v9.173c-47.032-7.642-94.127-7.653-140.254-.03zm68.974 188.373c-16.479 0-29.886-13.407-29.886-29.886v-19.958c9.783 3.838 20.296 5.871 31.04 5.871 10.08 0 19.752-1.772 28.733-5.002v19.089c-.001 16.479-13.408 29.886-29.887 29.886z"/><path d="m170.857 458.054c-4.142 0-7.5 3.358-7.5 7.5v38.682c0 4.142 3.358 7.5 7.5 7.5s7.5-3.358 7.5-7.5v-38.682c0-4.142-3.357-7.5-7.5-7.5z"/><path d="m340.118 458.054c-4.142 0-7.5 3.358-7.5 7.5v38.682c0 4.142 3.358 7.5 7.5 7.5s7.5-3.358 7.5-7.5v-38.682c0-4.142-3.358-7.5-7.5-7.5z"/><path d="m16.447 410.354 56.471-48.634c1.655-1.425 2.606-3.5 2.606-5.683v-18.506c5.435 2.163 11.353 3.365 17.55 3.365s12.115-1.202 17.55-3.365v18.506c0 2.183.951 4.258 2.606 5.683l14.587 12.563c1.416 1.22 3.157 1.817 4.891 1.817 2.107 0 4.203-.883 5.687-2.606 2.703-3.138 2.35-7.874-.789-10.577l-11.982-10.319v-24.608c9.27-8.695 15.077-21.04 15.077-34.722v-20.464c0-26.262-21.366-47.627-47.627-47.627-26.262 0-47.628 21.366-47.628 47.627v20.464c0 13.682 5.808 26.027 15.078 34.723v24.607l-53.866 46.39c-3.401 2.93-5.352 7.185-5.352 11.673v26.063c0 7.07 5.051 13.11 12.008 14.361 23.432 4.216 47.445 6.579 71.373 7.024.048.001.095.001.143.001 4.077 0 7.419-3.267 7.496-7.36.077-4.142-3.217-7.561-7.359-7.638-23.019-.429-46.116-2.693-68.66-6.73v-25.722c0-.117.051-.229.14-.306zm44-137.55c0-17.991 14.637-32.627 32.628-32.627s32.627 14.637 32.627 32.627v20.464c0 17.991-14.637 32.628-32.627 32.628-17.991 0-32.628-14.637-32.628-32.628z"/><path d="m437.758 356.037c0 2.183.951 4.258 2.605 5.683l12.414 10.691c1.417 1.22 3.158 1.817 4.891 1.817 2.107 0 4.203-.883 5.687-2.605 2.703-3.139 2.35-7.875-.789-10.578l-9.809-8.447v-24.608c9.27-8.695 15.077-21.04 15.077-34.722v-20.464c0-26.262-21.366-47.627-47.628-47.627s-47.627 21.366-47.627 47.627v20.464c0 13.682 5.808 26.027 15.077 34.722v24.607l-11.982 10.319c-3.138 2.703-3.491 7.439-.789 10.577 1.483 1.723 3.579 2.606 5.687 2.606 1.733 0 3.475-.597 4.891-1.817l14.587-12.563c1.655-1.425 2.606-3.5 2.606-5.683v-18.506c5.435 2.163 11.353 3.365 17.55 3.365 6.197 0 12.115-1.202 17.55-3.365v18.507zm-17.55-30.141c-17.991 0-32.627-14.637-32.627-32.628v-20.464c0-17.991 14.637-32.627 32.628-32.627s32.627 14.637 32.627 32.627v20.464c-.001 17.991-14.637 32.628-32.628 32.628z"/><path d="m506.624 398.988-19.392-16.701c-3.139-2.703-7.875-2.35-10.578.789s-2.35 7.875.789 10.578l19.393 16.701c.089.077.141.189.141.308v25.722c-22.543 4.037-45.642 6.301-68.66 6.73-4.142.077-7.436 3.497-7.359 7.638.076 4.094 3.418 7.36 7.496 7.36.047 0 .095 0 .143-.001 23.927-.445 47.94-2.809 71.372-7.024 6.958-1.251 12.009-7.291 12.009-14.361v-26.063c-.002-4.492-1.953-8.747-5.354-11.676z"/><path d="m441.042 127.107h-3.936c-2.773 0-5.32 1.53-6.622 3.979l-11.577 21.772-11.192-21.69c-1.287-2.494-3.858-4.061-6.665-4.061h-46.507c-4.142 0-7.5 3.358-7.5 7.5s3.358 7.5 7.5 7.5h41.938l10.024 19.426c2.386 4.623 7.1 7.516 12.302 7.548h.088c5.168 0 9.878-2.828 12.308-7.396l10.411-19.58c38.85-.309 70.361-32.009 70.361-70.931 0-13.23-3.679-26.149-10.64-37.361-2.185-3.519-6.81-4.6-10.328-2.416-3.519 2.185-4.601 6.809-2.416 10.328 5.484 8.834 8.383 19.017 8.383 29.449.002 30.842-25.09 55.933-55.932 55.933z"/><path d="m70.361 142.104 10.412 19.581c2.429 4.568 7.139 7.396 12.308 7.396h.088c5.202-.032 9.917-2.925 12.302-7.548l10.024-19.426h35.851c4.142 0 7.5-3.358 7.5-7.5s-3.358-7.5-7.5-7.5h-40.42c-2.806 0-5.378 1.567-6.665 4.061l-11.193 21.69-11.576-21.772c-1.302-2.449-3.849-3.979-6.622-3.979h-3.936c-30.842 0-55.934-25.092-55.934-55.934s25.092-55.933 55.934-55.933h370.108c9.397 0 18.694 2.379 26.886 6.879 3.632 1.995 8.19.668 10.185-2.962s.668-8.19-2.962-10.185c-10.399-5.712-22.193-8.732-34.109-8.732h-370.108c-39.113 0-70.934 31.821-70.934 70.934 0 38.922 31.511 70.622 70.361 70.93z"/><path d="m116.894 65.381c-1.13 6.833 4.723 12.686 11.556 11.556 4.14-.685 7.478-4.024 8.163-8.163 1.13-6.833-4.723-12.685-11.556-11.556-4.139.684-7.478 4.023-8.163 8.163z"/><path d="m202.694 67.077c0 5.514 4.486 10 10 10s10-4.486 10-10-4.486-10-10-10c-5.515 0-10 4.486-10 10z"/><path d="m395.222 67.077c0-5.514-4.486-10-10-10s-10 4.486-10 10 4.486 10 10 10 10-4.486 10-10z"/><path d="m289.282 67.077c0 5.514 4.486 10 10 10s10-4.486 10-10-4.486-10-10-10-10 4.486-10 10z"/></g></svg>