<svg xmlns="http://www.w3.org/2000/svg" xmlns:xlink="http://www.w3.org/1999/xlink" width="6137.761" height="2007.732" viewBox="2.86 0.814 6137.761 2007.732"><path d="M6140.621 1737.202c0 149.832-121.453 271.344-271.261 271.344H274.18c-149.82.012-271.32-121.5-271.32-271.344V272.134C2.86 122.314 124.36.814 274.18.814h5595.168c149.808 0 271.261 121.5 271.261 271.32v1465.068h.012z"/><defs><path id="a" d="M1332.988 884.566l-276.756-159.78S552.041 433.654 522.4 416.542c-29.64-17.112-59.172-6.744-59.172 29.016v1255.813c0 26.808 21.107 38.364 46.859 23.508 25.74-14.88 546.145-315.348 546.145-315.348l276.744-159.769s234.816-135.563 266.027-153.576c31.213-18.036 28.213-42.756 1.873-56.939-26.328-14.197-267.888-154.681-267.888-154.681z"/></defs><clipPath id="b"><use xlink:href="#a" overflow="visible"/></clipPath><linearGradient id="c" gradientUnits="userSpaceOnUse" x1="1451.479" y1="2452.512" x2="1451.479" y2="2339.209" gradientTransform="matrix(12 0 0 -12 -16611.705 29817.492)"><stop offset="0" stop-color="#257cb0"/><stop offset=".286" stop-color="#4a93b5"/><stop offset=".767" stop-color="#78bcbb"/><stop offset="1" stop-color="#89cfbd"/></linearGradient><path clip-path="url(#b)" fill="url(#c)" d="M463.24 387.346v1359.636l685.608-679.812z"/><defs><path id="d" d="M1332.988 884.566l-276.756-159.78S552.041 433.654 522.4 416.542c-29.64-17.112-59.172-6.744-59.172 29.016v1255.813c0 26.808 21.107 38.364 46.859 23.508 25.74-14.88 546.145-315.348 546.145-315.348l276.744-159.769s234.816-135.563 266.027-153.576c31.213-18.036 28.213-42.756 1.873-56.939-26.328-14.197-267.888-154.681-267.888-154.681z"/></defs><clipPath id="e"><use xlink:href="#d" overflow="visible"/></clipPath><linearGradient id="f" gradientUnits="userSpaceOnUse" x1="1422.913" y1="2424.393" x2="1495.392" y2="2424.393" gradientTransform="matrix(12 0 0 -12 -16611.705 29817.492)"><stop offset="0" stop-color="#52c1ad"/><stop offset="1" stop-color="#dee89a"/></linearGradient><path clip-path="url(#e)" fill="url(#f)" d="M1332.988 884.566l-276.756-159.78L463.24 382.402v4.944l685.608 679.824z"/><defs><path id="g" d="M1332.988 884.566l-276.756-159.78S552.041 433.654 522.4 416.542c-29.64-17.112-59.172-6.744-59.172 29.016v1255.813c0 26.808 21.107 38.364 46.859 23.508 25.74-14.88 546.145-315.348 546.145-315.348l276.744-159.769s234.816-135.563 266.027-153.576c31.213-18.036 28.213-42.756 1.873-56.939-26.328-14.197-267.888-154.681-267.888-154.681z"/></defs><clipPath id="h"><use xlink:href="#g" overflow="visible"/></clipPath><linearGradient id="i" gradientUnits="userSpaceOnUse" x1="1459.151" y1="2395.86" x2="1459.151" y2="2338.797" gradientTransform="matrix(12 0 0 -12 -16611.705 29817.492)"><stop offset="0" stop-color="#ec413d"/><stop offset=".167" stop-color="#da4452"/><stop offset=".575" stop-color="#b0487a"/><stop offset=".862" stop-color="#954a92"/><stop offset="1" stop-color="#8a4a9d"/></linearGradient><path clip-path="url(#h)" fill="url(#i)" d="M463.24 1746.982v4.944l592.992-342.396 276.744-159.78-184.128-182.58z"/><defs><path id="j" d="M1332.988 884.566l-276.756-159.78S552.041 433.654 522.4 416.542c-29.64-17.112-59.172-6.744-59.172 29.016v1255.813c0 26.808 21.107 38.364 46.859 23.508 25.74-14.88 546.145-315.348 546.145-315.348l276.744-159.769s234.816-135.563 266.027-153.576c31.213-18.036 28.213-42.756 1.873-56.939-26.328-14.197-267.888-154.681-267.888-154.681z"/></defs><clipPath id="k"><use xlink:href="#j" overflow="visible"/></clipPath><linearGradient id="l" gradientUnits="userSpaceOnUse" x1="1500.897" y1="2411.077" x2="1500.897" y2="2380.646" gradientTransform="matrix(12 0 0 -12 -16611.705 29817.492)"><stop offset="0" stop-color="#f58879"/><stop offset=".119" stop-color="#f69079"/><stop offset=".713" stop-color="#fcb877"/><stop offset="1" stop-color="#fec874"/></linearGradient><path clip-path="url(#k)" fill="url(#l)" d="M1332.988 884.566l-184.14 182.604 184.128 182.58 316.283-182.592z"/><path d="M4779.556 1332.946c-25.752 0-49.248-4.752-70.524-14.244-21.276-9.504-39.155-24.12-53.592-43.824h-4.319c2.879 23.088 4.319 44.977 4.319 65.652v162.708h-59.856V930.322h48.696l8.28 54.12h2.88c15.407-21.66 33.336-37.272 53.771-46.896 20.437-9.624 43.896-14.436 70.332-14.436 52.44 0 92.916 17.928 121.404 53.76 28.5 35.832 42.756 86.112 42.756 150.792 0 64.944-14.496 115.38-43.452 151.368-28.979 35.951-69.203 53.916-120.695 53.916zm-8.664-358.968c-40.404 0-69.624 11.196-87.66 33.553-18.036 22.367-27.3 57.972-27.792 106.8v13.332c0 55.571 9.264 95.315 27.792 119.256s48.24 35.88 89.1 35.88c34.176 0 60.937-13.812 80.305-41.472 19.344-27.648 29.027-65.772 29.027-114.384 0-49.284-9.684-87.133-29.027-113.461-19.357-26.352-46.621-39.504-81.745-39.504zM5082.376 1325.722h-59.881v-561.36h59.881v561.36zM5426.692 1325.722l-11.916-56.279h-2.88c-19.729 24.791-39.385 41.579-58.992 50.327-19.596 8.796-44.076 13.177-73.404 13.177-39.203 0-69.924-10.104-92.184-30.301-22.26-20.195-33.372-48.924-33.372-86.22 0-79.836 63.864-121.692 191.567-125.556l67.129-2.172v-24.528c0-31.032-6.685-53.952-20.041-68.724-13.332-14.809-34.716-22.2-64.031-22.2-32.965 0-70.248 10.104-111.841 30.3l-18.407-45.816c19.5-10.584 40.824-18.875 64.056-24.888 23.208-6.012 46.464-9.023 69.804-9.023 47.137 0 82.068 10.452 104.809 31.38 22.716 20.928 34.08 54.479 34.08 100.668v269.844h-44.376v.011zm-135.288-42.192c37.26 0 66.54-10.225 87.84-30.66 21.265-20.437 31.933-49.068 31.933-85.884v-35.712l-59.916 2.508c-47.616 1.716-81.925 9.084-102.996 22.224-21.036 13.104-31.561 33.492-31.561 61.152 0 21.636 6.54 38.124 19.669 49.403 13.115 11.317 31.439 16.969 55.031 16.969zM5505.832 930.322h64.2l86.593 225.491c18.996 51.48 30.791 88.633 35.375 111.492h2.881c3.131-12.288 9.695-33.252 19.655-62.987 9.984-29.712 42.647-121.021 97.944-273.996h64.248l-169.944 450.252c-16.824 44.496-36.491 76.067-59.004 94.739-22.476 18.624-50.088 27.925-82.764 27.925-18.288 0-36.324-2.04-54.144-6.12v-47.977c13.223 2.88 28.031 4.332 44.388 4.332 41.136 0 70.452-23.088 88.032-69.275l21.996-56.269-159.456-397.607zM3670.167 967.066c19.009 15.731 58.705 48.779 58.705 111.672 0 61.164-34.74 90.168-69.48 117.42-10.752 10.739-23.16 22.355-23.16 40.571 0 18.156 12.396 28.093 21.528 35.545l29.784 23.111c36.384 30.612 69.432 58.752 69.432 115.836 0 77.736-75.264 156.276-217.488 156.276-119.939 0-177.803-57.048-177.803-118.284 0-29.76 14.819-71.916 63.684-100.896 51.24-31.428 120.756-35.52 157.955-38.063-11.615-14.868-24.815-30.588-24.815-56.184 0-14.04 4.152-22.32 8.269-32.292-9.133.84-18.217 1.668-26.496 1.668-87.637 0-137.256-65.34-137.256-129.816 0-38.052 17.388-80.256 52.908-110.82 47.159-38.867 103.391-45.504 148.092-45.504h170.328l-52.933 29.772h-51.253v-.012zm-58.74 367.224c-6.611-.864-10.764-.864-18.996-.864-7.439 0-52.163 1.692-86.855 13.296-18.191 6.564-71.137 26.412-71.137 85.164 0 58.692 57.097 100.933 145.597 100.933 79.344 0 121.571-38.124 121.571-89.353.001-42.264-27.299-64.5-90.18-109.176zm24-157.164c18.996-19.044 20.629-45.48 20.629-60.384 0-59.532-35.545-152.16-104.172-152.16-21.529 0-44.664 10.74-57.9 27.3-14.041 17.364-18.217 39.672-18.217 61.2 0 55.404 32.256 147.216 103.416 147.216 20.677 0 42.961-9.924 56.244-23.172zM3149.5 1321.054c-131.268 0-201.455-102.396-201.455-194.892 0-108.181 88.332-200.616 213.888-200.616 121.319 0 197.292 94.92 197.292 194.855.011 97.393-75.097 200.653-209.725 200.653zm103.201-66.876c19.848-26.448 24.803-59.46 24.803-91.691 0-72.685-34.68-211.38-137.076-211.38-27.239 0-54.479 10.752-74.291 28.128-32.209 28.859-38.016 65.208-38.016 100.752 0 81.684 40.463 216.239 140.399 216.239 32.196 0 65.231-15.66 84.181-42.048zM2701.96 1321.054c-131.293 0-201.492-102.396-201.492-194.892 0-108.181 88.367-200.616 213.888-200.616 121.356 0 197.315 94.92 197.315 194.855.013 97.393-75.107 200.653-209.711 200.653zm103.224-66.876c19.812-26.448 24.78-59.46 24.78-91.691 0-72.685-34.705-211.38-137.101-211.38-27.228 0-54.491 10.752-74.292 28.128-32.208 28.859-37.98 65.208-37.98 100.752 0 81.684 40.44 216.239 140.389 216.239 32.208 0 65.221-15.66 84.204-42.048zM2437.396 1308.106l-118.729 27.396c-48.168 7.488-91.319 14.076-136.955 14.076-229.152 0-316.284-168.528-316.284-300.528 0-161.027 123.672-310.416 335.388-310.416 44.844 0 87.973 6.624 126.984 17.424 62.256 17.437 91.309 39 109.584 51.469l-68.928 65.579-29.04 6.612 20.748-33.216c-28.212-27.372-79.728-78-177.648-78-131.172 0-229.979 99.66-229.979 244.92 0 156.024 112.92 302.964 293.855 302.964 53.184 0 80.521-10.775 105.444-20.76v-133.62l-125.328 6.636 66.384-35.735h176.004l-21.564 20.748c-5.855 5.004-6.659 6.684-8.315 13.26-.864 7.488-1.644 31.584-1.644 39.876v101.316h.023z" fill="#f9f9f9"/><path d="M3932.548 1284.202c-27.408-2.496-33.145-7.452-33.145-39.864V774.49c.168-1.788.276-3.624.443-5.353 3.349-29.04 11.641-34.02 37.404-48.983H3818.5l-62.279 29.892h63.468v.372l-.048-.3v512.508c0 16.572-3.276 19.092-22.393 43.968h146.953l30.719-18.216c-14.1-1.716-28.236-2.52-42.372-4.176zM4270.347 1291.834c-9.035 4.956-18.107 10.752-27.144 14.844-27.252 12.36-55.271 15.672-80.052 15.672-26.316 0-67.572-1.704-109.656-32.172-58.487-41.256-84.047-112.151-84.047-173.964 0-127.764 103.871-190.416 188.783-190.416 29.688 0 60.229 7.404 84.96 23.101 41.185 27.155 51.899 62.604 57.636 81.575l-193.691 78.349-63.492 4.943c20.58 104.7 91.477 165.66 169.824 165.66 42.036 0 72.552-14.808 100.572-28.8l-43.693 41.208zm-77.471-245.712c15.636-5.748 23.879-10.716 23.879-22.248 0-32.952-37.08-70.896-81.636-70.896-33.013 0-94.8 25.572-94.8 114.589 0 14.016 1.656 28.848 2.508 43.739l150.049-65.184zM4349.919 931.438v54.396h-6.611v-54.396h-18v-5.641h42.6v5.641h-17.989zM4424.08 985.834v-54.9h-.3l-16.752 54.9h-5.172l-16.896-54.9h-.217v54.9h-6v-60.036h10.284l15.288 48.528h.216l15.06-48.528h10.429v60.036h-5.94z" fill="#f9f9f9"/><path d="M2030.308 576.994h-41.256c0-5.676-3.912-21.744-11.736-48.216h-59.557c-8.075 26.04-12.119 42.107-12.119 48.216h-38.796c0-3.349 10.032-30.853 30.096-82.5 20.063-51.648 30.096-80.101 30.096-85.332h48.732c0 4.896 9.084 32.928 27.264 84.108 18.18 51.18 27.276 79.08 27.276 83.724zm-59.557-72.84c-14.699-44.341-22.043-68.316-22.043-71.929h-2.064c0 3.349-7.608 27.324-22.812 71.929h46.919zM2196.532 576.994h-31.836c0-3.528-11.819-22.128-35.448-55.812-24.744-35.496-38.844-59.76-42.275-72.827h-2.064c2.148 18.815 3.229 35.831 3.229 51.048 0 21.228.6 47.1 1.8 77.604h-31.716c1.283-26.64 1.932-55.896 1.932-87.78 0-31.367-.648-58.056-1.932-80.052h38.279c0 4.56 10.608 22.74 31.836 54.528 22.597 33.768 35.58 56.676 38.929 68.712h1.932c-2.063-19.164-3.096-36.349-3.096-51.564 0-23.279-.601-47.184-1.8-71.676h32.232c-1.213 21.312-1.801 48-1.801 80.052-.013 32.291.587 61.547 1.799 87.767zM2383.36 487.271c0 24.407-7.823 45.72-23.46 63.936-15.648 18.228-37.561 27.324-65.748 27.324-12.72 0-30.252-.517-52.596-1.549 1.115-25.955 1.68-55.224 1.68-87.779 0-31.272-.564-57.96-1.68-80.053h22.561c3.695 0 9.191-.132 16.5-.384 7.295-.252 12.071-.384 14.303-.384 31.021 0 53.509 7.74 67.488 23.208 13.968 15.468 20.952 34.02 20.952 55.681zm-35.185 5.542c0-16.5-4.812-30.396-14.436-41.712-9.624-11.292-24.324-16.943-44.088-16.943-3.695 0-8.76.384-15.216 1.164.852 17.195 1.284 35.147 1.284 53.88 0 20.544.432 40.908 1.283 61.104a85.294 85.294 0 0 0 16.752 1.68c18.48 0 32.16-5.747 41.053-17.22 8.893-11.472 13.368-25.453 13.368-41.953zM2555.644 576.994h-38.16c-9.972-30.42-17.615-49.2-22.943-56.328-5.328-7.14-13.92-10.704-25.776-10.704-4.992 0-9.757.048-14.304.132 0 22.093.383 44.388 1.164 66.9h-35.832c1.115-25.956 1.68-55.224 1.68-87.78 0-31.271-.564-57.96-1.68-80.052h22.295c2.58 0 7.969-.132 16.177-.384s15.792-.385 22.752-.385c39.444 0 59.172 13.488 59.172 40.477 0 21.396-11.256 36.3-33.768 44.736v1.932c8.676 2.4 16.284 9.18 22.812 20.292 6.515 11.124 15.323 31.512 26.411 61.164zm-48.336-118.597c0-17.1-11.004-25.655-33-25.655-8.076 0-15.217.6-21.396 1.8.948 13.32 1.416 30.684 1.416 52.08 4.729.18 8.725.252 11.988.252 27.324.012 40.992-9.48 40.992-28.477zM2740.419 489.981c0 26.377-8.076 48.252-24.239 65.616-16.164 17.353-36.144 26.04-59.94 26.04-22.691 0-41.688-7.968-56.976-23.916-15.3-15.936-22.944-36.203-22.944-60.768 0-26.376 8.076-48.252 24.24-65.616 16.152-17.352 36.132-26.04 59.939-26.04 22.692 0 41.677 7.944 56.977 23.844 15.3 15.901 22.943 36.169 22.943 60.84zm-35.567 3.733c0-17.964-4.597-32.532-13.788-43.704-9.204-11.172-20.544-16.752-34.032-16.752-12.552 0-23.208 5.628-31.968 16.884s-13.164 25.477-13.164 42.672c0 17.868 4.62 32.412 13.859 43.633 9.24 11.22 20.557 16.824 33.973 16.824 12.54 0 23.208-5.652 31.968-16.957 8.76-11.292 13.152-25.501 13.152-42.6zM2813.308 576.994h-36.48c1.116-26.64 1.68-55.896 1.68-87.78 0-31.368-.563-58.056-1.68-80.052h36.48c-1.116 21.66-1.68 48.336-1.68 80.052 0 32.388.564 61.656 1.68 87.78zM3000.148 487.271c0 24.407-7.824 45.72-23.46 63.936-15.647 18.228-37.56 27.324-65.748 27.324-12.72 0-30.252-.517-52.597-1.549 1.117-25.955 1.681-55.224 1.681-87.779 0-31.272-.563-57.96-1.681-80.053h22.561c3.696 0 9.192-.132 16.5-.384 7.297-.252 12.072-.384 14.305-.384 31.02 0 53.508 7.74 67.487 23.208 13.968 15.468 20.952 34.02 20.952 55.681zm-35.184 5.542c0-16.5-4.812-30.396-14.437-41.712-9.624-11.292-24.323-16.943-44.088-16.943-3.696 0-8.76.384-15.216 1.164.852 17.195 1.283 35.147 1.283 53.88 0 20.544.433 40.908 1.284 61.104a85.301 85.301 0 0 0 16.752 1.68c18.479 0 32.16-5.747 41.052-17.22 8.894-11.472 13.37-25.453 13.37-41.953zM3248.02 576.994h-41.256c0-5.676-3.912-21.744-11.748-48.216h-59.556c-8.076 26.04-12.121 42.107-12.121 48.216h-38.783c0-3.349 10.031-30.853 30.096-82.5 20.064-51.648 30.096-80.101 30.096-85.332h48.732c0 4.896 9.096 32.928 27.264 84.108 18.168 51.18 27.276 79.08 27.276 83.724zm-59.556-72.84c-14.7-44.341-22.057-68.316-22.057-71.929h-2.064c0 3.349-7.596 27.324-22.799 71.929h46.92zM3398.38 453.106c0 20.544-7.633 35.712-22.885 45.504s-33.96 14.699-56.137 14.699c-4.043 0-6.911-.084-8.639-.252 0 16.164.467 37.465 1.416 63.937h-36.229c1.115-24.828 1.68-54.097 1.68-87.78 0-30.936-.563-57.624-1.68-80.052h22.428c3.18 0 9.275-.132 18.3-.384s16.837-.385 23.46-.385c16.32 0 30.12 3.696 41.376 11.088 11.257 7.393 16.91 18.589 16.91 33.625zm-33.252 7.092c0-18.385-12.205-27.588-36.612-27.588-6.108 0-12.552.647-19.332 1.932.948 16.248 1.416 34.632 1.416 55.176 2.147.18 4.644.252 7.476.252 31.368.011 47.052-9.912 47.052-29.772zM3552.988 453.106c0 20.544-7.632 35.712-22.872 45.504-15.252 9.792-33.972 14.699-56.147 14.699-4.045 0-6.912-.084-8.641-.252 0 16.164.469 37.465 1.416 63.937h-36.228c1.116-24.828 1.681-54.097 1.681-87.78 0-30.936-.564-57.624-1.681-80.052h22.428c3.181 0 9.276-.132 18.3-.384s16.836-.385 23.46-.385c16.319 0 30.12 3.696 41.376 11.088 11.255 7.393 16.908 18.589 16.908 33.625zm-33.252 7.092c0-18.385-12.204-27.588-36.611-27.588-6.108 0-12.553.647-19.332 1.932.947 16.248 1.416 34.632 1.416 55.176 2.147.18 4.644.252 7.476.252 31.367.011 47.051-9.912 47.051-29.772zM3805.768 489.981c0 26.377-8.076 48.252-24.24 65.616-16.163 17.364-36.144 26.04-59.94 26.04-22.691 0-41.688-7.968-56.975-23.916-15.289-15.936-22.944-36.203-22.944-60.768 0-26.376 8.076-48.252 24.239-65.616 16.164-17.364 36.145-26.04 59.94-26.04 22.692 0 41.688 7.944 56.976 23.844 15.288 15.901 22.944 36.169 22.944 60.84zm-35.58 3.733c0-17.964-4.597-32.532-13.788-43.704s-20.544-16.752-34.031-16.752c-12.553 0-23.209 5.628-31.969 16.884s-13.152 25.477-13.152 42.672c0 17.868 4.621 32.412 13.86 43.633 9.239 11.22 20.556 16.824 33.96 16.824 12.552 0 23.208-5.652 31.968-16.956 8.772-11.293 13.152-25.502 13.152-42.601zM3980.488 576.994h-31.836c0-3.528-11.809-22.128-35.448-55.812-24.744-35.496-38.845-59.76-42.276-72.827h-2.064c2.148 18.815 3.229 35.831 3.229 51.048 0 21.228.6 47.1 1.801 77.604h-31.717c1.284-26.64 1.932-55.896 1.932-87.78 0-31.367-.646-58.056-1.932-80.052h38.28c0 4.56 10.62 22.74 31.836 54.528 22.608 33.768 35.58 56.676 38.929 68.712h1.932c-2.064-19.164-3.096-36.349-3.096-51.564 0-23.279-.6-47.184-1.801-71.676h32.232c-1.212 21.312-1.8 48-1.8 80.052-.001 32.291.599 61.547 1.799 87.767z" fill="#f9f9fa"/></svg>