<svg width="19" height="15" viewBox="0 0 19 15" fill="none" xmlns="http://www.w3.org/2000/svg">
<g clip-path="url(#clip0)">
<path d="M18.625 7.70508C18.625 7.59766 18.5859 7.50977 18.5078 7.43164L11.9062 0.791016C11.7598 0.625 11.6523 0.585938 11.5449 0.585938C11.3301 0.585938 11.1641 0.751953 11.1641 0.957031C11.1641 1.06445 11.1934 1.16211 11.2715 1.23047L15.168 5.13672L17.502 7.39258L15.3633 7.33398H0.861328C0.65625 7.33398 0.490234 7.49023 0.490234 7.70508C0.490234 7.91992 0.65625 8.07617 0.861328 8.07617H15.3633L17.502 8.02734L15.168 10.2734L11.2715 14.1797C11.2031 14.248 11.1641 14.3555 11.1641 14.4629C11.1641 14.6582 11.3301 14.8242 11.5449 14.8242C11.6523 14.8242 11.7402 14.7852 11.8184 14.707L18.5078 7.97852C18.5859 7.90039 18.625 7.8125 18.625 7.70508Z" fill="white"/>
</g>
<defs>
<clipPath id="clip0">
<rect width="19" height="15" fill="white"/>
</clipPath>
</defs>
</svg>
