<svg width="330" height="330" fill="none" xmlns="http://www.w3.org/2000/svg"><g clip-path="url(#clip0)"><path d="M165 330c91.127 0 165-73.644 165-164.489C330 74.667 256.127 1.023 165 1.023S0 74.667 0 165.511C0 256.356 73.873 330 165 330z" fill="#E6F0FF"/><path d="M237.348 33.677H92.651v95.085h144.697V33.677zm14.731 95.081h73.796a164.535 164.535 0 00-62.189-95.081h-11.607v95.081z" fill="#E6F0FF"/><path d="M284.86 167.475l11.921-39.451-23.883.536a33.662 33.662 0 01-24.911-10.218l-15.263-14.235s-4.269-1.399-5.115 1.741c-4.092 15.221-10.288 59.87 57.235 61.627" fill="#00A150"/><path d="M4.125 128.758h73.796V33.677H66.313a164.534 164.534 0 00-62.188 95.081z" fill="#E6F0FF"/><path d="M165 118.586c21.244 0 38.465-17.169 38.465-38.346 0-21.178-17.221-38.346-38.465-38.346-21.244 0-38.466 17.168-38.466 38.346 0 21.177 17.222 38.346 38.466 38.346z" fill="#2C83FC"/><path d="M140.431 80.24a9.227 9.227 0 019.216-9.187h12.284v-6.121h-12.284a15.305 15.305 0 00-14.37 9.39 15.31 15.31 0 003.383 16.828 15.31 15.31 0 0010.987 4.393h12.284v-6.121h-12.284a9.226 9.226 0 01-9.216-9.182zm39.922-15.308h-12.284v6.121h12.284a9.184 9.184 0 018.663 12.745 9.184 9.184 0 01-8.663 5.624h-12.284v6.121h12.284a15.308 15.308 0 100-30.611z" fill="#fff"/><path d="M177.284 77.174h-24.568v6.122h24.568v-6.122zm86.584 117.835H66.132v8.502h197.736v-8.502zm-44.756 11.558h-5.668l26.932 105.303a167.37 167.37 0 004.983-2.664l-26.247-102.639zm-40.586 106.619l27.262-106.619h-5.663l-27.267 106.619h5.668zm-27.052 0l-27.262-106.619h5.664l27.266 106.619h-5.668zm-66.834-3.98a180.77 180.77 0 004.984 2.664l26.932-105.303h-5.668L84.641 309.206z" fill="#fff"/><path d="M244.365 190.827h-41.976l-8.972-39.415-4.253.895 9.488 41.7a1.29 1.29 0 001.258 1.002h44.455v-4.182z" fill="#C2DAFF"/><path d="M204.105 193.594a.69.69 0 01-.647-.845.694.694 0 011.369.152.716.716 0 01-.217.497.714.714 0 01-.505.196zm2.273 0a.69.69 0 01-.647-.845.694.694 0 011.369.152.716.716 0 01-.217.497.714.714 0 01-.505.196z" fill="#9AC2FF"/><path d="M85.635 190.827h41.976l8.972-39.415 4.253.895-9.488 41.7a1.286 1.286 0 01-1.258 1.002H85.635v-4.182z" fill="#C2DAFF"/><path d="M125.173 192.901a.723.723 0 011.427-.181.713.713 0 01-.036.421.714.714 0 01-.669.453.704.704 0 01-.722-.693zm-2.273 0a.723.723 0 011.428-.181.722.722 0 01-.706.874.716.716 0 01-.504-.197.714.714 0 01-.218-.496z" fill="#9AC2FF"/><path d="M297.705 95.213c-5.053 0-9.153 3.952-9.153 8.828v12.729a2.543 2.543 0 002.586 2.475h2.657l.111 7.145h13.485l-2.801-25.225a6.837 6.837 0 00-6.885-5.968v.016z" fill="#936D61"/><path d="M305.761 103.871l-4.9-6.773a3.468 3.468 0 01-.079-3.967c.262-.391.6-.726.994-.983a3.783 3.783 0 015.144.883l4.897 6.773a3.483 3.483 0 01.604 2.672 3.484 3.484 0 01-1.52 2.278 3.779 3.779 0 01-5.14-.883z" fill="#52332D"/><path d="M293.77 119.262h2.987l-2.958 1.799-.029-1.799z" fill="#734A3F"/><path d="M289.163 110.517h-.619a.798.798 0 01-.757-.473.793.793 0 01-.068-.307.784.784 0 01.598-.754l.784-.207.062 1.741z" fill="#936D61"/><path d="M300.197 94.978c-.014.56.11 1.115.359 1.617a7.396 7.396 0 012.714 2.578l2.714 4.979a3.709 3.709 0 002.211 1.196l-3.712-6.802a8.666 8.666 0 00-4.286-3.568z" fill="#422622"/><path d="M314.614 118.548l-10.725-19.684s-2.063-3.651-6.188-3.651a9.271 9.271 0 00-6.963 3.102c.52 7.487 4.286 18.505 15.737 20.749l.635 4.904h4.125c2.88 0 4.74-2.961 3.379-5.42z" fill="#52332D"/><path d="M306.487 119.064l.636 4.905h4.125a3.775 3.775 0 003.836-3.659c-1.37-.165-6.435-.805-8.597-1.246zm7.916-.908l-.454-.825c-10.258-.082-15.382-7.994-17.89-14.767a28.618 28.618 0 002.62 4.17c3.617 4.74 8.163 7.219 13.53 7.425l-.462-.845c-10.725-.689-15.564-11.068-17.532-17.412-.268.107-.528.227-.783.355.594 3.003 2.062 8.629 5.263 13.377 3.836 5.672 9.013 8.543 15.395 8.543l.313-.021z" fill="#422622"/><path d="M288.552 114.262a1.57 1.57 0 001.617-1.171h-1.617v1.031" fill="#734A3F"/><path d="M289.686 107.699a.474.474 0 00.483-.466.475.475 0 00-.483-.466.475.475 0 00-.482.466c0 .258.216.466.482.466z" fill="#422622"/><path d="M60.497 292.805a166.214 166.214 0 0012.156 9.038l5.478-13.807H61.12c-.223 1.642-.43 3.231-.623 4.769zM33.965 96.27c5.045-.36 9.43 3.3 9.801 8.15l.669 8.799.296 3.894a2.525 2.525 0 01-1.43 2.428c-.3.144-.625.227-.958.245l-2.652.19.412 7.132-13.447.961.895-25.356a6.801 6.801 0 016.414-6.44v-.004zm59.998 90.11l8.514-5.087 8.704 2.121c1.361.33 2.664.869 3.861 1.596l2.731 1.65a2.931 2.931 0 011.332 3.189l-.231.973h-17.189a9.818 9.818 0 01-6.187-2.128c-.817-.664-1.448-1.419-1.535-2.314z" fill="#FFCAB9"/><path d="M90.77 214.987L2.62 194.844a162.808 162.808 0 0012.498 39.538c.194.025.383.058.577.079l57.23 5.775c-6.05 13.233-9.706 32.546-11.805 47.817l19.866.185 19.313-55.687c2.57-7.4-1.757-15.378-9.529-17.564z" fill="#C2DAFF"/><path d="M24.75 105.266c-.669-4.17 2.301-8.077 6.628-8.72l4.497-.673c4.327-.647 8.807 2.15 9.487 6.32l-20.612 3.073z" fill="#FF6530"/><path d="M27.477 104.858l-.334 9.693 7.23-3.823.24-6.935-7.136 1.065z" fill="#FF835A"/><path d="M76.762 232.613a.412.412 0 00-.561.157l-4.175 7.359.895.09 3.998-7.045a.412.412 0 00-.157-.561z" fill="#9AC2FF"/><path d="M39.69 119.976l-2.978.21 3.09 1.58-.111-1.79z" fill="#FFA78B"/><path d="M86.031 283.379h-27.95v.825h27.95v-.825z" fill="#E6F0FF"/><path d="M23.966 101.421l-.73-.387c3.346-6.332 9.488-4.596 9.566-4.575l-.214.792c-.244-.07-5.598-1.55-8.622 4.17z" fill="#FF6530"/><path d="M44.014 111.519l.614-.074a.793.793 0 00.706-.875.799.799 0 00-.69-.676l-.824-.107.194 1.732z" fill="#FFCAB9"/><path d="M42.615 108.442a.475.475 0 00.478-.471.475.475 0 00-.487-.462.475.475 0 00-.478.471c.003.258.22.464.487.462z" fill="#422622"/><path d="M44.038 113.495c.112.553 0 1.003-.276 1.007-.276.004-.573-.446-.689-.999-.02-.1-.032-.202-.037-.305h.916c.038.096.067.196.087.297z" fill="#FFA78B"/><path d="M41.737 111.412c-1.333 0-2.389-1.448-2.41-3.3a4.126 4.126 0 01.632-2.306 2.131 2.131 0 011.728-1.056c1.333 0 2.389 1.452 2.405 3.3 0 1.869-1.015 3.346-2.36 3.358l.005.004zm-.03-5.849a1.33 1.33 0 00-1.051.689 3.336 3.336 0 00-.503 1.823c0 1.357.738 2.475 1.584 2.475.85 0 1.559-1.163 1.542-2.524-.016-1.362-.726-2.463-1.571-2.463z" fill="#fff"/><path d="M28.94 112.922a.41.41 0 01-.412-.412v-.945a1.806 1.806 0 011.448-1.77l9.772-1.951a.423.423 0 01.493.332.422.422 0 01-.332.493l-9.772 1.951a.984.984 0 00-.784.961v.945a.411.411 0 01-.412.396z" fill="#fff"/><path d="M33.512 114.257c1.182-.095 2.014-1.756 1.858-3.711-.157-1.954-1.242-3.462-2.424-3.368-1.183.095-2.014 1.756-1.858 3.711.156 1.955 1.242 3.462 2.424 3.368z" fill="#FFCAB9"/><path d="M92.248 313.187a165.825 165.825 0 00145.505 0H92.248zm147.254-98.201c-7.772 2.187-12.099 10.164-9.533 17.565l23.925 71.56a165.729 165.729 0 0019.301-14.409c-3.387-15.856-10.725-38.251-15.853-49.5l57.235-5.775.288-.041a163 163 0 0012.507-39.509l-87.87 20.109z" fill="#C2DAFF"/><path d="M317.65 144.321c-3.812-.895-7.776-3.518-11.298-6.521" stroke="#FEA400" stroke-width="3.12" stroke-miterlimit="10"/><path d="M325.681 167.999l-9.946-31.96-28.903 2.833-1.465 5.8a80.588 80.588 0 00.437 41.106l15.585 50.007 13.703-1.864a163.09 163.09 0 0014.417-55.614 101.802 101.802 0 01-3.828-10.308zm-18.533-44.03H293.82c-.816 0-1.477.661-1.477 1.476v2.884c0 .815.661 1.477 1.477 1.477h13.328c.815 0 1.477-.662 1.477-1.477v-2.884c0-.815-.662-1.476-1.477-1.476z" fill="#00A150"/><path d="M273.191 289.687a86.834 86.834 0 00-.26-1.188c-13.737-9.95-24.4-31.61-24.515-31.854a.417.417 0 00-.237-.209.41.41 0 00-.506.572c.12.248 11.241 22.84 25.518 32.679z" fill="#9AC2FF"/><path d="M317.65 165.709s-6.877 24.491-26.425 37.46l-2.062-6.671 28.487-30.789z" fill="#00833B"/><path d="M301.389 235.785l-15.184-31.47 5.02-1.147 10.164 32.617z" fill="#9AC2FF"/><path d="M314.605 201.052c-.086 0-8.839-.985-23.397 2.063l.244.788c14.367-2.995 22.972-2.042 23.059-2.034a.416.416 0 00.46-.365.417.417 0 00-.366-.46v.008z" fill="#00833B"/><path d="M271.478 241.036l.384 3.176a2.2 2.2 0 002.434 1.927l36.803-4.125a164.704 164.704 0 003.993-8.11l-41.662 4.657a2.21 2.21 0 00-1.952 2.475zm-212.961 0l-.384 3.176a2.207 2.207 0 01-2.446 1.927l-36.795-4.125a170.848 170.848 0 01-4-8.11l41.662 4.657a2.211 2.211 0 011.963 2.475z" fill="#9AC2FF"/><path d="M70.71 173.308a20.788 20.788 0 01-13.319-10.457l-14.953-28.339a14.912 14.912 0 00-2.29-3.337l2.29.639-.478-4.702-15.148-2.95a.795.795 0 00-.861.418.796.796 0 00-.087.329l-.062 1.481a14.646 14.646 0 00-11.27 9.648l-.057.182c-.025.078-.05.152-.07.231L.68 180.555a164.9 164.9 0 001.938 14.289l37.026 8.461 4.823-17.527c.467-1.708.88-3.424 1.237-5.148l4.785 3.807a23.149 23.149 0 0014.648 4.995h30.756l6.6-8.142-31.783-7.982z" fill="#FFC000"/><path d="M100.44 181.665v-.871l-.5-.127v.998h-6.925v-2.739l-.5-.124v2.863H85.59v-4.604l-.5-.128v4.732h-6.925v-6.468l-.5-.128v6.6H70.74v-6.926h5.622l-1.997-.503H70.74v-.912l-.079-.02c-.144-.033-.28-.079-.412-.116v1.048h-6.934v-4.426a11.13 11.13 0 01-.5-.38v4.806H55.89v-6.922h4.628c-.153-.165-.297-.334-.446-.503H55.89v-6.716l-.5-.953v.244h-6.925v-6.922h3.399l-.264-.503h-3.135v-5.94l-.504-.953v6.889H41.04v-6.918h6.905l-.264-.503H41.04v-6.922h2.986l-.264-.503H41.04v-4.777a11.99 11.99 0 00-.504-.643v5.42h-6.921v-6.926h6.921v1.11l.504.144v-1.238h1.184l-.054-.499h-1.13v-2.743l-.504-.099v2.842h-6.921v-4.207l-.504-.099v4.29H26.19v-5.412a.79.79 0 00-.367.631l-.062 1.481h-.075v3.3h-6.88c-.19.161-.371.33-.553.499v6.926h-4.125l-.157.503h4.29v6.922H11.84l-.153.503h6.575v6.922H11.34v-5.816l-.504 1.612v4.204H9.53l-.157.503h1.464v6.922H7.22l-.157.503h3.774v6.922H4.91l-.157.503h6.084v6.922H3.915v-4.228l-.504 1.613v2.615h-.825l-.156.503h.981v6.922H.747l.05.503H3.41v6.922H1.65c0 .169.045.334.07.503h1.691v5.445l.504.116v-5.561h6.921v6.922h-.96l2.198.503h6.187v1.415l.504.111v-1.526h6.921v3.11l.504.116v-3.226h6.921v4.806l.504.115v-4.921h6.921v2.859l.504-1.824v-1.035h.284l.14-.503h-.412v-6.922h2.327l.14-.503h-2.475v-6.922h4.27l.11-.503H41.04v-6.922h6.921v6.922h-1.006l.627.503h.38v.301l.503.413v-.702h6.925v5.264c.165.074.335.144.5.21v-5.486h6.925v6.922h-1.938c1.39.242 2.8.357 4.211.342H95.84l.28-.346h-3.105v-6.918h6.925v2.219l.5-.623v-1.579h1.282l.413-.504-1.695-.016zm-89.604 3.547v3.874H3.915v-6.918h6.921v3.044zm0-7.425v3.874H3.915v-6.918h6.921v3.044zm7.425 14.85v3.874H11.34v-6.918h6.921v3.044zm0-7.425v3.874H11.34v-6.918h6.921v3.044zm0-7.425v3.874H11.34v-6.918h6.921v3.044zm0-7.425v3.874H11.34v-6.918h6.921v3.044zm0-7.425v3.874H11.34v-6.918h6.921v3.044zm0-7.425v3.874H11.34v-6.918h6.921v3.044zm7.425 37.125v3.874h-6.921v-6.918h6.921v3.044zm0-7.425v3.874h-6.921v-6.918h6.921v3.044zm0-7.425v3.874h-6.921v-6.918h6.921v3.044zm0-7.425v3.874h-6.921v-6.918h6.921v3.044zm0-7.425v3.874h-6.921v-6.918h6.921v3.044zm0-7.425v3.874h-6.921v-6.918h6.921v3.044zm0-7.425v3.874h-6.921v-6.918h6.921v3.044zm0-7.425v3.874h-6.921v-6.918h6.921v3.044zm0-7.425v3.874h-6.921v-6.922h6.921v3.048zm7.425 59.4v3.874H26.19v-6.918h6.921v3.044zm0-7.425v3.874H26.19v-6.918h6.921v3.044zm0-7.425v3.874H26.19v-6.918h6.921v3.044zm0-7.425v3.874H26.19v-6.918h6.921v3.044zm0-7.425v3.874H26.19v-6.918h6.921v3.044zm0-7.425v3.874H26.19v-6.918h6.921v3.044zm0-7.425v3.874H26.19v-6.918h6.921v3.044zm0-7.425v3.874H26.19v-6.918h6.921v3.044zm0-7.425v3.874H26.19v-6.922h6.921v3.048zm7.425 59.4v3.874h-6.921v-6.918h6.921v3.044zm0-7.425v3.874h-6.921v-6.918h6.921v3.044zm0-7.425v3.874h-6.921v-6.918h6.921v3.044zm0-7.425v3.874h-6.921v-6.918h6.921v3.044zm0-7.425v3.874h-6.921v-6.918h6.921v3.044zm0-7.425v3.874h-6.921v-6.918h6.921v3.044zm0-7.425v3.874h-6.921v-6.918h6.921v3.044zm0-7.425v3.874h-6.921v-6.918h6.921v3.044zm7.425 29.7v3.874H41.04v-6.918h6.921v3.044zm0-7.425v3.874H41.04v-6.918h6.921v3.044zm0-7.425v3.874H41.04v-6.918h6.921v3.044zm7.425 22.275v3.874h-6.921v-6.918h6.925l-.004 3.044zm0-7.425v3.874h-6.921v-6.918h6.925l-.004 3.044zm0-7.425v3.874h-6.921v-6.918h6.925l-.004 3.044zm7.425 14.85v3.874H55.89v-6.918h6.925l-.004 3.044zm7.425 7.425v3.874h-6.921v-6.918h6.925l-.004 3.044zm0-7.425v3.874h-6.921v-6.918h6.925l-.004 3.044zm7.425 7.425v3.874H70.74v-6.918h6.925l-.004 3.044zm7.425 0v3.874h-6.921v-6.918h6.925l-.004 3.044zm7.425 0v3.874H85.59v-6.918h6.925l-.004 3.044z" fill="#FEA400"/><path d="M85.994 189.432h.949l6.022-10.535-.829-.206-6.142 10.741z" fill="#FEA400"/><path d="M90.73 188.373a.833.833 0 10-.001-1.667.833.833 0 000 1.667z" fill="#fff"/><path d="M32.282 96.97l-.639-.523c.103-.128 2.628-3.131 8.184-3.131v.825c-5.177 0-7.524 2.797-7.545 2.83z" fill="#FF6530"/><path d="M293.242 269.02l3.172-26.738-4.026-.025-3.832 32.274a143.642 143.642 0 004.686-5.511zm-256.463 0l-3.177-26.738 4.027-.025 3.832 32.274a151.325 151.325 0 01-4.682-5.511zm220.563-28.796l-3.601.363a.41.41 0 00-.371.449.415.415 0 00.412.372h.041l3.878-.413c-.12-.247-.239-.507-.359-.771zm-6.472-7.121a.413.413 0 000 .582l6.472 6.534 1.056-.103-6.942-7.013a.426.426 0 00-.293-.122.41.41 0 00-.293.122z" fill="#9AC2FF"/><path d="M292.165 244.142l-.152 1.279 4.083-.458.153-1.275-4.084.454zm-254.289 0l.152 1.279-4.084-.458-.148-1.275 4.08.454z" fill="#7BAAF7"/><path d="M304.18 154.989c8.178-1.601 13.556-9.29 12.012-17.173-1.543-7.883-9.425-12.976-17.603-11.374-8.178 1.601-13.556 9.29-12.013 17.173 1.544 7.884 9.425 12.976 17.604 11.374z" fill="#00A150"/><path d="M40.223 131.2l1.398.391a13.524 13.524 0 00-24.114 6.25.413.413 0 00.078.309.415.415 0 00.584.085.42.42 0 00.163-.275 12.706 12.706 0 0121.9-6.76h-.009z" fill="#FEA400"/><path d="M73.743 283.891l-.8-.194 12.622-52.235a1.882 1.882 0 00-.272-1.501 2.07 2.07 0 00-1.395-.887l-62.897-10.49a7.268 7.268 0 01-4.895-3.208 7.26 7.26 0 01-.938-5.776l2.912-11.233.8.206-2.912 11.237a6.431 6.431 0 005.169 7.961l62.894 10.49a2.906 2.906 0 011.95 1.238 2.701 2.701 0 01.384 2.153l-12.622 52.239z" fill="#E6F0FF"/><path d="M33.227 204.468l-30.026-6.579c.058.297.12.59.182.887l27.715 6.072-11.488 2.041a.421.421 0 00-.28.147.417.417 0 00.052.584c.084.07.193.104.303.094h.07l11.034-1.963-5.024 2.731a.418.418 0 00-.2.246.413.413 0 00.596.48l7.194-3.915 8.403-1.518-2.063-.47-6.468 1.163zm64.581 35.264l-19.676 48.304 2.854.186 16.822-48.49z" fill="#9AC2FF"/><path d="M82.38 284.204l.29-.825h-2.645l-.334.825h2.69z" fill="#C2DAFF"/><path d="M114.898 189.209a1.55 1.55 0 00-1.085-1.027l-6.142-1.65a.414.414 0 00-.492.295.411.411 0 00.277.501l6.146 1.65a.735.735 0 01.512.487l.445 1.365h.867l-.528-1.621zm1.703-.135l.586 1.757h.866l-.672-2.021a.414.414 0 00-.516-.26.4.4 0 00-.241.207.42.42 0 00-.023.317z" fill="#FFA78B"/><path d="M236.363 186.38l-8.506-5.087-8.704 2.121c-1.361.331-2.663.87-3.861 1.596l-2.731 1.65a2.931 2.931 0 00-1.332 3.189l.235.973h17.189a9.82 9.82 0 006.188-2.128c.812-.664 1.468-1.419 1.522-2.314z" fill="#936D61"/><path d="M215.436 189.209a1.55 1.55 0 011.085-1.027l6.143-1.65a.413.413 0 11.214.796l-6.142 1.65a.744.744 0 00-.516.487l-.441 1.366h-.866l.523-1.622zm-1.704-.135l-.585 1.757h-.867l.673-2.021a.412.412 0 11.779.264z" fill="#734A3F"/><path d="M317.65 165.709l-29.622-31.572-12.065 22.007a35.33 35.33 0 01-22.378 17.287l-25.794 7.863s45.14 57.383 89.859-15.585" fill="#00A150"/><path d="M235.125 106.206l-2.887-2.788a8.11 8.11 0 00-6.518-2.215l-12.334 1.378a2.935 2.935 0 00-2.017 2.809v1.002l16.744 3.861a9.793 9.793 0 006.492-.685h.029a2.068 2.068 0 001.129-1.552 2.063 2.063 0 00-.638-1.81z" fill="#936D61"/><path d="M21.966 161.741c5.44 11.162 16.867 20.666 22.143 25.332l.359-1.295a80.599 80.599 0 001.46-6.345l-23.962-17.692z" fill="#FEA400"/><path d="M227.217 102.622l-6.27-.887-3.3.367 9.447 1.341h.057a.418.418 0 00.301-.101.418.418 0 00.141-.283.417.417 0 00-.384-.441l.008.004z" fill="#734A3F"/><path d="M298.18 125.499a15.947 15.947 0 00-10.766 7.578L274.849 156a35.461 35.461 0 01-7.636 9.557l-.268.198 1.073.182a36.271 36.271 0 007.532-9.55l12.033-21.912.272-.507a15.112 15.112 0 0110.477-7.656 15.671 15.671 0 0110.28 1.51v-.875a16.18 16.18 0 00-10.432-1.448z" fill="#00833B"/></g><defs><clipPath id="clip0"><path fill="#fff" d="M0 0h330v330H0z"/></clipPath></defs></svg>