<?xml version="1.0"?>
<svg xmlns="http://www.w3.org/2000/svg" height="512" viewBox="0 -84 464 464" width="512" class=""><g><path d="m352 75.503906v-35.503906c0-17.671875-14.328125-32-32-32h-288c-17.671875 0-32 14.328125-32 32v224c0 17.671875 14.328125 32 32 32h62.664062c43.367188-15.261719 84.25-36.828125 121.335938-64 56.355469-41.460938 102.804688-94.910156 136-156.496094zm0 0" fill="#bdfdff" data-original="#BDFDFF" class="" style="fill:#F23E5C" data-old_color="#bdfdff"/><path d="m216 232c-37.085938 27.171875-77.96875 48.738281-121.335938 64h225.335938c17.671875 0 32-14.328125 32-32v-188.496094c-33.195312 61.585938-79.644531 115.035156-136 156.496094zm0 0" fill="#9bfbff" data-original="#9BFBFF" class="" style="fill:#F23E5C" data-old_color="#9bfbff"/><path d="m352 96.71875v107.679688l24 19.632812v-148.039062zm0 0" fill="#2c9b9f" data-original="#2C9B9F" class="" style="fill:#F23E5C" data-old_color="#2c9b9f"/><path d="m464 0-88 75.992188v148.039062l88 71.96875zm0 0" fill="#46f8ff" data-original="#46F8FF" class="" style="fill:#F23E5C" data-old_color="#46f8ff"/><path d="m296 152s-71.359375 56-120 56-120-56-120-56 71.359375-56 120-56 120 56 120 56zm0 0" fill="#ff3051" data-original="#FF3051" class="active-path" style="fill:#242526" data-old_color="#ff3051"/><path d="m208 152c0 17.671875-14.328125 32-32 32s-32-14.328125-32-32 14.328125-32 32-32 32 14.328125 32 32zm0 0" fill="#f1f2f2" data-original="#F1F2F2" class="" style="fill:#F23E5C" data-old_color="#f1f2f2"/></g> </svg>
