<svg id="Capa_1" enable-background="new 0 0 511.996 511.996" height="512" viewBox="0 0 511.996 511.996" width="512" xmlns="http://www.w3.org/2000/svg"><g><path style="fill:#65676b" d="m451.996 165.998v-135c0-8.284-6.716-15-15-15s-15 6.716-15 15v23.675c-54.063 51.751-128.146 81.325-204.278 81.325h-123.444c-49.488 0-94.869 38.039-94.268 91 .553 48.741 40.123 89 89.991 89v165c0 8.284 6.716 15 15 15h60c8.284 0 15-6.716 15-15v-165h37.722c76.129 0 150.213 29.574 204.278 81.324v23.676c0 8.284 6.716 15 15 15s15-6.716 15-15v-135c33.084 0 60-26.916 60-60s-26.917-60-60.001-60zm-301.999 300h-30v-150h30zm30-180h-90c-32.321 0-59.473-25.863-59.992-59-.555-35.351 30.274-61 64.27-61h85.723v120zm241.999 71.497c-57.103-45.751-129.818-71.497-204.278-71.497h-7.722v-120h7.722c74.463 0 147.177-25.745 204.278-71.496zm30-101.497v-60c16.542 0 30 13.458 30 30s-13.458 30-30 30z"/></g></svg>