<?xml version="1.0"?>
<svg xmlns="http://www.w3.org/2000/svg" xmlns:xlink="http://www.w3.org/1999/xlink" version="1.1" id="Capa_1" x="0px" y="0px" viewBox="0 0 512 512" style="enable-background:new 0 0 512 512;" xml:space="preserve" width="512" height="512" class=""><g><path style="fill:#58C472" d="M108.302,486.763c-20.664-0.02-38.584-14.299-43.222-34.439L1.135,174.638  c-5.477-23.89,9.384-47.712,33.255-53.287l125.915-29.012c13.164-3.503,26.683,4.332,30.186,17.496s-4.332,26.683-17.496,30.186  c-0.543,0.148-1.085,0.266-1.628,0.375L50.387,168.422l61.774,268.014l194.202-44.801c13.223-3.286,26.604,4.766,29.89,17.989  c3.286,13.223-4.766,26.604-17.989,29.89c-0.247,0.059-0.503,0.118-0.76,0.178L118.17,485.578  C114.933,486.338,111.627,486.743,108.302,486.763z" data-original="#FFBBC0" class="active-path" data-old_color="#FFBBC0"/><path style="fill:#58C472" d="M438.089,451.83h-4.243l0,0l-271.863-25.953c-24.413-2.289-42.353-23.94-40.064-48.353  l29.604-312.025c2.289-24.413,23.94-42.353,48.353-40.064l271.863,25.459c24.413,2.289,42.353,23.94,40.064,48.353l-29.604,312.025  c-2.131,22.775-21.226,40.212-44.11,40.261V451.83z M171.654,377.228l262.291,24.867l28.222-301.861L200.074,75.071L171.654,377.228  z" data-original="#FF485A" class="" data-old_color="#FF485A"/><g>
	<polygon style="fill:#58C472" points="410.36,373.972 410.36,373.972 363.389,227.728 306.549,294.238 269.248,259.404    199.58,354.038  " data-original="#FFBBC0" class="active-path" data-old_color="#FFBBC0"/>
	<ellipse style="fill:#58C472" cx="273.22" cy="163.487" rx="25.164" ry="25.164" data-original="#FFBBC0" class="active-path" data-old_color="#FFBBC0"/>
</g></g> </svg>
