<svg width="72" height="72" fill="none" xmlns="http://www.w3.org/2000/svg"><path d="M17.964 10.8a7.16 7.16 0 017.164 7.164H10.836c-.036-3.96 3.168-7.164 7.128-7.164zM36.204 18V0h-18c9.936 0 18 8.064 18 18zM0 18C0 8.064 8.064 0 18 0H0v18z" fill="#27282C"/><path d="M54 54c9.936 0 18 8.064 18 18H36c0-9.936 8.064-18 18-18zM54 36c9.936 0 18 8.064 18 18H36c0-9.936 8.064-18 18-18z" fill="#675CE9"/><path d="M7.2 36H0v7.2h7.2V36zM14.4 43.2H7.2v7.2h7.2v-7.2zM21.6 36h-7.2v7.2h7.2V36zM7.2 50.4H0v7.2h7.2v-7.2zM28.8 57.6h-7.2v7.2h7.2v-7.2zM36 64.8h-7.2V72H36v-7.2zM36 50.4h-7.2v7.2H36v-7.2zM21.6 64.8h-7.2V72h7.2v-7.2zM7.2 64.8H0V72h7.2v-7.2zM14.4 57.6H7.2v7.2h7.2v-7.2zM21.6 50.4h-7.2v7.2h7.2v-7.2zM28.8 43.2h-7.2v7.2h7.2v-7.2zM36 36h-7.2v7.2H36V36z" fill="#F76707"/><path d="M17.932 17.796L0 35.728V17.796h17.932zM17.932 17.796l17.932 17.932H17.932V17.796z" fill="#27282C"/><circle cx="53.932" cy="17.932" r="17.796" fill="#27282C"/></svg>