<svg fill="none" height="72" viewBox="0 0 86 72" width="86" xmlns="http://www.w3.org/2000/svg" xmlns:xlink="http://www.w3.org/1999/xlink"><radialGradient id="a" cx="0" cy="0" gradientTransform="matrix(-34.30886244 25.53486721 -29.29640953 -39.36290235 51.907 43.9535)" gradientUnits="userSpaceOnUse" r="1"><stop offset=".437163" stop-color="#ff2470"/><stop offset=".673913" stop-color="#fe861d" stop-opacity=".72"/><stop offset=".906" stop-color="#fe861d" stop-opacity="0"/></radialGradient><linearGradient id="b" gradientUnits="userSpaceOnUse" x1="61.5349" x2="36.4186" y1="50.6512" y2="22.1861"><stop offset="0" stop-color="#ff2175"/><stop offset="1" stop-color="#ff8c00"/></linearGradient><linearGradient id="c" gradientUnits="userSpaceOnUse" x1="41.4419" x2="10.8837" y1="20.093" y2="-.000003"><stop offset="0" stop-color="#f52a5f"/><stop offset="1" stop-color="#ff8c00"/></linearGradient><mask id="d" fill="#fff"><path d="m27.6279 43.1163c0-7.6605 3.0431-15.0072 8.4599-20.4239 5.4167-5.4168 12.7634-8.4599 20.4239-8.4599v13.8642c-3.9835 0-7.8038 1.5824-10.6205 4.3991-2.8167 2.8168-4.3991 6.637-4.3991 10.6205z" fill="#fff"/></mask><circle cx="45.6279" cy="35.5814" fill="url(#a)" r="33.907"/><g stroke="#000"><circle cx="56.5117" cy="43.1163" fill="#fff" r="28.3837"/><circle cx="56.5116" cy="43.1163" fill="url(#b)" r="14.9884"/><path d="m27.6279 43.1163c0-7.6605 3.0431-15.0072 8.4599-20.4239 5.4167-5.4168 12.7634-8.4599 20.4239-8.4599v13.8642c-3.9835 0-7.8038 1.5824-10.6205 4.3991-2.8167 2.8168-4.3991 6.637-4.3991 10.6205z" fill="#000" mask="url(#d)" stroke-width="2"/></g><path clip-rule="evenodd" d="m5.86047 0h5.86043l-5.86043 7.53488 5.86043 7.53492h-5.86043l-5.86047-7.53492zm26.79073 0h-5.8605l5.8605 7.53488-5.8605 7.53492h5.8605l5.8604-7.53492zm-8.3721 0h-5.0233l-5.0232 15.0698h5.0232z" fill="url(#c)" fill-rule="evenodd"/><rect fill="#000" height="1.67442" rx=".837209" width="25.1163" y="70.3256"/><path d="m10.3837 71.1628v-20.093" stroke="#000"/><path d="m15.407 71.1628v-27.6279" stroke="#000"/><path d="m20.4302 71.1628v-46.0465" stroke="#000"/></svg>